<?xml version="1.0" encoding="utf-8" standalone="no"?>
<!DOCTYPE svg PUBLIC "-//W3C//DTD SVG 1.1//EN"
  "http://www.w3.org/Graphics/SVG/1.1/DTD/svg11.dtd">
<svg xmlns:xlink="http://www.w3.org/1999/xlink" width="288pt" height="216pt" viewBox="0 0 288 216" xmlns="http://www.w3.org/2000/svg" version="1.1">
 <metadata>
  <rdf:RDF xmlns:dc="http://purl.org/dc/elements/1.1/" xmlns:cc="http://creativecommons.org/ns#" xmlns:rdf="http://www.w3.org/1999/02/22-rdf-syntax-ns#">
   <cc:Work>
    <dc:type rdf:resource="http://purl.org/dc/dcmitype/StillImage"/>
    <dc:date>1980-01-01T00:00:00+00:00</dc:date>
    <dc:format>image/svg+xml</dc:format>
    <dc:creator>
     <cc:Agent>
      <dc:title>Matplotlib v3.9.2, https://matplotlib.org/</dc:title>
     </cc:Agent>
    </dc:creator>
   </cc:Work>
  </rdf:RDF>
 </metadata>
 <defs>
  <style type="text/css">*{stroke-linejoin: round; stroke-linecap: butt}</style>
 </defs>
 <g id="figure_1">
  <g id="patch_1">
   <path d="M 0 216 
L 288 216 
L 288 0 
L 0 0 
z
" style="fill: #ffffff"/>
  </g>
  <g id="axes_1">
   <g id="patch_2">
    <path d="M 46.068 174.612 
L 270.657 174.612 
L 270.657 13.968 
L 46.068 13.968 
z
" style="fill: #eaeaf2"/>
   </g>
   <g id="matplotlib.axis_1">
    <g id="xtick_1">
     <g id="line2d_1">
      <path d="M 46.068 174.612 
L 46.068 13.968 
" clip-path="url(#p4037d0fa3b)" style="fill: none; stroke: #ffffff; stroke-width: 0.8; stroke-linecap: round"/>
     </g>
     <g id="text_1">
      <!-- 0.0 -->
      <g style="fill: #262626" transform="translate(39.070625 189.598625) scale(0.088 -0.088)">
       <defs>
        <path id="DejaVuSans-30" d="M 2034 4250 
Q 1547 4250 1301 3770 
Q 1056 3291 1056 2328 
Q 1056 1369 1301 889 
Q 1547 409 2034 409 
Q 2525 409 2770 889 
Q 3016 1369 3016 2328 
Q 3016 3291 2770 3770 
Q 2525 4250 2034 4250 
z
M 2034 4750 
Q 2819 4750 3233 4129 
Q 3647 3509 3647 2328 
Q 3647 1150 3233 529 
Q 2819 -91 2034 -91 
Q 1250 -91 836 529 
Q 422 1150 422 2328 
Q 422 3509 836 4129 
Q 1250 4750 2034 4750 
z
" transform="scale(0.015625)"/>
        <path id="DejaVuSans-2e" d="M 684 794 
L 1344 794 
L 1344 0 
L 684 0 
L 684 794 
z
" transform="scale(0.015625)"/>
       </defs>
       <use xlink:href="#DejaVuSans-30"/>
       <use xlink:href="#DejaVuSans-2e" x="63.623047"/>
       <use xlink:href="#DejaVuSans-30" x="95.410156"/>
      </g>
     </g>
    </g>
    <g id="xtick_2">
     <g id="line2d_2">
      <path d="M 90.9858 174.612 
L 90.9858 13.968 
" clip-path="url(#p4037d0fa3b)" style="fill: none; stroke: #ffffff; stroke-width: 0.8; stroke-linecap: round"/>
     </g>
     <g id="text_2">
      <!-- 0.2 -->
      <g style="fill: #262626" transform="translate(83.988425 189.598625) scale(0.088 -0.088)">
       <defs>
        <path id="DejaVuSans-32" d="M 1228 531 
L 3431 531 
L 3431 0 
L 469 0 
L 469 531 
Q 828 903 1448 1529 
Q 2069 2156 2228 2338 
Q 2531 2678 2651 2914 
Q 2772 3150 2772 3378 
Q 2772 3750 2511 3984 
Q 2250 4219 1831 4219 
Q 1534 4219 1204 4116 
Q 875 4013 500 3803 
L 500 4441 
Q 881 4594 1212 4672 
Q 1544 4750 1819 4750 
Q 2544 4750 2975 4387 
Q 3406 4025 3406 3419 
Q 3406 3131 3298 2873 
Q 3191 2616 2906 2266 
Q 2828 2175 2409 1742 
Q 1991 1309 1228 531 
z
" transform="scale(0.015625)"/>
       </defs>
       <use xlink:href="#DejaVuSans-30"/>
       <use xlink:href="#DejaVuSans-2e" x="63.623047"/>
       <use xlink:href="#DejaVuSans-32" x="95.410156"/>
      </g>
     </g>
    </g>
    <g id="xtick_3">
     <g id="line2d_3">
      <path d="M 135.9036 174.612 
L 135.9036 13.968 
" clip-path="url(#p4037d0fa3b)" style="fill: none; stroke: #ffffff; stroke-width: 0.8; stroke-linecap: round"/>
     </g>
     <g id="text_3">
      <!-- 0.4 -->
      <g style="fill: #262626" transform="translate(128.906225 189.598625) scale(0.088 -0.088)">
       <defs>
        <path id="DejaVuSans-34" d="M 2419 4116 
L 825 1625 
L 2419 1625 
L 2419 4116 
z
M 2253 4666 
L 3047 4666 
L 3047 1625 
L 3713 1625 
L 3713 1100 
L 3047 1100 
L 3047 0 
L 2419 0 
L 2419 1100 
L 313 1100 
L 313 1709 
L 2253 4666 
z
" transform="scale(0.015625)"/>
       </defs>
       <use xlink:href="#DejaVuSans-30"/>
       <use xlink:href="#DejaVuSans-2e" x="63.623047"/>
       <use xlink:href="#DejaVuSans-34" x="95.410156"/>
      </g>
     </g>
    </g>
    <g id="xtick_4">
     <g id="line2d_4">
      <path d="M 180.8214 174.612 
L 180.8214 13.968 
" clip-path="url(#p4037d0fa3b)" style="fill: none; stroke: #ffffff; stroke-width: 0.8; stroke-linecap: round"/>
     </g>
     <g id="text_4">
      <!-- 0.6 -->
      <g style="fill: #262626" transform="translate(173.824025 189.598625) scale(0.088 -0.088)">
       <defs>
        <path id="DejaVuSans-36" d="M 2113 2584 
Q 1688 2584 1439 2293 
Q 1191 2003 1191 1497 
Q 1191 994 1439 701 
Q 1688 409 2113 409 
Q 2538 409 2786 701 
Q 3034 994 3034 1497 
Q 3034 2003 2786 2293 
Q 2538 2584 2113 2584 
z
M 3366 4563 
L 3366 3988 
Q 3128 4100 2886 4159 
Q 2644 4219 2406 4219 
Q 1781 4219 1451 3797 
Q 1122 3375 1075 2522 
Q 1259 2794 1537 2939 
Q 1816 3084 2150 3084 
Q 2853 3084 3261 2657 
Q 3669 2231 3669 1497 
Q 3669 778 3244 343 
Q 2819 -91 2113 -91 
Q 1303 -91 875 529 
Q 447 1150 447 2328 
Q 447 3434 972 4092 
Q 1497 4750 2381 4750 
Q 2619 4750 2861 4703 
Q 3103 4656 3366 4563 
z
" transform="scale(0.015625)"/>
       </defs>
       <use xlink:href="#DejaVuSans-30"/>
       <use xlink:href="#DejaVuSans-2e" x="63.623047"/>
       <use xlink:href="#DejaVuSans-36" x="95.410156"/>
      </g>
     </g>
    </g>
    <g id="xtick_5">
     <g id="line2d_5">
      <path d="M 225.7392 174.612 
L 225.7392 13.968 
" clip-path="url(#p4037d0fa3b)" style="fill: none; stroke: #ffffff; stroke-width: 0.8; stroke-linecap: round"/>
     </g>
     <g id="text_5">
      <!-- 0.8 -->
      <g style="fill: #262626" transform="translate(218.741825 189.598625) scale(0.088 -0.088)">
       <defs>
        <path id="DejaVuSans-38" d="M 2034 2216 
Q 1584 2216 1326 1975 
Q 1069 1734 1069 1313 
Q 1069 891 1326 650 
Q 1584 409 2034 409 
Q 2484 409 2743 651 
Q 3003 894 3003 1313 
Q 3003 1734 2745 1975 
Q 2488 2216 2034 2216 
z
M 1403 2484 
Q 997 2584 770 2862 
Q 544 3141 544 3541 
Q 544 4100 942 4425 
Q 1341 4750 2034 4750 
Q 2731 4750 3128 4425 
Q 3525 4100 3525 3541 
Q 3525 3141 3298 2862 
Q 3072 2584 2669 2484 
Q 3125 2378 3379 2068 
Q 3634 1759 3634 1313 
Q 3634 634 3220 271 
Q 2806 -91 2034 -91 
Q 1263 -91 848 271 
Q 434 634 434 1313 
Q 434 1759 690 2068 
Q 947 2378 1403 2484 
z
M 1172 3481 
Q 1172 3119 1398 2916 
Q 1625 2713 2034 2713 
Q 2441 2713 2670 2916 
Q 2900 3119 2900 3481 
Q 2900 3844 2670 4047 
Q 2441 4250 2034 4250 
Q 1625 4250 1398 4047 
Q 1172 3844 1172 3481 
z
" transform="scale(0.015625)"/>
       </defs>
       <use xlink:href="#DejaVuSans-30"/>
       <use xlink:href="#DejaVuSans-2e" x="63.623047"/>
       <use xlink:href="#DejaVuSans-38" x="95.410156"/>
      </g>
     </g>
    </g>
    <g id="xtick_6">
     <g id="line2d_6">
      <path d="M 270.657 174.612 
L 270.657 13.968 
" clip-path="url(#p4037d0fa3b)" style="fill: none; stroke: #ffffff; stroke-width: 0.8; stroke-linecap: round"/>
     </g>
     <g id="text_6">
      <!-- 1.0 -->
      <g style="fill: #262626" transform="translate(263.659625 189.598625) scale(0.088 -0.088)">
       <defs>
        <path id="DejaVuSans-31" d="M 794 531 
L 1825 531 
L 1825 4091 
L 703 3866 
L 703 4441 
L 1819 4666 
L 2450 4666 
L 2450 531 
L 3481 531 
L 3481 0 
L 794 0 
L 794 531 
z
" transform="scale(0.015625)"/>
       </defs>
       <use xlink:href="#DejaVuSans-31"/>
       <use xlink:href="#DejaVuSans-2e" x="63.623047"/>
       <use xlink:href="#DejaVuSans-30" x="95.410156"/>
      </g>
     </g>
    </g>
    <g id="text_7">
     <!-- Timestep -->
     <g style="fill: #262626" transform="translate(136.23525 202.72325) scale(0.096 -0.096)">
      <defs>
       <path id="DejaVuSans-54" d="M -19 4666 
L 3928 4666 
L 3928 4134 
L 2272 4134 
L 2272 0 
L 1638 0 
L 1638 4134 
L -19 4134 
L -19 4666 
z
" transform="scale(0.015625)"/>
       <path id="DejaVuSans-69" d="M 603 3500 
L 1178 3500 
L 1178 0 
L 603 0 
L 603 3500 
z
M 603 4863 
L 1178 4863 
L 1178 4134 
L 603 4134 
L 603 4863 
z
" transform="scale(0.015625)"/>
       <path id="DejaVuSans-6d" d="M 3328 2828 
Q 3544 3216 3844 3400 
Q 4144 3584 4550 3584 
Q 5097 3584 5394 3201 
Q 5691 2819 5691 2113 
L 5691 0 
L 5113 0 
L 5113 2094 
Q 5113 2597 4934 2840 
Q 4756 3084 4391 3084 
Q 3944 3084 3684 2787 
Q 3425 2491 3425 1978 
L 3425 0 
L 2847 0 
L 2847 2094 
Q 2847 2600 2669 2842 
Q 2491 3084 2119 3084 
Q 1678 3084 1418 2786 
Q 1159 2488 1159 1978 
L 1159 0 
L 581 0 
L 581 3500 
L 1159 3500 
L 1159 2956 
Q 1356 3278 1631 3431 
Q 1906 3584 2284 3584 
Q 2666 3584 2933 3390 
Q 3200 3197 3328 2828 
z
" transform="scale(0.015625)"/>
       <path id="DejaVuSans-65" d="M 3597 1894 
L 3597 1613 
L 953 1613 
Q 991 1019 1311 708 
Q 1631 397 2203 397 
Q 2534 397 2845 478 
Q 3156 559 3463 722 
L 3463 178 
Q 3153 47 2828 -22 
Q 2503 -91 2169 -91 
Q 1331 -91 842 396 
Q 353 884 353 1716 
Q 353 2575 817 3079 
Q 1281 3584 2069 3584 
Q 2775 3584 3186 3129 
Q 3597 2675 3597 1894 
z
M 3022 2063 
Q 3016 2534 2758 2815 
Q 2500 3097 2075 3097 
Q 1594 3097 1305 2825 
Q 1016 2553 972 2059 
L 3022 2063 
z
" transform="scale(0.015625)"/>
       <path id="DejaVuSans-73" d="M 2834 3397 
L 2834 2853 
Q 2591 2978 2328 3040 
Q 2066 3103 1784 3103 
Q 1356 3103 1142 2972 
Q 928 2841 928 2578 
Q 928 2378 1081 2264 
Q 1234 2150 1697 2047 
L 1894 2003 
Q 2506 1872 2764 1633 
Q 3022 1394 3022 966 
Q 3022 478 2636 193 
Q 2250 -91 1575 -91 
Q 1294 -91 989 -36 
Q 684 19 347 128 
L 347 722 
Q 666 556 975 473 
Q 1284 391 1588 391 
Q 1994 391 2212 530 
Q 2431 669 2431 922 
Q 2431 1156 2273 1281 
Q 2116 1406 1581 1522 
L 1381 1569 
Q 847 1681 609 1914 
Q 372 2147 372 2553 
Q 372 3047 722 3315 
Q 1072 3584 1716 3584 
Q 2034 3584 2315 3537 
Q 2597 3491 2834 3397 
z
" transform="scale(0.015625)"/>
       <path id="DejaVuSans-74" d="M 1172 4494 
L 1172 3500 
L 2356 3500 
L 2356 3053 
L 1172 3053 
L 1172 1153 
Q 1172 725 1289 603 
Q 1406 481 1766 481 
L 2356 481 
L 2356 0 
L 1766 0 
Q 1100 0 847 248 
Q 594 497 594 1153 
L 594 3053 
L 172 3053 
L 172 3500 
L 594 3500 
L 594 4494 
L 1172 4494 
z
" transform="scale(0.015625)"/>
       <path id="DejaVuSans-70" d="M 1159 525 
L 1159 -1331 
L 581 -1331 
L 581 3500 
L 1159 3500 
L 1159 2969 
Q 1341 3281 1617 3432 
Q 1894 3584 2278 3584 
Q 2916 3584 3314 3078 
Q 3713 2572 3713 1747 
Q 3713 922 3314 415 
Q 2916 -91 2278 -91 
Q 1894 -91 1617 61 
Q 1341 213 1159 525 
z
M 3116 1747 
Q 3116 2381 2855 2742 
Q 2594 3103 2138 3103 
Q 1681 3103 1420 2742 
Q 1159 2381 1159 1747 
Q 1159 1113 1420 752 
Q 1681 391 2138 391 
Q 2594 391 2855 752 
Q 3116 1113 3116 1747 
z
" transform="scale(0.015625)"/>
      </defs>
      <use xlink:href="#DejaVuSans-54"/>
      <use xlink:href="#DejaVuSans-69" x="57.958984"/>
      <use xlink:href="#DejaVuSans-6d" x="85.742188"/>
      <use xlink:href="#DejaVuSans-65" x="183.154297"/>
      <use xlink:href="#DejaVuSans-73" x="244.677734"/>
      <use xlink:href="#DejaVuSans-74" x="296.777344"/>
      <use xlink:href="#DejaVuSans-65" x="335.986328"/>
      <use xlink:href="#DejaVuSans-70" x="397.509766"/>
     </g>
    </g>
    <g id="text_8">
     <!-- 1e6 -->
     <g style="fill: #262626" transform="translate(254.04425 201.115375) scale(0.088 -0.088)">
      <use xlink:href="#DejaVuSans-31"/>
      <use xlink:href="#DejaVuSans-65" x="63.623047"/>
      <use xlink:href="#DejaVuSans-36" x="125.146484"/>
     </g>
    </g>
   </g>
   <g id="matplotlib.axis_2">
    <g id="ytick_1">
     <g id="line2d_7">
      <path d="M 46.068 174.612 
L 270.657 174.612 
" clip-path="url(#p4037d0fa3b)" style="fill: none; stroke: #ffffff; stroke-width: 0.8; stroke-linecap: round"/>
     </g>
     <g id="text_9">
      <!-- 0.0 -->
      <g style="fill: #262626" transform="translate(23.77325 177.955312) scale(0.088 -0.088)">
       <use xlink:href="#DejaVuSans-30"/>
       <use xlink:href="#DejaVuSans-2e" x="63.623047"/>
       <use xlink:href="#DejaVuSans-30" x="95.410156"/>
      </g>
     </g>
    </g>
    <g id="ytick_2">
     <g id="line2d_8">
      <path d="M 46.068 142.4832 
L 270.657 142.4832 
" clip-path="url(#p4037d0fa3b)" style="fill: none; stroke: #ffffff; stroke-width: 0.8; stroke-linecap: round"/>
     </g>
     <g id="text_10">
      <!-- 0.2 -->
      <g style="fill: #262626" transform="translate(23.77325 145.826512) scale(0.088 -0.088)">
       <use xlink:href="#DejaVuSans-30"/>
       <use xlink:href="#DejaVuSans-2e" x="63.623047"/>
       <use xlink:href="#DejaVuSans-32" x="95.410156"/>
      </g>
     </g>
    </g>
    <g id="ytick_3">
     <g id="line2d_9">
      <path d="M 46.068 110.3544 
L 270.657 110.3544 
" clip-path="url(#p4037d0fa3b)" style="fill: none; stroke: #ffffff; stroke-width: 0.8; stroke-linecap: round"/>
     </g>
     <g id="text_11">
      <!-- 0.4 -->
      <g style="fill: #262626" transform="translate(23.77325 113.697712) scale(0.088 -0.088)">
       <use xlink:href="#DejaVuSans-30"/>
       <use xlink:href="#DejaVuSans-2e" x="63.623047"/>
       <use xlink:href="#DejaVuSans-34" x="95.410156"/>
      </g>
     </g>
    </g>
    <g id="ytick_4">
     <g id="line2d_10">
      <path d="M 46.068 78.2256 
L 270.657 78.2256 
" clip-path="url(#p4037d0fa3b)" style="fill: none; stroke: #ffffff; stroke-width: 0.8; stroke-linecap: round"/>
     </g>
     <g id="text_12">
      <!-- 0.6 -->
      <g style="fill: #262626" transform="translate(23.77325 81.568912) scale(0.088 -0.088)">
       <use xlink:href="#DejaVuSans-30"/>
       <use xlink:href="#DejaVuSans-2e" x="63.623047"/>
       <use xlink:href="#DejaVuSans-36" x="95.410156"/>
      </g>
     </g>
    </g>
    <g id="ytick_5">
     <g id="line2d_11">
      <path d="M 46.068 46.0968 
L 270.657 46.0968 
" clip-path="url(#p4037d0fa3b)" style="fill: none; stroke: #ffffff; stroke-width: 0.8; stroke-linecap: round"/>
     </g>
     <g id="text_13">
      <!-- 0.8 -->
      <g style="fill: #262626" transform="translate(23.77325 49.440112) scale(0.088 -0.088)">
       <use xlink:href="#DejaVuSans-30"/>
       <use xlink:href="#DejaVuSans-2e" x="63.623047"/>
       <use xlink:href="#DejaVuSans-38" x="95.410156"/>
      </g>
     </g>
    </g>
    <g id="ytick_6">
     <g id="line2d_12">
      <path d="M 46.068 13.968 
L 270.657 13.968 
" clip-path="url(#p4037d0fa3b)" style="fill: none; stroke: #ffffff; stroke-width: 0.8; stroke-linecap: round"/>
     </g>
     <g id="text_14">
      <!-- 1.0 -->
      <g style="fill: #262626" transform="translate(23.77325 17.311313) scale(0.088 -0.088)">
       <use xlink:href="#DejaVuSans-31"/>
       <use xlink:href="#DejaVuSans-2e" x="63.623047"/>
       <use xlink:href="#DejaVuSans-30" x="95.410156"/>
      </g>
     </g>
    </g>
    <g id="text_15">
     <!-- Score -->
     <g style="fill: #262626" transform="translate(17.77675 107.73225) rotate(-90) scale(0.096 -0.096)">
      <defs>
       <path id="DejaVuSans-53" d="M 3425 4513 
L 3425 3897 
Q 3066 4069 2747 4153 
Q 2428 4238 2131 4238 
Q 1616 4238 1336 4038 
Q 1056 3838 1056 3469 
Q 1056 3159 1242 3001 
Q 1428 2844 1947 2747 
L 2328 2669 
Q 3034 2534 3370 2195 
Q 3706 1856 3706 1288 
Q 3706 609 3251 259 
Q 2797 -91 1919 -91 
Q 1588 -91 1214 -16 
Q 841 59 441 206 
L 441 856 
Q 825 641 1194 531 
Q 1563 422 1919 422 
Q 2459 422 2753 634 
Q 3047 847 3047 1241 
Q 3047 1584 2836 1778 
Q 2625 1972 2144 2069 
L 1759 2144 
Q 1053 2284 737 2584 
Q 422 2884 422 3419 
Q 422 4038 858 4394 
Q 1294 4750 2059 4750 
Q 2388 4750 2728 4690 
Q 3069 4631 3425 4513 
z
" transform="scale(0.015625)"/>
       <path id="DejaVuSans-63" d="M 3122 3366 
L 3122 2828 
Q 2878 2963 2633 3030 
Q 2388 3097 2138 3097 
Q 1578 3097 1268 2742 
Q 959 2388 959 1747 
Q 959 1106 1268 751 
Q 1578 397 2138 397 
Q 2388 397 2633 464 
Q 2878 531 3122 666 
L 3122 134 
Q 2881 22 2623 -34 
Q 2366 -91 2075 -91 
Q 1284 -91 818 406 
Q 353 903 353 1747 
Q 353 2603 823 3093 
Q 1294 3584 2113 3584 
Q 2378 3584 2631 3529 
Q 2884 3475 3122 3366 
z
" transform="scale(0.015625)"/>
       <path id="DejaVuSans-6f" d="M 1959 3097 
Q 1497 3097 1228 2736 
Q 959 2375 959 1747 
Q 959 1119 1226 758 
Q 1494 397 1959 397 
Q 2419 397 2687 759 
Q 2956 1122 2956 1747 
Q 2956 2369 2687 2733 
Q 2419 3097 1959 3097 
z
M 1959 3584 
Q 2709 3584 3137 3096 
Q 3566 2609 3566 1747 
Q 3566 888 3137 398 
Q 2709 -91 1959 -91 
Q 1206 -91 779 398 
Q 353 888 353 1747 
Q 353 2609 779 3096 
Q 1206 3584 1959 3584 
z
" transform="scale(0.015625)"/>
       <path id="DejaVuSans-72" d="M 2631 2963 
Q 2534 3019 2420 3045 
Q 2306 3072 2169 3072 
Q 1681 3072 1420 2755 
Q 1159 2438 1159 1844 
L 1159 0 
L 581 0 
L 581 3500 
L 1159 3500 
L 1159 2956 
Q 1341 3275 1631 3429 
Q 1922 3584 2338 3584 
Q 2397 3584 2469 3576 
Q 2541 3569 2628 3553 
L 2631 2963 
z
" transform="scale(0.015625)"/>
      </defs>
      <use xlink:href="#DejaVuSans-53"/>
      <use xlink:href="#DejaVuSans-63" x="63.476562"/>
      <use xlink:href="#DejaVuSans-6f" x="118.457031"/>
      <use xlink:href="#DejaVuSans-72" x="179.638672"/>
      <use xlink:href="#DejaVuSans-65" x="218.501953"/>
     </g>
    </g>
   </g>
   <g id="PolyCollection_1">
    <defs>
     <path id="m850b9d8dd0" d="M 48.31389 -41.388 
L 48.31389 -41.388 
L 50.55978 -41.388 
L 52.80567 -41.388 
L 55.05156 -41.388 
L 57.29745 -41.388 
L 59.54334 -41.388 
L 61.78923 -41.388 
L 64.03512 -41.388 
L 66.28101 -41.388 
L 68.5269 -41.388 
L 70.77279 -41.388 
L 73.01868 -41.388 
L 75.26457 -41.388 
L 77.51046 -41.388 
L 79.75635 -41.388 
L 82.00224 -41.388 
L 84.24813 -41.388 
L 86.49402 -41.388 
L 88.73991 -44.474373 
L 90.9858 -47.506525 
L 93.23169 -44.52859 
L 95.47758 -59.897196 
L 97.72347 -78.551297 
L 99.96936 -72.599622 
L 102.21525 -63.304365 
L 104.46114 -88.293539 
L 106.70703 -75.820175 
L 108.95292 -91.402508 
L 111.19881 -85.338194 
L 113.4447 -81.958141 
L 115.69059 -91.107017 
L 117.93648 -75.835099 
L 120.18237 -85.216207 
L 122.42826 -94.627026 
L 124.67415 -82.098203 
L 126.92004 -82.098203 
L 129.16593 -88.429087 
L 131.41182 -94.660567 
L 133.65771 -138.646909 
L 135.9036 -100.946262 
L 138.14949 -153.622432 
L 140.39538 -128.691996 
L 142.64127 -141.656481 
L 144.88716 -153.889797 
L 147.13305 -163.170729 
L 149.37894 -144.742844 
L 151.62483 -160.237961 
L 153.87072 -166.8309 
L 156.11661 -151.024028 
L 158.3625 -163.324349 
L 160.60839 -145.004903 
L 162.85428 -154.178173 
L 165.10017 -150.932409 
L 167.34606 -151.173135 
L 169.59195 -135.280418 
L 171.83784 -147.887968 
L 174.08373 -160.739146 
L 176.32962 -141.742316 
L 178.57551 -144.751889 
L 180.8214 -154.566733 
L 183.06729 -132.178192 
L 185.31318 -185.366854 
L 187.55907 -147.969276 
L 189.80496 -141.715206 
L 192.05085 -157.382028 
L 194.29674 -151.231863 
L 196.54263 -144.873878 
L 198.78852 -147.991872 
L 201.03441 -144.842248 
L 203.2803 -129.062477 
L 205.52619 -151.055656 
L 207.77208 -167.0297 
L 210.01797 -148.127434 
L 212.26386 -176.270752 
L 214.50975 -154.318239 
L 216.75564 -153.974846 
L 219.00153 -172.868107 
L 221.24742 -154.191728 
L 223.49331 -166.867038 
L 225.7392 -160.237957 
L 227.98509 -169.790762 
L 230.23098 -154.64354 
L 232.47687 -141.873331 
L 234.72276 -178.9776 
L 236.96865 -169.82239 
L 239.21454 -122.713537 
L 241.46043 -160.608451 
L 243.70632 -160.522606 
L 245.95221 -179.384213 
L 248.1981 -160.527123 
L 250.44399 -150.897527 
L 252.68988 -160.414171 
L 254.93577 -179.465547 
L 257.18166 -188.76465 
L 259.42755 -179.39326 
L 261.67344 -179.288991 
L 263.91933 -169.930824 
L 266.16522 -179.560427 
L 268.41111 -188.629679 
L 270.657 -169.881021 
L 270.657 -198.209704 
L 270.657 -198.209704 
L 268.41111 -198.209704 
L 266.16522 -198.205187 
L 263.91933 -198.205187 
L 261.67344 -198.209704 
L 259.42755 -198.209704 
L 257.18166 -198.209704 
L 254.93577 -198.209704 
L 252.68988 -198.209704 
L 250.44399 -198.209704 
L 248.1981 -198.205187 
L 245.95221 -198.2053 
L 243.70632 -198.209704 
L 241.46043 -198.205187 
L 239.21454 -198.209704 
L 236.96865 -198.209704 
L 234.72276 -198.196256 
L 232.47687 -198.128367 
L 230.23098 -198.128367 
L 227.98509 -198.114805 
L 225.7392 -198.128367 
L 223.49331 -198.128367 
L 221.24742 -198.128367 
L 219.00153 -198.128367 
L 216.75564 -198.114805 
L 214.50975 -198.128367 
L 212.26386 -198.128367 
L 210.01797 -198.083187 
L 207.77208 -198.115144 
L 205.52619 -198.128367 
L 203.2803 -198.128367 
L 201.03441 -198.128367 
L 198.78852 -198.128367 
L 196.54263 -198.128367 
L 194.29674 -198.128367 
L 192.05085 -198.114805 
L 189.80496 -198.128367 
L 187.55907 -198.114805 
L 185.31318 -198.128367 
L 183.06729 -198.128367 
L 180.8214 -198.128367 
L 178.57551 -198.128367 
L 176.32962 -198.128367 
L 174.08373 -198.128367 
L 171.83784 -198.128367 
L 169.59195 -198.128367 
L 167.34606 -198.128367 
L 165.10017 -198.128367 
L 162.85428 -198.114805 
L 160.60839 -198.114805 
L 158.3625 -198.096861 
L 156.11661 -198.128367 
L 153.87072 -198.114805 
L 151.62483 -198.128367 
L 149.37894 -195.073618 
L 147.13305 -194.933553 
L 144.88716 -191.892363 
L 142.64127 -195.037809 
L 140.39538 -191.734231 
L 138.14949 -191.946583 
L 135.9036 -195.110109 
L 133.65771 -191.951097 
L 131.41182 -185.669933 
L 129.16593 -176.234604 
L 126.92004 -163.864262 
L 124.67415 -166.704392 
L 122.42826 -169.736554 
L 120.18237 -163.605478 
L 117.93648 -147.883435 
L 115.69059 -172.764862 
L 113.4447 -156.912138 
L 111.19881 -151.344812 
L 108.95292 -176.144239 
L 106.70703 -141.594807 
L 104.46114 -175.814395 
L 102.21525 -129.103155 
L 99.96936 -138.373219 
L 97.72347 -147.440658 
L 95.47758 -94.670402 
L 93.23169 -126.1478 
L 90.9858 -97.841816 
L 88.73991 -72.662887 
L 86.49402 -69.531335 
L 84.24813 -41.388 
L 82.00224 -41.388 
L 79.75635 -41.388 
L 77.51046 -41.388 
L 75.26457 -41.388 
L 73.01868 -41.388 
L 70.77279 -41.388 
L 68.5269 -41.388 
L 66.28101 -41.388 
L 64.03512 -41.388 
L 61.78923 -41.388 
L 59.54334 -41.388 
L 57.29745 -41.388 
L 55.05156 -41.388 
L 52.80567 -41.388 
L 50.55978 -41.388 
L 48.31389 -41.388 
z
" style="stroke: #4c72b0; stroke-opacity: 0.2; stroke-width: 0.8"/>
    </defs>
    <g clip-path="url(#p4037d0fa3b)">
     <use xlink:href="#m850b9d8dd0" x="0" y="216" style="fill: #4c72b0; fill-opacity: 0.2; stroke: #4c72b0; stroke-opacity: 0.2; stroke-width: 0.8"/>
    </g>
   </g>
   <g id="PolyCollection_2">
    <defs>
     <path id="m5483bf6486" d="M 48.31389 -41.388 
L 48.31389 -41.388 
L 50.55978 -41.388 
L 52.80567 -41.388 
L 55.05156 -41.388 
L 57.29745 -41.388 
L 59.54334 -41.388 
L 61.78923 -41.388 
L 64.03512 -41.388 
L 66.28101 -41.388 
L 68.5269 -41.388 
L 70.77279 -41.388 
L 73.01868 -41.388 
L 75.26457 -41.388 
L 77.51046 -41.388 
L 79.75635 -41.388 
L 82.00224 -41.388 
L 84.24813 -44.4066 
L 86.49402 -41.388 
L 88.73991 -47.669184 
L 90.9858 -50.854953 
L 93.23169 -63.113244 
L 95.47758 -66.205493 
L 97.72347 -59.97401 
L 99.96936 -66.133191 
L 102.21525 -69.151794 
L 104.46114 -78.794951 
L 106.70703 -66.390738 
L 108.95292 -78.907916 
L 111.19881 -75.713109 
L 113.4447 -75.839619 
L 115.69059 -72.830053 
L 117.93648 -78.921475 
L 120.18237 -85.202652 
L 122.42826 -75.830575 
L 124.67415 -81.944592 
L 126.92004 -72.685467 
L 129.16593 -69.59006 
L 131.41182 -75.835095 
L 133.65771 -91.64197 
L 135.9036 -82.080137 
L 138.14949 -119.663299 
L 140.39538 -131.990724 
L 142.64127 -100.801692 
L 144.88716 -119.563893 
L 147.13305 -97.846334 
L 149.37894 -113.323397 
L 151.62483 -113.314353 
L 153.87072 -132.171443 
L 156.11661 -135.447584 
L 158.3625 -107.204859 
L 160.60839 -138.818596 
L 162.85428 -107.254559 
L 165.10017 -125.989669 
L 167.34606 -122.907823 
L 169.59195 -110.060807 
L 171.83784 -128.583539 
L 174.08373 -132.275363 
L 176.32962 -141.444103 
L 178.57551 -138.619808 
L 180.8214 -154.209794 
L 183.06729 -147.978324 
L 185.31318 -147.887958 
L 187.55907 -141.665496 
L 189.80496 -135.388843 
L 192.05085 -132.080176 
L 194.29674 -154.074266 
L 196.54263 -132.175966 
L 198.78852 -160.19876 
L 201.03441 -132.1092 
L 203.2803 -160.477433 
L 205.52619 -154.299253 
L 207.77208 -154.245949 
L 210.01797 -141.552548 
L 212.26386 -157.544677 
L 214.50975 -151.304143 
L 216.75564 -148.0732 
L 219.00153 -154.121791 
L 221.24742 -153.943222 
L 223.49331 -160.554243 
L 225.7392 -185.466609 
L 227.98509 -169.966956 
L 230.23098 -169.790772 
L 232.47687 -169.596489 
L 234.72276 -169.695873 
L 236.96865 -179.018024 
L 239.21454 -169.492552 
L 241.46043 -197.775952 
L 241.46043 -197.974753 
L 241.46043 -197.974753 
L 239.21454 -197.920535 
L 236.96865 -197.91173 
L 234.72276 -197.920535 
L 232.47687 -197.911504 
L 230.23098 -197.91173 
L 227.98509 -197.911504 
L 225.7392 -197.893419 
L 223.49331 -197.893419 
L 221.24742 -197.90245 
L 219.00153 -197.884387 
L 216.75564 -197.893419 
L 214.50975 -197.902902 
L 212.26386 -197.884387 
L 210.01797 -197.893419 
L 207.77208 -197.90245 
L 205.52619 -197.90245 
L 203.2803 -197.893419 
L 201.03441 -197.893419 
L 198.78852 -197.893419 
L 196.54263 -197.893419 
L 194.29674 -197.893419 
L 192.05085 -191.761342 
L 189.80496 -191.747777 
L 187.55907 -191.689045 
L 185.31318 -191.580611 
L 183.06729 -191.729704 
L 180.8214 -191.661938 
L 178.57551 -182.588071 
L 176.32962 -179.23964 
L 174.08373 -182.326019 
L 171.83784 -185.520839 
L 169.59195 -172.809369 
L 167.34606 -154.164615 
L 165.10017 -163.591029 
L 162.85428 -163.807785 
L 160.60839 -169.718482 
L 158.3625 -169.881118 
L 156.11661 -166.677286 
L 153.87072 -166.641121 
L 151.62483 -157.616967 
L 149.37894 -147.94668 
L 147.13305 -160.463868 
L 144.88716 -147.734341 
L 142.64127 -147.414112 
L 140.39538 -157.422694 
L 138.14949 -156.97087 
L 135.9036 -154.277586 
L 133.65771 -154.300179 
L 131.41182 -144.711217 
L 129.16593 -122.903293 
L 126.92004 -144.684113 
L 124.67415 -157.232915 
L 122.42826 -157.332315 
L 120.18237 -172.827425 
L 117.93648 -141.764916 
L 115.69059 -126.244957 
L 113.4447 -141.683579 
L 111.19881 -153.934203 
L 108.95292 -147.318668 
L 106.70703 -141.554966 
L 104.46114 -141.787502 
L 102.21525 -128.809482 
L 99.96936 -144.575694 
L 97.72347 -113.047777 
L 95.47758 -116.33747 
L 93.23169 -112.930304 
L 90.9858 -91.40691 
L 88.73991 -84.999331 
L 86.49402 -53.954885 
L 84.24813 -66.359107 
L 82.00224 -50.863988 
L 79.75635 -53.914222 
L 77.51046 -41.388 
L 75.26457 -41.388 
L 73.01868 -41.388 
L 70.77279 -59.960454 
L 68.5269 -41.388 
L 66.28101 -41.388 
L 64.03512 -41.388 
L 61.78923 -41.388 
L 59.54334 -41.388 
L 57.29745 -41.388 
L 55.05156 -41.388 
L 52.80567 -41.388 
L 50.55978 -41.388 
L 48.31389 -41.388 
z
" style="stroke: #dd8452; stroke-opacity: 0.2; stroke-width: 0.8"/>
    </defs>
    <g clip-path="url(#p4037d0fa3b)">
     <use xlink:href="#m5483bf6486" x="0" y="216" style="fill: #dd8452; fill-opacity: 0.2; stroke: #dd8452; stroke-opacity: 0.2; stroke-width: 0.8"/>
    </g>
   </g>
   <g id="PolyCollection_3">
    <defs>
     <path id="m76d84682b8" d="M 48.31389 -41.388 
L 48.31389 -41.388 
L 50.55978 -41.388 
L 52.80567 -41.388 
L 55.05156 -41.388 
L 57.29745 -41.388 
L 59.54334 -41.388 
L 61.78923 -41.388 
L 64.03512 -41.388 
L 66.28101 -41.388 
L 68.5269 -41.388 
L 70.77279 -41.388 
L 73.01868 -41.388 
L 75.26457 -41.388 
L 77.51046 -41.388 
L 79.75635 -41.388 
L 82.00224 -41.388 
L 84.24813 -41.388 
L 86.49402 -41.388 
L 88.73991 -41.388 
L 90.9858 -41.388 
L 93.23169 -41.388 
L 95.47758 -41.388 
L 97.72347 -41.388 
L 99.96936 -41.388 
L 102.21525 -41.388 
L 104.46114 -41.388 
L 106.70703 -50.719408 
L 108.95292 -50.656156 
L 111.19881 -60.019186 
L 113.4447 -66.422366 
L 115.69059 -72.563474 
L 117.93648 -66.32748 
L 120.18237 -57.03673 
L 122.42826 -69.54488 
L 124.67415 -88.316135 
L 126.92004 -69.63863 
L 129.16593 -72.699022 
L 131.41182 -78.876292 
L 133.65771 -82.134348 
L 135.9036 -91.382057 
L 138.14949 -91.361836 
L 140.39538 -94.592795 
L 142.64127 -91.271474 
L 144.88716 -100.711323 
L 147.13305 -103.833834 
L 149.37894 -94.651542 
L 151.62483 -103.831462 
L 153.87072 -81.940069 
L 156.11661 -103.815762 
L 158.3625 -132.031367 
L 160.60839 -85.302055 
L 162.85428 -119.866626 
L 165.10017 -125.836035 
L 167.34606 -116.73055 
L 169.59195 -159.623488 
L 171.83784 -172.529231 
L 174.08373 -129.003752 
L 176.32962 -150.902045 
L 178.57551 -160.237964 
L 180.8214 -151.091797 
L 183.06729 -179.031808 
L 185.31318 -179.013736 
L 187.55907 -178.891739 
L 189.80496 -160.373502 
L 192.05085 -169.921787 
L 194.29674 -169.989546 
L 196.54263 -150.915603 
L 198.78852 -179.140249 
L 201.03441 -179.013736 
L 203.2803 -188.354185 
L 205.52619 -169.474477 
L 207.77208 -197.550029 
L 207.77208 -198.187105 
L 207.77208 -198.187105 
L 205.52619 -198.083194 
L 203.2803 -198.083194 
L 201.03441 -198.083194 
L 198.78852 -198.083194 
L 196.54263 -198.083194 
L 194.29674 -198.083194 
L 192.05085 -198.083194 
L 189.80496 -198.00638 
L 187.55907 -198.083194 
L 185.31318 -198.083194 
L 183.06729 -198.083194 
L 180.8214 -198.065125 
L 178.57551 -198.083194 
L 176.32962 -198.083194 
L 174.08373 -197.798542 
L 171.83784 -197.798542 
L 169.59195 -197.798542 
L 167.34606 -197.798542 
L 165.10017 -197.721729 
L 162.85428 -197.798542 
L 160.60839 -197.798542 
L 158.3625 -197.798542 
L 156.11661 -197.78047 
L 153.87072 -197.798542 
L 151.62483 -197.798542 
L 149.37894 -197.798542 
L 147.13305 -197.78047 
L 144.88716 -197.78047 
L 142.64127 -185.105141 
L 140.39538 -185.073513 
L 138.14949 -179.357106 
L 135.9036 -178.925736 
L 133.65771 -178.742639 
L 131.41182 -169.366042 
L 129.16593 -166.225445 
L 126.92004 -166.094302 
L 124.67415 -178.543833 
L 122.42826 -175.62915 
L 120.18237 -166.09001 
L 117.93648 -166.338532 
L 115.69059 -169.411225 
L 113.4447 -156.826271 
L 111.19881 -159.904506 
L 108.95292 -159.998485 
L 106.70703 -160.753021 
L 104.46114 -153.667602 
L 102.21525 -138.03694 
L 99.96936 -153.748933 
L 97.72347 -153.70375 
L 95.47758 -131.886801 
L 93.23169 -69.368673 
L 90.9858 -128.958569 
L 88.73991 -112.775583 
L 86.49402 -94.199721 
L 84.24813 -100.354382 
L 82.00224 -72.522818 
L 79.75635 -41.388 
L 77.51046 -50.647119 
L 75.26457 -41.388 
L 73.01868 -41.388 
L 70.77279 -41.388 
L 68.5269 -41.388 
L 66.28101 -41.388 
L 64.03512 -41.388 
L 61.78923 -41.388 
L 59.54334 -41.388 
L 57.29745 -41.388 
L 55.05156 -41.388 
L 52.80567 -41.388 
L 50.55978 -41.388 
L 48.31389 -41.388 
z
" style="stroke: #55a868; stroke-opacity: 0.2; stroke-width: 0.8"/>
    </defs>
    <g clip-path="url(#p4037d0fa3b)">
     <use xlink:href="#m76d84682b8" x="0" y="216" style="fill: #55a868; fill-opacity: 0.2; stroke: #55a868; stroke-opacity: 0.2; stroke-width: 0.8"/>
    </g>
   </g>
   <g id="PolyCollection_4">
    <defs>
     <path id="m4a8286bc4e" d="M 48.31389 -41.388 
L 48.31389 -41.388 
L 50.55978 -41.388 
L 52.80567 -41.388 
L 55.05156 -41.388 
L 57.29745 -41.388 
L 59.54334 -41.388 
L 61.78923 -41.388 
L 64.03512 -41.388 
L 66.28101 -41.388 
L 68.5269 -41.388 
L 70.77279 -41.388 
L 73.01868 -41.388 
L 75.26457 -41.388 
L 77.51046 -41.388 
L 79.75635 -41.388 
L 82.00224 -41.388 
L 84.24813 -41.388 
L 86.49402 -41.388 
L 88.73991 -44.501483 
L 90.9858 -41.388 
L 93.23169 -50.773629 
L 95.47758 -44.492445 
L 97.72347 -54.027171 
L 99.96936 -63.007168 
L 102.21525 -60.019186 
L 104.46114 -60.032744 
L 106.70703 -66.249756 
L 108.95292 -78.532909 
L 111.19881 -66.413328 
L 113.4447 -72.625706 
L 115.69059 -75.686002 
L 117.93648 -88.298056 
L 120.18237 -72.613181 
L 122.42826 -82.034945 
L 124.67415 -79.057016 
L 126.92004 -82.062062 
L 129.16593 -75.853168 
L 131.41182 -81.940846 
L 133.65771 -78.84668 
L 135.9036 -88.329684 
L 138.14949 -85.182659 
L 140.39538 -88.45168 
L 142.64127 -88.429084 
L 144.88716 -97.841823 
L 147.13305 -85.202649 
L 149.37894 -94.610874 
L 151.62483 -94.637974 
L 153.87072 -100.928193 
L 156.11661 -91.529015 
L 158.3625 -91.506425 
L 160.60839 -88.377915 
L 162.85428 -78.912434 
L 165.10017 -132.135291 
L 167.34606 -104.10041 
L 169.59195 -125.899306 
L 171.83784 -175.818922 
L 174.08373 -135.271367 
L 176.32962 -154.245936 
L 178.57551 -160.332853 
L 180.8214 -138.289977 
L 183.06729 -166.659206 
L 185.31318 -141.597734 
L 187.55907 -169.700397 
L 189.80496 -141.529851 
L 192.05085 -189.054493 
L 194.29674 -197.595231 
L 194.29674 -198.187105 
L 194.29674 -198.187105 
L 192.05085 -198.187105 
L 189.80496 -198.187105 
L 187.55907 -198.187105 
L 185.31318 -198.187105 
L 183.06729 -198.191964 
L 180.8214 -198.187105 
L 178.57551 -198.187105 
L 176.32962 -198.187105 
L 174.08373 -198.182584 
L 171.83784 -198.182584 
L 169.59195 -194.974222 
L 167.34606 -185.674438 
L 165.10017 -191.851697 
L 162.85428 -185.597637 
L 160.60839 -188.824062 
L 158.3625 -185.642813 
L 156.11661 -185.629823 
L 153.87072 -195.023922 
L 151.62483 -191.829785 
L 149.37894 -188.711682 
L 147.13305 -188.711785 
L 144.88716 -194.951632 
L 142.64127 -185.629252 
L 140.39538 -191.869767 
L 138.14949 -172.967507 
L 135.9036 -182.393788 
L 133.65771 -169.87661 
L 131.41182 -176.139718 
L 129.16593 -172.873857 
L 126.92004 -176.184904 
L 124.67415 -179.307422 
L 122.42826 -176.157787 
L 120.18237 -176.00869 
L 117.93648 -179.266747 
L 115.69059 -169.885648 
L 113.4447 -156.9346 
L 111.19881 -138.544902 
L 108.95292 -147.883431 
L 106.70703 -157.052762 
L 104.46114 -128.981155 
L 102.21525 -151.028552 
L 99.96936 -140.739294 
L 97.72347 -110.268636 
L 95.47758 -116.107033 
L 93.23169 -100.611926 
L 90.9858 -60.109555 
L 88.73991 -94.493408 
L 86.49402 -60.29931 
L 84.24813 -60.028224 
L 82.00224 -41.388 
L 79.75635 -41.388 
L 77.51046 -50.782667 
L 75.26457 -41.388 
L 73.01868 -41.388 
L 70.77279 -41.388 
L 68.5269 -50.850436 
L 66.28101 -41.388 
L 64.03512 -41.388 
L 61.78923 -41.388 
L 59.54334 -41.388 
L 57.29745 -41.388 
L 55.05156 -41.388 
L 52.80567 -41.388 
L 50.55978 -41.388 
L 48.31389 -41.388 
z
" style="stroke: #c44e52; stroke-opacity: 0.2; stroke-width: 0.8"/>
    </defs>
    <g clip-path="url(#p4037d0fa3b)">
     <use xlink:href="#m4a8286bc4e" x="0" y="216" style="fill: #c44e52; fill-opacity: 0.2; stroke: #c44e52; stroke-opacity: 0.2; stroke-width: 0.8"/>
    </g>
   </g>
   <g id="line2d_13">
    <path d="M 48.31389 174.612 
L 50.55978 174.612 
L 52.80567 174.612 
L 55.05156 174.612 
L 57.29745 174.612 
L 59.54334 174.612 
L 61.78923 174.612 
L 64.03512 174.612 
L 66.28101 174.612 
L 68.5269 174.612 
L 70.77279 174.612 
L 73.01868 174.612 
L 75.26457 174.612 
L 77.51046 174.612 
L 79.75635 174.612 
L 82.00224 174.612 
L 84.24813 174.612 
L 86.49402 165.230888 
L 88.73991 159.021998 
L 90.9858 143.481705 
L 93.23169 130.679879 
L 95.47758 137.114677 
L 97.72347 105.921117 
L 99.96936 108.9578 
L 102.21525 121.402681 
L 104.46114 77.71455 
L 106.70703 102.55914 
L 108.95292 74.465512 
L 111.19881 86.71161 
L 113.4447 90.326604 
L 115.69059 77.913343 
L 117.93648 96.30507 
L 120.18237 83.792406 
L 122.42826 77.560919 
L 124.67415 83.842109 
L 126.92004 90.019376 
L 129.16593 77.434415 
L 131.41182 68.017162 
L 133.65771 49.2188 
L 135.9036 61.64562 
L 138.14949 43.091244 
L 140.39538 55.780105 
L 142.64127 46.105317 
L 144.88716 43.100275 
L 147.13305 36.941078 
L 149.37894 46.091769 
L 151.62483 36.778433 
L 153.87072 30.424959 
L 156.11661 39.80155 
L 158.3625 33.651391 
L 160.60839 39.783475 
L 162.85428 36.73325 
L 165.10017 39.923537 
L 167.34606 39.84673 
L 169.59195 49.295608 
L 171.83784 42.942137 
L 174.08373 36.511857 
L 176.32962 42.973765 
L 178.57551 39.873834 
L 180.8214 36.566074 
L 183.06729 46.132428 
L 185.31318 24.243185 
L 187.55907 42.951178 
L 189.80496 46.078213 
L 192.05085 33.592657 
L 194.29674 39.77444 
L 196.54263 39.80155 
L 198.78852 36.742285 
L 201.03441 39.85125 
L 203.2803 49.245914 
L 205.52619 39.855768 
L 207.77208 30.415925 
L 210.01797 36.638361 
L 212.26386 27.243697 
L 214.50975 36.724209 
L 216.75564 36.823615 
L 219.00153 30.501763 
L 221.24742 36.751319 
L 223.49331 33.502298 
L 225.7392 33.696577 
L 227.98509 30.506287 
L 230.23098 36.471198 
L 232.47687 42.924075 
L 234.72276 24.24769 
L 236.96865 27.297921 
L 239.21454 43.000872 
L 241.46043 30.384294 
L 243.70632 30.397849 
L 245.95221 24.121186 
L 248.1981 30.397849 
L 250.44399 33.606209 
L 252.68988 30.433994 
L 254.93577 24.085041 
L 257.18166 20.994148 
L 259.42755 24.107631 
L 261.67344 24.157334 
L 263.91933 27.261776 
L 266.16522 24.062448 
L 268.41111 21.030293 
L 270.657 27.279845 
" clip-path="url(#p4037d0fa3b)" style="fill: none; stroke: #4c72b0; stroke-width: 1.2; stroke-linecap: round"/>
   </g>
   <g id="line2d_14">
    <path d="M 48.31389 174.612 
L 50.55978 174.612 
L 52.80567 174.612 
L 55.05156 174.612 
L 57.29745 174.612 
L 59.54334 174.612 
L 61.78923 174.612 
L 64.03512 174.612 
L 66.28101 174.612 
L 68.5269 174.612 
L 70.77279 168.421182 
L 73.01868 174.612 
L 75.26457 174.612 
L 77.51046 174.612 
L 79.75635 168.348889 
L 82.00224 171.453337 
L 84.24813 162.194219 
L 86.49402 168.344372 
L 88.73991 149.64541 
L 90.9858 146.391865 
L 93.23169 127.977548 
L 95.47758 121.592444 
L 97.72347 127.864596 
L 99.96936 109.070739 
L 102.21525 115.388071 
L 104.46114 99.486326 
L 106.70703 108.984894 
L 108.95292 96.530974 
L 111.19881 102.735344 
L 113.4447 99.454695 
L 115.69059 108.808696 
L 117.93648 102.455223 
L 120.18237 86.923965 
L 122.42826 96.408991 
L 124.67415 90.091662 
L 126.92004 105.726841 
L 129.16593 115.080842 
L 131.41182 102.604326 
L 133.65771 86.788407 
L 135.9036 93.159953 
L 138.14949 77.588033 
L 140.39538 71.211963 
L 142.64127 93.354242 
L 144.88716 80.76026 
L 147.13305 86.806492 
L 149.37894 86.955589 
L 151.62483 80.53434 
L 153.87072 65.079899 
L 156.11661 61.826341 
L 158.3625 77.457012 
L 160.60839 64.831392 
L 162.85428 77.375678 
L 165.10017 71.257149 
L 167.34606 77.51574 
L 169.59195 74.564912 
L 171.83784 58.843885 
L 174.08373 58.699309 
L 176.32962 58.744501 
L 178.57551 55.39606 
L 180.8214 43.064134 
L 183.06729 46.12791 
L 185.31318 46.204721 
L 187.55907 49.354355 
L 189.80496 49.295617 
L 192.05085 52.553677 
L 194.29674 36.909454 
L 196.54263 46.326714 
L 198.78852 33.723684 
L 201.03441 43.104789 
L 203.2803 36.796499 
L 205.52619 36.782953 
L 207.77208 36.801016 
L 210.01797 46.186655 
L 212.26386 33.628805 
L 214.50975 39.85125 
L 216.75564 36.764874 
L 219.00153 39.955171 
L 221.24742 36.941088 
L 223.49331 36.737764 
L 225.7392 24.319986 
L 227.98509 27.442507 
L 230.23098 27.501235 
L 232.47687 27.569008 
L 234.72276 27.532869 
L 236.96865 24.428421 
L 239.21454 27.600642 
L 241.46043 18.124647 
" clip-path="url(#p4037d0fa3b)" style="fill: none; stroke: #dd8452; stroke-width: 1.2; stroke-linecap: round"/>
   </g>
   <g id="line2d_15">
    <path d="M 48.31389 174.612 
L 50.55978 174.612 
L 52.80567 174.612 
L 55.05156 174.612 
L 57.29745 174.612 
L 59.54334 174.612 
L 61.78923 174.612 
L 64.03512 174.612 
L 66.28101 174.612 
L 68.5269 174.612 
L 70.77279 174.612 
L 73.01868 174.612 
L 75.26457 174.612 
L 77.51046 171.525627 
L 79.75635 174.612 
L 82.00224 162.167109 
L 84.24813 152.917031 
L 86.49402 152.826662 
L 88.73991 140.426957 
L 90.9858 137.137266 
L 93.23169 162.171626 
L 95.47758 134.100594 
L 97.72347 124.647199 
L 99.96936 124.602016 
L 102.21525 140.314008 
L 104.46114 124.683347 
L 106.70703 112.057731 
L 108.95292 112.166162 
L 111.19881 105.934685 
L 113.4447 108.998459 
L 115.69059 93.372321 
L 117.93648 99.703202 
L 120.18237 109.093345 
L 122.42826 93.435576 
L 124.67415 74.732091 
L 126.92004 99.554105 
L 129.16593 93.345214 
L 131.41182 87.176979 
L 133.65771 77.691957 
L 135.9036 74.619142 
L 138.14949 74.366121 
L 140.39538 65.170258 
L 142.64127 74.632694 
L 144.88716 52.766029 
L 147.13305 65.165738 
L 149.37894 58.902623 
L 151.62483 55.707822 
L 153.87072 71.442397 
L 156.11661 62.061295 
L 158.3625 49.480859 
L 160.60839 68.25211 
L 162.85428 46.231831 
L 165.10017 52.585308 
L 167.34606 49.404052 
L 169.59195 37.288985 
L 171.83784 30.79997 
L 174.08373 43.330706 
L 176.32962 33.795974 
L 178.57551 30.677977 
L 180.8214 33.732722 
L 183.06729 24.419386 
L 185.31318 24.419386 
L 187.55907 24.460052 
L 189.80496 30.632797 
L 192.05085 27.456059 
L 194.29674 27.433472 
L 196.54263 33.791454 
L 198.78852 24.383238 
L 201.03441 24.419386 
L 203.2803 21.305903 
L 205.52619 27.605162 
L 207.77208 18.093026 
" clip-path="url(#p4037d0fa3b)" style="fill: none; stroke: #55a868; stroke-width: 1.2; stroke-linecap: round"/>
   </g>
   <g id="line2d_16">
    <path d="M 48.31389 174.612 
L 50.55978 174.612 
L 52.80567 174.612 
L 55.05156 174.612 
L 57.29745 174.612 
L 59.54334 174.612 
L 61.78923 174.612 
L 64.03512 174.612 
L 66.28101 174.612 
L 68.5269 171.457855 
L 70.77279 174.612 
L 73.01868 174.612 
L 75.26457 174.612 
L 77.51046 171.480444 
L 79.75635 174.612 
L 82.00224 174.612 
L 84.24813 168.398592 
L 86.49402 168.30823 
L 88.73991 152.758887 
L 90.9858 168.371482 
L 93.23169 143.377781 
L 95.47758 140.314005 
L 97.72347 133.852097 
L 99.96936 115.501023 
L 102.21525 115.171204 
L 104.46114 121.49305 
L 106.70703 105.853345 
L 108.95292 102.721799 
L 111.19881 115.175728 
L 113.4447 102.739871 
L 115.69059 90.186539 
L 117.93648 77.447977 
L 120.18237 90.055514 
L 122.42826 80.678929 
L 124.67415 83.670413 
L 126.92004 80.696995 
L 129.16593 90.091665 
L 131.41182 83.814999 
L 133.65771 86.928479 
L 135.9036 74.343529 
L 138.14949 80.751213 
L 140.39538 71.135169 
L 142.64127 77.371167 
L 144.88716 58.690274 
L 147.13305 71.248121 
L 149.37894 68.161739 
L 151.62483 64.96242 
L 153.87072 61.763092 
L 156.11661 74.298343 
L 158.3625 77.425381 
L 160.60839 74.226056 
L 162.85428 74.388708 
L 165.10017 52.476873 
L 167.34606 71.112576 
L 169.59195 49.209766 
L 171.83784 27.492204 
L 174.08373 43.077686 
L 176.32962 36.642891 
L 178.57551 36.688064 
L 180.8214 46.109838 
L 183.06729 30.447552 
L 185.31318 36.832647 
L 187.55907 27.424431 
L 189.80496 36.855237 
L 192.05085 21.021258 
L 194.29674 18.088503 
" clip-path="url(#p4037d0fa3b)" style="fill: none; stroke: #c44e52; stroke-width: 1.2; stroke-linecap: round"/>
   </g>
   <g id="line2d_17"/>
   <g id="line2d_18"/>
   <g id="line2d_19"/>
   <g id="line2d_20"/>
   <g id="patch_3">
    <path d="M 46.068 174.612 
L 46.068 13.968 
" style="fill: none; stroke: #ffffff; stroke-linejoin: miter; stroke-linecap: square"/>
   </g>
   <g id="patch_4">
    <path d="M 270.657 174.612 
L 270.657 13.968 
" style="fill: none; stroke: #ffffff; stroke-linejoin: miter; stroke-linecap: square"/>
   </g>
   <g id="patch_5">
    <path d="M 46.068 174.612 
L 270.657 174.612 
" style="fill: none; stroke: #ffffff; stroke-linejoin: miter; stroke-linecap: square"/>
   </g>
   <g id="patch_6">
    <path d="M 46.068 13.968 
L 270.657 13.968 
" style="fill: none; stroke: #ffffff; stroke-linejoin: miter; stroke-linecap: square"/>
   </g>
   <g id="legend_1">
    <g id="patch_7">
     <path d="M 147.414375 170.212 
L 264.497 170.212 
Q 266.257 170.212 266.257 168.452 
L 266.257 103.974 
Q 266.257 102.214 264.497 102.214 
L 147.414375 102.214 
Q 145.654375 102.214 145.654375 103.974 
L 145.654375 168.452 
Q 145.654375 170.212 147.414375 170.212 
z
" style="fill: #eaeaf2; opacity: 0.8; stroke: #cccccc; stroke-width: 0.8; stroke-linejoin: miter"/>
    </g>
    <g id="text_16">
     <!-- Approach -->
     <g style="fill: #262626" transform="translate(183.152687 113.0285) scale(0.096 -0.096)">
      <defs>
       <path id="DejaVuSans-41" d="M 2188 4044 
L 1331 1722 
L 3047 1722 
L 2188 4044 
z
M 1831 4666 
L 2547 4666 
L 4325 0 
L 3669 0 
L 3244 1197 
L 1141 1197 
L 716 0 
L 50 0 
L 1831 4666 
z
" transform="scale(0.015625)"/>
       <path id="DejaVuSans-61" d="M 2194 1759 
Q 1497 1759 1228 1600 
Q 959 1441 959 1056 
Q 959 750 1161 570 
Q 1363 391 1709 391 
Q 2188 391 2477 730 
Q 2766 1069 2766 1631 
L 2766 1759 
L 2194 1759 
z
M 3341 1997 
L 3341 0 
L 2766 0 
L 2766 531 
Q 2569 213 2275 61 
Q 1981 -91 1556 -91 
Q 1019 -91 701 211 
Q 384 513 384 1019 
Q 384 1609 779 1909 
Q 1175 2209 1959 2209 
L 2766 2209 
L 2766 2266 
Q 2766 2663 2505 2880 
Q 2244 3097 1772 3097 
Q 1472 3097 1187 3025 
Q 903 2953 641 2809 
L 641 3341 
Q 956 3463 1253 3523 
Q 1550 3584 1831 3584 
Q 2591 3584 2966 3190 
Q 3341 2797 3341 1997 
z
" transform="scale(0.015625)"/>
       <path id="DejaVuSans-68" d="M 3513 2113 
L 3513 0 
L 2938 0 
L 2938 2094 
Q 2938 2591 2744 2837 
Q 2550 3084 2163 3084 
Q 1697 3084 1428 2787 
Q 1159 2491 1159 1978 
L 1159 0 
L 581 0 
L 581 4863 
L 1159 4863 
L 1159 2956 
Q 1366 3272 1645 3428 
Q 1925 3584 2291 3584 
Q 2894 3584 3203 3211 
Q 3513 2838 3513 2113 
z
" transform="scale(0.015625)"/>
      </defs>
      <use xlink:href="#DejaVuSans-41"/>
      <use xlink:href="#DejaVuSans-70" x="68.408203"/>
      <use xlink:href="#DejaVuSans-70" x="131.884766"/>
      <use xlink:href="#DejaVuSans-72" x="195.361328"/>
      <use xlink:href="#DejaVuSans-6f" x="234.224609"/>
      <use xlink:href="#DejaVuSans-61" x="295.40625"/>
      <use xlink:href="#DejaVuSans-63" x="356.685547"/>
      <use xlink:href="#DejaVuSans-68" x="411.666016"/>
     </g>
    </g>
    <g id="line2d_21">
     <path d="M 149.174375 123.031625 
L 157.974375 123.031625 
L 166.774375 123.031625 
" style="fill: none; stroke: #4c72b0; stroke-width: 1.2; stroke-linecap: round"/>
    </g>
    <g id="text_17">
     <!-- Combined -->
     <g style="fill: #262626" transform="translate(173.814375 126.111625) scale(0.088 -0.088)">
      <defs>
       <path id="DejaVuSans-43" d="M 4122 4306 
L 4122 3641 
Q 3803 3938 3442 4084 
Q 3081 4231 2675 4231 
Q 1875 4231 1450 3742 
Q 1025 3253 1025 2328 
Q 1025 1406 1450 917 
Q 1875 428 2675 428 
Q 3081 428 3442 575 
Q 3803 722 4122 1019 
L 4122 359 
Q 3791 134 3420 21 
Q 3050 -91 2638 -91 
Q 1578 -91 968 557 
Q 359 1206 359 2328 
Q 359 3453 968 4101 
Q 1578 4750 2638 4750 
Q 3056 4750 3426 4639 
Q 3797 4528 4122 4306 
z
" transform="scale(0.015625)"/>
       <path id="DejaVuSans-62" d="M 3116 1747 
Q 3116 2381 2855 2742 
Q 2594 3103 2138 3103 
Q 1681 3103 1420 2742 
Q 1159 2381 1159 1747 
Q 1159 1113 1420 752 
Q 1681 391 2138 391 
Q 2594 391 2855 752 
Q 3116 1113 3116 1747 
z
M 1159 2969 
Q 1341 3281 1617 3432 
Q 1894 3584 2278 3584 
Q 2916 3584 3314 3078 
Q 3713 2572 3713 1747 
Q 3713 922 3314 415 
Q 2916 -91 2278 -91 
Q 1894 -91 1617 61 
Q 1341 213 1159 525 
L 1159 0 
L 581 0 
L 581 4863 
L 1159 4863 
L 1159 2969 
z
" transform="scale(0.015625)"/>
       <path id="DejaVuSans-6e" d="M 3513 2113 
L 3513 0 
L 2938 0 
L 2938 2094 
Q 2938 2591 2744 2837 
Q 2550 3084 2163 3084 
Q 1697 3084 1428 2787 
Q 1159 2491 1159 1978 
L 1159 0 
L 581 0 
L 581 3500 
L 1159 3500 
L 1159 2956 
Q 1366 3272 1645 3428 
Q 1925 3584 2291 3584 
Q 2894 3584 3203 3211 
Q 3513 2838 3513 2113 
z
" transform="scale(0.015625)"/>
       <path id="DejaVuSans-64" d="M 2906 2969 
L 2906 4863 
L 3481 4863 
L 3481 0 
L 2906 0 
L 2906 525 
Q 2725 213 2448 61 
Q 2172 -91 1784 -91 
Q 1150 -91 751 415 
Q 353 922 353 1747 
Q 353 2572 751 3078 
Q 1150 3584 1784 3584 
Q 2172 3584 2448 3432 
Q 2725 3281 2906 2969 
z
M 947 1747 
Q 947 1113 1208 752 
Q 1469 391 1925 391 
Q 2381 391 2643 752 
Q 2906 1113 2906 1747 
Q 2906 2381 2643 2742 
Q 2381 3103 1925 3103 
Q 1469 3103 1208 2742 
Q 947 2381 947 1747 
z
" transform="scale(0.015625)"/>
      </defs>
      <use xlink:href="#DejaVuSans-43"/>
      <use xlink:href="#DejaVuSans-6f" x="69.824219"/>
      <use xlink:href="#DejaVuSans-6d" x="131.005859"/>
      <use xlink:href="#DejaVuSans-62" x="228.417969"/>
      <use xlink:href="#DejaVuSans-69" x="291.894531"/>
      <use xlink:href="#DejaVuSans-6e" x="319.677734"/>
      <use xlink:href="#DejaVuSans-65" x="383.056641"/>
      <use xlink:href="#DejaVuSans-64" x="444.580078"/>
     </g>
    </g>
    <g id="line2d_22">
     <path d="M 149.174375 135.948375 
L 157.974375 135.948375 
L 166.774375 135.948375 
" style="fill: none; stroke: #dd8452; stroke-width: 1.2; stroke-linecap: round"/>
    </g>
    <g id="text_18">
     <!-- Proximal Curriculum -->
     <g style="fill: #262626" transform="translate(173.814375 139.028375) scale(0.088 -0.088)">
      <defs>
       <path id="DejaVuSans-50" d="M 1259 4147 
L 1259 2394 
L 2053 2394 
Q 2494 2394 2734 2622 
Q 2975 2850 2975 3272 
Q 2975 3691 2734 3919 
Q 2494 4147 2053 4147 
L 1259 4147 
z
M 628 4666 
L 2053 4666 
Q 2838 4666 3239 4311 
Q 3641 3956 3641 3272 
Q 3641 2581 3239 2228 
Q 2838 1875 2053 1875 
L 1259 1875 
L 1259 0 
L 628 0 
L 628 4666 
z
" transform="scale(0.015625)"/>
       <path id="DejaVuSans-78" d="M 3513 3500 
L 2247 1797 
L 3578 0 
L 2900 0 
L 1881 1375 
L 863 0 
L 184 0 
L 1544 1831 
L 300 3500 
L 978 3500 
L 1906 2253 
L 2834 3500 
L 3513 3500 
z
" transform="scale(0.015625)"/>
       <path id="DejaVuSans-6c" d="M 603 4863 
L 1178 4863 
L 1178 0 
L 603 0 
L 603 4863 
z
" transform="scale(0.015625)"/>
       <path id="DejaVuSans-20" transform="scale(0.015625)"/>
       <path id="DejaVuSans-75" d="M 544 1381 
L 544 3500 
L 1119 3500 
L 1119 1403 
Q 1119 906 1312 657 
Q 1506 409 1894 409 
Q 2359 409 2629 706 
Q 2900 1003 2900 1516 
L 2900 3500 
L 3475 3500 
L 3475 0 
L 2900 0 
L 2900 538 
Q 2691 219 2414 64 
Q 2138 -91 1772 -91 
Q 1169 -91 856 284 
Q 544 659 544 1381 
z
M 1991 3584 
L 1991 3584 
z
" transform="scale(0.015625)"/>
      </defs>
      <use xlink:href="#DejaVuSans-50"/>
      <use xlink:href="#DejaVuSans-72" x="58.552734"/>
      <use xlink:href="#DejaVuSans-6f" x="97.416016"/>
      <use xlink:href="#DejaVuSans-78" x="155.472656"/>
      <use xlink:href="#DejaVuSans-69" x="214.652344"/>
      <use xlink:href="#DejaVuSans-6d" x="242.435547"/>
      <use xlink:href="#DejaVuSans-61" x="339.847656"/>
      <use xlink:href="#DejaVuSans-6c" x="401.126953"/>
      <use xlink:href="#DejaVuSans-20" x="428.910156"/>
      <use xlink:href="#DejaVuSans-43" x="460.697266"/>
      <use xlink:href="#DejaVuSans-75" x="530.521484"/>
      <use xlink:href="#DejaVuSans-72" x="593.900391"/>
      <use xlink:href="#DejaVuSans-72" x="633.263672"/>
      <use xlink:href="#DejaVuSans-69" x="674.376953"/>
      <use xlink:href="#DejaVuSans-63" x="702.160156"/>
      <use xlink:href="#DejaVuSans-75" x="757.140625"/>
      <use xlink:href="#DejaVuSans-6c" x="820.519531"/>
      <use xlink:href="#DejaVuSans-75" x="848.302734"/>
      <use xlink:href="#DejaVuSans-6d" x="911.681641"/>
     </g>
    </g>
    <g id="line2d_23">
     <path d="M 149.174375 148.865125 
L 157.974375 148.865125 
L 166.774375 148.865125 
" style="fill: none; stroke: #55a868; stroke-width: 1.2; stroke-linecap: round"/>
    </g>
    <g id="text_19">
     <!-- State Novelty (RND) -->
     <g style="fill: #262626" transform="translate(173.814375 151.945125) scale(0.088 -0.088)">
      <defs>
       <path id="DejaVuSans-4e" d="M 628 4666 
L 1478 4666 
L 3547 763 
L 3547 4666 
L 4159 4666 
L 4159 0 
L 3309 0 
L 1241 3903 
L 1241 0 
L 628 0 
L 628 4666 
z
" transform="scale(0.015625)"/>
       <path id="DejaVuSans-76" d="M 191 3500 
L 800 3500 
L 1894 563 
L 2988 3500 
L 3597 3500 
L 2284 0 
L 1503 0 
L 191 3500 
z
" transform="scale(0.015625)"/>
       <path id="DejaVuSans-79" d="M 2059 -325 
Q 1816 -950 1584 -1140 
Q 1353 -1331 966 -1331 
L 506 -1331 
L 506 -850 
L 844 -850 
Q 1081 -850 1212 -737 
Q 1344 -625 1503 -206 
L 1606 56 
L 191 3500 
L 800 3500 
L 1894 763 
L 2988 3500 
L 3597 3500 
L 2059 -325 
z
" transform="scale(0.015625)"/>
       <path id="DejaVuSans-28" d="M 1984 4856 
Q 1566 4138 1362 3434 
Q 1159 2731 1159 2009 
Q 1159 1288 1364 580 
Q 1569 -128 1984 -844 
L 1484 -844 
Q 1016 -109 783 600 
Q 550 1309 550 2009 
Q 550 2706 781 3412 
Q 1013 4119 1484 4856 
L 1984 4856 
z
" transform="scale(0.015625)"/>
       <path id="DejaVuSans-52" d="M 2841 2188 
Q 3044 2119 3236 1894 
Q 3428 1669 3622 1275 
L 4263 0 
L 3584 0 
L 2988 1197 
Q 2756 1666 2539 1819 
Q 2322 1972 1947 1972 
L 1259 1972 
L 1259 0 
L 628 0 
L 628 4666 
L 2053 4666 
Q 2853 4666 3247 4331 
Q 3641 3997 3641 3322 
Q 3641 2881 3436 2590 
Q 3231 2300 2841 2188 
z
M 1259 4147 
L 1259 2491 
L 2053 2491 
Q 2509 2491 2742 2702 
Q 2975 2913 2975 3322 
Q 2975 3731 2742 3939 
Q 2509 4147 2053 4147 
L 1259 4147 
z
" transform="scale(0.015625)"/>
       <path id="DejaVuSans-44" d="M 1259 4147 
L 1259 519 
L 2022 519 
Q 2988 519 3436 956 
Q 3884 1394 3884 2338 
Q 3884 3275 3436 3711 
Q 2988 4147 2022 4147 
L 1259 4147 
z
M 628 4666 
L 1925 4666 
Q 3281 4666 3915 4102 
Q 4550 3538 4550 2338 
Q 4550 1131 3912 565 
Q 3275 0 1925 0 
L 628 0 
L 628 4666 
z
" transform="scale(0.015625)"/>
       <path id="DejaVuSans-29" d="M 513 4856 
L 1013 4856 
Q 1481 4119 1714 3412 
Q 1947 2706 1947 2009 
Q 1947 1309 1714 600 
Q 1481 -109 1013 -844 
L 513 -844 
Q 928 -128 1133 580 
Q 1338 1288 1338 2009 
Q 1338 2731 1133 3434 
Q 928 4138 513 4856 
z
" transform="scale(0.015625)"/>
      </defs>
      <use xlink:href="#DejaVuSans-53"/>
      <use xlink:href="#DejaVuSans-74" x="63.476562"/>
      <use xlink:href="#DejaVuSans-61" x="102.685547"/>
      <use xlink:href="#DejaVuSans-74" x="163.964844"/>
      <use xlink:href="#DejaVuSans-65" x="203.173828"/>
      <use xlink:href="#DejaVuSans-20" x="264.697266"/>
      <use xlink:href="#DejaVuSans-4e" x="296.484375"/>
      <use xlink:href="#DejaVuSans-6f" x="371.289062"/>
      <use xlink:href="#DejaVuSans-76" x="432.470703"/>
      <use xlink:href="#DejaVuSans-65" x="491.650391"/>
      <use xlink:href="#DejaVuSans-6c" x="553.173828"/>
      <use xlink:href="#DejaVuSans-74" x="580.957031"/>
      <use xlink:href="#DejaVuSans-79" x="620.166016"/>
      <use xlink:href="#DejaVuSans-20" x="679.345703"/>
      <use xlink:href="#DejaVuSans-28" x="711.132812"/>
      <use xlink:href="#DejaVuSans-52" x="750.146484"/>
      <use xlink:href="#DejaVuSans-4e" x="819.628906"/>
      <use xlink:href="#DejaVuSans-44" x="894.433594"/>
      <use xlink:href="#DejaVuSans-29" x="971.435547"/>
     </g>
    </g>
    <g id="line2d_24">
     <path d="M 149.174375 161.781875 
L 157.974375 161.781875 
L 166.774375 161.781875 
" style="fill: none; stroke: #c44e52; stroke-width: 1.2; stroke-linecap: round"/>
    </g>
    <g id="text_20">
     <!-- Vanilla -->
     <g style="fill: #262626" transform="translate(173.814375 164.861875) scale(0.088 -0.088)">
      <defs>
       <path id="DejaVuSans-56" d="M 1831 0 
L 50 4666 
L 709 4666 
L 2188 738 
L 3669 4666 
L 4325 4666 
L 2547 0 
L 1831 0 
z
" transform="scale(0.015625)"/>
      </defs>
      <use xlink:href="#DejaVuSans-56"/>
      <use xlink:href="#DejaVuSans-61" x="60.658203"/>
      <use xlink:href="#DejaVuSans-6e" x="121.9375"/>
      <use xlink:href="#DejaVuSans-69" x="185.316406"/>
      <use xlink:href="#DejaVuSans-6c" x="213.099609"/>
      <use xlink:href="#DejaVuSans-6c" x="240.882812"/>
      <use xlink:href="#DejaVuSans-61" x="268.666016"/>
     </g>
    </g>
   </g>
  </g>
 </g>
 <defs>
  <clipPath id="p4037d0fa3b">
   <rect x="46.068" y="13.968" width="224.589" height="160.644"/>
  </clipPath>
 </defs>
</svg>
