<?xml version="1.0" encoding="utf-8" standalone="no"?>
<!DOCTYPE svg PUBLIC "-//W3C//DTD SVG 1.1//EN"
  "http://www.w3.org/Graphics/SVG/1.1/DTD/svg11.dtd">
<svg xmlns:xlink="http://www.w3.org/1999/xlink" width="288pt" height="180pt" viewBox="0 0 288 180" xmlns="http://www.w3.org/2000/svg" version="1.1">
 <metadata>
  <rdf:RDF xmlns:dc="http://purl.org/dc/elements/1.1/" xmlns:cc="http://creativecommons.org/ns#" xmlns:rdf="http://www.w3.org/1999/02/22-rdf-syntax-ns#">
   <cc:Work>
    <dc:type rdf:resource="http://purl.org/dc/dcmitype/StillImage"/>
    <dc:date>1980-01-01T00:00:00+00:00</dc:date>
    <dc:format>image/svg+xml</dc:format>
    <dc:creator>
     <cc:Agent>
      <dc:title>Matplotlib v3.9.2, https://matplotlib.org/</dc:title>
     </cc:Agent>
    </dc:creator>
   </cc:Work>
  </rdf:RDF>
 </metadata>
 <defs>
  <style type="text/css">*{stroke-linejoin: round; stroke-linecap: butt}</style>
 </defs>
 <g id="figure_1">
  <g id="patch_1">
   <path d="M 0 180 
L 288 180 
L 288 0 
L 0 0 
z
" style="fill: #ffffff"/>
  </g>
  <g id="axes_1">
   <g id="patch_2">
    <path d="M 90.03 89.041711 
L 249.722675 89.041711 
L 249.722675 25.92 
L 90.03 25.92 
z
" style="fill: #eaeaf2"/>
   </g>
   <g id="matplotlib.axis_1">
    <g id="xtick_1">
     <g id="line2d_1">
      <path d="M 90.03 89.041711 
L 90.03 25.92 
" clip-path="url(#p1f8e7e110e)" style="fill: none; stroke: #ffffff; stroke-width: 1.5; stroke-linecap: round"/>
     </g>
     <g id="text_1">
      <!-- 0.0 -->
      <g style="fill: #262626" transform="translate(83.972139 128.9616) rotate(-45) scale(0.165 -0.165)">
       <defs>
        <path id="DejaVuSans-30" d="M 2034 4250 
Q 1547 4250 1301 3770 
Q 1056 3291 1056 2328 
Q 1056 1369 1301 889 
Q 1547 409 2034 409 
Q 2525 409 2770 889 
Q 3016 1369 3016 2328 
Q 3016 3291 2770 3770 
Q 2525 4250 2034 4250 
z
M 2034 4750 
Q 2819 4750 3233 4129 
Q 3647 3509 3647 2328 
Q 3647 1150 3233 529 
Q 2819 -91 2034 -91 
Q 1250 -91 836 529 
Q 422 1150 422 2328 
Q 422 3509 836 4129 
Q 1250 4750 2034 4750 
z
" transform="scale(0.015625)"/>
        <path id="DejaVuSans-2e" d="M 684 794 
L 1344 794 
L 1344 0 
L 684 0 
L 684 794 
z
" transform="scale(0.015625)"/>
       </defs>
       <use xlink:href="#DejaVuSans-30"/>
       <use xlink:href="#DejaVuSans-2e" x="63.623047"/>
       <use xlink:href="#DejaVuSans-30" x="95.410156"/>
      </g>
     </g>
    </g>
    <g id="xtick_2">
     <g id="line2d_2">
      <path d="M 169.876338 89.041711 
L 169.876338 25.92 
" clip-path="url(#p1f8e7e110e)" style="fill: none; stroke: #ffffff; stroke-width: 1.5; stroke-linecap: round"/>
     </g>
     <g id="text_2">
      <!-- 0.5 -->
      <g style="fill: #262626" transform="translate(163.818477 128.9616) rotate(-45) scale(0.165 -0.165)">
       <defs>
        <path id="DejaVuSans-35" d="M 691 4666 
L 3169 4666 
L 3169 4134 
L 1269 4134 
L 1269 2991 
Q 1406 3038 1543 3061 
Q 1681 3084 1819 3084 
Q 2600 3084 3056 2656 
Q 3513 2228 3513 1497 
Q 3513 744 3044 326 
Q 2575 -91 1722 -91 
Q 1428 -91 1123 -41 
Q 819 9 494 109 
L 494 744 
Q 775 591 1075 516 
Q 1375 441 1709 441 
Q 2250 441 2565 725 
Q 2881 1009 2881 1497 
Q 2881 1984 2565 2268 
Q 2250 2553 1709 2553 
Q 1456 2553 1204 2497 
Q 953 2441 691 2322 
L 691 4666 
z
" transform="scale(0.015625)"/>
       </defs>
       <use xlink:href="#DejaVuSans-30"/>
       <use xlink:href="#DejaVuSans-2e" x="63.623047"/>
       <use xlink:href="#DejaVuSans-35" x="95.410156"/>
      </g>
     </g>
    </g>
    <g id="xtick_3">
     <g id="line2d_3">
      <path d="M 249.722675 89.041711 
L 249.722675 25.92 
" clip-path="url(#p1f8e7e110e)" style="fill: none; stroke: #ffffff; stroke-width: 1.5; stroke-linecap: round"/>
     </g>
     <g id="text_3">
      <!-- 1.0 -->
      <g style="fill: #262626" transform="translate(243.664814 128.9616) rotate(-45) scale(0.165 -0.165)">
       <defs>
        <path id="DejaVuSans-31" d="M 794 531 
L 1825 531 
L 1825 4091 
L 703 3866 
L 703 4441 
L 1819 4666 
L 2450 4666 
L 2450 531 
L 3481 531 
L 3481 0 
L 794 0 
L 794 531 
z
" transform="scale(0.015625)"/>
       </defs>
       <use xlink:href="#DejaVuSans-31"/>
       <use xlink:href="#DejaVuSans-2e" x="63.623047"/>
       <use xlink:href="#DejaVuSans-30" x="95.410156"/>
      </g>
     </g>
    </g>
    <g id="text_4">
     <!-- Timestep -->
     <g style="fill: #262626" transform="translate(128.387744 149.065213) scale(0.18 -0.18)">
      <defs>
       <path id="DejaVuSans-54" d="M -19 4666 
L 3928 4666 
L 3928 4134 
L 2272 4134 
L 2272 0 
L 1638 0 
L 1638 4134 
L -19 4134 
L -19 4666 
z
" transform="scale(0.015625)"/>
       <path id="DejaVuSans-69" d="M 603 3500 
L 1178 3500 
L 1178 0 
L 603 0 
L 603 3500 
z
M 603 4863 
L 1178 4863 
L 1178 4134 
L 603 4134 
L 603 4863 
z
" transform="scale(0.015625)"/>
       <path id="DejaVuSans-6d" d="M 3328 2828 
Q 3544 3216 3844 3400 
Q 4144 3584 4550 3584 
Q 5097 3584 5394 3201 
Q 5691 2819 5691 2113 
L 5691 0 
L 5113 0 
L 5113 2094 
Q 5113 2597 4934 2840 
Q 4756 3084 4391 3084 
Q 3944 3084 3684 2787 
Q 3425 2491 3425 1978 
L 3425 0 
L 2847 0 
L 2847 2094 
Q 2847 2600 2669 2842 
Q 2491 3084 2119 3084 
Q 1678 3084 1418 2786 
Q 1159 2488 1159 1978 
L 1159 0 
L 581 0 
L 581 3500 
L 1159 3500 
L 1159 2956 
Q 1356 3278 1631 3431 
Q 1906 3584 2284 3584 
Q 2666 3584 2933 3390 
Q 3200 3197 3328 2828 
z
" transform="scale(0.015625)"/>
       <path id="DejaVuSans-65" d="M 3597 1894 
L 3597 1613 
L 953 1613 
Q 991 1019 1311 708 
Q 1631 397 2203 397 
Q 2534 397 2845 478 
Q 3156 559 3463 722 
L 3463 178 
Q 3153 47 2828 -22 
Q 2503 -91 2169 -91 
Q 1331 -91 842 396 
Q 353 884 353 1716 
Q 353 2575 817 3079 
Q 1281 3584 2069 3584 
Q 2775 3584 3186 3129 
Q 3597 2675 3597 1894 
z
M 3022 2063 
Q 3016 2534 2758 2815 
Q 2500 3097 2075 3097 
Q 1594 3097 1305 2825 
Q 1016 2553 972 2059 
L 3022 2063 
z
" transform="scale(0.015625)"/>
       <path id="DejaVuSans-73" d="M 2834 3397 
L 2834 2853 
Q 2591 2978 2328 3040 
Q 2066 3103 1784 3103 
Q 1356 3103 1142 2972 
Q 928 2841 928 2578 
Q 928 2378 1081 2264 
Q 1234 2150 1697 2047 
L 1894 2003 
Q 2506 1872 2764 1633 
Q 3022 1394 3022 966 
Q 3022 478 2636 193 
Q 2250 -91 1575 -91 
Q 1294 -91 989 -36 
Q 684 19 347 128 
L 347 722 
Q 666 556 975 473 
Q 1284 391 1588 391 
Q 1994 391 2212 530 
Q 2431 669 2431 922 
Q 2431 1156 2273 1281 
Q 2116 1406 1581 1522 
L 1381 1569 
Q 847 1681 609 1914 
Q 372 2147 372 2553 
Q 372 3047 722 3315 
Q 1072 3584 1716 3584 
Q 2034 3584 2315 3537 
Q 2597 3491 2834 3397 
z
" transform="scale(0.015625)"/>
       <path id="DejaVuSans-74" d="M 1172 4494 
L 1172 3500 
L 2356 3500 
L 2356 3053 
L 1172 3053 
L 1172 1153 
Q 1172 725 1289 603 
Q 1406 481 1766 481 
L 2356 481 
L 2356 0 
L 1766 0 
Q 1100 0 847 248 
Q 594 497 594 1153 
L 594 3053 
L 172 3053 
L 172 3500 
L 594 3500 
L 594 4494 
L 1172 4494 
z
" transform="scale(0.015625)"/>
       <path id="DejaVuSans-70" d="M 1159 525 
L 1159 -1331 
L 581 -1331 
L 581 3500 
L 1159 3500 
L 1159 2969 
Q 1341 3281 1617 3432 
Q 1894 3584 2278 3584 
Q 2916 3584 3314 3078 
Q 3713 2572 3713 1747 
Q 3713 922 3314 415 
Q 2916 -91 2278 -91 
Q 1894 -91 1617 61 
Q 1341 213 1159 525 
z
M 3116 1747 
Q 3116 2381 2855 2742 
Q 2594 3103 2138 3103 
Q 1681 3103 1420 2742 
Q 1159 2381 1159 1747 
Q 1159 1113 1420 752 
Q 1681 391 2138 391 
Q 2594 391 2855 752 
Q 3116 1113 3116 1747 
z
" transform="scale(0.015625)"/>
      </defs>
      <use xlink:href="#DejaVuSans-54"/>
      <use xlink:href="#DejaVuSans-69" x="57.958984"/>
      <use xlink:href="#DejaVuSans-6d" x="85.742188"/>
      <use xlink:href="#DejaVuSans-65" x="183.154297"/>
      <use xlink:href="#DejaVuSans-73" x="244.677734"/>
      <use xlink:href="#DejaVuSans-74" x="296.777344"/>
      <use xlink:href="#DejaVuSans-65" x="335.986328"/>
      <use xlink:href="#DejaVuSans-70" x="397.509766"/>
     </g>
    </g>
    <g id="text_5">
     <!-- 1e6 -->
     <g style="fill: #262626" transform="translate(218.573769 146.925447) scale(0.165 -0.165)">
      <defs>
       <path id="DejaVuSans-36" d="M 2113 2584 
Q 1688 2584 1439 2293 
Q 1191 2003 1191 1497 
Q 1191 994 1439 701 
Q 1688 409 2113 409 
Q 2538 409 2786 701 
Q 3034 994 3034 1497 
Q 3034 2003 2786 2293 
Q 2538 2584 2113 2584 
z
M 3366 4563 
L 3366 3988 
Q 3128 4100 2886 4159 
Q 2644 4219 2406 4219 
Q 1781 4219 1451 3797 
Q 1122 3375 1075 2522 
Q 1259 2794 1537 2939 
Q 1816 3084 2150 3084 
Q 2853 3084 3261 2657 
Q 3669 2231 3669 1497 
Q 3669 778 3244 343 
Q 2819 -91 2113 -91 
Q 1303 -91 875 529 
Q 447 1150 447 2328 
Q 447 3434 972 4092 
Q 1497 4750 2381 4750 
Q 2619 4750 2861 4703 
Q 3103 4656 3366 4563 
z
" transform="scale(0.015625)"/>
      </defs>
      <use xlink:href="#DejaVuSans-31"/>
      <use xlink:href="#DejaVuSans-65" x="63.623047"/>
      <use xlink:href="#DejaVuSans-36" x="125.146484"/>
     </g>
    </g>
   </g>
   <g id="matplotlib.axis_2">
    <g id="ytick_1">
     <g id="line2d_4">
      <path d="M 90.03 89.041711 
L 249.722675 89.041711 
" clip-path="url(#p1f8e7e110e)" style="fill: none; stroke: #ffffff; stroke-width: 1.5; stroke-linecap: round"/>
     </g>
     <g id="text_6">
      <!-- 0 -->
      <g style="fill: #262626" transform="translate(67.031875 95.310422) scale(0.165 -0.165)">
       <use xlink:href="#DejaVuSans-30"/>
      </g>
     </g>
    </g>
    <g id="ytick_2">
     <g id="line2d_5">
      <path d="M 90.03 25.92 
L 249.722675 25.92 
" clip-path="url(#p1f8e7e110e)" style="fill: none; stroke: #ffffff; stroke-width: 1.5; stroke-linecap: round"/>
     </g>
     <g id="text_7">
      <!-- 1 -->
      <g style="fill: #262626" transform="translate(67.031875 32.188711) scale(0.165 -0.165)">
       <use xlink:href="#DejaVuSans-31"/>
      </g>
     </g>
    </g>
    <g id="text_8">
     <!-- Score -->
     <g style="fill: #262626" transform="translate(59.288438 82.685074) rotate(-90) scale(0.18 -0.18)">
      <defs>
       <path id="DejaVuSans-53" d="M 3425 4513 
L 3425 3897 
Q 3066 4069 2747 4153 
Q 2428 4238 2131 4238 
Q 1616 4238 1336 4038 
Q 1056 3838 1056 3469 
Q 1056 3159 1242 3001 
Q 1428 2844 1947 2747 
L 2328 2669 
Q 3034 2534 3370 2195 
Q 3706 1856 3706 1288 
Q 3706 609 3251 259 
Q 2797 -91 1919 -91 
Q 1588 -91 1214 -16 
Q 841 59 441 206 
L 441 856 
Q 825 641 1194 531 
Q 1563 422 1919 422 
Q 2459 422 2753 634 
Q 3047 847 3047 1241 
Q 3047 1584 2836 1778 
Q 2625 1972 2144 2069 
L 1759 2144 
Q 1053 2284 737 2584 
Q 422 2884 422 3419 
Q 422 4038 858 4394 
Q 1294 4750 2059 4750 
Q 2388 4750 2728 4690 
Q 3069 4631 3425 4513 
z
" transform="scale(0.015625)"/>
       <path id="DejaVuSans-63" d="M 3122 3366 
L 3122 2828 
Q 2878 2963 2633 3030 
Q 2388 3097 2138 3097 
Q 1578 3097 1268 2742 
Q 959 2388 959 1747 
Q 959 1106 1268 751 
Q 1578 397 2138 397 
Q 2388 397 2633 464 
Q 2878 531 3122 666 
L 3122 134 
Q 2881 22 2623 -34 
Q 2366 -91 2075 -91 
Q 1284 -91 818 406 
Q 353 903 353 1747 
Q 353 2603 823 3093 
Q 1294 3584 2113 3584 
Q 2378 3584 2631 3529 
Q 2884 3475 3122 3366 
z
" transform="scale(0.015625)"/>
       <path id="DejaVuSans-6f" d="M 1959 3097 
Q 1497 3097 1228 2736 
Q 959 2375 959 1747 
Q 959 1119 1226 758 
Q 1494 397 1959 397 
Q 2419 397 2687 759 
Q 2956 1122 2956 1747 
Q 2956 2369 2687 2733 
Q 2419 3097 1959 3097 
z
M 1959 3584 
Q 2709 3584 3137 3096 
Q 3566 2609 3566 1747 
Q 3566 888 3137 398 
Q 2709 -91 1959 -91 
Q 1206 -91 779 398 
Q 353 888 353 1747 
Q 353 2609 779 3096 
Q 1206 3584 1959 3584 
z
" transform="scale(0.015625)"/>
       <path id="DejaVuSans-72" d="M 2631 2963 
Q 2534 3019 2420 3045 
Q 2306 3072 2169 3072 
Q 1681 3072 1420 2755 
Q 1159 2438 1159 1844 
L 1159 0 
L 581 0 
L 581 3500 
L 1159 3500 
L 1159 2956 
Q 1341 3275 1631 3429 
Q 1922 3584 2338 3584 
Q 2397 3584 2469 3576 
Q 2541 3569 2628 3553 
L 2631 2963 
z
" transform="scale(0.015625)"/>
      </defs>
      <use xlink:href="#DejaVuSans-53"/>
      <use xlink:href="#DejaVuSans-63" x="63.476562"/>
      <use xlink:href="#DejaVuSans-6f" x="118.457031"/>
      <use xlink:href="#DejaVuSans-72" x="179.638672"/>
      <use xlink:href="#DejaVuSans-65" x="218.501953"/>
     </g>
    </g>
   </g>
   <g id="PolyCollection_1"/>
   <g id="PolyCollection_2"/>
   <g id="PolyCollection_3"/>
   <g id="PolyCollection_4"/>
   <g id="PolyCollection_5"/>
   <g id="line2d_6">
    <path d="M 91.626927 89.041711 
L 93.223854 89.041711 
L 94.82078 89.041711 
L 96.417707 89.041711 
L 98.014634 89.041711 
L 99.611561 89.041711 
L 101.208487 89.041711 
L 102.805414 89.041711 
L 104.402341 89.041711 
L 105.999268 89.041711 
L 107.596194 89.041711 
L 109.193121 89.041711 
L 110.790048 89.041711 
L 112.386975 89.041711 
L 113.983901 89.041711 
L 115.580828 89.041711 
L 117.177755 89.041711 
L 118.774682 89.041711 
L 120.371608 89.041711 
L 121.968535 89.041711 
L 123.565462 82.853808 
L 125.162389 89.041711 
L 126.759315 82.818302 
L 128.356242 82.853808 
L 129.953169 76.79906 
L 131.550096 82.986957 
L 133.147022 82.933701 
L 134.743949 64.716182 
L 136.340876 70.628912 
L 137.937803 76.719166 
L 139.534729 52.34925 
L 141.131656 51.949816 
L 142.728583 76.728041 
L 144.32551 58.430648 
L 145.922436 46.019329 
L 147.519363 46.02821 
L 149.11629 39.822557 
L 150.713217 58.350748 
L 152.310143 52.162845 
L 153.90707 52.127345 
L 155.503997 39.866938 
L 157.100924 58.2176 
L 158.69785 58.208725 
L 160.294777 33.794427 
L 161.891704 46.001579 
L 163.488631 46.116966 
L 165.085557 39.875813 
L 166.682484 45.948317 
L 168.279411 52.109589 
L 169.876338 52.082958 
L 171.473264 45.779662 
L 173.070191 52.224982 
L 174.667118 39.831432 
L 176.264045 58.297493 
L 177.860971 39.671652 
L 179.457898 39.893569 
L 181.054825 64.414384 
L 182.651752 52.118471 
L 184.248678 45.859549 
L 185.845605 51.97644 
L 187.442532 33.661285 
L 189.039459 64.476515 
L 190.636385 45.992704 
L 192.233312 64.520896 
L 193.830239 33.412736 
L 195.427166 27.650911 
" clip-path="url(#p1f8e7e110e)" style="fill: none; stroke: #4c72b0; stroke-width: 2.25; stroke-linecap: round"/>
   </g>
   <g id="line2d_7">
    <path d="M 91.626927 89.041711 
L 93.223854 89.041711 
L 94.82078 89.041711 
L 96.417707 89.041711 
L 98.014634 89.041711 
L 99.611561 89.041711 
L 101.208487 89.041711 
L 102.805414 89.041711 
L 104.402341 89.041711 
L 105.999268 82.844933 
L 107.596194 89.041711 
L 109.193121 89.041711 
L 110.790048 89.041711 
L 112.386975 82.889314 
L 113.983901 89.041711 
L 115.580828 89.041711 
L 117.177755 76.834566 
L 118.774682 76.657036 
L 120.371608 58.341867 
L 121.968535 76.781303 
L 123.565462 70.549019 
L 125.162389 70.513513 
L 126.759315 58.244237 
L 128.356242 46.418776 
L 129.953169 33.608016 
L 131.550096 45.974954 
L 133.147022 39.911319 
L 134.743949 52.091833 
L 136.340876 64.458759 
L 137.937803 33.767802 
L 139.534729 52.198357 
L 141.131656 33.785559 
L 142.728583 45.903936 
L 144.32551 39.795926 
L 145.922436 45.841799 
L 147.519363 52.145089 
L 149.11629 52.340388 
L 150.713217 52.118464 
L 152.310143 45.930561 
L 153.90707 45.912811 
L 155.503997 52.17172 
L 157.100924 27.455631 
" clip-path="url(#p1f8e7e110e)" style="fill: none; stroke: #dd8452; stroke-width: 2.25; stroke-linecap: round"/>
   </g>
   <g id="line2d_8">
    <path d="M 91.626927 89.041711 
L 93.223854 89.041711 
L 94.82078 89.041711 
L 96.417707 89.041711 
L 98.014634 89.041711 
L 99.611561 89.041711 
L 101.208487 89.041711 
L 102.805414 89.041711 
L 104.402341 89.041711 
L 105.999268 89.041711 
L 107.596194 89.041711 
L 109.193121 89.041711 
L 110.790048 89.041711 
L 112.386975 89.041711 
L 113.983901 89.041711 
L 115.580828 89.041711 
L 117.177755 89.041711 
L 118.774682 89.041711 
L 120.371608 82.92482 
L 121.968535 89.041711 
L 123.565462 82.915945 
L 125.162389 82.942576 
L 126.759315 76.657036 
L 128.356242 64.751688 
L 129.953169 76.861197 
L 131.550096 64.520902 
L 133.147022 58.368498 
L 134.743949 58.395136 
L 136.340876 64.60967 
L 137.937803 46.196865 
L 139.534729 58.350748 
L 141.131656 52.13622 
L 142.728583 40.008962 
L 144.32551 45.992698 
L 145.922436 58.235349 
L 147.519363 46.081466 
L 149.11629 70.549019 
L 150.713217 39.911325 
L 152.310143 58.404017 
L 153.90707 33.732296 
L 155.503997 52.322625 
L 157.100924 39.795932 
L 158.69785 52.056333 
L 160.294777 39.769295 
L 161.891704 52.233863 
L 163.488631 46.054829 
L 165.085557 46.010454 
L 166.682484 33.652403 
L 168.279411 52.118458 
L 169.876338 58.288611 
L 171.473264 58.306368 
L 173.070191 52.180601 
L 174.667118 46.090347 
L 176.264045 52.020828 
L 177.860971 33.750046 
L 179.457898 27.44675 
" clip-path="url(#p1f8e7e110e)" style="fill: none; stroke: #55a868; stroke-width: 2.25; stroke-linecap: round"/>
   </g>
   <g id="line2d_9">
    <path d="M 91.626927 89.041711 
L 93.223854 89.041711 
L 94.82078 89.041711 
L 96.417707 89.041711 
L 98.014634 89.041711 
L 99.611561 89.041711 
L 101.208487 89.041711 
L 102.805414 89.041711 
L 104.402341 89.041711 
L 105.999268 89.041711 
L 107.596194 89.041711 
L 109.193121 89.041711 
L 110.790048 89.041711 
L 112.386975 89.041711 
L 113.983901 89.041711 
L 115.580828 89.041711 
L 117.177755 89.041711 
L 118.774682 89.041711 
L 120.371608 82.92482 
L 121.968535 89.041711 
L 123.565462 58.483897 
L 125.162389 46.285633 
L 126.759315 58.368498 
L 128.356242 46.010441 
L 129.953169 52.118464 
L 131.550096 58.324111 
L 133.147022 39.866925 
L 134.743949 39.724914 
L 136.340876 39.698283 
L 137.937803 58.279737 
L 139.534729 27.402363 
" clip-path="url(#p1f8e7e110e)" style="fill: none; stroke: #c44e52; stroke-width: 2.25; stroke-linecap: round"/>
   </g>
   <g id="line2d_10">
    <path d="M 91.626927 89.041711 
L 93.223854 89.041711 
L 94.82078 89.041711 
L 96.417707 89.041711 
L 98.014634 89.041711 
L 99.611561 89.041711 
L 101.208487 89.041711 
L 102.805414 89.041711 
L 104.402341 89.041711 
L 105.999268 89.041711 
L 107.596194 89.041711 
L 109.193121 89.041711 
L 110.790048 89.041711 
L 112.386975 89.041711 
L 113.983901 89.041711 
L 115.580828 89.041711 
L 117.177755 89.041711 
L 118.774682 89.041711 
L 120.371608 89.041711 
L 121.968535 89.041711 
L 123.565462 89.041711 
L 125.162389 89.041711 
L 126.759315 89.041711 
L 128.356242 89.041711 
L 129.953169 89.041711 
L 131.550096 89.041711 
L 133.147022 89.041711 
L 134.743949 89.041711 
L 136.340876 89.041711 
L 137.937803 89.041711 
L 139.534729 89.041711 
L 141.131656 89.041711 
L 142.728583 89.041711 
L 144.32551 89.041711 
L 145.922436 89.041711 
L 147.519363 89.041711 
L 149.11629 89.041711 
L 150.713217 89.041711 
L 152.310143 89.041711 
L 153.90707 89.041711 
L 155.503997 89.041711 
L 157.100924 89.041711 
L 158.69785 89.041711 
L 160.294777 89.041711 
L 161.891704 89.041711 
L 163.488631 89.041711 
L 165.085557 89.041711 
L 166.682484 89.041711 
L 168.279411 89.041711 
L 169.876338 89.041711 
L 171.473264 89.041711 
L 173.070191 89.041711 
L 174.667118 64.476521 
L 176.264045 76.692535 
L 177.860971 70.557894 
L 179.457898 33.971957 
L 181.054825 40.071092 
L 182.651752 39.724914 
L 184.248678 46.072585 
L 185.845605 58.466141 
L 187.442532 46.010454 
L 189.039459 27.739673 
" clip-path="url(#p1f8e7e110e)" style="fill: none; stroke: #8172b3; stroke-width: 2.25; stroke-linecap: round"/>
   </g>
   <g id="line2d_11"/>
   <g id="line2d_12"/>
   <g id="line2d_13"/>
   <g id="line2d_14"/>
   <g id="line2d_15"/>
   <g id="patch_3">
    <path d="M 90.03 89.041711 
L 90.03 25.92 
" style="fill: none; stroke: #ffffff; stroke-width: 1.875; stroke-linejoin: miter; stroke-linecap: square"/>
   </g>
   <g id="patch_4">
    <path d="M 249.722675 89.041711 
L 249.722675 25.92 
" style="fill: none; stroke: #ffffff; stroke-width: 1.875; stroke-linejoin: miter; stroke-linecap: square"/>
   </g>
   <g id="patch_5">
    <path d="M 90.03 89.041711 
L 249.722675 89.041711 
" style="fill: none; stroke: #ffffff; stroke-width: 1.875; stroke-linejoin: miter; stroke-linecap: square"/>
   </g>
   <g id="patch_6">
    <path d="M 90.03 25.92 
L 249.722675 25.92 
" style="fill: none; stroke: #ffffff; stroke-width: 1.875; stroke-linejoin: miter; stroke-linecap: square"/>
   </g>
   <g id="legend_1">
    <g id="patch_7">
     <path d="M 174.87455 185.885156 
L 238.172675 185.885156 
Q 241.472675 185.885156 241.472675 182.585156 
L 241.472675 37.47 
Q 241.472675 34.17 238.172675 34.17 
L 174.87455 34.17 
Q 171.57455 34.17 171.57455 37.47 
L 171.57455 182.585156 
Q 171.57455 185.885156 174.87455 185.885156 
z
" style="fill: #eaeaf2; opacity: 0.8; stroke: #cccccc; stroke-width: 1.5; stroke-linejoin: miter"/>
    </g>
    <g id="text_9">
     <!-- Seed -->
     <g style="fill: #262626" transform="translate(184.0208 54.447188) scale(0.18 -0.18)">
      <defs>
       <path id="DejaVuSans-64" d="M 2906 2969 
L 2906 4863 
L 3481 4863 
L 3481 0 
L 2906 0 
L 2906 525 
Q 2725 213 2448 61 
Q 2172 -91 1784 -91 
Q 1150 -91 751 415 
Q 353 922 353 1747 
Q 353 2572 751 3078 
Q 1150 3584 1784 3584 
Q 2172 3584 2448 3432 
Q 2725 3281 2906 2969 
z
M 947 1747 
Q 947 1113 1208 752 
Q 1469 391 1925 391 
Q 2381 391 2643 752 
Q 2906 1113 2906 1747 
Q 2906 2381 2643 2742 
Q 2381 3103 1925 3103 
Q 1469 3103 1208 2742 
Q 947 2381 947 1747 
z
" transform="scale(0.015625)"/>
      </defs>
      <use xlink:href="#DejaVuSans-53"/>
      <use xlink:href="#DejaVuSans-65" x="63.476562"/>
      <use xlink:href="#DejaVuSans-65" x="125"/>
      <use xlink:href="#DejaVuSans-64" x="186.523438"/>
     </g>
    </g>
    <g id="line2d_16">
     <path d="M 178.17455 73.203047 
L 194.67455 73.203047 
L 211.17455 73.203047 
" style="fill: none; stroke: #4c72b0; stroke-width: 2.25; stroke-linecap: round"/>
    </g>
    <g id="text_10">
     <!-- 0 -->
     <g style="fill: #262626" transform="translate(224.37455 78.978047) scale(0.165 -0.165)">
      <use xlink:href="#DejaVuSans-30"/>
     </g>
    </g>
    <g id="line2d_17">
     <path d="M 178.17455 97.421953 
L 194.67455 97.421953 
L 211.17455 97.421953 
" style="fill: none; stroke: #dd8452; stroke-width: 2.25; stroke-linecap: round"/>
    </g>
    <g id="text_11">
     <!-- 1 -->
     <g style="fill: #262626" transform="translate(224.37455 103.196953) scale(0.165 -0.165)">
      <use xlink:href="#DejaVuSans-31"/>
     </g>
    </g>
    <g id="line2d_18">
     <path d="M 178.17455 121.640859 
L 194.67455 121.640859 
L 211.17455 121.640859 
" style="fill: none; stroke: #55a868; stroke-width: 2.25; stroke-linecap: round"/>
    </g>
    <g id="text_12">
     <!-- 2 -->
     <g style="fill: #262626" transform="translate(224.37455 127.415859) scale(0.165 -0.165)">
      <defs>
       <path id="DejaVuSans-32" d="M 1228 531 
L 3431 531 
L 3431 0 
L 469 0 
L 469 531 
Q 828 903 1448 1529 
Q 2069 2156 2228 2338 
Q 2531 2678 2651 2914 
Q 2772 3150 2772 3378 
Q 2772 3750 2511 3984 
Q 2250 4219 1831 4219 
Q 1534 4219 1204 4116 
Q 875 4013 500 3803 
L 500 4441 
Q 881 4594 1212 4672 
Q 1544 4750 1819 4750 
Q 2544 4750 2975 4387 
Q 3406 4025 3406 3419 
Q 3406 3131 3298 2873 
Q 3191 2616 2906 2266 
Q 2828 2175 2409 1742 
Q 1991 1309 1228 531 
z
" transform="scale(0.015625)"/>
      </defs>
      <use xlink:href="#DejaVuSans-32"/>
     </g>
    </g>
    <g id="line2d_19">
     <path d="M 178.17455 145.859766 
L 194.67455 145.859766 
L 211.17455 145.859766 
" style="fill: none; stroke: #c44e52; stroke-width: 2.25; stroke-linecap: round"/>
    </g>
    <g id="text_13">
     <!-- 3 -->
     <g style="fill: #262626" transform="translate(224.37455 151.634766) scale(0.165 -0.165)">
      <defs>
       <path id="DejaVuSans-33" d="M 2597 2516 
Q 3050 2419 3304 2112 
Q 3559 1806 3559 1356 
Q 3559 666 3084 287 
Q 2609 -91 1734 -91 
Q 1441 -91 1130 -33 
Q 819 25 488 141 
L 488 750 
Q 750 597 1062 519 
Q 1375 441 1716 441 
Q 2309 441 2620 675 
Q 2931 909 2931 1356 
Q 2931 1769 2642 2001 
Q 2353 2234 1838 2234 
L 1294 2234 
L 1294 2753 
L 1863 2753 
Q 2328 2753 2575 2939 
Q 2822 3125 2822 3475 
Q 2822 3834 2567 4026 
Q 2313 4219 1838 4219 
Q 1578 4219 1281 4162 
Q 984 4106 628 3988 
L 628 4550 
Q 988 4650 1302 4700 
Q 1616 4750 1894 4750 
Q 2613 4750 3031 4423 
Q 3450 4097 3450 3541 
Q 3450 3153 3228 2886 
Q 3006 2619 2597 2516 
z
" transform="scale(0.015625)"/>
      </defs>
      <use xlink:href="#DejaVuSans-33"/>
     </g>
    </g>
    <g id="line2d_20">
     <path d="M 178.17455 170.078672 
L 194.67455 170.078672 
L 211.17455 170.078672 
" style="fill: none; stroke: #8172b3; stroke-width: 2.25; stroke-linecap: round"/>
    </g>
    <g id="text_14">
     <!-- 4 -->
     <g style="fill: #262626" transform="translate(224.37455 175.853672) scale(0.165 -0.165)">
      <defs>
       <path id="DejaVuSans-34" d="M 2419 4116 
L 825 1625 
L 2419 1625 
L 2419 4116 
z
M 2253 4666 
L 3047 4666 
L 3047 1625 
L 3713 1625 
L 3713 1100 
L 3047 1100 
L 3047 0 
L 2419 0 
L 2419 1100 
L 313 1100 
L 313 1709 
L 2253 4666 
z
" transform="scale(0.015625)"/>
      </defs>
      <use xlink:href="#DejaVuSans-34"/>
     </g>
    </g>
   </g>
  </g>
 </g>
 <defs>
  <clipPath id="p1f8e7e110e">
   <rect x="90.03" y="25.92" width="159.692675" height="63.121711"/>
  </clipPath>
 </defs>
</svg>
