<?xml version="1.0" encoding="utf-8" standalone="no"?>
<!DOCTYPE svg PUBLIC "-//W3C//DTD SVG 1.1//EN"
  "http://www.w3.org/Graphics/SVG/1.1/DTD/svg11.dtd">
<svg xmlns:xlink="http://www.w3.org/1999/xlink" width="460.8pt" height="345.6pt" viewBox="0 0 460.8 345.6" xmlns="http://www.w3.org/2000/svg" version="1.1">
 <metadata>
  <rdf:RDF xmlns:dc="http://purl.org/dc/elements/1.1/" xmlns:cc="http://creativecommons.org/ns#" xmlns:rdf="http://www.w3.org/1999/02/22-rdf-syntax-ns#">
   <cc:Work>
    <dc:type rdf:resource="http://purl.org/dc/dcmitype/StillImage"/>
    <dc:date>1980-01-01T00:00:00+00:00</dc:date>
    <dc:format>image/svg+xml</dc:format>
    <dc:creator>
     <cc:Agent>
      <dc:title>Matplotlib v3.9.2, https://matplotlib.org/</dc:title>
     </cc:Agent>
    </dc:creator>
   </cc:Work>
  </rdf:RDF>
 </metadata>
 <defs>
  <style type="text/css">*{stroke-linejoin: round; stroke-linecap: butt}</style>
 </defs>
 <g id="figure_1">
  <g id="patch_1">
   <path d="M 0 345.6 
L 460.8 345.6 
L 460.8 0 
L 0 0 
z
" style="fill: #ffffff"/>
  </g>
  <g id="axes_1">
   <g id="patch_2">
    <path d="M 79.5 262.087545 
L 426.213773 262.087545 
L 426.213773 25.92 
L 79.5 25.92 
z
" style="fill: #eaeaf2"/>
   </g>
   <g id="matplotlib.axis_1">
    <g id="xtick_1">
     <g id="line2d_1">
      <path d="M 79.5 262.087545 
L 79.5 25.92 
" clip-path="url(#pe9d5c17fc3)" style="fill: none; stroke: #ffffff; stroke-width: 1.5; stroke-linecap: round"/>
     </g>
     <g id="text_1">
      <!-- 0.0 -->
      <g style="fill: #262626" transform="translate(73.442139 302.007434) rotate(-45) scale(0.165 -0.165)">
       <defs>
        <path id="DejaVuSans-30" d="M 2034 4250 
Q 1547 4250 1301 3770 
Q 1056 3291 1056 2328 
Q 1056 1369 1301 889 
Q 1547 409 2034 409 
Q 2525 409 2770 889 
Q 3016 1369 3016 2328 
Q 3016 3291 2770 3770 
Q 2525 4250 2034 4250 
z
M 2034 4750 
Q 2819 4750 3233 4129 
Q 3647 3509 3647 2328 
Q 3647 1150 3233 529 
Q 2819 -91 2034 -91 
Q 1250 -91 836 529 
Q 422 1150 422 2328 
Q 422 3509 836 4129 
Q 1250 4750 2034 4750 
z
" transform="scale(0.015625)"/>
        <path id="DejaVuSans-2e" d="M 684 794 
L 1344 794 
L 1344 0 
L 684 0 
L 684 794 
z
" transform="scale(0.015625)"/>
       </defs>
       <use xlink:href="#DejaVuSans-30"/>
       <use xlink:href="#DejaVuSans-2e" x="63.623047"/>
       <use xlink:href="#DejaVuSans-30" x="95.410156"/>
      </g>
     </g>
    </g>
    <g id="xtick_2">
     <g id="line2d_2">
      <path d="M 148.842755 262.087545 
L 148.842755 25.92 
" clip-path="url(#pe9d5c17fc3)" style="fill: none; stroke: #ffffff; stroke-width: 1.5; stroke-linecap: round"/>
     </g>
     <g id="text_2">
      <!-- 0.2 -->
      <g style="fill: #262626" transform="translate(142.784893 302.007434) rotate(-45) scale(0.165 -0.165)">
       <defs>
        <path id="DejaVuSans-32" d="M 1228 531 
L 3431 531 
L 3431 0 
L 469 0 
L 469 531 
Q 828 903 1448 1529 
Q 2069 2156 2228 2338 
Q 2531 2678 2651 2914 
Q 2772 3150 2772 3378 
Q 2772 3750 2511 3984 
Q 2250 4219 1831 4219 
Q 1534 4219 1204 4116 
Q 875 4013 500 3803 
L 500 4441 
Q 881 4594 1212 4672 
Q 1544 4750 1819 4750 
Q 2544 4750 2975 4387 
Q 3406 4025 3406 3419 
Q 3406 3131 3298 2873 
Q 3191 2616 2906 2266 
Q 2828 2175 2409 1742 
Q 1991 1309 1228 531 
z
" transform="scale(0.015625)"/>
       </defs>
       <use xlink:href="#DejaVuSans-30"/>
       <use xlink:href="#DejaVuSans-2e" x="63.623047"/>
       <use xlink:href="#DejaVuSans-32" x="95.410156"/>
      </g>
     </g>
    </g>
    <g id="xtick_3">
     <g id="line2d_3">
      <path d="M 218.185509 262.087545 
L 218.185509 25.92 
" clip-path="url(#pe9d5c17fc3)" style="fill: none; stroke: #ffffff; stroke-width: 1.5; stroke-linecap: round"/>
     </g>
     <g id="text_3">
      <!-- 0.4 -->
      <g style="fill: #262626" transform="translate(212.127648 302.007434) rotate(-45) scale(0.165 -0.165)">
       <defs>
        <path id="DejaVuSans-34" d="M 2419 4116 
L 825 1625 
L 2419 1625 
L 2419 4116 
z
M 2253 4666 
L 3047 4666 
L 3047 1625 
L 3713 1625 
L 3713 1100 
L 3047 1100 
L 3047 0 
L 2419 0 
L 2419 1100 
L 313 1100 
L 313 1709 
L 2253 4666 
z
" transform="scale(0.015625)"/>
       </defs>
       <use xlink:href="#DejaVuSans-30"/>
       <use xlink:href="#DejaVuSans-2e" x="63.623047"/>
       <use xlink:href="#DejaVuSans-34" x="95.410156"/>
      </g>
     </g>
    </g>
    <g id="xtick_4">
     <g id="line2d_4">
      <path d="M 287.528264 262.087545 
L 287.528264 25.92 
" clip-path="url(#pe9d5c17fc3)" style="fill: none; stroke: #ffffff; stroke-width: 1.5; stroke-linecap: round"/>
     </g>
     <g id="text_4">
      <!-- 0.6 -->
      <g style="fill: #262626" transform="translate(281.470403 302.007434) rotate(-45) scale(0.165 -0.165)">
       <defs>
        <path id="DejaVuSans-36" d="M 2113 2584 
Q 1688 2584 1439 2293 
Q 1191 2003 1191 1497 
Q 1191 994 1439 701 
Q 1688 409 2113 409 
Q 2538 409 2786 701 
Q 3034 994 3034 1497 
Q 3034 2003 2786 2293 
Q 2538 2584 2113 2584 
z
M 3366 4563 
L 3366 3988 
Q 3128 4100 2886 4159 
Q 2644 4219 2406 4219 
Q 1781 4219 1451 3797 
Q 1122 3375 1075 2522 
Q 1259 2794 1537 2939 
Q 1816 3084 2150 3084 
Q 2853 3084 3261 2657 
Q 3669 2231 3669 1497 
Q 3669 778 3244 343 
Q 2819 -91 2113 -91 
Q 1303 -91 875 529 
Q 447 1150 447 2328 
Q 447 3434 972 4092 
Q 1497 4750 2381 4750 
Q 2619 4750 2861 4703 
Q 3103 4656 3366 4563 
z
" transform="scale(0.015625)"/>
       </defs>
       <use xlink:href="#DejaVuSans-30"/>
       <use xlink:href="#DejaVuSans-2e" x="63.623047"/>
       <use xlink:href="#DejaVuSans-36" x="95.410156"/>
      </g>
     </g>
    </g>
    <g id="xtick_5">
     <g id="line2d_5">
      <path d="M 356.871018 262.087545 
L 356.871018 25.92 
" clip-path="url(#pe9d5c17fc3)" style="fill: none; stroke: #ffffff; stroke-width: 1.5; stroke-linecap: round"/>
     </g>
     <g id="text_5">
      <!-- 0.8 -->
      <g style="fill: #262626" transform="translate(350.813157 302.007434) rotate(-45) scale(0.165 -0.165)">
       <defs>
        <path id="DejaVuSans-38" d="M 2034 2216 
Q 1584 2216 1326 1975 
Q 1069 1734 1069 1313 
Q 1069 891 1326 650 
Q 1584 409 2034 409 
Q 2484 409 2743 651 
Q 3003 894 3003 1313 
Q 3003 1734 2745 1975 
Q 2488 2216 2034 2216 
z
M 1403 2484 
Q 997 2584 770 2862 
Q 544 3141 544 3541 
Q 544 4100 942 4425 
Q 1341 4750 2034 4750 
Q 2731 4750 3128 4425 
Q 3525 4100 3525 3541 
Q 3525 3141 3298 2862 
Q 3072 2584 2669 2484 
Q 3125 2378 3379 2068 
Q 3634 1759 3634 1313 
Q 3634 634 3220 271 
Q 2806 -91 2034 -91 
Q 1263 -91 848 271 
Q 434 634 434 1313 
Q 434 1759 690 2068 
Q 947 2378 1403 2484 
z
M 1172 3481 
Q 1172 3119 1398 2916 
Q 1625 2713 2034 2713 
Q 2441 2713 2670 2916 
Q 2900 3119 2900 3481 
Q 2900 3844 2670 4047 
Q 2441 4250 2034 4250 
Q 1625 4250 1398 4047 
Q 1172 3844 1172 3481 
z
" transform="scale(0.015625)"/>
       </defs>
       <use xlink:href="#DejaVuSans-30"/>
       <use xlink:href="#DejaVuSans-2e" x="63.623047"/>
       <use xlink:href="#DejaVuSans-38" x="95.410156"/>
      </g>
     </g>
    </g>
    <g id="xtick_6">
     <g id="line2d_6">
      <path d="M 426.213773 262.087545 
L 426.213773 25.92 
" clip-path="url(#pe9d5c17fc3)" style="fill: none; stroke: #ffffff; stroke-width: 1.5; stroke-linecap: round"/>
     </g>
     <g id="text_6">
      <!-- 1.0 -->
      <g style="fill: #262626" transform="translate(420.155912 302.007434) rotate(-45) scale(0.165 -0.165)">
       <defs>
        <path id="DejaVuSans-31" d="M 794 531 
L 1825 531 
L 1825 4091 
L 703 3866 
L 703 4441 
L 1819 4666 
L 2450 4666 
L 2450 531 
L 3481 531 
L 3481 0 
L 794 0 
L 794 531 
z
" transform="scale(0.015625)"/>
       </defs>
       <use xlink:href="#DejaVuSans-31"/>
       <use xlink:href="#DejaVuSans-2e" x="63.623047"/>
       <use xlink:href="#DejaVuSans-30" x="95.410156"/>
      </g>
     </g>
    </g>
    <g id="text_7">
     <!-- Timestep -->
     <g style="fill: #262626" transform="translate(211.368293 322.111047) scale(0.18 -0.18)">
      <defs>
       <path id="DejaVuSans-54" d="M -19 4666 
L 3928 4666 
L 3928 4134 
L 2272 4134 
L 2272 0 
L 1638 0 
L 1638 4134 
L -19 4134 
L -19 4666 
z
" transform="scale(0.015625)"/>
       <path id="DejaVuSans-69" d="M 603 3500 
L 1178 3500 
L 1178 0 
L 603 0 
L 603 3500 
z
M 603 4863 
L 1178 4863 
L 1178 4134 
L 603 4134 
L 603 4863 
z
" transform="scale(0.015625)"/>
       <path id="DejaVuSans-6d" d="M 3328 2828 
Q 3544 3216 3844 3400 
Q 4144 3584 4550 3584 
Q 5097 3584 5394 3201 
Q 5691 2819 5691 2113 
L 5691 0 
L 5113 0 
L 5113 2094 
Q 5113 2597 4934 2840 
Q 4756 3084 4391 3084 
Q 3944 3084 3684 2787 
Q 3425 2491 3425 1978 
L 3425 0 
L 2847 0 
L 2847 2094 
Q 2847 2600 2669 2842 
Q 2491 3084 2119 3084 
Q 1678 3084 1418 2786 
Q 1159 2488 1159 1978 
L 1159 0 
L 581 0 
L 581 3500 
L 1159 3500 
L 1159 2956 
Q 1356 3278 1631 3431 
Q 1906 3584 2284 3584 
Q 2666 3584 2933 3390 
Q 3200 3197 3328 2828 
z
" transform="scale(0.015625)"/>
       <path id="DejaVuSans-65" d="M 3597 1894 
L 3597 1613 
L 953 1613 
Q 991 1019 1311 708 
Q 1631 397 2203 397 
Q 2534 397 2845 478 
Q 3156 559 3463 722 
L 3463 178 
Q 3153 47 2828 -22 
Q 2503 -91 2169 -91 
Q 1331 -91 842 396 
Q 353 884 353 1716 
Q 353 2575 817 3079 
Q 1281 3584 2069 3584 
Q 2775 3584 3186 3129 
Q 3597 2675 3597 1894 
z
M 3022 2063 
Q 3016 2534 2758 2815 
Q 2500 3097 2075 3097 
Q 1594 3097 1305 2825 
Q 1016 2553 972 2059 
L 3022 2063 
z
" transform="scale(0.015625)"/>
       <path id="DejaVuSans-73" d="M 2834 3397 
L 2834 2853 
Q 2591 2978 2328 3040 
Q 2066 3103 1784 3103 
Q 1356 3103 1142 2972 
Q 928 2841 928 2578 
Q 928 2378 1081 2264 
Q 1234 2150 1697 2047 
L 1894 2003 
Q 2506 1872 2764 1633 
Q 3022 1394 3022 966 
Q 3022 478 2636 193 
Q 2250 -91 1575 -91 
Q 1294 -91 989 -36 
Q 684 19 347 128 
L 347 722 
Q 666 556 975 473 
Q 1284 391 1588 391 
Q 1994 391 2212 530 
Q 2431 669 2431 922 
Q 2431 1156 2273 1281 
Q 2116 1406 1581 1522 
L 1381 1569 
Q 847 1681 609 1914 
Q 372 2147 372 2553 
Q 372 3047 722 3315 
Q 1072 3584 1716 3584 
Q 2034 3584 2315 3537 
Q 2597 3491 2834 3397 
z
" transform="scale(0.015625)"/>
       <path id="DejaVuSans-74" d="M 1172 4494 
L 1172 3500 
L 2356 3500 
L 2356 3053 
L 1172 3053 
L 1172 1153 
Q 1172 725 1289 603 
Q 1406 481 1766 481 
L 2356 481 
L 2356 0 
L 1766 0 
Q 1100 0 847 248 
Q 594 497 594 1153 
L 594 3053 
L 172 3053 
L 172 3500 
L 594 3500 
L 594 4494 
L 1172 4494 
z
" transform="scale(0.015625)"/>
       <path id="DejaVuSans-70" d="M 1159 525 
L 1159 -1331 
L 581 -1331 
L 581 3500 
L 1159 3500 
L 1159 2969 
Q 1341 3281 1617 3432 
Q 1894 3584 2278 3584 
Q 2916 3584 3314 3078 
Q 3713 2572 3713 1747 
Q 3713 922 3314 415 
Q 2916 -91 2278 -91 
Q 1894 -91 1617 61 
Q 1341 213 1159 525 
z
M 3116 1747 
Q 3116 2381 2855 2742 
Q 2594 3103 2138 3103 
Q 1681 3103 1420 2742 
Q 1159 2381 1159 1747 
Q 1159 1113 1420 752 
Q 1681 391 2138 391 
Q 2594 391 2855 752 
Q 3116 1113 3116 1747 
z
" transform="scale(0.015625)"/>
      </defs>
      <use xlink:href="#DejaVuSans-54"/>
      <use xlink:href="#DejaVuSans-69" x="57.958984"/>
      <use xlink:href="#DejaVuSans-6d" x="85.742188"/>
      <use xlink:href="#DejaVuSans-65" x="183.154297"/>
      <use xlink:href="#DejaVuSans-73" x="244.677734"/>
      <use xlink:href="#DejaVuSans-74" x="296.777344"/>
      <use xlink:href="#DejaVuSans-65" x="335.986328"/>
      <use xlink:href="#DejaVuSans-70" x="397.509766"/>
     </g>
    </g>
    <g id="text_8">
     <!-- 1e6 -->
     <g style="fill: #262626" transform="translate(395.064866 319.971282) scale(0.165 -0.165)">
      <use xlink:href="#DejaVuSans-31"/>
      <use xlink:href="#DejaVuSans-65" x="63.623047"/>
      <use xlink:href="#DejaVuSans-36" x="125.146484"/>
     </g>
    </g>
   </g>
   <g id="matplotlib.axis_2">
    <g id="ytick_1">
     <g id="line2d_7">
      <path d="M 79.5 262.087545 
L 426.213773 262.087545 
" clip-path="url(#pe9d5c17fc3)" style="fill: none; stroke: #ffffff; stroke-width: 1.5; stroke-linecap: round"/>
     </g>
     <g id="text_9">
      <!-- 0.0 -->
      <g style="fill: #262626" transform="translate(40.759844 268.356256) scale(0.165 -0.165)">
       <use xlink:href="#DejaVuSans-30"/>
       <use xlink:href="#DejaVuSans-2e" x="63.623047"/>
       <use xlink:href="#DejaVuSans-30" x="95.410156"/>
      </g>
     </g>
    </g>
    <g id="ytick_2">
     <g id="line2d_8">
      <path d="M 79.5 214.854036 
L 426.213773 214.854036 
" clip-path="url(#pe9d5c17fc3)" style="fill: none; stroke: #ffffff; stroke-width: 1.5; stroke-linecap: round"/>
     </g>
     <g id="text_10">
      <!-- 0.2 -->
      <g style="fill: #262626" transform="translate(40.759844 221.122747) scale(0.165 -0.165)">
       <use xlink:href="#DejaVuSans-30"/>
       <use xlink:href="#DejaVuSans-2e" x="63.623047"/>
       <use xlink:href="#DejaVuSans-32" x="95.410156"/>
      </g>
     </g>
    </g>
    <g id="ytick_3">
     <g id="line2d_9">
      <path d="M 79.5 167.620527 
L 426.213773 167.620527 
" clip-path="url(#pe9d5c17fc3)" style="fill: none; stroke: #ffffff; stroke-width: 1.5; stroke-linecap: round"/>
     </g>
     <g id="text_11">
      <!-- 0.4 -->
      <g style="fill: #262626" transform="translate(40.759844 173.889238) scale(0.165 -0.165)">
       <use xlink:href="#DejaVuSans-30"/>
       <use xlink:href="#DejaVuSans-2e" x="63.623047"/>
       <use xlink:href="#DejaVuSans-34" x="95.410156"/>
      </g>
     </g>
    </g>
    <g id="ytick_4">
     <g id="line2d_10">
      <path d="M 79.5 120.387018 
L 426.213773 120.387018 
" clip-path="url(#pe9d5c17fc3)" style="fill: none; stroke: #ffffff; stroke-width: 1.5; stroke-linecap: round"/>
     </g>
     <g id="text_12">
      <!-- 0.6 -->
      <g style="fill: #262626" transform="translate(40.759844 126.655729) scale(0.165 -0.165)">
       <use xlink:href="#DejaVuSans-30"/>
       <use xlink:href="#DejaVuSans-2e" x="63.623047"/>
       <use xlink:href="#DejaVuSans-36" x="95.410156"/>
      </g>
     </g>
    </g>
    <g id="ytick_5">
     <g id="line2d_11">
      <path d="M 79.5 73.153509 
L 426.213773 73.153509 
" clip-path="url(#pe9d5c17fc3)" style="fill: none; stroke: #ffffff; stroke-width: 1.5; stroke-linecap: round"/>
     </g>
     <g id="text_13">
      <!-- 0.8 -->
      <g style="fill: #262626" transform="translate(40.759844 79.42222) scale(0.165 -0.165)">
       <use xlink:href="#DejaVuSans-30"/>
       <use xlink:href="#DejaVuSans-2e" x="63.623047"/>
       <use xlink:href="#DejaVuSans-38" x="95.410156"/>
      </g>
     </g>
    </g>
    <g id="ytick_6">
     <g id="line2d_12">
      <path d="M 79.5 25.92 
L 426.213773 25.92 
" clip-path="url(#pe9d5c17fc3)" style="fill: none; stroke: #ffffff; stroke-width: 1.5; stroke-linecap: round"/>
     </g>
     <g id="text_14">
      <!-- 1.0 -->
      <g style="fill: #262626" transform="translate(40.759844 32.188711) scale(0.165 -0.165)">
       <use xlink:href="#DejaVuSans-31"/>
       <use xlink:href="#DejaVuSans-2e" x="63.623047"/>
       <use xlink:href="#DejaVuSans-30" x="95.410156"/>
      </g>
     </g>
    </g>
    <g id="text_15">
     <!-- Score -->
     <g style="fill: #262626" transform="translate(33.016406 169.207991) rotate(-90) scale(0.18 -0.18)">
      <defs>
       <path id="DejaVuSans-53" d="M 3425 4513 
L 3425 3897 
Q 3066 4069 2747 4153 
Q 2428 4238 2131 4238 
Q 1616 4238 1336 4038 
Q 1056 3838 1056 3469 
Q 1056 3159 1242 3001 
Q 1428 2844 1947 2747 
L 2328 2669 
Q 3034 2534 3370 2195 
Q 3706 1856 3706 1288 
Q 3706 609 3251 259 
Q 2797 -91 1919 -91 
Q 1588 -91 1214 -16 
Q 841 59 441 206 
L 441 856 
Q 825 641 1194 531 
Q 1563 422 1919 422 
Q 2459 422 2753 634 
Q 3047 847 3047 1241 
Q 3047 1584 2836 1778 
Q 2625 1972 2144 2069 
L 1759 2144 
Q 1053 2284 737 2584 
Q 422 2884 422 3419 
Q 422 4038 858 4394 
Q 1294 4750 2059 4750 
Q 2388 4750 2728 4690 
Q 3069 4631 3425 4513 
z
" transform="scale(0.015625)"/>
       <path id="DejaVuSans-63" d="M 3122 3366 
L 3122 2828 
Q 2878 2963 2633 3030 
Q 2388 3097 2138 3097 
Q 1578 3097 1268 2742 
Q 959 2388 959 1747 
Q 959 1106 1268 751 
Q 1578 397 2138 397 
Q 2388 397 2633 464 
Q 2878 531 3122 666 
L 3122 134 
Q 2881 22 2623 -34 
Q 2366 -91 2075 -91 
Q 1284 -91 818 406 
Q 353 903 353 1747 
Q 353 2603 823 3093 
Q 1294 3584 2113 3584 
Q 2378 3584 2631 3529 
Q 2884 3475 3122 3366 
z
" transform="scale(0.015625)"/>
       <path id="DejaVuSans-6f" d="M 1959 3097 
Q 1497 3097 1228 2736 
Q 959 2375 959 1747 
Q 959 1119 1226 758 
Q 1494 397 1959 397 
Q 2419 397 2687 759 
Q 2956 1122 2956 1747 
Q 2956 2369 2687 2733 
Q 2419 3097 1959 3097 
z
M 1959 3584 
Q 2709 3584 3137 3096 
Q 3566 2609 3566 1747 
Q 3566 888 3137 398 
Q 2709 -91 1959 -91 
Q 1206 -91 779 398 
Q 353 888 353 1747 
Q 353 2609 779 3096 
Q 1206 3584 1959 3584 
z
" transform="scale(0.015625)"/>
       <path id="DejaVuSans-72" d="M 2631 2963 
Q 2534 3019 2420 3045 
Q 2306 3072 2169 3072 
Q 1681 3072 1420 2755 
Q 1159 2438 1159 1844 
L 1159 0 
L 581 0 
L 581 3500 
L 1159 3500 
L 1159 2956 
Q 1341 3275 1631 3429 
Q 1922 3584 2338 3584 
Q 2397 3584 2469 3576 
Q 2541 3569 2628 3553 
L 2631 2963 
z
" transform="scale(0.015625)"/>
      </defs>
      <use xlink:href="#DejaVuSans-53"/>
      <use xlink:href="#DejaVuSans-63" x="63.476562"/>
      <use xlink:href="#DejaVuSans-6f" x="118.457031"/>
      <use xlink:href="#DejaVuSans-72" x="179.638672"/>
      <use xlink:href="#DejaVuSans-65" x="218.501953"/>
     </g>
    </g>
   </g>
   <g id="PolyCollection_1"/>
   <g id="PolyCollection_2"/>
   <g id="PolyCollection_3"/>
   <g id="PolyCollection_4"/>
   <g id="PolyCollection_5"/>
   <g id="line2d_13">
    <path d="M 82.967138 262.087545 
L 86.434275 262.087545 
L 89.901413 262.087545 
L 93.368551 262.087545 
L 96.835689 262.087545 
L 100.302826 262.087545 
L 103.769964 262.087545 
L 107.237102 262.087545 
L 110.70424 262.087545 
L 114.171377 262.087545 
L 117.638515 262.087545 
L 121.105653 262.087545 
L 124.57279 262.087545 
L 128.039928 262.087545 
L 131.507066 262.087545 
L 134.974204 262.087545 
L 138.441341 262.087545 
L 141.908479 262.087545 
L 145.375617 262.087545 
L 148.842755 262.087545 
L 152.309892 262.087545 
L 155.77703 262.087545 
L 159.244168 262.087545 
L 162.711305 262.087545 
L 166.178443 262.087545 
L 169.645581 262.087545 
L 173.112719 262.087545 
L 176.579856 262.087545 
L 180.046994 262.087545 
L 183.514132 262.087545 
L 186.98127 262.087545 
L 190.448407 262.087545 
L 193.915545 262.087545 
L 197.382683 262.087545 
L 200.84982 239.666389 
L 204.316958 262.087545 
L 207.784096 262.087545 
L 211.251234 262.087545 
L 214.718371 238.869324 
L 218.185509 262.087545 
L 221.652647 170.044929 
L 225.119785 147.590567 
L 228.586922 193.329561 
L 232.05406 169.945313 
L 235.521198 215.983224 
L 238.988335 124.438732 
L 242.455473 147.490928 
L 245.922611 78.068746 
L 249.389749 78.268001 
L 252.856886 170.210978 
L 256.324024 100.822025 
L 259.791162 147.324855 
L 263.2583 101.320173 
L 266.725437 146.826683 
L 270.192575 124.339117 
L 273.659713 124.837336 
L 277.12685 146.893117 
L 280.593988 124.438779 
L 284.061126 146.793502 
L 287.528264 100.85523 
L 290.995401 124.106633 
L 294.462539 100.124551 
L 297.929677 123.774558 
L 301.396815 78.334411 
L 304.863952 170.078158 
L 308.33109 124.305888 
L 311.798228 169.94529 
L 315.265365 124.073428 
L 318.732503 192.897823 
L 322.199641 100.821978 
L 325.666779 123.708124 
L 329.133916 123.708101 
L 332.601054 169.945313 
L 336.068192 123.375978 
L 339.53533 100.45665 
L 343.002467 146.52779 
L 346.469605 123.907402 
L 349.936743 124.438779 
L 353.40388 100.755544 
L 356.871018 54.651223 
L 360.338156 32.230066 
" clip-path="url(#pe9d5c17fc3)" style="fill: none; stroke: #4c72b0; stroke-width: 2.25; stroke-linecap: round"/>
   </g>
   <g id="line2d_14">
    <path d="M 82.967138 262.087545 
L 86.434275 262.087545 
L 89.901413 262.087545 
L 93.368551 262.087545 
L 96.835689 262.087545 
L 100.302826 262.087545 
L 103.769964 262.087545 
L 107.237102 262.087545 
L 110.70424 262.087545 
L 114.171377 262.087545 
L 117.638515 262.087545 
L 121.105653 262.087545 
L 124.57279 262.087545 
L 128.039928 262.087545 
L 131.507066 262.087545 
L 134.974204 238.869324 
L 138.441341 262.087545 
L 141.908479 238.935734 
L 145.375617 215.916767 
L 148.842755 192.49929 
L 152.309892 147.557362 
L 155.77703 192.964233 
L 159.244168 169.912085 
L 162.711305 100.921593 
L 166.178443 123.94056 
L 169.645581 100.456674 
L 173.112719 147.158806 
L 176.579856 123.840921 
L 180.046994 78.068699 
L 183.514132 147.092372 
L 186.98127 146.727068 
L 190.448407 123.575256 
L 193.915545 54.78409 
L 197.382683 124.239501 
L 200.84982 146.660634 
L 204.316958 100.954822 
L 207.784096 170.078134 
L 211.251234 100.556313 
L 214.718371 77.836216 
L 218.185509 124.006994 
L 221.652647 78.633305 
L 225.119785 123.442412 
L 228.586922 124.007018 
L 232.05406 100.921617 
L 235.521198 169.712806 
L 238.988335 146.627452 
L 242.455473 169.845651 
L 245.922611 77.769829 
L 249.389749 78.002289 
L 252.856886 77.7366 
L 256.324024 122.977469 
L 259.791162 192.831413 
L 263.2583 54.850501 
L 266.725437 101.220534 
L 270.192575 147.623773 
L 273.659713 78.002289 
L 277.12685 54.883706 
L 280.593988 100.822001 
L 284.061126 100.556289 
L 287.528264 77.969083 
L 290.995401 100.755567 
L 294.462539 78.566894 
L 297.929677 124.239501 
L 301.396815 169.679601 
L 304.863952 101.718682 
L 308.33109 32.163656 
" clip-path="url(#pe9d5c17fc3)" style="fill: none; stroke: #dd8452; stroke-width: 2.25; stroke-linecap: round"/>
   </g>
   <g id="line2d_15">
    <path d="M 82.967138 262.087545 
L 86.434275 262.087545 
L 89.901413 262.087545 
L 93.368551 262.087545 
L 96.835689 262.087545 
L 100.302826 262.087545 
L 103.769964 262.087545 
L 107.237102 262.087545 
L 110.70424 262.087545 
L 114.171377 262.087545 
L 117.638515 262.087545 
L 121.105653 262.087545 
L 124.57279 262.087545 
L 128.039928 262.087545 
L 131.507066 239.068578 
L 134.974204 262.087545 
L 138.441341 239.135012 
L 141.908479 262.087545 
L 145.375617 193.562068 
L 148.842755 170.177773 
L 152.309892 193.130306 
L 155.77703 169.94529 
L 159.244168 192.931052 
L 162.711305 78.400821 
L 166.178443 124.438732 
L 169.645581 123.575256 
L 173.112719 193.229922 
L 176.579856 101.386583 
L 180.046994 78.334411 
L 183.514132 100.755591 
L 186.98127 123.80774 
L 190.448407 100.655928 
L 193.915545 192.831389 
L 197.382683 147.623773 
L 200.84982 78.13518 
L 204.316958 146.926323 
L 207.784096 169.912085 
L 211.251234 170.011724 
L 214.718371 100.954822 
L 218.185509 147.025962 
L 221.652647 123.641667 
L 225.119785 77.670166 
L 228.586922 146.859912 
L 232.05406 124.239478 
L 235.521198 77.769829 
L 238.988335 146.99278 
L 242.455473 77.437706 
L 245.922611 146.826707 
L 249.389749 77.470912 
L 252.856886 192.66534 
L 256.324024 123.874174 
L 259.791162 100.45665 
L 263.2583 146.959528 
L 266.725437 124.106633 
L 270.192575 78.201567 
L 273.659713 54.651199 
L 277.12685 101.021279 
L 280.593988 100.954869 
L 284.061126 54.153074 
L 287.528264 32.097269 
" clip-path="url(#pe9d5c17fc3)" style="fill: none; stroke: #55a868; stroke-width: 2.25; stroke-linecap: round"/>
   </g>
   <g id="line2d_16">
    <path d="M 82.967138 262.087545 
L 86.434275 262.087545 
L 89.901413 262.087545 
L 93.368551 262.087545 
L 96.835689 262.087545 
L 100.302826 262.087545 
L 103.769964 262.087545 
L 107.237102 262.087545 
L 110.70424 262.087545 
L 114.171377 262.087545 
L 117.638515 216.581012 
L 121.105653 262.087545 
L 124.57279 262.087545 
L 128.039928 262.087545 
L 131.507066 239.068578 
L 134.974204 262.087545 
L 138.441341 239.898872 
L 141.908479 262.087545 
L 145.375617 262.087545 
L 148.842755 216.14925 
L 152.309892 216.713856 
L 155.77703 170.875199 
L 159.244168 216.414962 
L 162.711305 216.481372 
L 166.178443 194.06024 
L 169.645581 124.604852 
L 173.112719 147.258421 
L 176.579856 102.183673 
L 180.046994 170.343822 
L 183.514132 124.206273 
L 186.98127 146.52779 
L 190.448407 124.139839 
L 193.915545 78.533713 
L 197.382683 146.760297 
L 200.84982 78.035517 
L 204.316958 192.964257 
L 207.784096 123.80774 
L 211.251234 147.524133 
L 214.718371 123.741306 
L 218.185509 101.054461 
L 221.652647 123.907402 
L 225.119785 100.489879 
L 228.586922 79.065066 
L 232.05406 101.718729 
L 235.521198 78.068746 
L 238.988335 77.969107 
L 242.455473 147.059167 
L 245.922611 78.06877 
L 249.389749 100.954822 
L 252.856886 100.888435 
L 256.324024 100.556289 
L 259.791162 54.584812 
L 263.2583 146.760273 
L 266.725437 146.727044 
L 270.192575 31.831533 
" clip-path="url(#pe9d5c17fc3)" style="fill: none; stroke: #c44e52; stroke-width: 2.25; stroke-linecap: round"/>
   </g>
   <g id="line2d_17">
    <path d="M 82.967138 262.087545 
L 86.434275 262.087545 
L 89.901413 262.087545 
L 93.368551 262.087545 
L 96.835689 262.087545 
L 100.302826 262.087545 
L 103.769964 262.087545 
L 107.237102 262.087545 
L 110.70424 262.087545 
L 114.171377 262.087545 
L 117.638515 262.087545 
L 121.105653 262.087545 
L 124.57279 262.087545 
L 128.039928 262.087545 
L 131.507066 262.087545 
L 134.974204 262.087545 
L 138.441341 215.949996 
L 141.908479 239.168217 
L 145.375617 193.263151 
L 148.842755 262.087545 
L 152.309892 148.155149 
L 155.77703 124.837289 
L 159.244168 125.468305 
L 162.711305 170.77556 
L 166.178443 170.576306 
L 169.645581 147.490905 
L 173.112719 78.301182 
L 176.579856 146.992756 
L 180.046994 193.263151 
L 183.514132 123.840945 
L 186.98127 147.590567 
L 190.448407 169.579986 
L 193.915545 77.636985 
L 197.382683 54.883706 
L 200.84982 146.660634 
L 204.316958 101.154124 
L 207.784096 146.959551 
L 211.251234 100.954846 
L 214.718371 123.475617 
L 218.185509 77.537322 
L 221.652647 101.021256 
L 225.119785 101.187282 
L 228.586922 169.878879 
L 232.05406 123.741353 
L 235.521198 123.475617 
L 238.988335 170.07811 
L 242.455473 77.072379 
L 245.922611 124.5716 
L 249.389749 146.693863 
L 252.856886 54.784114 
L 256.324024 55.24901 
L 259.791162 100.489879 
L 263.2583 100.821978 
L 266.725437 77.836263 
L 270.192575 193.030667 
L 273.659713 170.144544 
L 277.12685 123.774535 
L 280.593988 100.689181 
L 284.061126 100.788749 
L 287.528264 100.722362 
L 290.995401 77.205223 
L 294.462539 123.940584 
L 297.929677 77.769829 
L 301.396815 77.338115 
L 304.863952 77.50414 
L 308.33109 77.836239 
L 311.798228 101.419812 
L 315.265365 54.651223 
L 318.732503 54.784043 
L 322.199641 100.489855 
L 325.666779 77.50414 
L 329.133916 77.636937 
L 332.601054 100.390263 
L 336.068192 54.651246 
L 339.53533 123.309592 
L 343.002467 54.551583 
L 346.469605 100.622723 
L 349.936743 77.935878 
L 353.40388 100.124551 
L 356.871018 54.95014 
L 360.338156 100.323853 
L 363.805294 100.755544 
L 367.272431 101.253716 
L 370.739569 100.988074 
L 374.206707 78.168362 
L 377.673845 101.486246 
L 381.140982 31.831533 
" clip-path="url(#pe9d5c17fc3)" style="fill: none; stroke: #8172b3; stroke-width: 2.25; stroke-linecap: round"/>
   </g>
   <g id="line2d_18"/>
   <g id="line2d_19"/>
   <g id="line2d_20"/>
   <g id="line2d_21"/>
   <g id="line2d_22"/>
   <g id="patch_3">
    <path d="M 79.5 262.087545 
L 79.5 25.92 
" style="fill: none; stroke: #ffffff; stroke-width: 1.875; stroke-linejoin: miter; stroke-linecap: square"/>
   </g>
   <g id="patch_4">
    <path d="M 426.213773 262.087545 
L 426.213773 25.92 
" style="fill: none; stroke: #ffffff; stroke-width: 1.875; stroke-linejoin: miter; stroke-linecap: square"/>
   </g>
   <g id="patch_5">
    <path d="M 79.5 262.087545 
L 426.213773 262.087545 
" style="fill: none; stroke: #ffffff; stroke-width: 1.875; stroke-linejoin: miter; stroke-linecap: square"/>
   </g>
   <g id="patch_6">
    <path d="M 79.5 25.92 
L 426.213773 25.92 
" style="fill: none; stroke: #ffffff; stroke-width: 1.875; stroke-linejoin: miter; stroke-linecap: square"/>
   </g>
   <g id="legend_1">
    <g id="patch_7">
     <path d="M 351.365648 253.837545 
L 414.663773 253.837545 
Q 417.963773 253.837545 417.963773 250.537545 
L 417.963773 105.422389 
Q 417.963773 102.122389 414.663773 102.122389 
L 351.365648 102.122389 
Q 348.065648 102.122389 348.065648 105.422389 
L 348.065648 250.537545 
Q 348.065648 253.837545 351.365648 253.837545 
z
" style="fill: #eaeaf2; opacity: 0.8; stroke: #cccccc; stroke-width: 1.5; stroke-linejoin: miter"/>
    </g>
    <g id="text_16">
     <!-- Seed -->
     <g style="fill: #262626" transform="translate(360.511898 122.399577) scale(0.18 -0.18)">
      <defs>
       <path id="DejaVuSans-64" d="M 2906 2969 
L 2906 4863 
L 3481 4863 
L 3481 0 
L 2906 0 
L 2906 525 
Q 2725 213 2448 61 
Q 2172 -91 1784 -91 
Q 1150 -91 751 415 
Q 353 922 353 1747 
Q 353 2572 751 3078 
Q 1150 3584 1784 3584 
Q 2172 3584 2448 3432 
Q 2725 3281 2906 2969 
z
M 947 1747 
Q 947 1113 1208 752 
Q 1469 391 1925 391 
Q 2381 391 2643 752 
Q 2906 1113 2906 1747 
Q 2906 2381 2643 2742 
Q 2381 3103 1925 3103 
Q 1469 3103 1208 2742 
Q 947 2381 947 1747 
z
" transform="scale(0.015625)"/>
      </defs>
      <use xlink:href="#DejaVuSans-53"/>
      <use xlink:href="#DejaVuSans-65" x="63.476562"/>
      <use xlink:href="#DejaVuSans-65" x="125"/>
      <use xlink:href="#DejaVuSans-64" x="186.523438"/>
     </g>
    </g>
    <g id="line2d_23">
     <path d="M 354.665648 141.155436 
L 371.165648 141.155436 
L 387.665648 141.155436 
" style="fill: none; stroke: #4c72b0; stroke-width: 2.25; stroke-linecap: round"/>
    </g>
    <g id="text_17">
     <!-- 0 -->
     <g style="fill: #262626" transform="translate(400.865648 146.930436) scale(0.165 -0.165)">
      <use xlink:href="#DejaVuSans-30"/>
     </g>
    </g>
    <g id="line2d_24">
     <path d="M 354.665648 165.374342 
L 371.165648 165.374342 
L 387.665648 165.374342 
" style="fill: none; stroke: #dd8452; stroke-width: 2.25; stroke-linecap: round"/>
    </g>
    <g id="text_18">
     <!-- 1 -->
     <g style="fill: #262626" transform="translate(400.865648 171.149342) scale(0.165 -0.165)">
      <use xlink:href="#DejaVuSans-31"/>
     </g>
    </g>
    <g id="line2d_25">
     <path d="M 354.665648 189.593249 
L 371.165648 189.593249 
L 387.665648 189.593249 
" style="fill: none; stroke: #55a868; stroke-width: 2.25; stroke-linecap: round"/>
    </g>
    <g id="text_19">
     <!-- 2 -->
     <g style="fill: #262626" transform="translate(400.865648 195.368249) scale(0.165 -0.165)">
      <use xlink:href="#DejaVuSans-32"/>
     </g>
    </g>
    <g id="line2d_26">
     <path d="M 354.665648 213.812155 
L 371.165648 213.812155 
L 387.665648 213.812155 
" style="fill: none; stroke: #c44e52; stroke-width: 2.25; stroke-linecap: round"/>
    </g>
    <g id="text_20">
     <!-- 3 -->
     <g style="fill: #262626" transform="translate(400.865648 219.587155) scale(0.165 -0.165)">
      <defs>
       <path id="DejaVuSans-33" d="M 2597 2516 
Q 3050 2419 3304 2112 
Q 3559 1806 3559 1356 
Q 3559 666 3084 287 
Q 2609 -91 1734 -91 
Q 1441 -91 1130 -33 
Q 819 25 488 141 
L 488 750 
Q 750 597 1062 519 
Q 1375 441 1716 441 
Q 2309 441 2620 675 
Q 2931 909 2931 1356 
Q 2931 1769 2642 2001 
Q 2353 2234 1838 2234 
L 1294 2234 
L 1294 2753 
L 1863 2753 
Q 2328 2753 2575 2939 
Q 2822 3125 2822 3475 
Q 2822 3834 2567 4026 
Q 2313 4219 1838 4219 
Q 1578 4219 1281 4162 
Q 984 4106 628 3988 
L 628 4550 
Q 988 4650 1302 4700 
Q 1616 4750 1894 4750 
Q 2613 4750 3031 4423 
Q 3450 4097 3450 3541 
Q 3450 3153 3228 2886 
Q 3006 2619 2597 2516 
z
" transform="scale(0.015625)"/>
      </defs>
      <use xlink:href="#DejaVuSans-33"/>
     </g>
    </g>
    <g id="line2d_27">
     <path d="M 354.665648 238.031061 
L 371.165648 238.031061 
L 387.665648 238.031061 
" style="fill: none; stroke: #8172b3; stroke-width: 2.25; stroke-linecap: round"/>
    </g>
    <g id="text_21">
     <!-- 4 -->
     <g style="fill: #262626" transform="translate(400.865648 243.806061) scale(0.165 -0.165)">
      <use xlink:href="#DejaVuSans-34"/>
     </g>
    </g>
   </g>
  </g>
 </g>
 <defs>
  <clipPath id="pe9d5c17fc3">
   <rect x="79.5" y="25.92" width="346.713773" height="236.167545"/>
  </clipPath>
 </defs>
</svg>
