<?xml version="1.0" encoding="utf-8" standalone="no"?>
<!DOCTYPE svg PUBLIC "-//W3C//DTD SVG 1.1//EN"
  "http://www.w3.org/Graphics/SVG/1.1/DTD/svg11.dtd">
<svg xmlns:xlink="http://www.w3.org/1999/xlink" width="936pt" height="504pt" viewBox="0 0 936 504" xmlns="http://www.w3.org/2000/svg" version="1.1">
 <metadata>
  <rdf:RDF xmlns:dc="http://purl.org/dc/elements/1.1/" xmlns:cc="http://creativecommons.org/ns#" xmlns:rdf="http://www.w3.org/1999/02/22-rdf-syntax-ns#">
   <cc:Work>
    <dc:type rdf:resource="http://purl.org/dc/dcmitype/StillImage"/>
    <dc:date>1980-01-01T00:00:00+00:00</dc:date>
    <dc:format>image/svg+xml</dc:format>
    <dc:creator>
     <cc:Agent>
      <dc:title>Matplotlib v3.9.2, https://matplotlib.org/</dc:title>
     </cc:Agent>
    </dc:creator>
   </cc:Work>
  </rdf:RDF>
 </metadata>
 <defs>
  <style type="text/css">*{stroke-linejoin: round; stroke-linecap: butt}</style>
 </defs>
 <g id="figure_1">
  <g id="patch_1">
   <path d="M 0 504 
L 936 504 
L 936 0 
L 0 0 
z
" style="fill: #ffffff"/>
  </g>
  <g id="axes_1">
   <g id="patch_2">
    <path d="M 79.5 420.487545 
L 901.413773 420.487545 
L 901.413773 25.92 
L 79.5 25.92 
z
" style="fill: #eaeaf2"/>
   </g>
   <g id="matplotlib.axis_1">
    <g id="xtick_1">
     <g id="line2d_1">
      <path d="M 79.5 420.487545 
L 79.5 25.92 
" clip-path="url(#pe2e8c0a9bc)" style="fill: none; stroke: #ffffff; stroke-width: 1.5; stroke-linecap: round"/>
     </g>
     <g id="text_1">
      <!-- 0.0 -->
      <g style="fill: #262626" transform="translate(73.442139 460.407434) rotate(-45) scale(0.165 -0.165)">
       <defs>
        <path id="DejaVuSans-30" d="M 2034 4250 
Q 1547 4250 1301 3770 
Q 1056 3291 1056 2328 
Q 1056 1369 1301 889 
Q 1547 409 2034 409 
Q 2525 409 2770 889 
Q 3016 1369 3016 2328 
Q 3016 3291 2770 3770 
Q 2525 4250 2034 4250 
z
M 2034 4750 
Q 2819 4750 3233 4129 
Q 3647 3509 3647 2328 
Q 3647 1150 3233 529 
Q 2819 -91 2034 -91 
Q 1250 -91 836 529 
Q 422 1150 422 2328 
Q 422 3509 836 4129 
Q 1250 4750 2034 4750 
z
" transform="scale(0.015625)"/>
        <path id="DejaVuSans-2e" d="M 684 794 
L 1344 794 
L 1344 0 
L 684 0 
L 684 794 
z
" transform="scale(0.015625)"/>
       </defs>
       <use xlink:href="#DejaVuSans-30"/>
       <use xlink:href="#DejaVuSans-2e" x="63.623047"/>
       <use xlink:href="#DejaVuSans-30" x="95.410156"/>
      </g>
     </g>
    </g>
    <g id="xtick_2">
     <g id="line2d_2">
      <path d="M 243.882755 420.487545 
L 243.882755 25.92 
" clip-path="url(#pe2e8c0a9bc)" style="fill: none; stroke: #ffffff; stroke-width: 1.5; stroke-linecap: round"/>
     </g>
     <g id="text_2">
      <!-- 0.2 -->
      <g style="fill: #262626" transform="translate(237.824893 460.407434) rotate(-45) scale(0.165 -0.165)">
       <defs>
        <path id="DejaVuSans-32" d="M 1228 531 
L 3431 531 
L 3431 0 
L 469 0 
L 469 531 
Q 828 903 1448 1529 
Q 2069 2156 2228 2338 
Q 2531 2678 2651 2914 
Q 2772 3150 2772 3378 
Q 2772 3750 2511 3984 
Q 2250 4219 1831 4219 
Q 1534 4219 1204 4116 
Q 875 4013 500 3803 
L 500 4441 
Q 881 4594 1212 4672 
Q 1544 4750 1819 4750 
Q 2544 4750 2975 4387 
Q 3406 4025 3406 3419 
Q 3406 3131 3298 2873 
Q 3191 2616 2906 2266 
Q 2828 2175 2409 1742 
Q 1991 1309 1228 531 
z
" transform="scale(0.015625)"/>
       </defs>
       <use xlink:href="#DejaVuSans-30"/>
       <use xlink:href="#DejaVuSans-2e" x="63.623047"/>
       <use xlink:href="#DejaVuSans-32" x="95.410156"/>
      </g>
     </g>
    </g>
    <g id="xtick_3">
     <g id="line2d_3">
      <path d="M 408.265509 420.487545 
L 408.265509 25.92 
" clip-path="url(#pe2e8c0a9bc)" style="fill: none; stroke: #ffffff; stroke-width: 1.5; stroke-linecap: round"/>
     </g>
     <g id="text_3">
      <!-- 0.4 -->
      <g style="fill: #262626" transform="translate(402.207648 460.407434) rotate(-45) scale(0.165 -0.165)">
       <defs>
        <path id="DejaVuSans-34" d="M 2419 4116 
L 825 1625 
L 2419 1625 
L 2419 4116 
z
M 2253 4666 
L 3047 4666 
L 3047 1625 
L 3713 1625 
L 3713 1100 
L 3047 1100 
L 3047 0 
L 2419 0 
L 2419 1100 
L 313 1100 
L 313 1709 
L 2253 4666 
z
" transform="scale(0.015625)"/>
       </defs>
       <use xlink:href="#DejaVuSans-30"/>
       <use xlink:href="#DejaVuSans-2e" x="63.623047"/>
       <use xlink:href="#DejaVuSans-34" x="95.410156"/>
      </g>
     </g>
    </g>
    <g id="xtick_4">
     <g id="line2d_4">
      <path d="M 572.648264 420.487545 
L 572.648264 25.92 
" clip-path="url(#pe2e8c0a9bc)" style="fill: none; stroke: #ffffff; stroke-width: 1.5; stroke-linecap: round"/>
     </g>
     <g id="text_4">
      <!-- 0.6 -->
      <g style="fill: #262626" transform="translate(566.590403 460.407434) rotate(-45) scale(0.165 -0.165)">
       <defs>
        <path id="DejaVuSans-36" d="M 2113 2584 
Q 1688 2584 1439 2293 
Q 1191 2003 1191 1497 
Q 1191 994 1439 701 
Q 1688 409 2113 409 
Q 2538 409 2786 701 
Q 3034 994 3034 1497 
Q 3034 2003 2786 2293 
Q 2538 2584 2113 2584 
z
M 3366 4563 
L 3366 3988 
Q 3128 4100 2886 4159 
Q 2644 4219 2406 4219 
Q 1781 4219 1451 3797 
Q 1122 3375 1075 2522 
Q 1259 2794 1537 2939 
Q 1816 3084 2150 3084 
Q 2853 3084 3261 2657 
Q 3669 2231 3669 1497 
Q 3669 778 3244 343 
Q 2819 -91 2113 -91 
Q 1303 -91 875 529 
Q 447 1150 447 2328 
Q 447 3434 972 4092 
Q 1497 4750 2381 4750 
Q 2619 4750 2861 4703 
Q 3103 4656 3366 4563 
z
" transform="scale(0.015625)"/>
       </defs>
       <use xlink:href="#DejaVuSans-30"/>
       <use xlink:href="#DejaVuSans-2e" x="63.623047"/>
       <use xlink:href="#DejaVuSans-36" x="95.410156"/>
      </g>
     </g>
    </g>
    <g id="xtick_5">
     <g id="line2d_5">
      <path d="M 737.031018 420.487545 
L 737.031018 25.92 
" clip-path="url(#pe2e8c0a9bc)" style="fill: none; stroke: #ffffff; stroke-width: 1.5; stroke-linecap: round"/>
     </g>
     <g id="text_5">
      <!-- 0.8 -->
      <g style="fill: #262626" transform="translate(730.973157 460.407434) rotate(-45) scale(0.165 -0.165)">
       <defs>
        <path id="DejaVuSans-38" d="M 2034 2216 
Q 1584 2216 1326 1975 
Q 1069 1734 1069 1313 
Q 1069 891 1326 650 
Q 1584 409 2034 409 
Q 2484 409 2743 651 
Q 3003 894 3003 1313 
Q 3003 1734 2745 1975 
Q 2488 2216 2034 2216 
z
M 1403 2484 
Q 997 2584 770 2862 
Q 544 3141 544 3541 
Q 544 4100 942 4425 
Q 1341 4750 2034 4750 
Q 2731 4750 3128 4425 
Q 3525 4100 3525 3541 
Q 3525 3141 3298 2862 
Q 3072 2584 2669 2484 
Q 3125 2378 3379 2068 
Q 3634 1759 3634 1313 
Q 3634 634 3220 271 
Q 2806 -91 2034 -91 
Q 1263 -91 848 271 
Q 434 634 434 1313 
Q 434 1759 690 2068 
Q 947 2378 1403 2484 
z
M 1172 3481 
Q 1172 3119 1398 2916 
Q 1625 2713 2034 2713 
Q 2441 2713 2670 2916 
Q 2900 3119 2900 3481 
Q 2900 3844 2670 4047 
Q 2441 4250 2034 4250 
Q 1625 4250 1398 4047 
Q 1172 3844 1172 3481 
z
" transform="scale(0.015625)"/>
       </defs>
       <use xlink:href="#DejaVuSans-30"/>
       <use xlink:href="#DejaVuSans-2e" x="63.623047"/>
       <use xlink:href="#DejaVuSans-38" x="95.410156"/>
      </g>
     </g>
    </g>
    <g id="xtick_6">
     <g id="line2d_6">
      <path d="M 901.413773 420.487545 
L 901.413773 25.92 
" clip-path="url(#pe2e8c0a9bc)" style="fill: none; stroke: #ffffff; stroke-width: 1.5; stroke-linecap: round"/>
     </g>
     <g id="text_6">
      <!-- 1.0 -->
      <g style="fill: #262626" transform="translate(895.355912 460.407434) rotate(-45) scale(0.165 -0.165)">
       <defs>
        <path id="DejaVuSans-31" d="M 794 531 
L 1825 531 
L 1825 4091 
L 703 3866 
L 703 4441 
L 1819 4666 
L 2450 4666 
L 2450 531 
L 3481 531 
L 3481 0 
L 794 0 
L 794 531 
z
" transform="scale(0.015625)"/>
       </defs>
       <use xlink:href="#DejaVuSans-31"/>
       <use xlink:href="#DejaVuSans-2e" x="63.623047"/>
       <use xlink:href="#DejaVuSans-30" x="95.410156"/>
      </g>
     </g>
    </g>
    <g id="text_7">
     <!-- Timestep -->
     <g style="fill: #262626" transform="translate(448.968293 480.511047) scale(0.18 -0.18)">
      <defs>
       <path id="DejaVuSans-54" d="M -19 4666 
L 3928 4666 
L 3928 4134 
L 2272 4134 
L 2272 0 
L 1638 0 
L 1638 4134 
L -19 4134 
L -19 4666 
z
" transform="scale(0.015625)"/>
       <path id="DejaVuSans-69" d="M 603 3500 
L 1178 3500 
L 1178 0 
L 603 0 
L 603 3500 
z
M 603 4863 
L 1178 4863 
L 1178 4134 
L 603 4134 
L 603 4863 
z
" transform="scale(0.015625)"/>
       <path id="DejaVuSans-6d" d="M 3328 2828 
Q 3544 3216 3844 3400 
Q 4144 3584 4550 3584 
Q 5097 3584 5394 3201 
Q 5691 2819 5691 2113 
L 5691 0 
L 5113 0 
L 5113 2094 
Q 5113 2597 4934 2840 
Q 4756 3084 4391 3084 
Q 3944 3084 3684 2787 
Q 3425 2491 3425 1978 
L 3425 0 
L 2847 0 
L 2847 2094 
Q 2847 2600 2669 2842 
Q 2491 3084 2119 3084 
Q 1678 3084 1418 2786 
Q 1159 2488 1159 1978 
L 1159 0 
L 581 0 
L 581 3500 
L 1159 3500 
L 1159 2956 
Q 1356 3278 1631 3431 
Q 1906 3584 2284 3584 
Q 2666 3584 2933 3390 
Q 3200 3197 3328 2828 
z
" transform="scale(0.015625)"/>
       <path id="DejaVuSans-65" d="M 3597 1894 
L 3597 1613 
L 953 1613 
Q 991 1019 1311 708 
Q 1631 397 2203 397 
Q 2534 397 2845 478 
Q 3156 559 3463 722 
L 3463 178 
Q 3153 47 2828 -22 
Q 2503 -91 2169 -91 
Q 1331 -91 842 396 
Q 353 884 353 1716 
Q 353 2575 817 3079 
Q 1281 3584 2069 3584 
Q 2775 3584 3186 3129 
Q 3597 2675 3597 1894 
z
M 3022 2063 
Q 3016 2534 2758 2815 
Q 2500 3097 2075 3097 
Q 1594 3097 1305 2825 
Q 1016 2553 972 2059 
L 3022 2063 
z
" transform="scale(0.015625)"/>
       <path id="DejaVuSans-73" d="M 2834 3397 
L 2834 2853 
Q 2591 2978 2328 3040 
Q 2066 3103 1784 3103 
Q 1356 3103 1142 2972 
Q 928 2841 928 2578 
Q 928 2378 1081 2264 
Q 1234 2150 1697 2047 
L 1894 2003 
Q 2506 1872 2764 1633 
Q 3022 1394 3022 966 
Q 3022 478 2636 193 
Q 2250 -91 1575 -91 
Q 1294 -91 989 -36 
Q 684 19 347 128 
L 347 722 
Q 666 556 975 473 
Q 1284 391 1588 391 
Q 1994 391 2212 530 
Q 2431 669 2431 922 
Q 2431 1156 2273 1281 
Q 2116 1406 1581 1522 
L 1381 1569 
Q 847 1681 609 1914 
Q 372 2147 372 2553 
Q 372 3047 722 3315 
Q 1072 3584 1716 3584 
Q 2034 3584 2315 3537 
Q 2597 3491 2834 3397 
z
" transform="scale(0.015625)"/>
       <path id="DejaVuSans-74" d="M 1172 4494 
L 1172 3500 
L 2356 3500 
L 2356 3053 
L 1172 3053 
L 1172 1153 
Q 1172 725 1289 603 
Q 1406 481 1766 481 
L 2356 481 
L 2356 0 
L 1766 0 
Q 1100 0 847 248 
Q 594 497 594 1153 
L 594 3053 
L 172 3053 
L 172 3500 
L 594 3500 
L 594 4494 
L 1172 4494 
z
" transform="scale(0.015625)"/>
       <path id="DejaVuSans-70" d="M 1159 525 
L 1159 -1331 
L 581 -1331 
L 581 3500 
L 1159 3500 
L 1159 2969 
Q 1341 3281 1617 3432 
Q 1894 3584 2278 3584 
Q 2916 3584 3314 3078 
Q 3713 2572 3713 1747 
Q 3713 922 3314 415 
Q 2916 -91 2278 -91 
Q 1894 -91 1617 61 
Q 1341 213 1159 525 
z
M 3116 1747 
Q 3116 2381 2855 2742 
Q 2594 3103 2138 3103 
Q 1681 3103 1420 2742 
Q 1159 2381 1159 1747 
Q 1159 1113 1420 752 
Q 1681 391 2138 391 
Q 2594 391 2855 752 
Q 3116 1113 3116 1747 
z
" transform="scale(0.015625)"/>
      </defs>
      <use xlink:href="#DejaVuSans-54"/>
      <use xlink:href="#DejaVuSans-69" x="57.958984"/>
      <use xlink:href="#DejaVuSans-6d" x="85.742188"/>
      <use xlink:href="#DejaVuSans-65" x="183.154297"/>
      <use xlink:href="#DejaVuSans-73" x="244.677734"/>
      <use xlink:href="#DejaVuSans-74" x="296.777344"/>
      <use xlink:href="#DejaVuSans-65" x="335.986328"/>
      <use xlink:href="#DejaVuSans-70" x="397.509766"/>
     </g>
    </g>
    <g id="text_8">
     <!-- 1e6 -->
     <g style="fill: #262626" transform="translate(870.264866 478.371282) scale(0.165 -0.165)">
      <use xlink:href="#DejaVuSans-31"/>
      <use xlink:href="#DejaVuSans-65" x="63.623047"/>
      <use xlink:href="#DejaVuSans-36" x="125.146484"/>
     </g>
    </g>
   </g>
   <g id="matplotlib.axis_2">
    <g id="ytick_1">
     <g id="line2d_7">
      <path d="M 79.5 420.487545 
L 901.413773 420.487545 
" clip-path="url(#pe2e8c0a9bc)" style="fill: none; stroke: #ffffff; stroke-width: 1.5; stroke-linecap: round"/>
     </g>
     <g id="text_9">
      <!-- 0.0 -->
      <g style="fill: #262626" transform="translate(40.759844 426.756256) scale(0.165 -0.165)">
       <use xlink:href="#DejaVuSans-30"/>
       <use xlink:href="#DejaVuSans-2e" x="63.623047"/>
       <use xlink:href="#DejaVuSans-30" x="95.410156"/>
      </g>
     </g>
    </g>
    <g id="ytick_2">
     <g id="line2d_8">
      <path d="M 79.5 341.574036 
L 901.413773 341.574036 
" clip-path="url(#pe2e8c0a9bc)" style="fill: none; stroke: #ffffff; stroke-width: 1.5; stroke-linecap: round"/>
     </g>
     <g id="text_10">
      <!-- 0.2 -->
      <g style="fill: #262626" transform="translate(40.759844 347.842747) scale(0.165 -0.165)">
       <use xlink:href="#DejaVuSans-30"/>
       <use xlink:href="#DejaVuSans-2e" x="63.623047"/>
       <use xlink:href="#DejaVuSans-32" x="95.410156"/>
      </g>
     </g>
    </g>
    <g id="ytick_3">
     <g id="line2d_9">
      <path d="M 79.5 262.660527 
L 901.413773 262.660527 
" clip-path="url(#pe2e8c0a9bc)" style="fill: none; stroke: #ffffff; stroke-width: 1.5; stroke-linecap: round"/>
     </g>
     <g id="text_11">
      <!-- 0.4 -->
      <g style="fill: #262626" transform="translate(40.759844 268.929238) scale(0.165 -0.165)">
       <use xlink:href="#DejaVuSans-30"/>
       <use xlink:href="#DejaVuSans-2e" x="63.623047"/>
       <use xlink:href="#DejaVuSans-34" x="95.410156"/>
      </g>
     </g>
    </g>
    <g id="ytick_4">
     <g id="line2d_10">
      <path d="M 79.5 183.747018 
L 901.413773 183.747018 
" clip-path="url(#pe2e8c0a9bc)" style="fill: none; stroke: #ffffff; stroke-width: 1.5; stroke-linecap: round"/>
     </g>
     <g id="text_12">
      <!-- 0.6 -->
      <g style="fill: #262626" transform="translate(40.759844 190.015729) scale(0.165 -0.165)">
       <use xlink:href="#DejaVuSans-30"/>
       <use xlink:href="#DejaVuSans-2e" x="63.623047"/>
       <use xlink:href="#DejaVuSans-36" x="95.410156"/>
      </g>
     </g>
    </g>
    <g id="ytick_5">
     <g id="line2d_11">
      <path d="M 79.5 104.833509 
L 901.413773 104.833509 
" clip-path="url(#pe2e8c0a9bc)" style="fill: none; stroke: #ffffff; stroke-width: 1.5; stroke-linecap: round"/>
     </g>
     <g id="text_13">
      <!-- 0.8 -->
      <g style="fill: #262626" transform="translate(40.759844 111.10222) scale(0.165 -0.165)">
       <use xlink:href="#DejaVuSans-30"/>
       <use xlink:href="#DejaVuSans-2e" x="63.623047"/>
       <use xlink:href="#DejaVuSans-38" x="95.410156"/>
      </g>
     </g>
    </g>
    <g id="ytick_6">
     <g id="line2d_12">
      <path d="M 79.5 25.92 
L 901.413773 25.92 
" clip-path="url(#pe2e8c0a9bc)" style="fill: none; stroke: #ffffff; stroke-width: 1.5; stroke-linecap: round"/>
     </g>
     <g id="text_14">
      <!-- 1.0 -->
      <g style="fill: #262626" transform="translate(40.759844 32.188711) scale(0.165 -0.165)">
       <use xlink:href="#DejaVuSans-31"/>
       <use xlink:href="#DejaVuSans-2e" x="63.623047"/>
       <use xlink:href="#DejaVuSans-30" x="95.410156"/>
      </g>
     </g>
    </g>
    <g id="text_15">
     <!-- Score -->
     <g style="fill: #262626" transform="translate(33.016406 248.407991) rotate(-90) scale(0.18 -0.18)">
      <defs>
       <path id="DejaVuSans-53" d="M 3425 4513 
L 3425 3897 
Q 3066 4069 2747 4153 
Q 2428 4238 2131 4238 
Q 1616 4238 1336 4038 
Q 1056 3838 1056 3469 
Q 1056 3159 1242 3001 
Q 1428 2844 1947 2747 
L 2328 2669 
Q 3034 2534 3370 2195 
Q 3706 1856 3706 1288 
Q 3706 609 3251 259 
Q 2797 -91 1919 -91 
Q 1588 -91 1214 -16 
Q 841 59 441 206 
L 441 856 
Q 825 641 1194 531 
Q 1563 422 1919 422 
Q 2459 422 2753 634 
Q 3047 847 3047 1241 
Q 3047 1584 2836 1778 
Q 2625 1972 2144 2069 
L 1759 2144 
Q 1053 2284 737 2584 
Q 422 2884 422 3419 
Q 422 4038 858 4394 
Q 1294 4750 2059 4750 
Q 2388 4750 2728 4690 
Q 3069 4631 3425 4513 
z
" transform="scale(0.015625)"/>
       <path id="DejaVuSans-63" d="M 3122 3366 
L 3122 2828 
Q 2878 2963 2633 3030 
Q 2388 3097 2138 3097 
Q 1578 3097 1268 2742 
Q 959 2388 959 1747 
Q 959 1106 1268 751 
Q 1578 397 2138 397 
Q 2388 397 2633 464 
Q 2878 531 3122 666 
L 3122 134 
Q 2881 22 2623 -34 
Q 2366 -91 2075 -91 
Q 1284 -91 818 406 
Q 353 903 353 1747 
Q 353 2603 823 3093 
Q 1294 3584 2113 3584 
Q 2378 3584 2631 3529 
Q 2884 3475 3122 3366 
z
" transform="scale(0.015625)"/>
       <path id="DejaVuSans-6f" d="M 1959 3097 
Q 1497 3097 1228 2736 
Q 959 2375 959 1747 
Q 959 1119 1226 758 
Q 1494 397 1959 397 
Q 2419 397 2687 759 
Q 2956 1122 2956 1747 
Q 2956 2369 2687 2733 
Q 2419 3097 1959 3097 
z
M 1959 3584 
Q 2709 3584 3137 3096 
Q 3566 2609 3566 1747 
Q 3566 888 3137 398 
Q 2709 -91 1959 -91 
Q 1206 -91 779 398 
Q 353 888 353 1747 
Q 353 2609 779 3096 
Q 1206 3584 1959 3584 
z
" transform="scale(0.015625)"/>
       <path id="DejaVuSans-72" d="M 2631 2963 
Q 2534 3019 2420 3045 
Q 2306 3072 2169 3072 
Q 1681 3072 1420 2755 
Q 1159 2438 1159 1844 
L 1159 0 
L 581 0 
L 581 3500 
L 1159 3500 
L 1159 2956 
Q 1341 3275 1631 3429 
Q 1922 3584 2338 3584 
Q 2397 3584 2469 3576 
Q 2541 3569 2628 3553 
L 2631 2963 
z
" transform="scale(0.015625)"/>
      </defs>
      <use xlink:href="#DejaVuSans-53"/>
      <use xlink:href="#DejaVuSans-63" x="63.476562"/>
      <use xlink:href="#DejaVuSans-6f" x="118.457031"/>
      <use xlink:href="#DejaVuSans-72" x="179.638672"/>
      <use xlink:href="#DejaVuSans-65" x="218.501953"/>
     </g>
    </g>
   </g>
   <g id="PolyCollection_1">
    <defs>
     <path id="m42017b0481" d="M 87.719138 -83.512455 
L 87.719138 -83.512455 
L 95.938275 -83.512455 
L 104.157413 -83.512455 
L 112.376551 -83.512455 
L 120.595689 -83.512455 
L 128.814826 -83.512455 
L 137.033964 -83.512455 
L 145.253102 -83.512455 
L 153.47224 -83.512455 
L 161.691377 -83.512455 
L 169.910515 -83.512455 
L 178.129653 -83.512455 
L 186.34879 -83.512455 
L 194.567928 -83.512455 
L 202.787066 -83.512455 
L 211.006204 -83.512455 
L 219.225341 -83.512455 
L 227.444479 -83.512455 
L 235.663617 -91.093083 
L 243.882755 -98.540538 
L 252.101892 -91.22625 
L 260.32103 -129.784132 
L 268.540168 -145.045279 
L 276.759305 -160.173228 
L 284.978443 -137.342579 
L 293.197581 -198.720015 
L 301.416719 -168.275435 
L 309.635856 -206.464345 
L 317.854994 -191.457882 
L 326.074132 -183.359003 
L 334.29327 -198.886483 
L 342.512407 -175.745096 
L 350.731545 -198.64176 
L 358.950683 -214.280796 
L 367.16982 -183.303519 
L 375.388958 -183.503273 
L 383.608096 -214.50274 
L 391.827234 -214.358463 
L 400.046371 -321.438288 
L 408.265509 -229.829618 
L 416.484647 -359.78865 
L 424.703785 -312.735099 
L 432.922922 -337.357524 
L 441.14206 -360.110467 
L 449.361198 -382.796894 
L 457.580335 -337.368604 
L 465.799473 -375.538074 
L 474.018611 -391.620426 
L 482.237749 -352.907171 
L 490.456886 -382.974465 
L 498.676024 -338.012262 
L 506.895162 -360.543292 
L 515.1143 -337.379707 
L 523.333437 -353.018155 
L 531.552575 -314.11403 
L 539.771713 -345.060225 
L 547.99085 -361.586442 
L 556.209988 -330.031301 
L 564.429126 -337.424127 
L 572.648264 -361.464394 
L 580.867401 -306.890707 
L 589.086539 -437.004272 
L 597.305677 -345.325679 
L 605.524815 -329.898951 
L 613.743952 -368.379167 
L 621.96309 -353.450956 
L 630.182228 -337.690445 
L 638.401365 -345.381217 
L 646.620503 -337.612754 
L 654.839641 -298.966063 
L 663.058779 -352.982079 
L 671.277916 -392.108711 
L 679.497054 -345.6817 
L 687.716192 -414.839535 
L 695.93533 -375.882121 
L 704.154467 -360.076364 
L 712.373605 -406.448779 
L 720.592743 -360.609895 
L 728.81188 -391.709188 
L 737.031018 -367.735516 
L 745.250156 -398.679468 
L 753.469294 -361.719616 
L 761.688431 -330.353927 
L 769.907569 -421.45468 
L 778.126707 -399.078143 
L 786.345845 -283.27217 
L 794.564982 -376.237216 
L 802.78412 -376.12624 
L 811.003258 -422.386823 
L 819.222395 -376.137335 
L 827.441533 -352.485497 
L 835.660671 -375.859907 
L 843.879809 -422.652878 
L 852.098946 -445.428352 
L 860.318084 -422.475608 
L 868.537222 -422.120466 
L 876.75636 -399.245436 
L 884.975497 -422.819354 
L 893.194635 -445.162019 
L 901.413773 -399.112293 
L 901.413773 -468.691826 
L 901.413773 -468.691826 
L 893.194635 -468.691826 
L 884.975497 -468.691826 
L 876.75636 -468.68073 
L 868.537222 -468.691826 
L 860.318084 -468.691826 
L 852.098946 -468.691826 
L 843.879809 -468.691826 
L 835.660671 -468.691826 
L 827.441533 -468.691826 
L 819.222395 -468.702921 
L 811.003258 -468.702921 
L 802.78412 -468.691826 
L 794.564982 -468.702921 
L 786.345845 -468.691826 
L 778.126707 -468.691826 
L 769.907569 -468.68073 
L 761.688431 -468.492048 
L 753.469294 -468.492048 
L 745.250156 -468.458739 
L 737.031018 -468.492048 
L 728.81188 -468.492048 
L 720.592743 -468.492048 
L 712.373605 -468.492048 
L 704.154467 -468.492048 
L 695.93533 -468.458739 
L 687.716192 -468.492881 
L 679.497054 -468.492048 
L 671.277916 -468.458739 
L 663.058779 -468.492048 
L 654.839641 -468.492048 
L 646.620503 -468.38108 
L 638.401365 -468.492048 
L 630.182228 -468.458739 
L 621.96309 -468.492048 
L 613.743952 -468.492048 
L 605.524815 -468.492048 
L 597.305677 -468.492048 
L 589.086539 -468.459571 
L 580.867401 -468.492048 
L 572.648264 -468.525357 
L 564.429126 -468.525357 
L 556.209988 -468.492048 
L 547.99085 -468.492048 
L 539.771713 -468.492048 
L 531.552575 -468.492048 
L 523.333437 -468.492048 
L 515.1143 -468.492048 
L 506.895162 -468.492048 
L 498.676024 -468.492048 
L 490.456886 -468.492881 
L 482.237749 -468.458739 
L 474.018611 -468.492048 
L 465.799473 -468.492048 
L 457.580335 -460.955784 
L 449.361198 -460.645903 
L 441.14206 -453.208727 
L 432.922922 -460.966927 
L 424.703785 -452.787021 
L 416.484647 -453.275282 
L 408.265509 -461.044578 
L 400.046371 -453.352989 
L 391.827234 -437.892112 
L 383.608096 -422.320267 
L 375.388958 -384.139654 
L 367.16982 -391.287506 
L 358.950683 -398.546333 
L 350.731545 -383.795647 
L 342.512407 -345.082399 
L 334.29327 -405.560979 
L 326.074132 -359.932935 
L 317.854994 -353.584099 
L 309.635856 -414.495487 
L 301.416719 -329.632634 
L 293.197581 -413.707528 
L 284.978443 -298.955007 
L 276.759305 -329.177603 
L 268.540168 -344.460963 
L 260.32103 -214.458343 
L 252.101892 -291.696179 
L 243.882755 -222.172123 
L 235.663617 -160.328616 
L 227.444479 -152.637019 
L 219.225341 -83.512455 
L 211.006204 -83.512455 
L 202.787066 -83.512455 
L 194.567928 -83.512455 
L 186.34879 -83.512455 
L 178.129653 -83.512455 
L 169.910515 -83.512455 
L 161.691377 -83.512455 
L 153.47224 -83.512455 
L 145.253102 -83.512455 
L 137.033964 -83.512455 
L 128.814826 -83.512455 
L 120.595689 -83.512455 
L 112.376551 -83.512455 
L 104.157413 -83.512455 
L 95.938275 -83.512455 
L 87.719138 -83.512455 
z
" style="stroke: #4c72b0; stroke-opacity: 0.2; stroke-width: 1.5"/>
    </defs>
    <g clip-path="url(#pe2e8c0a9bc)">
     <use xlink:href="#m42017b0481" x="0" y="504" style="fill: #4c72b0; fill-opacity: 0.2; stroke: #4c72b0; stroke-opacity: 0.2; stroke-width: 1.5"/>
    </g>
   </g>
   <g id="PolyCollection_2">
    <defs>
     <path id="maf490cb6ec" d="M 87.719138 -83.512455 
L 87.719138 -83.512455 
L 95.938275 -83.512455 
L 104.157413 -83.512455 
L 112.376551 -83.512455 
L 120.595689 -83.512455 
L 128.814826 -83.512455 
L 137.033964 -83.512455 
L 145.253102 -83.512455 
L 153.47224 -83.512455 
L 161.691377 -83.512455 
L 169.910515 -83.512455 
L 178.129653 -83.512455 
L 186.34879 -83.512455 
L 194.567928 -83.512455 
L 202.787066 -83.512455 
L 211.006204 -83.512455 
L 219.225341 -90.926623 
L 227.444479 -83.512455 
L 235.663617 -98.940053 
L 243.882755 -106.764817 
L 252.101892 -136.876484 
L 260.32103 -145.08966 
L 268.540168 -129.573283 
L 276.759305 -144.50151 
L 284.978443 -159.37308 
L 293.197581 -168.086793 
L 301.416719 -152.537138 
L 309.635856 -175.667414 
L 317.854994 -160.16214 
L 326.074132 -175.775338 
L 334.29327 -160.60048 
L 342.512407 -168.364213 
L 350.731545 -175.922652 
L 358.950683 -167.820444 
L 367.16982 -206.023215 
L 375.388958 -160.47287 
L 383.608096 -152.535425 
L 391.827234 -168.12007 
L 400.046371 -206.944302 
L 408.265509 -175.767295 
L 416.484647 -275.7692 
L 424.703785 -299.010475 
L 432.922922 -229.442054 
L 441.14206 -275.687325 
L 449.361198 -222.083338 
L 457.580335 -260.197379 
L 465.799473 -260.175165 
L 474.018611 -306.491208 
L 482.237749 -314.715502 
L 490.456886 -244.987516 
L 498.676024 -322.728901 
L 506.895162 -259.673239 
L 515.1143 -291.341092 
L 523.333437 -283.738273 
L 531.552575 -252.421972 
L 539.771713 -298.189262 
L 547.99085 -306.746461 
L 556.209988 -329.310761 
L 564.429126 -322.251766 
L 572.648264 -360.620959 
L 580.867401 -345.315462 
L 589.086539 -346.12889 
L 597.305677 -329.654785 
L 605.524815 -314.482463 
L 613.743952 -305.758811 
L 621.96309 -360.288078 
L 630.182228 -306.413533 
L 638.401365 -375.515899 
L 646.620503 -299.077078 
L 654.839641 -376.015288 
L 663.058779 -375.904272 
L 671.277916 -360.70976 
L 679.497054 -307.179231 
L 687.716192 -368.811968 
L 695.93533 -353.462028 
L 704.154467 -353.00706 
L 712.373605 -352.829457 
L 720.592743 -374.773405 
L 728.81188 -376.203946 
L 737.031018 -437.315033 
L 745.250156 -399.323095 
L 753.469294 -398.890357 
L 761.688431 -398.390976 
L 769.907569 -398.679445 
L 778.126707 -421.553967 
L 786.345845 -398.201692 
L 794.564982 -467.626462 
L 794.564982 -468.114747 
L 794.564982 -468.114747 
L 786.345845 -467.98158 
L 778.126707 -467.937207 
L 769.907569 -467.959952 
L 761.688431 -467.98158 
L 753.469294 -467.959398 
L 745.250156 -467.959952 
L 737.031018 -467.915532 
L 728.81188 -467.914977 
L 720.592743 -467.914977 
L 712.373605 -467.914977 
L 704.154467 -467.914977 
L 695.93533 -467.914977 
L 687.716192 -467.914977 
L 679.497054 -467.892795 
L 671.277916 -467.914977 
L 663.058779 -467.93716 
L 654.839641 -467.914977 
L 646.620503 -467.914977 
L 638.401365 -467.892795 
L 630.182228 -467.914977 
L 621.96309 -467.914977 
L 613.743952 -452.764815 
L 605.524815 -452.820291 
L 597.305677 -452.676037 
L 589.086539 -452.409704 
L 580.867401 -452.775902 
L 572.648264 -445.322122 
L 564.429126 -437.705411 
L 556.209988 -422.009513 
L 547.99085 -429.757181 
L 539.771713 -437.525929 
L 531.552575 -406.30451 
L 523.333437 -360.258914 
L 515.1143 -383.662504 
L 506.895162 -384.19517 
L 498.676024 -391.309728 
L 490.456886 -399.112254 
L 482.237749 -391.33191 
L 474.018611 -391.1543 
L 465.799473 -368.989523 
L 457.580335 -352.529854 
L 449.361198 -375.98197 
L 441.14206 -344.616297 
L 432.922922 -343.928281 
L 424.703785 -368.701007 
L 416.484647 -360.088316 
L 408.265509 -360.765268 
L 400.046371 -360.842958 
L 391.827234 -337.294251 
L 383.608096 -291.329965 
L 375.388958 -337.226015 
L 367.16982 -368.012929 
L 358.950683 -368.00185 
L 350.731545 -406.648494 
L 342.512407 -329.865681 
L 334.29327 -298.932793 
L 326.074132 -329.854554 
L 317.854994 -359.944062 
L 309.635856 -343.961583 
L 301.416719 -329.123014 
L 293.197581 -330.109808 
L 284.978443 -298.400158 
L 276.759305 -344.266782 
L 268.540168 -266.523985 
L 260.32103 -282.051465 
L 252.101892 -259.032134 
L 243.882755 -206.788937 
L 235.663617 -190.828672 
L 227.444479 -114.378748 
L 219.225341 -137.431349 
L 211.006204 -106.787008 
L 202.787066 -114.278875 
L 194.567928 -83.512455 
L 186.34879 -83.512455 
L 178.129653 -83.512455 
L 169.910515 -129.129395 
L 161.691377 -83.512455 
L 153.47224 -83.512455 
L 145.253102 -83.512455 
L 137.033964 -83.512455 
L 128.814826 -83.512455 
L 120.595689 -83.512455 
L 112.376551 -83.512455 
L 104.157413 -83.512455 
L 95.938275 -83.512455 
L 87.719138 -83.512455 
z
" style="stroke: #dd8452; stroke-opacity: 0.2; stroke-width: 1.5"/>
    </defs>
    <g clip-path="url(#pe2e8c0a9bc)">
     <use xlink:href="#maf490cb6ec" x="0" y="504" style="fill: #dd8452; fill-opacity: 0.2; stroke: #dd8452; stroke-opacity: 0.2; stroke-width: 1.5"/>
    </g>
   </g>
   <g id="PolyCollection_3">
    <defs>
     <path id="mb8ce6c223c" d="M 87.719138 -83.512455 
L 87.719138 -83.512455 
L 95.938275 -83.512455 
L 104.157413 -83.512455 
L 112.376551 -83.512455 
L 120.595689 -83.512455 
L 128.814826 -83.512455 
L 137.033964 -83.512455 
L 145.253102 -83.512455 
L 153.47224 -83.512455 
L 161.691377 -83.512455 
L 169.910515 -83.512455 
L 178.129653 -83.512455 
L 186.34879 -83.512455 
L 194.567928 -83.512455 
L 202.787066 -83.512455 
L 211.006204 -83.512455 
L 219.225341 -83.512455 
L 227.444479 -83.512455 
L 235.663617 -83.512455 
L 243.882755 -83.512455 
L 252.101892 -83.512455 
L 260.32103 -83.512455 
L 268.540168 -83.512455 
L 276.759305 -83.512455 
L 284.978443 -83.512455 
L 293.197581 -83.512455 
L 301.416719 -106.431897 
L 309.635856 -106.330637 
L 317.854994 -129.273649 
L 326.074132 -145.00089 
L 334.29327 -160.084442 
L 342.512407 -144.767835 
L 350.731545 -121.948258 
L 358.950683 -152.559313 
L 367.16982 -190.861973 
L 375.388958 -160.517235 
L 383.608096 -160.41737 
L 391.827234 -175.722906 
L 400.046371 -198.374261 
L 408.265509 -206.078684 
L 416.484647 -206.256247 
L 424.703785 -214.192002 
L 432.922922 -206.034303 
L 441.14206 -229.220094 
L 449.361198 -198.953078 
L 457.580335 -214.336296 
L 465.799473 -236.2946 
L 474.018611 -183.53659 
L 482.237749 -237.029046 
L 490.456886 -283.460789 
L 498.676024 -191.183782 
L 506.895162 -282.872631 
L 515.1143 -298.777396 
L 523.333437 -283.005798 
L 531.552575 -373.984456 
L 539.771713 -405.616447 
L 547.99085 -298.52219 
L 556.209988 -352.496584 
L 564.429126 -375.470385 
L 572.648264 -352.918274 
L 580.867401 -421.587815 
L 589.086539 -421.587815 
L 597.305677 -421.288181 
L 605.524815 -375.760018 
L 613.743952 -399.212142 
L 621.96309 -399.378571 
L 630.182228 -352.485512 
L 638.401365 -421.809791 
L 646.620503 -421.77649 
L 654.839641 -444.528354 
L 663.058779 -398.113477 
L 671.277916 -467.07155 
L 671.277916 -468.636318 
L 671.277916 -468.636318 
L 663.058779 -468.381096 
L 654.839641 -468.381096 
L 646.620503 -468.381096 
L 638.401365 -468.192429 
L 630.182228 -468.381096 
L 621.96309 -468.381096 
L 613.743952 -468.292334 
L 605.524815 -468.381096 
L 597.305677 -468.381096 
L 589.086539 -468.381096 
L 580.867401 -468.336715 
L 572.648264 -468.381096 
L 564.429126 -468.336715 
L 556.209988 -468.336715 
L 547.99085 -467.493279 
L 539.771713 -467.681946 
L 531.552575 -467.681946 
L 523.333437 -467.681946 
L 515.1143 -467.638667 
L 506.895162 -467.870612 
L 498.676024 -467.638667 
L 490.456886 -467.681946 
L 482.237749 -467.681946 
L 474.018611 -467.681946 
L 465.799473 -467.681946 
L 457.580335 -467.681946 
L 449.361198 -467.681946 
L 441.14206 -467.681946 
L 432.922922 -436.504907 
L 424.703785 -436.416121 
L 416.484647 -422.042791 
L 408.265509 -421.554522 
L 400.046371 -420.877578 
L 391.827234 -397.847144 
L 383.608096 -390.133333 
L 375.388958 -382.508323 
L 367.16982 -421.421332 
L 358.950683 -413.230346 
L 350.731545 -374.683559 
L 342.512407 -390.233229 
L 334.29327 -398.402008 
L 326.074132 -367.047446 
L 317.854994 -397.824938 
L 309.635856 -382.40845 
L 301.416719 -367.879739 
L 293.197581 -359.289246 
L 284.978443 -313.228417 
L 276.759305 -359.489007 
L 268.540168 -359.378031 
L 260.32103 -297.356977 
L 252.101892 -159.884712 
L 243.882755 -298.59988 
L 235.663617 -274.759344 
L 227.444479 -213.226551 
L 219.225341 -228.343388 
L 211.006204 -159.984585 
L 202.787066 -83.512455 
L 194.567928 -106.254341 
L 186.34879 -83.512455 
L 178.129653 -83.512455 
L 169.910515 -83.512455 
L 161.691377 -83.512455 
L 153.47224 -83.512455 
L 145.253102 -83.512455 
L 137.033964 -83.512455 
L 128.814826 -83.512455 
L 120.595689 -83.512455 
L 112.376551 -83.512455 
L 104.157413 -83.512455 
L 95.938275 -83.512455 
L 87.719138 -83.512455 
z
" style="stroke: #55a868; stroke-opacity: 0.2; stroke-width: 1.5"/>
    </defs>
    <g clip-path="url(#pe2e8c0a9bc)">
     <use xlink:href="#mb8ce6c223c" x="0" y="504" style="fill: #55a868; fill-opacity: 0.2; stroke: #55a868; stroke-opacity: 0.2; stroke-width: 1.5"/>
    </g>
   </g>
   <g id="PolyCollection_4">
    <defs>
     <path id="mc565b50ae6" d="M 87.719138 -83.512455 
L 87.719138 -83.512455 
L 95.938275 -83.512455 
L 104.157413 -83.512455 
L 112.376551 -83.512455 
L 120.595689 -83.512455 
L 128.814826 -83.512455 
L 137.033964 -83.512455 
L 145.253102 -83.512455 
L 153.47224 -83.512455 
L 161.691377 -83.512455 
L 169.910515 -83.512455 
L 178.129653 -83.512455 
L 186.34879 -83.512455 
L 194.567928 -83.512455 
L 202.787066 -83.512455 
L 211.006204 -83.512455 
L 219.225341 -83.512455 
L 227.444479 -83.512455 
L 235.663617 -91.159671 
L 243.882755 -83.512455 
L 252.101892 -98.984442 
L 260.32103 -91.137472 
L 268.540168 -114.556295 
L 276.759305 -129.351347 
L 284.978443 -129.273649 
L 293.197581 -129.122151 
L 301.416719 -137.131722 
L 309.635856 -160.139934 
L 317.854994 -144.973975 
L 326.074132 -152.781265 
L 334.29327 -175.440753 
L 342.512407 -198.964149 
L 350.731545 -160.206529 
L 358.950683 -183.3479 
L 367.16982 -191.305854 
L 375.388958 -191.060039 
L 383.608096 -175.278986 
L 391.827234 -191.094997 
L 400.046371 -175.517008 
L 408.265509 -198.808792 
L 416.484647 -206.467104 
L 424.703785 -199.04184 
L 432.922922 -199.11953 
L 441.14206 -222.094169 
L 449.361198 -206.522588 
L 457.580335 -190.995148 
L 465.799473 -214.302971 
L 474.018611 -214.447248 
L 482.237749 -175.856064 
L 490.456886 -198.953062 
L 498.676024 -198.930864 
L 506.895162 -206.589175 
L 515.1143 -306.025105 
L 523.333437 -237.544238 
L 531.552575 -291.551918 
L 539.771713 -413.751949 
L 547.99085 -314.160622 
L 556.209988 -360.654236 
L 564.429126 -375.659899 
L 572.648264 -321.519323 
L 580.867401 -391.143228 
L 589.086539 -329.625389 
L 597.305677 -398.668373 
L 605.524815 -329.177642 
L 613.743952 -445.794558 
L 621.96309 -467.238073 
L 621.96309 -468.636318 
L 621.96309 -468.636318 
L 613.743952 -468.636318 
L 605.524815 -468.636318 
L 597.305677 -468.636318 
L 589.086539 -468.636318 
L 580.867401 -468.636318 
L 572.648264 -468.636318 
L 564.429126 -468.636318 
L 556.209988 -468.625492 
L 547.99085 -468.625215 
L 539.771713 -468.636318 
L 531.552575 -460.744959 
L 523.333437 -437.903191 
L 515.1143 -453.142132 
L 506.895162 -437.703445 
L 498.676024 -445.705772 
L 490.456886 -430.389483 
L 482.237749 -437.848008 
L 474.018611 -460.800435 
L 465.799473 -452.955122 
L 457.580335 -445.361765 
L 449.361198 -445.428336 
L 441.14206 -460.689475 
L 432.922922 -437.727277 
L 424.703785 -437.760579 
L 416.484647 -422.065005 
L 408.265509 -429.845388 
L 400.046371 -399.51238 
L 391.827234 -414.484384 
L 383.608096 -406.581914 
L 375.388958 -399.346202 
L 367.16982 -406.992549 
L 358.950683 -414.584257 
L 350.731545 -414.162559 
L 342.512407 -422.16487 
L 334.29327 -399.12338 
L 326.074132 -367.735501 
L 317.854994 -322.140743 
L 309.635856 -345.082391 
L 301.416719 -367.657858 
L 293.197581 -306.346922 
L 284.978443 -352.807314 
L 276.759305 -328.04573 
L 268.540168 -252.694393 
L 260.32103 -260.086949 
L 252.101892 -228.898277 
L 243.882755 -129.495609 
L 235.663617 -206.300675 
L 227.444479 -129.96168 
L 219.225341 -129.295847 
L 211.006204 -83.512455 
L 202.787066 -83.512455 
L 194.567928 -106.58727 
L 186.34879 -83.512455 
L 178.129653 -83.512455 
L 169.910515 -83.512455 
L 161.691377 -106.753722 
L 153.47224 -83.512455 
L 145.253102 -83.512455 
L 137.033964 -83.512455 
L 128.814826 -83.512455 
L 120.595689 -83.512455 
L 112.376551 -83.512455 
L 104.157413 -83.512455 
L 95.938275 -83.512455 
L 87.719138 -83.512455 
z
" style="stroke: #c44e52; stroke-opacity: 0.2; stroke-width: 1.5"/>
    </defs>
    <g clip-path="url(#pe2e8c0a9bc)">
     <use xlink:href="#mc565b50ae6" x="0" y="504" style="fill: #c44e52; fill-opacity: 0.2; stroke: #c44e52; stroke-opacity: 0.2; stroke-width: 1.5"/>
    </g>
   </g>
   <g id="line2d_13">
    <path d="M 87.719138 420.487545 
L 95.938275 420.487545 
L 104.157413 420.487545 
L 112.376551 420.487545 
L 120.595689 420.487545 
L 128.814826 420.487545 
L 137.033964 420.487545 
L 145.253102 420.487545 
L 153.47224 420.487545 
L 161.691377 420.487545 
L 169.910515 420.487545 
L 178.129653 420.487545 
L 186.34879 420.487545 
L 194.567928 420.487545 
L 202.787066 420.487545 
L 211.006204 420.487545 
L 219.225341 420.487545 
L 227.444479 397.446024 
L 235.663617 382.195988 
L 243.882755 344.026526 
L 252.101892 312.583178 
L 260.32103 328.388078 
L 268.540168 251.77167 
L 276.759305 259.230252 
L 284.978443 289.796887 
L 293.197581 182.491796 
L 301.416719 243.514113 
L 309.635856 174.511636 
L 317.854994 204.590025 
L 326.074132 213.469034 
L 334.29327 182.980066 
L 342.512407 228.15311 
L 350.731545 197.419991 
L 358.950683 182.114456 
L 367.16982 197.54207 
L 375.388958 212.714431 
L 383.608096 181.803741 
L 391.827234 158.67345 
L 400.046371 112.501645 
L 408.265509 143.023915 
L 416.484647 97.451379 
L 424.703785 128.617267 
L 432.922922 104.854429 
L 441.14206 97.473562 
L 449.361198 82.345582 
L 457.580335 104.821151 
L 465.799473 81.946098 
L 474.018611 66.340943 
L 482.237749 89.371362 
L 490.456886 74.26558 
L 498.676024 89.326965 
L 506.895162 81.835122 
L 515.1143 89.670981 
L 523.333437 89.48233 
L 531.552575 112.690296 
L 539.771713 97.085149 
L 547.99085 81.291345 
L 556.209988 97.162832 
L 564.429126 89.548901 
L 572.648264 81.424511 
L 580.867401 104.921016 
L 589.086539 51.157511 
L 597.305677 97.107356 
L 605.524815 104.787858 
L 613.743952 74.121318 
L 621.96309 89.304775 
L 630.182228 89.371362 
L 638.401365 81.857312 
L 646.620503 89.493433 
L 654.839641 112.56824 
L 663.058779 89.504528 
L 671.277916 66.318753 
L 679.497054 81.602059 
L 687.716192 58.527251 
L 695.93533 81.812915 
L 704.154467 82.057074 
L 712.373605 66.529586 
L 720.592743 81.879503 
L 728.81188 73.899382 
L 737.031018 74.376564 
L 745.250156 66.540697 
L 753.469294 81.191479 
L 761.688431 97.040784 
L 769.907569 51.168575 
L 778.126707 58.660434 
L 786.345845 97.229411 
L 794.564982 66.241063 
L 802.78412 66.274356 
L 811.003258 50.85786 
L 819.222395 66.274356 
L 827.441533 74.154604 
L 835.660671 66.363134 
L 843.879809 50.769083 
L 852.098946 43.177351 
L 860.318084 50.824567 
L 868.537222 50.946646 
L 876.75636 58.571656 
L 884.975497 50.713591 
L 893.194635 43.266128 
L 901.413773 58.616037 
" clip-path="url(#pe2e8c0a9bc)" style="fill: none; stroke: #4c72b0; stroke-width: 2.25; stroke-linecap: round"/>
   </g>
   <g id="line2d_14">
    <path d="M 87.719138 420.487545 
L 95.938275 420.487545 
L 104.157413 420.487545 
L 112.376551 420.487545 
L 120.595689 420.487545 
L 128.814826 420.487545 
L 137.033964 420.487545 
L 145.253102 420.487545 
L 153.47224 420.487545 
L 161.691377 420.487545 
L 169.910515 405.281899 
L 178.129653 420.487545 
L 186.34879 420.487545 
L 194.567928 420.487545 
L 202.787066 405.104335 
L 211.006204 412.729361 
L 219.225341 389.987474 
L 227.444479 405.09324 
L 235.663617 359.165578 
L 243.882755 351.174346 
L 252.101892 305.945818 
L 260.32103 290.262973 
L 268.540168 305.66839 
L 276.759305 259.507649 
L 284.978443 275.024033 
L 293.197581 235.966786 
L 301.416719 259.2968 
L 309.635856 228.707966 
L 317.854994 243.946899 
L 326.074132 235.889096 
L 334.29327 258.86403 
L 342.512407 243.258876 
L 350.731545 205.111604 
L 358.950683 228.408355 
L 367.16982 212.891979 
L 375.388958 251.294496 
L 383.608096 274.26943 
L 391.827234 243.625097 
L 400.046371 204.778652 
L 408.265509 220.428195 
L 416.484647 182.181051 
L 424.703785 166.520396 
L 432.922922 220.905401 
L 441.14206 189.972552 
L 449.361198 204.823072 
L 457.580335 205.189279 
L 465.799473 189.417656 
L 474.018611 151.459059 
L 482.237749 143.467795 
L 490.456886 181.859241 
L 498.676024 150.848686 
L 506.895162 181.659472 
L 515.1143 166.63138 
L 523.333437 182.003487 
L 531.552575 174.755779 
L 539.771713 136.142404 
L 547.99085 135.787301 
L 556.209988 135.898301 
L 564.429126 127.673991 
L 572.648264 97.384792 
L 580.867401 104.909921 
L 589.086539 105.09858 
L 597.305677 112.834589 
L 605.524815 112.69032 
L 613.743952 120.692639 
L 621.96309 82.267907 
L 630.182228 105.398214 
L 638.401365 74.443143 
L 646.620503 97.484649 
L 654.839641 81.990471 
L 663.058779 81.957201 
L 671.277916 82.001566 
L 679.497054 105.054207 
L 687.716192 74.210104 
L 695.93533 89.493433 
L 704.154467 81.912796 
L 712.373605 89.748679 
L 720.592743 82.345605 
L 728.81188 81.846209 
L 737.031018 51.346146 
L 745.250156 59.01556 
L 753.469294 59.159806 
L 761.688431 59.326266 
L 769.907569 59.237504 
L 778.126707 51.612479 
L 786.345845 59.403965 
L 794.564982 36.129396 
" clip-path="url(#pe2e8c0a9bc)" style="fill: none; stroke: #dd8452; stroke-width: 2.25; stroke-linecap: round"/>
   </g>
   <g id="line2d_15">
    <path d="M 87.719138 420.487545 
L 95.938275 420.487545 
L 104.157413 420.487545 
L 112.376551 420.487545 
L 120.595689 420.487545 
L 128.814826 420.487545 
L 137.033964 420.487545 
L 145.253102 420.487545 
L 153.47224 420.487545 
L 161.691377 420.487545 
L 169.910515 420.487545 
L 178.129653 420.487545 
L 186.34879 420.487545 
L 194.567928 412.906917 
L 202.787066 420.487545 
L 211.006204 389.920887 
L 219.225341 367.201206 
L 227.444479 366.979246 
L 235.663617 336.523572 
L 243.882755 328.443562 
L 252.101892 389.931982 
L 260.32103 320.985005 
L 268.540168 297.765944 
L 276.759305 297.654968 
L 284.978443 336.246151 
L 293.197581 297.854729 
L 301.416719 266.844182 
L 309.635856 267.110507 
L 317.854994 251.804996 
L 326.074132 259.330117 
L 334.29327 220.949806 
L 342.512407 236.499468 
L 350.731545 259.563172 
L 358.950683 221.105171 
L 367.16982 175.166397 
L 375.388958 236.133262 
L 383.608096 220.883226 
L 391.827234 205.733048 
L 400.046371 182.436304 
L 408.265509 174.888977 
L 416.484647 174.267517 
L 424.703785 151.680995 
L 432.922922 174.922263 
L 441.14206 121.21421 
L 449.361198 151.669892 
L 457.580335 136.286674 
L 465.799473 128.439728 
L 474.018611 167.08638 
L 482.237749 144.044882 
L 490.456886 113.145303 
L 498.676024 159.250521 
L 506.895162 105.165167 
L 515.1143 120.770329 
L 523.333437 112.956653 
L 531.552575 83.200097 
L 539.771713 67.26203 
L 547.99085 98.039537 
L 556.209988 74.620699 
L 564.429126 66.962395 
L 572.648264 74.465342 
L 580.867401 51.590288 
L 589.086539 51.590288 
L 597.305677 51.690169 
L 605.524815 66.851427 
L 613.743952 59.048846 
L 621.96309 58.99337 
L 630.182228 74.609596 
L 638.401365 51.501503 
L 646.620503 51.590288 
L 654.839641 43.943072 
L 663.058779 59.415068 
L 671.277916 36.051729 
" clip-path="url(#pe2e8c0a9bc)" style="fill: none; stroke: #55a868; stroke-width: 2.25; stroke-linecap: round"/>
   </g>
   <g id="line2d_16">
    <path d="M 87.719138 420.487545 
L 95.938275 420.487545 
L 104.157413 420.487545 
L 112.376551 420.487545 
L 120.595689 420.487545 
L 128.814826 420.487545 
L 137.033964 420.487545 
L 145.253102 420.487545 
L 153.47224 420.487545 
L 161.691377 412.740456 
L 169.910515 420.487545 
L 178.129653 420.487545 
L 186.34879 420.487545 
L 194.567928 412.79594 
L 202.787066 420.487545 
L 211.006204 420.487545 
L 219.225341 405.226415 
L 227.444479 405.00447 
L 235.663617 366.812778 
L 243.882755 405.159827 
L 252.101892 343.771273 
L 260.32103 336.246143 
L 268.540168 320.374656 
L 276.759305 275.301461 
L 284.978443 274.491375 
L 293.197581 290.018847 
L 301.416719 251.60521 
L 309.635856 243.913629 
L 317.854994 274.502486 
L 326.074132 243.958018 
L 334.29327 213.12501 
L 342.512407 181.837051 
L 350.731545 212.803193 
L 358.950683 189.772791 
L 367.16982 197.120356 
L 375.388958 189.817164 
L 383.608096 212.891987 
L 391.827234 197.475483 
L 400.046371 205.122691 
L 408.265509 174.212025 
L 416.484647 189.95033 
L 424.703785 166.331777 
L 432.922922 181.648392 
L 441.14206 135.765111 
L 449.361198 166.609206 
L 457.580335 159.028553 
L 465.799473 151.170512 
L 474.018611 143.312446 
L 482.237749 174.101041 
L 490.456886 181.781551 
L 498.676024 173.923494 
L 506.895162 174.322993 
L 515.1143 120.503996 
L 523.333437 166.276285 
L 531.552575 112.479455 
L 539.771713 59.137624 
L 547.99085 97.418078 
L 556.209988 81.613185 
L 564.429126 81.724138 
L 572.648264 104.865532 
L 580.867401 66.396435 
L 589.086539 82.079256 
L 597.305677 58.971164 
L 605.524815 82.134741 
L 613.743952 43.243938 
L 621.96309 36.040618 
" clip-path="url(#pe2e8c0a9bc)" style="fill: none; stroke: #c44e52; stroke-width: 2.25; stroke-linecap: round"/>
   </g>
   <g id="line2d_17"/>
   <g id="line2d_18"/>
   <g id="line2d_19"/>
   <g id="line2d_20"/>
   <g id="patch_3">
    <path d="M 79.5 420.487545 
L 79.5 25.92 
" style="fill: none; stroke: #ffffff; stroke-width: 1.875; stroke-linejoin: miter; stroke-linecap: square"/>
   </g>
   <g id="patch_4">
    <path d="M 901.413773 420.487545 
L 901.413773 25.92 
" style="fill: none; stroke: #ffffff; stroke-width: 1.875; stroke-linejoin: miter; stroke-linecap: square"/>
   </g>
   <g id="patch_5">
    <path d="M 79.5 420.487545 
L 901.413773 420.487545 
" style="fill: none; stroke: #ffffff; stroke-width: 1.875; stroke-linejoin: miter; stroke-linecap: square"/>
   </g>
   <g id="patch_6">
    <path d="M 79.5 25.92 
L 901.413773 25.92 
" style="fill: none; stroke: #ffffff; stroke-width: 1.875; stroke-linejoin: miter; stroke-linecap: square"/>
   </g>
   <g id="legend_1">
    <g id="patch_7">
     <path d="M 670.333851 412.237545 
L 889.863773 412.237545 
Q 893.163773 412.237545 893.163773 408.937545 
L 893.163773 288.041295 
Q 893.163773 284.741295 889.863773 284.741295 
L 670.333851 284.741295 
Q 667.033851 284.741295 667.033851 288.041295 
L 667.033851 408.937545 
Q 667.033851 412.237545 670.333851 412.237545 
z
" style="fill: #eaeaf2; opacity: 0.8; stroke: #cccccc; stroke-width: 1.5; stroke-linejoin: miter"/>
    </g>
    <g id="text_16">
     <!-- Approach -->
     <g style="fill: #262626" transform="translate(737.343187 305.018483) scale(0.18 -0.18)">
      <defs>
       <path id="DejaVuSans-41" d="M 2188 4044 
L 1331 1722 
L 3047 1722 
L 2188 4044 
z
M 1831 4666 
L 2547 4666 
L 4325 0 
L 3669 0 
L 3244 1197 
L 1141 1197 
L 716 0 
L 50 0 
L 1831 4666 
z
" transform="scale(0.015625)"/>
       <path id="DejaVuSans-61" d="M 2194 1759 
Q 1497 1759 1228 1600 
Q 959 1441 959 1056 
Q 959 750 1161 570 
Q 1363 391 1709 391 
Q 2188 391 2477 730 
Q 2766 1069 2766 1631 
L 2766 1759 
L 2194 1759 
z
M 3341 1997 
L 3341 0 
L 2766 0 
L 2766 531 
Q 2569 213 2275 61 
Q 1981 -91 1556 -91 
Q 1019 -91 701 211 
Q 384 513 384 1019 
Q 384 1609 779 1909 
Q 1175 2209 1959 2209 
L 2766 2209 
L 2766 2266 
Q 2766 2663 2505 2880 
Q 2244 3097 1772 3097 
Q 1472 3097 1187 3025 
Q 903 2953 641 2809 
L 641 3341 
Q 956 3463 1253 3523 
Q 1550 3584 1831 3584 
Q 2591 3584 2966 3190 
Q 3341 2797 3341 1997 
z
" transform="scale(0.015625)"/>
       <path id="DejaVuSans-68" d="M 3513 2113 
L 3513 0 
L 2938 0 
L 2938 2094 
Q 2938 2591 2744 2837 
Q 2550 3084 2163 3084 
Q 1697 3084 1428 2787 
Q 1159 2491 1159 1978 
L 1159 0 
L 581 0 
L 581 4863 
L 1159 4863 
L 1159 2956 
Q 1366 3272 1645 3428 
Q 1925 3584 2291 3584 
Q 2894 3584 3203 3211 
Q 3513 2838 3513 2113 
z
" transform="scale(0.015625)"/>
      </defs>
      <use xlink:href="#DejaVuSans-41"/>
      <use xlink:href="#DejaVuSans-70" x="68.408203"/>
      <use xlink:href="#DejaVuSans-70" x="131.884766"/>
      <use xlink:href="#DejaVuSans-72" x="195.361328"/>
      <use xlink:href="#DejaVuSans-6f" x="234.224609"/>
      <use xlink:href="#DejaVuSans-61" x="295.40625"/>
      <use xlink:href="#DejaVuSans-63" x="356.685547"/>
      <use xlink:href="#DejaVuSans-68" x="411.666016"/>
     </g>
    </g>
    <g id="line2d_21">
     <path d="M 673.633851 323.774342 
L 690.133851 323.774342 
L 706.633851 323.774342 
" style="fill: none; stroke: #4c72b0; stroke-width: 2.25; stroke-linecap: round"/>
    </g>
    <g id="text_17">
     <!-- Combined -->
     <g style="fill: #262626" transform="translate(719.833851 329.549342) scale(0.165 -0.165)">
      <defs>
       <path id="DejaVuSans-43" d="M 4122 4306 
L 4122 3641 
Q 3803 3938 3442 4084 
Q 3081 4231 2675 4231 
Q 1875 4231 1450 3742 
Q 1025 3253 1025 2328 
Q 1025 1406 1450 917 
Q 1875 428 2675 428 
Q 3081 428 3442 575 
Q 3803 722 4122 1019 
L 4122 359 
Q 3791 134 3420 21 
Q 3050 -91 2638 -91 
Q 1578 -91 968 557 
Q 359 1206 359 2328 
Q 359 3453 968 4101 
Q 1578 4750 2638 4750 
Q 3056 4750 3426 4639 
Q 3797 4528 4122 4306 
z
" transform="scale(0.015625)"/>
       <path id="DejaVuSans-62" d="M 3116 1747 
Q 3116 2381 2855 2742 
Q 2594 3103 2138 3103 
Q 1681 3103 1420 2742 
Q 1159 2381 1159 1747 
Q 1159 1113 1420 752 
Q 1681 391 2138 391 
Q 2594 391 2855 752 
Q 3116 1113 3116 1747 
z
M 1159 2969 
Q 1341 3281 1617 3432 
Q 1894 3584 2278 3584 
Q 2916 3584 3314 3078 
Q 3713 2572 3713 1747 
Q 3713 922 3314 415 
Q 2916 -91 2278 -91 
Q 1894 -91 1617 61 
Q 1341 213 1159 525 
L 1159 0 
L 581 0 
L 581 4863 
L 1159 4863 
L 1159 2969 
z
" transform="scale(0.015625)"/>
       <path id="DejaVuSans-6e" d="M 3513 2113 
L 3513 0 
L 2938 0 
L 2938 2094 
Q 2938 2591 2744 2837 
Q 2550 3084 2163 3084 
Q 1697 3084 1428 2787 
Q 1159 2491 1159 1978 
L 1159 0 
L 581 0 
L 581 3500 
L 1159 3500 
L 1159 2956 
Q 1366 3272 1645 3428 
Q 1925 3584 2291 3584 
Q 2894 3584 3203 3211 
Q 3513 2838 3513 2113 
z
" transform="scale(0.015625)"/>
       <path id="DejaVuSans-64" d="M 2906 2969 
L 2906 4863 
L 3481 4863 
L 3481 0 
L 2906 0 
L 2906 525 
Q 2725 213 2448 61 
Q 2172 -91 1784 -91 
Q 1150 -91 751 415 
Q 353 922 353 1747 
Q 353 2572 751 3078 
Q 1150 3584 1784 3584 
Q 2172 3584 2448 3432 
Q 2725 3281 2906 2969 
z
M 947 1747 
Q 947 1113 1208 752 
Q 1469 391 1925 391 
Q 2381 391 2643 752 
Q 2906 1113 2906 1747 
Q 2906 2381 2643 2742 
Q 2381 3103 1925 3103 
Q 1469 3103 1208 2742 
Q 947 2381 947 1747 
z
" transform="scale(0.015625)"/>
      </defs>
      <use xlink:href="#DejaVuSans-43"/>
      <use xlink:href="#DejaVuSans-6f" x="69.824219"/>
      <use xlink:href="#DejaVuSans-6d" x="131.005859"/>
      <use xlink:href="#DejaVuSans-62" x="228.417969"/>
      <use xlink:href="#DejaVuSans-69" x="291.894531"/>
      <use xlink:href="#DejaVuSans-6e" x="319.677734"/>
      <use xlink:href="#DejaVuSans-65" x="383.056641"/>
      <use xlink:href="#DejaVuSans-64" x="444.580078"/>
     </g>
    </g>
    <g id="line2d_22">
     <path d="M 673.633851 347.993249 
L 690.133851 347.993249 
L 706.633851 347.993249 
" style="fill: none; stroke: #dd8452; stroke-width: 2.25; stroke-linecap: round"/>
    </g>
    <g id="text_18">
     <!-- Proximal Curriculum -->
     <g style="fill: #262626" transform="translate(719.833851 353.768249) scale(0.165 -0.165)">
      <defs>
       <path id="DejaVuSans-50" d="M 1259 4147 
L 1259 2394 
L 2053 2394 
Q 2494 2394 2734 2622 
Q 2975 2850 2975 3272 
Q 2975 3691 2734 3919 
Q 2494 4147 2053 4147 
L 1259 4147 
z
M 628 4666 
L 2053 4666 
Q 2838 4666 3239 4311 
Q 3641 3956 3641 3272 
Q 3641 2581 3239 2228 
Q 2838 1875 2053 1875 
L 1259 1875 
L 1259 0 
L 628 0 
L 628 4666 
z
" transform="scale(0.015625)"/>
       <path id="DejaVuSans-78" d="M 3513 3500 
L 2247 1797 
L 3578 0 
L 2900 0 
L 1881 1375 
L 863 0 
L 184 0 
L 1544 1831 
L 300 3500 
L 978 3500 
L 1906 2253 
L 2834 3500 
L 3513 3500 
z
" transform="scale(0.015625)"/>
       <path id="DejaVuSans-6c" d="M 603 4863 
L 1178 4863 
L 1178 0 
L 603 0 
L 603 4863 
z
" transform="scale(0.015625)"/>
       <path id="DejaVuSans-20" transform="scale(0.015625)"/>
       <path id="DejaVuSans-75" d="M 544 1381 
L 544 3500 
L 1119 3500 
L 1119 1403 
Q 1119 906 1312 657 
Q 1506 409 1894 409 
Q 2359 409 2629 706 
Q 2900 1003 2900 1516 
L 2900 3500 
L 3475 3500 
L 3475 0 
L 2900 0 
L 2900 538 
Q 2691 219 2414 64 
Q 2138 -91 1772 -91 
Q 1169 -91 856 284 
Q 544 659 544 1381 
z
M 1991 3584 
L 1991 3584 
z
" transform="scale(0.015625)"/>
      </defs>
      <use xlink:href="#DejaVuSans-50"/>
      <use xlink:href="#DejaVuSans-72" x="58.552734"/>
      <use xlink:href="#DejaVuSans-6f" x="97.416016"/>
      <use xlink:href="#DejaVuSans-78" x="155.472656"/>
      <use xlink:href="#DejaVuSans-69" x="214.652344"/>
      <use xlink:href="#DejaVuSans-6d" x="242.435547"/>
      <use xlink:href="#DejaVuSans-61" x="339.847656"/>
      <use xlink:href="#DejaVuSans-6c" x="401.126953"/>
      <use xlink:href="#DejaVuSans-20" x="428.910156"/>
      <use xlink:href="#DejaVuSans-43" x="460.697266"/>
      <use xlink:href="#DejaVuSans-75" x="530.521484"/>
      <use xlink:href="#DejaVuSans-72" x="593.900391"/>
      <use xlink:href="#DejaVuSans-72" x="633.263672"/>
      <use xlink:href="#DejaVuSans-69" x="674.376953"/>
      <use xlink:href="#DejaVuSans-63" x="702.160156"/>
      <use xlink:href="#DejaVuSans-75" x="757.140625"/>
      <use xlink:href="#DejaVuSans-6c" x="820.519531"/>
      <use xlink:href="#DejaVuSans-75" x="848.302734"/>
      <use xlink:href="#DejaVuSans-6d" x="911.681641"/>
     </g>
    </g>
    <g id="line2d_23">
     <path d="M 673.633851 372.212155 
L 690.133851 372.212155 
L 706.633851 372.212155 
" style="fill: none; stroke: #55a868; stroke-width: 2.25; stroke-linecap: round"/>
    </g>
    <g id="text_19">
     <!-- State Novelty (RND) -->
     <g style="fill: #262626" transform="translate(719.833851 377.987155) scale(0.165 -0.165)">
      <defs>
       <path id="DejaVuSans-4e" d="M 628 4666 
L 1478 4666 
L 3547 763 
L 3547 4666 
L 4159 4666 
L 4159 0 
L 3309 0 
L 1241 3903 
L 1241 0 
L 628 0 
L 628 4666 
z
" transform="scale(0.015625)"/>
       <path id="DejaVuSans-76" d="M 191 3500 
L 800 3500 
L 1894 563 
L 2988 3500 
L 3597 3500 
L 2284 0 
L 1503 0 
L 191 3500 
z
" transform="scale(0.015625)"/>
       <path id="DejaVuSans-79" d="M 2059 -325 
Q 1816 -950 1584 -1140 
Q 1353 -1331 966 -1331 
L 506 -1331 
L 506 -850 
L 844 -850 
Q 1081 -850 1212 -737 
Q 1344 -625 1503 -206 
L 1606 56 
L 191 3500 
L 800 3500 
L 1894 763 
L 2988 3500 
L 3597 3500 
L 2059 -325 
z
" transform="scale(0.015625)"/>
       <path id="DejaVuSans-28" d="M 1984 4856 
Q 1566 4138 1362 3434 
Q 1159 2731 1159 2009 
Q 1159 1288 1364 580 
Q 1569 -128 1984 -844 
L 1484 -844 
Q 1016 -109 783 600 
Q 550 1309 550 2009 
Q 550 2706 781 3412 
Q 1013 4119 1484 4856 
L 1984 4856 
z
" transform="scale(0.015625)"/>
       <path id="DejaVuSans-52" d="M 2841 2188 
Q 3044 2119 3236 1894 
Q 3428 1669 3622 1275 
L 4263 0 
L 3584 0 
L 2988 1197 
Q 2756 1666 2539 1819 
Q 2322 1972 1947 1972 
L 1259 1972 
L 1259 0 
L 628 0 
L 628 4666 
L 2053 4666 
Q 2853 4666 3247 4331 
Q 3641 3997 3641 3322 
Q 3641 2881 3436 2590 
Q 3231 2300 2841 2188 
z
M 1259 4147 
L 1259 2491 
L 2053 2491 
Q 2509 2491 2742 2702 
Q 2975 2913 2975 3322 
Q 2975 3731 2742 3939 
Q 2509 4147 2053 4147 
L 1259 4147 
z
" transform="scale(0.015625)"/>
       <path id="DejaVuSans-44" d="M 1259 4147 
L 1259 519 
L 2022 519 
Q 2988 519 3436 956 
Q 3884 1394 3884 2338 
Q 3884 3275 3436 3711 
Q 2988 4147 2022 4147 
L 1259 4147 
z
M 628 4666 
L 1925 4666 
Q 3281 4666 3915 4102 
Q 4550 3538 4550 2338 
Q 4550 1131 3912 565 
Q 3275 0 1925 0 
L 628 0 
L 628 4666 
z
" transform="scale(0.015625)"/>
       <path id="DejaVuSans-29" d="M 513 4856 
L 1013 4856 
Q 1481 4119 1714 3412 
Q 1947 2706 1947 2009 
Q 1947 1309 1714 600 
Q 1481 -109 1013 -844 
L 513 -844 
Q 928 -128 1133 580 
Q 1338 1288 1338 2009 
Q 1338 2731 1133 3434 
Q 928 4138 513 4856 
z
" transform="scale(0.015625)"/>
      </defs>
      <use xlink:href="#DejaVuSans-53"/>
      <use xlink:href="#DejaVuSans-74" x="63.476562"/>
      <use xlink:href="#DejaVuSans-61" x="102.685547"/>
      <use xlink:href="#DejaVuSans-74" x="163.964844"/>
      <use xlink:href="#DejaVuSans-65" x="203.173828"/>
      <use xlink:href="#DejaVuSans-20" x="264.697266"/>
      <use xlink:href="#DejaVuSans-4e" x="296.484375"/>
      <use xlink:href="#DejaVuSans-6f" x="371.289062"/>
      <use xlink:href="#DejaVuSans-76" x="432.470703"/>
      <use xlink:href="#DejaVuSans-65" x="491.650391"/>
      <use xlink:href="#DejaVuSans-6c" x="553.173828"/>
      <use xlink:href="#DejaVuSans-74" x="580.957031"/>
      <use xlink:href="#DejaVuSans-79" x="620.166016"/>
      <use xlink:href="#DejaVuSans-20" x="679.345703"/>
      <use xlink:href="#DejaVuSans-28" x="711.132812"/>
      <use xlink:href="#DejaVuSans-52" x="750.146484"/>
      <use xlink:href="#DejaVuSans-4e" x="819.628906"/>
      <use xlink:href="#DejaVuSans-44" x="894.433594"/>
      <use xlink:href="#DejaVuSans-29" x="971.435547"/>
     </g>
    </g>
    <g id="line2d_24">
     <path d="M 673.633851 396.431061 
L 690.133851 396.431061 
L 706.633851 396.431061 
" style="fill: none; stroke: #c44e52; stroke-width: 2.25; stroke-linecap: round"/>
    </g>
    <g id="text_20">
     <!-- Vanilla -->
     <g style="fill: #262626" transform="translate(719.833851 402.206061) scale(0.165 -0.165)">
      <defs>
       <path id="DejaVuSans-56" d="M 1831 0 
L 50 4666 
L 709 4666 
L 2188 738 
L 3669 4666 
L 4325 4666 
L 2547 0 
L 1831 0 
z
" transform="scale(0.015625)"/>
      </defs>
      <use xlink:href="#DejaVuSans-56"/>
      <use xlink:href="#DejaVuSans-61" x="60.658203"/>
      <use xlink:href="#DejaVuSans-6e" x="121.9375"/>
      <use xlink:href="#DejaVuSans-69" x="185.316406"/>
      <use xlink:href="#DejaVuSans-6c" x="213.099609"/>
      <use xlink:href="#DejaVuSans-6c" x="240.882812"/>
      <use xlink:href="#DejaVuSans-61" x="268.666016"/>
     </g>
    </g>
   </g>
  </g>
 </g>
 <defs>
  <clipPath id="pe2e8c0a9bc">
   <rect x="79.5" y="25.92" width="821.913773" height="394.567545"/>
  </clipPath>
 </defs>
</svg>
