<?xml version="1.0" encoding="utf-8" standalone="no"?>
<!DOCTYPE svg PUBLIC "-//W3C//DTD SVG 1.1//EN"
  "http://www.w3.org/Graphics/SVG/1.1/DTD/svg11.dtd">
<svg xmlns:xlink="http://www.w3.org/1999/xlink" width="460.8pt" height="345.6pt" viewBox="0 0 460.8 345.6" xmlns="http://www.w3.org/2000/svg" version="1.1">
 <metadata>
  <rdf:RDF xmlns:dc="http://purl.org/dc/elements/1.1/" xmlns:cc="http://creativecommons.org/ns#" xmlns:rdf="http://www.w3.org/1999/02/22-rdf-syntax-ns#">
   <cc:Work>
    <dc:type rdf:resource="http://purl.org/dc/dcmitype/StillImage"/>
    <dc:date>1980-01-01T00:00:00+00:00</dc:date>
    <dc:format>image/svg+xml</dc:format>
    <dc:creator>
     <cc:Agent>
      <dc:title>Matplotlib v3.9.2, https://matplotlib.org/</dc:title>
     </cc:Agent>
    </dc:creator>
   </cc:Work>
  </rdf:RDF>
 </metadata>
 <defs>
  <style type="text/css">*{stroke-linejoin: round; stroke-linecap: butt}</style>
 </defs>
 <g id="figure_1">
  <g id="patch_1">
   <path d="M 0 345.6 
L 460.8 345.6 
L 460.8 0 
L 0 0 
z
" style="fill: #ffffff"/>
  </g>
  <g id="axes_1">
   <g id="patch_2">
    <path d="M 57.6 307.584 
L 414.72 307.584 
L 414.72 41.472 
L 57.6 41.472 
z
" style="fill: #eaeaf2"/>
   </g>
   <g id="matplotlib.axis_1">
    <g id="xtick_1">
     <g id="line2d_1">
      <path d="M 57.6 307.584 
L 57.6 41.472 
" clip-path="url(#pa1954d6ee8)" style="fill: none; stroke: #ffffff; stroke-width: 0.8; stroke-linecap: round"/>
     </g>
     <g id="text_1">
      <!-- 0 -->
      <g style="fill: #262626" transform="translate(54.8005 322.570625) scale(0.088 -0.088)">
       <defs>
        <path id="DejaVuSans-30" d="M 2034 4250 
Q 1547 4250 1301 3770 
Q 1056 3291 1056 2328 
Q 1056 1369 1301 889 
Q 1547 409 2034 409 
Q 2525 409 2770 889 
Q 3016 1369 3016 2328 
Q 3016 3291 2770 3770 
Q 2525 4250 2034 4250 
z
M 2034 4750 
Q 2819 4750 3233 4129 
Q 3647 3509 3647 2328 
Q 3647 1150 3233 529 
Q 2819 -91 2034 -91 
Q 1250 -91 836 529 
Q 422 1150 422 2328 
Q 422 3509 836 4129 
Q 1250 4750 2034 4750 
z
" transform="scale(0.015625)"/>
       </defs>
       <use xlink:href="#DejaVuSans-30"/>
      </g>
     </g>
    </g>
    <g id="xtick_2">
     <g id="line2d_2">
      <path d="M 110.117647 307.584 
L 110.117647 41.472 
" clip-path="url(#pa1954d6ee8)" style="fill: none; stroke: #ffffff; stroke-width: 0.8; stroke-linecap: round"/>
     </g>
     <g id="text_2">
      <!-- 100000 -->
      <g style="fill: #262626" transform="translate(93.320647 322.570625) scale(0.088 -0.088)">
       <defs>
        <path id="DejaVuSans-31" d="M 794 531 
L 1825 531 
L 1825 4091 
L 703 3866 
L 703 4441 
L 1819 4666 
L 2450 4666 
L 2450 531 
L 3481 531 
L 3481 0 
L 794 0 
L 794 531 
z
" transform="scale(0.015625)"/>
       </defs>
       <use xlink:href="#DejaVuSans-31"/>
       <use xlink:href="#DejaVuSans-30" x="63.623047"/>
       <use xlink:href="#DejaVuSans-30" x="127.246094"/>
       <use xlink:href="#DejaVuSans-30" x="190.869141"/>
       <use xlink:href="#DejaVuSans-30" x="254.492188"/>
       <use xlink:href="#DejaVuSans-30" x="318.115234"/>
      </g>
     </g>
    </g>
    <g id="xtick_3">
     <g id="line2d_3">
      <path d="M 162.635294 307.584 
L 162.635294 41.472 
" clip-path="url(#pa1954d6ee8)" style="fill: none; stroke: #ffffff; stroke-width: 0.8; stroke-linecap: round"/>
     </g>
     <g id="text_3">
      <!-- 200000 -->
      <g style="fill: #262626" transform="translate(145.838294 322.570625) scale(0.088 -0.088)">
       <defs>
        <path id="DejaVuSans-32" d="M 1228 531 
L 3431 531 
L 3431 0 
L 469 0 
L 469 531 
Q 828 903 1448 1529 
Q 2069 2156 2228 2338 
Q 2531 2678 2651 2914 
Q 2772 3150 2772 3378 
Q 2772 3750 2511 3984 
Q 2250 4219 1831 4219 
Q 1534 4219 1204 4116 
Q 875 4013 500 3803 
L 500 4441 
Q 881 4594 1212 4672 
Q 1544 4750 1819 4750 
Q 2544 4750 2975 4387 
Q 3406 4025 3406 3419 
Q 3406 3131 3298 2873 
Q 3191 2616 2906 2266 
Q 2828 2175 2409 1742 
Q 1991 1309 1228 531 
z
" transform="scale(0.015625)"/>
       </defs>
       <use xlink:href="#DejaVuSans-32"/>
       <use xlink:href="#DejaVuSans-30" x="63.623047"/>
       <use xlink:href="#DejaVuSans-30" x="127.246094"/>
       <use xlink:href="#DejaVuSans-30" x="190.869141"/>
       <use xlink:href="#DejaVuSans-30" x="254.492188"/>
       <use xlink:href="#DejaVuSans-30" x="318.115234"/>
      </g>
     </g>
    </g>
    <g id="xtick_4">
     <g id="line2d_4">
      <path d="M 215.152941 307.584 
L 215.152941 41.472 
" clip-path="url(#pa1954d6ee8)" style="fill: none; stroke: #ffffff; stroke-width: 0.8; stroke-linecap: round"/>
     </g>
     <g id="text_4">
      <!-- 300000 -->
      <g style="fill: #262626" transform="translate(198.355941 322.570625) scale(0.088 -0.088)">
       <defs>
        <path id="DejaVuSans-33" d="M 2597 2516 
Q 3050 2419 3304 2112 
Q 3559 1806 3559 1356 
Q 3559 666 3084 287 
Q 2609 -91 1734 -91 
Q 1441 -91 1130 -33 
Q 819 25 488 141 
L 488 750 
Q 750 597 1062 519 
Q 1375 441 1716 441 
Q 2309 441 2620 675 
Q 2931 909 2931 1356 
Q 2931 1769 2642 2001 
Q 2353 2234 1838 2234 
L 1294 2234 
L 1294 2753 
L 1863 2753 
Q 2328 2753 2575 2939 
Q 2822 3125 2822 3475 
Q 2822 3834 2567 4026 
Q 2313 4219 1838 4219 
Q 1578 4219 1281 4162 
Q 984 4106 628 3988 
L 628 4550 
Q 988 4650 1302 4700 
Q 1616 4750 1894 4750 
Q 2613 4750 3031 4423 
Q 3450 4097 3450 3541 
Q 3450 3153 3228 2886 
Q 3006 2619 2597 2516 
z
" transform="scale(0.015625)"/>
       </defs>
       <use xlink:href="#DejaVuSans-33"/>
       <use xlink:href="#DejaVuSans-30" x="63.623047"/>
       <use xlink:href="#DejaVuSans-30" x="127.246094"/>
       <use xlink:href="#DejaVuSans-30" x="190.869141"/>
       <use xlink:href="#DejaVuSans-30" x="254.492188"/>
       <use xlink:href="#DejaVuSans-30" x="318.115234"/>
      </g>
     </g>
    </g>
    <g id="xtick_5">
     <g id="line2d_5">
      <path d="M 267.670588 307.584 
L 267.670588 41.472 
" clip-path="url(#pa1954d6ee8)" style="fill: none; stroke: #ffffff; stroke-width: 0.8; stroke-linecap: round"/>
     </g>
     <g id="text_5">
      <!-- 400000 -->
      <g style="fill: #262626" transform="translate(250.873588 322.570625) scale(0.088 -0.088)">
       <defs>
        <path id="DejaVuSans-34" d="M 2419 4116 
L 825 1625 
L 2419 1625 
L 2419 4116 
z
M 2253 4666 
L 3047 4666 
L 3047 1625 
L 3713 1625 
L 3713 1100 
L 3047 1100 
L 3047 0 
L 2419 0 
L 2419 1100 
L 313 1100 
L 313 1709 
L 2253 4666 
z
" transform="scale(0.015625)"/>
       </defs>
       <use xlink:href="#DejaVuSans-34"/>
       <use xlink:href="#DejaVuSans-30" x="63.623047"/>
       <use xlink:href="#DejaVuSans-30" x="127.246094"/>
       <use xlink:href="#DejaVuSans-30" x="190.869141"/>
       <use xlink:href="#DejaVuSans-30" x="254.492188"/>
       <use xlink:href="#DejaVuSans-30" x="318.115234"/>
      </g>
     </g>
    </g>
    <g id="xtick_6">
     <g id="line2d_6">
      <path d="M 320.188235 307.584 
L 320.188235 41.472 
" clip-path="url(#pa1954d6ee8)" style="fill: none; stroke: #ffffff; stroke-width: 0.8; stroke-linecap: round"/>
     </g>
     <g id="text_6">
      <!-- 500000 -->
      <g style="fill: #262626" transform="translate(303.391235 322.570625) scale(0.088 -0.088)">
       <defs>
        <path id="DejaVuSans-35" d="M 691 4666 
L 3169 4666 
L 3169 4134 
L 1269 4134 
L 1269 2991 
Q 1406 3038 1543 3061 
Q 1681 3084 1819 3084 
Q 2600 3084 3056 2656 
Q 3513 2228 3513 1497 
Q 3513 744 3044 326 
Q 2575 -91 1722 -91 
Q 1428 -91 1123 -41 
Q 819 9 494 109 
L 494 744 
Q 775 591 1075 516 
Q 1375 441 1709 441 
Q 2250 441 2565 725 
Q 2881 1009 2881 1497 
Q 2881 1984 2565 2268 
Q 2250 2553 1709 2553 
Q 1456 2553 1204 2497 
Q 953 2441 691 2322 
L 691 4666 
z
" transform="scale(0.015625)"/>
       </defs>
       <use xlink:href="#DejaVuSans-35"/>
       <use xlink:href="#DejaVuSans-30" x="63.623047"/>
       <use xlink:href="#DejaVuSans-30" x="127.246094"/>
       <use xlink:href="#DejaVuSans-30" x="190.869141"/>
       <use xlink:href="#DejaVuSans-30" x="254.492188"/>
       <use xlink:href="#DejaVuSans-30" x="318.115234"/>
      </g>
     </g>
    </g>
    <g id="xtick_7">
     <g id="line2d_7">
      <path d="M 372.705882 307.584 
L 372.705882 41.472 
" clip-path="url(#pa1954d6ee8)" style="fill: none; stroke: #ffffff; stroke-width: 0.8; stroke-linecap: round"/>
     </g>
     <g id="text_7">
      <!-- 600000 -->
      <g style="fill: #262626" transform="translate(355.908882 322.570625) scale(0.088 -0.088)">
       <defs>
        <path id="DejaVuSans-36" d="M 2113 2584 
Q 1688 2584 1439 2293 
Q 1191 2003 1191 1497 
Q 1191 994 1439 701 
Q 1688 409 2113 409 
Q 2538 409 2786 701 
Q 3034 994 3034 1497 
Q 3034 2003 2786 2293 
Q 2538 2584 2113 2584 
z
M 3366 4563 
L 3366 3988 
Q 3128 4100 2886 4159 
Q 2644 4219 2406 4219 
Q 1781 4219 1451 3797 
Q 1122 3375 1075 2522 
Q 1259 2794 1537 2939 
Q 1816 3084 2150 3084 
Q 2853 3084 3261 2657 
Q 3669 2231 3669 1497 
Q 3669 778 3244 343 
Q 2819 -91 2113 -91 
Q 1303 -91 875 529 
Q 447 1150 447 2328 
Q 447 3434 972 4092 
Q 1497 4750 2381 4750 
Q 2619 4750 2861 4703 
Q 3103 4656 3366 4563 
z
" transform="scale(0.015625)"/>
       </defs>
       <use xlink:href="#DejaVuSans-36"/>
       <use xlink:href="#DejaVuSans-30" x="63.623047"/>
       <use xlink:href="#DejaVuSans-30" x="127.246094"/>
       <use xlink:href="#DejaVuSans-30" x="190.869141"/>
       <use xlink:href="#DejaVuSans-30" x="254.492188"/>
       <use xlink:href="#DejaVuSans-30" x="318.115234"/>
      </g>
     </g>
    </g>
    <g id="text_8">
     <!-- Timestep -->
     <g style="fill: #262626" transform="translate(214.03275 335.69525) scale(0.096 -0.096)">
      <defs>
       <path id="DejaVuSans-54" d="M -19 4666 
L 3928 4666 
L 3928 4134 
L 2272 4134 
L 2272 0 
L 1638 0 
L 1638 4134 
L -19 4134 
L -19 4666 
z
" transform="scale(0.015625)"/>
       <path id="DejaVuSans-69" d="M 603 3500 
L 1178 3500 
L 1178 0 
L 603 0 
L 603 3500 
z
M 603 4863 
L 1178 4863 
L 1178 4134 
L 603 4134 
L 603 4863 
z
" transform="scale(0.015625)"/>
       <path id="DejaVuSans-6d" d="M 3328 2828 
Q 3544 3216 3844 3400 
Q 4144 3584 4550 3584 
Q 5097 3584 5394 3201 
Q 5691 2819 5691 2113 
L 5691 0 
L 5113 0 
L 5113 2094 
Q 5113 2597 4934 2840 
Q 4756 3084 4391 3084 
Q 3944 3084 3684 2787 
Q 3425 2491 3425 1978 
L 3425 0 
L 2847 0 
L 2847 2094 
Q 2847 2600 2669 2842 
Q 2491 3084 2119 3084 
Q 1678 3084 1418 2786 
Q 1159 2488 1159 1978 
L 1159 0 
L 581 0 
L 581 3500 
L 1159 3500 
L 1159 2956 
Q 1356 3278 1631 3431 
Q 1906 3584 2284 3584 
Q 2666 3584 2933 3390 
Q 3200 3197 3328 2828 
z
" transform="scale(0.015625)"/>
       <path id="DejaVuSans-65" d="M 3597 1894 
L 3597 1613 
L 953 1613 
Q 991 1019 1311 708 
Q 1631 397 2203 397 
Q 2534 397 2845 478 
Q 3156 559 3463 722 
L 3463 178 
Q 3153 47 2828 -22 
Q 2503 -91 2169 -91 
Q 1331 -91 842 396 
Q 353 884 353 1716 
Q 353 2575 817 3079 
Q 1281 3584 2069 3584 
Q 2775 3584 3186 3129 
Q 3597 2675 3597 1894 
z
M 3022 2063 
Q 3016 2534 2758 2815 
Q 2500 3097 2075 3097 
Q 1594 3097 1305 2825 
Q 1016 2553 972 2059 
L 3022 2063 
z
" transform="scale(0.015625)"/>
       <path id="DejaVuSans-73" d="M 2834 3397 
L 2834 2853 
Q 2591 2978 2328 3040 
Q 2066 3103 1784 3103 
Q 1356 3103 1142 2972 
Q 928 2841 928 2578 
Q 928 2378 1081 2264 
Q 1234 2150 1697 2047 
L 1894 2003 
Q 2506 1872 2764 1633 
Q 3022 1394 3022 966 
Q 3022 478 2636 193 
Q 2250 -91 1575 -91 
Q 1294 -91 989 -36 
Q 684 19 347 128 
L 347 722 
Q 666 556 975 473 
Q 1284 391 1588 391 
Q 1994 391 2212 530 
Q 2431 669 2431 922 
Q 2431 1156 2273 1281 
Q 2116 1406 1581 1522 
L 1381 1569 
Q 847 1681 609 1914 
Q 372 2147 372 2553 
Q 372 3047 722 3315 
Q 1072 3584 1716 3584 
Q 2034 3584 2315 3537 
Q 2597 3491 2834 3397 
z
" transform="scale(0.015625)"/>
       <path id="DejaVuSans-74" d="M 1172 4494 
L 1172 3500 
L 2356 3500 
L 2356 3053 
L 1172 3053 
L 1172 1153 
Q 1172 725 1289 603 
Q 1406 481 1766 481 
L 2356 481 
L 2356 0 
L 1766 0 
Q 1100 0 847 248 
Q 594 497 594 1153 
L 594 3053 
L 172 3053 
L 172 3500 
L 594 3500 
L 594 4494 
L 1172 4494 
z
" transform="scale(0.015625)"/>
       <path id="DejaVuSans-70" d="M 1159 525 
L 1159 -1331 
L 581 -1331 
L 581 3500 
L 1159 3500 
L 1159 2969 
Q 1341 3281 1617 3432 
Q 1894 3584 2278 3584 
Q 2916 3584 3314 3078 
Q 3713 2572 3713 1747 
Q 3713 922 3314 415 
Q 2916 -91 2278 -91 
Q 1894 -91 1617 61 
Q 1341 213 1159 525 
z
M 3116 1747 
Q 3116 2381 2855 2742 
Q 2594 3103 2138 3103 
Q 1681 3103 1420 2742 
Q 1159 2381 1159 1747 
Q 1159 1113 1420 752 
Q 1681 391 2138 391 
Q 2594 391 2855 752 
Q 3116 1113 3116 1747 
z
" transform="scale(0.015625)"/>
      </defs>
      <use xlink:href="#DejaVuSans-54"/>
      <use xlink:href="#DejaVuSans-69" x="57.958984"/>
      <use xlink:href="#DejaVuSans-6d" x="85.742188"/>
      <use xlink:href="#DejaVuSans-65" x="183.154297"/>
      <use xlink:href="#DejaVuSans-73" x="244.677734"/>
      <use xlink:href="#DejaVuSans-74" x="296.777344"/>
      <use xlink:href="#DejaVuSans-65" x="335.986328"/>
      <use xlink:href="#DejaVuSans-70" x="397.509766"/>
     </g>
    </g>
   </g>
   <g id="matplotlib.axis_2">
    <g id="ytick_1">
     <g id="line2d_8">
      <path d="M 57.6 307.584 
L 414.72 307.584 
" clip-path="url(#pa1954d6ee8)" style="fill: none; stroke: #ffffff; stroke-width: 0.8; stroke-linecap: round"/>
     </g>
     <g id="text_9">
      <!-- 0.0 -->
      <g style="fill: #262626" transform="translate(35.30525 310.927312) scale(0.088 -0.088)">
       <defs>
        <path id="DejaVuSans-2e" d="M 684 794 
L 1344 794 
L 1344 0 
L 684 0 
L 684 794 
z
" transform="scale(0.015625)"/>
       </defs>
       <use xlink:href="#DejaVuSans-30"/>
       <use xlink:href="#DejaVuSans-2e" x="63.623047"/>
       <use xlink:href="#DejaVuSans-30" x="95.410156"/>
      </g>
     </g>
    </g>
    <g id="ytick_2">
     <g id="line2d_9">
      <path d="M 57.6 254.3616 
L 414.72 254.3616 
" clip-path="url(#pa1954d6ee8)" style="fill: none; stroke: #ffffff; stroke-width: 0.8; stroke-linecap: round"/>
     </g>
     <g id="text_10">
      <!-- 0.2 -->
      <g style="fill: #262626" transform="translate(35.30525 257.704912) scale(0.088 -0.088)">
       <use xlink:href="#DejaVuSans-30"/>
       <use xlink:href="#DejaVuSans-2e" x="63.623047"/>
       <use xlink:href="#DejaVuSans-32" x="95.410156"/>
      </g>
     </g>
    </g>
    <g id="ytick_3">
     <g id="line2d_10">
      <path d="M 57.6 201.1392 
L 414.72 201.1392 
" clip-path="url(#pa1954d6ee8)" style="fill: none; stroke: #ffffff; stroke-width: 0.8; stroke-linecap: round"/>
     </g>
     <g id="text_11">
      <!-- 0.4 -->
      <g style="fill: #262626" transform="translate(35.30525 204.482512) scale(0.088 -0.088)">
       <use xlink:href="#DejaVuSans-30"/>
       <use xlink:href="#DejaVuSans-2e" x="63.623047"/>
       <use xlink:href="#DejaVuSans-34" x="95.410156"/>
      </g>
     </g>
    </g>
    <g id="ytick_4">
     <g id="line2d_11">
      <path d="M 57.6 147.9168 
L 414.72 147.9168 
" clip-path="url(#pa1954d6ee8)" style="fill: none; stroke: #ffffff; stroke-width: 0.8; stroke-linecap: round"/>
     </g>
     <g id="text_12">
      <!-- 0.6 -->
      <g style="fill: #262626" transform="translate(35.30525 151.260112) scale(0.088 -0.088)">
       <use xlink:href="#DejaVuSans-30"/>
       <use xlink:href="#DejaVuSans-2e" x="63.623047"/>
       <use xlink:href="#DejaVuSans-36" x="95.410156"/>
      </g>
     </g>
    </g>
    <g id="ytick_5">
     <g id="line2d_12">
      <path d="M 57.6 94.6944 
L 414.72 94.6944 
" clip-path="url(#pa1954d6ee8)" style="fill: none; stroke: #ffffff; stroke-width: 0.8; stroke-linecap: round"/>
     </g>
     <g id="text_13">
      <!-- 0.8 -->
      <g style="fill: #262626" transform="translate(35.30525 98.037712) scale(0.088 -0.088)">
       <defs>
        <path id="DejaVuSans-38" d="M 2034 2216 
Q 1584 2216 1326 1975 
Q 1069 1734 1069 1313 
Q 1069 891 1326 650 
Q 1584 409 2034 409 
Q 2484 409 2743 651 
Q 3003 894 3003 1313 
Q 3003 1734 2745 1975 
Q 2488 2216 2034 2216 
z
M 1403 2484 
Q 997 2584 770 2862 
Q 544 3141 544 3541 
Q 544 4100 942 4425 
Q 1341 4750 2034 4750 
Q 2731 4750 3128 4425 
Q 3525 4100 3525 3541 
Q 3525 3141 3298 2862 
Q 3072 2584 2669 2484 
Q 3125 2378 3379 2068 
Q 3634 1759 3634 1313 
Q 3634 634 3220 271 
Q 2806 -91 2034 -91 
Q 1263 -91 848 271 
Q 434 634 434 1313 
Q 434 1759 690 2068 
Q 947 2378 1403 2484 
z
M 1172 3481 
Q 1172 3119 1398 2916 
Q 1625 2713 2034 2713 
Q 2441 2713 2670 2916 
Q 2900 3119 2900 3481 
Q 2900 3844 2670 4047 
Q 2441 4250 2034 4250 
Q 1625 4250 1398 4047 
Q 1172 3844 1172 3481 
z
" transform="scale(0.015625)"/>
       </defs>
       <use xlink:href="#DejaVuSans-30"/>
       <use xlink:href="#DejaVuSans-2e" x="63.623047"/>
       <use xlink:href="#DejaVuSans-38" x="95.410156"/>
      </g>
     </g>
    </g>
    <g id="ytick_6">
     <g id="line2d_13">
      <path d="M 57.6 41.472 
L 414.72 41.472 
" clip-path="url(#pa1954d6ee8)" style="fill: none; stroke: #ffffff; stroke-width: 0.8; stroke-linecap: round"/>
     </g>
     <g id="text_14">
      <!-- 1.0 -->
      <g style="fill: #262626" transform="translate(35.30525 44.815313) scale(0.088 -0.088)">
       <use xlink:href="#DejaVuSans-31"/>
       <use xlink:href="#DejaVuSans-2e" x="63.623047"/>
       <use xlink:href="#DejaVuSans-30" x="95.410156"/>
      </g>
     </g>
    </g>
    <g id="text_15">
     <!-- Score -->
     <g style="fill: #262626" transform="translate(29.30875 187.97025) rotate(-90) scale(0.096 -0.096)">
      <defs>
       <path id="DejaVuSans-53" d="M 3425 4513 
L 3425 3897 
Q 3066 4069 2747 4153 
Q 2428 4238 2131 4238 
Q 1616 4238 1336 4038 
Q 1056 3838 1056 3469 
Q 1056 3159 1242 3001 
Q 1428 2844 1947 2747 
L 2328 2669 
Q 3034 2534 3370 2195 
Q 3706 1856 3706 1288 
Q 3706 609 3251 259 
Q 2797 -91 1919 -91 
Q 1588 -91 1214 -16 
Q 841 59 441 206 
L 441 856 
Q 825 641 1194 531 
Q 1563 422 1919 422 
Q 2459 422 2753 634 
Q 3047 847 3047 1241 
Q 3047 1584 2836 1778 
Q 2625 1972 2144 2069 
L 1759 2144 
Q 1053 2284 737 2584 
Q 422 2884 422 3419 
Q 422 4038 858 4394 
Q 1294 4750 2059 4750 
Q 2388 4750 2728 4690 
Q 3069 4631 3425 4513 
z
" transform="scale(0.015625)"/>
       <path id="DejaVuSans-63" d="M 3122 3366 
L 3122 2828 
Q 2878 2963 2633 3030 
Q 2388 3097 2138 3097 
Q 1578 3097 1268 2742 
Q 959 2388 959 1747 
Q 959 1106 1268 751 
Q 1578 397 2138 397 
Q 2388 397 2633 464 
Q 2878 531 3122 666 
L 3122 134 
Q 2881 22 2623 -34 
Q 2366 -91 2075 -91 
Q 1284 -91 818 406 
Q 353 903 353 1747 
Q 353 2603 823 3093 
Q 1294 3584 2113 3584 
Q 2378 3584 2631 3529 
Q 2884 3475 3122 3366 
z
" transform="scale(0.015625)"/>
       <path id="DejaVuSans-6f" d="M 1959 3097 
Q 1497 3097 1228 2736 
Q 959 2375 959 1747 
Q 959 1119 1226 758 
Q 1494 397 1959 397 
Q 2419 397 2687 759 
Q 2956 1122 2956 1747 
Q 2956 2369 2687 2733 
Q 2419 3097 1959 3097 
z
M 1959 3584 
Q 2709 3584 3137 3096 
Q 3566 2609 3566 1747 
Q 3566 888 3137 398 
Q 2709 -91 1959 -91 
Q 1206 -91 779 398 
Q 353 888 353 1747 
Q 353 2609 779 3096 
Q 1206 3584 1959 3584 
z
" transform="scale(0.015625)"/>
       <path id="DejaVuSans-72" d="M 2631 2963 
Q 2534 3019 2420 3045 
Q 2306 3072 2169 3072 
Q 1681 3072 1420 2755 
Q 1159 2438 1159 1844 
L 1159 0 
L 581 0 
L 581 3500 
L 1159 3500 
L 1159 2956 
Q 1341 3275 1631 3429 
Q 1922 3584 2338 3584 
Q 2397 3584 2469 3576 
Q 2541 3569 2628 3553 
L 2631 2963 
z
" transform="scale(0.015625)"/>
      </defs>
      <use xlink:href="#DejaVuSans-53"/>
      <use xlink:href="#DejaVuSans-63" x="63.476562"/>
      <use xlink:href="#DejaVuSans-6f" x="118.457031"/>
      <use xlink:href="#DejaVuSans-72" x="179.638672"/>
      <use xlink:href="#DejaVuSans-65" x="218.501953"/>
     </g>
    </g>
   </g>
   <g id="PolyCollection_1">
    <defs>
     <path id="m61aef91e37" d="M 62.851765 -38.016 
L 62.851765 -38.016 
L 68.103529 -38.016 
L 73.355294 -38.016 
L 78.607059 -38.016 
L 83.858824 -38.016 
L 89.110588 -38.016 
L 94.362353 -38.016 
L 99.614118 -38.016 
L 104.865882 -38.016 
L 110.117647 -38.016 
L 115.369412 -38.016 
L 120.621176 -38.016 
L 125.872941 -38.016 
L 131.124706 -38.016 
L 136.376471 -38.016 
L 141.628235 -38.016 
L 146.88 -38.016 
L 152.131765 -38.016 
L 157.383529 -38.016 
L 162.635294 -38.016 
L 167.887059 -38.016 
L 173.138824 -48.286263 
L 178.390588 -48.271291 
L 183.642353 -53.601014 
L 188.894118 -53.548627 
L 194.145882 -79.411382 
L 199.397647 -74.216386 
L 204.649412 -79.426359 
L 209.901176 -68.85672 
L 215.152941 -84.696201 
L 220.404706 -58.736146 
L 225.656471 -120.978923 
L 230.908235 -110.222165 
L 236.16 -110.116396 
L 241.411765 -131.121947 
L 246.663529 -105.206795 
L 251.915294 -120.604117 
L 257.167059 -120.88911 
L 262.418824 -151.804656 
L 267.670588 -146.684501 
L 272.922353 -172.47242 
L 278.174118 -183.176791 
L 283.425882 -208.418328 
L 288.677647 -214.017506 
L 293.929412 -188.079899 
L 299.181176 -203.485288 
L 304.432941 -219.69897 
L 309.684706 -192.728535 
L 314.936471 -260.817474 
L 320.188235 -255.637428 
L 325.44 -281.036158 
L 330.691765 -281.081072 
L 335.943529 -266.364216 
L 341.195294 -250.719332 
L 346.447059 -266.483993 
L 351.698824 -266.223534 
L 356.950588 -280.684363 
L 362.202353 -234.438275 
L 367.454118 -250.367553 
L 372.705882 -265.728033 
L 377.957647 -219.30232 
L 383.209412 -250.030799 
L 388.461176 -281.702263 
L 393.712941 -235.134329 
L 398.964706 -235.501058 
L 404.216471 -250.863038 
L 409.468235 -265.765475 
L 414.72 -296.351728 
L 414.72 -297.511806 
L 414.72 -297.511806 
L 409.468235 -297.511806 
L 404.216471 -297.497204 
L 398.964706 -297.49683 
L 393.712941 -297.497204 
L 388.461176 -297.511806 
L 383.209412 -297.49683 
L 377.957647 -297.511806 
L 372.705882 -297.511806 
L 367.454118 -297.49683 
L 362.202353 -297.511806 
L 356.950588 -297.511806 
L 351.698824 -297.511806 
L 346.447059 -297.49683 
L 341.195294 -297.526783 
L 335.943529 -297.511806 
L 330.691765 -297.511806 
L 325.44 -297.511806 
L 320.188235 -297.49683 
L 314.936471 -297.511806 
L 309.684706 -297.497204 
L 304.432941 -297.511806 
L 299.181176 -297.511806 
L 293.929412 -297.497204 
L 288.677647 -297.511806 
L 283.425882 -286.987622 
L 278.174118 -287.024487 
L 272.922353 -286.904731 
L 267.670588 -286.94964 
L 262.418824 -292.0698 
L 257.167059 -276.649451 
L 251.915294 -276.267745 
L 246.663529 -265.398725 
L 241.411765 -281.634878 
L 236.16 -250.442395 
L 230.908235 -265.757976 
L 225.656471 -265.955407 
L 220.404706 -234.816973 
L 215.152941 -240.172137 
L 209.901176 -219.519355 
L 204.649412 -245.022864 
L 199.397647 -224.370638 
L 194.145882 -171.911094 
L 188.894118 -167.195099 
L 183.642353 -141.519432 
L 178.390588 -161.985111 
L 173.138824 -166.64874 
L 167.887059 -131.309045 
L 162.635294 -130.785166 
L 157.383529 -84.434241 
L 152.131765 -89.891213 
L 146.88 -53.713282 
L 141.628235 -53.645918 
L 136.376471 -38.016 
L 131.124706 -53.511207 
L 125.872941 -38.016 
L 120.621176 -38.016 
L 115.369412 -38.016 
L 110.117647 -38.016 
L 104.865882 -38.016 
L 99.614118 -38.016 
L 94.362353 -38.016 
L 89.110588 -38.016 
L 83.858824 -38.016 
L 78.607059 -38.016 
L 73.355294 -38.016 
L 68.103529 -38.016 
L 62.851765 -38.016 
z
" style="stroke: #4c72b0; stroke-opacity: 0.2; stroke-width: 0.8"/>
    </defs>
    <g clip-path="url(#pa1954d6ee8)">
     <use xlink:href="#m61aef91e37" x="0" y="345.6" style="fill: #4c72b0; fill-opacity: 0.2; stroke: #4c72b0; stroke-opacity: 0.2; stroke-width: 0.8"/>
    </g>
   </g>
   <g id="PolyCollection_2">
    <defs>
     <path id="m077801dfa0" d="M 62.851765 -38.016 
L 62.851765 -38.016 
L 68.103529 -38.016 
L 73.355294 -38.016 
L 78.607059 -38.016 
L 83.858824 -38.016 
L 89.110588 -38.016 
L 94.362353 -38.016 
L 99.614118 -38.016 
L 104.865882 -38.016 
L 110.117647 -38.016 
L 115.369412 -38.016 
L 120.621176 -38.016 
L 125.872941 -38.016 
L 131.124706 -38.016 
L 136.376471 -38.016 
L 141.628235 -38.016 
L 146.88 -38.016 
L 152.131765 -38.016 
L 157.383529 -38.016 
L 162.635294 -38.016 
L 167.887059 -43.158614 
L 173.138824 -43.233461 
L 178.390588 -74.46337 
L 183.642353 -84.102303 
L 188.894118 -79.388933 
L 194.145882 -95.026345 
L 199.397647 -84.29953 
L 204.649412 -94.726963 
L 209.901176 -64.020965 
L 215.152941 -120.82398 
L 220.404706 -99.974346 
L 225.656471 -126.129026 
L 230.908235 -182.612092 
L 236.16 -203.732288 
L 241.411765 -162.030015 
L 246.663529 -188.334371 
L 251.915294 -183.266588 
L 257.167059 -188.446644 
L 262.418824 -193.162638 
L 267.670588 -193.506918 
L 272.922353 -188.566394 
L 278.174118 -167.59175 
L 283.425882 -203.552646 
L 288.677647 -208.942255 
L 293.929412 -203.268252 
L 299.181176 -162.441679 
L 304.432941 -224.578133 
L 309.684706 -178.086569 
L 314.936471 -178.153911 
L 320.188235 -178.086585 
L 325.44 -173.108608 
L 330.691765 -225.313135 
L 335.943529 -199.173443 
L 341.195294 -261.6705 
L 346.447059 -225.036224 
L 351.698824 -245.801263 
L 356.950588 -214.496491 
L 362.202353 -230.418734 
L 367.454118 -219.676569 
L 372.705882 -225.298169 
L 377.957647 -214.803372 
L 383.209412 -255.338047 
L 388.461176 -240.276938 
L 393.712941 -199.165971 
L 398.964706 -281.530157 
L 404.216471 -250.157996 
L 409.468235 -281.753917 
L 414.72 -296.732883 
L 414.72 -297.594355 
L 414.72 -297.594355 
L 409.468235 -297.601646 
L 404.216471 -297.594168 
L 398.964706 -297.601646 
L 393.712941 -297.347179 
L 388.461176 -297.347179 
L 383.209412 -297.347179 
L 377.957647 -297.354657 
L 372.705882 -297.347179 
L 367.454118 -297.347179 
L 362.202353 -297.347179 
L 356.950588 -297.347179 
L 351.698824 -297.070241 
L 346.447059 -297.347179 
L 341.195294 -297.339888 
L 335.943529 -271.095209 
L 330.691765 -270.773384 
L 325.44 -265.653218 
L 320.188235 -260.353422 
L 314.936471 -265.847821 
L 309.684706 -260.72765 
L 304.432941 -276.252784 
L 299.181176 -265.683156 
L 293.929412 -281.724712 
L 288.677647 -265.653229 
L 283.425882 -265.511008 
L 278.174118 -265.653218 
L 272.922353 -270.904546 
L 267.670588 -276.522228 
L 262.418824 -275.878572 
L 257.167059 -265.52599 
L 251.915294 -260.248643 
L 246.663529 -265.630764 
L 241.411765 -249.896051 
L 236.16 -265.855304 
L 230.908235 -260.196262 
L 225.656471 -234.838334 
L 220.404706 -245.479427 
L 215.152941 -234.400844 
L 209.901176 -219.504411 
L 204.649412 -187.855354 
L 199.397647 -208.927262 
L 194.145882 -203.365726 
L 188.894118 -187.945177 
L 183.642353 -177.405487 
L 178.390588 -214.069898 
L 173.138824 -121.198034 
L 167.887059 -182.959761 
L 162.635294 -99.996827 
L 157.383529 -84.771059 
L 152.131765 -146.81925 
L 146.88 -161.730649 
L 141.628235 -84.546519 
L 136.376471 -53.398929 
L 131.124706 -38.016 
L 125.872941 -38.016 
L 120.621176 -38.016 
L 115.369412 -38.016 
L 110.117647 -38.016 
L 104.865882 -38.016 
L 99.614118 -38.016 
L 94.362353 -38.016 
L 89.110588 -38.016 
L 83.858824 -38.016 
L 78.607059 -38.016 
L 73.355294 -38.016 
L 68.103529 -38.016 
L 62.851765 -38.016 
z
" style="stroke: #dd8452; stroke-opacity: 0.2; stroke-width: 0.8"/>
    </defs>
    <g clip-path="url(#pa1954d6ee8)">
     <use xlink:href="#m077801dfa0" x="0" y="345.6" style="fill: #dd8452; fill-opacity: 0.2; stroke: #dd8452; stroke-opacity: 0.2; stroke-width: 0.8"/>
    </g>
   </g>
   <g id="PolyCollection_3">
    <defs>
     <path id="mf54c86c033" d="M 62.851765 -38.016 
L 62.851765 -38.016 
L 68.103529 -38.016 
L 73.355294 -38.016 
L 78.607059 -38.016 
L 83.858824 -38.016 
L 89.110588 -38.016 
L 94.362353 -38.016 
L 99.614118 -38.016 
L 104.865882 -38.016 
L 110.117647 -38.016 
L 115.369412 -38.016 
L 120.621176 -38.016 
L 125.872941 -38.016 
L 131.124706 -38.016 
L 136.376471 -38.016 
L 141.628235 -38.016 
L 146.88 -38.016 
L 152.131765 -38.016 
L 157.383529 -38.016 
L 162.635294 -38.016 
L 167.887059 -38.016 
L 173.138824 -38.016 
L 178.390588 -38.016 
L 183.642353 -48.346138 
L 188.894118 -43.166097 
L 194.145882 -89.591832 
L 199.397647 -89.546544 
L 204.649412 -89.891213 
L 209.901176 -141.564336 
L 215.152941 -193.102768 
L 220.404706 -171.851229 
L 225.656471 -110.476637 
L 230.908235 -172.158078 
L 236.16 -208.979681 
L 241.411765 -173.12227 
L 246.663529 -214.501029 
L 251.915294 -183.476167 
L 257.167059 -157.276578 
L 262.418824 -136.324452 
L 267.670588 -173.161 
L 272.922353 -156.969741 
L 278.174118 -209.002125 
L 283.425882 -167.344766 
L 288.677647 -209.264107 
L 293.929412 -183.083225 
L 299.181176 -214.623778 
L 304.432941 -183.453702 
L 309.684706 -204.241216 
L 314.936471 -183.18893 
L 320.188235 -204.383416 
L 325.44 -245.7339 
L 330.691765 -225.313109 
L 335.943529 -234.984662 
L 341.195294 -219.56428 
L 346.447059 -281.500177 
L 351.698824 -296.830725 
L 351.698824 -297.354651 
L 351.698824 -297.354651 
L 346.447059 -297.354641 
L 341.195294 -297.295156 
L 335.943529 -297.294781 
L 330.691765 -297.294771 
L 325.44 -297.294771 
L 320.188235 -297.295145 
L 314.936471 -292.271917 
L 309.684706 -292.204554 
L 304.432941 -286.934706 
L 299.181176 -276.31268 
L 293.929412 -276.35009 
L 288.677647 -276.305197 
L 283.425882 -255.637401 
L 278.174118 -255.846981 
L 272.922353 -229.550139 
L 267.670588 -204.383421 
L 262.418824 -183.438741 
L 257.167059 -261.52101 
L 251.915294 -229.354425 
L 246.663529 -266.169646 
L 241.411765 -240.441613 
L 236.16 -251.170491 
L 230.908235 -204.271923 
L 225.656471 -235.11189 
L 220.404706 -204.10651 
L 215.152941 -213.680677 
L 209.901176 -234.634359 
L 204.649412 -203.629921 
L 199.397647 -198.806698 
L 194.145882 -172.577231 
L 188.894118 -115.439621 
L 183.642353 -100.116578 
L 178.390588 -105.581017 
L 173.138824 -146.190528 
L 167.887059 -84.546519 
L 162.635294 -68.894136 
L 157.383529 -53.35403 
L 152.131765 -38.016 
L 146.88 -38.016 
L 141.628235 -38.016 
L 136.376471 -38.016 
L 131.124706 -53.668383 
L 125.872941 -38.016 
L 120.621176 -38.016 
L 115.369412 -38.016 
L 110.117647 -38.016 
L 104.865882 -38.016 
L 99.614118 -38.016 
L 94.362353 -38.016 
L 89.110588 -38.016 
L 83.858824 -38.016 
L 78.607059 -38.016 
L 73.355294 -38.016 
L 68.103529 -38.016 
L 62.851765 -38.016 
z
" style="stroke: #55a868; stroke-opacity: 0.2; stroke-width: 0.8"/>
    </defs>
    <g clip-path="url(#pa1954d6ee8)">
     <use xlink:href="#mf54c86c033" x="0" y="345.6" style="fill: #55a868; fill-opacity: 0.2; stroke: #55a868; stroke-opacity: 0.2; stroke-width: 0.8"/>
    </g>
   </g>
   <g id="PolyCollection_4">
    <defs>
     <path id="mb33caf14dc" d="M 62.851765 -38.016 
L 62.851765 -38.016 
L 68.103529 -38.016 
L 73.355294 -38.016 
L 78.607059 -38.016 
L 83.858824 -38.016 
L 89.110588 -38.016 
L 94.362353 -38.016 
L 99.614118 -38.016 
L 104.865882 -38.016 
L 110.117647 -38.016 
L 115.369412 -38.016 
L 120.621176 -38.016 
L 125.872941 -38.016 
L 131.124706 -38.016 
L 136.376471 -38.016 
L 141.628235 -38.016 
L 146.88 -38.016 
L 152.131765 -38.016 
L 157.383529 -43.173586 
L 162.635294 -38.016 
L 167.887059 -53.563599 
L 173.138824 -43.158614 
L 178.390588 -63.98092 
L 183.642353 -73.954426 
L 188.894118 -68.879164 
L 194.145882 -68.901624 
L 199.397647 -74.17896 
L 204.649412 -89.68165 
L 209.901176 -79.344024 
L 215.152941 -84.531547 
L 220.404706 -99.892043 
L 225.656471 -121.106156 
L 230.908235 -89.741525 
L 236.16 -110.611364 
L 241.411765 -115.814216 
L 246.663529 -105.393903 
L 251.915294 -99.906988 
L 257.167059 -115.522313 
L 262.418824 -105.461267 
L 267.670588 -121.016338 
L 272.922353 -110.439216 
L 278.174118 -131.206091 
L 283.425882 -115.941082 
L 288.677647 -131.53359 
L 293.929412 -120.978912 
L 299.181176 -126.181418 
L 304.432941 -115.753973 
L 309.684706 -126.323617 
L 314.936471 -121.083696 
L 320.188235 -115.806371 
L 325.44 -115.85632 
L 330.691765 -121.023821 
L 335.943529 -188.296919 
L 341.195294 -136.608841 
L 346.447059 -178.326064 
L 351.698824 -260.742611 
L 356.950588 -193.574271 
L 362.202353 -224.931221 
L 367.454118 -235.05201 
L 372.705882 -198.544759 
L 377.957647 -245.494393 
L 383.209412 -203.814607 
L 388.461176 -250.56965 
L 393.712941 -203.664919 
L 398.964706 -282.353418 
L 404.216471 -296.814839 
L 404.216471 -297.758806 
L 404.216471 -297.758806 
L 398.964706 -297.788744 
L 393.712941 -297.758806 
L 388.461176 -297.758806 
L 383.209412 -297.766295 
L 377.957647 -297.766295 
L 372.705882 -297.751318 
L 367.454118 -297.751505 
L 362.202353 -297.758806 
L 356.950588 -297.758806 
L 351.698824 -297.758806 
L 346.447059 -292.436561 
L 341.195294 -277.031167 
L 335.943529 -287.308913 
L 330.691765 -276.89645 
L 325.44 -282.249745 
L 320.188235 -276.97878 
L 314.936471 -276.956326 
L 309.684706 -292.518891 
L 304.432941 -287.271492 
L 299.181176 -282.061525 
L 293.929412 -282.106423 
L 288.677647 -292.400263 
L 283.425882 -277.001229 
L 278.174118 -287.338845 
L 272.922353 -266.35676 
L 267.670588 -266.364421 
L 262.418824 -251.138881 
L 257.167059 -256.19877 
L 251.915294 -255.906856 
L 246.663529 -261.311447 
L 241.411765 -256.183804 
L 236.16 -261.303953 
L 230.908235 -261.019543 
L 225.656471 -271.641574 
L 220.404706 -255.809586 
L 215.152941 -229.415395 
L 209.901176 -199.083625 
L 204.649412 -214.429139 
L 199.397647 -229.654928 
L 194.145882 -183.120647 
L 188.894118 -219.639132 
L 183.642353 -202.938939 
L 178.390588 -152.119008 
L 173.138824 -161.790503 
L 167.887059 -136.069964 
L 162.635294 -69.028863 
L 157.383529 -120.829245 
L 152.131765 -69.3432 
L 146.88 -68.894136 
L 141.628235 -38.016 
L 136.376471 -38.016 
L 131.124706 -53.57857 
L 125.872941 -38.016 
L 120.621176 -38.016 
L 115.369412 -38.016 
L 110.117647 -53.690832 
L 104.865882 -38.016 
L 99.614118 -38.016 
L 94.362353 -38.016 
L 89.110588 -38.016 
L 83.858824 -38.016 
L 78.607059 -38.016 
L 73.355294 -38.016 
L 68.103529 -38.016 
L 62.851765 -38.016 
z
" style="stroke: #c44e52; stroke-opacity: 0.2; stroke-width: 0.8"/>
    </defs>
    <g clip-path="url(#pa1954d6ee8)">
     <use xlink:href="#mb33caf14dc" x="0" y="345.6" style="fill: #c44e52; fill-opacity: 0.2; stroke: #c44e52; stroke-opacity: 0.2; stroke-width: 0.8"/>
    </g>
   </g>
   <g id="line2d_14">
    <path d="M 62.851765 307.584 
L 68.103529 307.584 
L 73.355294 307.584 
L 78.607059 307.584 
L 83.858824 307.584 
L 89.110588 307.584 
L 94.362353 307.584 
L 99.614118 307.584 
L 104.865882 307.584 
L 110.117647 307.584 
L 115.369412 307.584 
L 120.621176 307.584 
L 125.872941 307.584 
L 131.124706 302.418931 
L 136.376471 307.584 
L 141.628235 302.374027 
L 146.88 302.351573 
L 152.131765 281.646393 
L 157.383529 292.111253 
L 162.635294 271.578205 
L 167.887059 266.136226 
L 173.138824 240.722519 
L 178.390588 245.640609 
L 183.642353 250.59611 
L 188.894118 235.228137 
L 194.145882 219.860179 
L 199.397647 199.110091 
L 204.649412 183.532559 
L 209.901176 204.073079 
L 215.152941 193.518418 
L 220.404706 198.825686 
L 225.656471 147.032792 
L 230.908235 152.519702 
L 236.16 162.662731 
L 241.411765 121.10269 
L 246.663529 147.317207 
L 251.915294 136.777501 
L 257.167059 131.447772 
L 262.418824 115.907688 
L 267.670588 115.87774 
L 272.922353 110.630347 
L 278.174118 110.510586 
L 283.425882 95.195015 
L 288.677647 89.835344 
L 293.929412 95.097714 
L 299.181176 90.134725 
L 304.432941 79.445347 
L 309.684706 100.457375 
L 314.936471 63.92767 
L 320.188235 69.017897 
L 325.44 53.859498 
L 330.691765 53.844526 
L 335.943529 58.829975 
L 341.195294 63.965106 
L 346.447059 58.710219 
L 351.698824 58.874873 
L 356.950588 53.97177 
L 362.202353 69.392125 
L 367.454118 64.077373 
L 372.705882 58.957214 
L 377.957647 74.437444 
L 383.209412 64.189625 
L 388.461176 53.717293 
L 393.712941 69.160107 
L 398.964706 69.137653 
L 404.216471 63.995038 
L 409.468235 58.949725 
L 414.72 48.559712 
" clip-path="url(#pa1954d6ee8)" style="fill: none; stroke: #4c72b0; stroke-width: 1.2; stroke-linecap: round"/>
   </g>
   <g id="line2d_15">
    <path d="M 62.851765 307.584 
L 68.103529 307.584 
L 73.355294 307.584 
L 78.607059 307.584 
L 83.858824 307.584 
L 89.110588 307.584 
L 94.362353 307.584 
L 99.614118 307.584 
L 104.865882 307.584 
L 110.117647 307.584 
L 115.369412 307.584 
L 120.621176 307.584 
L 125.872941 307.584 
L 131.124706 307.584 
L 136.376471 302.456357 
L 141.628235 292.073827 
L 146.88 266.345784 
L 152.131765 271.31625 
L 157.383529 291.99898 
L 162.635294 286.923724 
L 167.887059 240.303387 
L 173.138824 271.174056 
L 178.390588 209.118387 
L 183.642353 214.725037 
L 188.894118 209.380343 
L 194.145882 183.599912 
L 199.397647 193.735464 
L 204.649412 193.997414 
L 209.901176 214.171194 
L 215.152941 162.752533 
L 220.404706 172.873113 
L 225.656471 162.789954 
L 230.908235 131.799535 
L 236.16 110.765042 
L 241.411765 147.287275 
L 246.663529 120.952975 
L 251.915294 131.35797 
L 257.167059 121.080208 
L 262.418824 110.817445 
L 267.670588 110.585427 
L 272.922353 115.787906 
L 278.174118 131.410362 
L 283.425882 116.147173 
L 288.677647 110.77252 
L 293.929412 100.337619 
L 299.181176 131.455255 
L 304.432941 94.99293 
L 309.684706 126.192891 
L 314.936471 120.945497 
L 320.188235 126.372516 
L 325.44 126.185408 
L 330.691765 100.090624 
L 335.943529 110.226176 
L 341.195294 63.688158 
L 346.447059 79.333048 
L 351.698824 68.972977 
L 356.950588 79.527655 
L 362.202353 74.025768 
L 367.454118 84.655282 
L 372.705882 79.303115 
L 377.957647 79.310593 
L 383.209412 69.257387 
L 388.461176 74.220376 
L 393.712941 94.850709 
L 398.964706 53.560095 
L 404.216471 64.099812 
L 409.468235 53.567589 
L 414.72 48.350138 
" clip-path="url(#pa1954d6ee8)" style="fill: none; stroke: #dd8452; stroke-width: 1.2; stroke-linecap: round"/>
   </g>
   <g id="line2d_16">
    <path d="M 62.851765 307.584 
L 68.103529 307.584 
L 73.355294 307.584 
L 78.607059 307.584 
L 83.858824 307.584 
L 89.110588 307.584 
L 94.362353 307.584 
L 99.614118 307.584 
L 104.865882 307.584 
L 110.117647 307.584 
L 115.369412 307.584 
L 120.621176 307.584 
L 125.872941 307.584 
L 131.124706 302.366539 
L 136.376471 307.584 
L 141.628235 307.584 
L 146.88 307.584 
L 152.131765 307.584 
L 157.383529 302.471323 
L 162.635294 297.291288 
L 167.887059 292.073827 
L 173.138824 271.525824 
L 178.390588 281.594001 
L 183.642353 271.368642 
L 188.894118 266.345789 
L 194.145882 214.515469 
L 199.397647 198.661021 
L 204.649412 198.960403 
L 209.901176 147.204945 
L 215.152941 142.279377 
L 220.404706 157.654807 
L 225.656471 172.798251 
L 230.908235 157.265623 
L 236.16 115.720553 
L 241.411765 136.39579 
L 246.663529 105.263166 
L 251.915294 141.553381 
L 257.167059 136.186242 
L 262.418824 183.135872 
L 267.670588 156.749206 
L 272.922353 157.325504 
L 278.174118 115.690626 
L 283.425882 131.537606 
L 288.677647 105.278121 
L 293.929412 115.847792 
L 299.181176 99.985835 
L 304.432941 105.18833 
L 309.684706 94.528878 
L 314.936471 105.076068 
L 320.188235 94.760907 
L 325.44 74.085665 
L 330.691765 79.250739 
L 335.943529 69.175058 
L 341.195294 74.310194 
L 346.447059 53.664895 
L 351.698824 48.537252 
" clip-path="url(#pa1954d6ee8)" style="fill: none; stroke: #55a868; stroke-width: 1.2; stroke-linecap: round"/>
   </g>
   <g id="line2d_17">
    <path d="M 62.851765 307.584 
L 68.103529 307.584 
L 73.355294 307.584 
L 78.607059 307.584 
L 83.858824 307.584 
L 89.110588 307.584 
L 94.362353 307.584 
L 99.614118 307.584 
L 104.865882 307.584 
L 110.117647 302.359056 
L 115.369412 307.584 
L 120.621176 307.584 
L 125.872941 307.584 
L 131.124706 302.396477 
L 136.376471 307.584 
L 141.628235 307.584 
L 146.88 297.291288 
L 152.131765 297.1416 
L 157.383529 271.383608 
L 162.635294 297.246379 
L 167.887059 255.843503 
L 173.138824 250.768258 
L 178.390588 240.063897 
L 183.642353 209.664747 
L 188.894118 209.118393 
L 194.145882 219.590735 
L 199.397647 193.683056 
L 204.649412 188.495548 
L 209.901176 209.125886 
L 215.152941 188.525486 
L 220.404706 167.730483 
L 225.656471 146.628642 
L 230.908235 167.513437 
L 236.16 151.98082 
L 241.411765 156.93631 
L 246.663529 152.010747 
L 251.915294 167.573323 
L 257.167059 157.175821 
L 262.418824 162.333402 
L 267.670588 141.486023 
L 272.922353 152.10056 
L 278.174118 136.171271 
L 283.425882 146.501403 
L 288.677647 115.555899 
L 293.929412 136.35838 
L 299.181176 131.245687 
L 304.432941 125.945912 
L 309.684706 120.646121 
L 314.936471 141.411171 
L 320.188235 146.591211 
L 325.44 141.291426 
L 330.691765 141.560864 
L 335.943529 105.263198 
L 341.195294 136.133845 
L 346.447059 99.851129 
L 351.698824 63.875283 
L 356.950588 89.693139 
L 362.202353 79.033693 
L 367.454118 79.108524 
L 372.705882 94.715998 
L 377.957647 68.770913 
L 383.209412 79.34803 
L 388.461176 63.763015 
L 393.712941 79.38545 
L 398.964706 53.155951 
L 404.216471 48.297746 
" clip-path="url(#pa1954d6ee8)" style="fill: none; stroke: #c44e52; stroke-width: 1.2; stroke-linecap: round"/>
   </g>
   <g id="line2d_18"/>
   <g id="line2d_19"/>
   <g id="line2d_20"/>
   <g id="line2d_21"/>
   <g id="patch_3">
    <path d="M 57.6 307.584 
L 57.6 41.472 
" style="fill: none; stroke: #ffffff; stroke-linejoin: miter; stroke-linecap: square"/>
   </g>
   <g id="patch_4">
    <path d="M 414.72 307.584 
L 414.72 41.472 
" style="fill: none; stroke: #ffffff; stroke-linejoin: miter; stroke-linecap: square"/>
   </g>
   <g id="patch_5">
    <path d="M 57.6 307.584 
L 414.72 307.584 
" style="fill: none; stroke: #ffffff; stroke-linejoin: miter; stroke-linecap: square"/>
   </g>
   <g id="patch_6">
    <path d="M 57.6 41.472 
L 414.72 41.472 
" style="fill: none; stroke: #ffffff; stroke-linejoin: miter; stroke-linecap: square"/>
   </g>
   <g id="legend_1">
    <g id="patch_7">
     <path d="M 63.76 113.87 
L 180.842625 113.87 
Q 182.602625 113.87 182.602625 112.11 
L 182.602625 47.632 
Q 182.602625 45.872 180.842625 45.872 
L 63.76 45.872 
Q 62 45.872 62 47.632 
L 62 112.11 
Q 62 113.87 63.76 113.87 
z
" style="fill: #eaeaf2; opacity: 0.8; stroke: #cccccc; stroke-width: 0.8; stroke-linejoin: miter"/>
    </g>
    <g id="text_16">
     <!-- Approach -->
     <g style="fill: #262626" transform="translate(99.498312 56.6865) scale(0.096 -0.096)">
      <defs>
       <path id="DejaVuSans-41" d="M 2188 4044 
L 1331 1722 
L 3047 1722 
L 2188 4044 
z
M 1831 4666 
L 2547 4666 
L 4325 0 
L 3669 0 
L 3244 1197 
L 1141 1197 
L 716 0 
L 50 0 
L 1831 4666 
z
" transform="scale(0.015625)"/>
       <path id="DejaVuSans-61" d="M 2194 1759 
Q 1497 1759 1228 1600 
Q 959 1441 959 1056 
Q 959 750 1161 570 
Q 1363 391 1709 391 
Q 2188 391 2477 730 
Q 2766 1069 2766 1631 
L 2766 1759 
L 2194 1759 
z
M 3341 1997 
L 3341 0 
L 2766 0 
L 2766 531 
Q 2569 213 2275 61 
Q 1981 -91 1556 -91 
Q 1019 -91 701 211 
Q 384 513 384 1019 
Q 384 1609 779 1909 
Q 1175 2209 1959 2209 
L 2766 2209 
L 2766 2266 
Q 2766 2663 2505 2880 
Q 2244 3097 1772 3097 
Q 1472 3097 1187 3025 
Q 903 2953 641 2809 
L 641 3341 
Q 956 3463 1253 3523 
Q 1550 3584 1831 3584 
Q 2591 3584 2966 3190 
Q 3341 2797 3341 1997 
z
" transform="scale(0.015625)"/>
       <path id="DejaVuSans-68" d="M 3513 2113 
L 3513 0 
L 2938 0 
L 2938 2094 
Q 2938 2591 2744 2837 
Q 2550 3084 2163 3084 
Q 1697 3084 1428 2787 
Q 1159 2491 1159 1978 
L 1159 0 
L 581 0 
L 581 4863 
L 1159 4863 
L 1159 2956 
Q 1366 3272 1645 3428 
Q 1925 3584 2291 3584 
Q 2894 3584 3203 3211 
Q 3513 2838 3513 2113 
z
" transform="scale(0.015625)"/>
      </defs>
      <use xlink:href="#DejaVuSans-41"/>
      <use xlink:href="#DejaVuSans-70" x="68.408203"/>
      <use xlink:href="#DejaVuSans-70" x="131.884766"/>
      <use xlink:href="#DejaVuSans-72" x="195.361328"/>
      <use xlink:href="#DejaVuSans-6f" x="234.224609"/>
      <use xlink:href="#DejaVuSans-61" x="295.40625"/>
      <use xlink:href="#DejaVuSans-63" x="356.685547"/>
      <use xlink:href="#DejaVuSans-68" x="411.666016"/>
     </g>
    </g>
    <g id="line2d_22">
     <path d="M 65.52 66.689625 
L 74.32 66.689625 
L 83.12 66.689625 
" style="fill: none; stroke: #4c72b0; stroke-width: 1.2; stroke-linecap: round"/>
    </g>
    <g id="text_17">
     <!-- Combined -->
     <g style="fill: #262626" transform="translate(90.16 69.769625) scale(0.088 -0.088)">
      <defs>
       <path id="DejaVuSans-43" d="M 4122 4306 
L 4122 3641 
Q 3803 3938 3442 4084 
Q 3081 4231 2675 4231 
Q 1875 4231 1450 3742 
Q 1025 3253 1025 2328 
Q 1025 1406 1450 917 
Q 1875 428 2675 428 
Q 3081 428 3442 575 
Q 3803 722 4122 1019 
L 4122 359 
Q 3791 134 3420 21 
Q 3050 -91 2638 -91 
Q 1578 -91 968 557 
Q 359 1206 359 2328 
Q 359 3453 968 4101 
Q 1578 4750 2638 4750 
Q 3056 4750 3426 4639 
Q 3797 4528 4122 4306 
z
" transform="scale(0.015625)"/>
       <path id="DejaVuSans-62" d="M 3116 1747 
Q 3116 2381 2855 2742 
Q 2594 3103 2138 3103 
Q 1681 3103 1420 2742 
Q 1159 2381 1159 1747 
Q 1159 1113 1420 752 
Q 1681 391 2138 391 
Q 2594 391 2855 752 
Q 3116 1113 3116 1747 
z
M 1159 2969 
Q 1341 3281 1617 3432 
Q 1894 3584 2278 3584 
Q 2916 3584 3314 3078 
Q 3713 2572 3713 1747 
Q 3713 922 3314 415 
Q 2916 -91 2278 -91 
Q 1894 -91 1617 61 
Q 1341 213 1159 525 
L 1159 0 
L 581 0 
L 581 4863 
L 1159 4863 
L 1159 2969 
z
" transform="scale(0.015625)"/>
       <path id="DejaVuSans-6e" d="M 3513 2113 
L 3513 0 
L 2938 0 
L 2938 2094 
Q 2938 2591 2744 2837 
Q 2550 3084 2163 3084 
Q 1697 3084 1428 2787 
Q 1159 2491 1159 1978 
L 1159 0 
L 581 0 
L 581 3500 
L 1159 3500 
L 1159 2956 
Q 1366 3272 1645 3428 
Q 1925 3584 2291 3584 
Q 2894 3584 3203 3211 
Q 3513 2838 3513 2113 
z
" transform="scale(0.015625)"/>
       <path id="DejaVuSans-64" d="M 2906 2969 
L 2906 4863 
L 3481 4863 
L 3481 0 
L 2906 0 
L 2906 525 
Q 2725 213 2448 61 
Q 2172 -91 1784 -91 
Q 1150 -91 751 415 
Q 353 922 353 1747 
Q 353 2572 751 3078 
Q 1150 3584 1784 3584 
Q 2172 3584 2448 3432 
Q 2725 3281 2906 2969 
z
M 947 1747 
Q 947 1113 1208 752 
Q 1469 391 1925 391 
Q 2381 391 2643 752 
Q 2906 1113 2906 1747 
Q 2906 2381 2643 2742 
Q 2381 3103 1925 3103 
Q 1469 3103 1208 2742 
Q 947 2381 947 1747 
z
" transform="scale(0.015625)"/>
      </defs>
      <use xlink:href="#DejaVuSans-43"/>
      <use xlink:href="#DejaVuSans-6f" x="69.824219"/>
      <use xlink:href="#DejaVuSans-6d" x="131.005859"/>
      <use xlink:href="#DejaVuSans-62" x="228.417969"/>
      <use xlink:href="#DejaVuSans-69" x="291.894531"/>
      <use xlink:href="#DejaVuSans-6e" x="319.677734"/>
      <use xlink:href="#DejaVuSans-65" x="383.056641"/>
      <use xlink:href="#DejaVuSans-64" x="444.580078"/>
     </g>
    </g>
    <g id="line2d_23">
     <path d="M 65.52 79.606375 
L 74.32 79.606375 
L 83.12 79.606375 
" style="fill: none; stroke: #dd8452; stroke-width: 1.2; stroke-linecap: round"/>
    </g>
    <g id="text_18">
     <!-- Proximal Curriculum -->
     <g style="fill: #262626" transform="translate(90.16 82.686375) scale(0.088 -0.088)">
      <defs>
       <path id="DejaVuSans-50" d="M 1259 4147 
L 1259 2394 
L 2053 2394 
Q 2494 2394 2734 2622 
Q 2975 2850 2975 3272 
Q 2975 3691 2734 3919 
Q 2494 4147 2053 4147 
L 1259 4147 
z
M 628 4666 
L 2053 4666 
Q 2838 4666 3239 4311 
Q 3641 3956 3641 3272 
Q 3641 2581 3239 2228 
Q 2838 1875 2053 1875 
L 1259 1875 
L 1259 0 
L 628 0 
L 628 4666 
z
" transform="scale(0.015625)"/>
       <path id="DejaVuSans-78" d="M 3513 3500 
L 2247 1797 
L 3578 0 
L 2900 0 
L 1881 1375 
L 863 0 
L 184 0 
L 1544 1831 
L 300 3500 
L 978 3500 
L 1906 2253 
L 2834 3500 
L 3513 3500 
z
" transform="scale(0.015625)"/>
       <path id="DejaVuSans-6c" d="M 603 4863 
L 1178 4863 
L 1178 0 
L 603 0 
L 603 4863 
z
" transform="scale(0.015625)"/>
       <path id="DejaVuSans-20" transform="scale(0.015625)"/>
       <path id="DejaVuSans-75" d="M 544 1381 
L 544 3500 
L 1119 3500 
L 1119 1403 
Q 1119 906 1312 657 
Q 1506 409 1894 409 
Q 2359 409 2629 706 
Q 2900 1003 2900 1516 
L 2900 3500 
L 3475 3500 
L 3475 0 
L 2900 0 
L 2900 538 
Q 2691 219 2414 64 
Q 2138 -91 1772 -91 
Q 1169 -91 856 284 
Q 544 659 544 1381 
z
M 1991 3584 
L 1991 3584 
z
" transform="scale(0.015625)"/>
      </defs>
      <use xlink:href="#DejaVuSans-50"/>
      <use xlink:href="#DejaVuSans-72" x="58.552734"/>
      <use xlink:href="#DejaVuSans-6f" x="97.416016"/>
      <use xlink:href="#DejaVuSans-78" x="155.472656"/>
      <use xlink:href="#DejaVuSans-69" x="214.652344"/>
      <use xlink:href="#DejaVuSans-6d" x="242.435547"/>
      <use xlink:href="#DejaVuSans-61" x="339.847656"/>
      <use xlink:href="#DejaVuSans-6c" x="401.126953"/>
      <use xlink:href="#DejaVuSans-20" x="428.910156"/>
      <use xlink:href="#DejaVuSans-43" x="460.697266"/>
      <use xlink:href="#DejaVuSans-75" x="530.521484"/>
      <use xlink:href="#DejaVuSans-72" x="593.900391"/>
      <use xlink:href="#DejaVuSans-72" x="633.263672"/>
      <use xlink:href="#DejaVuSans-69" x="674.376953"/>
      <use xlink:href="#DejaVuSans-63" x="702.160156"/>
      <use xlink:href="#DejaVuSans-75" x="757.140625"/>
      <use xlink:href="#DejaVuSans-6c" x="820.519531"/>
      <use xlink:href="#DejaVuSans-75" x="848.302734"/>
      <use xlink:href="#DejaVuSans-6d" x="911.681641"/>
     </g>
    </g>
    <g id="line2d_24">
     <path d="M 65.52 92.523125 
L 74.32 92.523125 
L 83.12 92.523125 
" style="fill: none; stroke: #55a868; stroke-width: 1.2; stroke-linecap: round"/>
    </g>
    <g id="text_19">
     <!-- State Novelty (RND) -->
     <g style="fill: #262626" transform="translate(90.16 95.603125) scale(0.088 -0.088)">
      <defs>
       <path id="DejaVuSans-4e" d="M 628 4666 
L 1478 4666 
L 3547 763 
L 3547 4666 
L 4159 4666 
L 4159 0 
L 3309 0 
L 1241 3903 
L 1241 0 
L 628 0 
L 628 4666 
z
" transform="scale(0.015625)"/>
       <path id="DejaVuSans-76" d="M 191 3500 
L 800 3500 
L 1894 563 
L 2988 3500 
L 3597 3500 
L 2284 0 
L 1503 0 
L 191 3500 
z
" transform="scale(0.015625)"/>
       <path id="DejaVuSans-79" d="M 2059 -325 
Q 1816 -950 1584 -1140 
Q 1353 -1331 966 -1331 
L 506 -1331 
L 506 -850 
L 844 -850 
Q 1081 -850 1212 -737 
Q 1344 -625 1503 -206 
L 1606 56 
L 191 3500 
L 800 3500 
L 1894 763 
L 2988 3500 
L 3597 3500 
L 2059 -325 
z
" transform="scale(0.015625)"/>
       <path id="DejaVuSans-28" d="M 1984 4856 
Q 1566 4138 1362 3434 
Q 1159 2731 1159 2009 
Q 1159 1288 1364 580 
Q 1569 -128 1984 -844 
L 1484 -844 
Q 1016 -109 783 600 
Q 550 1309 550 2009 
Q 550 2706 781 3412 
Q 1013 4119 1484 4856 
L 1984 4856 
z
" transform="scale(0.015625)"/>
       <path id="DejaVuSans-52" d="M 2841 2188 
Q 3044 2119 3236 1894 
Q 3428 1669 3622 1275 
L 4263 0 
L 3584 0 
L 2988 1197 
Q 2756 1666 2539 1819 
Q 2322 1972 1947 1972 
L 1259 1972 
L 1259 0 
L 628 0 
L 628 4666 
L 2053 4666 
Q 2853 4666 3247 4331 
Q 3641 3997 3641 3322 
Q 3641 2881 3436 2590 
Q 3231 2300 2841 2188 
z
M 1259 4147 
L 1259 2491 
L 2053 2491 
Q 2509 2491 2742 2702 
Q 2975 2913 2975 3322 
Q 2975 3731 2742 3939 
Q 2509 4147 2053 4147 
L 1259 4147 
z
" transform="scale(0.015625)"/>
       <path id="DejaVuSans-44" d="M 1259 4147 
L 1259 519 
L 2022 519 
Q 2988 519 3436 956 
Q 3884 1394 3884 2338 
Q 3884 3275 3436 3711 
Q 2988 4147 2022 4147 
L 1259 4147 
z
M 628 4666 
L 1925 4666 
Q 3281 4666 3915 4102 
Q 4550 3538 4550 2338 
Q 4550 1131 3912 565 
Q 3275 0 1925 0 
L 628 0 
L 628 4666 
z
" transform="scale(0.015625)"/>
       <path id="DejaVuSans-29" d="M 513 4856 
L 1013 4856 
Q 1481 4119 1714 3412 
Q 1947 2706 1947 2009 
Q 1947 1309 1714 600 
Q 1481 -109 1013 -844 
L 513 -844 
Q 928 -128 1133 580 
Q 1338 1288 1338 2009 
Q 1338 2731 1133 3434 
Q 928 4138 513 4856 
z
" transform="scale(0.015625)"/>
      </defs>
      <use xlink:href="#DejaVuSans-53"/>
      <use xlink:href="#DejaVuSans-74" x="63.476562"/>
      <use xlink:href="#DejaVuSans-61" x="102.685547"/>
      <use xlink:href="#DejaVuSans-74" x="163.964844"/>
      <use xlink:href="#DejaVuSans-65" x="203.173828"/>
      <use xlink:href="#DejaVuSans-20" x="264.697266"/>
      <use xlink:href="#DejaVuSans-4e" x="296.484375"/>
      <use xlink:href="#DejaVuSans-6f" x="371.289062"/>
      <use xlink:href="#DejaVuSans-76" x="432.470703"/>
      <use xlink:href="#DejaVuSans-65" x="491.650391"/>
      <use xlink:href="#DejaVuSans-6c" x="553.173828"/>
      <use xlink:href="#DejaVuSans-74" x="580.957031"/>
      <use xlink:href="#DejaVuSans-79" x="620.166016"/>
      <use xlink:href="#DejaVuSans-20" x="679.345703"/>
      <use xlink:href="#DejaVuSans-28" x="711.132812"/>
      <use xlink:href="#DejaVuSans-52" x="750.146484"/>
      <use xlink:href="#DejaVuSans-4e" x="819.628906"/>
      <use xlink:href="#DejaVuSans-44" x="894.433594"/>
      <use xlink:href="#DejaVuSans-29" x="971.435547"/>
     </g>
    </g>
    <g id="line2d_25">
     <path d="M 65.52 105.439875 
L 74.32 105.439875 
L 83.12 105.439875 
" style="fill: none; stroke: #c44e52; stroke-width: 1.2; stroke-linecap: round"/>
    </g>
    <g id="text_20">
     <!-- Vanilla -->
     <g style="fill: #262626" transform="translate(90.16 108.519875) scale(0.088 -0.088)">
      <defs>
       <path id="DejaVuSans-56" d="M 1831 0 
L 50 4666 
L 709 4666 
L 2188 738 
L 3669 4666 
L 4325 4666 
L 2547 0 
L 1831 0 
z
" transform="scale(0.015625)"/>
      </defs>
      <use xlink:href="#DejaVuSans-56"/>
      <use xlink:href="#DejaVuSans-61" x="60.658203"/>
      <use xlink:href="#DejaVuSans-6e" x="121.9375"/>
      <use xlink:href="#DejaVuSans-69" x="185.316406"/>
      <use xlink:href="#DejaVuSans-6c" x="213.099609"/>
      <use xlink:href="#DejaVuSans-6c" x="240.882812"/>
      <use xlink:href="#DejaVuSans-61" x="268.666016"/>
     </g>
    </g>
   </g>
  </g>
 </g>
 <defs>
  <clipPath id="pa1954d6ee8">
   <rect x="57.6" y="41.472" width="357.12" height="266.112"/>
  </clipPath>
 </defs>
</svg>
