<?xml version="1.0" encoding="utf-8" standalone="no"?>
<!DOCTYPE svg PUBLIC "-//W3C//DTD SVG 1.1//EN"
  "http://www.w3.org/Graphics/SVG/1.1/DTD/svg11.dtd">
<svg xmlns:xlink="http://www.w3.org/1999/xlink" width="288pt" height="216pt" viewBox="0 0 288 216" xmlns="http://www.w3.org/2000/svg" version="1.1">
 <metadata>
  <rdf:RDF xmlns:dc="http://purl.org/dc/elements/1.1/" xmlns:cc="http://creativecommons.org/ns#" xmlns:rdf="http://www.w3.org/1999/02/22-rdf-syntax-ns#">
   <cc:Work>
    <dc:type rdf:resource="http://purl.org/dc/dcmitype/StillImage"/>
    <dc:date>1980-01-01T00:00:00+00:00</dc:date>
    <dc:format>image/svg+xml</dc:format>
    <dc:creator>
     <cc:Agent>
      <dc:title>Matplotlib v3.9.2, https://matplotlib.org/</dc:title>
     </cc:Agent>
    </dc:creator>
   </cc:Work>
  </rdf:RDF>
 </metadata>
 <defs>
  <style type="text/css">*{stroke-linejoin: round; stroke-linecap: butt}</style>
 </defs>
 <g id="figure_1">
  <g id="patch_1">
   <path d="M 0 216 
L 288 216 
L 288 0 
L 0 0 
z
" style="fill: #ffffff"/>
  </g>
  <g id="axes_1">
   <g id="patch_2">
    <path d="M 46.068 174.612 
L 270.657 174.612 
L 270.657 13.968 
L 46.068 13.968 
z
" style="fill: #eaeaf2"/>
   </g>
   <g id="matplotlib.axis_1">
    <g id="xtick_1">
     <g id="line2d_1">
      <path d="M 46.068 174.612 
L 46.068 13.968 
" clip-path="url(#p325613c7a5)" style="fill: none; stroke: #ffffff; stroke-width: 0.8; stroke-linecap: round"/>
     </g>
     <g id="text_1">
      <!-- 0.0 -->
      <g style="fill: #262626" transform="translate(39.070625 189.598625) scale(0.088 -0.088)">
       <defs>
        <path id="DejaVuSans-30" d="M 2034 4250 
Q 1547 4250 1301 3770 
Q 1056 3291 1056 2328 
Q 1056 1369 1301 889 
Q 1547 409 2034 409 
Q 2525 409 2770 889 
Q 3016 1369 3016 2328 
Q 3016 3291 2770 3770 
Q 2525 4250 2034 4250 
z
M 2034 4750 
Q 2819 4750 3233 4129 
Q 3647 3509 3647 2328 
Q 3647 1150 3233 529 
Q 2819 -91 2034 -91 
Q 1250 -91 836 529 
Q 422 1150 422 2328 
Q 422 3509 836 4129 
Q 1250 4750 2034 4750 
z
" transform="scale(0.015625)"/>
        <path id="DejaVuSans-2e" d="M 684 794 
L 1344 794 
L 1344 0 
L 684 0 
L 684 794 
z
" transform="scale(0.015625)"/>
       </defs>
       <use xlink:href="#DejaVuSans-30"/>
       <use xlink:href="#DejaVuSans-2e" x="63.623047"/>
       <use xlink:href="#DejaVuSans-30" x="95.410156"/>
      </g>
     </g>
    </g>
    <g id="xtick_2">
     <g id="line2d_2">
      <path d="M 90.9858 174.612 
L 90.9858 13.968 
" clip-path="url(#p325613c7a5)" style="fill: none; stroke: #ffffff; stroke-width: 0.8; stroke-linecap: round"/>
     </g>
     <g id="text_2">
      <!-- 0.2 -->
      <g style="fill: #262626" transform="translate(83.988425 189.598625) scale(0.088 -0.088)">
       <defs>
        <path id="DejaVuSans-32" d="M 1228 531 
L 3431 531 
L 3431 0 
L 469 0 
L 469 531 
Q 828 903 1448 1529 
Q 2069 2156 2228 2338 
Q 2531 2678 2651 2914 
Q 2772 3150 2772 3378 
Q 2772 3750 2511 3984 
Q 2250 4219 1831 4219 
Q 1534 4219 1204 4116 
Q 875 4013 500 3803 
L 500 4441 
Q 881 4594 1212 4672 
Q 1544 4750 1819 4750 
Q 2544 4750 2975 4387 
Q 3406 4025 3406 3419 
Q 3406 3131 3298 2873 
Q 3191 2616 2906 2266 
Q 2828 2175 2409 1742 
Q 1991 1309 1228 531 
z
" transform="scale(0.015625)"/>
       </defs>
       <use xlink:href="#DejaVuSans-30"/>
       <use xlink:href="#DejaVuSans-2e" x="63.623047"/>
       <use xlink:href="#DejaVuSans-32" x="95.410156"/>
      </g>
     </g>
    </g>
    <g id="xtick_3">
     <g id="line2d_3">
      <path d="M 135.9036 174.612 
L 135.9036 13.968 
" clip-path="url(#p325613c7a5)" style="fill: none; stroke: #ffffff; stroke-width: 0.8; stroke-linecap: round"/>
     </g>
     <g id="text_3">
      <!-- 0.4 -->
      <g style="fill: #262626" transform="translate(128.906225 189.598625) scale(0.088 -0.088)">
       <defs>
        <path id="DejaVuSans-34" d="M 2419 4116 
L 825 1625 
L 2419 1625 
L 2419 4116 
z
M 2253 4666 
L 3047 4666 
L 3047 1625 
L 3713 1625 
L 3713 1100 
L 3047 1100 
L 3047 0 
L 2419 0 
L 2419 1100 
L 313 1100 
L 313 1709 
L 2253 4666 
z
" transform="scale(0.015625)"/>
       </defs>
       <use xlink:href="#DejaVuSans-30"/>
       <use xlink:href="#DejaVuSans-2e" x="63.623047"/>
       <use xlink:href="#DejaVuSans-34" x="95.410156"/>
      </g>
     </g>
    </g>
    <g id="xtick_4">
     <g id="line2d_4">
      <path d="M 180.8214 174.612 
L 180.8214 13.968 
" clip-path="url(#p325613c7a5)" style="fill: none; stroke: #ffffff; stroke-width: 0.8; stroke-linecap: round"/>
     </g>
     <g id="text_4">
      <!-- 0.6 -->
      <g style="fill: #262626" transform="translate(173.824025 189.598625) scale(0.088 -0.088)">
       <defs>
        <path id="DejaVuSans-36" d="M 2113 2584 
Q 1688 2584 1439 2293 
Q 1191 2003 1191 1497 
Q 1191 994 1439 701 
Q 1688 409 2113 409 
Q 2538 409 2786 701 
Q 3034 994 3034 1497 
Q 3034 2003 2786 2293 
Q 2538 2584 2113 2584 
z
M 3366 4563 
L 3366 3988 
Q 3128 4100 2886 4159 
Q 2644 4219 2406 4219 
Q 1781 4219 1451 3797 
Q 1122 3375 1075 2522 
Q 1259 2794 1537 2939 
Q 1816 3084 2150 3084 
Q 2853 3084 3261 2657 
Q 3669 2231 3669 1497 
Q 3669 778 3244 343 
Q 2819 -91 2113 -91 
Q 1303 -91 875 529 
Q 447 1150 447 2328 
Q 447 3434 972 4092 
Q 1497 4750 2381 4750 
Q 2619 4750 2861 4703 
Q 3103 4656 3366 4563 
z
" transform="scale(0.015625)"/>
       </defs>
       <use xlink:href="#DejaVuSans-30"/>
       <use xlink:href="#DejaVuSans-2e" x="63.623047"/>
       <use xlink:href="#DejaVuSans-36" x="95.410156"/>
      </g>
     </g>
    </g>
    <g id="xtick_5">
     <g id="line2d_5">
      <path d="M 225.7392 174.612 
L 225.7392 13.968 
" clip-path="url(#p325613c7a5)" style="fill: none; stroke: #ffffff; stroke-width: 0.8; stroke-linecap: round"/>
     </g>
     <g id="text_5">
      <!-- 0.8 -->
      <g style="fill: #262626" transform="translate(218.741825 189.598625) scale(0.088 -0.088)">
       <defs>
        <path id="DejaVuSans-38" d="M 2034 2216 
Q 1584 2216 1326 1975 
Q 1069 1734 1069 1313 
Q 1069 891 1326 650 
Q 1584 409 2034 409 
Q 2484 409 2743 651 
Q 3003 894 3003 1313 
Q 3003 1734 2745 1975 
Q 2488 2216 2034 2216 
z
M 1403 2484 
Q 997 2584 770 2862 
Q 544 3141 544 3541 
Q 544 4100 942 4425 
Q 1341 4750 2034 4750 
Q 2731 4750 3128 4425 
Q 3525 4100 3525 3541 
Q 3525 3141 3298 2862 
Q 3072 2584 2669 2484 
Q 3125 2378 3379 2068 
Q 3634 1759 3634 1313 
Q 3634 634 3220 271 
Q 2806 -91 2034 -91 
Q 1263 -91 848 271 
Q 434 634 434 1313 
Q 434 1759 690 2068 
Q 947 2378 1403 2484 
z
M 1172 3481 
Q 1172 3119 1398 2916 
Q 1625 2713 2034 2713 
Q 2441 2713 2670 2916 
Q 2900 3119 2900 3481 
Q 2900 3844 2670 4047 
Q 2441 4250 2034 4250 
Q 1625 4250 1398 4047 
Q 1172 3844 1172 3481 
z
" transform="scale(0.015625)"/>
       </defs>
       <use xlink:href="#DejaVuSans-30"/>
       <use xlink:href="#DejaVuSans-2e" x="63.623047"/>
       <use xlink:href="#DejaVuSans-38" x="95.410156"/>
      </g>
     </g>
    </g>
    <g id="xtick_6">
     <g id="line2d_6">
      <path d="M 270.657 174.612 
L 270.657 13.968 
" clip-path="url(#p325613c7a5)" style="fill: none; stroke: #ffffff; stroke-width: 0.8; stroke-linecap: round"/>
     </g>
     <g id="text_6">
      <!-- 1.0 -->
      <g style="fill: #262626" transform="translate(263.659625 189.598625) scale(0.088 -0.088)">
       <defs>
        <path id="DejaVuSans-31" d="M 794 531 
L 1825 531 
L 1825 4091 
L 703 3866 
L 703 4441 
L 1819 4666 
L 2450 4666 
L 2450 531 
L 3481 531 
L 3481 0 
L 794 0 
L 794 531 
z
" transform="scale(0.015625)"/>
       </defs>
       <use xlink:href="#DejaVuSans-31"/>
       <use xlink:href="#DejaVuSans-2e" x="63.623047"/>
       <use xlink:href="#DejaVuSans-30" x="95.410156"/>
      </g>
     </g>
    </g>
    <g id="text_7">
     <!-- Timestep -->
     <g style="fill: #262626" transform="translate(136.23525 202.72325) scale(0.096 -0.096)">
      <defs>
       <path id="DejaVuSans-54" d="M -19 4666 
L 3928 4666 
L 3928 4134 
L 2272 4134 
L 2272 0 
L 1638 0 
L 1638 4134 
L -19 4134 
L -19 4666 
z
" transform="scale(0.015625)"/>
       <path id="DejaVuSans-69" d="M 603 3500 
L 1178 3500 
L 1178 0 
L 603 0 
L 603 3500 
z
M 603 4863 
L 1178 4863 
L 1178 4134 
L 603 4134 
L 603 4863 
z
" transform="scale(0.015625)"/>
       <path id="DejaVuSans-6d" d="M 3328 2828 
Q 3544 3216 3844 3400 
Q 4144 3584 4550 3584 
Q 5097 3584 5394 3201 
Q 5691 2819 5691 2113 
L 5691 0 
L 5113 0 
L 5113 2094 
Q 5113 2597 4934 2840 
Q 4756 3084 4391 3084 
Q 3944 3084 3684 2787 
Q 3425 2491 3425 1978 
L 3425 0 
L 2847 0 
L 2847 2094 
Q 2847 2600 2669 2842 
Q 2491 3084 2119 3084 
Q 1678 3084 1418 2786 
Q 1159 2488 1159 1978 
L 1159 0 
L 581 0 
L 581 3500 
L 1159 3500 
L 1159 2956 
Q 1356 3278 1631 3431 
Q 1906 3584 2284 3584 
Q 2666 3584 2933 3390 
Q 3200 3197 3328 2828 
z
" transform="scale(0.015625)"/>
       <path id="DejaVuSans-65" d="M 3597 1894 
L 3597 1613 
L 953 1613 
Q 991 1019 1311 708 
Q 1631 397 2203 397 
Q 2534 397 2845 478 
Q 3156 559 3463 722 
L 3463 178 
Q 3153 47 2828 -22 
Q 2503 -91 2169 -91 
Q 1331 -91 842 396 
Q 353 884 353 1716 
Q 353 2575 817 3079 
Q 1281 3584 2069 3584 
Q 2775 3584 3186 3129 
Q 3597 2675 3597 1894 
z
M 3022 2063 
Q 3016 2534 2758 2815 
Q 2500 3097 2075 3097 
Q 1594 3097 1305 2825 
Q 1016 2553 972 2059 
L 3022 2063 
z
" transform="scale(0.015625)"/>
       <path id="DejaVuSans-73" d="M 2834 3397 
L 2834 2853 
Q 2591 2978 2328 3040 
Q 2066 3103 1784 3103 
Q 1356 3103 1142 2972 
Q 928 2841 928 2578 
Q 928 2378 1081 2264 
Q 1234 2150 1697 2047 
L 1894 2003 
Q 2506 1872 2764 1633 
Q 3022 1394 3022 966 
Q 3022 478 2636 193 
Q 2250 -91 1575 -91 
Q 1294 -91 989 -36 
Q 684 19 347 128 
L 347 722 
Q 666 556 975 473 
Q 1284 391 1588 391 
Q 1994 391 2212 530 
Q 2431 669 2431 922 
Q 2431 1156 2273 1281 
Q 2116 1406 1581 1522 
L 1381 1569 
Q 847 1681 609 1914 
Q 372 2147 372 2553 
Q 372 3047 722 3315 
Q 1072 3584 1716 3584 
Q 2034 3584 2315 3537 
Q 2597 3491 2834 3397 
z
" transform="scale(0.015625)"/>
       <path id="DejaVuSans-74" d="M 1172 4494 
L 1172 3500 
L 2356 3500 
L 2356 3053 
L 1172 3053 
L 1172 1153 
Q 1172 725 1289 603 
Q 1406 481 1766 481 
L 2356 481 
L 2356 0 
L 1766 0 
Q 1100 0 847 248 
Q 594 497 594 1153 
L 594 3053 
L 172 3053 
L 172 3500 
L 594 3500 
L 594 4494 
L 1172 4494 
z
" transform="scale(0.015625)"/>
       <path id="DejaVuSans-70" d="M 1159 525 
L 1159 -1331 
L 581 -1331 
L 581 3500 
L 1159 3500 
L 1159 2969 
Q 1341 3281 1617 3432 
Q 1894 3584 2278 3584 
Q 2916 3584 3314 3078 
Q 3713 2572 3713 1747 
Q 3713 922 3314 415 
Q 2916 -91 2278 -91 
Q 1894 -91 1617 61 
Q 1341 213 1159 525 
z
M 3116 1747 
Q 3116 2381 2855 2742 
Q 2594 3103 2138 3103 
Q 1681 3103 1420 2742 
Q 1159 2381 1159 1747 
Q 1159 1113 1420 752 
Q 1681 391 2138 391 
Q 2594 391 2855 752 
Q 3116 1113 3116 1747 
z
" transform="scale(0.015625)"/>
      </defs>
      <use xlink:href="#DejaVuSans-54"/>
      <use xlink:href="#DejaVuSans-69" x="57.958984"/>
      <use xlink:href="#DejaVuSans-6d" x="85.742188"/>
      <use xlink:href="#DejaVuSans-65" x="183.154297"/>
      <use xlink:href="#DejaVuSans-73" x="244.677734"/>
      <use xlink:href="#DejaVuSans-74" x="296.777344"/>
      <use xlink:href="#DejaVuSans-65" x="335.986328"/>
      <use xlink:href="#DejaVuSans-70" x="397.509766"/>
     </g>
    </g>
    <g id="text_8">
     <!-- 1e6 -->
     <g style="fill: #262626" transform="translate(254.04425 201.115375) scale(0.088 -0.088)">
      <use xlink:href="#DejaVuSans-31"/>
      <use xlink:href="#DejaVuSans-65" x="63.623047"/>
      <use xlink:href="#DejaVuSans-36" x="125.146484"/>
     </g>
    </g>
   </g>
   <g id="matplotlib.axis_2">
    <g id="ytick_1">
     <g id="line2d_7">
      <path d="M 46.068 174.612 
L 270.657 174.612 
" clip-path="url(#p325613c7a5)" style="fill: none; stroke: #ffffff; stroke-width: 0.8; stroke-linecap: round"/>
     </g>
     <g id="text_9">
      <!-- 0.0 -->
      <g style="fill: #262626" transform="translate(23.77325 177.955312) scale(0.088 -0.088)">
       <use xlink:href="#DejaVuSans-30"/>
       <use xlink:href="#DejaVuSans-2e" x="63.623047"/>
       <use xlink:href="#DejaVuSans-30" x="95.410156"/>
      </g>
     </g>
    </g>
    <g id="ytick_2">
     <g id="line2d_8">
      <path d="M 46.068 142.4832 
L 270.657 142.4832 
" clip-path="url(#p325613c7a5)" style="fill: none; stroke: #ffffff; stroke-width: 0.8; stroke-linecap: round"/>
     </g>
     <g id="text_10">
      <!-- 0.2 -->
      <g style="fill: #262626" transform="translate(23.77325 145.826512) scale(0.088 -0.088)">
       <use xlink:href="#DejaVuSans-30"/>
       <use xlink:href="#DejaVuSans-2e" x="63.623047"/>
       <use xlink:href="#DejaVuSans-32" x="95.410156"/>
      </g>
     </g>
    </g>
    <g id="ytick_3">
     <g id="line2d_9">
      <path d="M 46.068 110.3544 
L 270.657 110.3544 
" clip-path="url(#p325613c7a5)" style="fill: none; stroke: #ffffff; stroke-width: 0.8; stroke-linecap: round"/>
     </g>
     <g id="text_11">
      <!-- 0.4 -->
      <g style="fill: #262626" transform="translate(23.77325 113.697712) scale(0.088 -0.088)">
       <use xlink:href="#DejaVuSans-30"/>
       <use xlink:href="#DejaVuSans-2e" x="63.623047"/>
       <use xlink:href="#DejaVuSans-34" x="95.410156"/>
      </g>
     </g>
    </g>
    <g id="ytick_4">
     <g id="line2d_10">
      <path d="M 46.068 78.2256 
L 270.657 78.2256 
" clip-path="url(#p325613c7a5)" style="fill: none; stroke: #ffffff; stroke-width: 0.8; stroke-linecap: round"/>
     </g>
     <g id="text_12">
      <!-- 0.6 -->
      <g style="fill: #262626" transform="translate(23.77325 81.568912) scale(0.088 -0.088)">
       <use xlink:href="#DejaVuSans-30"/>
       <use xlink:href="#DejaVuSans-2e" x="63.623047"/>
       <use xlink:href="#DejaVuSans-36" x="95.410156"/>
      </g>
     </g>
    </g>
    <g id="ytick_5">
     <g id="line2d_11">
      <path d="M 46.068 46.0968 
L 270.657 46.0968 
" clip-path="url(#p325613c7a5)" style="fill: none; stroke: #ffffff; stroke-width: 0.8; stroke-linecap: round"/>
     </g>
     <g id="text_13">
      <!-- 0.8 -->
      <g style="fill: #262626" transform="translate(23.77325 49.440112) scale(0.088 -0.088)">
       <use xlink:href="#DejaVuSans-30"/>
       <use xlink:href="#DejaVuSans-2e" x="63.623047"/>
       <use xlink:href="#DejaVuSans-38" x="95.410156"/>
      </g>
     </g>
    </g>
    <g id="ytick_6">
     <g id="line2d_12">
      <path d="M 46.068 13.968 
L 270.657 13.968 
" clip-path="url(#p325613c7a5)" style="fill: none; stroke: #ffffff; stroke-width: 0.8; stroke-linecap: round"/>
     </g>
     <g id="text_14">
      <!-- 1.0 -->
      <g style="fill: #262626" transform="translate(23.77325 17.311313) scale(0.088 -0.088)">
       <use xlink:href="#DejaVuSans-31"/>
       <use xlink:href="#DejaVuSans-2e" x="63.623047"/>
       <use xlink:href="#DejaVuSans-30" x="95.410156"/>
      </g>
     </g>
    </g>
    <g id="text_15">
     <!-- Score -->
     <g style="fill: #262626" transform="translate(17.77675 107.73225) rotate(-90) scale(0.096 -0.096)">
      <defs>
       <path id="DejaVuSans-53" d="M 3425 4513 
L 3425 3897 
Q 3066 4069 2747 4153 
Q 2428 4238 2131 4238 
Q 1616 4238 1336 4038 
Q 1056 3838 1056 3469 
Q 1056 3159 1242 3001 
Q 1428 2844 1947 2747 
L 2328 2669 
Q 3034 2534 3370 2195 
Q 3706 1856 3706 1288 
Q 3706 609 3251 259 
Q 2797 -91 1919 -91 
Q 1588 -91 1214 -16 
Q 841 59 441 206 
L 441 856 
Q 825 641 1194 531 
Q 1563 422 1919 422 
Q 2459 422 2753 634 
Q 3047 847 3047 1241 
Q 3047 1584 2836 1778 
Q 2625 1972 2144 2069 
L 1759 2144 
Q 1053 2284 737 2584 
Q 422 2884 422 3419 
Q 422 4038 858 4394 
Q 1294 4750 2059 4750 
Q 2388 4750 2728 4690 
Q 3069 4631 3425 4513 
z
" transform="scale(0.015625)"/>
       <path id="DejaVuSans-63" d="M 3122 3366 
L 3122 2828 
Q 2878 2963 2633 3030 
Q 2388 3097 2138 3097 
Q 1578 3097 1268 2742 
Q 959 2388 959 1747 
Q 959 1106 1268 751 
Q 1578 397 2138 397 
Q 2388 397 2633 464 
Q 2878 531 3122 666 
L 3122 134 
Q 2881 22 2623 -34 
Q 2366 -91 2075 -91 
Q 1284 -91 818 406 
Q 353 903 353 1747 
Q 353 2603 823 3093 
Q 1294 3584 2113 3584 
Q 2378 3584 2631 3529 
Q 2884 3475 3122 3366 
z
" transform="scale(0.015625)"/>
       <path id="DejaVuSans-6f" d="M 1959 3097 
Q 1497 3097 1228 2736 
Q 959 2375 959 1747 
Q 959 1119 1226 758 
Q 1494 397 1959 397 
Q 2419 397 2687 759 
Q 2956 1122 2956 1747 
Q 2956 2369 2687 2733 
Q 2419 3097 1959 3097 
z
M 1959 3584 
Q 2709 3584 3137 3096 
Q 3566 2609 3566 1747 
Q 3566 888 3137 398 
Q 2709 -91 1959 -91 
Q 1206 -91 779 398 
Q 353 888 353 1747 
Q 353 2609 779 3096 
Q 1206 3584 1959 3584 
z
" transform="scale(0.015625)"/>
       <path id="DejaVuSans-72" d="M 2631 2963 
Q 2534 3019 2420 3045 
Q 2306 3072 2169 3072 
Q 1681 3072 1420 2755 
Q 1159 2438 1159 1844 
L 1159 0 
L 581 0 
L 581 3500 
L 1159 3500 
L 1159 2956 
Q 1341 3275 1631 3429 
Q 1922 3584 2338 3584 
Q 2397 3584 2469 3576 
Q 2541 3569 2628 3553 
L 2631 2963 
z
" transform="scale(0.015625)"/>
      </defs>
      <use xlink:href="#DejaVuSans-53"/>
      <use xlink:href="#DejaVuSans-63" x="63.476562"/>
      <use xlink:href="#DejaVuSans-6f" x="118.457031"/>
      <use xlink:href="#DejaVuSans-72" x="179.638672"/>
      <use xlink:href="#DejaVuSans-65" x="218.501953"/>
     </g>
    </g>
   </g>
   <g id="PolyCollection_1"/>
   <g id="PolyCollection_2"/>
   <g id="PolyCollection_3"/>
   <g id="PolyCollection_4"/>
   <g id="PolyCollection_5"/>
   <g id="line2d_13">
    <path d="M 48.31389 174.612 
L 50.55978 174.612 
L 52.80567 174.612 
L 55.05156 174.612 
L 57.29745 174.612 
L 59.54334 174.612 
L 61.78923 174.612 
L 64.03512 174.612 
L 66.28101 174.612 
L 68.5269 174.612 
L 70.77279 174.612 
L 73.01868 174.612 
L 75.26457 174.612 
L 77.51046 174.612 
L 79.75635 174.612 
L 82.00224 174.612 
L 84.24813 174.612 
L 86.49402 174.612 
L 88.73991 159.180136 
L 90.9858 128.158269 
L 93.23169 174.612 
L 95.47758 128.33901 
L 97.72347 111.980904 
L 99.96936 111.958318 
L 102.21525 143.160909 
L 104.46114 33.917977 
L 106.70703 80.913865 
L 108.95292 65.143138 
L 111.19881 64.872051 
L 113.4447 81.365676 
L 115.69059 50.931188 
L 117.93648 65.210914 
L 120.18237 65.2335 
L 122.42826 64.894638 
L 124.67415 49.440187 
L 126.92004 64.917241 
L 129.16593 80.755743 
L 131.41182 64.826878 
L 133.65771 17.853577 
" clip-path="url(#p325613c7a5)" style="fill: none; stroke: #4c72b0; stroke-width: 1.2; stroke-linecap: round"/>
   </g>
   <g id="line2d_14">
    <path d="M 48.31389 174.612 
L 50.55978 174.612 
L 52.80567 174.612 
L 55.05156 174.612 
L 57.29745 174.612 
L 59.54334 174.612 
L 61.78923 174.612 
L 64.03512 174.612 
L 66.28101 174.612 
L 68.5269 174.612 
L 70.77279 174.612 
L 73.01868 174.612 
L 75.26457 174.612 
L 77.51046 174.612 
L 79.75635 174.612 
L 82.00224 174.612 
L 84.24813 174.612 
L 86.49402 174.612 
L 88.73991 174.612 
L 90.9858 144.019374 
L 93.23169 158.909049 
L 95.47758 143.093149 
L 97.72347 112.274578 
L 99.96936 127.909785 
L 102.21525 65.007587 
L 104.46114 33.872804 
L 106.70703 111.709834 
L 108.95292 65.504587 
L 111.19881 64.872051 
L 113.4447 80.959054 
L 115.69059 33.601685 
L 117.93648 96.255367 
L 120.18237 49.033565 
L 122.42826 33.714634 
L 124.67415 96.594245 
L 126.92004 64.894654 
L 129.16593 17.785769 
" clip-path="url(#p325613c7a5)" style="fill: none; stroke: #dd8452; stroke-width: 1.2; stroke-linecap: round"/>
   </g>
   <g id="line2d_15">
    <path d="M 48.31389 174.612 
L 50.55978 174.612 
L 52.80567 174.612 
L 55.05156 174.612 
L 57.29745 174.612 
L 59.54334 174.612 
L 61.78923 174.612 
L 64.03512 174.612 
L 66.28101 174.612 
L 68.5269 174.612 
L 70.77279 174.612 
L 73.01868 174.612 
L 75.26457 174.612 
L 77.51046 174.612 
L 79.75635 174.612 
L 82.00224 174.612 
L 84.24813 174.612 
L 86.49402 174.612 
L 88.73991 174.612 
L 90.9858 174.612 
L 93.23169 174.612 
L 95.47758 174.612 
L 97.72347 174.612 
L 99.96936 174.612 
L 102.21525 174.612 
L 104.46114 174.612 
L 106.70703 174.612 
L 108.95292 174.612 
L 111.19881 174.612 
L 113.4447 174.612 
L 115.69059 174.612 
L 117.93648 174.612 
L 120.18237 174.612 
L 122.42826 159.021998 
L 124.67415 174.612 
L 126.92004 174.612 
L 129.16593 174.612 
L 131.41182 174.612 
L 133.65771 65.2335 
L 135.9036 158.999411 
L 138.14949 50.230877 
L 140.39538 96.955694 
L 142.64127 33.466149 
L 144.88716 49.937188 
L 147.13305 49.80162 
L 149.37894 80.891278 
L 151.62483 64.894654 
L 153.87072 33.579098 
L 156.11661 80.755727 
L 158.3625 65.527174 
L 160.60839 95.961678 
L 162.85428 49.259463 
L 165.10017 96.255367 
L 167.34606 65.097965 
L 169.59195 96.503867 
L 171.83784 80.100605 
L 174.08373 80.145778 
L 176.32962 65.007587 
L 178.57551 96.368316 
L 180.8214 80.100605 
L 183.06729 49.55312 
L 185.31318 33.556528 
L 187.55907 80.5524 
L 189.80496 111.73242 
L 192.05085 80.529813 
L 194.29674 80.303916 
L 196.54263 49.010979 
L 198.78852 33.895374 
L 201.03441 49.304652 
L 203.2803 80.462054 
L 205.52619 49.372428 
L 207.77208 34.008339 
L 210.01797 33.420944 
L 212.26386 49.146498 
L 214.50975 49.575723 
L 216.75564 49.46279 
L 219.00153 49.282049 
L 221.24742 49.462774 
L 223.49331 64.623551 
L 225.7392 33.805012 
L 227.98509 33.850201 
L 230.23098 48.491392 
L 232.47687 64.962446 
L 234.72276 49.756447 
L 236.96865 65.007603 
L 239.21454 143.522358 
L 241.46043 80.439467 
L 243.70632 80.507243 
L 245.95221 49.123927 
L 248.1981 80.507243 
L 250.44399 96.54904 
L 252.68988 80.687967 
L 254.93577 48.943203 
L 257.18166 33.488736 
L 259.42755 49.056152 
L 261.67344 49.304668 
L 263.91933 64.826878 
L 266.16522 48.830238 
L 268.41111 33.66946 
L 270.657 64.917225 
" clip-path="url(#p325613c7a5)" style="fill: none; stroke: #55a868; stroke-width: 1.2; stroke-linecap: round"/>
   </g>
   <g id="line2d_16">
    <path d="M 48.31389 174.612 
L 50.55978 174.612 
L 52.80567 174.612 
L 55.05156 174.612 
L 57.29745 174.612 
L 59.54334 174.612 
L 61.78923 174.612 
L 64.03512 174.612 
L 66.28101 174.612 
L 68.5269 174.612 
L 70.77279 174.612 
L 73.01868 174.612 
L 75.26457 174.612 
L 77.51046 174.612 
L 79.75635 174.612 
L 82.00224 174.612 
L 84.24813 174.612 
L 86.49402 174.612 
L 88.73991 159.021998 
L 90.9858 96.006883 
L 93.23169 80.575019 
L 95.47758 127.593493 
L 97.72347 49.417601 
L 99.96936 64.962414 
L 102.21525 127.932356 
L 104.46114 80.823503 
L 106.70703 64.962414 
L 108.95292 33.646874 
L 111.19881 64.600965 
L 113.4447 65.007619 
L 115.69059 49.666101 
L 117.93648 64.71393 
L 120.18237 49.236876 
L 122.42826 64.872051 
L 124.67415 49.078738 
L 126.92004 33.195063 
L 129.16593 49.236876 
L 131.41182 49.395014 
L 133.65771 96.323143 
L 135.9036 33.17246 
L 138.14949 80.597605 
L 140.39538 96.323143 
L 142.64127 96.255367 
L 144.88716 80.733156 
L 147.13305 65.27869 
L 149.37894 33.353217 
L 151.62483 65.27869 
L 153.87072 64.826878 
L 156.11661 64.533205 
L 158.3625 49.010962 
L 160.60839 49.236876 
L 162.85428 80.687967 
L 165.10017 49.643498 
L 167.34606 80.416864 
L 169.59195 96.255351 
L 171.83784 80.891262 
L 174.08373 48.694687 
L 176.32962 96.142418 
L 178.57551 49.282033 
L 180.8214 49.010946 
L 183.06729 127.390198 
L 185.31318 33.940579 
L 187.55907 80.484672 
L 189.80496 64.939827 
L 192.05085 33.71465 
L 194.29674 64.849465 
L 196.54263 96.277953 
L 198.78852 96.097229 
L 201.03441 96.23278 
L 203.2803 112.048696 
L 205.52619 96.187591 
L 207.77208 64.352464 
L 210.01797 96.05204 
L 212.26386 33.353169 
L 214.50975 80.326502 
L 216.75564 80.936468 
L 219.00153 49.507947 
L 221.24742 80.575002 
L 223.49331 49.169117 
L 225.7392 80.959054 
L 227.98509 64.962414 
L 230.23098 80.145778 
L 232.47687 95.939107 
L 234.72276 17.763182 
" clip-path="url(#p325613c7a5)" style="fill: none; stroke: #c44e52; stroke-width: 1.2; stroke-linecap: round"/>
   </g>
   <g id="line2d_17">
    <path d="M 48.31389 174.612 
L 50.55978 174.612 
L 52.80567 174.612 
L 55.05156 174.612 
L 57.29745 174.612 
L 59.54334 174.612 
L 61.78923 174.612 
L 64.03512 174.612 
L 66.28101 174.612 
L 68.5269 174.612 
L 70.77279 174.612 
L 73.01868 174.612 
L 75.26457 174.612 
L 77.51046 174.612 
L 79.75635 174.612 
L 82.00224 174.612 
L 84.24813 174.612 
L 86.49402 127.706442 
L 88.73991 127.683855 
L 90.9858 174.612 
L 93.23169 64.691327 
L 95.47758 111.935731 
L 97.72347 81.320503 
L 99.96936 65.346481 
L 102.21525 96.300556 
L 104.46114 65.346465 
L 106.70703 80.597589 
L 108.95292 33.42096 
L 111.19881 64.600981 
L 113.4447 49.688671 
L 115.69059 80.755743 
L 117.93648 80.73314 
L 120.18237 80.846089 
L 122.42826 65.301276 
L 124.67415 49.485376 
L 126.92004 112.477921 
L 129.16593 64.781689 
L 131.41182 33.466149 
L 133.65771 48.898014 
L 135.9036 80.416881 
L 138.14949 48.988392 
L 140.39538 49.982345 
L 142.64127 65.165725 
L 144.88716 49.191687 
L 147.13305 33.985736 
L 149.37894 80.575002 
L 151.62483 18.079474 
" clip-path="url(#p325613c7a5)" style="fill: none; stroke: #8172b3; stroke-width: 1.2; stroke-linecap: round"/>
   </g>
   <g id="line2d_18"/>
   <g id="line2d_19"/>
   <g id="line2d_20"/>
   <g id="line2d_21"/>
   <g id="line2d_22"/>
   <g id="patch_3">
    <path d="M 46.068 174.612 
L 46.068 13.968 
" style="fill: none; stroke: #ffffff; stroke-linejoin: miter; stroke-linecap: square"/>
   </g>
   <g id="patch_4">
    <path d="M 270.657 174.612 
L 270.657 13.968 
" style="fill: none; stroke: #ffffff; stroke-linejoin: miter; stroke-linecap: square"/>
   </g>
   <g id="patch_5">
    <path d="M 46.068 174.612 
L 270.657 174.612 
" style="fill: none; stroke: #ffffff; stroke-linejoin: miter; stroke-linecap: square"/>
   </g>
   <g id="patch_6">
    <path d="M 46.068 13.968 
L 270.657 13.968 
" style="fill: none; stroke: #ffffff; stroke-linejoin: miter; stroke-linecap: square"/>
   </g>
   <g id="legend_1">
    <g id="patch_7">
     <path d="M 52.228 99.28275 
L 85.987 99.28275 
Q 87.747 99.28275 87.747 97.52275 
L 87.747 20.128 
Q 87.747 18.368 85.987 18.368 
L 52.228 18.368 
Q 50.468 18.368 50.468 20.128 
L 50.468 97.52275 
Q 50.468 99.28275 52.228 99.28275 
z
" style="fill: #eaeaf2; opacity: 0.8; stroke: #cccccc; stroke-width: 0.8; stroke-linejoin: miter"/>
    </g>
    <g id="text_16">
     <!-- Seed -->
     <g style="fill: #262626" transform="translate(57.106 29.1825) scale(0.096 -0.096)">
      <defs>
       <path id="DejaVuSans-64" d="M 2906 2969 
L 2906 4863 
L 3481 4863 
L 3481 0 
L 2906 0 
L 2906 525 
Q 2725 213 2448 61 
Q 2172 -91 1784 -91 
Q 1150 -91 751 415 
Q 353 922 353 1747 
Q 353 2572 751 3078 
Q 1150 3584 1784 3584 
Q 2172 3584 2448 3432 
Q 2725 3281 2906 2969 
z
M 947 1747 
Q 947 1113 1208 752 
Q 1469 391 1925 391 
Q 2381 391 2643 752 
Q 2906 1113 2906 1747 
Q 2906 2381 2643 2742 
Q 2381 3103 1925 3103 
Q 1469 3103 1208 2742 
Q 947 2381 947 1747 
z
" transform="scale(0.015625)"/>
      </defs>
      <use xlink:href="#DejaVuSans-53"/>
      <use xlink:href="#DejaVuSans-65" x="63.476562"/>
      <use xlink:href="#DejaVuSans-65" x="125"/>
      <use xlink:href="#DejaVuSans-64" x="186.523438"/>
     </g>
    </g>
    <g id="line2d_23">
     <path d="M 53.988 39.185625 
L 62.788 39.185625 
L 71.588 39.185625 
" style="fill: none; stroke: #4c72b0; stroke-width: 1.2; stroke-linecap: round"/>
    </g>
    <g id="text_17">
     <!-- 0 -->
     <g style="fill: #262626" transform="translate(78.628 42.265625) scale(0.088 -0.088)">
      <use xlink:href="#DejaVuSans-30"/>
     </g>
    </g>
    <g id="line2d_24">
     <path d="M 53.988 52.102375 
L 62.788 52.102375 
L 71.588 52.102375 
" style="fill: none; stroke: #dd8452; stroke-width: 1.2; stroke-linecap: round"/>
    </g>
    <g id="text_18">
     <!-- 1 -->
     <g style="fill: #262626" transform="translate(78.628 55.182375) scale(0.088 -0.088)">
      <use xlink:href="#DejaVuSans-31"/>
     </g>
    </g>
    <g id="line2d_25">
     <path d="M 53.988 65.019125 
L 62.788 65.019125 
L 71.588 65.019125 
" style="fill: none; stroke: #55a868; stroke-width: 1.2; stroke-linecap: round"/>
    </g>
    <g id="text_19">
     <!-- 2 -->
     <g style="fill: #262626" transform="translate(78.628 68.099125) scale(0.088 -0.088)">
      <use xlink:href="#DejaVuSans-32"/>
     </g>
    </g>
    <g id="line2d_26">
     <path d="M 53.988 77.935875 
L 62.788 77.935875 
L 71.588 77.935875 
" style="fill: none; stroke: #c44e52; stroke-width: 1.2; stroke-linecap: round"/>
    </g>
    <g id="text_20">
     <!-- 3 -->
     <g style="fill: #262626" transform="translate(78.628 81.015875) scale(0.088 -0.088)">
      <defs>
       <path id="DejaVuSans-33" d="M 2597 2516 
Q 3050 2419 3304 2112 
Q 3559 1806 3559 1356 
Q 3559 666 3084 287 
Q 2609 -91 1734 -91 
Q 1441 -91 1130 -33 
Q 819 25 488 141 
L 488 750 
Q 750 597 1062 519 
Q 1375 441 1716 441 
Q 2309 441 2620 675 
Q 2931 909 2931 1356 
Q 2931 1769 2642 2001 
Q 2353 2234 1838 2234 
L 1294 2234 
L 1294 2753 
L 1863 2753 
Q 2328 2753 2575 2939 
Q 2822 3125 2822 3475 
Q 2822 3834 2567 4026 
Q 2313 4219 1838 4219 
Q 1578 4219 1281 4162 
Q 984 4106 628 3988 
L 628 4550 
Q 988 4650 1302 4700 
Q 1616 4750 1894 4750 
Q 2613 4750 3031 4423 
Q 3450 4097 3450 3541 
Q 3450 3153 3228 2886 
Q 3006 2619 2597 2516 
z
" transform="scale(0.015625)"/>
      </defs>
      <use xlink:href="#DejaVuSans-33"/>
     </g>
    </g>
    <g id="line2d_27">
     <path d="M 53.988 90.852625 
L 62.788 90.852625 
L 71.588 90.852625 
" style="fill: none; stroke: #8172b3; stroke-width: 1.2; stroke-linecap: round"/>
    </g>
    <g id="text_21">
     <!-- 4 -->
     <g style="fill: #262626" transform="translate(78.628 93.932625) scale(0.088 -0.088)">
      <use xlink:href="#DejaVuSans-34"/>
     </g>
    </g>
   </g>
  </g>
 </g>
 <defs>
  <clipPath id="p325613c7a5">
   <rect x="46.068" y="13.968" width="224.589" height="160.644"/>
  </clipPath>
 </defs>
</svg>
