<?xml version="1.0" encoding="utf-8" standalone="no"?>
<!DOCTYPE svg PUBLIC "-//W3C//DTD SVG 1.1//EN"
  "http://www.w3.org/Graphics/SVG/1.1/DTD/svg11.dtd">
<svg xmlns:xlink="http://www.w3.org/1999/xlink" width="288pt" height="180pt" viewBox="0 0 288 180" xmlns="http://www.w3.org/2000/svg" version="1.1">
 <metadata>
  <rdf:RDF xmlns:dc="http://purl.org/dc/elements/1.1/" xmlns:cc="http://creativecommons.org/ns#" xmlns:rdf="http://www.w3.org/1999/02/22-rdf-syntax-ns#">
   <cc:Work>
    <dc:type rdf:resource="http://purl.org/dc/dcmitype/StillImage"/>
    <dc:date>1980-01-01T00:00:00+00:00</dc:date>
    <dc:format>image/svg+xml</dc:format>
    <dc:creator>
     <cc:Agent>
      <dc:title>Matplotlib v3.9.2, https://matplotlib.org/</dc:title>
     </cc:Agent>
    </dc:creator>
   </cc:Work>
  </rdf:RDF>
 </metadata>
 <defs>
  <style type="text/css">*{stroke-linejoin: round; stroke-linecap: butt}</style>
 </defs>
 <g id="figure_1">
  <g id="patch_1">
   <path d="M 0 180 
L 288 180 
L 288 0 
L 0 0 
z
" style="fill: #ffffff"/>
  </g>
  <g id="axes_1">
   <g id="patch_2">
    <path d="M 46.068 138.612 
L 270.657 138.612 
L 270.657 13.968 
L 46.068 13.968 
z
" style="fill: #eaeaf2"/>
   </g>
   <g id="matplotlib.axis_1">
    <g id="xtick_1">
     <g id="line2d_1">
      <path d="M 46.068 138.612 
L 46.068 13.968 
" clip-path="url(#p89ea6963fb)" style="fill: none; stroke: #ffffff; stroke-width: 0.8; stroke-linecap: round"/>
     </g>
     <g id="text_1">
      <!-- 0.0 -->
      <g style="fill: #262626" transform="translate(39.070625 153.598625) scale(0.088 -0.088)">
       <defs>
        <path id="DejaVuSans-30" d="M 2034 4250 
Q 1547 4250 1301 3770 
Q 1056 3291 1056 2328 
Q 1056 1369 1301 889 
Q 1547 409 2034 409 
Q 2525 409 2770 889 
Q 3016 1369 3016 2328 
Q 3016 3291 2770 3770 
Q 2525 4250 2034 4250 
z
M 2034 4750 
Q 2819 4750 3233 4129 
Q 3647 3509 3647 2328 
Q 3647 1150 3233 529 
Q 2819 -91 2034 -91 
Q 1250 -91 836 529 
Q 422 1150 422 2328 
Q 422 3509 836 4129 
Q 1250 4750 2034 4750 
z
" transform="scale(0.015625)"/>
        <path id="DejaVuSans-2e" d="M 684 794 
L 1344 794 
L 1344 0 
L 684 0 
L 684 794 
z
" transform="scale(0.015625)"/>
       </defs>
       <use xlink:href="#DejaVuSans-30"/>
       <use xlink:href="#DejaVuSans-2e" x="63.623047"/>
       <use xlink:href="#DejaVuSans-30" x="95.410156"/>
      </g>
     </g>
    </g>
    <g id="xtick_2">
     <g id="line2d_2">
      <path d="M 90.9858 138.612 
L 90.9858 13.968 
" clip-path="url(#p89ea6963fb)" style="fill: none; stroke: #ffffff; stroke-width: 0.8; stroke-linecap: round"/>
     </g>
     <g id="text_2">
      <!-- 0.2 -->
      <g style="fill: #262626" transform="translate(83.988425 153.598625) scale(0.088 -0.088)">
       <defs>
        <path id="DejaVuSans-32" d="M 1228 531 
L 3431 531 
L 3431 0 
L 469 0 
L 469 531 
Q 828 903 1448 1529 
Q 2069 2156 2228 2338 
Q 2531 2678 2651 2914 
Q 2772 3150 2772 3378 
Q 2772 3750 2511 3984 
Q 2250 4219 1831 4219 
Q 1534 4219 1204 4116 
Q 875 4013 500 3803 
L 500 4441 
Q 881 4594 1212 4672 
Q 1544 4750 1819 4750 
Q 2544 4750 2975 4387 
Q 3406 4025 3406 3419 
Q 3406 3131 3298 2873 
Q 3191 2616 2906 2266 
Q 2828 2175 2409 1742 
Q 1991 1309 1228 531 
z
" transform="scale(0.015625)"/>
       </defs>
       <use xlink:href="#DejaVuSans-30"/>
       <use xlink:href="#DejaVuSans-2e" x="63.623047"/>
       <use xlink:href="#DejaVuSans-32" x="95.410156"/>
      </g>
     </g>
    </g>
    <g id="xtick_3">
     <g id="line2d_3">
      <path d="M 135.9036 138.612 
L 135.9036 13.968 
" clip-path="url(#p89ea6963fb)" style="fill: none; stroke: #ffffff; stroke-width: 0.8; stroke-linecap: round"/>
     </g>
     <g id="text_3">
      <!-- 0.4 -->
      <g style="fill: #262626" transform="translate(128.906225 153.598625) scale(0.088 -0.088)">
       <defs>
        <path id="DejaVuSans-34" d="M 2419 4116 
L 825 1625 
L 2419 1625 
L 2419 4116 
z
M 2253 4666 
L 3047 4666 
L 3047 1625 
L 3713 1625 
L 3713 1100 
L 3047 1100 
L 3047 0 
L 2419 0 
L 2419 1100 
L 313 1100 
L 313 1709 
L 2253 4666 
z
" transform="scale(0.015625)"/>
       </defs>
       <use xlink:href="#DejaVuSans-30"/>
       <use xlink:href="#DejaVuSans-2e" x="63.623047"/>
       <use xlink:href="#DejaVuSans-34" x="95.410156"/>
      </g>
     </g>
    </g>
    <g id="xtick_4">
     <g id="line2d_4">
      <path d="M 180.8214 138.612 
L 180.8214 13.968 
" clip-path="url(#p89ea6963fb)" style="fill: none; stroke: #ffffff; stroke-width: 0.8; stroke-linecap: round"/>
     </g>
     <g id="text_4">
      <!-- 0.6 -->
      <g style="fill: #262626" transform="translate(173.824025 153.598625) scale(0.088 -0.088)">
       <defs>
        <path id="DejaVuSans-36" d="M 2113 2584 
Q 1688 2584 1439 2293 
Q 1191 2003 1191 1497 
Q 1191 994 1439 701 
Q 1688 409 2113 409 
Q 2538 409 2786 701 
Q 3034 994 3034 1497 
Q 3034 2003 2786 2293 
Q 2538 2584 2113 2584 
z
M 3366 4563 
L 3366 3988 
Q 3128 4100 2886 4159 
Q 2644 4219 2406 4219 
Q 1781 4219 1451 3797 
Q 1122 3375 1075 2522 
Q 1259 2794 1537 2939 
Q 1816 3084 2150 3084 
Q 2853 3084 3261 2657 
Q 3669 2231 3669 1497 
Q 3669 778 3244 343 
Q 2819 -91 2113 -91 
Q 1303 -91 875 529 
Q 447 1150 447 2328 
Q 447 3434 972 4092 
Q 1497 4750 2381 4750 
Q 2619 4750 2861 4703 
Q 3103 4656 3366 4563 
z
" transform="scale(0.015625)"/>
       </defs>
       <use xlink:href="#DejaVuSans-30"/>
       <use xlink:href="#DejaVuSans-2e" x="63.623047"/>
       <use xlink:href="#DejaVuSans-36" x="95.410156"/>
      </g>
     </g>
    </g>
    <g id="xtick_5">
     <g id="line2d_5">
      <path d="M 225.7392 138.612 
L 225.7392 13.968 
" clip-path="url(#p89ea6963fb)" style="fill: none; stroke: #ffffff; stroke-width: 0.8; stroke-linecap: round"/>
     </g>
     <g id="text_5">
      <!-- 0.8 -->
      <g style="fill: #262626" transform="translate(218.741825 153.598625) scale(0.088 -0.088)">
       <defs>
        <path id="DejaVuSans-38" d="M 2034 2216 
Q 1584 2216 1326 1975 
Q 1069 1734 1069 1313 
Q 1069 891 1326 650 
Q 1584 409 2034 409 
Q 2484 409 2743 651 
Q 3003 894 3003 1313 
Q 3003 1734 2745 1975 
Q 2488 2216 2034 2216 
z
M 1403 2484 
Q 997 2584 770 2862 
Q 544 3141 544 3541 
Q 544 4100 942 4425 
Q 1341 4750 2034 4750 
Q 2731 4750 3128 4425 
Q 3525 4100 3525 3541 
Q 3525 3141 3298 2862 
Q 3072 2584 2669 2484 
Q 3125 2378 3379 2068 
Q 3634 1759 3634 1313 
Q 3634 634 3220 271 
Q 2806 -91 2034 -91 
Q 1263 -91 848 271 
Q 434 634 434 1313 
Q 434 1759 690 2068 
Q 947 2378 1403 2484 
z
M 1172 3481 
Q 1172 3119 1398 2916 
Q 1625 2713 2034 2713 
Q 2441 2713 2670 2916 
Q 2900 3119 2900 3481 
Q 2900 3844 2670 4047 
Q 2441 4250 2034 4250 
Q 1625 4250 1398 4047 
Q 1172 3844 1172 3481 
z
" transform="scale(0.015625)"/>
       </defs>
       <use xlink:href="#DejaVuSans-30"/>
       <use xlink:href="#DejaVuSans-2e" x="63.623047"/>
       <use xlink:href="#DejaVuSans-38" x="95.410156"/>
      </g>
     </g>
    </g>
    <g id="xtick_6">
     <g id="line2d_6">
      <path d="M 270.657 138.612 
L 270.657 13.968 
" clip-path="url(#p89ea6963fb)" style="fill: none; stroke: #ffffff; stroke-width: 0.8; stroke-linecap: round"/>
     </g>
     <g id="text_6">
      <!-- 1.0 -->
      <g style="fill: #262626" transform="translate(263.659625 153.598625) scale(0.088 -0.088)">
       <defs>
        <path id="DejaVuSans-31" d="M 794 531 
L 1825 531 
L 1825 4091 
L 703 3866 
L 703 4441 
L 1819 4666 
L 2450 4666 
L 2450 531 
L 3481 531 
L 3481 0 
L 794 0 
L 794 531 
z
" transform="scale(0.015625)"/>
       </defs>
       <use xlink:href="#DejaVuSans-31"/>
       <use xlink:href="#DejaVuSans-2e" x="63.623047"/>
       <use xlink:href="#DejaVuSans-30" x="95.410156"/>
      </g>
     </g>
    </g>
    <g id="text_7">
     <!-- Timestep -->
     <g style="fill: #262626" transform="translate(136.23525 166.72325) scale(0.096 -0.096)">
      <defs>
       <path id="DejaVuSans-54" d="M -19 4666 
L 3928 4666 
L 3928 4134 
L 2272 4134 
L 2272 0 
L 1638 0 
L 1638 4134 
L -19 4134 
L -19 4666 
z
" transform="scale(0.015625)"/>
       <path id="DejaVuSans-69" d="M 603 3500 
L 1178 3500 
L 1178 0 
L 603 0 
L 603 3500 
z
M 603 4863 
L 1178 4863 
L 1178 4134 
L 603 4134 
L 603 4863 
z
" transform="scale(0.015625)"/>
       <path id="DejaVuSans-6d" d="M 3328 2828 
Q 3544 3216 3844 3400 
Q 4144 3584 4550 3584 
Q 5097 3584 5394 3201 
Q 5691 2819 5691 2113 
L 5691 0 
L 5113 0 
L 5113 2094 
Q 5113 2597 4934 2840 
Q 4756 3084 4391 3084 
Q 3944 3084 3684 2787 
Q 3425 2491 3425 1978 
L 3425 0 
L 2847 0 
L 2847 2094 
Q 2847 2600 2669 2842 
Q 2491 3084 2119 3084 
Q 1678 3084 1418 2786 
Q 1159 2488 1159 1978 
L 1159 0 
L 581 0 
L 581 3500 
L 1159 3500 
L 1159 2956 
Q 1356 3278 1631 3431 
Q 1906 3584 2284 3584 
Q 2666 3584 2933 3390 
Q 3200 3197 3328 2828 
z
" transform="scale(0.015625)"/>
       <path id="DejaVuSans-65" d="M 3597 1894 
L 3597 1613 
L 953 1613 
Q 991 1019 1311 708 
Q 1631 397 2203 397 
Q 2534 397 2845 478 
Q 3156 559 3463 722 
L 3463 178 
Q 3153 47 2828 -22 
Q 2503 -91 2169 -91 
Q 1331 -91 842 396 
Q 353 884 353 1716 
Q 353 2575 817 3079 
Q 1281 3584 2069 3584 
Q 2775 3584 3186 3129 
Q 3597 2675 3597 1894 
z
M 3022 2063 
Q 3016 2534 2758 2815 
Q 2500 3097 2075 3097 
Q 1594 3097 1305 2825 
Q 1016 2553 972 2059 
L 3022 2063 
z
" transform="scale(0.015625)"/>
       <path id="DejaVuSans-73" d="M 2834 3397 
L 2834 2853 
Q 2591 2978 2328 3040 
Q 2066 3103 1784 3103 
Q 1356 3103 1142 2972 
Q 928 2841 928 2578 
Q 928 2378 1081 2264 
Q 1234 2150 1697 2047 
L 1894 2003 
Q 2506 1872 2764 1633 
Q 3022 1394 3022 966 
Q 3022 478 2636 193 
Q 2250 -91 1575 -91 
Q 1294 -91 989 -36 
Q 684 19 347 128 
L 347 722 
Q 666 556 975 473 
Q 1284 391 1588 391 
Q 1994 391 2212 530 
Q 2431 669 2431 922 
Q 2431 1156 2273 1281 
Q 2116 1406 1581 1522 
L 1381 1569 
Q 847 1681 609 1914 
Q 372 2147 372 2553 
Q 372 3047 722 3315 
Q 1072 3584 1716 3584 
Q 2034 3584 2315 3537 
Q 2597 3491 2834 3397 
z
" transform="scale(0.015625)"/>
       <path id="DejaVuSans-74" d="M 1172 4494 
L 1172 3500 
L 2356 3500 
L 2356 3053 
L 1172 3053 
L 1172 1153 
Q 1172 725 1289 603 
Q 1406 481 1766 481 
L 2356 481 
L 2356 0 
L 1766 0 
Q 1100 0 847 248 
Q 594 497 594 1153 
L 594 3053 
L 172 3053 
L 172 3500 
L 594 3500 
L 594 4494 
L 1172 4494 
z
" transform="scale(0.015625)"/>
       <path id="DejaVuSans-70" d="M 1159 525 
L 1159 -1331 
L 581 -1331 
L 581 3500 
L 1159 3500 
L 1159 2969 
Q 1341 3281 1617 3432 
Q 1894 3584 2278 3584 
Q 2916 3584 3314 3078 
Q 3713 2572 3713 1747 
Q 3713 922 3314 415 
Q 2916 -91 2278 -91 
Q 1894 -91 1617 61 
Q 1341 213 1159 525 
z
M 3116 1747 
Q 3116 2381 2855 2742 
Q 2594 3103 2138 3103 
Q 1681 3103 1420 2742 
Q 1159 2381 1159 1747 
Q 1159 1113 1420 752 
Q 1681 391 2138 391 
Q 2594 391 2855 752 
Q 3116 1113 3116 1747 
z
" transform="scale(0.015625)"/>
      </defs>
      <use xlink:href="#DejaVuSans-54"/>
      <use xlink:href="#DejaVuSans-69" x="57.958984"/>
      <use xlink:href="#DejaVuSans-6d" x="85.742188"/>
      <use xlink:href="#DejaVuSans-65" x="183.154297"/>
      <use xlink:href="#DejaVuSans-73" x="244.677734"/>
      <use xlink:href="#DejaVuSans-74" x="296.777344"/>
      <use xlink:href="#DejaVuSans-65" x="335.986328"/>
      <use xlink:href="#DejaVuSans-70" x="397.509766"/>
     </g>
    </g>
    <g id="text_8">
     <!-- 1e6 -->
     <g style="fill: #262626" transform="translate(254.04425 165.115375) scale(0.088 -0.088)">
      <use xlink:href="#DejaVuSans-31"/>
      <use xlink:href="#DejaVuSans-65" x="63.623047"/>
      <use xlink:href="#DejaVuSans-36" x="125.146484"/>
     </g>
    </g>
   </g>
   <g id="matplotlib.axis_2">
    <g id="ytick_1">
     <g id="line2d_7">
      <path d="M 46.068 138.612 
L 270.657 138.612 
" clip-path="url(#p89ea6963fb)" style="fill: none; stroke: #ffffff; stroke-width: 0.8; stroke-linecap: round"/>
     </g>
     <g id="text_9">
      <!-- 0.0 -->
      <g style="fill: #262626" transform="translate(23.77325 141.955312) scale(0.088 -0.088)">
       <use xlink:href="#DejaVuSans-30"/>
       <use xlink:href="#DejaVuSans-2e" x="63.623047"/>
       <use xlink:href="#DejaVuSans-30" x="95.410156"/>
      </g>
     </g>
    </g>
    <g id="ytick_2">
     <g id="line2d_8">
      <path d="M 46.068 113.6832 
L 270.657 113.6832 
" clip-path="url(#p89ea6963fb)" style="fill: none; stroke: #ffffff; stroke-width: 0.8; stroke-linecap: round"/>
     </g>
     <g id="text_10">
      <!-- 0.2 -->
      <g style="fill: #262626" transform="translate(23.77325 117.026512) scale(0.088 -0.088)">
       <use xlink:href="#DejaVuSans-30"/>
       <use xlink:href="#DejaVuSans-2e" x="63.623047"/>
       <use xlink:href="#DejaVuSans-32" x="95.410156"/>
      </g>
     </g>
    </g>
    <g id="ytick_3">
     <g id="line2d_9">
      <path d="M 46.068 88.7544 
L 270.657 88.7544 
" clip-path="url(#p89ea6963fb)" style="fill: none; stroke: #ffffff; stroke-width: 0.8; stroke-linecap: round"/>
     </g>
     <g id="text_11">
      <!-- 0.4 -->
      <g style="fill: #262626" transform="translate(23.77325 92.097713) scale(0.088 -0.088)">
       <use xlink:href="#DejaVuSans-30"/>
       <use xlink:href="#DejaVuSans-2e" x="63.623047"/>
       <use xlink:href="#DejaVuSans-34" x="95.410156"/>
      </g>
     </g>
    </g>
    <g id="ytick_4">
     <g id="line2d_10">
      <path d="M 46.068 63.8256 
L 270.657 63.8256 
" clip-path="url(#p89ea6963fb)" style="fill: none; stroke: #ffffff; stroke-width: 0.8; stroke-linecap: round"/>
     </g>
     <g id="text_12">
      <!-- 0.6 -->
      <g style="fill: #262626" transform="translate(23.77325 67.168912) scale(0.088 -0.088)">
       <use xlink:href="#DejaVuSans-30"/>
       <use xlink:href="#DejaVuSans-2e" x="63.623047"/>
       <use xlink:href="#DejaVuSans-36" x="95.410156"/>
      </g>
     </g>
    </g>
    <g id="ytick_5">
     <g id="line2d_11">
      <path d="M 46.068 38.8968 
L 270.657 38.8968 
" clip-path="url(#p89ea6963fb)" style="fill: none; stroke: #ffffff; stroke-width: 0.8; stroke-linecap: round"/>
     </g>
     <g id="text_13">
      <!-- 0.8 -->
      <g style="fill: #262626" transform="translate(23.77325 42.240112) scale(0.088 -0.088)">
       <use xlink:href="#DejaVuSans-30"/>
       <use xlink:href="#DejaVuSans-2e" x="63.623047"/>
       <use xlink:href="#DejaVuSans-38" x="95.410156"/>
      </g>
     </g>
    </g>
    <g id="ytick_6">
     <g id="line2d_12">
      <path d="M 46.068 13.968 
L 270.657 13.968 
" clip-path="url(#p89ea6963fb)" style="fill: none; stroke: #ffffff; stroke-width: 0.8; stroke-linecap: round"/>
     </g>
     <g id="text_14">
      <!-- 1.0 -->
      <g style="fill: #262626" transform="translate(23.77325 17.311312) scale(0.088 -0.088)">
       <use xlink:href="#DejaVuSans-31"/>
       <use xlink:href="#DejaVuSans-2e" x="63.623047"/>
       <use xlink:href="#DejaVuSans-30" x="95.410156"/>
      </g>
     </g>
    </g>
    <g id="text_15">
     <!-- Score -->
     <g style="fill: #262626" transform="translate(17.77675 89.73225) rotate(-90) scale(0.096 -0.096)">
      <defs>
       <path id="DejaVuSans-53" d="M 3425 4513 
L 3425 3897 
Q 3066 4069 2747 4153 
Q 2428 4238 2131 4238 
Q 1616 4238 1336 4038 
Q 1056 3838 1056 3469 
Q 1056 3159 1242 3001 
Q 1428 2844 1947 2747 
L 2328 2669 
Q 3034 2534 3370 2195 
Q 3706 1856 3706 1288 
Q 3706 609 3251 259 
Q 2797 -91 1919 -91 
Q 1588 -91 1214 -16 
Q 841 59 441 206 
L 441 856 
Q 825 641 1194 531 
Q 1563 422 1919 422 
Q 2459 422 2753 634 
Q 3047 847 3047 1241 
Q 3047 1584 2836 1778 
Q 2625 1972 2144 2069 
L 1759 2144 
Q 1053 2284 737 2584 
Q 422 2884 422 3419 
Q 422 4038 858 4394 
Q 1294 4750 2059 4750 
Q 2388 4750 2728 4690 
Q 3069 4631 3425 4513 
z
" transform="scale(0.015625)"/>
       <path id="DejaVuSans-63" d="M 3122 3366 
L 3122 2828 
Q 2878 2963 2633 3030 
Q 2388 3097 2138 3097 
Q 1578 3097 1268 2742 
Q 959 2388 959 1747 
Q 959 1106 1268 751 
Q 1578 397 2138 397 
Q 2388 397 2633 464 
Q 2878 531 3122 666 
L 3122 134 
Q 2881 22 2623 -34 
Q 2366 -91 2075 -91 
Q 1284 -91 818 406 
Q 353 903 353 1747 
Q 353 2603 823 3093 
Q 1294 3584 2113 3584 
Q 2378 3584 2631 3529 
Q 2884 3475 3122 3366 
z
" transform="scale(0.015625)"/>
       <path id="DejaVuSans-6f" d="M 1959 3097 
Q 1497 3097 1228 2736 
Q 959 2375 959 1747 
Q 959 1119 1226 758 
Q 1494 397 1959 397 
Q 2419 397 2687 759 
Q 2956 1122 2956 1747 
Q 2956 2369 2687 2733 
Q 2419 3097 1959 3097 
z
M 1959 3584 
Q 2709 3584 3137 3096 
Q 3566 2609 3566 1747 
Q 3566 888 3137 398 
Q 2709 -91 1959 -91 
Q 1206 -91 779 398 
Q 353 888 353 1747 
Q 353 2609 779 3096 
Q 1206 3584 1959 3584 
z
" transform="scale(0.015625)"/>
       <path id="DejaVuSans-72" d="M 2631 2963 
Q 2534 3019 2420 3045 
Q 2306 3072 2169 3072 
Q 1681 3072 1420 2755 
Q 1159 2438 1159 1844 
L 1159 0 
L 581 0 
L 581 3500 
L 1159 3500 
L 1159 2956 
Q 1341 3275 1631 3429 
Q 1922 3584 2338 3584 
Q 2397 3584 2469 3576 
Q 2541 3569 2628 3553 
L 2631 2963 
z
" transform="scale(0.015625)"/>
      </defs>
      <use xlink:href="#DejaVuSans-53"/>
      <use xlink:href="#DejaVuSans-63" x="63.476562"/>
      <use xlink:href="#DejaVuSans-6f" x="118.457031"/>
      <use xlink:href="#DejaVuSans-72" x="179.638672"/>
      <use xlink:href="#DejaVuSans-65" x="218.501953"/>
     </g>
    </g>
   </g>
   <g id="PolyCollection_1">
    <defs>
     <path id="m146eba1ac7" d="M 48.31389 -41.388 
L 48.31389 -41.388 
L 50.55978 -41.388 
L 52.80567 -41.388 
L 55.05156 -41.388 
L 57.29745 -41.388 
L 59.54334 -41.388 
L 61.78923 -41.388 
L 64.03512 -41.388 
L 66.28101 -41.388 
L 68.5269 -41.388 
L 70.77279 -41.388 
L 73.01868 -41.388 
L 75.26457 -41.388 
L 77.51046 -41.388 
L 79.75635 -41.388 
L 82.00224 -41.388 
L 84.24813 -41.388 
L 86.49402 -41.388 
L 88.73991 -43.782723 
L 90.9858 -46.135376 
L 93.23169 -43.82479 
L 95.47758 -55.865012 
L 97.72347 -65.538558 
L 99.96936 -65.591135 
L 102.21525 -58.420994 
L 104.46114 -77.782101 
L 106.70703 -70.410639 
L 108.95292 -80.194356 
L 111.19881 -75.489043 
L 113.4447 -72.929553 
L 115.69059 -77.834688 
L 117.93648 -70.524318 
L 120.18237 -75.425154 
L 122.42826 -82.697756 
L 124.67415 -80.222399 
L 126.92004 -70.313974 
L 129.16593 -75.408413 
L 131.41182 -80.327568 
L 133.65771 -119.133922 
L 135.9036 -87.599374 
L 138.14949 -128.658909 
L 140.39538 -109.127345 
L 142.64127 -116.753227 
L 144.88716 -128.681261 
L 147.13305 -135.879462 
L 149.37894 -121.58123 
L 151.62483 -133.649499 
L 153.87072 -141.114111 
L 156.11661 -126.454813 
L 158.3625 -135.988134 
L 160.60839 -121.794821 
L 162.85428 -128.891598 
L 165.10017 -121.59526 
L 167.34606 -126.524928 
L 169.59195 -114.235804 
L 171.83784 -123.97596 
L 174.08373 -133.992792 
L 176.32962 -121.540389 
L 178.57551 -121.59877 
L 180.8214 -129.203604 
L 183.06729 -111.988309 
L 185.31318 -153.056166 
L 187.55907 -124.084625 
L 189.80496 -112.0161 
L 192.05085 -131.387735 
L 194.29674 -126.661386 
L 196.54263 -121.682899 
L 198.78852 -126.556475 
L 201.03441 -121.647835 
L 203.2803 -109.449856 
L 205.52619 -121.668614 
L 207.77208 -141.065034 
L 210.01797 -126.484079 
L 212.26386 -146.043796 
L 214.50975 -129.02132 
L 216.75564 -128.754881 
L 219.00153 -143.403677 
L 221.24742 -128.92316 
L 223.49331 -136.384265 
L 225.7392 -133.508996 
L 227.98509 -138.603706 
L 230.23098 -129.273459 
L 232.47687 -119.354769 
L 234.72276 -148.143958 
L 236.96865 -141.065032 
L 239.21454 -104.478124 
L 241.46043 -133.891122 
L 243.70632 -133.859833 
L 245.95221 -148.459537 
L 248.1981 -133.849311 
L 250.44399 -126.360078 
L 252.68988 -133.740643 
L 254.93577 -148.522644 
L 257.18166 -155.717247 
L 259.42755 -148.470062 
L 261.67344 -148.385917 
L 263.91933 -141.124371 
L 266.16522 -148.571729 
L 268.41111 -155.633113 
L 270.657 -141.082574 
L 270.657 -163.062856 
L 270.657 -163.062856 
L 268.41111 -163.062856 
L 266.16522 -163.062768 
L 263.91933 -163.062768 
L 261.67344 -163.066273 
L 259.42755 -163.066273 
L 257.18166 -163.062768 
L 254.93577 -163.066273 
L 252.68988 -163.066273 
L 250.44399 -163.066273 
L 248.1981 -163.066273 
L 245.95221 -163.066273 
L 243.70632 -163.066273 
L 241.46043 -163.062768 
L 239.21454 -163.066273 
L 236.96865 -163.066273 
L 234.72276 -163.069778 
L 232.47687 -163.003163 
L 230.23098 -163.003163 
L 227.98509 -162.992641 
L 225.7392 -162.992641 
L 223.49331 -163.003163 
L 221.24742 -163.003163 
L 219.00153 -163.003163 
L 216.75564 -162.992641 
L 214.50975 -163.003163 
L 212.26386 -163.003426 
L 210.01797 -162.992904 
L 207.77208 -163.003163 
L 205.52619 -163.003163 
L 203.2803 -163.013686 
L 201.03441 -162.992641 
L 198.78852 -162.992904 
L 196.54263 -163.003163 
L 194.29674 -163.003163 
L 192.05085 -162.992641 
L 189.80496 -163.003163 
L 187.55907 -162.992904 
L 185.31318 -163.003163 
L 183.06729 -162.992641 
L 180.8214 -163.003163 
L 178.57551 -163.003163 
L 176.32962 -162.992904 
L 174.08373 -162.992904 
L 171.83784 -163.013686 
L 169.59195 -162.992641 
L 167.34606 -162.992641 
L 165.10017 -163.003163 
L 162.85428 -162.992641 
L 160.60839 -163.003163 
L 158.3625 -163.003163 
L 156.11661 -163.003163 
L 153.87072 -162.992641 
L 151.62483 -163.003163 
L 149.37894 -158.297865 
L 147.13305 -160.514041 
L 144.88716 -158.175158 
L 142.64127 -160.605194 
L 140.39538 -158.052463 
L 138.14949 -158.206705 
L 135.9036 -160.661028 
L 133.65771 -158.22073 
L 131.41182 -153.298075 
L 129.16593 -146.015749 
L 126.92004 -136.349208 
L 124.67415 -138.614226 
L 122.42826 -140.973899 
L 120.18237 -133.945292 
L 117.93648 -121.763519 
L 115.69059 -143.123221 
L 113.4447 -131.023409 
L 111.19881 -126.703712 
L 108.95292 -145.945634 
L 106.70703 -119.187128 
L 104.46114 -145.675863 
L 102.21525 -109.42244 
L 99.96936 -119.05329 
L 97.72347 -123.67815 
L 95.47758 -82.729922 
L 93.23169 -107.153298 
L 90.9858 -85.190629 
L 88.73991 -65.654247 
L 86.49402 -63.22447 
L 84.24813 -41.388 
L 82.00224 -41.388 
L 79.75635 -41.388 
L 77.51046 -41.388 
L 75.26457 -41.388 
L 73.01868 -41.388 
L 70.77279 -41.388 
L 68.5269 -41.388 
L 66.28101 -41.388 
L 64.03512 -41.388 
L 61.78923 -41.388 
L 59.54334 -41.388 
L 57.29745 -41.388 
L 55.05156 -41.388 
L 52.80567 -41.388 
L 50.55978 -41.388 
L 48.31389 -41.388 
z
" style="stroke: #4c72b0; stroke-opacity: 0.2; stroke-width: 0.8"/>
    </defs>
    <g clip-path="url(#p89ea6963fb)">
     <use xlink:href="#m146eba1ac7" x="0" y="180" style="fill: #4c72b0; fill-opacity: 0.2; stroke: #4c72b0; stroke-opacity: 0.2; stroke-width: 0.8"/>
    </g>
   </g>
   <g id="PolyCollection_2">
    <defs>
     <path id="mfca3a54ff6" d="M 48.31389 -41.388 
L 48.31389 -41.388 
L 50.55978 -41.388 
L 52.80567 -41.388 
L 55.05156 -41.388 
L 57.29745 -41.388 
L 59.54334 -41.388 
L 61.78923 -41.388 
L 64.03512 -41.388 
L 66.28101 -41.388 
L 68.5269 -41.388 
L 70.77279 -41.388 
L 73.01868 -41.388 
L 75.26457 -41.388 
L 77.51046 -41.388 
L 79.75635 -41.388 
L 82.00224 -41.388 
L 84.24813 -43.730138 
L 86.49402 -41.388 
L 88.73991 -46.261583 
L 90.9858 -46.237043 
L 93.23169 -58.245712 
L 95.47758 -60.7421 
L 97.72347 -55.938629 
L 99.96936 -63.21395 
L 102.21525 -63.09826 
L 104.46114 -70.520808 
L 106.70703 -65.629707 
L 108.95292 -72.859446 
L 111.19881 -65.601658 
L 113.4447 -70.496273 
L 115.69059 -65.67177 
L 117.93648 -68.132213 
L 120.18237 -68.168157 
L 122.42826 -68.109784 
L 124.67415 -80.089184 
L 126.92004 -65.692805 
L 129.16593 -63.252507 
L 131.41182 -68.157637 
L 133.65771 -82.697921 
L 135.9036 -72.96111 
L 138.14949 -102.150011 
L 140.39538 -111.686835 
L 142.64127 -87.486764 
L 144.88716 -102.044831 
L 147.13305 -85.194134 
L 149.37894 -97.24138 
L 151.62483 -97.241375 
L 153.87072 -111.827052 
L 156.11661 -114.369019 
L 158.3625 -92.455432 
L 160.60839 -116.88924 
L 162.85428 -92.493994 
L 165.10017 -107.009571 
L 167.34606 -104.64991 
L 169.59195 -92.336242 
L 171.83784 -109.204465 
L 174.08373 -111.907686 
L 176.32962 -119.035755 
L 178.57551 -116.830354 
L 180.8214 -128.926655 
L 183.06729 -124.091645 
L 185.31318 -124.116182 
L 187.55907 -119.144432 
L 189.80496 -114.323442 
L 192.05085 -114.151667 
L 194.29674 -128.744371 
L 196.54263 -111.802514 
L 198.78852 -131.265291 
L 201.03441 -109.484225 
L 203.2803 -133.782721 
L 205.52619 -128.996066 
L 207.77208 -128.954708 
L 210.01797 -111.939231 
L 212.26386 -133.852831 
L 214.50975 -126.672155 
L 216.75564 -124.16526 
L 219.00153 -126.465318 
L 221.24742 -128.719821 
L 223.49331 -133.842318 
L 225.7392 -153.154335 
L 227.98509 -141.152671 
L 230.23098 -141.029984 
L 232.47687 -140.865222 
L 234.72276 -140.949342 
L 236.96865 -148.168575 
L 239.21454 -140.791412 
L 241.46043 -162.729724 
L 241.46043 -162.883974 
L 241.46043 -162.883974 
L 239.21454 -162.835074 
L 236.96865 -162.835074 
L 234.72276 -162.841906 
L 232.47687 -162.841906 
L 230.23098 -162.841906 
L 227.98509 -162.841906 
L 225.7392 -162.820866 
L 223.49331 -162.828225 
L 221.24742 -162.820866 
L 219.00153 -162.814034 
L 216.75564 -162.813859 
L 214.50975 -162.813859 
L 212.26386 -162.813859 
L 210.01797 -162.820866 
L 207.77208 -162.820866 
L 205.52619 -162.813859 
L 203.2803 -162.820866 
L 201.03441 -162.820866 
L 198.78852 -162.820866 
L 196.54263 -162.820866 
L 194.29674 -162.820866 
L 192.05085 -158.007577 
L 189.80496 -158.052451 
L 187.55907 -158.006881 
L 185.31318 -157.922746 
L 183.06729 -158.066478 
L 180.8214 -155.626188 
L 178.57551 -150.945417 
L 176.32962 -148.347362 
L 174.08373 -150.74209 
L 171.83784 -153.220958 
L 169.59195 -143.382642 
L 167.34606 -128.863556 
L 165.10017 -136.208989 
L 162.85428 -136.373755 
L 160.60839 -138.593196 
L 158.3625 -141.06555 
L 156.11661 -138.628254 
L 153.87072 -138.572149 
L 151.62483 -131.56345 
L 149.37894 -124.02853 
L 147.13305 -133.779203 
L 144.88716 -123.902338 
L 142.64127 -123.653872 
L 140.39538 -131.493165 
L 138.14949 -128.734469 
L 135.9036 -128.972243 
L 133.65771 -131.345936 
L 131.41182 -121.598757 
L 129.16593 -104.695921 
L 126.92004 -121.493585 
L 124.67415 -131.261781 
L 122.42826 -131.406577 
L 120.18237 -141.202378 
L 117.93648 -119.270649 
L 115.69059 -109.462134 
L 113.4447 -119.186507 
L 111.19881 -128.712824 
L 108.95292 -123.579817 
L 106.70703 -118.976183 
L 104.46114 -119.288174 
L 102.21525 -109.218502 
L 99.96936 -123.828731 
L 97.72347 -96.988964 
L 95.47758 -101.873067 
L 93.23169 -96.897817 
L 90.9858 -80.190939 
L 88.73991 -75.257671 
L 86.49402 -51.138671 
L 84.24813 -58.420994 
L 82.00224 -48.740438 
L 79.75635 -51.107121 
L 77.51046 -41.388 
L 75.26457 -41.388 
L 73.01868 -41.388 
L 70.77279 -55.798404 
L 68.5269 -41.388 
L 66.28101 -41.388 
L 64.03512 -41.388 
L 61.78923 -41.388 
L 59.54334 -41.388 
L 57.29745 -41.388 
L 55.05156 -41.388 
L 52.80567 -41.388 
L 50.55978 -41.388 
L 48.31389 -41.388 
z
" style="stroke: #dd8452; stroke-opacity: 0.2; stroke-width: 0.8"/>
    </defs>
    <g clip-path="url(#p89ea6963fb)">
     <use xlink:href="#mfca3a54ff6" x="0" y="180" style="fill: #dd8452; fill-opacity: 0.2; stroke: #dd8452; stroke-opacity: 0.2; stroke-width: 0.8"/>
    </g>
   </g>
   <g id="PolyCollection_3">
    <defs>
     <path id="m0a8e0365cb" d="M 48.31389 -41.388 
L 48.31389 -41.388 
L 50.55978 -41.388 
L 52.80567 -41.388 
L 55.05156 -41.388 
L 57.29745 -41.388 
L 59.54334 -41.388 
L 61.78923 -41.388 
L 64.03512 -41.388 
L 66.28101 -41.388 
L 68.5269 -41.388 
L 70.77279 -41.388 
L 73.01868 -41.388 
L 75.26457 -41.388 
L 77.51046 -41.388 
L 79.75635 -41.388 
L 82.00224 -41.388 
L 84.24813 -41.388 
L 86.49402 -41.388 
L 88.73991 -41.388 
L 90.9858 -41.388 
L 93.23169 -41.388 
L 95.47758 -41.388 
L 97.72347 -41.388 
L 99.96936 -41.388 
L 102.21525 -41.388 
L 104.46114 -41.388 
L 106.70703 -48.628258 
L 108.95292 -48.579181 
L 111.19881 -58.217662 
L 113.4447 -60.812214 
L 115.69059 -63.15435 
L 117.93648 -60.738592 
L 120.18237 -53.529881 
L 122.42826 -63.199922 
L 124.67415 -77.798144 
L 126.92004 -65.713832 
L 129.16593 -65.682285 
L 131.41182 -77.743539 
L 133.65771 -80.180339 
L 135.9036 -80.178488 
L 138.14949 -80.162799 
L 140.39538 -82.655684 
L 142.64127 -80.166309 
L 144.88716 -87.415244 
L 147.13305 -77.824173 
L 149.37894 -82.715289 
L 151.62483 -85.194141 
L 153.87072 -72.926053 
L 156.11661 -89.885425 
L 158.3625 -106.980374 
L 160.60839 -75.401403 
L 162.85428 -104.439559 
L 165.10017 -106.911399 
L 167.34606 -104.481626 
L 169.59195 -133.127151 
L 171.83784 -143.070633 
L 174.08373 -109.369236 
L 176.32962 -126.360163 
L 178.57551 -133.617944 
L 180.8214 -126.507398 
L 183.06729 -148.186105 
L 185.31318 -148.186105 
L 187.55907 -148.091095 
L 189.80496 -133.649489 
L 192.05085 -141.117621 
L 194.29674 -141.156176 
L 196.54263 -126.370686 
L 198.78852 -148.256225 
L 201.03441 -148.186103 
L 203.2803 -155.433376 
L 205.52619 -140.770553 
L 207.77208 -162.55434 
L 207.77208 -163.041821 
L 207.77208 -163.041821 
L 205.52619 -162.968113 
L 203.2803 -162.968113 
L 201.03441 -162.968113 
L 198.78852 -162.954093 
L 196.54263 -162.968113 
L 194.29674 -162.954093 
L 192.05085 -162.954093 
L 189.80496 -162.954444 
L 187.55907 -162.968113 
L 185.31318 -162.968113 
L 183.06729 -162.954444 
L 180.8214 -162.954093 
L 178.57551 -162.940073 
L 176.32962 -162.968113 
L 174.08373 -162.688791 
L 171.83784 -162.747252 
L 169.59195 -162.747252 
L 167.34606 -162.747252 
L 165.10017 -162.747252 
L 162.85428 -162.747252 
L 160.60839 -162.701674 
L 158.3625 -162.747252 
L 156.11661 -162.747252 
L 153.87072 -162.747252 
L 151.62483 -162.73358 
L 149.37894 -162.73358 
L 147.13305 -162.747252 
L 144.88716 -162.747252 
L 142.64127 -152.898416 
L 140.39538 -152.873876 
L 138.14949 -148.32983 
L 135.9036 -148.028341 
L 133.65771 -147.961739 
L 131.41182 -140.686418 
L 129.16593 -138.214565 
L 126.92004 -135.84088 
L 124.67415 -148.13351 
L 122.42826 -145.545976 
L 120.18237 -130.9795 
L 117.93648 -138.144451 
L 115.69059 -140.721475 
L 113.4447 -128.527004 
L 111.19881 -133.505757 
L 108.95292 -135.80933 
L 106.70703 -131.219706 
L 104.46114 -128.505967 
L 102.21525 -116.378106 
L 99.96936 -128.569072 
L 97.72347 -128.534014 
L 95.47758 -111.6062 
L 93.23169 -65.514018 
L 90.9858 -109.334179 
L 88.73991 -94.436486 
L 86.49402 -80.061144 
L 84.24813 -87.140133 
L 82.00224 -65.545568 
L 79.75635 -41.388 
L 77.51046 -48.572169 
L 75.26457 -41.388 
L 73.01868 -41.388 
L 70.77279 -41.388 
L 68.5269 -41.388 
L 66.28101 -41.388 
L 64.03512 -41.388 
L 61.78923 -41.388 
L 59.54334 -41.388 
L 57.29745 -41.388 
L 55.05156 -41.388 
L 52.80567 -41.388 
L 50.55978 -41.388 
L 48.31389 -41.388 
z
" style="stroke: #55a868; stroke-opacity: 0.2; stroke-width: 0.8"/>
    </defs>
    <g clip-path="url(#p89ea6963fb)">
     <use xlink:href="#m0a8e0365cb" x="0" y="180" style="fill: #55a868; fill-opacity: 0.2; stroke: #55a868; stroke-opacity: 0.2; stroke-width: 0.8"/>
    </g>
   </g>
   <g id="PolyCollection_4">
    <defs>
     <path id="m76d090518d" d="M 48.31389 -41.388 
L 48.31389 -41.388 
L 50.55978 -41.388 
L 52.80567 -41.388 
L 55.05156 -41.388 
L 57.29745 -41.388 
L 59.54334 -41.388 
L 61.78923 -41.388 
L 64.03512 -41.388 
L 66.28101 -41.388 
L 68.5269 -41.388 
L 70.77279 -41.388 
L 73.01868 -41.388 
L 75.26457 -41.388 
L 77.51046 -41.388 
L 79.75635 -41.388 
L 82.00224 -41.388 
L 84.24813 -41.388 
L 86.49402 -41.388 
L 88.73991 -43.803758 
L 90.9858 -41.388 
L 93.23169 -48.670328 
L 95.47758 -43.796745 
L 97.72347 -51.170216 
L 99.96936 -53.424717 
L 102.21525 -55.843974 
L 104.46114 -55.854494 
L 106.70703 -60.738592 
L 108.95292 -65.594467 
L 111.19881 -60.745602 
L 113.4447 -63.270037 
L 115.69059 -70.428176 
L 117.93648 -70.685572 
L 120.18237 -65.728475 
L 122.42826 -75.329267 
L 124.67415 -75.369853 
L 126.92004 -75.341806 
L 129.16593 -68.129592 
L 131.41182 -75.311823 
L 133.65771 -70.513798 
L 135.9036 -77.810146 
L 138.14949 -75.310256 
L 140.39538 -77.90822 
L 142.64127 -77.908308 
L 144.88716 -85.190108 
L 147.13305 -80.246936 
L 149.37894 -82.662696 
L 151.62483 -82.725273 
L 153.87072 -82.750339 
L 156.11661 -80.296016 
L 158.3625 -77.855721 
L 160.60839 -77.848708 
L 162.85428 -80.250444 
L 165.10017 -111.777967 
L 167.34606 -90.046684 
L 169.59195 -107.128237 
L 171.83784 -145.71075 
L 174.08373 -114.232292 
L 176.32962 -128.954698 
L 178.57551 -133.695079 
L 180.8214 -116.51045 
L 183.06729 -138.586179 
L 185.31318 -119.046285 
L 187.55907 -140.945844 
L 189.80496 -119.082564 
L 192.05085 -155.939411 
L 194.29674 -162.585995 
L 194.29674 -163.045231 
L 194.29674 -163.045231 
L 192.05085 -163.062761 
L 189.80496 -163.045231 
L 187.55907 -163.048738 
L 185.31318 -163.045231 
L 183.06729 -163.048738 
L 180.8214 -163.048738 
L 178.57551 -163.048738 
L 176.32962 -163.048738 
L 174.08373 -163.048738 
L 171.83784 -163.048738 
L 169.59195 -160.534818 
L 167.34606 -153.340135 
L 165.10017 -158.15412 
L 162.85428 -153.301582 
L 160.60839 -155.784461 
L 158.3625 -153.29456 
L 156.11661 -153.322615 
L 153.87072 -160.573381 
L 151.62483 -158.115555 
L 149.37894 -155.6963 
L 147.13305 -155.71733 
L 144.88716 -160.538328 
L 142.64127 -153.326112 
L 140.39538 -158.16814 
L 138.14949 -148.340357 
L 135.9036 -153.105256 
L 133.65771 -143.543899 
L 131.41182 -145.942127 
L 129.16593 -138.546121 
L 126.92004 -141.016485 
L 124.67415 -143.645566 
L 122.42826 -145.973677 
L 120.18237 -145.840462 
L 117.93648 -150.889325 
L 115.69059 -138.659804 
L 113.4447 -131.037419 
L 111.19881 -116.770744 
L 108.95292 -121.69 
L 106.70703 -131.149614 
L 104.46114 -109.351704 
L 102.21525 -121.610244 
L 99.96936 -118.636131 
L 97.72347 -94.832622 
L 95.47758 -97.111658 
L 93.23169 -84.89616 
L 90.9858 -55.914092 
L 88.73991 -80.176834 
L 86.49402 -56.061324 
L 84.24813 -55.850987 
L 82.00224 -41.388 
L 79.75635 -41.388 
L 77.51046 -48.677341 
L 75.26457 -41.388 
L 73.01868 -41.388 
L 70.77279 -41.388 
L 68.5269 -48.729923 
L 66.28101 -41.388 
L 64.03512 -41.388 
L 61.78923 -41.388 
L 59.54334 -41.388 
L 57.29745 -41.388 
L 55.05156 -41.388 
L 52.80567 -41.388 
L 50.55978 -41.388 
L 48.31389 -41.388 
z
" style="stroke: #c44e52; stroke-opacity: 0.2; stroke-width: 0.8"/>
    </defs>
    <g clip-path="url(#p89ea6963fb)">
     <use xlink:href="#m76d090518d" x="0" y="180" style="fill: #c44e52; fill-opacity: 0.2; stroke: #c44e52; stroke-opacity: 0.2; stroke-width: 0.8"/>
    </g>
   </g>
   <g id="line2d_13">
    <path d="M 48.31389 138.612 
L 50.55978 138.612 
L 52.80567 138.612 
L 55.05156 138.612 
L 57.29745 138.612 
L 59.54334 138.612 
L 61.78923 138.612 
L 64.03512 138.612 
L 66.28101 138.612 
L 68.5269 138.612 
L 70.77279 138.612 
L 73.01868 138.612 
L 75.26457 138.612 
L 77.51046 138.612 
L 79.75635 138.612 
L 82.00224 138.612 
L 84.24813 138.612 
L 86.49402 131.333177 
L 88.73991 126.515686 
L 90.9858 114.457942 
L 93.23169 104.52498 
L 95.47758 109.517752 
L 97.72347 85.314607 
L 99.96936 87.670775 
L 102.21525 97.326784 
L 104.46114 63.429075 
L 106.70703 82.706042 
L 108.95292 60.90814 
L 111.19881 70.409912 
L 113.4447 73.214793 
L 115.69059 63.583319 
L 117.93648 77.853497 
L 120.18237 68.144896 
L 122.42826 63.309873 
L 124.67415 68.183461 
L 126.92004 72.976414 
L 129.16593 63.211718 
L 131.41182 55.904853 
L 133.65771 41.319166 
L 135.9036 50.96116 
L 138.14949 36.564783 
L 140.39538 46.410096 
L 142.64127 38.903409 
L 144.88716 36.571791 
L 147.13305 31.792857 
L 149.37894 38.892896 
L 151.62483 31.66666 
L 153.87072 26.736988 
L 156.11661 34.012303 
L 158.3625 29.240383 
L 160.60839 33.998278 
L 162.85428 31.631603 
L 165.10017 34.106953 
L 167.34606 34.047358 
L 169.59195 41.378761 
L 171.83784 36.449091 
L 174.08373 31.459824 
L 176.32962 36.473631 
L 178.57551 34.068388 
L 180.8214 31.501891 
L 183.06729 38.924444 
L 185.31318 21.940537 
L 187.55907 36.456106 
L 189.80496 38.882379 
L 192.05085 29.19481 
L 194.29674 33.991268 
L 196.54263 34.012303 
L 198.78852 31.638613 
L 201.03441 34.050866 
L 203.2803 41.340204 
L 205.52619 34.054371 
L 207.77208 26.729978 
L 210.01797 31.557978 
L 212.26386 24.26864 
L 214.50975 31.624588 
L 216.75564 31.701718 
L 219.00153 26.79658 
L 221.24742 31.645623 
L 223.49331 29.1247 
L 225.7392 29.275442 
L 227.98509 26.80009 
L 230.23098 31.428276 
L 232.47687 36.435076 
L 234.72276 21.944032 
L 236.96865 24.310712 
L 239.21454 36.494663 
L 241.46043 26.705435 
L 243.70632 26.715953 
L 245.95221 21.845877 
L 248.1981 26.715953 
L 250.44399 29.205325 
L 252.68988 26.743998 
L 254.93577 21.817832 
L 257.18166 19.419602 
L 259.42755 21.83536 
L 261.67344 21.873925 
L 263.91933 24.282667 
L 266.16522 21.800302 
L 268.41111 19.447647 
L 270.657 24.296687 
" clip-path="url(#p89ea6963fb)" style="fill: none; stroke: #4c72b0; stroke-width: 1.2; stroke-linecap: round"/>
   </g>
   <g id="line2d_14">
    <path d="M 48.31389 138.612 
L 50.55978 138.612 
L 52.80567 138.612 
L 55.05156 138.612 
L 57.29745 138.612 
L 59.54334 138.612 
L 61.78923 138.612 
L 64.03512 138.612 
L 66.28101 138.612 
L 68.5269 138.612 
L 70.77279 133.808532 
L 73.01868 138.612 
L 75.26457 138.612 
L 77.51046 138.612 
L 79.75635 133.75244 
L 82.00224 136.161187 
L 84.24813 128.977019 
L 86.49402 133.748935 
L 88.73991 119.240373 
L 90.9858 116.715941 
L 93.23169 102.428236 
L 95.47758 97.474021 
L 97.72347 102.340596 
L 99.96936 87.758405 
L 102.21525 92.660035 
L 104.46114 80.32184 
L 106.70703 87.691797 
L 108.95292 78.028776 
L 111.19881 82.842759 
L 113.4447 80.297297 
L 115.69059 87.555085 
L 117.93648 82.625413 
L 120.18237 70.574679 
L 122.42826 77.934129 
L 124.67415 73.032501 
L 126.92004 85.163868 
L 129.16593 92.421656 
L 131.41182 82.741102 
L 133.65771 70.469499 
L 135.9036 75.413194 
L 138.14949 63.33091 
L 140.39538 58.383705 
L 142.64127 75.563944 
L 144.88716 65.792248 
L 147.13305 70.483532 
L 149.37894 70.599216 
L 151.62483 65.616956 
L 153.87072 53.625824 
L 156.11661 51.101382 
L 158.3625 63.229251 
L 160.60839 53.433008 
L 162.85428 63.166143 
L 165.10017 58.418765 
L 167.34606 63.274818 
L 169.59195 60.985265 
L 171.83784 48.787289 
L 174.08373 48.675112 
L 176.32962 48.710177 
L 178.57551 46.112115 
L 180.8214 36.543748 
L 183.06729 38.920939 
L 185.31318 38.980536 
L 187.55907 41.424343 
L 189.80496 41.378769 
L 192.05085 43.906704 
L 194.29674 31.76832 
L 196.54263 39.07519 
L 198.78852 29.296475 
L 201.03441 36.575293 
L 203.2803 31.680678 
L 205.52619 31.670168 
L 207.77208 31.684183 
L 210.01797 38.966518 
L 212.26386 29.222858 
L 214.50975 34.050866 
L 216.75564 31.65614 
L 219.00153 34.131498 
L 221.24742 31.792865 
L 223.49331 31.635105 
L 225.7392 22.000127 
L 227.98509 24.422897 
L 230.23098 24.468464 
L 232.47687 24.521049 
L 234.72276 24.493009 
L 236.96865 22.084261 
L 239.21454 24.545594 
L 241.46043 17.193151 
" clip-path="url(#p89ea6963fb)" style="fill: none; stroke: #dd8452; stroke-width: 1.2; stroke-linecap: round"/>
   </g>
   <g id="line2d_15">
    <path d="M 48.31389 138.612 
L 50.55978 138.612 
L 52.80567 138.612 
L 55.05156 138.612 
L 57.29745 138.612 
L 59.54334 138.612 
L 61.78923 138.612 
L 64.03512 138.612 
L 66.28101 138.612 
L 68.5269 138.612 
L 70.77279 138.612 
L 73.01868 138.612 
L 75.26457 138.612 
L 77.51046 136.217277 
L 79.75635 138.612 
L 82.00224 128.955984 
L 84.24813 121.77883 
L 86.49402 121.708713 
L 88.73991 112.087757 
L 90.9858 109.53528 
L 93.23169 128.959489 
L 95.47758 107.179119 
L 97.72347 99.844211 
L 99.96936 99.809154 
L 102.21525 112.00012 
L 104.46114 99.872258 
L 106.70703 90.076018 
L 108.95292 90.16015 
L 111.19881 85.325134 
L 113.4447 87.702322 
L 115.69059 75.577971 
L 117.93648 80.490114 
L 120.18237 87.775945 
L 122.42826 75.627051 
L 124.67415 61.114979 
L 126.92004 80.374429 
L 129.16593 75.556939 
L 131.41182 70.770993 
L 133.65771 63.411545 
L 135.9036 61.027342 
L 138.14949 60.831023 
L 140.39538 53.695934 
L 142.64127 61.037857 
L 144.88716 44.071468 
L 147.13305 53.692427 
L 149.37894 48.832864 
L 151.62483 46.354011 
L 153.87072 58.5625 
L 156.11661 51.283684 
L 158.3625 41.522498 
L 160.60839 56.08715 
L 162.85428 39.001571 
L 165.10017 43.931246 
L 167.34606 41.462903 
L 169.59195 32.062799 
L 171.83784 27.027959 
L 174.08373 36.750582 
L 176.32962 29.352565 
L 178.57551 26.933304 
L 180.8214 29.303487 
L 183.06729 22.077251 
L 185.31318 22.077251 
L 187.55907 22.108804 
L 189.80496 26.898249 
L 192.05085 24.433412 
L 194.29674 24.415887 
L 196.54263 29.349057 
L 198.78852 22.049204 
L 201.03441 22.077251 
L 203.2803 19.661494 
L 205.52619 24.549101 
L 207.77208 17.168616 
" clip-path="url(#p89ea6963fb)" style="fill: none; stroke: #55a868; stroke-width: 1.2; stroke-linecap: round"/>
   </g>
   <g id="line2d_16">
    <path d="M 48.31389 138.612 
L 50.55978 138.612 
L 52.80567 138.612 
L 55.05156 138.612 
L 57.29745 138.612 
L 59.54334 138.612 
L 61.78923 138.612 
L 64.03512 138.612 
L 66.28101 138.612 
L 68.5269 136.164692 
L 70.77279 138.612 
L 73.01868 138.612 
L 75.26457 138.612 
L 77.51046 136.18222 
L 79.75635 138.612 
L 82.00224 138.612 
L 84.24813 133.791004 
L 86.49402 133.720892 
L 88.73991 121.656126 
L 90.9858 133.769969 
L 93.23169 114.377308 
L 95.47758 112.000117 
L 97.72347 106.98631 
L 99.96936 92.747675 
L 102.21525 92.491768 
L 104.46114 97.396901 
L 106.70703 85.262022 
L 108.95292 82.832249 
L 111.19881 92.495278 
L 113.4447 82.846272 
L 115.69059 73.106116 
L 117.93648 63.222241 
L 120.18237 73.004454 
L 122.42826 65.729143 
L 124.67415 68.050241 
L 126.92004 65.743161 
L 129.16593 73.032504 
L 131.41182 68.162426 
L 133.65771 70.578181 
L 135.9036 60.813493 
L 138.14949 65.785228 
L 140.39538 58.32412 
L 142.64127 63.162643 
L 144.88716 48.668102 
L 147.13305 58.41176 
L 149.37894 56.01703 
L 151.62483 53.534672 
L 153.87072 51.052307 
L 156.11661 60.778433 
L 158.3625 63.204708 
L 160.60839 60.722346 
L 162.85428 60.848548 
L 165.10017 43.847111 
L 167.34606 58.306591 
L 169.59195 41.312156 
L 171.83784 24.461457 
L 174.08373 36.554263 
L 176.32962 31.561493 
L 178.57551 31.596543 
L 180.8214 38.906916 
L 183.06729 26.754517 
L 185.31318 31.708725 
L 187.55907 24.408872 
L 189.80496 31.726253 
L 192.05085 19.440637 
L 194.29674 17.165106 
" clip-path="url(#p89ea6963fb)" style="fill: none; stroke: #c44e52; stroke-width: 1.2; stroke-linecap: round"/>
   </g>
   <g id="line2d_17"/>
   <g id="line2d_18"/>
   <g id="line2d_19"/>
   <g id="line2d_20"/>
   <g id="patch_3">
    <path d="M 46.068 138.612 
L 46.068 13.968 
" style="fill: none; stroke: #ffffff; stroke-linejoin: miter; stroke-linecap: square"/>
   </g>
   <g id="patch_4">
    <path d="M 270.657 138.612 
L 270.657 13.968 
" style="fill: none; stroke: #ffffff; stroke-linejoin: miter; stroke-linecap: square"/>
   </g>
   <g id="patch_5">
    <path d="M 46.068 138.612 
L 270.657 138.612 
" style="fill: none; stroke: #ffffff; stroke-linejoin: miter; stroke-linecap: square"/>
   </g>
   <g id="patch_6">
    <path d="M 46.068 13.968 
L 270.657 13.968 
" style="fill: none; stroke: #ffffff; stroke-linejoin: miter; stroke-linecap: square"/>
   </g>
   <g id="legend_1">
    <g id="patch_7">
     <path d="M 147.414375 134.212 
L 264.497 134.212 
Q 266.257 134.212 266.257 132.452 
L 266.257 94.58175 
Q 266.257 92.82175 264.497 92.82175 
L 147.414375 92.82175 
Q 145.654375 92.82175 145.654375 94.58175 
L 145.654375 132.452 
Q 145.654375 134.212 147.414375 134.212 
z
" style="fill: #eaeaf2; opacity: 0.8; stroke: #cccccc; stroke-width: 0.8; stroke-linejoin: miter"/>
    </g>
    <g id="line2d_21">
     <path d="M 149.174375 99.948375 
L 157.974375 99.948375 
L 166.774375 99.948375 
" style="fill: none; stroke: #dd8452; stroke-width: 1.2; stroke-linecap: round"/>
    </g>
    <g id="text_16">
     <!-- Proximal Curriculum -->
     <g style="fill: #262626" transform="translate(173.814375 103.028375) scale(0.088 -0.088)">
      <defs>
       <path id="DejaVuSans-50" d="M 1259 4147 
L 1259 2394 
L 2053 2394 
Q 2494 2394 2734 2622 
Q 2975 2850 2975 3272 
Q 2975 3691 2734 3919 
Q 2494 4147 2053 4147 
L 1259 4147 
z
M 628 4666 
L 2053 4666 
Q 2838 4666 3239 4311 
Q 3641 3956 3641 3272 
Q 3641 2581 3239 2228 
Q 2838 1875 2053 1875 
L 1259 1875 
L 1259 0 
L 628 0 
L 628 4666 
z
" transform="scale(0.015625)"/>
       <path id="DejaVuSans-78" d="M 3513 3500 
L 2247 1797 
L 3578 0 
L 2900 0 
L 1881 1375 
L 863 0 
L 184 0 
L 1544 1831 
L 300 3500 
L 978 3500 
L 1906 2253 
L 2834 3500 
L 3513 3500 
z
" transform="scale(0.015625)"/>
       <path id="DejaVuSans-61" d="M 2194 1759 
Q 1497 1759 1228 1600 
Q 959 1441 959 1056 
Q 959 750 1161 570 
Q 1363 391 1709 391 
Q 2188 391 2477 730 
Q 2766 1069 2766 1631 
L 2766 1759 
L 2194 1759 
z
M 3341 1997 
L 3341 0 
L 2766 0 
L 2766 531 
Q 2569 213 2275 61 
Q 1981 -91 1556 -91 
Q 1019 -91 701 211 
Q 384 513 384 1019 
Q 384 1609 779 1909 
Q 1175 2209 1959 2209 
L 2766 2209 
L 2766 2266 
Q 2766 2663 2505 2880 
Q 2244 3097 1772 3097 
Q 1472 3097 1187 3025 
Q 903 2953 641 2809 
L 641 3341 
Q 956 3463 1253 3523 
Q 1550 3584 1831 3584 
Q 2591 3584 2966 3190 
Q 3341 2797 3341 1997 
z
" transform="scale(0.015625)"/>
       <path id="DejaVuSans-6c" d="M 603 4863 
L 1178 4863 
L 1178 0 
L 603 0 
L 603 4863 
z
" transform="scale(0.015625)"/>
       <path id="DejaVuSans-20" transform="scale(0.015625)"/>
       <path id="DejaVuSans-43" d="M 4122 4306 
L 4122 3641 
Q 3803 3938 3442 4084 
Q 3081 4231 2675 4231 
Q 1875 4231 1450 3742 
Q 1025 3253 1025 2328 
Q 1025 1406 1450 917 
Q 1875 428 2675 428 
Q 3081 428 3442 575 
Q 3803 722 4122 1019 
L 4122 359 
Q 3791 134 3420 21 
Q 3050 -91 2638 -91 
Q 1578 -91 968 557 
Q 359 1206 359 2328 
Q 359 3453 968 4101 
Q 1578 4750 2638 4750 
Q 3056 4750 3426 4639 
Q 3797 4528 4122 4306 
z
" transform="scale(0.015625)"/>
       <path id="DejaVuSans-75" d="M 544 1381 
L 544 3500 
L 1119 3500 
L 1119 1403 
Q 1119 906 1312 657 
Q 1506 409 1894 409 
Q 2359 409 2629 706 
Q 2900 1003 2900 1516 
L 2900 3500 
L 3475 3500 
L 3475 0 
L 2900 0 
L 2900 538 
Q 2691 219 2414 64 
Q 2138 -91 1772 -91 
Q 1169 -91 856 284 
Q 544 659 544 1381 
z
M 1991 3584 
L 1991 3584 
z
" transform="scale(0.015625)"/>
      </defs>
      <use xlink:href="#DejaVuSans-50"/>
      <use xlink:href="#DejaVuSans-72" x="58.552734"/>
      <use xlink:href="#DejaVuSans-6f" x="97.416016"/>
      <use xlink:href="#DejaVuSans-78" x="155.472656"/>
      <use xlink:href="#DejaVuSans-69" x="214.652344"/>
      <use xlink:href="#DejaVuSans-6d" x="242.435547"/>
      <use xlink:href="#DejaVuSans-61" x="339.847656"/>
      <use xlink:href="#DejaVuSans-6c" x="401.126953"/>
      <use xlink:href="#DejaVuSans-20" x="428.910156"/>
      <use xlink:href="#DejaVuSans-43" x="460.697266"/>
      <use xlink:href="#DejaVuSans-75" x="530.521484"/>
      <use xlink:href="#DejaVuSans-72" x="593.900391"/>
      <use xlink:href="#DejaVuSans-72" x="633.263672"/>
      <use xlink:href="#DejaVuSans-69" x="674.376953"/>
      <use xlink:href="#DejaVuSans-63" x="702.160156"/>
      <use xlink:href="#DejaVuSans-75" x="757.140625"/>
      <use xlink:href="#DejaVuSans-6c" x="820.519531"/>
      <use xlink:href="#DejaVuSans-75" x="848.302734"/>
      <use xlink:href="#DejaVuSans-6d" x="911.681641"/>
     </g>
    </g>
    <g id="line2d_22">
     <path d="M 149.174375 112.865125 
L 157.974375 112.865125 
L 166.774375 112.865125 
" style="fill: none; stroke: #55a868; stroke-width: 1.2; stroke-linecap: round"/>
    </g>
    <g id="text_17">
     <!-- State Novelty (RND) -->
     <g style="fill: #262626" transform="translate(173.814375 115.945125) scale(0.088 -0.088)">
      <defs>
       <path id="DejaVuSans-4e" d="M 628 4666 
L 1478 4666 
L 3547 763 
L 3547 4666 
L 4159 4666 
L 4159 0 
L 3309 0 
L 1241 3903 
L 1241 0 
L 628 0 
L 628 4666 
z
" transform="scale(0.015625)"/>
       <path id="DejaVuSans-76" d="M 191 3500 
L 800 3500 
L 1894 563 
L 2988 3500 
L 3597 3500 
L 2284 0 
L 1503 0 
L 191 3500 
z
" transform="scale(0.015625)"/>
       <path id="DejaVuSans-79" d="M 2059 -325 
Q 1816 -950 1584 -1140 
Q 1353 -1331 966 -1331 
L 506 -1331 
L 506 -850 
L 844 -850 
Q 1081 -850 1212 -737 
Q 1344 -625 1503 -206 
L 1606 56 
L 191 3500 
L 800 3500 
L 1894 763 
L 2988 3500 
L 3597 3500 
L 2059 -325 
z
" transform="scale(0.015625)"/>
       <path id="DejaVuSans-28" d="M 1984 4856 
Q 1566 4138 1362 3434 
Q 1159 2731 1159 2009 
Q 1159 1288 1364 580 
Q 1569 -128 1984 -844 
L 1484 -844 
Q 1016 -109 783 600 
Q 550 1309 550 2009 
Q 550 2706 781 3412 
Q 1013 4119 1484 4856 
L 1984 4856 
z
" transform="scale(0.015625)"/>
       <path id="DejaVuSans-52" d="M 2841 2188 
Q 3044 2119 3236 1894 
Q 3428 1669 3622 1275 
L 4263 0 
L 3584 0 
L 2988 1197 
Q 2756 1666 2539 1819 
Q 2322 1972 1947 1972 
L 1259 1972 
L 1259 0 
L 628 0 
L 628 4666 
L 2053 4666 
Q 2853 4666 3247 4331 
Q 3641 3997 3641 3322 
Q 3641 2881 3436 2590 
Q 3231 2300 2841 2188 
z
M 1259 4147 
L 1259 2491 
L 2053 2491 
Q 2509 2491 2742 2702 
Q 2975 2913 2975 3322 
Q 2975 3731 2742 3939 
Q 2509 4147 2053 4147 
L 1259 4147 
z
" transform="scale(0.015625)"/>
       <path id="DejaVuSans-44" d="M 1259 4147 
L 1259 519 
L 2022 519 
Q 2988 519 3436 956 
Q 3884 1394 3884 2338 
Q 3884 3275 3436 3711 
Q 2988 4147 2022 4147 
L 1259 4147 
z
M 628 4666 
L 1925 4666 
Q 3281 4666 3915 4102 
Q 4550 3538 4550 2338 
Q 4550 1131 3912 565 
Q 3275 0 1925 0 
L 628 0 
L 628 4666 
z
" transform="scale(0.015625)"/>
       <path id="DejaVuSans-29" d="M 513 4856 
L 1013 4856 
Q 1481 4119 1714 3412 
Q 1947 2706 1947 2009 
Q 1947 1309 1714 600 
Q 1481 -109 1013 -844 
L 513 -844 
Q 928 -128 1133 580 
Q 1338 1288 1338 2009 
Q 1338 2731 1133 3434 
Q 928 4138 513 4856 
z
" transform="scale(0.015625)"/>
      </defs>
      <use xlink:href="#DejaVuSans-53"/>
      <use xlink:href="#DejaVuSans-74" x="63.476562"/>
      <use xlink:href="#DejaVuSans-61" x="102.685547"/>
      <use xlink:href="#DejaVuSans-74" x="163.964844"/>
      <use xlink:href="#DejaVuSans-65" x="203.173828"/>
      <use xlink:href="#DejaVuSans-20" x="264.697266"/>
      <use xlink:href="#DejaVuSans-4e" x="296.484375"/>
      <use xlink:href="#DejaVuSans-6f" x="371.289062"/>
      <use xlink:href="#DejaVuSans-76" x="432.470703"/>
      <use xlink:href="#DejaVuSans-65" x="491.650391"/>
      <use xlink:href="#DejaVuSans-6c" x="553.173828"/>
      <use xlink:href="#DejaVuSans-74" x="580.957031"/>
      <use xlink:href="#DejaVuSans-79" x="620.166016"/>
      <use xlink:href="#DejaVuSans-20" x="679.345703"/>
      <use xlink:href="#DejaVuSans-28" x="711.132812"/>
      <use xlink:href="#DejaVuSans-52" x="750.146484"/>
      <use xlink:href="#DejaVuSans-4e" x="819.628906"/>
      <use xlink:href="#DejaVuSans-44" x="894.433594"/>
      <use xlink:href="#DejaVuSans-29" x="971.435547"/>
     </g>
    </g>
    <g id="line2d_23">
     <path d="M 149.174375 125.781875 
L 157.974375 125.781875 
L 166.774375 125.781875 
" style="fill: none; stroke: #c44e52; stroke-width: 1.2; stroke-linecap: round"/>
    </g>
    <g id="text_18">
     <!-- Vanilla -->
     <g style="fill: #262626" transform="translate(173.814375 128.861875) scale(0.088 -0.088)">
      <defs>
       <path id="DejaVuSans-56" d="M 1831 0 
L 50 4666 
L 709 4666 
L 2188 738 
L 3669 4666 
L 4325 4666 
L 2547 0 
L 1831 0 
z
" transform="scale(0.015625)"/>
       <path id="DejaVuSans-6e" d="M 3513 2113 
L 3513 0 
L 2938 0 
L 2938 2094 
Q 2938 2591 2744 2837 
Q 2550 3084 2163 3084 
Q 1697 3084 1428 2787 
Q 1159 2491 1159 1978 
L 1159 0 
L 581 0 
L 581 3500 
L 1159 3500 
L 1159 2956 
Q 1366 3272 1645 3428 
Q 1925 3584 2291 3584 
Q 2894 3584 3203 3211 
Q 3513 2838 3513 2113 
z
" transform="scale(0.015625)"/>
      </defs>
      <use xlink:href="#DejaVuSans-56"/>
      <use xlink:href="#DejaVuSans-61" x="60.658203"/>
      <use xlink:href="#DejaVuSans-6e" x="121.9375"/>
      <use xlink:href="#DejaVuSans-69" x="185.316406"/>
      <use xlink:href="#DejaVuSans-6c" x="213.099609"/>
      <use xlink:href="#DejaVuSans-6c" x="240.882812"/>
      <use xlink:href="#DejaVuSans-61" x="268.666016"/>
     </g>
    </g>
   </g>
  </g>
 </g>
 <defs>
  <clipPath id="p89ea6963fb">
   <rect x="46.068" y="13.968" width="224.589" height="124.644"/>
  </clipPath>
 </defs>
</svg>
