<?xml version="1.0" encoding="utf-8" standalone="no"?>
<!DOCTYPE svg PUBLIC "-//W3C//DTD SVG 1.1//EN"
  "http://www.w3.org/Graphics/SVG/1.1/DTD/svg11.dtd">
<svg xmlns:xlink="http://www.w3.org/1999/xlink" width="288pt" height="216pt" viewBox="0 0 288 216" xmlns="http://www.w3.org/2000/svg" version="1.1">
 <metadata>
  <rdf:RDF xmlns:dc="http://purl.org/dc/elements/1.1/" xmlns:cc="http://creativecommons.org/ns#" xmlns:rdf="http://www.w3.org/1999/02/22-rdf-syntax-ns#">
   <cc:Work>
    <dc:type rdf:resource="http://purl.org/dc/dcmitype/StillImage"/>
    <dc:date>1980-01-01T00:00:00+00:00</dc:date>
    <dc:format>image/svg+xml</dc:format>
    <dc:creator>
     <cc:Agent>
      <dc:title>Matplotlib v3.9.2, https://matplotlib.org/</dc:title>
     </cc:Agent>
    </dc:creator>
   </cc:Work>
  </rdf:RDF>
 </metadata>
 <defs>
  <style type="text/css">*{stroke-linejoin: round; stroke-linecap: butt}</style>
 </defs>
 <g id="figure_1">
  <g id="patch_1">
   <path d="M 0 216 
L 288 216 
L 288 0 
L 0 0 
z
" style="fill: #ffffff"/>
  </g>
  <g id="axes_1">
   <g id="patch_2">
    <path d="M 79.5 125.041711 
L 249.722675 125.041711 
L 249.722675 25.92 
L 79.5 25.92 
z
" style="fill: #eaeaf2"/>
   </g>
   <g id="matplotlib.axis_1">
    <g id="xtick_1">
     <g id="line2d_1">
      <path d="M 79.5 125.041711 
L 79.5 25.92 
" clip-path="url(#pace984391e)" style="fill: none; stroke: #ffffff; stroke-width: 1.5; stroke-linecap: round"/>
     </g>
     <g id="text_1">
      <!-- 0.0 -->
      <g style="fill: #262626" transform="translate(73.442139 164.9616) rotate(-45) scale(0.165 -0.165)">
       <defs>
        <path id="DejaVuSans-30" d="M 2034 4250 
Q 1547 4250 1301 3770 
Q 1056 3291 1056 2328 
Q 1056 1369 1301 889 
Q 1547 409 2034 409 
Q 2525 409 2770 889 
Q 3016 1369 3016 2328 
Q 3016 3291 2770 3770 
Q 2525 4250 2034 4250 
z
M 2034 4750 
Q 2819 4750 3233 4129 
Q 3647 3509 3647 2328 
Q 3647 1150 3233 529 
Q 2819 -91 2034 -91 
Q 1250 -91 836 529 
Q 422 1150 422 2328 
Q 422 3509 836 4129 
Q 1250 4750 2034 4750 
z
" transform="scale(0.015625)"/>
        <path id="DejaVuSans-2e" d="M 684 794 
L 1344 794 
L 1344 0 
L 684 0 
L 684 794 
z
" transform="scale(0.015625)"/>
       </defs>
       <use xlink:href="#DejaVuSans-30"/>
       <use xlink:href="#DejaVuSans-2e" x="63.623047"/>
       <use xlink:href="#DejaVuSans-30" x="95.410156"/>
      </g>
     </g>
    </g>
    <g id="xtick_2">
     <g id="line2d_2">
      <path d="M 164.611338 125.041711 
L 164.611338 25.92 
" clip-path="url(#pace984391e)" style="fill: none; stroke: #ffffff; stroke-width: 1.5; stroke-linecap: round"/>
     </g>
     <g id="text_2">
      <!-- 0.5 -->
      <g style="fill: #262626" transform="translate(158.553477 164.9616) rotate(-45) scale(0.165 -0.165)">
       <defs>
        <path id="DejaVuSans-35" d="M 691 4666 
L 3169 4666 
L 3169 4134 
L 1269 4134 
L 1269 2991 
Q 1406 3038 1543 3061 
Q 1681 3084 1819 3084 
Q 2600 3084 3056 2656 
Q 3513 2228 3513 1497 
Q 3513 744 3044 326 
Q 2575 -91 1722 -91 
Q 1428 -91 1123 -41 
Q 819 9 494 109 
L 494 744 
Q 775 591 1075 516 
Q 1375 441 1709 441 
Q 2250 441 2565 725 
Q 2881 1009 2881 1497 
Q 2881 1984 2565 2268 
Q 2250 2553 1709 2553 
Q 1456 2553 1204 2497 
Q 953 2441 691 2322 
L 691 4666 
z
" transform="scale(0.015625)"/>
       </defs>
       <use xlink:href="#DejaVuSans-30"/>
       <use xlink:href="#DejaVuSans-2e" x="63.623047"/>
       <use xlink:href="#DejaVuSans-35" x="95.410156"/>
      </g>
     </g>
    </g>
    <g id="xtick_3">
     <g id="line2d_3">
      <path d="M 249.722675 125.041711 
L 249.722675 25.92 
" clip-path="url(#pace984391e)" style="fill: none; stroke: #ffffff; stroke-width: 1.5; stroke-linecap: round"/>
     </g>
     <g id="text_3">
      <!-- 1.0 -->
      <g style="fill: #262626" transform="translate(243.664814 164.9616) rotate(-45) scale(0.165 -0.165)">
       <defs>
        <path id="DejaVuSans-31" d="M 794 531 
L 1825 531 
L 1825 4091 
L 703 3866 
L 703 4441 
L 1819 4666 
L 2450 4666 
L 2450 531 
L 3481 531 
L 3481 0 
L 794 0 
L 794 531 
z
" transform="scale(0.015625)"/>
       </defs>
       <use xlink:href="#DejaVuSans-31"/>
       <use xlink:href="#DejaVuSans-2e" x="63.623047"/>
       <use xlink:href="#DejaVuSans-30" x="95.410156"/>
      </g>
     </g>
    </g>
    <g id="text_4">
     <!-- Timestep -->
     <g style="fill: #262626" transform="translate(123.122744 185.065213) scale(0.18 -0.18)">
      <defs>
       <path id="DejaVuSans-54" d="M -19 4666 
L 3928 4666 
L 3928 4134 
L 2272 4134 
L 2272 0 
L 1638 0 
L 1638 4134 
L -19 4134 
L -19 4666 
z
" transform="scale(0.015625)"/>
       <path id="DejaVuSans-69" d="M 603 3500 
L 1178 3500 
L 1178 0 
L 603 0 
L 603 3500 
z
M 603 4863 
L 1178 4863 
L 1178 4134 
L 603 4134 
L 603 4863 
z
" transform="scale(0.015625)"/>
       <path id="DejaVuSans-6d" d="M 3328 2828 
Q 3544 3216 3844 3400 
Q 4144 3584 4550 3584 
Q 5097 3584 5394 3201 
Q 5691 2819 5691 2113 
L 5691 0 
L 5113 0 
L 5113 2094 
Q 5113 2597 4934 2840 
Q 4756 3084 4391 3084 
Q 3944 3084 3684 2787 
Q 3425 2491 3425 1978 
L 3425 0 
L 2847 0 
L 2847 2094 
Q 2847 2600 2669 2842 
Q 2491 3084 2119 3084 
Q 1678 3084 1418 2786 
Q 1159 2488 1159 1978 
L 1159 0 
L 581 0 
L 581 3500 
L 1159 3500 
L 1159 2956 
Q 1356 3278 1631 3431 
Q 1906 3584 2284 3584 
Q 2666 3584 2933 3390 
Q 3200 3197 3328 2828 
z
" transform="scale(0.015625)"/>
       <path id="DejaVuSans-65" d="M 3597 1894 
L 3597 1613 
L 953 1613 
Q 991 1019 1311 708 
Q 1631 397 2203 397 
Q 2534 397 2845 478 
Q 3156 559 3463 722 
L 3463 178 
Q 3153 47 2828 -22 
Q 2503 -91 2169 -91 
Q 1331 -91 842 396 
Q 353 884 353 1716 
Q 353 2575 817 3079 
Q 1281 3584 2069 3584 
Q 2775 3584 3186 3129 
Q 3597 2675 3597 1894 
z
M 3022 2063 
Q 3016 2534 2758 2815 
Q 2500 3097 2075 3097 
Q 1594 3097 1305 2825 
Q 1016 2553 972 2059 
L 3022 2063 
z
" transform="scale(0.015625)"/>
       <path id="DejaVuSans-73" d="M 2834 3397 
L 2834 2853 
Q 2591 2978 2328 3040 
Q 2066 3103 1784 3103 
Q 1356 3103 1142 2972 
Q 928 2841 928 2578 
Q 928 2378 1081 2264 
Q 1234 2150 1697 2047 
L 1894 2003 
Q 2506 1872 2764 1633 
Q 3022 1394 3022 966 
Q 3022 478 2636 193 
Q 2250 -91 1575 -91 
Q 1294 -91 989 -36 
Q 684 19 347 128 
L 347 722 
Q 666 556 975 473 
Q 1284 391 1588 391 
Q 1994 391 2212 530 
Q 2431 669 2431 922 
Q 2431 1156 2273 1281 
Q 2116 1406 1581 1522 
L 1381 1569 
Q 847 1681 609 1914 
Q 372 2147 372 2553 
Q 372 3047 722 3315 
Q 1072 3584 1716 3584 
Q 2034 3584 2315 3537 
Q 2597 3491 2834 3397 
z
" transform="scale(0.015625)"/>
       <path id="DejaVuSans-74" d="M 1172 4494 
L 1172 3500 
L 2356 3500 
L 2356 3053 
L 1172 3053 
L 1172 1153 
Q 1172 725 1289 603 
Q 1406 481 1766 481 
L 2356 481 
L 2356 0 
L 1766 0 
Q 1100 0 847 248 
Q 594 497 594 1153 
L 594 3053 
L 172 3053 
L 172 3500 
L 594 3500 
L 594 4494 
L 1172 4494 
z
" transform="scale(0.015625)"/>
       <path id="DejaVuSans-70" d="M 1159 525 
L 1159 -1331 
L 581 -1331 
L 581 3500 
L 1159 3500 
L 1159 2969 
Q 1341 3281 1617 3432 
Q 1894 3584 2278 3584 
Q 2916 3584 3314 3078 
Q 3713 2572 3713 1747 
Q 3713 922 3314 415 
Q 2916 -91 2278 -91 
Q 1894 -91 1617 61 
Q 1341 213 1159 525 
z
M 3116 1747 
Q 3116 2381 2855 2742 
Q 2594 3103 2138 3103 
Q 1681 3103 1420 2742 
Q 1159 2381 1159 1747 
Q 1159 1113 1420 752 
Q 1681 391 2138 391 
Q 2594 391 2855 752 
Q 3116 1113 3116 1747 
z
" transform="scale(0.015625)"/>
      </defs>
      <use xlink:href="#DejaVuSans-54"/>
      <use xlink:href="#DejaVuSans-69" x="57.958984"/>
      <use xlink:href="#DejaVuSans-6d" x="85.742188"/>
      <use xlink:href="#DejaVuSans-65" x="183.154297"/>
      <use xlink:href="#DejaVuSans-73" x="244.677734"/>
      <use xlink:href="#DejaVuSans-74" x="296.777344"/>
      <use xlink:href="#DejaVuSans-65" x="335.986328"/>
      <use xlink:href="#DejaVuSans-70" x="397.509766"/>
     </g>
    </g>
    <g id="text_5">
     <!-- 1e6 -->
     <g style="fill: #262626" transform="translate(218.573769 182.925447) scale(0.165 -0.165)">
      <defs>
       <path id="DejaVuSans-36" d="M 2113 2584 
Q 1688 2584 1439 2293 
Q 1191 2003 1191 1497 
Q 1191 994 1439 701 
Q 1688 409 2113 409 
Q 2538 409 2786 701 
Q 3034 994 3034 1497 
Q 3034 2003 2786 2293 
Q 2538 2584 2113 2584 
z
M 3366 4563 
L 3366 3988 
Q 3128 4100 2886 4159 
Q 2644 4219 2406 4219 
Q 1781 4219 1451 3797 
Q 1122 3375 1075 2522 
Q 1259 2794 1537 2939 
Q 1816 3084 2150 3084 
Q 2853 3084 3261 2657 
Q 3669 2231 3669 1497 
Q 3669 778 3244 343 
Q 2819 -91 2113 -91 
Q 1303 -91 875 529 
Q 447 1150 447 2328 
Q 447 3434 972 4092 
Q 1497 4750 2381 4750 
Q 2619 4750 2861 4703 
Q 3103 4656 3366 4563 
z
" transform="scale(0.015625)"/>
      </defs>
      <use xlink:href="#DejaVuSans-31"/>
      <use xlink:href="#DejaVuSans-65" x="63.623047"/>
      <use xlink:href="#DejaVuSans-36" x="125.146484"/>
     </g>
    </g>
   </g>
   <g id="matplotlib.axis_2">
    <g id="ytick_1">
     <g id="line2d_4">
      <path d="M 79.5 125.041711 
L 249.722675 125.041711 
" clip-path="url(#pace984391e)" style="fill: none; stroke: #ffffff; stroke-width: 1.5; stroke-linecap: round"/>
     </g>
     <g id="text_6">
      <!-- 0.0 -->
      <g style="fill: #262626" transform="translate(40.759844 131.310422) scale(0.165 -0.165)">
       <use xlink:href="#DejaVuSans-30"/>
       <use xlink:href="#DejaVuSans-2e" x="63.623047"/>
       <use xlink:href="#DejaVuSans-30" x="95.410156"/>
      </g>
     </g>
    </g>
    <g id="ytick_2">
     <g id="line2d_5">
      <path d="M 79.5 75.480856 
L 249.722675 75.480856 
" clip-path="url(#pace984391e)" style="fill: none; stroke: #ffffff; stroke-width: 1.5; stroke-linecap: round"/>
     </g>
     <g id="text_7">
      <!-- 0.5 -->
      <g style="fill: #262626" transform="translate(40.759844 81.749566) scale(0.165 -0.165)">
       <use xlink:href="#DejaVuSans-30"/>
       <use xlink:href="#DejaVuSans-2e" x="63.623047"/>
       <use xlink:href="#DejaVuSans-35" x="95.410156"/>
      </g>
     </g>
    </g>
    <g id="ytick_3">
     <g id="line2d_6">
      <path d="M 79.5 25.92 
L 249.722675 25.92 
" clip-path="url(#pace984391e)" style="fill: none; stroke: #ffffff; stroke-width: 1.5; stroke-linecap: round"/>
     </g>
     <g id="text_8">
      <!-- 1.0 -->
      <g style="fill: #262626" transform="translate(40.759844 32.188711) scale(0.165 -0.165)">
       <use xlink:href="#DejaVuSans-31"/>
       <use xlink:href="#DejaVuSans-2e" x="63.623047"/>
       <use xlink:href="#DejaVuSans-30" x="95.410156"/>
      </g>
     </g>
    </g>
    <g id="text_9">
     <!-- Score -->
     <g style="fill: #262626" transform="translate(33.016406 100.685074) rotate(-90) scale(0.18 -0.18)">
      <defs>
       <path id="DejaVuSans-53" d="M 3425 4513 
L 3425 3897 
Q 3066 4069 2747 4153 
Q 2428 4238 2131 4238 
Q 1616 4238 1336 4038 
Q 1056 3838 1056 3469 
Q 1056 3159 1242 3001 
Q 1428 2844 1947 2747 
L 2328 2669 
Q 3034 2534 3370 2195 
Q 3706 1856 3706 1288 
Q 3706 609 3251 259 
Q 2797 -91 1919 -91 
Q 1588 -91 1214 -16 
Q 841 59 441 206 
L 441 856 
Q 825 641 1194 531 
Q 1563 422 1919 422 
Q 2459 422 2753 634 
Q 3047 847 3047 1241 
Q 3047 1584 2836 1778 
Q 2625 1972 2144 2069 
L 1759 2144 
Q 1053 2284 737 2584 
Q 422 2884 422 3419 
Q 422 4038 858 4394 
Q 1294 4750 2059 4750 
Q 2388 4750 2728 4690 
Q 3069 4631 3425 4513 
z
" transform="scale(0.015625)"/>
       <path id="DejaVuSans-63" d="M 3122 3366 
L 3122 2828 
Q 2878 2963 2633 3030 
Q 2388 3097 2138 3097 
Q 1578 3097 1268 2742 
Q 959 2388 959 1747 
Q 959 1106 1268 751 
Q 1578 397 2138 397 
Q 2388 397 2633 464 
Q 2878 531 3122 666 
L 3122 134 
Q 2881 22 2623 -34 
Q 2366 -91 2075 -91 
Q 1284 -91 818 406 
Q 353 903 353 1747 
Q 353 2603 823 3093 
Q 1294 3584 2113 3584 
Q 2378 3584 2631 3529 
Q 2884 3475 3122 3366 
z
" transform="scale(0.015625)"/>
       <path id="DejaVuSans-6f" d="M 1959 3097 
Q 1497 3097 1228 2736 
Q 959 2375 959 1747 
Q 959 1119 1226 758 
Q 1494 397 1959 397 
Q 2419 397 2687 759 
Q 2956 1122 2956 1747 
Q 2956 2369 2687 2733 
Q 2419 3097 1959 3097 
z
M 1959 3584 
Q 2709 3584 3137 3096 
Q 3566 2609 3566 1747 
Q 3566 888 3137 398 
Q 2709 -91 1959 -91 
Q 1206 -91 779 398 
Q 353 888 353 1747 
Q 353 2609 779 3096 
Q 1206 3584 1959 3584 
z
" transform="scale(0.015625)"/>
       <path id="DejaVuSans-72" d="M 2631 2963 
Q 2534 3019 2420 3045 
Q 2306 3072 2169 3072 
Q 1681 3072 1420 2755 
Q 1159 2438 1159 1844 
L 1159 0 
L 581 0 
L 581 3500 
L 1159 3500 
L 1159 2956 
Q 1341 3275 1631 3429 
Q 1922 3584 2338 3584 
Q 2397 3584 2469 3576 
Q 2541 3569 2628 3553 
L 2631 2963 
z
" transform="scale(0.015625)"/>
      </defs>
      <use xlink:href="#DejaVuSans-53"/>
      <use xlink:href="#DejaVuSans-63" x="63.476562"/>
      <use xlink:href="#DejaVuSans-6f" x="118.457031"/>
      <use xlink:href="#DejaVuSans-72" x="179.638672"/>
      <use xlink:href="#DejaVuSans-65" x="218.501953"/>
     </g>
    </g>
   </g>
   <g id="PolyCollection_1"/>
   <g id="PolyCollection_2"/>
   <g id="PolyCollection_3"/>
   <g id="PolyCollection_4"/>
   <g id="PolyCollection_5"/>
   <g id="line2d_7">
    <path d="M 81.202227 125.041711 
L 82.904454 125.041711 
L 84.60668 125.041711 
L 86.308907 125.041711 
L 88.011134 125.041711 
L 89.713361 125.041711 
L 91.415587 125.041711 
L 93.117814 125.041711 
L 94.820041 125.041711 
L 96.522268 125.041711 
L 98.224494 125.041711 
L 99.926721 125.041711 
L 101.628948 125.041711 
L 103.331175 125.041711 
L 105.033401 125.041711 
L 106.735628 125.041711 
L 108.437855 125.041711 
L 110.140082 125.041711 
L 111.842308 125.041711 
L 113.544535 125.041711 
L 115.246762 115.324681 
L 116.948989 125.041711 
L 118.651215 115.268925 
L 120.353442 115.324681 
L 122.055669 105.816748 
L 123.757896 115.533768 
L 125.460122 115.450139 
L 127.162349 86.842682 
L 128.864576 96.127601 
L 130.566803 105.69129 
L 132.269029 67.422558 
L 133.971256 66.795316 
L 135.673483 105.705226 
L 137.37571 76.97234 
L 139.077936 57.482514 
L 140.780163 57.49646 
L 142.48239 47.751557 
L 144.184617 76.846872 
L 145.886843 67.129841 
L 147.58907 67.074095 
L 149.291297 47.821249 
L 150.993524 76.637784 
L 152.69575 76.623848 
L 154.397977 38.285424 
L 156.100204 57.454641 
L 157.802431 57.635835 
L 159.504657 47.835186 
L 161.206884 57.371002 
L 162.909111 67.046212 
L 164.611338 67.004393 
L 166.313564 57.106158 
L 168.015791 67.227417 
L 169.718018 47.765493 
L 171.420245 76.763243 
L 173.122471 47.514587 
L 174.824698 47.863069 
L 176.526925 86.368761 
L 178.229152 67.060159 
L 179.931378 57.231607 
L 181.633605 66.837125 
L 183.335832 38.076346 
L 185.038059 86.466326 
L 186.740285 57.440704 
L 188.442512 86.536019 
L 190.144739 37.686044 
L 191.846966 28.638096 
" clip-path="url(#pace984391e)" style="fill: none; stroke: #4c72b0; stroke-width: 2.25; stroke-linecap: round"/>
   </g>
   <g id="line2d_8">
    <path d="M 81.202227 125.041711 
L 82.904454 125.041711 
L 84.60668 125.041711 
L 86.308907 125.041711 
L 88.011134 125.041711 
L 89.713361 125.041711 
L 91.415587 125.041711 
L 93.117814 125.041711 
L 94.820041 125.041711 
L 96.522268 115.310744 
L 98.224494 125.041711 
L 99.926721 125.041711 
L 101.628948 125.041711 
L 103.331175 115.380437 
L 105.033401 125.041711 
L 106.735628 125.041711 
L 108.437855 105.872504 
L 110.140082 105.593724 
L 111.842308 76.832925 
L 113.544535 105.788865 
L 115.246762 96.002142 
L 116.948989 95.946386 
L 118.651215 76.679614 
L 120.353442 58.109776 
L 122.055669 37.992697 
L 123.757896 57.412831 
L 125.460122 47.890942 
L 127.162349 67.01833 
L 128.864576 86.438444 
L 130.566803 38.243614 
L 132.269029 67.185607 
L 133.971256 38.271497 
L 135.673483 57.301309 
L 137.37571 47.709737 
L 139.077936 57.203734 
L 140.780163 67.101959 
L 142.48239 67.408641 
L 144.184617 67.060149 
L 145.886843 57.343119 
L 147.58907 57.315246 
L 149.291297 67.143778 
L 150.993524 28.331443 
" clip-path="url(#pace984391e)" style="fill: none; stroke: #dd8452; stroke-width: 2.25; stroke-linecap: round"/>
   </g>
   <g id="line2d_9">
    <path d="M 81.202227 125.041711 
L 82.904454 125.041711 
L 84.60668 125.041711 
L 86.308907 125.041711 
L 88.011134 125.041711 
L 89.713361 125.041711 
L 91.415587 125.041711 
L 93.117814 125.041711 
L 94.820041 125.041711 
L 96.522268 125.041711 
L 98.224494 125.041711 
L 99.926721 125.041711 
L 101.628948 125.041711 
L 103.331175 125.041711 
L 105.033401 125.041711 
L 106.735628 125.041711 
L 108.437855 125.041711 
L 110.140082 125.041711 
L 111.842308 115.436193 
L 113.544535 125.041711 
L 115.246762 115.422256 
L 116.948989 115.464076 
L 118.651215 105.593724 
L 120.353442 86.898438 
L 122.055669 105.914323 
L 123.757896 86.536029 
L 125.460122 76.874745 
L 127.162349 76.916574 
L 128.864576 86.675424 
L 130.566803 57.761303 
L 132.269029 76.846872 
L 133.971256 67.088032 
L 135.673483 48.044273 
L 137.37571 57.440694 
L 139.077936 76.665657 
L 140.780163 57.580089 
L 142.48239 96.002142 
L 144.184617 47.890952 
L 145.886843 76.93052 
L 147.58907 38.187858 
L 149.291297 67.380748 
L 150.993524 47.709747 
L 152.69575 66.962583 
L 154.397977 47.667918 
L 156.100204 67.241363 
L 157.802431 57.53826 
L 159.504657 57.468577 
L 161.206884 38.0624 
L 162.909111 67.060139 
L 164.611338 76.749296 
L 166.313564 76.777179 
L 168.015791 67.157724 
L 169.718018 57.594036 
L 171.420245 66.906828 
L 173.122471 38.215731 
L 174.824698 28.317496 
" clip-path="url(#pace984391e)" style="fill: none; stroke: #55a868; stroke-width: 2.25; stroke-linecap: round"/>
   </g>
   <g id="line2d_10">
    <path d="M 81.202227 125.041711 
L 82.904454 125.041711 
L 84.60668 125.041711 
L 86.308907 125.041711 
L 88.011134 125.041711 
L 89.713361 125.041711 
L 91.415587 125.041711 
L 93.117814 125.041711 
L 94.820041 125.041711 
L 96.522268 125.041711 
L 98.224494 125.041711 
L 99.926721 125.041711 
L 101.628948 125.041711 
L 103.331175 125.041711 
L 105.033401 125.041711 
L 106.735628 125.041711 
L 108.437855 125.041711 
L 110.140082 125.041711 
L 111.842308 115.436193 
L 113.544535 125.041711 
L 115.246762 77.055959 
L 116.948989 57.900698 
L 118.651215 76.874745 
L 120.353442 57.468557 
L 122.055669 67.060149 
L 123.757896 76.805042 
L 125.460122 47.82123 
L 127.162349 47.598225 
L 128.864576 47.556406 
L 130.566803 76.73536 
L 132.269029 28.247794 
" clip-path="url(#pace984391e)" style="fill: none; stroke: #c44e52; stroke-width: 2.25; stroke-linecap: round"/>
   </g>
   <g id="line2d_11">
    <path d="M 81.202227 125.041711 
L 82.904454 125.041711 
L 84.60668 125.041711 
L 86.308907 125.041711 
L 88.011134 125.041711 
L 89.713361 125.041711 
L 91.415587 125.041711 
L 93.117814 125.041711 
L 94.820041 125.041711 
L 96.522268 125.041711 
L 98.224494 125.041711 
L 99.926721 125.041711 
L 101.628948 125.041711 
L 103.331175 125.041711 
L 105.033401 125.041711 
L 106.735628 125.041711 
L 108.437855 125.041711 
L 110.140082 125.041711 
L 111.842308 125.041711 
L 113.544535 125.041711 
L 115.246762 125.041711 
L 116.948989 125.041711 
L 118.651215 125.041711 
L 120.353442 125.041711 
L 122.055669 125.041711 
L 123.757896 125.041711 
L 125.460122 125.041711 
L 127.162349 125.041711 
L 128.864576 125.041711 
L 130.566803 125.041711 
L 132.269029 125.041711 
L 133.971256 125.041711 
L 135.673483 125.041711 
L 137.37571 125.041711 
L 139.077936 125.041711 
L 140.780163 125.041711 
L 142.48239 125.041711 
L 144.184617 125.041711 
L 145.886843 125.041711 
L 147.58907 125.041711 
L 149.291297 125.041711 
L 150.993524 125.041711 
L 152.69575 125.041711 
L 154.397977 125.041711 
L 156.100204 125.041711 
L 157.802431 125.041711 
L 159.504657 125.041711 
L 161.206884 125.041711 
L 162.909111 125.041711 
L 164.611338 125.041711 
L 166.313564 125.041711 
L 168.015791 125.041711 
L 169.718018 86.466336 
L 171.420245 105.64947 
L 173.122471 96.016079 
L 174.824698 38.564203 
L 176.526925 48.141839 
L 178.229152 47.598225 
L 179.931378 57.566143 
L 181.633605 77.028076 
L 183.335832 57.468577 
L 185.038059 28.777481 
" clip-path="url(#pace984391e)" style="fill: none; stroke: #8172b3; stroke-width: 2.25; stroke-linecap: round"/>
   </g>
   <g id="line2d_12"/>
   <g id="line2d_13"/>
   <g id="line2d_14"/>
   <g id="line2d_15"/>
   <g id="line2d_16"/>
   <g id="patch_3">
    <path d="M 79.5 125.041711 
L 79.5 25.92 
" style="fill: none; stroke: #ffffff; stroke-width: 1.875; stroke-linejoin: miter; stroke-linecap: square"/>
   </g>
   <g id="patch_4">
    <path d="M 249.722675 125.041711 
L 249.722675 25.92 
" style="fill: none; stroke: #ffffff; stroke-width: 1.875; stroke-linejoin: miter; stroke-linecap: square"/>
   </g>
   <g id="patch_5">
    <path d="M 79.5 125.041711 
L 249.722675 125.041711 
" style="fill: none; stroke: #ffffff; stroke-width: 1.875; stroke-linejoin: miter; stroke-linecap: square"/>
   </g>
   <g id="patch_6">
    <path d="M 79.5 25.92 
L 249.722675 25.92 
" style="fill: none; stroke: #ffffff; stroke-width: 1.875; stroke-linejoin: miter; stroke-linecap: square"/>
   </g>
   <g id="legend_1">
    <g id="patch_7">
     <path d="M 174.87455 185.885156 
L 238.172675 185.885156 
Q 241.472675 185.885156 241.472675 182.585156 
L 241.472675 37.47 
Q 241.472675 34.17 238.172675 34.17 
L 174.87455 34.17 
Q 171.57455 34.17 171.57455 37.47 
L 171.57455 182.585156 
Q 171.57455 185.885156 174.87455 185.885156 
z
" style="fill: #eaeaf2; opacity: 0.8; stroke: #cccccc; stroke-width: 1.5; stroke-linejoin: miter"/>
    </g>
    <g id="text_10">
     <!-- Seed -->
     <g style="fill: #262626" transform="translate(184.0208 54.447187) scale(0.18 -0.18)">
      <defs>
       <path id="DejaVuSans-64" d="M 2906 2969 
L 2906 4863 
L 3481 4863 
L 3481 0 
L 2906 0 
L 2906 525 
Q 2725 213 2448 61 
Q 2172 -91 1784 -91 
Q 1150 -91 751 415 
Q 353 922 353 1747 
Q 353 2572 751 3078 
Q 1150 3584 1784 3584 
Q 2172 3584 2448 3432 
Q 2725 3281 2906 2969 
z
M 947 1747 
Q 947 1113 1208 752 
Q 1469 391 1925 391 
Q 2381 391 2643 752 
Q 2906 1113 2906 1747 
Q 2906 2381 2643 2742 
Q 2381 3103 1925 3103 
Q 1469 3103 1208 2742 
Q 947 2381 947 1747 
z
" transform="scale(0.015625)"/>
      </defs>
      <use xlink:href="#DejaVuSans-53"/>
      <use xlink:href="#DejaVuSans-65" x="63.476562"/>
      <use xlink:href="#DejaVuSans-65" x="125"/>
      <use xlink:href="#DejaVuSans-64" x="186.523438"/>
     </g>
    </g>
    <g id="line2d_17">
     <path d="M 178.17455 73.203047 
L 194.67455 73.203047 
L 211.17455 73.203047 
" style="fill: none; stroke: #4c72b0; stroke-width: 2.25; stroke-linecap: round"/>
    </g>
    <g id="text_11">
     <!-- 0 -->
     <g style="fill: #262626" transform="translate(224.37455 78.978047) scale(0.165 -0.165)">
      <use xlink:href="#DejaVuSans-30"/>
     </g>
    </g>
    <g id="line2d_18">
     <path d="M 178.17455 97.421953 
L 194.67455 97.421953 
L 211.17455 97.421953 
" style="fill: none; stroke: #dd8452; stroke-width: 2.25; stroke-linecap: round"/>
    </g>
    <g id="text_12">
     <!-- 1 -->
     <g style="fill: #262626" transform="translate(224.37455 103.196953) scale(0.165 -0.165)">
      <use xlink:href="#DejaVuSans-31"/>
     </g>
    </g>
    <g id="line2d_19">
     <path d="M 178.17455 121.640859 
L 194.67455 121.640859 
L 211.17455 121.640859 
" style="fill: none; stroke: #55a868; stroke-width: 2.25; stroke-linecap: round"/>
    </g>
    <g id="text_13">
     <!-- 2 -->
     <g style="fill: #262626" transform="translate(224.37455 127.415859) scale(0.165 -0.165)">
      <defs>
       <path id="DejaVuSans-32" d="M 1228 531 
L 3431 531 
L 3431 0 
L 469 0 
L 469 531 
Q 828 903 1448 1529 
Q 2069 2156 2228 2338 
Q 2531 2678 2651 2914 
Q 2772 3150 2772 3378 
Q 2772 3750 2511 3984 
Q 2250 4219 1831 4219 
Q 1534 4219 1204 4116 
Q 875 4013 500 3803 
L 500 4441 
Q 881 4594 1212 4672 
Q 1544 4750 1819 4750 
Q 2544 4750 2975 4387 
Q 3406 4025 3406 3419 
Q 3406 3131 3298 2873 
Q 3191 2616 2906 2266 
Q 2828 2175 2409 1742 
Q 1991 1309 1228 531 
z
" transform="scale(0.015625)"/>
      </defs>
      <use xlink:href="#DejaVuSans-32"/>
     </g>
    </g>
    <g id="line2d_20">
     <path d="M 178.17455 145.859766 
L 194.67455 145.859766 
L 211.17455 145.859766 
" style="fill: none; stroke: #c44e52; stroke-width: 2.25; stroke-linecap: round"/>
    </g>
    <g id="text_14">
     <!-- 3 -->
     <g style="fill: #262626" transform="translate(224.37455 151.634766) scale(0.165 -0.165)">
      <defs>
       <path id="DejaVuSans-33" d="M 2597 2516 
Q 3050 2419 3304 2112 
Q 3559 1806 3559 1356 
Q 3559 666 3084 287 
Q 2609 -91 1734 -91 
Q 1441 -91 1130 -33 
Q 819 25 488 141 
L 488 750 
Q 750 597 1062 519 
Q 1375 441 1716 441 
Q 2309 441 2620 675 
Q 2931 909 2931 1356 
Q 2931 1769 2642 2001 
Q 2353 2234 1838 2234 
L 1294 2234 
L 1294 2753 
L 1863 2753 
Q 2328 2753 2575 2939 
Q 2822 3125 2822 3475 
Q 2822 3834 2567 4026 
Q 2313 4219 1838 4219 
Q 1578 4219 1281 4162 
Q 984 4106 628 3988 
L 628 4550 
Q 988 4650 1302 4700 
Q 1616 4750 1894 4750 
Q 2613 4750 3031 4423 
Q 3450 4097 3450 3541 
Q 3450 3153 3228 2886 
Q 3006 2619 2597 2516 
z
" transform="scale(0.015625)"/>
      </defs>
      <use xlink:href="#DejaVuSans-33"/>
     </g>
    </g>
    <g id="line2d_21">
     <path d="M 178.17455 170.078672 
L 194.67455 170.078672 
L 211.17455 170.078672 
" style="fill: none; stroke: #8172b3; stroke-width: 2.25; stroke-linecap: round"/>
    </g>
    <g id="text_15">
     <!-- 4 -->
     <g style="fill: #262626" transform="translate(224.37455 175.853672) scale(0.165 -0.165)">
      <defs>
       <path id="DejaVuSans-34" d="M 2419 4116 
L 825 1625 
L 2419 1625 
L 2419 4116 
z
M 2253 4666 
L 3047 4666 
L 3047 1625 
L 3713 1625 
L 3713 1100 
L 3047 1100 
L 3047 0 
L 2419 0 
L 2419 1100 
L 313 1100 
L 313 1709 
L 2253 4666 
z
" transform="scale(0.015625)"/>
      </defs>
      <use xlink:href="#DejaVuSans-34"/>
     </g>
    </g>
   </g>
  </g>
 </g>
 <defs>
  <clipPath id="pace984391e">
   <rect x="79.5" y="25.92" width="170.222675" height="99.121711"/>
  </clipPath>
 </defs>
</svg>
