<?xml version="1.0" encoding="utf-8" standalone="no"?>
<!DOCTYPE svg PUBLIC "-//W3C//DTD SVG 1.1//EN"
  "http://www.w3.org/Graphics/SVG/1.1/DTD/svg11.dtd">
<svg xmlns:xlink="http://www.w3.org/1999/xlink" width="936pt" height="504pt" viewBox="0 0 936 504" xmlns="http://www.w3.org/2000/svg" version="1.1">
 <metadata>
  <rdf:RDF xmlns:dc="http://purl.org/dc/elements/1.1/" xmlns:cc="http://creativecommons.org/ns#" xmlns:rdf="http://www.w3.org/1999/02/22-rdf-syntax-ns#">
   <cc:Work>
    <dc:type rdf:resource="http://purl.org/dc/dcmitype/StillImage"/>
    <dc:date>1980-01-01T00:00:00+00:00</dc:date>
    <dc:format>image/svg+xml</dc:format>
    <dc:creator>
     <cc:Agent>
      <dc:title>Matplotlib v3.9.2, https://matplotlib.org/</dc:title>
     </cc:Agent>
    </dc:creator>
   </cc:Work>
  </rdf:RDF>
 </metadata>
 <defs>
  <style type="text/css">*{stroke-linejoin: round; stroke-linecap: butt}</style>
 </defs>
 <g id="figure_1">
  <g id="patch_1">
   <path d="M 0 504 
L 936 504 
L 936 0 
L 0 0 
z
" style="fill: #ffffff"/>
  </g>
  <g id="axes_1">
   <g id="patch_2">
    <path d="M 46.068 462.612 
L 918.657 462.612 
L 918.657 13.968 
L 46.068 13.968 
z
" style="fill: #eaeaf2"/>
   </g>
   <g id="matplotlib.axis_1">
    <g id="xtick_1">
     <g id="line2d_1">
      <path d="M 46.068 462.612 
L 46.068 13.968 
" clip-path="url(#pe593eb4f8b)" style="fill: none; stroke: #ffffff; stroke-width: 0.8; stroke-linecap: round"/>
     </g>
     <g id="text_1">
      <!-- 0.0 -->
      <g style="fill: #262626" transform="translate(39.070625 477.598625) scale(0.088 -0.088)">
       <defs>
        <path id="DejaVuSans-30" d="M 2034 4250 
Q 1547 4250 1301 3770 
Q 1056 3291 1056 2328 
Q 1056 1369 1301 889 
Q 1547 409 2034 409 
Q 2525 409 2770 889 
Q 3016 1369 3016 2328 
Q 3016 3291 2770 3770 
Q 2525 4250 2034 4250 
z
M 2034 4750 
Q 2819 4750 3233 4129 
Q 3647 3509 3647 2328 
Q 3647 1150 3233 529 
Q 2819 -91 2034 -91 
Q 1250 -91 836 529 
Q 422 1150 422 2328 
Q 422 3509 836 4129 
Q 1250 4750 2034 4750 
z
" transform="scale(0.015625)"/>
        <path id="DejaVuSans-2e" d="M 684 794 
L 1344 794 
L 1344 0 
L 684 0 
L 684 794 
z
" transform="scale(0.015625)"/>
       </defs>
       <use xlink:href="#DejaVuSans-30"/>
       <use xlink:href="#DejaVuSans-2e" x="63.623047"/>
       <use xlink:href="#DejaVuSans-30" x="95.410156"/>
      </g>
     </g>
    </g>
    <g id="xtick_2">
     <g id="line2d_2">
      <path d="M 220.5858 462.612 
L 220.5858 13.968 
" clip-path="url(#pe593eb4f8b)" style="fill: none; stroke: #ffffff; stroke-width: 0.8; stroke-linecap: round"/>
     </g>
     <g id="text_2">
      <!-- 0.2 -->
      <g style="fill: #262626" transform="translate(213.588425 477.598625) scale(0.088 -0.088)">
       <defs>
        <path id="DejaVuSans-32" d="M 1228 531 
L 3431 531 
L 3431 0 
L 469 0 
L 469 531 
Q 828 903 1448 1529 
Q 2069 2156 2228 2338 
Q 2531 2678 2651 2914 
Q 2772 3150 2772 3378 
Q 2772 3750 2511 3984 
Q 2250 4219 1831 4219 
Q 1534 4219 1204 4116 
Q 875 4013 500 3803 
L 500 4441 
Q 881 4594 1212 4672 
Q 1544 4750 1819 4750 
Q 2544 4750 2975 4387 
Q 3406 4025 3406 3419 
Q 3406 3131 3298 2873 
Q 3191 2616 2906 2266 
Q 2828 2175 2409 1742 
Q 1991 1309 1228 531 
z
" transform="scale(0.015625)"/>
       </defs>
       <use xlink:href="#DejaVuSans-30"/>
       <use xlink:href="#DejaVuSans-2e" x="63.623047"/>
       <use xlink:href="#DejaVuSans-32" x="95.410156"/>
      </g>
     </g>
    </g>
    <g id="xtick_3">
     <g id="line2d_3">
      <path d="M 395.1036 462.612 
L 395.1036 13.968 
" clip-path="url(#pe593eb4f8b)" style="fill: none; stroke: #ffffff; stroke-width: 0.8; stroke-linecap: round"/>
     </g>
     <g id="text_3">
      <!-- 0.4 -->
      <g style="fill: #262626" transform="translate(388.106225 477.598625) scale(0.088 -0.088)">
       <defs>
        <path id="DejaVuSans-34" d="M 2419 4116 
L 825 1625 
L 2419 1625 
L 2419 4116 
z
M 2253 4666 
L 3047 4666 
L 3047 1625 
L 3713 1625 
L 3713 1100 
L 3047 1100 
L 3047 0 
L 2419 0 
L 2419 1100 
L 313 1100 
L 313 1709 
L 2253 4666 
z
" transform="scale(0.015625)"/>
       </defs>
       <use xlink:href="#DejaVuSans-30"/>
       <use xlink:href="#DejaVuSans-2e" x="63.623047"/>
       <use xlink:href="#DejaVuSans-34" x="95.410156"/>
      </g>
     </g>
    </g>
    <g id="xtick_4">
     <g id="line2d_4">
      <path d="M 569.6214 462.612 
L 569.6214 13.968 
" clip-path="url(#pe593eb4f8b)" style="fill: none; stroke: #ffffff; stroke-width: 0.8; stroke-linecap: round"/>
     </g>
     <g id="text_4">
      <!-- 0.6 -->
      <g style="fill: #262626" transform="translate(562.624025 477.598625) scale(0.088 -0.088)">
       <defs>
        <path id="DejaVuSans-36" d="M 2113 2584 
Q 1688 2584 1439 2293 
Q 1191 2003 1191 1497 
Q 1191 994 1439 701 
Q 1688 409 2113 409 
Q 2538 409 2786 701 
Q 3034 994 3034 1497 
Q 3034 2003 2786 2293 
Q 2538 2584 2113 2584 
z
M 3366 4563 
L 3366 3988 
Q 3128 4100 2886 4159 
Q 2644 4219 2406 4219 
Q 1781 4219 1451 3797 
Q 1122 3375 1075 2522 
Q 1259 2794 1537 2939 
Q 1816 3084 2150 3084 
Q 2853 3084 3261 2657 
Q 3669 2231 3669 1497 
Q 3669 778 3244 343 
Q 2819 -91 2113 -91 
Q 1303 -91 875 529 
Q 447 1150 447 2328 
Q 447 3434 972 4092 
Q 1497 4750 2381 4750 
Q 2619 4750 2861 4703 
Q 3103 4656 3366 4563 
z
" transform="scale(0.015625)"/>
       </defs>
       <use xlink:href="#DejaVuSans-30"/>
       <use xlink:href="#DejaVuSans-2e" x="63.623047"/>
       <use xlink:href="#DejaVuSans-36" x="95.410156"/>
      </g>
     </g>
    </g>
    <g id="xtick_5">
     <g id="line2d_5">
      <path d="M 744.1392 462.612 
L 744.1392 13.968 
" clip-path="url(#pe593eb4f8b)" style="fill: none; stroke: #ffffff; stroke-width: 0.8; stroke-linecap: round"/>
     </g>
     <g id="text_5">
      <!-- 0.8 -->
      <g style="fill: #262626" transform="translate(737.141825 477.598625) scale(0.088 -0.088)">
       <defs>
        <path id="DejaVuSans-38" d="M 2034 2216 
Q 1584 2216 1326 1975 
Q 1069 1734 1069 1313 
Q 1069 891 1326 650 
Q 1584 409 2034 409 
Q 2484 409 2743 651 
Q 3003 894 3003 1313 
Q 3003 1734 2745 1975 
Q 2488 2216 2034 2216 
z
M 1403 2484 
Q 997 2584 770 2862 
Q 544 3141 544 3541 
Q 544 4100 942 4425 
Q 1341 4750 2034 4750 
Q 2731 4750 3128 4425 
Q 3525 4100 3525 3541 
Q 3525 3141 3298 2862 
Q 3072 2584 2669 2484 
Q 3125 2378 3379 2068 
Q 3634 1759 3634 1313 
Q 3634 634 3220 271 
Q 2806 -91 2034 -91 
Q 1263 -91 848 271 
Q 434 634 434 1313 
Q 434 1759 690 2068 
Q 947 2378 1403 2484 
z
M 1172 3481 
Q 1172 3119 1398 2916 
Q 1625 2713 2034 2713 
Q 2441 2713 2670 2916 
Q 2900 3119 2900 3481 
Q 2900 3844 2670 4047 
Q 2441 4250 2034 4250 
Q 1625 4250 1398 4047 
Q 1172 3844 1172 3481 
z
" transform="scale(0.015625)"/>
       </defs>
       <use xlink:href="#DejaVuSans-30"/>
       <use xlink:href="#DejaVuSans-2e" x="63.623047"/>
       <use xlink:href="#DejaVuSans-38" x="95.410156"/>
      </g>
     </g>
    </g>
    <g id="xtick_6">
     <g id="line2d_6">
      <path d="M 918.657 462.612 
L 918.657 13.968 
" clip-path="url(#pe593eb4f8b)" style="fill: none; stroke: #ffffff; stroke-width: 0.8; stroke-linecap: round"/>
     </g>
     <g id="text_6">
      <!-- 1.0 -->
      <g style="fill: #262626" transform="translate(911.659625 477.598625) scale(0.088 -0.088)">
       <defs>
        <path id="DejaVuSans-31" d="M 794 531 
L 1825 531 
L 1825 4091 
L 703 3866 
L 703 4441 
L 1819 4666 
L 2450 4666 
L 2450 531 
L 3481 531 
L 3481 0 
L 794 0 
L 794 531 
z
" transform="scale(0.015625)"/>
       </defs>
       <use xlink:href="#DejaVuSans-31"/>
       <use xlink:href="#DejaVuSans-2e" x="63.623047"/>
       <use xlink:href="#DejaVuSans-30" x="95.410156"/>
      </g>
     </g>
    </g>
    <g id="text_7">
     <!-- Timestep -->
     <g style="fill: #262626" transform="translate(460.23525 490.72325) scale(0.096 -0.096)">
      <defs>
       <path id="DejaVuSans-54" d="M -19 4666 
L 3928 4666 
L 3928 4134 
L 2272 4134 
L 2272 0 
L 1638 0 
L 1638 4134 
L -19 4134 
L -19 4666 
z
" transform="scale(0.015625)"/>
       <path id="DejaVuSans-69" d="M 603 3500 
L 1178 3500 
L 1178 0 
L 603 0 
L 603 3500 
z
M 603 4863 
L 1178 4863 
L 1178 4134 
L 603 4134 
L 603 4863 
z
" transform="scale(0.015625)"/>
       <path id="DejaVuSans-6d" d="M 3328 2828 
Q 3544 3216 3844 3400 
Q 4144 3584 4550 3584 
Q 5097 3584 5394 3201 
Q 5691 2819 5691 2113 
L 5691 0 
L 5113 0 
L 5113 2094 
Q 5113 2597 4934 2840 
Q 4756 3084 4391 3084 
Q 3944 3084 3684 2787 
Q 3425 2491 3425 1978 
L 3425 0 
L 2847 0 
L 2847 2094 
Q 2847 2600 2669 2842 
Q 2491 3084 2119 3084 
Q 1678 3084 1418 2786 
Q 1159 2488 1159 1978 
L 1159 0 
L 581 0 
L 581 3500 
L 1159 3500 
L 1159 2956 
Q 1356 3278 1631 3431 
Q 1906 3584 2284 3584 
Q 2666 3584 2933 3390 
Q 3200 3197 3328 2828 
z
" transform="scale(0.015625)"/>
       <path id="DejaVuSans-65" d="M 3597 1894 
L 3597 1613 
L 953 1613 
Q 991 1019 1311 708 
Q 1631 397 2203 397 
Q 2534 397 2845 478 
Q 3156 559 3463 722 
L 3463 178 
Q 3153 47 2828 -22 
Q 2503 -91 2169 -91 
Q 1331 -91 842 396 
Q 353 884 353 1716 
Q 353 2575 817 3079 
Q 1281 3584 2069 3584 
Q 2775 3584 3186 3129 
Q 3597 2675 3597 1894 
z
M 3022 2063 
Q 3016 2534 2758 2815 
Q 2500 3097 2075 3097 
Q 1594 3097 1305 2825 
Q 1016 2553 972 2059 
L 3022 2063 
z
" transform="scale(0.015625)"/>
       <path id="DejaVuSans-73" d="M 2834 3397 
L 2834 2853 
Q 2591 2978 2328 3040 
Q 2066 3103 1784 3103 
Q 1356 3103 1142 2972 
Q 928 2841 928 2578 
Q 928 2378 1081 2264 
Q 1234 2150 1697 2047 
L 1894 2003 
Q 2506 1872 2764 1633 
Q 3022 1394 3022 966 
Q 3022 478 2636 193 
Q 2250 -91 1575 -91 
Q 1294 -91 989 -36 
Q 684 19 347 128 
L 347 722 
Q 666 556 975 473 
Q 1284 391 1588 391 
Q 1994 391 2212 530 
Q 2431 669 2431 922 
Q 2431 1156 2273 1281 
Q 2116 1406 1581 1522 
L 1381 1569 
Q 847 1681 609 1914 
Q 372 2147 372 2553 
Q 372 3047 722 3315 
Q 1072 3584 1716 3584 
Q 2034 3584 2315 3537 
Q 2597 3491 2834 3397 
z
" transform="scale(0.015625)"/>
       <path id="DejaVuSans-74" d="M 1172 4494 
L 1172 3500 
L 2356 3500 
L 2356 3053 
L 1172 3053 
L 1172 1153 
Q 1172 725 1289 603 
Q 1406 481 1766 481 
L 2356 481 
L 2356 0 
L 1766 0 
Q 1100 0 847 248 
Q 594 497 594 1153 
L 594 3053 
L 172 3053 
L 172 3500 
L 594 3500 
L 594 4494 
L 1172 4494 
z
" transform="scale(0.015625)"/>
       <path id="DejaVuSans-70" d="M 1159 525 
L 1159 -1331 
L 581 -1331 
L 581 3500 
L 1159 3500 
L 1159 2969 
Q 1341 3281 1617 3432 
Q 1894 3584 2278 3584 
Q 2916 3584 3314 3078 
Q 3713 2572 3713 1747 
Q 3713 922 3314 415 
Q 2916 -91 2278 -91 
Q 1894 -91 1617 61 
Q 1341 213 1159 525 
z
M 3116 1747 
Q 3116 2381 2855 2742 
Q 2594 3103 2138 3103 
Q 1681 3103 1420 2742 
Q 1159 2381 1159 1747 
Q 1159 1113 1420 752 
Q 1681 391 2138 391 
Q 2594 391 2855 752 
Q 3116 1113 3116 1747 
z
" transform="scale(0.015625)"/>
      </defs>
      <use xlink:href="#DejaVuSans-54"/>
      <use xlink:href="#DejaVuSans-69" x="57.958984"/>
      <use xlink:href="#DejaVuSans-6d" x="85.742188"/>
      <use xlink:href="#DejaVuSans-65" x="183.154297"/>
      <use xlink:href="#DejaVuSans-73" x="244.677734"/>
      <use xlink:href="#DejaVuSans-74" x="296.777344"/>
      <use xlink:href="#DejaVuSans-65" x="335.986328"/>
      <use xlink:href="#DejaVuSans-70" x="397.509766"/>
     </g>
    </g>
    <g id="text_8">
     <!-- 1e6 -->
     <g style="fill: #262626" transform="translate(902.04425 489.115375) scale(0.088 -0.088)">
      <use xlink:href="#DejaVuSans-31"/>
      <use xlink:href="#DejaVuSans-65" x="63.623047"/>
      <use xlink:href="#DejaVuSans-36" x="125.146484"/>
     </g>
    </g>
   </g>
   <g id="matplotlib.axis_2">
    <g id="ytick_1">
     <g id="line2d_7">
      <path d="M 46.068 462.612 
L 918.657 462.612 
" clip-path="url(#pe593eb4f8b)" style="fill: none; stroke: #ffffff; stroke-width: 0.8; stroke-linecap: round"/>
     </g>
     <g id="text_9">
      <!-- 0.0 -->
      <g style="fill: #262626" transform="translate(23.77325 465.955312) scale(0.088 -0.088)">
       <use xlink:href="#DejaVuSans-30"/>
       <use xlink:href="#DejaVuSans-2e" x="63.623047"/>
       <use xlink:href="#DejaVuSans-30" x="95.410156"/>
      </g>
     </g>
    </g>
    <g id="ytick_2">
     <g id="line2d_8">
      <path d="M 46.068 372.8832 
L 918.657 372.8832 
" clip-path="url(#pe593eb4f8b)" style="fill: none; stroke: #ffffff; stroke-width: 0.8; stroke-linecap: round"/>
     </g>
     <g id="text_10">
      <!-- 0.2 -->
      <g style="fill: #262626" transform="translate(23.77325 376.226513) scale(0.088 -0.088)">
       <use xlink:href="#DejaVuSans-30"/>
       <use xlink:href="#DejaVuSans-2e" x="63.623047"/>
       <use xlink:href="#DejaVuSans-32" x="95.410156"/>
      </g>
     </g>
    </g>
    <g id="ytick_3">
     <g id="line2d_9">
      <path d="M 46.068 283.1544 
L 918.657 283.1544 
" clip-path="url(#pe593eb4f8b)" style="fill: none; stroke: #ffffff; stroke-width: 0.8; stroke-linecap: round"/>
     </g>
     <g id="text_11">
      <!-- 0.4 -->
      <g style="fill: #262626" transform="translate(23.77325 286.497712) scale(0.088 -0.088)">
       <use xlink:href="#DejaVuSans-30"/>
       <use xlink:href="#DejaVuSans-2e" x="63.623047"/>
       <use xlink:href="#DejaVuSans-34" x="95.410156"/>
      </g>
     </g>
    </g>
    <g id="ytick_4">
     <g id="line2d_10">
      <path d="M 46.068 193.4256 
L 918.657 193.4256 
" clip-path="url(#pe593eb4f8b)" style="fill: none; stroke: #ffffff; stroke-width: 0.8; stroke-linecap: round"/>
     </g>
     <g id="text_12">
      <!-- 0.6 -->
      <g style="fill: #262626" transform="translate(23.77325 196.768912) scale(0.088 -0.088)">
       <use xlink:href="#DejaVuSans-30"/>
       <use xlink:href="#DejaVuSans-2e" x="63.623047"/>
       <use xlink:href="#DejaVuSans-36" x="95.410156"/>
      </g>
     </g>
    </g>
    <g id="ytick_5">
     <g id="line2d_11">
      <path d="M 46.068 103.6968 
L 918.657 103.6968 
" clip-path="url(#pe593eb4f8b)" style="fill: none; stroke: #ffffff; stroke-width: 0.8; stroke-linecap: round"/>
     </g>
     <g id="text_13">
      <!-- 0.8 -->
      <g style="fill: #262626" transform="translate(23.77325 107.040112) scale(0.088 -0.088)">
       <use xlink:href="#DejaVuSans-30"/>
       <use xlink:href="#DejaVuSans-2e" x="63.623047"/>
       <use xlink:href="#DejaVuSans-38" x="95.410156"/>
      </g>
     </g>
    </g>
    <g id="ytick_6">
     <g id="line2d_12">
      <path d="M 46.068 13.968 
L 918.657 13.968 
" clip-path="url(#pe593eb4f8b)" style="fill: none; stroke: #ffffff; stroke-width: 0.8; stroke-linecap: round"/>
     </g>
     <g id="text_14">
      <!-- 1.0 -->
      <g style="fill: #262626" transform="translate(23.77325 17.311312) scale(0.088 -0.088)">
       <use xlink:href="#DejaVuSans-31"/>
       <use xlink:href="#DejaVuSans-2e" x="63.623047"/>
       <use xlink:href="#DejaVuSans-30" x="95.410156"/>
      </g>
     </g>
    </g>
    <g id="text_15">
     <!-- Score -->
     <g style="fill: #262626" transform="translate(17.77675 251.73225) rotate(-90) scale(0.096 -0.096)">
      <defs>
       <path id="DejaVuSans-53" d="M 3425 4513 
L 3425 3897 
Q 3066 4069 2747 4153 
Q 2428 4238 2131 4238 
Q 1616 4238 1336 4038 
Q 1056 3838 1056 3469 
Q 1056 3159 1242 3001 
Q 1428 2844 1947 2747 
L 2328 2669 
Q 3034 2534 3370 2195 
Q 3706 1856 3706 1288 
Q 3706 609 3251 259 
Q 2797 -91 1919 -91 
Q 1588 -91 1214 -16 
Q 841 59 441 206 
L 441 856 
Q 825 641 1194 531 
Q 1563 422 1919 422 
Q 2459 422 2753 634 
Q 3047 847 3047 1241 
Q 3047 1584 2836 1778 
Q 2625 1972 2144 2069 
L 1759 2144 
Q 1053 2284 737 2584 
Q 422 2884 422 3419 
Q 422 4038 858 4394 
Q 1294 4750 2059 4750 
Q 2388 4750 2728 4690 
Q 3069 4631 3425 4513 
z
" transform="scale(0.015625)"/>
       <path id="DejaVuSans-63" d="M 3122 3366 
L 3122 2828 
Q 2878 2963 2633 3030 
Q 2388 3097 2138 3097 
Q 1578 3097 1268 2742 
Q 959 2388 959 1747 
Q 959 1106 1268 751 
Q 1578 397 2138 397 
Q 2388 397 2633 464 
Q 2878 531 3122 666 
L 3122 134 
Q 2881 22 2623 -34 
Q 2366 -91 2075 -91 
Q 1284 -91 818 406 
Q 353 903 353 1747 
Q 353 2603 823 3093 
Q 1294 3584 2113 3584 
Q 2378 3584 2631 3529 
Q 2884 3475 3122 3366 
z
" transform="scale(0.015625)"/>
       <path id="DejaVuSans-6f" d="M 1959 3097 
Q 1497 3097 1228 2736 
Q 959 2375 959 1747 
Q 959 1119 1226 758 
Q 1494 397 1959 397 
Q 2419 397 2687 759 
Q 2956 1122 2956 1747 
Q 2956 2369 2687 2733 
Q 2419 3097 1959 3097 
z
M 1959 3584 
Q 2709 3584 3137 3096 
Q 3566 2609 3566 1747 
Q 3566 888 3137 398 
Q 2709 -91 1959 -91 
Q 1206 -91 779 398 
Q 353 888 353 1747 
Q 353 2609 779 3096 
Q 1206 3584 1959 3584 
z
" transform="scale(0.015625)"/>
       <path id="DejaVuSans-72" d="M 2631 2963 
Q 2534 3019 2420 3045 
Q 2306 3072 2169 3072 
Q 1681 3072 1420 2755 
Q 1159 2438 1159 1844 
L 1159 0 
L 581 0 
L 581 3500 
L 1159 3500 
L 1159 2956 
Q 1341 3275 1631 3429 
Q 1922 3584 2338 3584 
Q 2397 3584 2469 3576 
Q 2541 3569 2628 3553 
L 2631 2963 
z
" transform="scale(0.015625)"/>
      </defs>
      <use xlink:href="#DejaVuSans-53"/>
      <use xlink:href="#DejaVuSans-63" x="63.476562"/>
      <use xlink:href="#DejaVuSans-6f" x="118.457031"/>
      <use xlink:href="#DejaVuSans-72" x="179.638672"/>
      <use xlink:href="#DejaVuSans-65" x="218.501953"/>
     </g>
    </g>
   </g>
   <g id="PolyCollection_1">
    <defs>
     <path id="m439d399c47" d="M 54.79389 -41.388 
L 54.79389 -41.388 
L 63.51978 -41.388 
L 72.24567 -41.388 
L 80.97156 -41.388 
L 89.69745 -41.388 
L 98.42334 -41.388 
L 107.14923 -41.388 
L 115.87512 -41.388 
L 124.60101 -41.388 
L 133.3269 -41.388 
L 142.05279 -41.388 
L 150.77868 -41.388 
L 159.50457 -41.388 
L 168.23046 -41.388 
L 176.95635 -41.388 
L 185.68224 -41.388 
L 194.40813 -41.388 
L 203.13402 -41.388 
L 211.85991 -50.007573 
L 220.5858 -58.475719 
L 229.31169 -50.15899 
L 238.03758 -93.48619 
L 246.76347 -128.479626 
L 255.48936 -128.504839 
L 264.21525 -102.595675 
L 272.94114 -181.004613 
L 281.66703 -137.549628 
L 290.39292 -181.19075 
L 299.11881 -164.131399 
L 307.8447 -154.918764 
L 316.57059 -180.260142 
L 325.29648 -146.261352 
L 334.02237 -163.904278 
L 342.74826 -189.86395 
L 351.47415 -155.082806 
L 360.20004 -137.376784 
L 368.92593 -172.763597 
L 377.65182 -181.547203 
L 386.37771 -321.251532 
L 395.1036 -207.721363 
L 403.82949 -355.957549 
L 412.55538 -285.562524 
L 421.28127 -321.416214 
L 430.00716 -355.175231 
L 438.73305 -381.500862 
L 447.45894 -330.03576 
L 456.18483 -373.474325 
L 464.91072 -391.685054 
L 473.63661 -347.57775 
L 482.3625 -390.764553 
L 491.08839 -330.767633 
L 499.81428 -373.63834 
L 508.54017 -330.08626 
L 517.26606 -347.956297 
L 525.99195 -303.596613 
L 534.71784 -338.819411 
L 543.44373 -357.610587 
L 552.16962 -329.888757 
L 560.89551 -338.806804 
L 569.6214 -357.509633 
L 578.34729 -295.506969 
L 587.07318 -443.326742 
L 595.79907 -339.096688 
L 604.52496 -295.570076 
L 613.25085 -365.334272 
L 621.97674 -348.321292 
L 630.70263 -330.363836 
L 639.42852 -339.109594 
L 648.15441 -330.275498 
L 656.8803 -286.370056 
L 665.60619 -338.644573 
L 674.33208 -392.277187 
L 683.05797 -347.683092 
L 691.78386 -418.124273 
L 700.50975 -356.815644 
L 709.23564 -355.818748 
L 717.96153 -408.457368 
L 726.68742 -356.462327 
L 735.41331 -383.317852 
L 744.1392 -364.564533 
L 752.86509 -391.343443 
L 761.59098 -357.724139 
L 770.31687 -322.059704 
L 779.04276 -425.758655 
L 787.76865 -400.163924 
L 796.49454 -268.524962 
L 805.22043 -374.218796 
L 813.94632 -374.117842 
L 822.67221 -426.70562 
L 831.3981 -374.191636 
L 840.12399 -347.312762 
L 848.84988 -373.815007 
L 857.57577 -427.00877 
L 866.30166 -452.905363 
L 875.02755 -426.819505 
L 883.75344 -426.390458 
L 892.47933 -400.380349 
L 901.20522 -427.198062 
L 909.93111 -452.602528 
L 918.657 -400.317261 
L 918.657 -479.357153 
L 918.657 -479.357153 
L 909.93111 -479.357153 
L 901.20522 -479.344537 
L 892.47933 -479.344853 
L 883.75344 -479.357153 
L 875.02755 -479.344537 
L 866.30166 -479.357153 
L 857.57577 -479.344537 
L 848.84988 -479.357153 
L 840.12399 -479.357153 
L 831.3981 -479.344537 
L 822.67221 -479.344537 
L 813.94632 -479.331921 
L 805.22043 -479.357153 
L 796.49454 -479.357153 
L 787.76865 -479.357153 
L 779.04276 -479.344537 
L 770.31687 -479.129996 
L 761.59098 -479.092121 
L 752.86509 -479.129996 
L 744.1392 -479.129996 
L 735.41331 -479.129996 
L 726.68742 -479.092121 
L 717.96153 -479.129996 
L 709.23564 -479.129996 
L 700.50975 -479.129996 
L 691.78386 -479.093068 
L 683.05797 -479.129996 
L 674.33208 -479.004766 
L 665.60619 -479.129996 
L 656.8803 -479.129996 
L 648.15441 -479.129996 
L 639.42852 -479.129996 
L 630.70263 -479.093068 
L 621.97674 -479.092121 
L 613.25085 -479.092121 
L 604.52496 -479.129996 
L 595.79907 -479.129996 
L 587.07318 -479.055193 
L 578.34729 -479.129996 
L 569.6214 -479.129996 
L 560.89551 -479.092121 
L 552.16962 -479.092121 
L 543.44373 -479.129996 
L 534.71784 -479.129996 
L 525.99195 -479.129996 
L 517.26606 -479.129996 
L 508.54017 -479.055193 
L 499.81428 -479.16787 
L 491.08839 -479.129996 
L 482.3625 -479.129996 
L 473.63661 -479.092121 
L 464.91072 -479.129996 
L 456.18483 -479.129996 
L 447.45894 -470.560868 
L 438.73305 -470.245445 
L 430.00716 -461.714183 
L 421.28127 -470.498736 
L 412.55538 -461.234681 
L 403.82949 -461.865609 
L 395.1036 -470.699706 
L 386.37771 -453.054935 
L 377.65182 -444.336263 
L 368.92593 -426.630258 
L 360.20004 -383.204282 
L 351.47415 -391.31914 
L 342.74826 -399.837795 
L 334.02237 -382.825744 
L 325.29648 -338.529156 
L 316.57059 -406.867445 
L 307.8447 -356.245272 
L 299.11881 -348.473638 
L 290.39292 -417.60815 
L 281.66703 -321.239556 
L 272.94114 -416.81189 
L 264.21525 -286.357485 
L 255.48936 -320.722162 
L 246.76347 -321.138602 
L 238.03758 -190.194242 
L 229.31169 -278.103817 
L 220.5858 -207.03999 
L 211.85991 -128.732006 
L 203.13402 -119.986256 
L 194.40813 -41.388 
L 185.68224 -41.388 
L 176.95635 -41.388 
L 168.23046 -41.388 
L 159.50457 -41.388 
L 150.77868 -41.388 
L 142.05279 -41.388 
L 133.3269 -41.388 
L 124.60101 -41.388 
L 115.87512 -41.388 
L 107.14923 -41.388 
L 98.42334 -41.388 
L 89.69745 -41.388 
L 80.97156 -41.388 
L 72.24567 -41.388 
L 63.51978 -41.388 
L 54.79389 -41.388 
z
" style="stroke: #4c72b0; stroke-opacity: 0.2; stroke-width: 0.8"/>
    </defs>
    <g clip-path="url(#pe593eb4f8b)">
     <use xlink:href="#m439d399c47" x="0" y="504" style="fill: #4c72b0; fill-opacity: 0.2; stroke: #4c72b0; stroke-opacity: 0.2; stroke-width: 0.8"/>
    </g>
   </g>
   <g id="PolyCollection_2">
    <defs>
     <path id="ma5dc979724" d="M 54.79389 -41.388 
L 54.79389 -41.388 
L 63.51978 -41.388 
L 72.24567 -41.388 
L 80.97156 -41.388 
L 89.69745 -41.388 
L 98.42334 -41.388 
L 107.14923 -41.388 
L 115.87512 -41.388 
L 124.60101 -41.388 
L 133.3269 -41.388 
L 142.05279 -41.388 
L 150.77868 -41.388 
L 159.50457 -41.388 
L 168.23046 -41.388 
L 176.95635 -41.388 
L 185.68224 -41.388 
L 194.40813 -49.818299 
L 203.13402 -41.388 
L 211.85991 -58.929989 
L 220.5858 -58.84166 
L 229.31169 -101.914284 
L 238.03758 -111.051206 
L 246.76347 -93.761579 
L 255.48936 -110.735756 
L 264.21525 -119.531977 
L 272.94114 -146.248719 
L 281.66703 -119.872687 
L 290.39292 -145.87018 
L 299.11881 -128.325016 
L 307.8447 -146.160408 
L 316.57059 -129.047439 
L 325.29648 -137.868901 
L 334.02237 -146.463242 
L 342.74826 -137.578673 
L 351.47415 -180.727028 
L 360.20004 -128.579578 
L 368.92593 -120.150263 
L 377.65182 -137.742716 
L 386.37771 -181.736486 
L 395.1036 -146.311203 
L 403.82949 -259.994006 
L 412.55538 -285.966295 
L 421.28127 -207.254513 
L 430.00716 -259.511936 
L 438.73305 -199.265833 
L 447.45894 -242.488306 
L 456.18483 -242.26277 
L 464.91072 -294.92655 
L 473.63661 -304.076106 
L 482.3625 -225.200273 
L 491.08839 -313.149922 
L 499.81428 -225.339075 
L 508.54017 -277.586486 
L 517.26606 -269.05526 
L 525.99195 -233.17632 
L 534.71784 -284.90631 
L 543.44373 -303.861582 
L 552.16962 -320.821827 
L 560.89551 -312.933235 
L 569.6214 -356.474907 
L 578.34729 -339.071755 
L 587.07318 -338.80645 
L 595.79907 -321.264743 
L 604.52496 -303.912055 
L 613.25085 -294.573225 
L 621.97674 -355.919755 
L 630.70263 -294.838221 
L 639.42852 -364.991038 
L 648.15441 -286.395324 
L 656.8803 -374.08003 
L 665.60619 -356.601084 
L 674.33208 -356.674318 
L 683.05797 -295.229357 
L 691.78386 -365.788515 
L 700.50975 -348.461013 
L 709.23564 -339.437687 
L 717.96153 -347.615561 
L 726.68742 -355.730428 
L 735.41331 -374.168359 
L 744.1392 -443.680094 
L 752.86509 -400.50649 
L 761.59098 -399.989212 
L 770.31687 -399.446622 
L 779.04276 -399.698948 
L 787.76865 -425.759566 
L 796.49454 -399.156358 
L 805.22043 -478.145778 
L 805.22043 -478.700984 
L 805.22043 -478.700984 
L 796.49454 -478.549567 
L 787.76865 -478.524344 
L 779.04276 -478.524344 
L 770.31687 -478.524344 
L 761.59098 -478.524344 
L 752.86509 -478.499059 
L 744.1392 -478.499059 
L 735.41331 -478.473836 
L 726.68742 -478.473836 
L 717.96153 -478.449244 
L 709.23564 -478.448613 
L 700.50975 -478.473836 
L 691.78386 -478.473836 
L 683.05797 -478.473836 
L 674.33208 -478.474466 
L 665.60619 -478.42339 
L 656.8803 -478.448613 
L 648.15441 -478.473836 
L 639.42852 -478.473836 
L 630.70263 -478.449244 
L 621.97674 -478.473836 
L 613.25085 -461.148867 
L 604.52496 -461.209423 
L 595.79907 -461.146361 
L 587.07318 -460.944489 
L 578.34729 -461.360876 
L 569.6214 -461.17162 
L 560.89551 -435.729306 
L 552.16962 -426.327396 
L 543.44373 -443.755825 
L 534.71784 -443.919894 
L 525.99195 -417.190492 
L 517.26606 -356.348731 
L 508.54017 -382.674353 
L 499.81428 -383.280023 
L 491.08839 -391.268685 
L 482.3625 -391.52103 
L 473.63661 -391.394871 
L 464.91072 -391.192918 
L 456.18483 -365.990404 
L 447.45894 -347.413698 
L 438.73305 -373.941184 
L 430.00716 -338.390364 
L 421.28127 -329.165104 
L 412.55538 -365.663609 
L 403.82949 -355.780945 
L 395.1036 -356.638994 
L 386.37771 -365.056687 
L 377.65182 -330.098849 
L 368.92593 -268.981097 
L 360.20004 -329.871736 
L 351.47415 -364.917831 
L 342.74826 -373.423852 
L 334.02237 -408.81063 
L 325.29648 -321.719049 
L 316.57059 -286.40794 
L 307.8447 -321.416187 
L 299.11881 -355.705241 
L 290.39292 -337.22948 
L 281.66703 -320.696993 
L 272.94114 -321.782128 
L 264.21525 -285.726593 
L 255.48936 -338.125422 
L 246.76347 -241.518281 
L 238.03758 -259.098136 
L 229.31169 -241.190206 
L 220.5858 -173.079057 
L 211.85991 -163.187869 
L 203.13402 -76.484595 
L 194.40813 -102.696611 
L 185.68224 -67.852388 
L 176.95635 -76.371034 
L 168.23046 -41.388 
L 159.50457 -41.388 
L 150.77868 -41.388 
L 142.05279 -93.256854 
L 133.3269 -41.388 
L 124.60101 -41.388 
L 115.87512 -41.388 
L 107.14923 -41.388 
L 98.42334 -41.388 
L 89.69745 -41.388 
L 80.97156 -41.388 
L 72.24567 -41.388 
L 63.51978 -41.388 
L 54.79389 -41.388 
z
" style="stroke: #dd8452; stroke-opacity: 0.2; stroke-width: 0.8"/>
    </defs>
    <g clip-path="url(#pe593eb4f8b)">
     <use xlink:href="#ma5dc979724" x="0" y="504" style="fill: #dd8452; fill-opacity: 0.2; stroke: #dd8452; stroke-opacity: 0.2; stroke-width: 0.8"/>
    </g>
   </g>
   <g id="PolyCollection_3">
    <defs>
     <path id="m94bbbec7e1" d="M 54.79389 -41.388 
L 54.79389 -41.388 
L 63.51978 -41.388 
L 72.24567 -41.388 
L 80.97156 -41.388 
L 89.69745 -41.388 
L 98.42334 -41.388 
L 107.14923 -41.388 
L 115.87512 -41.388 
L 124.60101 -41.388 
L 133.3269 -41.388 
L 142.05279 -41.388 
L 150.77868 -41.388 
L 159.50457 -41.388 
L 168.23046 -41.388 
L 176.95635 -41.388 
L 185.68224 -41.388 
L 194.40813 -41.388 
L 203.13402 -41.388 
L 211.85991 -41.388 
L 220.5858 -41.388 
L 229.31169 -41.388 
L 238.03758 -41.388 
L 246.76347 -41.388 
L 255.48936 -41.388 
L 264.21525 -41.388 
L 272.94114 -41.388 
L 281.66703 -67.448608 
L 290.39292 -67.271959 
L 299.11881 -101.964738 
L 307.8447 -111.303577 
L 316.57059 -120.225974 
L 325.29648 -111.038581 
L 334.02237 -93.704751 
L 342.74826 -119.8979 
L 351.47415 -172.233632 
L 360.20004 -120.28591 
L 368.92593 -146.286584 
L 377.65182 -154.716892 
L 386.37771 -172.422879 
L 395.1036 -181.282225 
L 403.82949 -180.954132 
L 412.55538 -181.471508 
L 421.28127 -180.701769 
L 430.00716 -207.06523 
L 438.73305 -172.647206 
L 447.45894 -190.141571 
L 456.18483 -198.849437 
L 464.91072 -155.12069 
L 473.63661 -215.949781 
L 482.3625 -294.270354 
L 491.08839 -164.030472 
L 499.81428 -268.329351 
L 508.54017 -277.2265 
L 517.26606 -251.798109 
L 525.99195 -371.480632 
L 534.71784 -407.372143 
L 543.44373 -285.86535 
L 552.16962 -347.237067 
L 560.89551 -373.360755 
L 569.6214 -347.767015 
L 578.34729 -425.797422 
L 587.07318 -425.797422 
L 595.79907 -425.456722 
L 604.52496 -373.688812 
L 613.25085 -400.355117 
L 621.97674 -400.544346 
L 630.70263 -347.274942 
L 639.42852 -426.100284 
L 648.15441 -425.797422 
L 656.8803 -451.832817 
L 665.60619 -399.105868 
L 674.33208 -477.514814 
L 674.33208 -479.294038 
L 674.33208 -479.294038 
L 665.60619 -479.003837 
L 656.8803 -479.003837 
L 648.15441 -479.003837 
L 639.42852 -479.003837 
L 630.70263 -479.003837 
L 621.97674 -478.953373 
L 613.25085 -479.003837 
L 604.52496 -479.005099 
L 595.79907 -479.003837 
L 587.07318 -479.003837 
L 578.34729 -479.003837 
L 569.6214 -479.003837 
L 560.89551 -479.003837 
L 552.16962 -479.003837 
L 543.44373 -478.159656 
L 534.71784 -478.208867 
L 525.99195 -478.158394 
L 517.26606 -478.208867 
L 508.54017 -478.208867 
L 499.81428 -478.208867 
L 491.08839 -478.208867 
L 482.3625 -478.158394 
L 473.63661 -478.26344 
L 464.91072 -478.208867 
L 456.18483 -478.208867 
L 447.45894 -478.208867 
L 438.73305 -478.208867 
L 430.00716 -478.159656 
L 421.28127 -442.758938 
L 412.55538 -442.657984 
L 403.82949 -426.314754 
L 395.1036 -425.49457 
L 386.37771 -424.989845 
L 377.65182 -407.283805 
L 368.92593 -390.032025 
L 360.20004 -372.666694 
L 351.47415 -433.432733 
L 342.74826 -407.86426 
L 334.02237 -363.643386 
L 325.29648 -390.347852 
L 316.57059 -398.929219 
L 307.8447 -355.036402 
L 299.11881 -372.956939 
L 290.39292 -381.248428 
L 281.66703 -364.728521 
L 272.94114 -354.96068 
L 264.21525 -311.307619 
L 255.48936 -355.18782 
L 246.76347 -355.061634 
L 238.03758 -267.667218 
L 229.31169 -128.227263 
L 220.5858 -285.953688 
L 211.85991 -258.845747 
L 203.13402 -188.879733 
L 194.40813 -206.06837 
L 185.68224 -119.683395 
L 176.95635 -41.388 
L 168.23046 -67.246719 
L 159.50457 -41.388 
L 150.77868 -41.388 
L 142.05279 -41.388 
L 133.3269 -41.388 
L 124.60101 -41.388 
L 115.87512 -41.388 
L 107.14923 -41.388 
L 98.42334 -41.388 
L 89.69745 -41.388 
L 80.97156 -41.388 
L 72.24567 -41.388 
L 63.51978 -41.388 
L 54.79389 -41.388 
z
" style="stroke: #55a868; stroke-opacity: 0.2; stroke-width: 0.8"/>
    </defs>
    <g clip-path="url(#pe593eb4f8b)">
     <use xlink:href="#m94bbbec7e1" x="0" y="504" style="fill: #55a868; fill-opacity: 0.2; stroke: #55a868; stroke-opacity: 0.2; stroke-width: 0.8"/>
    </g>
   </g>
   <g id="PolyCollection_4">
    <defs>
     <path id="m10dd03a19e" d="M 54.79389 -41.388 
L 54.79389 -41.388 
L 63.51978 -41.388 
L 72.24567 -41.388 
L 80.97156 -41.388 
L 89.69745 -41.388 
L 98.42334 -41.388 
L 107.14923 -41.388 
L 115.87512 -41.388 
L 124.60101 -41.388 
L 133.3269 -41.388 
L 142.05279 -41.388 
L 150.77868 -41.388 
L 159.50457 -41.388 
L 168.23046 -41.388 
L 176.95635 -41.388 
L 185.68224 -41.388 
L 194.40813 -41.388 
L 203.13402 -41.388 
L 211.85991 -50.083286 
L 220.5858 -41.388 
L 229.31169 -67.600035 
L 238.03758 -50.058045 
L 246.76347 -76.686475 
L 255.48936 -102.305457 
L 264.21525 -93.420879 
L 272.94114 -93.660652 
L 281.66703 -102.35592 
L 290.39292 -137.253731 
L 299.11881 -111.063813 
L 307.8447 -119.960989 
L 316.57059 -145.920661 
L 325.29648 -172.397656 
L 334.02237 -128.593186 
L 342.74826 -154.906139 
L 351.47415 -163.95475 
L 360.20004 -154.98187 
L 368.92593 -137.641771 
L 377.65182 -172.271488 
L 386.37771 -146.236121 
L 395.1036 -172.485985 
L 403.82949 -163.697025 
L 412.55538 -172.838995 
L 421.28127 -172.763588 
L 430.00716 -198.975614 
L 438.73305 -181.332697 
L 447.45894 -190.027992 
L 456.18483 -190.179401 
L 464.91072 -190.192008 
L 473.63661 -181.433633 
L 482.3625 -181.142133 
L 491.08839 -172.460753 
L 499.81428 -181.332688 
L 508.54017 -294.741032 
L 517.26606 -216.530219 
L 525.99195 -278.015506 
L 534.71784 -416.887631 
L 543.44373 -303.58397 
L 552.16962 -356.575843 
L 560.89551 -373.638385 
L 569.6214 -312.090018 
L 578.34729 -391.243427 
L 587.07318 -320.848375 
L 595.79907 -399.673717 
L 604.52496 -320.720629 
L 613.25085 -453.712904 
L 621.97674 -477.628438 
L 621.97674 -479.281413 
L 621.97674 -479.281413 
L 613.25085 -479.294038 
L 604.52496 -479.294038 
L 595.79907 -479.294038 
L 587.07318 -479.294038 
L 578.34729 -479.281413 
L 569.6214 -479.294038 
L 560.89551 -479.281413 
L 552.16962 -479.294038 
L 543.44373 -479.306663 
L 534.71784 -479.306663 
L 525.99195 -470.171598 
L 517.26606 -444.348861 
L 508.54017 -461.600613 
L 499.81428 -444.134373 
L 491.08839 -453.220805 
L 482.3625 -435.516693 
L 473.63661 -444.285799 
L 464.91072 -470.45995 
L 456.18483 -461.613247 
L 447.45894 -452.755506 
L 438.73305 -452.829623 
L 430.00716 -470.182338 
L 421.28127 -444.298388 
L 412.55538 -461.726799 
L 403.82949 -426.567161 
L 395.1036 -444.184845 
L 386.37771 -400.481321 
L 377.65182 -417.720448 
L 368.92593 -408.734926 
L 360.20004 -417.770939 
L 351.47415 -409.201838 
L 342.74826 -417.770912 
L 334.02237 -425.734343 
L 325.29648 -435.262429 
L 316.57059 -400.254181 
L 307.8447 -364.072397 
L 299.11881 -321.277359 
L 290.39292 -330.212409 
L 281.66703 -364.476231 
L 272.94114 -277.321472 
L 264.21525 -347.678712 
L 255.48936 -319.435164 
L 246.76347 -233.75674 
L 238.03758 -250.062123 
L 229.31169 -206.699307 
L 220.5858 -93.673259 
L 211.85991 -181.004649 
L 203.13402 -94.203206 
L 194.40813 -93.446119 
L 185.68224 -41.388 
L 176.95635 -41.388 
L 168.23046 -67.625275 
L 159.50457 -41.388 
L 150.77868 -41.388 
L 142.05279 -41.388 
L 133.3269 -67.81454 
L 124.60101 -41.388 
L 115.87512 -41.388 
L 107.14923 -41.388 
L 98.42334 -41.388 
L 89.69745 -41.388 
L 80.97156 -41.388 
L 72.24567 -41.388 
L 63.51978 -41.388 
L 54.79389 -41.388 
z
" style="stroke: #c44e52; stroke-opacity: 0.2; stroke-width: 0.8"/>
    </defs>
    <g clip-path="url(#pe593eb4f8b)">
     <use xlink:href="#m10dd03a19e" x="0" y="504" style="fill: #c44e52; fill-opacity: 0.2; stroke: #c44e52; stroke-opacity: 0.2; stroke-width: 0.8"/>
    </g>
   </g>
   <g id="line2d_13">
    <path d="M 54.79389 462.612 
L 63.51978 462.612 
L 72.24567 462.612 
L 80.97156 462.612 
L 89.69745 462.612 
L 98.42334 462.612 
L 107.14923 462.612 
L 115.87512 462.612 
L 124.60101 462.612 
L 133.3269 462.612 
L 142.05279 462.612 
L 150.77868 462.612 
L 159.50457 462.612 
L 168.23046 462.612 
L 176.95635 462.612 
L 185.68224 462.612 
L 194.40813 462.612 
L 203.13402 436.412581 
L 211.85991 419.072491 
L 220.5858 375.67181 
L 229.31169 339.919073 
L 238.03758 357.890074 
L 246.76347 270.773198 
L 255.48936 279.253997 
L 264.21525 314.009864 
L 272.94114 191.998347 
L 281.66703 261.383923 
L 290.39292 182.924486 
L 299.11881 217.125192 
L 307.8447 227.221091 
L 316.57059 192.553535 
L 325.29648 243.917656 
L 334.02237 208.972487 
L 342.74826 191.569291 
L 351.47415 209.111298 
L 360.20004 226.363068 
L 368.92593 191.215992 
L 377.65182 164.915638 
L 386.37771 112.415873 
L 395.1036 147.121295 
L 403.82949 95.302931 
L 412.55538 130.740181 
L 421.28127 103.720587 
L 430.00716 95.328154 
L 438.73305 78.126847 
L 447.45894 103.682748 
L 456.18483 77.672613 
L 464.91072 59.928733 
L 473.63661 86.115527 
L 482.3625 68.939461 
L 491.08839 86.065046 
L 499.81428 77.546427 
L 508.54017 86.45621 
L 517.26606 86.241704 
L 525.99195 112.630379 
L 534.71784 94.886509 
L 543.44373 76.928124 
L 552.16962 94.974838 
L 560.89551 86.317399 
L 569.6214 77.079541 
L 578.34729 103.7963 
L 587.07318 42.664374 
L 595.79907 94.911758 
L 604.52496 103.644892 
L 613.25085 68.775428 
L 621.97674 86.039814 
L 630.70263 86.115527 
L 639.42852 77.571659 
L 648.15441 86.254329 
L 656.8803 112.491595 
L 665.60619 86.266945 
L 674.33208 59.903502 
L 683.05797 77.281422 
L 691.78386 51.044156 
L 700.50975 77.521177 
L 709.23564 77.798798 
L 717.96153 60.14323 
L 726.68742 77.59689 
L 735.41331 68.523075 
L 744.1392 69.065656 
L 752.86509 60.155864 
L 761.59098 76.814572 
L 770.31687 94.836063 
L 779.04276 42.676954 
L 787.76865 51.195591 
L 796.49454 95.050542 
L 805.22043 59.815164 
L 813.94632 59.85302 
L 822.67221 42.323656 
L 831.3981 59.85302 
L 840.12399 68.813275 
L 848.84988 59.953965 
L 857.57577 42.222711 
L 866.30166 33.590513 
L 875.02755 42.285799 
L 883.75344 42.42461 
L 892.47933 51.094646 
L 901.20522 42.159614 
L 909.93111 33.691458 
L 918.657 51.145109 
" clip-path="url(#pe593eb4f8b)" style="fill: none; stroke: #4c72b0; stroke-width: 1.2; stroke-linecap: round"/>
   </g>
   <g id="line2d_14">
    <path d="M 54.79389 462.612 
L 63.51978 462.612 
L 72.24567 462.612 
L 80.97156 462.612 
L 89.69745 462.612 
L 98.42334 462.612 
L 107.14923 462.612 
L 115.87512 462.612 
L 124.60101 462.612 
L 133.3269 462.612 
L 142.05279 445.322382 
L 150.77868 462.612 
L 159.50457 462.612 
L 168.23046 462.612 
L 176.95635 445.120483 
L 185.68224 453.790537 
L 194.40813 427.931819 
L 203.13402 445.107867 
L 211.85991 392.885706 
L 220.5858 383.799256 
L 229.31169 332.372047 
L 238.03758 314.539829 
L 246.76347 332.056596 
L 255.48936 279.569411 
L 264.21525 297.212355 
L 272.94114 252.802216 
L 281.66703 279.329665 
L 290.39292 244.548557 
L 299.11881 261.876023 
L 307.8447 252.713878 
L 316.57059 278.837583 
L 325.29648 261.093704 
L 334.02237 217.718255 
L 342.74826 244.207884 
L 351.47415 226.564949 
L 360.20004 270.230626 
L 368.92593 296.354332 
L 377.65182 261.510118 
L 386.37771 217.339671 
L 395.1036 235.134023 
L 403.82949 191.645013 
L 412.55538 173.838027 
L 421.28127 235.676631 
L 430.00716 200.504359 
L 438.73305 217.390179 
L 447.45894 217.806575 
L 456.18483 199.873413 
L 464.91072 156.712496 
L 473.63661 147.626011 
L 482.3625 191.279099 
L 491.08839 156.018471 
L 499.81428 191.05195 
L 508.54017 173.964222 
L 517.26606 191.443114 
L 525.99195 183.202089 
L 534.71784 139.296657 
L 543.44373 138.892886 
L 552.16962 139.019098 
L 560.89551 129.667626 
L 569.6214 95.227218 
L 578.34729 103.783684 
L 587.07318 103.998199 
L 595.79907 112.794448 
L 604.52496 112.630406 
L 613.25085 121.729462 
L 621.97674 78.038527 
L 630.70263 104.338899 
L 639.42852 69.14136 
L 648.15441 95.340761 
L 656.8803 77.723067 
L 665.60619 77.685237 
L 674.33208 77.735683 
L 683.05797 103.947745 
L 691.78386 68.876382 
L 700.50975 86.254329 
L 709.23564 77.634747 
L 717.96153 86.544557 
L 726.68742 78.126874 
L 735.41331 77.559034 
L 744.1392 42.878862 
L 752.86509 51.599388 
L 761.59098 51.763404 
L 770.31687 51.952678 
L 779.04276 51.851751 
L 787.76865 43.181696 
L 796.49454 52.041025 
L 805.22043 25.576619 
" clip-path="url(#pe593eb4f8b)" style="fill: none; stroke: #dd8452; stroke-width: 1.2; stroke-linecap: round"/>
   </g>
   <g id="line2d_15">
    <path d="M 54.79389 462.612 
L 63.51978 462.612 
L 72.24567 462.612 
L 80.97156 462.612 
L 89.69745 462.612 
L 98.42334 462.612 
L 107.14923 462.612 
L 115.87512 462.612 
L 124.60101 462.612 
L 133.3269 462.612 
L 142.05279 462.612 
L 150.77868 462.612 
L 159.50457 462.612 
L 168.23046 453.992427 
L 176.95635 462.612 
L 185.68224 427.856106 
L 194.40813 402.022637 
L 203.13402 401.770257 
L 211.85991 367.140557 
L 220.5858 357.953162 
L 229.31169 427.868722 
L 238.03758 349.472391 
L 246.76347 323.0711 
L 255.48936 322.944915 
L 264.21525 366.825115 
L 272.94114 323.172054 
L 281.66703 287.911435 
L 290.39292 288.214261 
L 299.11881 270.811091 
L 307.8447 279.367549 
L 316.57059 235.727121 
L 325.29648 253.407903 
L 334.02237 279.632545 
L 342.74826 235.903779 
L 351.47415 183.668984 
L 360.20004 252.991508 
L 368.92593 235.651417 
L 377.65182 218.424869 
L 386.37771 191.935249 
L 395.1036 183.353542 
L 403.82949 182.64691 
L 412.55538 156.964849 
L 421.28127 183.39139 
L 430.00716 122.322516 
L 438.73305 156.952225 
L 447.45894 139.460699 
L 456.18483 130.538309 
L 464.91072 174.48158 
L 473.63661 148.282188 
L 482.3625 113.147746 
L 491.08839 165.571797 
L 499.81428 104.073912 
L 508.54017 121.8178 
L 517.26606 112.93324 
L 525.99195 79.098475 
L 534.71784 60.976057 
L 543.44373 95.971698 
L 552.16962 69.34325 
L 560.89551 60.635357 
L 569.6214 69.1666 
L 578.34729 43.156465 
L 587.07318 43.156465 
L 595.79907 43.270034 
L 604.52496 60.50918 
L 613.25085 51.637236 
L 621.97674 51.574157 
L 630.70263 69.330625 
L 639.42852 43.055511 
L 648.15441 43.156465 
L 656.8803 34.461179 
L 665.60619 52.053649 
L 674.33208 25.488308 
" clip-path="url(#pe593eb4f8b)" style="fill: none; stroke: #55a868; stroke-width: 1.2; stroke-linecap: round"/>
   </g>
   <g id="line2d_16">
    <path d="M 54.79389 462.612 
L 63.51978 462.612 
L 72.24567 462.612 
L 80.97156 462.612 
L 89.69745 462.612 
L 98.42334 462.612 
L 107.14923 462.612 
L 115.87512 462.612 
L 124.60101 462.612 
L 133.3269 453.803153 
L 142.05279 462.612 
L 150.77868 462.612 
L 159.50457 462.612 
L 168.23046 453.866242 
L 176.95635 462.612 
L 185.68224 462.612 
L 194.40813 445.259294 
L 203.13402 445.006931 
L 211.85991 401.580974 
L 220.5858 445.18358 
L 229.31169 375.381573 
L 238.03758 366.825106 
L 246.76347 348.778392 
L 255.48936 297.527805 
L 264.21525 296.606694 
L 272.94114 314.262244 
L 281.66703 270.583925 
L 290.39292 261.838193 
L 299.11881 296.619328 
L 307.8447 261.888665 
L 316.57059 226.829918 
L 325.29648 191.253867 
L 334.02237 226.463995 
L 342.74826 200.277219 
L 351.47415 208.631787 
L 360.20004 200.327674 
L 368.92593 226.564958 
L 377.65182 209.035585 
L 386.37771 217.730862 
L 395.1036 182.583813 
L 403.82949 200.479091 
L 412.55538 173.623558 
L 421.28127 191.039352 
L 430.00716 138.867654 
L 438.73305 173.939008 
L 447.45894 165.319408 
L 456.18483 156.384403 
L 464.91072 147.44937 
L 473.63661 182.457618 
L 482.3625 191.190761 
L 491.08839 182.255737 
L 499.81428 182.709989 
L 508.54017 121.514966 
L 517.26606 173.56046 
L 525.99195 112.390641 
L 534.71784 51.738181 
L 543.44373 95.265065 
L 552.16962 77.294074 
L 560.89551 77.420232 
L 569.6214 103.733212 
L 578.34729 59.991831 
L 587.07318 77.824021 
L 595.79907 51.548907 
L 604.52496 77.887109 
L 613.25085 33.666226 
L 621.97674 25.475674 
" clip-path="url(#pe593eb4f8b)" style="fill: none; stroke: #c44e52; stroke-width: 1.2; stroke-linecap: round"/>
   </g>
   <g id="line2d_17"/>
   <g id="line2d_18"/>
   <g id="line2d_19"/>
   <g id="line2d_20"/>
   <g id="patch_3">
    <path d="M 46.068 462.612 
L 46.068 13.968 
" style="fill: none; stroke: #ffffff; stroke-linejoin: miter; stroke-linecap: square"/>
   </g>
   <g id="patch_4">
    <path d="M 918.657 462.612 
L 918.657 13.968 
" style="fill: none; stroke: #ffffff; stroke-linejoin: miter; stroke-linecap: square"/>
   </g>
   <g id="patch_5">
    <path d="M 46.068 462.612 
L 918.657 462.612 
" style="fill: none; stroke: #ffffff; stroke-linejoin: miter; stroke-linecap: square"/>
   </g>
   <g id="patch_6">
    <path d="M 46.068 13.968 
L 918.657 13.968 
" style="fill: none; stroke: #ffffff; stroke-linejoin: miter; stroke-linecap: square"/>
   </g>
   <g id="legend_1">
    <g id="patch_7">
     <path d="M 52.228 86.366 
L 169.310625 86.366 
Q 171.070625 86.366 171.070625 84.606 
L 171.070625 20.128 
Q 171.070625 18.368 169.310625 18.368 
L 52.228 18.368 
Q 50.468 18.368 50.468 20.128 
L 50.468 84.606 
Q 50.468 86.366 52.228 86.366 
z
" style="fill: #eaeaf2; opacity: 0.8; stroke: #cccccc; stroke-width: 0.8; stroke-linejoin: miter"/>
    </g>
    <g id="text_16">
     <!-- Approach -->
     <g style="fill: #262626" transform="translate(87.966313 29.1825) scale(0.096 -0.096)">
      <defs>
       <path id="DejaVuSans-41" d="M 2188 4044 
L 1331 1722 
L 3047 1722 
L 2188 4044 
z
M 1831 4666 
L 2547 4666 
L 4325 0 
L 3669 0 
L 3244 1197 
L 1141 1197 
L 716 0 
L 50 0 
L 1831 4666 
z
" transform="scale(0.015625)"/>
       <path id="DejaVuSans-61" d="M 2194 1759 
Q 1497 1759 1228 1600 
Q 959 1441 959 1056 
Q 959 750 1161 570 
Q 1363 391 1709 391 
Q 2188 391 2477 730 
Q 2766 1069 2766 1631 
L 2766 1759 
L 2194 1759 
z
M 3341 1997 
L 3341 0 
L 2766 0 
L 2766 531 
Q 2569 213 2275 61 
Q 1981 -91 1556 -91 
Q 1019 -91 701 211 
Q 384 513 384 1019 
Q 384 1609 779 1909 
Q 1175 2209 1959 2209 
L 2766 2209 
L 2766 2266 
Q 2766 2663 2505 2880 
Q 2244 3097 1772 3097 
Q 1472 3097 1187 3025 
Q 903 2953 641 2809 
L 641 3341 
Q 956 3463 1253 3523 
Q 1550 3584 1831 3584 
Q 2591 3584 2966 3190 
Q 3341 2797 3341 1997 
z
" transform="scale(0.015625)"/>
       <path id="DejaVuSans-68" d="M 3513 2113 
L 3513 0 
L 2938 0 
L 2938 2094 
Q 2938 2591 2744 2837 
Q 2550 3084 2163 3084 
Q 1697 3084 1428 2787 
Q 1159 2491 1159 1978 
L 1159 0 
L 581 0 
L 581 4863 
L 1159 4863 
L 1159 2956 
Q 1366 3272 1645 3428 
Q 1925 3584 2291 3584 
Q 2894 3584 3203 3211 
Q 3513 2838 3513 2113 
z
" transform="scale(0.015625)"/>
      </defs>
      <use xlink:href="#DejaVuSans-41"/>
      <use xlink:href="#DejaVuSans-70" x="68.408203"/>
      <use xlink:href="#DejaVuSans-70" x="131.884766"/>
      <use xlink:href="#DejaVuSans-72" x="195.361328"/>
      <use xlink:href="#DejaVuSans-6f" x="234.224609"/>
      <use xlink:href="#DejaVuSans-61" x="295.40625"/>
      <use xlink:href="#DejaVuSans-63" x="356.685547"/>
      <use xlink:href="#DejaVuSans-68" x="411.666016"/>
     </g>
    </g>
    <g id="line2d_21">
     <path d="M 53.988 39.185625 
L 62.788 39.185625 
L 71.588 39.185625 
" style="fill: none; stroke: #4c72b0; stroke-width: 1.2; stroke-linecap: round"/>
    </g>
    <g id="text_17">
     <!-- Combined -->
     <g style="fill: #262626" transform="translate(78.628 42.265625) scale(0.088 -0.088)">
      <defs>
       <path id="DejaVuSans-43" d="M 4122 4306 
L 4122 3641 
Q 3803 3938 3442 4084 
Q 3081 4231 2675 4231 
Q 1875 4231 1450 3742 
Q 1025 3253 1025 2328 
Q 1025 1406 1450 917 
Q 1875 428 2675 428 
Q 3081 428 3442 575 
Q 3803 722 4122 1019 
L 4122 359 
Q 3791 134 3420 21 
Q 3050 -91 2638 -91 
Q 1578 -91 968 557 
Q 359 1206 359 2328 
Q 359 3453 968 4101 
Q 1578 4750 2638 4750 
Q 3056 4750 3426 4639 
Q 3797 4528 4122 4306 
z
" transform="scale(0.015625)"/>
       <path id="DejaVuSans-62" d="M 3116 1747 
Q 3116 2381 2855 2742 
Q 2594 3103 2138 3103 
Q 1681 3103 1420 2742 
Q 1159 2381 1159 1747 
Q 1159 1113 1420 752 
Q 1681 391 2138 391 
Q 2594 391 2855 752 
Q 3116 1113 3116 1747 
z
M 1159 2969 
Q 1341 3281 1617 3432 
Q 1894 3584 2278 3584 
Q 2916 3584 3314 3078 
Q 3713 2572 3713 1747 
Q 3713 922 3314 415 
Q 2916 -91 2278 -91 
Q 1894 -91 1617 61 
Q 1341 213 1159 525 
L 1159 0 
L 581 0 
L 581 4863 
L 1159 4863 
L 1159 2969 
z
" transform="scale(0.015625)"/>
       <path id="DejaVuSans-6e" d="M 3513 2113 
L 3513 0 
L 2938 0 
L 2938 2094 
Q 2938 2591 2744 2837 
Q 2550 3084 2163 3084 
Q 1697 3084 1428 2787 
Q 1159 2491 1159 1978 
L 1159 0 
L 581 0 
L 581 3500 
L 1159 3500 
L 1159 2956 
Q 1366 3272 1645 3428 
Q 1925 3584 2291 3584 
Q 2894 3584 3203 3211 
Q 3513 2838 3513 2113 
z
" transform="scale(0.015625)"/>
       <path id="DejaVuSans-64" d="M 2906 2969 
L 2906 4863 
L 3481 4863 
L 3481 0 
L 2906 0 
L 2906 525 
Q 2725 213 2448 61 
Q 2172 -91 1784 -91 
Q 1150 -91 751 415 
Q 353 922 353 1747 
Q 353 2572 751 3078 
Q 1150 3584 1784 3584 
Q 2172 3584 2448 3432 
Q 2725 3281 2906 2969 
z
M 947 1747 
Q 947 1113 1208 752 
Q 1469 391 1925 391 
Q 2381 391 2643 752 
Q 2906 1113 2906 1747 
Q 2906 2381 2643 2742 
Q 2381 3103 1925 3103 
Q 1469 3103 1208 2742 
Q 947 2381 947 1747 
z
" transform="scale(0.015625)"/>
      </defs>
      <use xlink:href="#DejaVuSans-43"/>
      <use xlink:href="#DejaVuSans-6f" x="69.824219"/>
      <use xlink:href="#DejaVuSans-6d" x="131.005859"/>
      <use xlink:href="#DejaVuSans-62" x="228.417969"/>
      <use xlink:href="#DejaVuSans-69" x="291.894531"/>
      <use xlink:href="#DejaVuSans-6e" x="319.677734"/>
      <use xlink:href="#DejaVuSans-65" x="383.056641"/>
      <use xlink:href="#DejaVuSans-64" x="444.580078"/>
     </g>
    </g>
    <g id="line2d_22">
     <path d="M 53.988 52.102375 
L 62.788 52.102375 
L 71.588 52.102375 
" style="fill: none; stroke: #dd8452; stroke-width: 1.2; stroke-linecap: round"/>
    </g>
    <g id="text_18">
     <!-- Proximal Curriculum -->
     <g style="fill: #262626" transform="translate(78.628 55.182375) scale(0.088 -0.088)">
      <defs>
       <path id="DejaVuSans-50" d="M 1259 4147 
L 1259 2394 
L 2053 2394 
Q 2494 2394 2734 2622 
Q 2975 2850 2975 3272 
Q 2975 3691 2734 3919 
Q 2494 4147 2053 4147 
L 1259 4147 
z
M 628 4666 
L 2053 4666 
Q 2838 4666 3239 4311 
Q 3641 3956 3641 3272 
Q 3641 2581 3239 2228 
Q 2838 1875 2053 1875 
L 1259 1875 
L 1259 0 
L 628 0 
L 628 4666 
z
" transform="scale(0.015625)"/>
       <path id="DejaVuSans-78" d="M 3513 3500 
L 2247 1797 
L 3578 0 
L 2900 0 
L 1881 1375 
L 863 0 
L 184 0 
L 1544 1831 
L 300 3500 
L 978 3500 
L 1906 2253 
L 2834 3500 
L 3513 3500 
z
" transform="scale(0.015625)"/>
       <path id="DejaVuSans-6c" d="M 603 4863 
L 1178 4863 
L 1178 0 
L 603 0 
L 603 4863 
z
" transform="scale(0.015625)"/>
       <path id="DejaVuSans-20" transform="scale(0.015625)"/>
       <path id="DejaVuSans-75" d="M 544 1381 
L 544 3500 
L 1119 3500 
L 1119 1403 
Q 1119 906 1312 657 
Q 1506 409 1894 409 
Q 2359 409 2629 706 
Q 2900 1003 2900 1516 
L 2900 3500 
L 3475 3500 
L 3475 0 
L 2900 0 
L 2900 538 
Q 2691 219 2414 64 
Q 2138 -91 1772 -91 
Q 1169 -91 856 284 
Q 544 659 544 1381 
z
M 1991 3584 
L 1991 3584 
z
" transform="scale(0.015625)"/>
      </defs>
      <use xlink:href="#DejaVuSans-50"/>
      <use xlink:href="#DejaVuSans-72" x="58.552734"/>
      <use xlink:href="#DejaVuSans-6f" x="97.416016"/>
      <use xlink:href="#DejaVuSans-78" x="155.472656"/>
      <use xlink:href="#DejaVuSans-69" x="214.652344"/>
      <use xlink:href="#DejaVuSans-6d" x="242.435547"/>
      <use xlink:href="#DejaVuSans-61" x="339.847656"/>
      <use xlink:href="#DejaVuSans-6c" x="401.126953"/>
      <use xlink:href="#DejaVuSans-20" x="428.910156"/>
      <use xlink:href="#DejaVuSans-43" x="460.697266"/>
      <use xlink:href="#DejaVuSans-75" x="530.521484"/>
      <use xlink:href="#DejaVuSans-72" x="593.900391"/>
      <use xlink:href="#DejaVuSans-72" x="633.263672"/>
      <use xlink:href="#DejaVuSans-69" x="674.376953"/>
      <use xlink:href="#DejaVuSans-63" x="702.160156"/>
      <use xlink:href="#DejaVuSans-75" x="757.140625"/>
      <use xlink:href="#DejaVuSans-6c" x="820.519531"/>
      <use xlink:href="#DejaVuSans-75" x="848.302734"/>
      <use xlink:href="#DejaVuSans-6d" x="911.681641"/>
     </g>
    </g>
    <g id="line2d_23">
     <path d="M 53.988 65.019125 
L 62.788 65.019125 
L 71.588 65.019125 
" style="fill: none; stroke: #55a868; stroke-width: 1.2; stroke-linecap: round"/>
    </g>
    <g id="text_19">
     <!-- State Novelty (RND) -->
     <g style="fill: #262626" transform="translate(78.628 68.099125) scale(0.088 -0.088)">
      <defs>
       <path id="DejaVuSans-4e" d="M 628 4666 
L 1478 4666 
L 3547 763 
L 3547 4666 
L 4159 4666 
L 4159 0 
L 3309 0 
L 1241 3903 
L 1241 0 
L 628 0 
L 628 4666 
z
" transform="scale(0.015625)"/>
       <path id="DejaVuSans-76" d="M 191 3500 
L 800 3500 
L 1894 563 
L 2988 3500 
L 3597 3500 
L 2284 0 
L 1503 0 
L 191 3500 
z
" transform="scale(0.015625)"/>
       <path id="DejaVuSans-79" d="M 2059 -325 
Q 1816 -950 1584 -1140 
Q 1353 -1331 966 -1331 
L 506 -1331 
L 506 -850 
L 844 -850 
Q 1081 -850 1212 -737 
Q 1344 -625 1503 -206 
L 1606 56 
L 191 3500 
L 800 3500 
L 1894 763 
L 2988 3500 
L 3597 3500 
L 2059 -325 
z
" transform="scale(0.015625)"/>
       <path id="DejaVuSans-28" d="M 1984 4856 
Q 1566 4138 1362 3434 
Q 1159 2731 1159 2009 
Q 1159 1288 1364 580 
Q 1569 -128 1984 -844 
L 1484 -844 
Q 1016 -109 783 600 
Q 550 1309 550 2009 
Q 550 2706 781 3412 
Q 1013 4119 1484 4856 
L 1984 4856 
z
" transform="scale(0.015625)"/>
       <path id="DejaVuSans-52" d="M 2841 2188 
Q 3044 2119 3236 1894 
Q 3428 1669 3622 1275 
L 4263 0 
L 3584 0 
L 2988 1197 
Q 2756 1666 2539 1819 
Q 2322 1972 1947 1972 
L 1259 1972 
L 1259 0 
L 628 0 
L 628 4666 
L 2053 4666 
Q 2853 4666 3247 4331 
Q 3641 3997 3641 3322 
Q 3641 2881 3436 2590 
Q 3231 2300 2841 2188 
z
M 1259 4147 
L 1259 2491 
L 2053 2491 
Q 2509 2491 2742 2702 
Q 2975 2913 2975 3322 
Q 2975 3731 2742 3939 
Q 2509 4147 2053 4147 
L 1259 4147 
z
" transform="scale(0.015625)"/>
       <path id="DejaVuSans-44" d="M 1259 4147 
L 1259 519 
L 2022 519 
Q 2988 519 3436 956 
Q 3884 1394 3884 2338 
Q 3884 3275 3436 3711 
Q 2988 4147 2022 4147 
L 1259 4147 
z
M 628 4666 
L 1925 4666 
Q 3281 4666 3915 4102 
Q 4550 3538 4550 2338 
Q 4550 1131 3912 565 
Q 3275 0 1925 0 
L 628 0 
L 628 4666 
z
" transform="scale(0.015625)"/>
       <path id="DejaVuSans-29" d="M 513 4856 
L 1013 4856 
Q 1481 4119 1714 3412 
Q 1947 2706 1947 2009 
Q 1947 1309 1714 600 
Q 1481 -109 1013 -844 
L 513 -844 
Q 928 -128 1133 580 
Q 1338 1288 1338 2009 
Q 1338 2731 1133 3434 
Q 928 4138 513 4856 
z
" transform="scale(0.015625)"/>
      </defs>
      <use xlink:href="#DejaVuSans-53"/>
      <use xlink:href="#DejaVuSans-74" x="63.476562"/>
      <use xlink:href="#DejaVuSans-61" x="102.685547"/>
      <use xlink:href="#DejaVuSans-74" x="163.964844"/>
      <use xlink:href="#DejaVuSans-65" x="203.173828"/>
      <use xlink:href="#DejaVuSans-20" x="264.697266"/>
      <use xlink:href="#DejaVuSans-4e" x="296.484375"/>
      <use xlink:href="#DejaVuSans-6f" x="371.289062"/>
      <use xlink:href="#DejaVuSans-76" x="432.470703"/>
      <use xlink:href="#DejaVuSans-65" x="491.650391"/>
      <use xlink:href="#DejaVuSans-6c" x="553.173828"/>
      <use xlink:href="#DejaVuSans-74" x="580.957031"/>
      <use xlink:href="#DejaVuSans-79" x="620.166016"/>
      <use xlink:href="#DejaVuSans-20" x="679.345703"/>
      <use xlink:href="#DejaVuSans-28" x="711.132812"/>
      <use xlink:href="#DejaVuSans-52" x="750.146484"/>
      <use xlink:href="#DejaVuSans-4e" x="819.628906"/>
      <use xlink:href="#DejaVuSans-44" x="894.433594"/>
      <use xlink:href="#DejaVuSans-29" x="971.435547"/>
     </g>
    </g>
    <g id="line2d_24">
     <path d="M 53.988 77.935875 
L 62.788 77.935875 
L 71.588 77.935875 
" style="fill: none; stroke: #c44e52; stroke-width: 1.2; stroke-linecap: round"/>
    </g>
    <g id="text_20">
     <!-- Vanilla -->
     <g style="fill: #262626" transform="translate(78.628 81.015875) scale(0.088 -0.088)">
      <defs>
       <path id="DejaVuSans-56" d="M 1831 0 
L 50 4666 
L 709 4666 
L 2188 738 
L 3669 4666 
L 4325 4666 
L 2547 0 
L 1831 0 
z
" transform="scale(0.015625)"/>
      </defs>
      <use xlink:href="#DejaVuSans-56"/>
      <use xlink:href="#DejaVuSans-61" x="60.658203"/>
      <use xlink:href="#DejaVuSans-6e" x="121.9375"/>
      <use xlink:href="#DejaVuSans-69" x="185.316406"/>
      <use xlink:href="#DejaVuSans-6c" x="213.099609"/>
      <use xlink:href="#DejaVuSans-6c" x="240.882812"/>
      <use xlink:href="#DejaVuSans-61" x="268.666016"/>
     </g>
    </g>
   </g>
  </g>
 </g>
 <defs>
  <clipPath id="pe593eb4f8b">
   <rect x="46.068" y="13.968" width="872.589" height="448.644"/>
  </clipPath>
 </defs>
</svg>
