<?xml version="1.0" encoding="utf-8" standalone="no"?>
<!DOCTYPE svg PUBLIC "-//W3C//DTD SVG 1.1//EN"
  "http://www.w3.org/Graphics/SVG/1.1/DTD/svg11.dtd">
<svg xmlns:xlink="http://www.w3.org/1999/xlink" width="288pt" height="216pt" viewBox="0 0 288 216" xmlns="http://www.w3.org/2000/svg" version="1.1">
 <metadata>
  <rdf:RDF xmlns:dc="http://purl.org/dc/elements/1.1/" xmlns:cc="http://creativecommons.org/ns#" xmlns:rdf="http://www.w3.org/1999/02/22-rdf-syntax-ns#">
   <cc:Work>
    <dc:type rdf:resource="http://purl.org/dc/dcmitype/StillImage"/>
    <dc:date>1980-01-01T00:00:00+00:00</dc:date>
    <dc:format>image/svg+xml</dc:format>
    <dc:creator>
     <cc:Agent>
      <dc:title>Matplotlib v3.9.2, https://matplotlib.org/</dc:title>
     </cc:Agent>
    </dc:creator>
   </cc:Work>
  </rdf:RDF>
 </metadata>
 <defs>
  <style type="text/css">*{stroke-linejoin: round; stroke-linecap: butt}</style>
 </defs>
 <g id="figure_1">
  <g id="patch_1">
   <path d="M 0 216 
L 288 216 
L 288 0 
L 0 0 
z
" style="fill: #ffffff"/>
  </g>
  <g id="axes_1">
   <g id="patch_2">
    <path d="M 46.068 174.612 
L 270.657 174.612 
L 270.657 13.968 
L 46.068 13.968 
z
" style="fill: #eaeaf2"/>
   </g>
   <g id="matplotlib.axis_1">
    <g id="xtick_1">
     <g id="line2d_1">
      <path d="M 46.068 174.612 
L 46.068 13.968 
" clip-path="url(#p52219f15e3)" style="fill: none; stroke: #ffffff; stroke-width: 0.8; stroke-linecap: round"/>
     </g>
     <g id="text_1">
      <!-- 0.0 -->
      <g style="fill: #262626" transform="translate(39.070625 189.598625) scale(0.088 -0.088)">
       <defs>
        <path id="DejaVuSans-30" d="M 2034 4250 
Q 1547 4250 1301 3770 
Q 1056 3291 1056 2328 
Q 1056 1369 1301 889 
Q 1547 409 2034 409 
Q 2525 409 2770 889 
Q 3016 1369 3016 2328 
Q 3016 3291 2770 3770 
Q 2525 4250 2034 4250 
z
M 2034 4750 
Q 2819 4750 3233 4129 
Q 3647 3509 3647 2328 
Q 3647 1150 3233 529 
Q 2819 -91 2034 -91 
Q 1250 -91 836 529 
Q 422 1150 422 2328 
Q 422 3509 836 4129 
Q 1250 4750 2034 4750 
z
" transform="scale(0.015625)"/>
        <path id="DejaVuSans-2e" d="M 684 794 
L 1344 794 
L 1344 0 
L 684 0 
L 684 794 
z
" transform="scale(0.015625)"/>
       </defs>
       <use xlink:href="#DejaVuSans-30"/>
       <use xlink:href="#DejaVuSans-2e" x="63.623047"/>
       <use xlink:href="#DejaVuSans-30" x="95.410156"/>
      </g>
     </g>
    </g>
    <g id="xtick_2">
     <g id="line2d_2">
      <path d="M 90.9858 174.612 
L 90.9858 13.968 
" clip-path="url(#p52219f15e3)" style="fill: none; stroke: #ffffff; stroke-width: 0.8; stroke-linecap: round"/>
     </g>
     <g id="text_2">
      <!-- 0.2 -->
      <g style="fill: #262626" transform="translate(83.988425 189.598625) scale(0.088 -0.088)">
       <defs>
        <path id="DejaVuSans-32" d="M 1228 531 
L 3431 531 
L 3431 0 
L 469 0 
L 469 531 
Q 828 903 1448 1529 
Q 2069 2156 2228 2338 
Q 2531 2678 2651 2914 
Q 2772 3150 2772 3378 
Q 2772 3750 2511 3984 
Q 2250 4219 1831 4219 
Q 1534 4219 1204 4116 
Q 875 4013 500 3803 
L 500 4441 
Q 881 4594 1212 4672 
Q 1544 4750 1819 4750 
Q 2544 4750 2975 4387 
Q 3406 4025 3406 3419 
Q 3406 3131 3298 2873 
Q 3191 2616 2906 2266 
Q 2828 2175 2409 1742 
Q 1991 1309 1228 531 
z
" transform="scale(0.015625)"/>
       </defs>
       <use xlink:href="#DejaVuSans-30"/>
       <use xlink:href="#DejaVuSans-2e" x="63.623047"/>
       <use xlink:href="#DejaVuSans-32" x="95.410156"/>
      </g>
     </g>
    </g>
    <g id="xtick_3">
     <g id="line2d_3">
      <path d="M 135.9036 174.612 
L 135.9036 13.968 
" clip-path="url(#p52219f15e3)" style="fill: none; stroke: #ffffff; stroke-width: 0.8; stroke-linecap: round"/>
     </g>
     <g id="text_3">
      <!-- 0.4 -->
      <g style="fill: #262626" transform="translate(128.906225 189.598625) scale(0.088 -0.088)">
       <defs>
        <path id="DejaVuSans-34" d="M 2419 4116 
L 825 1625 
L 2419 1625 
L 2419 4116 
z
M 2253 4666 
L 3047 4666 
L 3047 1625 
L 3713 1625 
L 3713 1100 
L 3047 1100 
L 3047 0 
L 2419 0 
L 2419 1100 
L 313 1100 
L 313 1709 
L 2253 4666 
z
" transform="scale(0.015625)"/>
       </defs>
       <use xlink:href="#DejaVuSans-30"/>
       <use xlink:href="#DejaVuSans-2e" x="63.623047"/>
       <use xlink:href="#DejaVuSans-34" x="95.410156"/>
      </g>
     </g>
    </g>
    <g id="xtick_4">
     <g id="line2d_4">
      <path d="M 180.8214 174.612 
L 180.8214 13.968 
" clip-path="url(#p52219f15e3)" style="fill: none; stroke: #ffffff; stroke-width: 0.8; stroke-linecap: round"/>
     </g>
     <g id="text_4">
      <!-- 0.6 -->
      <g style="fill: #262626" transform="translate(173.824025 189.598625) scale(0.088 -0.088)">
       <defs>
        <path id="DejaVuSans-36" d="M 2113 2584 
Q 1688 2584 1439 2293 
Q 1191 2003 1191 1497 
Q 1191 994 1439 701 
Q 1688 409 2113 409 
Q 2538 409 2786 701 
Q 3034 994 3034 1497 
Q 3034 2003 2786 2293 
Q 2538 2584 2113 2584 
z
M 3366 4563 
L 3366 3988 
Q 3128 4100 2886 4159 
Q 2644 4219 2406 4219 
Q 1781 4219 1451 3797 
Q 1122 3375 1075 2522 
Q 1259 2794 1537 2939 
Q 1816 3084 2150 3084 
Q 2853 3084 3261 2657 
Q 3669 2231 3669 1497 
Q 3669 778 3244 343 
Q 2819 -91 2113 -91 
Q 1303 -91 875 529 
Q 447 1150 447 2328 
Q 447 3434 972 4092 
Q 1497 4750 2381 4750 
Q 2619 4750 2861 4703 
Q 3103 4656 3366 4563 
z
" transform="scale(0.015625)"/>
       </defs>
       <use xlink:href="#DejaVuSans-30"/>
       <use xlink:href="#DejaVuSans-2e" x="63.623047"/>
       <use xlink:href="#DejaVuSans-36" x="95.410156"/>
      </g>
     </g>
    </g>
    <g id="xtick_5">
     <g id="line2d_5">
      <path d="M 225.7392 174.612 
L 225.7392 13.968 
" clip-path="url(#p52219f15e3)" style="fill: none; stroke: #ffffff; stroke-width: 0.8; stroke-linecap: round"/>
     </g>
     <g id="text_5">
      <!-- 0.8 -->
      <g style="fill: #262626" transform="translate(218.741825 189.598625) scale(0.088 -0.088)">
       <defs>
        <path id="DejaVuSans-38" d="M 2034 2216 
Q 1584 2216 1326 1975 
Q 1069 1734 1069 1313 
Q 1069 891 1326 650 
Q 1584 409 2034 409 
Q 2484 409 2743 651 
Q 3003 894 3003 1313 
Q 3003 1734 2745 1975 
Q 2488 2216 2034 2216 
z
M 1403 2484 
Q 997 2584 770 2862 
Q 544 3141 544 3541 
Q 544 4100 942 4425 
Q 1341 4750 2034 4750 
Q 2731 4750 3128 4425 
Q 3525 4100 3525 3541 
Q 3525 3141 3298 2862 
Q 3072 2584 2669 2484 
Q 3125 2378 3379 2068 
Q 3634 1759 3634 1313 
Q 3634 634 3220 271 
Q 2806 -91 2034 -91 
Q 1263 -91 848 271 
Q 434 634 434 1313 
Q 434 1759 690 2068 
Q 947 2378 1403 2484 
z
M 1172 3481 
Q 1172 3119 1398 2916 
Q 1625 2713 2034 2713 
Q 2441 2713 2670 2916 
Q 2900 3119 2900 3481 
Q 2900 3844 2670 4047 
Q 2441 4250 2034 4250 
Q 1625 4250 1398 4047 
Q 1172 3844 1172 3481 
z
" transform="scale(0.015625)"/>
       </defs>
       <use xlink:href="#DejaVuSans-30"/>
       <use xlink:href="#DejaVuSans-2e" x="63.623047"/>
       <use xlink:href="#DejaVuSans-38" x="95.410156"/>
      </g>
     </g>
    </g>
    <g id="xtick_6">
     <g id="line2d_6">
      <path d="M 270.657 174.612 
L 270.657 13.968 
" clip-path="url(#p52219f15e3)" style="fill: none; stroke: #ffffff; stroke-width: 0.8; stroke-linecap: round"/>
     </g>
     <g id="text_6">
      <!-- 1.0 -->
      <g style="fill: #262626" transform="translate(263.659625 189.598625) scale(0.088 -0.088)">
       <defs>
        <path id="DejaVuSans-31" d="M 794 531 
L 1825 531 
L 1825 4091 
L 703 3866 
L 703 4441 
L 1819 4666 
L 2450 4666 
L 2450 531 
L 3481 531 
L 3481 0 
L 794 0 
L 794 531 
z
" transform="scale(0.015625)"/>
       </defs>
       <use xlink:href="#DejaVuSans-31"/>
       <use xlink:href="#DejaVuSans-2e" x="63.623047"/>
       <use xlink:href="#DejaVuSans-30" x="95.410156"/>
      </g>
     </g>
    </g>
    <g id="text_7">
     <!-- Timestep -->
     <g style="fill: #262626" transform="translate(136.23525 202.72325) scale(0.096 -0.096)">
      <defs>
       <path id="DejaVuSans-54" d="M -19 4666 
L 3928 4666 
L 3928 4134 
L 2272 4134 
L 2272 0 
L 1638 0 
L 1638 4134 
L -19 4134 
L -19 4666 
z
" transform="scale(0.015625)"/>
       <path id="DejaVuSans-69" d="M 603 3500 
L 1178 3500 
L 1178 0 
L 603 0 
L 603 3500 
z
M 603 4863 
L 1178 4863 
L 1178 4134 
L 603 4134 
L 603 4863 
z
" transform="scale(0.015625)"/>
       <path id="DejaVuSans-6d" d="M 3328 2828 
Q 3544 3216 3844 3400 
Q 4144 3584 4550 3584 
Q 5097 3584 5394 3201 
Q 5691 2819 5691 2113 
L 5691 0 
L 5113 0 
L 5113 2094 
Q 5113 2597 4934 2840 
Q 4756 3084 4391 3084 
Q 3944 3084 3684 2787 
Q 3425 2491 3425 1978 
L 3425 0 
L 2847 0 
L 2847 2094 
Q 2847 2600 2669 2842 
Q 2491 3084 2119 3084 
Q 1678 3084 1418 2786 
Q 1159 2488 1159 1978 
L 1159 0 
L 581 0 
L 581 3500 
L 1159 3500 
L 1159 2956 
Q 1356 3278 1631 3431 
Q 1906 3584 2284 3584 
Q 2666 3584 2933 3390 
Q 3200 3197 3328 2828 
z
" transform="scale(0.015625)"/>
       <path id="DejaVuSans-65" d="M 3597 1894 
L 3597 1613 
L 953 1613 
Q 991 1019 1311 708 
Q 1631 397 2203 397 
Q 2534 397 2845 478 
Q 3156 559 3463 722 
L 3463 178 
Q 3153 47 2828 -22 
Q 2503 -91 2169 -91 
Q 1331 -91 842 396 
Q 353 884 353 1716 
Q 353 2575 817 3079 
Q 1281 3584 2069 3584 
Q 2775 3584 3186 3129 
Q 3597 2675 3597 1894 
z
M 3022 2063 
Q 3016 2534 2758 2815 
Q 2500 3097 2075 3097 
Q 1594 3097 1305 2825 
Q 1016 2553 972 2059 
L 3022 2063 
z
" transform="scale(0.015625)"/>
       <path id="DejaVuSans-73" d="M 2834 3397 
L 2834 2853 
Q 2591 2978 2328 3040 
Q 2066 3103 1784 3103 
Q 1356 3103 1142 2972 
Q 928 2841 928 2578 
Q 928 2378 1081 2264 
Q 1234 2150 1697 2047 
L 1894 2003 
Q 2506 1872 2764 1633 
Q 3022 1394 3022 966 
Q 3022 478 2636 193 
Q 2250 -91 1575 -91 
Q 1294 -91 989 -36 
Q 684 19 347 128 
L 347 722 
Q 666 556 975 473 
Q 1284 391 1588 391 
Q 1994 391 2212 530 
Q 2431 669 2431 922 
Q 2431 1156 2273 1281 
Q 2116 1406 1581 1522 
L 1381 1569 
Q 847 1681 609 1914 
Q 372 2147 372 2553 
Q 372 3047 722 3315 
Q 1072 3584 1716 3584 
Q 2034 3584 2315 3537 
Q 2597 3491 2834 3397 
z
" transform="scale(0.015625)"/>
       <path id="DejaVuSans-74" d="M 1172 4494 
L 1172 3500 
L 2356 3500 
L 2356 3053 
L 1172 3053 
L 1172 1153 
Q 1172 725 1289 603 
Q 1406 481 1766 481 
L 2356 481 
L 2356 0 
L 1766 0 
Q 1100 0 847 248 
Q 594 497 594 1153 
L 594 3053 
L 172 3053 
L 172 3500 
L 594 3500 
L 594 4494 
L 1172 4494 
z
" transform="scale(0.015625)"/>
       <path id="DejaVuSans-70" d="M 1159 525 
L 1159 -1331 
L 581 -1331 
L 581 3500 
L 1159 3500 
L 1159 2969 
Q 1341 3281 1617 3432 
Q 1894 3584 2278 3584 
Q 2916 3584 3314 3078 
Q 3713 2572 3713 1747 
Q 3713 922 3314 415 
Q 2916 -91 2278 -91 
Q 1894 -91 1617 61 
Q 1341 213 1159 525 
z
M 3116 1747 
Q 3116 2381 2855 2742 
Q 2594 3103 2138 3103 
Q 1681 3103 1420 2742 
Q 1159 2381 1159 1747 
Q 1159 1113 1420 752 
Q 1681 391 2138 391 
Q 2594 391 2855 752 
Q 3116 1113 3116 1747 
z
" transform="scale(0.015625)"/>
      </defs>
      <use xlink:href="#DejaVuSans-54"/>
      <use xlink:href="#DejaVuSans-69" x="57.958984"/>
      <use xlink:href="#DejaVuSans-6d" x="85.742188"/>
      <use xlink:href="#DejaVuSans-65" x="183.154297"/>
      <use xlink:href="#DejaVuSans-73" x="244.677734"/>
      <use xlink:href="#DejaVuSans-74" x="296.777344"/>
      <use xlink:href="#DejaVuSans-65" x="335.986328"/>
      <use xlink:href="#DejaVuSans-70" x="397.509766"/>
     </g>
    </g>
    <g id="text_8">
     <!-- 1e6 -->
     <g style="fill: #262626" transform="translate(254.04425 201.115375) scale(0.088 -0.088)">
      <use xlink:href="#DejaVuSans-31"/>
      <use xlink:href="#DejaVuSans-65" x="63.623047"/>
      <use xlink:href="#DejaVuSans-36" x="125.146484"/>
     </g>
    </g>
   </g>
   <g id="matplotlib.axis_2">
    <g id="ytick_1">
     <g id="line2d_7">
      <path d="M 46.068 174.612 
L 270.657 174.612 
" clip-path="url(#p52219f15e3)" style="fill: none; stroke: #ffffff; stroke-width: 0.8; stroke-linecap: round"/>
     </g>
     <g id="text_9">
      <!-- 0.0 -->
      <g style="fill: #262626" transform="translate(23.77325 177.955312) scale(0.088 -0.088)">
       <use xlink:href="#DejaVuSans-30"/>
       <use xlink:href="#DejaVuSans-2e" x="63.623047"/>
       <use xlink:href="#DejaVuSans-30" x="95.410156"/>
      </g>
     </g>
    </g>
    <g id="ytick_2">
     <g id="line2d_8">
      <path d="M 46.068 142.4832 
L 270.657 142.4832 
" clip-path="url(#p52219f15e3)" style="fill: none; stroke: #ffffff; stroke-width: 0.8; stroke-linecap: round"/>
     </g>
     <g id="text_10">
      <!-- 0.2 -->
      <g style="fill: #262626" transform="translate(23.77325 145.826512) scale(0.088 -0.088)">
       <use xlink:href="#DejaVuSans-30"/>
       <use xlink:href="#DejaVuSans-2e" x="63.623047"/>
       <use xlink:href="#DejaVuSans-32" x="95.410156"/>
      </g>
     </g>
    </g>
    <g id="ytick_3">
     <g id="line2d_9">
      <path d="M 46.068 110.3544 
L 270.657 110.3544 
" clip-path="url(#p52219f15e3)" style="fill: none; stroke: #ffffff; stroke-width: 0.8; stroke-linecap: round"/>
     </g>
     <g id="text_11">
      <!-- 0.4 -->
      <g style="fill: #262626" transform="translate(23.77325 113.697712) scale(0.088 -0.088)">
       <use xlink:href="#DejaVuSans-30"/>
       <use xlink:href="#DejaVuSans-2e" x="63.623047"/>
       <use xlink:href="#DejaVuSans-34" x="95.410156"/>
      </g>
     </g>
    </g>
    <g id="ytick_4">
     <g id="line2d_10">
      <path d="M 46.068 78.2256 
L 270.657 78.2256 
" clip-path="url(#p52219f15e3)" style="fill: none; stroke: #ffffff; stroke-width: 0.8; stroke-linecap: round"/>
     </g>
     <g id="text_12">
      <!-- 0.6 -->
      <g style="fill: #262626" transform="translate(23.77325 81.568912) scale(0.088 -0.088)">
       <use xlink:href="#DejaVuSans-30"/>
       <use xlink:href="#DejaVuSans-2e" x="63.623047"/>
       <use xlink:href="#DejaVuSans-36" x="95.410156"/>
      </g>
     </g>
    </g>
    <g id="ytick_5">
     <g id="line2d_11">
      <path d="M 46.068 46.0968 
L 270.657 46.0968 
" clip-path="url(#p52219f15e3)" style="fill: none; stroke: #ffffff; stroke-width: 0.8; stroke-linecap: round"/>
     </g>
     <g id="text_13">
      <!-- 0.8 -->
      <g style="fill: #262626" transform="translate(23.77325 49.440112) scale(0.088 -0.088)">
       <use xlink:href="#DejaVuSans-30"/>
       <use xlink:href="#DejaVuSans-2e" x="63.623047"/>
       <use xlink:href="#DejaVuSans-38" x="95.410156"/>
      </g>
     </g>
    </g>
    <g id="ytick_6">
     <g id="line2d_12">
      <path d="M 46.068 13.968 
L 270.657 13.968 
" clip-path="url(#p52219f15e3)" style="fill: none; stroke: #ffffff; stroke-width: 0.8; stroke-linecap: round"/>
     </g>
     <g id="text_14">
      <!-- 1.0 -->
      <g style="fill: #262626" transform="translate(23.77325 17.311313) scale(0.088 -0.088)">
       <use xlink:href="#DejaVuSans-31"/>
       <use xlink:href="#DejaVuSans-2e" x="63.623047"/>
       <use xlink:href="#DejaVuSans-30" x="95.410156"/>
      </g>
     </g>
    </g>
    <g id="text_15">
     <!-- Score -->
     <g style="fill: #262626" transform="translate(17.77675 107.73225) rotate(-90) scale(0.096 -0.096)">
      <defs>
       <path id="DejaVuSans-53" d="M 3425 4513 
L 3425 3897 
Q 3066 4069 2747 4153 
Q 2428 4238 2131 4238 
Q 1616 4238 1336 4038 
Q 1056 3838 1056 3469 
Q 1056 3159 1242 3001 
Q 1428 2844 1947 2747 
L 2328 2669 
Q 3034 2534 3370 2195 
Q 3706 1856 3706 1288 
Q 3706 609 3251 259 
Q 2797 -91 1919 -91 
Q 1588 -91 1214 -16 
Q 841 59 441 206 
L 441 856 
Q 825 641 1194 531 
Q 1563 422 1919 422 
Q 2459 422 2753 634 
Q 3047 847 3047 1241 
Q 3047 1584 2836 1778 
Q 2625 1972 2144 2069 
L 1759 2144 
Q 1053 2284 737 2584 
Q 422 2884 422 3419 
Q 422 4038 858 4394 
Q 1294 4750 2059 4750 
Q 2388 4750 2728 4690 
Q 3069 4631 3425 4513 
z
" transform="scale(0.015625)"/>
       <path id="DejaVuSans-63" d="M 3122 3366 
L 3122 2828 
Q 2878 2963 2633 3030 
Q 2388 3097 2138 3097 
Q 1578 3097 1268 2742 
Q 959 2388 959 1747 
Q 959 1106 1268 751 
Q 1578 397 2138 397 
Q 2388 397 2633 464 
Q 2878 531 3122 666 
L 3122 134 
Q 2881 22 2623 -34 
Q 2366 -91 2075 -91 
Q 1284 -91 818 406 
Q 353 903 353 1747 
Q 353 2603 823 3093 
Q 1294 3584 2113 3584 
Q 2378 3584 2631 3529 
Q 2884 3475 3122 3366 
z
" transform="scale(0.015625)"/>
       <path id="DejaVuSans-6f" d="M 1959 3097 
Q 1497 3097 1228 2736 
Q 959 2375 959 1747 
Q 959 1119 1226 758 
Q 1494 397 1959 397 
Q 2419 397 2687 759 
Q 2956 1122 2956 1747 
Q 2956 2369 2687 2733 
Q 2419 3097 1959 3097 
z
M 1959 3584 
Q 2709 3584 3137 3096 
Q 3566 2609 3566 1747 
Q 3566 888 3137 398 
Q 2709 -91 1959 -91 
Q 1206 -91 779 398 
Q 353 888 353 1747 
Q 353 2609 779 3096 
Q 1206 3584 1959 3584 
z
" transform="scale(0.015625)"/>
       <path id="DejaVuSans-72" d="M 2631 2963 
Q 2534 3019 2420 3045 
Q 2306 3072 2169 3072 
Q 1681 3072 1420 2755 
Q 1159 2438 1159 1844 
L 1159 0 
L 581 0 
L 581 3500 
L 1159 3500 
L 1159 2956 
Q 1341 3275 1631 3429 
Q 1922 3584 2338 3584 
Q 2397 3584 2469 3576 
Q 2541 3569 2628 3553 
L 2631 2963 
z
" transform="scale(0.015625)"/>
      </defs>
      <use xlink:href="#DejaVuSans-53"/>
      <use xlink:href="#DejaVuSans-63" x="63.476562"/>
      <use xlink:href="#DejaVuSans-6f" x="118.457031"/>
      <use xlink:href="#DejaVuSans-72" x="179.638672"/>
      <use xlink:href="#DejaVuSans-65" x="218.501953"/>
     </g>
    </g>
   </g>
   <g id="PolyCollection_1">
    <defs>
     <path id="mffffe947ad" d="M 48.31389 -41.388 
L 48.31389 -41.388 
L 50.55978 -41.388 
L 52.80567 -41.388 
L 55.05156 -41.388 
L 57.29745 -41.388 
L 59.54334 -41.388 
L 61.78923 -44.550679 
L 64.03512 -41.388 
L 66.28101 -50.554748 
L 68.5269 -59.8721 
L 70.77279 -60.163268 
L 73.01868 -53.912961 
L 75.26457 -75.575051 
L 77.51046 -78.396362 
L 79.75635 -81.810047 
L 82.00224 -87.718483 
L 84.24813 -94.149514 
L 86.49402 -115.796293 
L 88.73991 -118.547321 
L 90.9858 -115.896695 
L 93.23169 -128.52733 
L 95.47758 -146.605553 
L 97.72347 -146.670062 
L 99.96936 -137.83439 
L 102.21525 -116.122601 
L 104.46114 -125.455013 
L 106.70703 -116.094237 
L 108.95292 -162.433254 
L 111.19881 -168.668249 
L 113.4447 -177.704474 
L 115.69059 -168.889135 
L 117.93648 -150.204229 
L 120.18237 -169.038734 
L 122.42826 -159.339853 
L 124.67415 -159.581823 
L 126.92004 -159.511541 
L 129.16593 -178.335755 
L 131.41182 -178.246648 
L 133.65771 -159.400094 
L 135.9036 -140.714938 
L 138.14949 -178.035803 
L 140.39538 -187.794925 
L 142.64127 -178.075963 
L 144.88716 -159.550698 
L 147.13305 -178.245393 
L 149.37894 -168.517645 
L 151.62483 -178.014718 
L 153.87072 -140.806556 
L 156.11661 -159.250495 
L 158.3625 -168.909215 
L 160.60839 -168.638128 
L 162.85428 -168.556802 
L 165.10017 -187.492463 
L 167.34606 -168.726232 
L 169.59195 -178.276769 
L 171.83784 -178.045843 
L 174.08373 -187.734684 
L 176.32962 -187.011786 
L 178.57551 -178.256688 
L 180.8214 -178.216527 
L 183.06729 -178.156285 
L 185.31318 -168.999577 
L 187.55907 -168.728491 
L 189.80496 -187.803962 
L 192.05085 -159.4513 
L 194.29674 -178.367131 
L 196.54263 -169.009618 
L 198.78852 -168.758612 
L 201.03441 -178.005682 
L 203.2803 -178.547855 
L 205.52619 -140.745059 
L 207.77208 -178.096044 
L 210.01797 -159.391058 
L 212.26386 -168.969457 
L 214.50975 -159.401098 
L 216.75564 -196.097459 
L 216.75564 -197.011875 
L 216.75564 -197.011875 
L 214.50975 -196.901432 
L 212.26386 -196.901432 
L 210.01797 -196.901432 
L 207.77208 -196.901432 
L 205.52619 -196.901432 
L 203.2803 -196.901432 
L 201.03441 -196.901432 
L 198.78852 -196.901432 
L 196.54263 -196.861271 
L 194.29674 -196.901432 
L 192.05085 -196.991794 
L 189.80496 -196.901432 
L 187.55907 -196.901432 
L 185.31318 -196.901432 
L 183.06729 -196.901432 
L 180.8214 -196.861271 
L 178.57551 -196.901432 
L 176.32962 -196.901432 
L 174.08373 -196.901432 
L 171.83784 -196.901432 
L 169.59195 -196.952638 
L 167.34606 -196.901432 
L 165.10017 -196.901432 
L 162.85428 -196.861271 
L 160.60839 -196.901432 
L 158.3625 -196.901432 
L 156.11661 -196.901432 
L 153.87072 -196.901432 
L 151.62483 -196.901432 
L 149.37894 -196.901432 
L 147.13305 -196.812325 
L 144.88716 -196.901432 
L 142.64127 -196.901432 
L 140.39538 -196.901432 
L 138.14949 -196.901432 
L 135.9036 -196.901432 
L 133.65771 -196.901432 
L 131.41182 -196.901432 
L 129.16593 -196.901432 
L 126.92004 -196.901432 
L 124.67415 -196.901432 
L 122.42826 -196.901432 
L 120.18237 -196.901432 
L 117.93648 -196.862275 
L 115.69059 -196.952638 
L 113.4447 -196.901432 
L 111.19881 -196.901432 
L 108.95292 -196.459661 
L 106.70703 -196.459661 
L 104.46114 -186.740699 
L 102.21525 -174.792802 
L 99.96936 -181.037837 
L 97.72347 -184.521804 
L 95.47758 -184.3712 
L 93.23169 -180.405301 
L 90.9858 -178.045843 
L 88.73991 -143.929073 
L 86.49402 -177.373146 
L 84.24813 -158.979408 
L 82.00224 -149.837007 
L 79.75635 -178.567936 
L 77.51046 -146.566647 
L 75.26457 -146.660021 
L 73.01868 -136.720174 
L 70.77279 -150.344793 
L 68.5269 -143.676812 
L 66.28101 -69.330016 
L 64.03512 -90.846272 
L 61.78923 -63.276498 
L 59.54334 -60.002624 
L 57.29745 -41.388 
L 55.05156 -41.388 
L 52.80567 -41.388 
L 50.55978 -41.388 
L 48.31389 -41.388 
z
" style="stroke: #4c72b0; stroke-opacity: 0.2; stroke-width: 0.8"/>
    </defs>
    <g clip-path="url(#p52219f15e3)">
     <use xlink:href="#mffffe947ad" x="0" y="216" style="fill: #4c72b0; fill-opacity: 0.2; stroke: #4c72b0; stroke-opacity: 0.2; stroke-width: 0.8"/>
    </g>
   </g>
   <g id="PolyCollection_2">
    <defs>
     <path id="m883ed3d607" d="M 48.31389 -41.388 
L 48.31389 -41.388 
L 50.55978 -41.388 
L 52.80567 -41.388 
L 55.05156 -41.388 
L 57.29745 -41.388 
L 59.54334 -41.388 
L 61.78923 -41.388 
L 64.03512 -44.420156 
L 66.28101 -47.683237 
L 68.5269 -60.002121 
L 70.77279 -69.330016 
L 73.01868 -75.665413 
L 75.26457 -81.980731 
L 77.51046 -106.04721 
L 79.75635 -109.450855 
L 82.00224 -143.216216 
L 84.24813 -137.563555 
L 86.49402 -140.414986 
L 88.73991 -143.939114 
L 90.9858 -150.22431 
L 93.23169 -165.696335 
L 95.47758 -153.296627 
L 97.72347 -162.744502 
L 99.96936 -183.55794 
L 102.21525 -166.29875 
L 104.46114 -162.724421 
L 106.70703 -159.421179 
L 108.95292 -162.875025 
L 111.19881 -178.427372 
L 113.4447 -168.818853 
L 115.69059 -159.983433 
L 117.93648 -159.87299 
L 120.18237 -159.893071 
L 122.42826 -150.565678 
L 124.67415 -196.640386 
L 124.67415 -197.564089 
L 124.67415 -197.564089 
L 122.42826 -197.463686 
L 120.18237 -197.514892 
L 117.93648 -197.513888 
L 115.69059 -197.5543 
L 113.4447 -197.513887 
L 111.19881 -197.513887 
L 108.95292 -197.353243 
L 106.70703 -197.252841 
L 104.46114 -197.353243 
L 102.21525 -197.353243 
L 99.96936 -197.353244 
L 97.72347 -197.252841 
L 95.47758 -191.329093 
L 93.23169 -194.481983 
L 90.9858 -194.562054 
L 88.73991 -191.329093 
L 86.49402 -194.622295 
L 84.24813 -188.068522 
L 82.00224 -178.899264 
L 79.75635 -159.224139 
L 77.51046 -168.703641 
L 75.26457 -128.467339 
L 73.01868 -125.044367 
L 70.77279 -100.525072 
L 68.5269 -100.715837 
L 66.28101 -113.075385 
L 64.03512 -63.205463 
L 61.78923 -66.378182 
L 59.54334 -50.695312 
L 57.29745 -41.388 
L 55.05156 -41.388 
L 52.80567 -41.388 
L 50.55978 -41.388 
L 48.31389 -41.388 
z
" style="stroke: #dd8452; stroke-opacity: 0.2; stroke-width: 0.8"/>
    </defs>
    <g clip-path="url(#p52219f15e3)">
     <use xlink:href="#m883ed3d607" x="0" y="216" style="fill: #dd8452; fill-opacity: 0.2; stroke: #dd8452; stroke-opacity: 0.2; stroke-width: 0.8"/>
    </g>
   </g>
   <g id="PolyCollection_3">
    <defs>
     <path id="mdeb9790241" d="M 48.31389 -41.388 
L 48.31389 -41.388 
L 50.55978 -41.388 
L 52.80567 -41.388 
L 55.05156 -41.388 
L 57.29745 -41.388 
L 59.54334 -41.388 
L 61.78923 -41.388 
L 64.03512 -50.63507 
L 66.28101 -47.582834 
L 68.5269 -60.153227 
L 70.77279 -75.86421 
L 73.01868 -91.147479 
L 75.26457 -85.063087 
L 77.51046 -103.416664 
L 79.75635 -119.105559 
L 82.00224 -107.021114 
L 84.24813 -118.989092 
L 86.49402 -134.501278 
L 88.73991 -131.700049 
L 90.9858 -119.581467 
L 93.23169 -100.494952 
L 95.47758 -141.188587 
L 97.72347 -103.697792 
L 99.96936 -100.786119 
L 102.21525 -100.683457 
L 104.46114 -112.944862 
L 106.70703 -122.543341 
L 108.95292 -119.430863 
L 111.19881 -103.55271 
L 113.4447 -141.218206 
L 115.69059 -134.822567 
L 117.93648 -110.062055 
L 120.18237 -153.45727 
L 122.42826 -88.255887 
L 124.67415 -141.157964 
L 126.92004 -125.505214 
L 129.16593 -122.442938 
L 131.41182 -122.081489 
L 133.65771 -147.061631 
L 135.9036 -147.262436 
L 138.14949 -119.390702 
L 140.39538 -134.631802 
L 142.64127 -131.730169 
L 144.88716 -100.565234 
L 147.13305 -154.009484 
L 149.37894 -119.428604 
L 151.62483 -153.065701 
L 153.87072 -128.647813 
L 156.11661 -128.497209 
L 158.3625 -122.390478 
L 160.60839 -112.718705 
L 162.85428 -124.822478 
L 165.10017 -150.405034 
L 167.34606 -159.662145 
L 169.59195 -168.959417 
L 171.83784 -122.442938 
L 174.08373 -113.115044 
L 176.32962 -168.71845 
L 178.57551 -131.951055 
L 180.8214 -159.742467 
L 183.06729 -168.567847 
L 185.31318 -169.039739 
L 187.55907 -122.392737 
L 189.80496 -141.278447 
L 192.05085 -113.145667 
L 194.29674 -103.63755 
L 196.54263 -103.687751 
L 198.78852 -150.495397 
L 201.03441 -159.86295 
L 203.2803 -187.212591 
L 205.52619 -187.422934 
L 207.77208 -168.818853 
L 210.01797 -150.314672 
L 212.26386 -150.415075 
L 214.50975 -159.923192 
L 216.75564 -113.054802 
L 219.00153 -122.301873 
L 221.24742 -150.435155 
L 223.49331 -103.63755 
L 225.7392 -196.82111 
L 225.7392 -197.252841 
L 225.7392 -197.252841 
L 223.49331 -197.22272 
L 221.24742 -197.252841 
L 219.00153 -197.252841 
L 216.75564 -197.252841 
L 214.50975 -197.252841 
L 212.26386 -197.252841 
L 210.01797 -197.252841 
L 207.77208 -197.22272 
L 205.52619 -197.22272 
L 203.2803 -197.222971 
L 201.03441 -197.252841 
L 198.78852 -197.252841 
L 196.54263 -197.252841 
L 194.29674 -197.22272 
L 192.05085 -197.22272 
L 189.80496 -197.23276 
L 187.55907 -197.22272 
L 185.31318 -197.22272 
L 183.06729 -197.222971 
L 180.8214 -197.252841 
L 178.57551 -197.22272 
L 176.32962 -197.252841 
L 174.08373 -197.253092 
L 171.83784 -197.22272 
L 169.59195 -197.22272 
L 167.34606 -197.212931 
L 165.10017 -197.252841 
L 162.85428 -197.102237 
L 160.60839 -197.122318 
L 158.3625 -197.122318 
L 156.11661 -197.122318 
L 153.87072 -197.143653 
L 151.62483 -197.102739 
L 149.37894 -197.102237 
L 147.13305 -197.122318 
L 144.88716 -197.142398 
L 142.64127 -197.122318 
L 140.39538 -197.143653 
L 138.14949 -197.122318 
L 135.9036 -197.122318 
L 133.65771 -197.122318 
L 131.41182 -197.122318 
L 129.16593 -197.122318 
L 126.92004 -197.122318 
L 124.67415 -197.102237 
L 122.42826 -197.122318 
L 120.18237 -197.122318 
L 117.93648 -197.142398 
L 115.69059 -197.122318 
L 113.4447 -197.082659 
L 111.19881 -197.122318 
L 108.95292 -197.102739 
L 106.70703 -197.102739 
L 104.46114 -197.122318 
L 102.21525 -197.142398 
L 99.96936 -197.122318 
L 97.72347 -197.122318 
L 95.47758 -197.122318 
L 93.23169 -197.142398 
L 90.9858 -197.122318 
L 88.73991 -187.744724 
L 86.49402 -190.666437 
L 84.24813 -175.555861 
L 82.00224 -169.049779 
L 79.75635 -172.245088 
L 77.51046 -178.276769 
L 75.26457 -181.730614 
L 73.01868 -165.87706 
L 70.77279 -156.358903 
L 68.5269 -122.282294 
L 66.28101 -91.157519 
L 64.03512 -100.454791 
L 61.78923 -96.930663 
L 59.54334 -72.332051 
L 57.29745 -50.876036 
L 55.05156 -41.388 
L 52.80567 -41.388 
L 50.55978 -41.388 
L 48.31389 -41.388 
z
" style="stroke: #55a868; stroke-opacity: 0.2; stroke-width: 0.8"/>
    </defs>
    <g clip-path="url(#p52219f15e3)">
     <use xlink:href="#mdeb9790241" x="0" y="216" style="fill: #55a868; fill-opacity: 0.2; stroke: #55a868; stroke-opacity: 0.2; stroke-width: 0.8"/>
    </g>
   </g>
   <g id="PolyCollection_4">
    <defs>
     <path id="m811b86e9c8" d="M 48.31389 -41.388 
L 48.31389 -41.388 
L 50.55978 -41.388 
L 52.80567 -41.388 
L 55.05156 -41.388 
L 57.29745 -41.388 
L 59.54334 -41.388 
L 61.78923 -41.388 
L 64.03512 -41.388 
L 66.28101 -41.388 
L 68.5269 -44.540639 
L 70.77279 -41.388 
L 73.01868 -56.990549 
L 75.26457 -66.418343 
L 77.51046 -94.591285 
L 79.75635 -91.237841 
L 82.00224 -122.483099 
L 84.24813 -118.952696 
L 86.49402 -112.733012 
L 88.73991 -122.392737 
L 90.9858 -116.157742 
L 93.23169 -137.202106 
L 95.47758 -131.137795 
L 97.72347 -122.011208 
L 99.96936 -131.027352 
L 102.21525 -144.230281 
L 104.46114 -109.590414 
L 106.70703 -124.983122 
L 108.95292 -115.906735 
L 111.19881 -128.505743 
L 113.4447 -140.895663 
L 115.69059 -156.389023 
L 117.93648 -141.318608 
L 120.18237 -152.965298 
L 122.42826 -128.406847 
L 124.67415 -131.639807 
L 126.92004 -125.485134 
L 129.16593 -131.789658 
L 131.41182 -119.260179 
L 133.65771 -128.708054 
L 135.9036 -97.794124 
L 138.14949 -147.101792 
L 140.39538 -94.300117 
L 142.64127 -147.061631 
L 144.88716 -125.414852 
L 147.13305 -141.208166 
L 149.37894 -162.895105 
L 151.62483 -140.756354 
L 153.87072 -131.840612 
L 156.11661 -159.491461 
L 158.3625 -153.075741 
L 160.60839 -168.437323 
L 162.85428 -177.834997 
L 165.10017 -168.859014 
L 167.34606 -159.330315 
L 169.59195 -177.944938 
L 171.83784 -168.547766 
L 174.08373 -159.491461 
L 176.32962 -159.491461 
L 178.57551 -122.001167 
L 180.8214 -169.150181 
L 183.06729 -178.095542 
L 185.31318 -150.133948 
L 187.55907 -168.596712 
L 189.80496 -168.728491 
L 192.05085 -177.985601 
L 194.29674 -168.77819 
L 196.54263 -177.644233 
L 198.78852 -168.407203 
L 201.03441 -159.289401 
L 203.2803 -150.113867 
L 205.52619 -178.045843 
L 207.77208 -178.196446 
L 210.01797 -187.383275 
L 212.26386 -178.045843 
L 214.50975 -187.564 
L 216.75564 -159.571783 
L 219.00153 -140.957159 
L 221.24742 -159.54116 
L 223.49331 -159.46134 
L 225.7392 -140.836676 
L 227.98509 -149.962761 
L 230.23098 -159.270575 
L 232.47687 -159.541662 
L 234.72276 -178.096044 
L 236.96865 -168.788732 
L 239.21454 -168.748571 
L 241.46043 -168.618048 
L 243.70632 -159.611944 
L 245.95221 -150.294592 
L 248.1981 -169.079899 
L 250.44399 -159.551702 
L 252.68988 -159.340857 
L 254.93577 -168.949376 
L 257.18166 -168.939336 
L 259.42755 -159.732427 
L 261.67344 -159.611944 
L 263.91933 -140.565589 
L 266.16522 -159.632024 
L 268.41111 -169.270664 
L 270.657 -159.250495 
L 270.657 -196.630345 
L 270.657 -196.630345 
L 268.41111 -196.630848 
L 266.16522 -196.580144 
L 263.91933 -196.560064 
L 261.67344 -196.580144 
L 259.42755 -196.580144 
L 257.18166 -196.580144 
L 254.93577 -196.630345 
L 252.68988 -196.580144 
L 250.44399 -196.630345 
L 248.1981 -196.580144 
L 245.95221 -196.630345 
L 243.70632 -196.560566 
L 241.46043 -196.580144 
L 239.21454 -196.580144 
L 236.96865 -196.580144 
L 234.72276 -196.630345 
L 232.47687 -196.581399 
L 230.23098 -196.580144 
L 227.98509 -196.630345 
L 225.7392 -196.630345 
L 223.49331 -196.581399 
L 221.24742 -196.630345 
L 219.00153 -196.580144 
L 216.75564 -196.580144 
L 214.50975 -196.580144 
L 212.26386 -196.630848 
L 210.01797 -196.581399 
L 207.77208 -196.580144 
L 205.52619 -196.580144 
L 203.2803 -196.630345 
L 201.03441 -196.630345 
L 198.78852 -196.580144 
L 196.54263 -196.580144 
L 194.29674 -196.630345 
L 192.05085 -196.630345 
L 189.80496 -196.630345 
L 187.55907 -196.630345 
L 185.31318 -196.580144 
L 183.06729 -196.580144 
L 180.8214 -196.580144 
L 178.57551 -196.580144 
L 176.32962 -196.580144 
L 174.08373 -196.580144 
L 171.83784 -196.580144 
L 169.59195 -196.580144 
L 167.34606 -196.580144 
L 165.10017 -196.581399 
L 162.85428 -196.630848 
L 160.60839 -196.630345 
L 158.3625 -196.539983 
L 156.11661 -196.540485 
L 153.87072 -196.539983 
L 151.62483 -196.489782 
L 149.37894 -196.560064 
L 147.13305 -196.539983 
L 144.88716 -196.489782 
L 142.64127 -190.455592 
L 140.39538 -174.772721 
L 138.14949 -187.282873 
L 135.9036 -171.881129 
L 133.65771 -174.632158 
L 131.41182 -184.140274 
L 129.16593 -177.834997 
L 126.92004 -177.906534 
L 124.67415 -174.662278 
L 122.42826 -174.581956 
L 120.18237 -172.023199 
L 117.93648 -172.142176 
L 115.69059 -174.7426 
L 113.4447 -165.967422 
L 111.19881 -169.25209 
L 108.95292 -147.563644 
L 106.70703 -162.834864 
L 104.46114 -153.788599 
L 102.21525 -169.280704 
L 99.96936 -165.334886 
L 97.72347 -153.43719 
L 95.47758 -168.608008 
L 93.23169 -165.405168 
L 90.9858 -166.399153 
L 88.73991 -172.192377 
L 86.49402 -147.47052 
L 84.24813 -143.888912 
L 82.00224 -153.039596 
L 79.75635 -103.707832 
L 77.51046 -138.226211 
L 75.26457 -110.093431 
L 73.01868 -91.160029 
L 70.77279 -113.246069 
L 68.5269 -75.645333 
L 66.28101 -54.008594 
L 64.03512 -50.785674 
L 61.78923 -41.388 
L 59.54334 -41.388 
L 57.29745 -41.388 
L 55.05156 -41.388 
L 52.80567 -41.388 
L 50.55978 -41.388 
L 48.31389 -41.388 
z
" style="stroke: #c44e52; stroke-opacity: 0.2; stroke-width: 0.8"/>
    </defs>
    <g clip-path="url(#p52219f15e3)">
     <use xlink:href="#m811b86e9c8" x="0" y="216" style="fill: #c44e52; fill-opacity: 0.2; stroke: #c44e52; stroke-opacity: 0.2; stroke-width: 0.8"/>
    </g>
   </g>
   <g id="line2d_13">
    <path d="M 48.31389 174.612 
L 50.55978 174.612 
L 52.80567 174.612 
L 55.05156 174.612 
L 57.29745 174.612 
L 59.54334 168.407126 
L 61.78923 162.121929 
L 64.03512 156.037537 
L 66.28101 156.047578 
L 68.5269 115.997021 
L 70.77279 112.252007 
L 73.01868 119.219941 
L 75.26457 100.133426 
L 77.51046 94.26992 
L 79.75635 81.257755 
L 82.00224 97.041028 
L 84.24813 81.779849 
L 86.49402 66.056817 
L 88.73991 84.761803 
L 90.9858 69.028731 
L 93.23169 60.072828 
L 95.47758 50.50447 
L 97.72347 50.404067 
L 99.96936 56.568781 
L 102.21525 68.96849 
L 104.46114 59.902144 
L 106.70703 56.598901 
L 108.95292 34.982243 
L 111.19881 28.747248 
L 113.4447 25.735173 
L 115.69059 28.656886 
L 117.93648 34.871801 
L 120.18237 28.606685 
L 122.42826 31.869766 
L 124.67415 31.789444 
L 126.92004 31.769363 
L 129.16593 25.524328 
L 131.41182 25.524328 
L 133.65771 31.819564 
L 135.9036 38.0646 
L 138.14949 25.594609 
L 140.39538 22.371689 
L 142.64127 25.594609 
L 144.88716 31.769363 
L 147.13305 25.554449 
L 149.37894 28.797449 
L 151.62483 25.61469 
L 153.87072 38.034479 
L 156.11661 31.869766 
L 158.3625 28.666926 
L 160.60839 28.727168 
L 162.85428 28.767328 
L 165.10017 22.472092 
L 167.34606 28.727168 
L 169.59195 25.544408 
L 171.83784 25.60465 
L 174.08373 22.39177 
L 176.32962 22.602615 
L 178.57551 25.534368 
L 180.8214 25.534368 
L 183.06729 25.584569 
L 185.31318 28.606685 
L 187.55907 28.697047 
L 189.80496 22.351609 
L 192.05085 31.819564 
L 194.29674 25.514287 
L 196.54263 28.646845 
L 198.78852 28.687006 
L 201.03441 25.60465 
L 203.2803 25.454046 
L 205.52619 38.05456 
L 207.77208 25.574529 
L 210.01797 31.839645 
L 212.26386 28.646845 
L 214.50975 31.819564 
L 216.75564 19.399775 
" clip-path="url(#p52219f15e3)" style="fill: none; stroke: #4c72b0; stroke-width: 1.2; stroke-linecap: round"/>
   </g>
   <g id="line2d_14">
    <path d="M 48.31389 174.612 
L 50.55978 174.612 
L 52.80567 174.612 
L 55.05156 174.612 
L 57.29745 174.612 
L 59.54334 171.509563 
L 61.78923 162.17213 
L 64.03512 162.272533 
L 66.28101 143.366742 
L 68.5269 134.139752 
L 70.77279 130.967033 
L 73.01868 118.758089 
L 75.26457 109.340335 
L 77.51046 75.595055 
L 79.75635 81.699527 
L 82.00224 56.428217 
L 84.24813 53.135015 
L 86.49402 46.960262 
L 88.73991 46.90002 
L 90.9858 43.657019 
L 93.23169 34.319587 
L 95.47758 43.667059 
L 97.72347 34.470191 
L 99.96936 25.544408 
L 102.21525 31.337633 
L 104.46114 34.570593 
L 106.70703 37.612789 
L 108.95292 34.46015 
L 111.19881 25.072517 
L 113.4447 28.275356 
L 115.69059 31.187029 
L 117.93648 31.25731 
L 120.18237 31.21715 
L 122.42826 34.359748 
L 124.67415 18.887722 
" clip-path="url(#p52219f15e3)" style="fill: none; stroke: #dd8452; stroke-width: 1.2; stroke-linecap: round"/>
   </g>
   <g id="line2d_15">
    <path d="M 48.31389 174.612 
L 50.55978 174.612 
L 52.80567 174.612 
L 55.05156 174.612 
L 57.29745 171.449321 
L 59.54334 162.222331 
L 61.78923 156.097779 
L 64.03512 140.45507 
L 66.28101 146.559541 
L 68.5269 121.730003 
L 70.77279 106.227857 
L 73.01868 90.725711 
L 75.26457 77.934433 
L 77.51046 78.255721 
L 79.75635 71.819921 
L 82.00224 81.04691 
L 84.24813 68.657242 
L 86.49402 53.406102 
L 88.73991 56.267573 
L 90.9858 53.004492 
L 93.23169 65.615046 
L 95.47758 43.6771 
L 97.72347 56.257533 
L 99.96936 59.289689 
L 102.21525 59.329849 
L 104.46114 59.520614 
L 106.70703 56.167171 
L 108.95292 53.074774 
L 111.19881 65.625086 
L 113.4447 43.68714 
L 115.69059 43.867864 
L 117.93648 56.217372 
L 120.18237 37.592708 
L 122.42826 71.749639 
L 124.67415 43.747382 
L 126.92004 53.114935 
L 129.16593 56.217372 
L 131.41182 56.398097 
L 133.65771 43.847784 
L 135.9036 43.807623 
L 138.14949 53.024573 
L 140.39538 50.12294 
L 142.64127 47.171107 
L 144.88716 53.225378 
L 147.13305 37.371823 
L 149.37894 46.930141 
L 151.62483 37.883876 
L 153.87072 53.114935 
L 156.11661 50.143021 
L 158.3625 50.213303 
L 160.60839 59.319809 
L 162.85428 53.416142 
L 165.10017 34.46015 
L 167.34606 31.367753 
L 169.59195 28.275356 
L 171.83784 43.767462 
L 174.08373 46.88998 
L 176.32962 28.355678 
L 178.57551 40.604783 
L 180.8214 31.357713 
L 183.06729 28.405879 
L 185.31318 28.235195 
L 187.55907 43.797583 
L 189.80496 37.502346 
L 192.05085 46.87994 
L 194.29674 50.042618 
L 196.54263 50.042618 
L 198.78852 34.43003 
L 201.03441 31.307512 
L 203.2803 22.190965 
L 205.52619 22.120683 
L 207.77208 28.315517 
L 210.01797 34.490271 
L 212.26386 34.470191 
L 214.50975 31.287431 
L 216.75564 46.91006 
L 219.00153 43.827703 
L 221.24742 34.45011 
L 223.49331 50.042618 
L 225.7392 18.978085 
" clip-path="url(#p52219f15e3)" style="fill: none; stroke: #55a868; stroke-width: 1.2; stroke-linecap: round"/>
   </g>
   <g id="line2d_16">
    <path d="M 48.31389 174.612 
L 50.55978 174.612 
L 52.80567 174.612 
L 55.05156 174.612 
L 57.29745 174.612 
L 59.54334 174.612 
L 61.78923 174.612 
L 64.03512 171.479442 
L 66.28101 168.336844 
L 68.5269 155.907014 
L 70.77279 146.469179 
L 73.01868 140.374748 
L 75.26457 127.764194 
L 77.51046 99.611333 
L 79.75635 118.517123 
L 82.00224 78.165359 
L 84.24813 84.571038 
L 86.49402 84.410394 
L 88.73991 68.707443 
L 90.9858 77.914352 
L 93.23169 66.227501 
L 95.47758 65.956415 
L 97.72347 78.295882 
L 99.96936 69.119093 
L 102.21525 59.259568 
L 104.46114 84.320032 
L 106.70703 72.060887 
L 108.95292 84.149348 
L 111.19881 68.597 
L 113.4447 62.532689 
L 115.69059 50.263504 
L 117.93648 59.269608 
L 120.18237 53.506505 
L 122.42826 66.016656 
L 124.67415 65.685328 
L 126.92004 62.853977 
L 129.16593 62.673253 
L 131.41182 59.430252 
L 133.65771 65.76565 
L 135.9036 81.187474 
L 138.14949 50.132981 
L 140.39538 78.21556 
L 142.64127 47.321711 
L 144.88716 53.516545 
L 147.13305 44.108831 
L 149.37894 34.85172 
L 151.62483 40.936112 
L 153.87072 47.181147 
L 156.11661 37.954157 
L 158.3625 38.104761 
L 160.60839 28.907892 
L 162.85428 25.775334 
L 165.10017 28.767329 
L 167.34606 31.950088 
L 169.59195 25.745213 
L 171.83784 28.877771 
L 174.08373 31.889846 
L 176.32962 31.889846 
L 178.57551 44.369877 
L 180.8214 28.676966 
L 183.06729 25.695012 
L 185.31318 34.992284 
L 187.55907 28.877771 
L 189.80496 28.81753 
L 192.05085 25.725133 
L 194.29674 28.777369 
L 196.54263 25.845616 
L 198.78852 28.917932 
L 201.03441 31.980209 
L 203.2803 35.022404 
L 205.52619 25.705052 
L 207.77208 25.654851 
L 210.01797 22.592575 
L 212.26386 25.705052 
L 214.50975 22.532333 
L 216.75564 31.869766 
L 219.00153 38.07464 
L 221.24742 31.879806 
L 223.49331 31.899887 
L 225.7392 38.114801 
L 227.98509 35.072606 
L 230.23098 31.970168 
L 232.47687 31.879806 
L 234.72276 25.695012 
L 236.96865 28.797449 
L 239.21454 28.82757 
L 241.46043 28.847651 
L 243.70632 31.849685 
L 245.95221 34.962163 
L 248.1981 28.676966 
L 250.44399 31.869766 
L 252.68988 31.940048 
L 254.93577 28.737208 
L 257.18166 28.747248 
L 259.42755 31.809524 
L 261.67344 31.849685 
L 263.91933 38.205164 
L 266.16522 31.849685 
L 268.41111 28.636805 
L 270.657 31.970168 
" clip-path="url(#p52219f15e3)" style="fill: none; stroke: #c44e52; stroke-width: 1.2; stroke-linecap: round"/>
   </g>
   <g id="line2d_17"/>
   <g id="line2d_18"/>
   <g id="line2d_19"/>
   <g id="line2d_20"/>
   <g id="patch_3">
    <path d="M 46.068 174.612 
L 46.068 13.968 
" style="fill: none; stroke: #ffffff; stroke-linejoin: miter; stroke-linecap: square"/>
   </g>
   <g id="patch_4">
    <path d="M 270.657 174.612 
L 270.657 13.968 
" style="fill: none; stroke: #ffffff; stroke-linejoin: miter; stroke-linecap: square"/>
   </g>
   <g id="patch_5">
    <path d="M 46.068 174.612 
L 270.657 174.612 
" style="fill: none; stroke: #ffffff; stroke-linejoin: miter; stroke-linecap: square"/>
   </g>
   <g id="patch_6">
    <path d="M 46.068 13.968 
L 270.657 13.968 
" style="fill: none; stroke: #ffffff; stroke-linejoin: miter; stroke-linecap: square"/>
   </g>
   <g id="legend_1">
    <g id="patch_7">
     <path d="M 147.414375 170.212 
L 264.497 170.212 
Q 266.257 170.212 266.257 168.452 
L 266.257 103.974 
Q 266.257 102.214 264.497 102.214 
L 147.414375 102.214 
Q 145.654375 102.214 145.654375 103.974 
L 145.654375 168.452 
Q 145.654375 170.212 147.414375 170.212 
z
" style="fill: #eaeaf2; opacity: 0.8; stroke: #cccccc; stroke-width: 0.8; stroke-linejoin: miter"/>
    </g>
    <g id="text_16">
     <!-- Approach -->
     <g style="fill: #262626" transform="translate(183.152687 113.0285) scale(0.096 -0.096)">
      <defs>
       <path id="DejaVuSans-41" d="M 2188 4044 
L 1331 1722 
L 3047 1722 
L 2188 4044 
z
M 1831 4666 
L 2547 4666 
L 4325 0 
L 3669 0 
L 3244 1197 
L 1141 1197 
L 716 0 
L 50 0 
L 1831 4666 
z
" transform="scale(0.015625)"/>
       <path id="DejaVuSans-61" d="M 2194 1759 
Q 1497 1759 1228 1600 
Q 959 1441 959 1056 
Q 959 750 1161 570 
Q 1363 391 1709 391 
Q 2188 391 2477 730 
Q 2766 1069 2766 1631 
L 2766 1759 
L 2194 1759 
z
M 3341 1997 
L 3341 0 
L 2766 0 
L 2766 531 
Q 2569 213 2275 61 
Q 1981 -91 1556 -91 
Q 1019 -91 701 211 
Q 384 513 384 1019 
Q 384 1609 779 1909 
Q 1175 2209 1959 2209 
L 2766 2209 
L 2766 2266 
Q 2766 2663 2505 2880 
Q 2244 3097 1772 3097 
Q 1472 3097 1187 3025 
Q 903 2953 641 2809 
L 641 3341 
Q 956 3463 1253 3523 
Q 1550 3584 1831 3584 
Q 2591 3584 2966 3190 
Q 3341 2797 3341 1997 
z
" transform="scale(0.015625)"/>
       <path id="DejaVuSans-68" d="M 3513 2113 
L 3513 0 
L 2938 0 
L 2938 2094 
Q 2938 2591 2744 2837 
Q 2550 3084 2163 3084 
Q 1697 3084 1428 2787 
Q 1159 2491 1159 1978 
L 1159 0 
L 581 0 
L 581 4863 
L 1159 4863 
L 1159 2956 
Q 1366 3272 1645 3428 
Q 1925 3584 2291 3584 
Q 2894 3584 3203 3211 
Q 3513 2838 3513 2113 
z
" transform="scale(0.015625)"/>
      </defs>
      <use xlink:href="#DejaVuSans-41"/>
      <use xlink:href="#DejaVuSans-70" x="68.408203"/>
      <use xlink:href="#DejaVuSans-70" x="131.884766"/>
      <use xlink:href="#DejaVuSans-72" x="195.361328"/>
      <use xlink:href="#DejaVuSans-6f" x="234.224609"/>
      <use xlink:href="#DejaVuSans-61" x="295.40625"/>
      <use xlink:href="#DejaVuSans-63" x="356.685547"/>
      <use xlink:href="#DejaVuSans-68" x="411.666016"/>
     </g>
    </g>
    <g id="line2d_21">
     <path d="M 149.174375 123.031625 
L 157.974375 123.031625 
L 166.774375 123.031625 
" style="fill: none; stroke: #4c72b0; stroke-width: 1.2; stroke-linecap: round"/>
    </g>
    <g id="text_17">
     <!-- Combined -->
     <g style="fill: #262626" transform="translate(173.814375 126.111625) scale(0.088 -0.088)">
      <defs>
       <path id="DejaVuSans-43" d="M 4122 4306 
L 4122 3641 
Q 3803 3938 3442 4084 
Q 3081 4231 2675 4231 
Q 1875 4231 1450 3742 
Q 1025 3253 1025 2328 
Q 1025 1406 1450 917 
Q 1875 428 2675 428 
Q 3081 428 3442 575 
Q 3803 722 4122 1019 
L 4122 359 
Q 3791 134 3420 21 
Q 3050 -91 2638 -91 
Q 1578 -91 968 557 
Q 359 1206 359 2328 
Q 359 3453 968 4101 
Q 1578 4750 2638 4750 
Q 3056 4750 3426 4639 
Q 3797 4528 4122 4306 
z
" transform="scale(0.015625)"/>
       <path id="DejaVuSans-62" d="M 3116 1747 
Q 3116 2381 2855 2742 
Q 2594 3103 2138 3103 
Q 1681 3103 1420 2742 
Q 1159 2381 1159 1747 
Q 1159 1113 1420 752 
Q 1681 391 2138 391 
Q 2594 391 2855 752 
Q 3116 1113 3116 1747 
z
M 1159 2969 
Q 1341 3281 1617 3432 
Q 1894 3584 2278 3584 
Q 2916 3584 3314 3078 
Q 3713 2572 3713 1747 
Q 3713 922 3314 415 
Q 2916 -91 2278 -91 
Q 1894 -91 1617 61 
Q 1341 213 1159 525 
L 1159 0 
L 581 0 
L 581 4863 
L 1159 4863 
L 1159 2969 
z
" transform="scale(0.015625)"/>
       <path id="DejaVuSans-6e" d="M 3513 2113 
L 3513 0 
L 2938 0 
L 2938 2094 
Q 2938 2591 2744 2837 
Q 2550 3084 2163 3084 
Q 1697 3084 1428 2787 
Q 1159 2491 1159 1978 
L 1159 0 
L 581 0 
L 581 3500 
L 1159 3500 
L 1159 2956 
Q 1366 3272 1645 3428 
Q 1925 3584 2291 3584 
Q 2894 3584 3203 3211 
Q 3513 2838 3513 2113 
z
" transform="scale(0.015625)"/>
       <path id="DejaVuSans-64" d="M 2906 2969 
L 2906 4863 
L 3481 4863 
L 3481 0 
L 2906 0 
L 2906 525 
Q 2725 213 2448 61 
Q 2172 -91 1784 -91 
Q 1150 -91 751 415 
Q 353 922 353 1747 
Q 353 2572 751 3078 
Q 1150 3584 1784 3584 
Q 2172 3584 2448 3432 
Q 2725 3281 2906 2969 
z
M 947 1747 
Q 947 1113 1208 752 
Q 1469 391 1925 391 
Q 2381 391 2643 752 
Q 2906 1113 2906 1747 
Q 2906 2381 2643 2742 
Q 2381 3103 1925 3103 
Q 1469 3103 1208 2742 
Q 947 2381 947 1747 
z
" transform="scale(0.015625)"/>
      </defs>
      <use xlink:href="#DejaVuSans-43"/>
      <use xlink:href="#DejaVuSans-6f" x="69.824219"/>
      <use xlink:href="#DejaVuSans-6d" x="131.005859"/>
      <use xlink:href="#DejaVuSans-62" x="228.417969"/>
      <use xlink:href="#DejaVuSans-69" x="291.894531"/>
      <use xlink:href="#DejaVuSans-6e" x="319.677734"/>
      <use xlink:href="#DejaVuSans-65" x="383.056641"/>
      <use xlink:href="#DejaVuSans-64" x="444.580078"/>
     </g>
    </g>
    <g id="line2d_22">
     <path d="M 149.174375 135.948375 
L 157.974375 135.948375 
L 166.774375 135.948375 
" style="fill: none; stroke: #dd8452; stroke-width: 1.2; stroke-linecap: round"/>
    </g>
    <g id="text_18">
     <!-- Proximal Curriculum -->
     <g style="fill: #262626" transform="translate(173.814375 139.028375) scale(0.088 -0.088)">
      <defs>
       <path id="DejaVuSans-50" d="M 1259 4147 
L 1259 2394 
L 2053 2394 
Q 2494 2394 2734 2622 
Q 2975 2850 2975 3272 
Q 2975 3691 2734 3919 
Q 2494 4147 2053 4147 
L 1259 4147 
z
M 628 4666 
L 2053 4666 
Q 2838 4666 3239 4311 
Q 3641 3956 3641 3272 
Q 3641 2581 3239 2228 
Q 2838 1875 2053 1875 
L 1259 1875 
L 1259 0 
L 628 0 
L 628 4666 
z
" transform="scale(0.015625)"/>
       <path id="DejaVuSans-78" d="M 3513 3500 
L 2247 1797 
L 3578 0 
L 2900 0 
L 1881 1375 
L 863 0 
L 184 0 
L 1544 1831 
L 300 3500 
L 978 3500 
L 1906 2253 
L 2834 3500 
L 3513 3500 
z
" transform="scale(0.015625)"/>
       <path id="DejaVuSans-6c" d="M 603 4863 
L 1178 4863 
L 1178 0 
L 603 0 
L 603 4863 
z
" transform="scale(0.015625)"/>
       <path id="DejaVuSans-20" transform="scale(0.015625)"/>
       <path id="DejaVuSans-75" d="M 544 1381 
L 544 3500 
L 1119 3500 
L 1119 1403 
Q 1119 906 1312 657 
Q 1506 409 1894 409 
Q 2359 409 2629 706 
Q 2900 1003 2900 1516 
L 2900 3500 
L 3475 3500 
L 3475 0 
L 2900 0 
L 2900 538 
Q 2691 219 2414 64 
Q 2138 -91 1772 -91 
Q 1169 -91 856 284 
Q 544 659 544 1381 
z
M 1991 3584 
L 1991 3584 
z
" transform="scale(0.015625)"/>
      </defs>
      <use xlink:href="#DejaVuSans-50"/>
      <use xlink:href="#DejaVuSans-72" x="58.552734"/>
      <use xlink:href="#DejaVuSans-6f" x="97.416016"/>
      <use xlink:href="#DejaVuSans-78" x="155.472656"/>
      <use xlink:href="#DejaVuSans-69" x="214.652344"/>
      <use xlink:href="#DejaVuSans-6d" x="242.435547"/>
      <use xlink:href="#DejaVuSans-61" x="339.847656"/>
      <use xlink:href="#DejaVuSans-6c" x="401.126953"/>
      <use xlink:href="#DejaVuSans-20" x="428.910156"/>
      <use xlink:href="#DejaVuSans-43" x="460.697266"/>
      <use xlink:href="#DejaVuSans-75" x="530.521484"/>
      <use xlink:href="#DejaVuSans-72" x="593.900391"/>
      <use xlink:href="#DejaVuSans-72" x="633.263672"/>
      <use xlink:href="#DejaVuSans-69" x="674.376953"/>
      <use xlink:href="#DejaVuSans-63" x="702.160156"/>
      <use xlink:href="#DejaVuSans-75" x="757.140625"/>
      <use xlink:href="#DejaVuSans-6c" x="820.519531"/>
      <use xlink:href="#DejaVuSans-75" x="848.302734"/>
      <use xlink:href="#DejaVuSans-6d" x="911.681641"/>
     </g>
    </g>
    <g id="line2d_23">
     <path d="M 149.174375 148.865125 
L 157.974375 148.865125 
L 166.774375 148.865125 
" style="fill: none; stroke: #55a868; stroke-width: 1.2; stroke-linecap: round"/>
    </g>
    <g id="text_19">
     <!-- State Novelty (RND) -->
     <g style="fill: #262626" transform="translate(173.814375 151.945125) scale(0.088 -0.088)">
      <defs>
       <path id="DejaVuSans-4e" d="M 628 4666 
L 1478 4666 
L 3547 763 
L 3547 4666 
L 4159 4666 
L 4159 0 
L 3309 0 
L 1241 3903 
L 1241 0 
L 628 0 
L 628 4666 
z
" transform="scale(0.015625)"/>
       <path id="DejaVuSans-76" d="M 191 3500 
L 800 3500 
L 1894 563 
L 2988 3500 
L 3597 3500 
L 2284 0 
L 1503 0 
L 191 3500 
z
" transform="scale(0.015625)"/>
       <path id="DejaVuSans-79" d="M 2059 -325 
Q 1816 -950 1584 -1140 
Q 1353 -1331 966 -1331 
L 506 -1331 
L 506 -850 
L 844 -850 
Q 1081 -850 1212 -737 
Q 1344 -625 1503 -206 
L 1606 56 
L 191 3500 
L 800 3500 
L 1894 763 
L 2988 3500 
L 3597 3500 
L 2059 -325 
z
" transform="scale(0.015625)"/>
       <path id="DejaVuSans-28" d="M 1984 4856 
Q 1566 4138 1362 3434 
Q 1159 2731 1159 2009 
Q 1159 1288 1364 580 
Q 1569 -128 1984 -844 
L 1484 -844 
Q 1016 -109 783 600 
Q 550 1309 550 2009 
Q 550 2706 781 3412 
Q 1013 4119 1484 4856 
L 1984 4856 
z
" transform="scale(0.015625)"/>
       <path id="DejaVuSans-52" d="M 2841 2188 
Q 3044 2119 3236 1894 
Q 3428 1669 3622 1275 
L 4263 0 
L 3584 0 
L 2988 1197 
Q 2756 1666 2539 1819 
Q 2322 1972 1947 1972 
L 1259 1972 
L 1259 0 
L 628 0 
L 628 4666 
L 2053 4666 
Q 2853 4666 3247 4331 
Q 3641 3997 3641 3322 
Q 3641 2881 3436 2590 
Q 3231 2300 2841 2188 
z
M 1259 4147 
L 1259 2491 
L 2053 2491 
Q 2509 2491 2742 2702 
Q 2975 2913 2975 3322 
Q 2975 3731 2742 3939 
Q 2509 4147 2053 4147 
L 1259 4147 
z
" transform="scale(0.015625)"/>
       <path id="DejaVuSans-44" d="M 1259 4147 
L 1259 519 
L 2022 519 
Q 2988 519 3436 956 
Q 3884 1394 3884 2338 
Q 3884 3275 3436 3711 
Q 2988 4147 2022 4147 
L 1259 4147 
z
M 628 4666 
L 1925 4666 
Q 3281 4666 3915 4102 
Q 4550 3538 4550 2338 
Q 4550 1131 3912 565 
Q 3275 0 1925 0 
L 628 0 
L 628 4666 
z
" transform="scale(0.015625)"/>
       <path id="DejaVuSans-29" d="M 513 4856 
L 1013 4856 
Q 1481 4119 1714 3412 
Q 1947 2706 1947 2009 
Q 1947 1309 1714 600 
Q 1481 -109 1013 -844 
L 513 -844 
Q 928 -128 1133 580 
Q 1338 1288 1338 2009 
Q 1338 2731 1133 3434 
Q 928 4138 513 4856 
z
" transform="scale(0.015625)"/>
      </defs>
      <use xlink:href="#DejaVuSans-53"/>
      <use xlink:href="#DejaVuSans-74" x="63.476562"/>
      <use xlink:href="#DejaVuSans-61" x="102.685547"/>
      <use xlink:href="#DejaVuSans-74" x="163.964844"/>
      <use xlink:href="#DejaVuSans-65" x="203.173828"/>
      <use xlink:href="#DejaVuSans-20" x="264.697266"/>
      <use xlink:href="#DejaVuSans-4e" x="296.484375"/>
      <use xlink:href="#DejaVuSans-6f" x="371.289062"/>
      <use xlink:href="#DejaVuSans-76" x="432.470703"/>
      <use xlink:href="#DejaVuSans-65" x="491.650391"/>
      <use xlink:href="#DejaVuSans-6c" x="553.173828"/>
      <use xlink:href="#DejaVuSans-74" x="580.957031"/>
      <use xlink:href="#DejaVuSans-79" x="620.166016"/>
      <use xlink:href="#DejaVuSans-20" x="679.345703"/>
      <use xlink:href="#DejaVuSans-28" x="711.132812"/>
      <use xlink:href="#DejaVuSans-52" x="750.146484"/>
      <use xlink:href="#DejaVuSans-4e" x="819.628906"/>
      <use xlink:href="#DejaVuSans-44" x="894.433594"/>
      <use xlink:href="#DejaVuSans-29" x="971.435547"/>
     </g>
    </g>
    <g id="line2d_24">
     <path d="M 149.174375 161.781875 
L 157.974375 161.781875 
L 166.774375 161.781875 
" style="fill: none; stroke: #c44e52; stroke-width: 1.2; stroke-linecap: round"/>
    </g>
    <g id="text_20">
     <!-- Vanilla -->
     <g style="fill: #262626" transform="translate(173.814375 164.861875) scale(0.088 -0.088)">
      <defs>
       <path id="DejaVuSans-56" d="M 1831 0 
L 50 4666 
L 709 4666 
L 2188 738 
L 3669 4666 
L 4325 4666 
L 2547 0 
L 1831 0 
z
" transform="scale(0.015625)"/>
      </defs>
      <use xlink:href="#DejaVuSans-56"/>
      <use xlink:href="#DejaVuSans-61" x="60.658203"/>
      <use xlink:href="#DejaVuSans-6e" x="121.9375"/>
      <use xlink:href="#DejaVuSans-69" x="185.316406"/>
      <use xlink:href="#DejaVuSans-6c" x="213.099609"/>
      <use xlink:href="#DejaVuSans-6c" x="240.882812"/>
      <use xlink:href="#DejaVuSans-61" x="268.666016"/>
     </g>
    </g>
   </g>
  </g>
 </g>
 <defs>
  <clipPath id="p52219f15e3">
   <rect x="46.068" y="13.968" width="224.589" height="160.644"/>
  </clipPath>
 </defs>
</svg>
