<?xml version="1.0" encoding="utf-8" standalone="no"?>
<!DOCTYPE svg PUBLIC "-//W3C//DTD SVG 1.1//EN"
  "http://www.w3.org/Graphics/SVG/1.1/DTD/svg11.dtd">
<svg xmlns:xlink="http://www.w3.org/1999/xlink" width="288pt" height="180pt" viewBox="0 0 288 180" xmlns="http://www.w3.org/2000/svg" version="1.1">
 <metadata>
  <rdf:RDF xmlns:dc="http://purl.org/dc/elements/1.1/" xmlns:cc="http://creativecommons.org/ns#" xmlns:rdf="http://www.w3.org/1999/02/22-rdf-syntax-ns#">
   <cc:Work>
    <dc:type rdf:resource="http://purl.org/dc/dcmitype/StillImage"/>
    <dc:date>1980-01-01T00:00:00+00:00</dc:date>
    <dc:format>image/svg+xml</dc:format>
    <dc:creator>
     <cc:Agent>
      <dc:title>Matplotlib v3.9.2, https://matplotlib.org/</dc:title>
     </cc:Agent>
    </dc:creator>
   </cc:Work>
  </rdf:RDF>
 </metadata>
 <defs>
  <style type="text/css">*{stroke-linejoin: round; stroke-linecap: butt}</style>
 </defs>
 <g id="figure_1">
  <g id="patch_1">
   <path d="M 0 180 
L 288 180 
L 288 0 
L 0 0 
z
" style="fill: #ffffff"/>
  </g>
  <g id="axes_1">
   <g id="patch_2">
    <path d="M 90.03 89.041711 
L 249.722675 89.041711 
L 249.722675 25.92 
L 90.03 25.92 
z
" style="fill: #eaeaf2"/>
   </g>
   <g id="matplotlib.axis_1">
    <g id="xtick_1">
     <g id="line2d_1">
      <path d="M 90.03 89.041711 
L 90.03 25.92 
" clip-path="url(#pa25c36e6e3)" style="fill: none; stroke: #ffffff; stroke-width: 1.5; stroke-linecap: round"/>
     </g>
     <g id="text_1">
      <!-- 0.0 -->
      <g style="fill: #262626" transform="translate(83.972139 128.9616) rotate(-45) scale(0.165 -0.165)">
       <defs>
        <path id="DejaVuSans-30" d="M 2034 4250 
Q 1547 4250 1301 3770 
Q 1056 3291 1056 2328 
Q 1056 1369 1301 889 
Q 1547 409 2034 409 
Q 2525 409 2770 889 
Q 3016 1369 3016 2328 
Q 3016 3291 2770 3770 
Q 2525 4250 2034 4250 
z
M 2034 4750 
Q 2819 4750 3233 4129 
Q 3647 3509 3647 2328 
Q 3647 1150 3233 529 
Q 2819 -91 2034 -91 
Q 1250 -91 836 529 
Q 422 1150 422 2328 
Q 422 3509 836 4129 
Q 1250 4750 2034 4750 
z
" transform="scale(0.015625)"/>
        <path id="DejaVuSans-2e" d="M 684 794 
L 1344 794 
L 1344 0 
L 684 0 
L 684 794 
z
" transform="scale(0.015625)"/>
       </defs>
       <use xlink:href="#DejaVuSans-30"/>
       <use xlink:href="#DejaVuSans-2e" x="63.623047"/>
       <use xlink:href="#DejaVuSans-30" x="95.410156"/>
      </g>
     </g>
    </g>
    <g id="xtick_2">
     <g id="line2d_2">
      <path d="M 169.876338 89.041711 
L 169.876338 25.92 
" clip-path="url(#pa25c36e6e3)" style="fill: none; stroke: #ffffff; stroke-width: 1.5; stroke-linecap: round"/>
     </g>
     <g id="text_2">
      <!-- 0.5 -->
      <g style="fill: #262626" transform="translate(163.818477 128.9616) rotate(-45) scale(0.165 -0.165)">
       <defs>
        <path id="DejaVuSans-35" d="M 691 4666 
L 3169 4666 
L 3169 4134 
L 1269 4134 
L 1269 2991 
Q 1406 3038 1543 3061 
Q 1681 3084 1819 3084 
Q 2600 3084 3056 2656 
Q 3513 2228 3513 1497 
Q 3513 744 3044 326 
Q 2575 -91 1722 -91 
Q 1428 -91 1123 -41 
Q 819 9 494 109 
L 494 744 
Q 775 591 1075 516 
Q 1375 441 1709 441 
Q 2250 441 2565 725 
Q 2881 1009 2881 1497 
Q 2881 1984 2565 2268 
Q 2250 2553 1709 2553 
Q 1456 2553 1204 2497 
Q 953 2441 691 2322 
L 691 4666 
z
" transform="scale(0.015625)"/>
       </defs>
       <use xlink:href="#DejaVuSans-30"/>
       <use xlink:href="#DejaVuSans-2e" x="63.623047"/>
       <use xlink:href="#DejaVuSans-35" x="95.410156"/>
      </g>
     </g>
    </g>
    <g id="xtick_3">
     <g id="line2d_3">
      <path d="M 249.722675 89.041711 
L 249.722675 25.92 
" clip-path="url(#pa25c36e6e3)" style="fill: none; stroke: #ffffff; stroke-width: 1.5; stroke-linecap: round"/>
     </g>
     <g id="text_3">
      <!-- 1.0 -->
      <g style="fill: #262626" transform="translate(243.664814 128.9616) rotate(-45) scale(0.165 -0.165)">
       <defs>
        <path id="DejaVuSans-31" d="M 794 531 
L 1825 531 
L 1825 4091 
L 703 3866 
L 703 4441 
L 1819 4666 
L 2450 4666 
L 2450 531 
L 3481 531 
L 3481 0 
L 794 0 
L 794 531 
z
" transform="scale(0.015625)"/>
       </defs>
       <use xlink:href="#DejaVuSans-31"/>
       <use xlink:href="#DejaVuSans-2e" x="63.623047"/>
       <use xlink:href="#DejaVuSans-30" x="95.410156"/>
      </g>
     </g>
    </g>
    <g id="text_4">
     <!-- Timestep -->
     <g style="fill: #262626" transform="translate(128.387744 149.065213) scale(0.18 -0.18)">
      <defs>
       <path id="DejaVuSans-54" d="M -19 4666 
L 3928 4666 
L 3928 4134 
L 2272 4134 
L 2272 0 
L 1638 0 
L 1638 4134 
L -19 4134 
L -19 4666 
z
" transform="scale(0.015625)"/>
       <path id="DejaVuSans-69" d="M 603 3500 
L 1178 3500 
L 1178 0 
L 603 0 
L 603 3500 
z
M 603 4863 
L 1178 4863 
L 1178 4134 
L 603 4134 
L 603 4863 
z
" transform="scale(0.015625)"/>
       <path id="DejaVuSans-6d" d="M 3328 2828 
Q 3544 3216 3844 3400 
Q 4144 3584 4550 3584 
Q 5097 3584 5394 3201 
Q 5691 2819 5691 2113 
L 5691 0 
L 5113 0 
L 5113 2094 
Q 5113 2597 4934 2840 
Q 4756 3084 4391 3084 
Q 3944 3084 3684 2787 
Q 3425 2491 3425 1978 
L 3425 0 
L 2847 0 
L 2847 2094 
Q 2847 2600 2669 2842 
Q 2491 3084 2119 3084 
Q 1678 3084 1418 2786 
Q 1159 2488 1159 1978 
L 1159 0 
L 581 0 
L 581 3500 
L 1159 3500 
L 1159 2956 
Q 1356 3278 1631 3431 
Q 1906 3584 2284 3584 
Q 2666 3584 2933 3390 
Q 3200 3197 3328 2828 
z
" transform="scale(0.015625)"/>
       <path id="DejaVuSans-65" d="M 3597 1894 
L 3597 1613 
L 953 1613 
Q 991 1019 1311 708 
Q 1631 397 2203 397 
Q 2534 397 2845 478 
Q 3156 559 3463 722 
L 3463 178 
Q 3153 47 2828 -22 
Q 2503 -91 2169 -91 
Q 1331 -91 842 396 
Q 353 884 353 1716 
Q 353 2575 817 3079 
Q 1281 3584 2069 3584 
Q 2775 3584 3186 3129 
Q 3597 2675 3597 1894 
z
M 3022 2063 
Q 3016 2534 2758 2815 
Q 2500 3097 2075 3097 
Q 1594 3097 1305 2825 
Q 1016 2553 972 2059 
L 3022 2063 
z
" transform="scale(0.015625)"/>
       <path id="DejaVuSans-73" d="M 2834 3397 
L 2834 2853 
Q 2591 2978 2328 3040 
Q 2066 3103 1784 3103 
Q 1356 3103 1142 2972 
Q 928 2841 928 2578 
Q 928 2378 1081 2264 
Q 1234 2150 1697 2047 
L 1894 2003 
Q 2506 1872 2764 1633 
Q 3022 1394 3022 966 
Q 3022 478 2636 193 
Q 2250 -91 1575 -91 
Q 1294 -91 989 -36 
Q 684 19 347 128 
L 347 722 
Q 666 556 975 473 
Q 1284 391 1588 391 
Q 1994 391 2212 530 
Q 2431 669 2431 922 
Q 2431 1156 2273 1281 
Q 2116 1406 1581 1522 
L 1381 1569 
Q 847 1681 609 1914 
Q 372 2147 372 2553 
Q 372 3047 722 3315 
Q 1072 3584 1716 3584 
Q 2034 3584 2315 3537 
Q 2597 3491 2834 3397 
z
" transform="scale(0.015625)"/>
       <path id="DejaVuSans-74" d="M 1172 4494 
L 1172 3500 
L 2356 3500 
L 2356 3053 
L 1172 3053 
L 1172 1153 
Q 1172 725 1289 603 
Q 1406 481 1766 481 
L 2356 481 
L 2356 0 
L 1766 0 
Q 1100 0 847 248 
Q 594 497 594 1153 
L 594 3053 
L 172 3053 
L 172 3500 
L 594 3500 
L 594 4494 
L 1172 4494 
z
" transform="scale(0.015625)"/>
       <path id="DejaVuSans-70" d="M 1159 525 
L 1159 -1331 
L 581 -1331 
L 581 3500 
L 1159 3500 
L 1159 2969 
Q 1341 3281 1617 3432 
Q 1894 3584 2278 3584 
Q 2916 3584 3314 3078 
Q 3713 2572 3713 1747 
Q 3713 922 3314 415 
Q 2916 -91 2278 -91 
Q 1894 -91 1617 61 
Q 1341 213 1159 525 
z
M 3116 1747 
Q 3116 2381 2855 2742 
Q 2594 3103 2138 3103 
Q 1681 3103 1420 2742 
Q 1159 2381 1159 1747 
Q 1159 1113 1420 752 
Q 1681 391 2138 391 
Q 2594 391 2855 752 
Q 3116 1113 3116 1747 
z
" transform="scale(0.015625)"/>
      </defs>
      <use xlink:href="#DejaVuSans-54"/>
      <use xlink:href="#DejaVuSans-69" x="57.958984"/>
      <use xlink:href="#DejaVuSans-6d" x="85.742188"/>
      <use xlink:href="#DejaVuSans-65" x="183.154297"/>
      <use xlink:href="#DejaVuSans-73" x="244.677734"/>
      <use xlink:href="#DejaVuSans-74" x="296.777344"/>
      <use xlink:href="#DejaVuSans-65" x="335.986328"/>
      <use xlink:href="#DejaVuSans-70" x="397.509766"/>
     </g>
    </g>
    <g id="text_5">
     <!-- 1e6 -->
     <g style="fill: #262626" transform="translate(218.573769 146.925447) scale(0.165 -0.165)">
      <defs>
       <path id="DejaVuSans-36" d="M 2113 2584 
Q 1688 2584 1439 2293 
Q 1191 2003 1191 1497 
Q 1191 994 1439 701 
Q 1688 409 2113 409 
Q 2538 409 2786 701 
Q 3034 994 3034 1497 
Q 3034 2003 2786 2293 
Q 2538 2584 2113 2584 
z
M 3366 4563 
L 3366 3988 
Q 3128 4100 2886 4159 
Q 2644 4219 2406 4219 
Q 1781 4219 1451 3797 
Q 1122 3375 1075 2522 
Q 1259 2794 1537 2939 
Q 1816 3084 2150 3084 
Q 2853 3084 3261 2657 
Q 3669 2231 3669 1497 
Q 3669 778 3244 343 
Q 2819 -91 2113 -91 
Q 1303 -91 875 529 
Q 447 1150 447 2328 
Q 447 3434 972 4092 
Q 1497 4750 2381 4750 
Q 2619 4750 2861 4703 
Q 3103 4656 3366 4563 
z
" transform="scale(0.015625)"/>
      </defs>
      <use xlink:href="#DejaVuSans-31"/>
      <use xlink:href="#DejaVuSans-65" x="63.623047"/>
      <use xlink:href="#DejaVuSans-36" x="125.146484"/>
     </g>
    </g>
   </g>
   <g id="matplotlib.axis_2">
    <g id="ytick_1">
     <g id="line2d_4">
      <path d="M 90.03 89.041711 
L 249.722675 89.041711 
" clip-path="url(#pa25c36e6e3)" style="fill: none; stroke: #ffffff; stroke-width: 1.5; stroke-linecap: round"/>
     </g>
     <g id="text_6">
      <!-- 0 -->
      <g style="fill: #262626" transform="translate(67.031875 95.310422) scale(0.165 -0.165)">
       <use xlink:href="#DejaVuSans-30"/>
      </g>
     </g>
    </g>
    <g id="ytick_2">
     <g id="line2d_5">
      <path d="M 90.03 25.92 
L 249.722675 25.92 
" clip-path="url(#pa25c36e6e3)" style="fill: none; stroke: #ffffff; stroke-width: 1.5; stroke-linecap: round"/>
     </g>
     <g id="text_7">
      <!-- 1 -->
      <g style="fill: #262626" transform="translate(67.031875 32.188711) scale(0.165 -0.165)">
       <use xlink:href="#DejaVuSans-31"/>
      </g>
     </g>
    </g>
    <g id="text_8">
     <!-- Score -->
     <g style="fill: #262626" transform="translate(59.288438 82.685074) rotate(-90) scale(0.18 -0.18)">
      <defs>
       <path id="DejaVuSans-53" d="M 3425 4513 
L 3425 3897 
Q 3066 4069 2747 4153 
Q 2428 4238 2131 4238 
Q 1616 4238 1336 4038 
Q 1056 3838 1056 3469 
Q 1056 3159 1242 3001 
Q 1428 2844 1947 2747 
L 2328 2669 
Q 3034 2534 3370 2195 
Q 3706 1856 3706 1288 
Q 3706 609 3251 259 
Q 2797 -91 1919 -91 
Q 1588 -91 1214 -16 
Q 841 59 441 206 
L 441 856 
Q 825 641 1194 531 
Q 1563 422 1919 422 
Q 2459 422 2753 634 
Q 3047 847 3047 1241 
Q 3047 1584 2836 1778 
Q 2625 1972 2144 2069 
L 1759 2144 
Q 1053 2284 737 2584 
Q 422 2884 422 3419 
Q 422 4038 858 4394 
Q 1294 4750 2059 4750 
Q 2388 4750 2728 4690 
Q 3069 4631 3425 4513 
z
" transform="scale(0.015625)"/>
       <path id="DejaVuSans-63" d="M 3122 3366 
L 3122 2828 
Q 2878 2963 2633 3030 
Q 2388 3097 2138 3097 
Q 1578 3097 1268 2742 
Q 959 2388 959 1747 
Q 959 1106 1268 751 
Q 1578 397 2138 397 
Q 2388 397 2633 464 
Q 2878 531 3122 666 
L 3122 134 
Q 2881 22 2623 -34 
Q 2366 -91 2075 -91 
Q 1284 -91 818 406 
Q 353 903 353 1747 
Q 353 2603 823 3093 
Q 1294 3584 2113 3584 
Q 2378 3584 2631 3529 
Q 2884 3475 3122 3366 
z
" transform="scale(0.015625)"/>
       <path id="DejaVuSans-6f" d="M 1959 3097 
Q 1497 3097 1228 2736 
Q 959 2375 959 1747 
Q 959 1119 1226 758 
Q 1494 397 1959 397 
Q 2419 397 2687 759 
Q 2956 1122 2956 1747 
Q 2956 2369 2687 2733 
Q 2419 3097 1959 3097 
z
M 1959 3584 
Q 2709 3584 3137 3096 
Q 3566 2609 3566 1747 
Q 3566 888 3137 398 
Q 2709 -91 1959 -91 
Q 1206 -91 779 398 
Q 353 888 353 1747 
Q 353 2609 779 3096 
Q 1206 3584 1959 3584 
z
" transform="scale(0.015625)"/>
       <path id="DejaVuSans-72" d="M 2631 2963 
Q 2534 3019 2420 3045 
Q 2306 3072 2169 3072 
Q 1681 3072 1420 2755 
Q 1159 2438 1159 1844 
L 1159 0 
L 581 0 
L 581 3500 
L 1159 3500 
L 1159 2956 
Q 1341 3275 1631 3429 
Q 1922 3584 2338 3584 
Q 2397 3584 2469 3576 
Q 2541 3569 2628 3553 
L 2631 2963 
z
" transform="scale(0.015625)"/>
      </defs>
      <use xlink:href="#DejaVuSans-53"/>
      <use xlink:href="#DejaVuSans-63" x="63.476562"/>
      <use xlink:href="#DejaVuSans-6f" x="118.457031"/>
      <use xlink:href="#DejaVuSans-72" x="179.638672"/>
      <use xlink:href="#DejaVuSans-65" x="218.501953"/>
     </g>
    </g>
   </g>
   <g id="PolyCollection_1">
    <defs>
     <path id="m003a239a83" d="M 91.626927 -90.958289 
L 91.626927 -90.958289 
L 93.223854 -90.958289 
L 94.82078 -90.958289 
L 96.417707 -90.958289 
L 98.014634 -90.958289 
L 99.611561 -90.958289 
L 101.208487 -92.200998 
L 102.805414 -90.958289 
L 104.402341 -94.560172 
L 105.999268 -98.240463 
L 107.596194 -98.308023 
L 109.193121 -97.029808 
L 110.790048 -104.390589 
L 112.386975 -106.657743 
L 113.983901 -106.910526 
L 115.580828 -109.239914 
L 117.177755 -111.65432 
L 118.774682 -120.081068 
L 120.371608 -121.300106 
L 121.968535 -121.44213 
L 123.565462 -125.336345 
L 125.162389 -132.3109 
L 126.759315 -132.320467 
L 128.356242 -128.854986 
L 129.953169 -119.169749 
L 131.550096 -124.002505 
L 133.147022 -120.31383 
L 134.743949 -138.59151 
L 136.340876 -140.969916 
L 137.937803 -144.4855 
L 139.534729 -141.092708 
L 141.131656 -133.715358 
L 142.728583 -141.151885 
L 144.32551 -137.254119 
L 145.922436 -137.364582 
L 147.519363 -137.407978 
L 149.11629 -144.769548 
L 150.713217 -144.734042 
L 152.310143 -137.313295 
L 153.90707 -129.951726 
L 155.503997 -144.6867 
L 157.100924 -148.449445 
L 158.69785 -144.6867 
L 160.294777 -137.372472 
L 161.891704 -144.734042 
L 163.488631 -140.927013 
L 165.085557 -144.66303 
L 166.682484 -130.022245 
L 168.279411 -137.218613 
L 169.876338 -141.044972 
L 171.473264 -140.993587 
L 173.070191 -140.946739 
L 174.667118 -148.347365 
L 176.264045 -140.958574 
L 177.860971 -144.761263 
L 179.457898 -144.65514 
L 181.054825 -148.426662 
L 182.651752 -148.17812 
L 184.248678 -144.6867 
L 185.845605 -144.721319 
L 187.442532 -144.678416 
L 189.039459 -141.136104 
L 190.636385 -141.009861 
L 192.233312 -148.489783 
L 193.830239 -137.348801 
L 195.427166 -144.781383 
L 197.024092 -141.069037 
L 198.621019 -141.021302 
L 200.217946 -144.654745 
L 201.814873 -144.832669 
L 203.411799 -129.979342 
L 205.008726 -144.674865 
L 206.605653 -137.305011 
L 208.20258 -141.053257 
L 209.799507 -137.27779 
L 211.396433 -151.748442 
L 211.396433 -152.107447 
L 211.396433 -152.107447 
L 209.799507 -152.06405 
L 208.20258 -152.06405 
L 206.605653 -152.06405 
L 205.008726 -152.06405 
L 203.411799 -152.06405 
L 201.814873 -152.06405 
L 200.217946 -152.06405 
L 198.621019 -152.06405 
L 197.024092 -152.06405 
L 195.427166 -152.06405 
L 193.830239 -152.06405 
L 192.233312 -152.06405 
L 190.636385 -152.06405 
L 189.039459 -152.06405 
L 187.442532 -152.06405 
L 185.845605 -152.06405 
L 184.248678 -152.06405 
L 182.651752 -152.04827 
L 181.054825 -152.06405 
L 179.457898 -152.06405 
L 177.860971 -152.06405 
L 176.264045 -152.06405 
L 174.667118 -152.06405 
L 173.070191 -152.06405 
L 171.473264 -152.06405 
L 169.876338 -152.06405 
L 168.279411 -152.04827 
L 166.682484 -152.083776 
L 165.085557 -152.06405 
L 163.488631 -152.06405 
L 161.891704 -152.06405 
L 160.294777 -152.06405 
L 158.69785 -152.06405 
L 157.100924 -152.06405 
L 155.503997 -152.06405 
L 153.90707 -152.06405 
L 152.310143 -152.06405 
L 150.713217 -152.06405 
L 149.11629 -152.06405 
L 147.519363 -152.06405 
L 145.922436 -152.06405 
L 144.32551 -152.06405 
L 142.728583 -152.06405 
L 141.131656 -152.06405 
L 139.534729 -152.06405 
L 137.937803 -152.04827 
L 136.340876 -152.06405 
L 134.743949 -151.922027 
L 133.147022 -151.941752 
L 131.550096 -148.071602 
L 129.953169 -144.592018 
L 128.356242 -145.830781 
L 126.759315 -147.199733 
L 125.162389 -147.140557 
L 123.565462 -145.724263 
L 121.968535 -144.65514 
L 120.371608 -131.241776 
L 118.774682 -144.505225 
L 117.177755 -137.171272 
L 115.580828 -133.636456 
L 113.983901 -144.791048 
L 112.386975 -132.283284 
L 110.790048 -132.291963 
L 109.193121 -128.417079 
L 107.596194 -133.770589 
L 105.999268 -133.305067 
L 104.402341 -101.937522 
L 102.805414 -109.161012 
L 101.208487 -99.531006 
L 99.611561 -98.272517 
L 98.014634 -90.958289 
L 96.417707 -90.958289 
L 94.82078 -90.958289 
L 93.223854 -90.958289 
L 91.626927 -90.958289 
z
" style="stroke: #4c72b0; stroke-opacity: 0.2; stroke-width: 1.5"/>
    </defs>
    <g clip-path="url(#pa25c36e6e3)">
     <use xlink:href="#m003a239a83" x="0" y="180" style="fill: #4c72b0; fill-opacity: 0.2; stroke: #4c72b0; stroke-opacity: 0.2; stroke-width: 1.5"/>
    </g>
   </g>
   <g id="PolyCollection_2">
    <defs>
     <path id="m43a5a29471" d="M 91.626927 -90.958289 
L 91.626927 -90.958289 
L 93.223854 -90.958289 
L 94.82078 -90.958289 
L 96.417707 -90.958289 
L 98.014634 -90.958289 
L 99.611561 -90.958289 
L 101.208487 -90.958289 
L 102.805414 -92.149711 
L 104.402341 -93.435816 
L 105.999268 -97.073205 
L 107.596194 -101.937522 
L 109.193121 -105.535065 
L 110.790048 -108.028767 
L 112.386975 -116.364778 
L 113.983901 -117.702169 
L 115.580828 -130.997179 
L 117.177755 -128.748468 
L 118.774682 -129.868879 
L 120.371608 -132.445034 
L 121.968535 -133.723248 
L 123.565462 -138.59151 
L 125.162389 -134.910725 
L 126.759315 -138.640725 
L 128.356242 -146.813113 
L 129.953169 -139.999913 
L 131.550096 -138.59368 
L 133.147022 -137.336966 
L 134.743949 -138.694083 
L 136.340876 -144.808999 
L 137.937803 -141.029586 
L 139.534729 -137.557892 
L 141.131656 -137.514496 
L 142.728583 -137.585508 
L 144.32551 -133.857382 
L 145.922436 -151.961478 
L 145.922436 -152.324427 
L 145.922436 -152.324427 
L 144.32551 -152.324427 
L 142.728583 -152.320581 
L 141.131656 -152.304702 
L 139.534729 -152.284976 
L 137.937803 -152.284976 
L 136.340876 -152.284976 
L 134.743949 -152.202129 
L 133.147022 -152.24158 
L 131.550096 -152.24158 
L 129.953169 -152.24158 
L 128.356242 -152.24158 
L 126.759315 -152.24158 
L 125.162389 -149.874516 
L 123.565462 -151.118112 
L 121.968535 -151.027474 
L 120.371608 -149.795614 
L 118.774682 -151.130046 
L 117.177755 -148.592356 
L 115.580828 -146.177951 
L 113.983901 -138.394255 
L 112.386975 -140.907288 
L 110.790048 -125.18219 
L 109.193121 -123.8447 
L 107.596194 -113.063709 
L 105.999268 -115.477622 
L 104.402341 -119.126352 
L 102.805414 -99.531006 
L 101.208487 -100.77766 
L 99.611561 -94.615403 
L 98.014634 -90.958289 
L 96.417707 -90.958289 
L 94.82078 -90.958289 
L 93.223854 -90.958289 
L 91.626927 -90.958289 
z
" style="stroke: #dd8452; stroke-opacity: 0.2; stroke-width: 1.5"/>
    </defs>
    <g clip-path="url(#pa25c36e6e3)">
     <use xlink:href="#m43a5a29471" x="0" y="180" style="fill: #dd8452; fill-opacity: 0.2; stroke: #dd8452; stroke-opacity: 0.2; stroke-width: 1.5"/>
    </g>
   </g>
   <g id="PolyCollection_3">
    <defs>
     <path id="m5d3694b10e" d="M 91.626927 -90.958289 
L 91.626927 -90.958289 
L 93.223854 -90.958289 
L 94.82078 -90.958289 
L 96.417707 -90.958289 
L 98.014634 -90.958289 
L 99.611561 -90.958289 
L 101.208487 -90.958289 
L 102.805414 -94.591732 
L 104.402341 -93.39242 
L 105.999268 -100.730319 
L 107.596194 -104.474225 
L 109.193121 -110.510239 
L 110.790048 -105.762007 
L 112.386975 -115.33116 
L 113.983901 -120.286214 
L 115.580828 -116.747453 
L 117.177755 -121.45002 
L 118.774682 -127.795232 
L 120.371608 -126.444526 
L 121.968535 -121.682782 
L 123.565462 -114.182936 
L 125.162389 -127.837149 
L 126.759315 -119.035615 
L 128.356242 -119.098737 
L 129.953169 -114.258091 
L 131.550096 -119.03167 
L 133.147022 -122.846588 
L 134.743949 -121.580209 
L 136.340876 -114.202859 
L 137.937803 -131.489331 
L 139.534729 -127.635948 
L 141.131656 -117.958206 
L 142.728583 -135.028881 
L 144.32551 -109.374048 
L 145.922436 -131.427196 
L 147.519363 -124.010198 
L 149.11629 -122.807137 
L 150.713217 -120.156025 
L 152.310143 -132.472649 
L 153.90707 -132.567332 
L 155.503997 -121.643331 
L 157.100924 -127.596497 
L 158.69785 -123.935438 
L 160.294777 -114.175243 
L 161.891704 -135.233632 
L 163.488631 -121.623605 
L 165.085557 -134.875219 
L 166.682484 -124.049846 
L 168.279411 -125.186037 
L 169.876338 -122.751906 
L 171.473264 -115.520525 
L 173.070191 -123.785524 
L 174.667118 -133.79426 
L 176.264045 -137.439342 
L 177.860971 -141.084818 
L 179.457898 -122.834753 
L 181.054825 -119.134243 
L 182.651752 -140.990135 
L 184.248678 -126.542956 
L 185.845605 -137.443484 
L 187.442532 -140.923068 
L 189.039459 -141.132159 
L 190.636385 -122.779522 
L 192.233312 -130.208158 
L 193.830239 -119.165804 
L 195.427166 -115.417952 
L 197.024092 -115.425645 
L 198.621019 -133.829766 
L 200.217946 -137.502661 
L 201.814873 -148.249132 
L 203.411799 -148.331979 
L 205.008726 -141.029586 
L 206.605653 -133.758754 
L 208.20258 -133.774535 
L 209.799507 -137.526331 
L 211.396433 -119.130298 
L 212.99336 -122.751709 
L 214.590287 -133.798205 
L 216.187214 -115.417952 
L 217.78414 -152.024599 
L 217.78414 -152.202129 
L 217.78414 -152.202129 
L 216.187214 -152.194239 
L 214.590287 -152.190294 
L 212.99336 -152.202129 
L 211.396433 -152.202129 
L 209.799507 -152.190294 
L 208.20258 -152.202129 
L 206.605653 -152.190294 
L 205.008726 -152.190294 
L 203.411799 -152.190392 
L 201.814873 -152.190294 
L 200.217946 -152.202129 
L 198.621019 -152.194239 
L 197.024092 -152.194436 
L 195.427166 -152.190392 
L 193.830239 -152.190294 
L 192.233312 -152.190392 
L 190.636385 -152.194239 
L 189.039459 -152.202129 
L 187.442532 -152.202129 
L 185.845605 -152.202129 
L 184.248678 -152.202129 
L 182.651752 -152.190392 
L 181.054825 -152.194239 
L 179.457898 -152.202129 
L 177.860971 -152.190294 
L 176.264045 -152.194436 
L 174.667118 -152.210019 
L 173.070191 -152.150843 
L 171.473264 -152.150843 
L 169.876338 -152.150843 
L 168.279411 -152.14315 
L 166.682484 -152.150843 
L 165.085557 -152.14315 
L 163.488631 -152.150843 
L 161.891704 -152.150843 
L 160.294777 -152.150843 
L 158.69785 -152.150843 
L 157.100924 -152.142952 
L 155.503997 -152.15104 
L 153.90707 -152.142952 
L 152.310143 -152.142952 
L 150.713217 -152.150843 
L 149.11629 -152.150843 
L 147.519363 -152.150843 
L 145.922436 -152.150843 
L 144.32551 -152.150843 
L 142.728583 -152.150843 
L 141.131656 -152.150843 
L 139.534729 -152.150843 
L 137.937803 -152.150843 
L 136.340876 -152.150843 
L 134.743949 -152.150843 
L 133.147022 -152.150843 
L 131.550096 -152.150843 
L 129.953169 -152.142952 
L 128.356242 -152.150843 
L 126.759315 -152.142952 
L 125.162389 -152.150843 
L 123.565462 -152.150843 
L 121.968535 -152.150843 
L 120.371608 -148.466113 
L 118.774682 -149.614139 
L 117.177755 -143.676753 
L 115.580828 -141.120324 
L 113.983901 -142.374868 
L 112.386975 -143.499223 
L 110.790048 -147.282581 
L 109.193121 -139.755317 
L 107.596194 -136.165269 
L 105.999268 -122.744016 
L 104.402341 -109.366158 
L 102.805414 -114.167353 
L 101.208487 -112.782621 
L 99.611561 -103.117109 
L 98.014634 -94.686415 
L 96.417707 -90.958289 
L 94.82078 -90.958289 
L 93.223854 -90.958289 
L 91.626927 -90.958289 
z
" style="stroke: #55a868; stroke-opacity: 0.2; stroke-width: 1.5"/>
    </defs>
    <g clip-path="url(#pa25c36e6e3)">
     <use xlink:href="#m5d3694b10e" x="0" y="180" style="fill: #55a868; fill-opacity: 0.2; stroke: #55a868; stroke-opacity: 0.2; stroke-width: 1.5"/>
    </g>
   </g>
   <g id="PolyCollection_4">
    <defs>
     <path id="m98f1e7e9c0" d="M 91.626927 -90.958289 
L 91.626927 -90.958289 
L 93.223854 -90.958289 
L 94.82078 -90.958289 
L 96.417707 -90.958289 
L 98.014634 -90.958289 
L 99.611561 -90.958289 
L 101.208487 -90.958289 
L 102.805414 -90.958289 
L 104.402341 -90.958289 
L 105.999268 -92.197052 
L 107.596194 -90.958289 
L 109.193121 -97.088985 
L 110.790048 -100.77766 
L 112.386975 -111.83974 
L 113.983901 -110.526019 
L 115.580828 -122.818973 
L 117.177755 -120.242719 
L 118.774682 -120.226643 
L 120.371608 -122.787412 
L 121.968535 -120.317775 
L 123.565462 -128.605853 
L 125.162389 -126.22212 
L 126.759315 -122.637498 
L 128.356242 -126.180204 
L 129.953169 -131.379855 
L 131.550096 -116.601484 
L 133.147022 -123.805249 
L 134.743949 -119.122407 
L 136.340876 -125.189982 
L 137.937803 -130.058244 
L 139.534729 -137.175217 
L 141.131656 -130.204213 
L 142.728583 -134.788427 
L 144.32551 -126.297176 
L 145.922436 -126.420855 
L 147.519363 -124.002505 
L 149.11629 -126.468197 
L 150.713217 -121.556538 
L 152.310143 -125.260994 
L 153.90707 -113.102174 
L 155.503997 -132.587057 
L 157.100924 -110.620702 
L 158.69785 -132.480539 
L 160.294777 -124.001814 
L 161.891704 -130.208158 
L 163.488631 -138.729589 
L 165.085557 -128.898382 
L 166.682484 -126.574714 
L 168.279411 -137.379968 
L 169.876338 -134.871274 
L 171.473264 -140.879672 
L 173.070191 -144.572292 
L 174.667118 -141.045367 
L 176.264045 -137.29357 
L 177.860971 -144.607305 
L 179.457898 -140.923068 
L 181.054825 -137.364582 
L 182.651752 -137.372472 
L 184.248678 -122.633553 
L 185.845605 -141.17881 
L 187.442532 -144.674865 
L 189.039459 -133.715358 
L 190.636385 -140.923068 
L 192.233312 -140.98619 
L 193.830239 -144.639359 
L 195.427166 -141.033531 
L 197.024092 -144.489445 
L 198.621019 -140.895453 
L 200.217946 -137.265954 
L 201.814873 -133.679852 
L 203.411799 -144.65514 
L 205.008726 -144.722206 
L 206.605653 -148.324089 
L 208.20258 -144.66303 
L 209.799507 -148.395101 
L 211.396433 -137.368527 
L 212.99336 -130.074024 
L 214.590287 -137.376417 
L 216.187214 -137.360637 
L 217.78414 -130.026683 
L 219.381067 -133.612785 
L 220.977994 -137.250174 
L 222.574921 -137.376417 
L 224.171847 -144.674865 
L 225.768774 -141.009861 
L 227.365701 -140.973862 
L 228.962628 -140.958574 
L 230.559554 -137.411923 
L 232.156481 -133.750864 
L 233.753408 -141.159775 
L 235.350335 -137.368527 
L 236.947261 -137.305405 
L 238.544188 -141.080873 
L 240.141115 -141.07673 
L 241.738042 -137.459264 
L 243.334968 -137.392198 
L 244.931895 -129.90044 
L 246.528822 -137.411923 
L 248.125749 -141.207116 
L 249.722675 -137.27779 
L 249.722675 -151.937807 
L 249.722675 -151.937807 
L 248.125749 -151.95773 
L 246.528822 -151.957532 
L 244.931895 -151.9383 
L 243.334968 -151.937807 
L 241.738042 -151.957532 
L 240.141115 -151.965423 
L 238.544188 -151.930114 
L 236.947261 -151.937807 
L 235.350335 -151.937807 
L 233.753408 -151.937807 
L 232.156481 -151.937807 
L 230.559554 -151.957532 
L 228.962628 -151.937807 
L 227.365701 -151.957532 
L 225.768774 -151.937807 
L 224.171847 -151.965423 
L 222.574921 -151.965423 
L 220.977994 -151.957532 
L 219.381067 -151.937807 
L 217.78414 -151.957532 
L 216.187214 -151.937807 
L 214.590287 -151.957532 
L 212.99336 -151.937807 
L 211.396433 -151.957532 
L 209.799507 -151.957532 
L 208.20258 -151.937807 
L 206.605653 -151.937807 
L 205.008726 -151.957532 
L 203.411799 -151.937807 
L 201.814873 -151.937807 
L 200.217946 -151.937807 
L 198.621019 -151.957532 
L 197.024092 -151.957532 
L 195.427166 -151.9383 
L 193.830239 -151.9383 
L 192.233312 -151.937807 
L 190.636385 -151.9383 
L 189.039459 -151.930114 
L 187.442532 -151.957532 
L 185.845605 -151.957532 
L 184.248678 -151.937807 
L 182.651752 -151.937807 
L 181.054825 -151.957532 
L 179.457898 -151.937807 
L 177.860971 -151.95773 
L 176.264045 -151.937807 
L 174.667118 -151.937807 
L 173.070191 -151.957532 
L 171.473264 -151.930114 
L 169.876338 -151.929917 
L 168.279411 -151.929917 
L 166.682484 -151.929917 
L 165.085557 -151.929917 
L 163.488631 -151.929917 
L 161.891704 -151.929917 
L 160.294777 -151.929917 
L 158.69785 -149.46817 
L 157.100924 -144.540731 
L 155.503997 -147.102388 
L 153.90707 -142.236394 
L 152.310143 -143.313803 
L 150.713217 -147.030094 
L 149.11629 -144.572292 
L 147.519363 -144.50128 
L 145.922436 -144.600697 
L 144.32551 -143.294078 
L 142.728583 -142.264405 
L 141.131656 -142.335417 
L 139.534729 -143.26873 
L 137.937803 -139.936792 
L 136.340876 -141.222896 
L 134.743949 -132.677795 
L 133.147022 -141.057202 
L 131.550096 -135.123761 
L 129.953169 -141.15583 
L 128.356242 -139.664579 
L 126.759315 -134.985682 
L 125.162389 -140.946739 
L 123.565462 -139.711921 
L 121.968535 -138.828217 
L 120.371608 -142.347252 
L 118.774682 -133.675907 
L 117.177755 -131.225995 
L 115.580828 -134.891 
L 113.983901 -115.445568 
L 112.386975 -129.008845 
L 110.790048 -117.938875 
L 109.193121 -110.553635 
L 107.596194 -116.785523 
L 105.999268 -104.442664 
L 104.402341 -95.917288 
L 102.805414 -94.650909 
L 101.208487 -90.958289 
L 99.611561 -90.958289 
L 98.014634 -90.958289 
L 96.417707 -90.958289 
L 94.82078 -90.958289 
L 93.223854 -90.958289 
L 91.626927 -90.958289 
z
" style="stroke: #c44e52; stroke-opacity: 0.2; stroke-width: 1.5"/>
    </defs>
    <g clip-path="url(#pa25c36e6e3)">
     <use xlink:href="#m98f1e7e9c0" x="0" y="180" style="fill: #c44e52; fill-opacity: 0.2; stroke: #c44e52; stroke-opacity: 0.2; stroke-width: 1.5"/>
    </g>
   </g>
   <g id="line2d_6">
    <path d="M 91.626927 89.041711 
L 93.223854 89.041711 
L 94.82078 89.041711 
L 96.417707 89.041711 
L 98.014634 89.041711 
L 99.611561 86.603635 
L 101.208487 84.133998 
L 102.805414 81.743263 
L 104.402341 81.747208 
L 105.999268 66.010177 
L 107.596194 64.538652 
L 109.193121 67.276556 
L 110.790048 59.776908 
L 112.386975 57.472965 
L 113.983901 52.360107 
L 115.580828 58.561815 
L 117.177755 52.565252 
L 118.774682 46.387215 
L 120.371608 53.736949 
L 121.968535 47.554966 
L 123.565462 44.035931 
L 125.162389 40.276244 
L 126.759315 40.236793 
L 128.356242 42.659089 
L 129.953169 47.531296 
L 131.550096 43.968864 
L 133.147022 42.670924 
L 134.743949 34.177109 
L 136.340876 31.727197 
L 137.937803 30.543665 
L 139.534729 31.691691 
L 141.131656 34.133713 
L 142.728583 31.671966 
L 144.32551 32.954126 
L 145.922436 32.922565 
L 147.519363 32.914675 
L 149.11629 30.460818 
L 150.713217 30.460818 
L 152.310143 32.9344 
L 153.90707 35.388257 
L 155.503997 30.488434 
L 157.100924 29.222055 
L 158.69785 30.488434 
L 160.294777 32.914675 
L 161.891704 30.472653 
L 163.488631 31.746923 
L 165.085557 30.496324 
L 166.682484 35.376421 
L 168.279411 32.954126 
L 169.876338 31.695637 
L 171.473264 31.719307 
L 173.070191 31.735088 
L 174.667118 29.261506 
L 176.264045 31.719307 
L 177.860971 30.468708 
L 179.457898 30.492379 
L 181.054825 29.229945 
L 182.651752 29.312792 
L 184.248678 30.464763 
L 185.845605 30.464763 
L 187.442532 30.484489 
L 189.039459 31.671966 
L 190.636385 31.707472 
L 192.233312 29.214164 
L 193.830239 32.9344 
L 195.427166 30.456873 
L 197.024092 31.687746 
L 198.621019 31.703527 
L 200.217946 30.492379 
L 201.814873 30.433202 
L 203.411799 35.384312 
L 205.008726 30.480544 
L 206.605653 32.94229 
L 208.20258 31.687746 
L 209.799507 32.9344 
L 211.396433 28.054303 
" clip-path="url(#pa25c36e6e3)" style="fill: none; stroke: #4c72b0; stroke-width: 2.25; stroke-linecap: round"/>
   </g>
   <g id="line2d_7">
    <path d="M 91.626927 89.041711 
L 93.223854 89.041711 
L 94.82078 89.041711 
L 96.417707 89.041711 
L 98.014634 89.041711 
L 99.611561 87.822673 
L 101.208487 84.153724 
L 102.805414 84.193175 
L 104.402341 76.764538 
L 105.999268 73.138985 
L 107.596194 71.892331 
L 109.193121 67.095081 
L 110.790048 63.394571 
L 112.386975 50.135066 
L 113.983901 52.533691 
L 115.580828 42.603857 
L 117.177755 41.309862 
L 118.774682 38.883621 
L 120.371608 38.859951 
L 121.968535 37.585681 
L 123.565462 33.916732 
L 125.162389 37.589626 
L 126.759315 33.975908 
L 128.356242 30.468708 
L 129.953169 32.745035 
L 131.550096 34.015359 
L 133.147022 35.210727 
L 134.743949 33.971963 
L 136.340876 30.283288 
L 137.937803 31.541777 
L 139.534729 32.685858 
L 141.131656 32.713474 
L 142.728583 32.697694 
L 144.32551 33.932512 
L 145.922436 27.853102 
" clip-path="url(#pa25c36e6e3)" style="fill: none; stroke: #dd8452; stroke-width: 2.25; stroke-linecap: round"/>
   </g>
   <g id="line2d_8">
    <path d="M 91.626927 89.041711 
L 93.223854 89.041711 
L 94.82078 89.041711 
L 96.417707 89.041711 
L 98.014634 87.799002 
L 99.611561 84.173449 
L 101.208487 81.766934 
L 102.805414 75.620457 
L 104.402341 78.019082 
L 105.999268 68.262833 
L 107.596194 62.171588 
L 109.193121 56.080343 
L 110.790048 51.054276 
L 112.386975 51.18052 
L 113.983901 48.651706 
L 115.580828 52.277259 
L 117.177755 47.408998 
L 118.774682 41.41638 
L 120.371608 42.540736 
L 121.968535 41.258576 
L 123.565462 46.21363 
L 125.162389 37.593571 
L 126.759315 42.53679 
L 128.356242 43.728213 
L 129.953169 43.743993 
L 131.550096 43.81895 
L 133.147022 42.501284 
L 134.743949 41.286192 
L 136.340876 46.217575 
L 137.937803 37.597517 
L 139.534729 37.668528 
L 141.131656 42.52101 
L 142.728583 35.202837 
L 144.32551 48.62409 
L 145.922436 37.621187 
L 147.519363 41.301972 
L 149.11629 42.52101 
L 150.713217 42.592022 
L 152.310143 37.660638 
L 153.90707 37.644858 
L 155.503997 41.266466 
L 157.100924 40.12633 
L 158.69785 38.966469 
L 160.294777 41.345368 
L 161.891704 35.116044 
L 163.488631 38.871786 
L 165.085557 35.317245 
L 166.682484 41.301972 
L 168.279411 40.13422 
L 169.876338 40.161836 
L 171.473264 43.740048 
L 173.070191 41.420325 
L 174.667118 33.971963 
L 176.264045 32.75687 
L 177.860971 31.541777 
L 179.457898 37.629077 
L 181.054825 38.856006 
L 182.651752 31.573338 
L 184.248678 36.386369 
L 185.845605 32.752925 
L 187.442532 31.593064 
L 189.039459 31.525997 
L 190.636385 37.640913 
L 192.233312 35.167331 
L 193.830239 38.852061 
L 195.427166 40.094769 
L 197.024092 40.094769 
L 198.621019 33.960128 
L 200.217946 32.7332 
L 201.814873 29.151043 
L 203.411799 29.123427 
L 205.008726 31.557558 
L 206.605653 33.983799 
L 208.20258 33.975908 
L 209.799507 32.725309 
L 211.396433 38.863896 
L 212.99336 37.652748 
L 214.590287 33.968018 
L 216.187214 40.094769 
L 217.78414 27.888608 
" clip-path="url(#pa25c36e6e3)" style="fill: none; stroke: #55a868; stroke-width: 2.25; stroke-linecap: round"/>
   </g>
   <g id="line2d_9">
    <path d="M 91.626927 89.041711 
L 93.223854 89.041711 
L 94.82078 89.041711 
L 96.417707 89.041711 
L 98.014634 89.041711 
L 99.611561 89.041711 
L 101.208487 89.041711 
L 102.805414 87.810838 
L 104.402341 86.576019 
L 105.999268 81.691977 
L 107.596194 77.983576 
L 109.193121 75.588896 
L 110.790048 70.633842 
L 112.386975 59.571762 
L 113.983901 67.000399 
L 115.580828 51.145014 
L 117.177755 53.661992 
L 118.774682 53.59887 
L 120.371608 47.428723 
L 121.968535 51.046386 
L 123.565462 46.454282 
L 125.162389 46.347764 
L 126.759315 51.1963 
L 128.356242 47.590472 
L 129.953169 43.716377 
L 131.550096 53.563364 
L 133.147022 48.746389 
L 134.743949 53.496298 
L 136.340876 47.385327 
L 137.937803 45.002482 
L 139.534729 40.181562 
L 141.131656 43.720323 
L 142.728583 41.455831 
L 144.32551 46.371434 
L 145.922436 46.241246 
L 147.519363 45.128726 
L 149.11629 45.057714 
L 150.713217 43.783444 
L 152.310143 46.272807 
L 153.90707 52.332491 
L 155.503997 40.130275 
L 157.100924 51.164739 
L 158.69785 39.025645 
L 160.294777 41.459776 
L 161.891704 37.763211 
L 163.488631 34.125822 
L 165.085557 36.516557 
L 166.682484 38.970414 
L 168.279411 35.34486 
L 169.876338 35.404037 
L 171.473264 31.790319 
L 173.070191 30.559446 
L 174.667118 31.735088 
L 176.264045 32.985687 
L 177.860971 30.54761 
L 179.457898 31.778484 
L 181.054825 32.962016 
L 182.651752 32.962016 
L 184.248678 37.865784 
L 185.845605 31.699582 
L 187.442532 30.527885 
L 189.039459 34.181054 
L 190.636385 31.778484 
L 192.233312 31.754813 
L 193.830239 30.53972 
L 195.427166 31.739033 
L 197.024092 30.587062 
L 198.621019 31.794264 
L 200.217946 32.997522 
L 201.814873 34.192889 
L 203.411799 30.53183 
L 205.008726 30.512104 
L 206.605653 29.308847 
L 208.20258 30.53183 
L 209.799507 29.285176 
L 211.396433 32.954126 
L 212.99336 35.392202 
L 214.590287 32.958071 
L 216.187214 32.965961 
L 217.78414 35.407982 
L 219.381067 34.212615 
L 220.977994 32.993577 
L 222.574921 32.958071 
L 224.171847 30.527885 
L 225.768774 31.746923 
L 227.365701 31.758758 
L 228.962628 31.766648 
L 230.559554 32.946235 
L 232.156481 34.169219 
L 233.753408 31.699582 
L 235.350335 32.954126 
L 236.947261 32.981741 
L 238.544188 31.723252 
L 240.141115 31.727197 
L 241.738042 32.930455 
L 243.334968 32.946235 
L 244.931895 35.443488 
L 246.528822 32.946235 
L 248.125749 31.683801 
L 249.722675 32.993577 
" clip-path="url(#pa25c36e6e3)" style="fill: none; stroke: #c44e52; stroke-width: 2.25; stroke-linecap: round"/>
   </g>
   <g id="line2d_10"/>
   <g id="line2d_11"/>
   <g id="line2d_12"/>
   <g id="line2d_13"/>
   <g id="patch_3">
    <path d="M 90.03 89.041711 
L 90.03 25.92 
" style="fill: none; stroke: #ffffff; stroke-width: 1.875; stroke-linejoin: miter; stroke-linecap: square"/>
   </g>
   <g id="patch_4">
    <path d="M 249.722675 89.041711 
L 249.722675 25.92 
" style="fill: none; stroke: #ffffff; stroke-width: 1.875; stroke-linejoin: miter; stroke-linecap: square"/>
   </g>
   <g id="patch_5">
    <path d="M 90.03 89.041711 
L 249.722675 89.041711 
" style="fill: none; stroke: #ffffff; stroke-width: 1.875; stroke-linejoin: miter; stroke-linecap: square"/>
   </g>
   <g id="patch_6">
    <path d="M 90.03 25.92 
L 249.722675 25.92 
" style="fill: none; stroke: #ffffff; stroke-width: 1.875; stroke-linejoin: miter; stroke-linecap: square"/>
   </g>
   <g id="legend_1">
    <g id="patch_7">
     <path d="M 101.58 135.995625 
L 321.109922 135.995625 
Q 324.409922 135.995625 324.409922 132.695625 
L 324.409922 37.47 
Q 324.409922 34.17 321.109922 34.17 
L 101.58 34.17 
Q 98.28 34.17 98.28 37.47 
L 98.28 132.695625 
Q 98.28 135.995625 101.58 135.995625 
z
" style="fill: #eaeaf2; opacity: 0.8; stroke: #cccccc; stroke-width: 1.5; stroke-linejoin: miter"/>
    </g>
    <g id="line2d_14">
     <path d="M 104.88 47.532422 
L 121.38 47.532422 
L 137.88 47.532422 
" style="fill: none; stroke: #4c72b0; stroke-width: 2.25; stroke-linecap: round"/>
    </g>
    <g id="text_9">
     <!-- Combined -->
     <g style="fill: #262626" transform="translate(151.08 53.307422) scale(0.165 -0.165)">
      <defs>
       <path id="DejaVuSans-43" d="M 4122 4306 
L 4122 3641 
Q 3803 3938 3442 4084 
Q 3081 4231 2675 4231 
Q 1875 4231 1450 3742 
Q 1025 3253 1025 2328 
Q 1025 1406 1450 917 
Q 1875 428 2675 428 
Q 3081 428 3442 575 
Q 3803 722 4122 1019 
L 4122 359 
Q 3791 134 3420 21 
Q 3050 -91 2638 -91 
Q 1578 -91 968 557 
Q 359 1206 359 2328 
Q 359 3453 968 4101 
Q 1578 4750 2638 4750 
Q 3056 4750 3426 4639 
Q 3797 4528 4122 4306 
z
" transform="scale(0.015625)"/>
       <path id="DejaVuSans-62" d="M 3116 1747 
Q 3116 2381 2855 2742 
Q 2594 3103 2138 3103 
Q 1681 3103 1420 2742 
Q 1159 2381 1159 1747 
Q 1159 1113 1420 752 
Q 1681 391 2138 391 
Q 2594 391 2855 752 
Q 3116 1113 3116 1747 
z
M 1159 2969 
Q 1341 3281 1617 3432 
Q 1894 3584 2278 3584 
Q 2916 3584 3314 3078 
Q 3713 2572 3713 1747 
Q 3713 922 3314 415 
Q 2916 -91 2278 -91 
Q 1894 -91 1617 61 
Q 1341 213 1159 525 
L 1159 0 
L 581 0 
L 581 4863 
L 1159 4863 
L 1159 2969 
z
" transform="scale(0.015625)"/>
       <path id="DejaVuSans-6e" d="M 3513 2113 
L 3513 0 
L 2938 0 
L 2938 2094 
Q 2938 2591 2744 2837 
Q 2550 3084 2163 3084 
Q 1697 3084 1428 2787 
Q 1159 2491 1159 1978 
L 1159 0 
L 581 0 
L 581 3500 
L 1159 3500 
L 1159 2956 
Q 1366 3272 1645 3428 
Q 1925 3584 2291 3584 
Q 2894 3584 3203 3211 
Q 3513 2838 3513 2113 
z
" transform="scale(0.015625)"/>
       <path id="DejaVuSans-64" d="M 2906 2969 
L 2906 4863 
L 3481 4863 
L 3481 0 
L 2906 0 
L 2906 525 
Q 2725 213 2448 61 
Q 2172 -91 1784 -91 
Q 1150 -91 751 415 
Q 353 922 353 1747 
Q 353 2572 751 3078 
Q 1150 3584 1784 3584 
Q 2172 3584 2448 3432 
Q 2725 3281 2906 2969 
z
M 947 1747 
Q 947 1113 1208 752 
Q 1469 391 1925 391 
Q 2381 391 2643 752 
Q 2906 1113 2906 1747 
Q 2906 2381 2643 2742 
Q 2381 3103 1925 3103 
Q 1469 3103 1208 2742 
Q 947 2381 947 1747 
z
" transform="scale(0.015625)"/>
      </defs>
      <use xlink:href="#DejaVuSans-43"/>
      <use xlink:href="#DejaVuSans-6f" x="69.824219"/>
      <use xlink:href="#DejaVuSans-6d" x="131.005859"/>
      <use xlink:href="#DejaVuSans-62" x="228.417969"/>
      <use xlink:href="#DejaVuSans-69" x="291.894531"/>
      <use xlink:href="#DejaVuSans-6e" x="319.677734"/>
      <use xlink:href="#DejaVuSans-65" x="383.056641"/>
      <use xlink:href="#DejaVuSans-64" x="444.580078"/>
     </g>
    </g>
    <g id="line2d_15">
     <path d="M 104.88 71.751328 
L 121.38 71.751328 
L 137.88 71.751328 
" style="fill: none; stroke: #dd8452; stroke-width: 2.25; stroke-linecap: round"/>
    </g>
    <g id="text_10">
     <!-- Proximal Curriculum -->
     <g style="fill: #262626" transform="translate(151.08 77.526328) scale(0.165 -0.165)">
      <defs>
       <path id="DejaVuSans-50" d="M 1259 4147 
L 1259 2394 
L 2053 2394 
Q 2494 2394 2734 2622 
Q 2975 2850 2975 3272 
Q 2975 3691 2734 3919 
Q 2494 4147 2053 4147 
L 1259 4147 
z
M 628 4666 
L 2053 4666 
Q 2838 4666 3239 4311 
Q 3641 3956 3641 3272 
Q 3641 2581 3239 2228 
Q 2838 1875 2053 1875 
L 1259 1875 
L 1259 0 
L 628 0 
L 628 4666 
z
" transform="scale(0.015625)"/>
       <path id="DejaVuSans-78" d="M 3513 3500 
L 2247 1797 
L 3578 0 
L 2900 0 
L 1881 1375 
L 863 0 
L 184 0 
L 1544 1831 
L 300 3500 
L 978 3500 
L 1906 2253 
L 2834 3500 
L 3513 3500 
z
" transform="scale(0.015625)"/>
       <path id="DejaVuSans-61" d="M 2194 1759 
Q 1497 1759 1228 1600 
Q 959 1441 959 1056 
Q 959 750 1161 570 
Q 1363 391 1709 391 
Q 2188 391 2477 730 
Q 2766 1069 2766 1631 
L 2766 1759 
L 2194 1759 
z
M 3341 1997 
L 3341 0 
L 2766 0 
L 2766 531 
Q 2569 213 2275 61 
Q 1981 -91 1556 -91 
Q 1019 -91 701 211 
Q 384 513 384 1019 
Q 384 1609 779 1909 
Q 1175 2209 1959 2209 
L 2766 2209 
L 2766 2266 
Q 2766 2663 2505 2880 
Q 2244 3097 1772 3097 
Q 1472 3097 1187 3025 
Q 903 2953 641 2809 
L 641 3341 
Q 956 3463 1253 3523 
Q 1550 3584 1831 3584 
Q 2591 3584 2966 3190 
Q 3341 2797 3341 1997 
z
" transform="scale(0.015625)"/>
       <path id="DejaVuSans-6c" d="M 603 4863 
L 1178 4863 
L 1178 0 
L 603 0 
L 603 4863 
z
" transform="scale(0.015625)"/>
       <path id="DejaVuSans-20" transform="scale(0.015625)"/>
       <path id="DejaVuSans-75" d="M 544 1381 
L 544 3500 
L 1119 3500 
L 1119 1403 
Q 1119 906 1312 657 
Q 1506 409 1894 409 
Q 2359 409 2629 706 
Q 2900 1003 2900 1516 
L 2900 3500 
L 3475 3500 
L 3475 0 
L 2900 0 
L 2900 538 
Q 2691 219 2414 64 
Q 2138 -91 1772 -91 
Q 1169 -91 856 284 
Q 544 659 544 1381 
z
M 1991 3584 
L 1991 3584 
z
" transform="scale(0.015625)"/>
      </defs>
      <use xlink:href="#DejaVuSans-50"/>
      <use xlink:href="#DejaVuSans-72" x="58.552734"/>
      <use xlink:href="#DejaVuSans-6f" x="97.416016"/>
      <use xlink:href="#DejaVuSans-78" x="155.472656"/>
      <use xlink:href="#DejaVuSans-69" x="214.652344"/>
      <use xlink:href="#DejaVuSans-6d" x="242.435547"/>
      <use xlink:href="#DejaVuSans-61" x="339.847656"/>
      <use xlink:href="#DejaVuSans-6c" x="401.126953"/>
      <use xlink:href="#DejaVuSans-20" x="428.910156"/>
      <use xlink:href="#DejaVuSans-43" x="460.697266"/>
      <use xlink:href="#DejaVuSans-75" x="530.521484"/>
      <use xlink:href="#DejaVuSans-72" x="593.900391"/>
      <use xlink:href="#DejaVuSans-72" x="633.263672"/>
      <use xlink:href="#DejaVuSans-69" x="674.376953"/>
      <use xlink:href="#DejaVuSans-63" x="702.160156"/>
      <use xlink:href="#DejaVuSans-75" x="757.140625"/>
      <use xlink:href="#DejaVuSans-6c" x="820.519531"/>
      <use xlink:href="#DejaVuSans-75" x="848.302734"/>
      <use xlink:href="#DejaVuSans-6d" x="911.681641"/>
     </g>
    </g>
    <g id="line2d_16">
     <path d="M 104.88 95.970234 
L 121.38 95.970234 
L 137.88 95.970234 
" style="fill: none; stroke: #55a868; stroke-width: 2.25; stroke-linecap: round"/>
    </g>
    <g id="text_11">
     <!-- State Novelty (RND) -->
     <g style="fill: #262626" transform="translate(151.08 101.745234) scale(0.165 -0.165)">
      <defs>
       <path id="DejaVuSans-4e" d="M 628 4666 
L 1478 4666 
L 3547 763 
L 3547 4666 
L 4159 4666 
L 4159 0 
L 3309 0 
L 1241 3903 
L 1241 0 
L 628 0 
L 628 4666 
z
" transform="scale(0.015625)"/>
       <path id="DejaVuSans-76" d="M 191 3500 
L 800 3500 
L 1894 563 
L 2988 3500 
L 3597 3500 
L 2284 0 
L 1503 0 
L 191 3500 
z
" transform="scale(0.015625)"/>
       <path id="DejaVuSans-79" d="M 2059 -325 
Q 1816 -950 1584 -1140 
Q 1353 -1331 966 -1331 
L 506 -1331 
L 506 -850 
L 844 -850 
Q 1081 -850 1212 -737 
Q 1344 -625 1503 -206 
L 1606 56 
L 191 3500 
L 800 3500 
L 1894 763 
L 2988 3500 
L 3597 3500 
L 2059 -325 
z
" transform="scale(0.015625)"/>
       <path id="DejaVuSans-28" d="M 1984 4856 
Q 1566 4138 1362 3434 
Q 1159 2731 1159 2009 
Q 1159 1288 1364 580 
Q 1569 -128 1984 -844 
L 1484 -844 
Q 1016 -109 783 600 
Q 550 1309 550 2009 
Q 550 2706 781 3412 
Q 1013 4119 1484 4856 
L 1984 4856 
z
" transform="scale(0.015625)"/>
       <path id="DejaVuSans-52" d="M 2841 2188 
Q 3044 2119 3236 1894 
Q 3428 1669 3622 1275 
L 4263 0 
L 3584 0 
L 2988 1197 
Q 2756 1666 2539 1819 
Q 2322 1972 1947 1972 
L 1259 1972 
L 1259 0 
L 628 0 
L 628 4666 
L 2053 4666 
Q 2853 4666 3247 4331 
Q 3641 3997 3641 3322 
Q 3641 2881 3436 2590 
Q 3231 2300 2841 2188 
z
M 1259 4147 
L 1259 2491 
L 2053 2491 
Q 2509 2491 2742 2702 
Q 2975 2913 2975 3322 
Q 2975 3731 2742 3939 
Q 2509 4147 2053 4147 
L 1259 4147 
z
" transform="scale(0.015625)"/>
       <path id="DejaVuSans-44" d="M 1259 4147 
L 1259 519 
L 2022 519 
Q 2988 519 3436 956 
Q 3884 1394 3884 2338 
Q 3884 3275 3436 3711 
Q 2988 4147 2022 4147 
L 1259 4147 
z
M 628 4666 
L 1925 4666 
Q 3281 4666 3915 4102 
Q 4550 3538 4550 2338 
Q 4550 1131 3912 565 
Q 3275 0 1925 0 
L 628 0 
L 628 4666 
z
" transform="scale(0.015625)"/>
       <path id="DejaVuSans-29" d="M 513 4856 
L 1013 4856 
Q 1481 4119 1714 3412 
Q 1947 2706 1947 2009 
Q 1947 1309 1714 600 
Q 1481 -109 1013 -844 
L 513 -844 
Q 928 -128 1133 580 
Q 1338 1288 1338 2009 
Q 1338 2731 1133 3434 
Q 928 4138 513 4856 
z
" transform="scale(0.015625)"/>
      </defs>
      <use xlink:href="#DejaVuSans-53"/>
      <use xlink:href="#DejaVuSans-74" x="63.476562"/>
      <use xlink:href="#DejaVuSans-61" x="102.685547"/>
      <use xlink:href="#DejaVuSans-74" x="163.964844"/>
      <use xlink:href="#DejaVuSans-65" x="203.173828"/>
      <use xlink:href="#DejaVuSans-20" x="264.697266"/>
      <use xlink:href="#DejaVuSans-4e" x="296.484375"/>
      <use xlink:href="#DejaVuSans-6f" x="371.289062"/>
      <use xlink:href="#DejaVuSans-76" x="432.470703"/>
      <use xlink:href="#DejaVuSans-65" x="491.650391"/>
      <use xlink:href="#DejaVuSans-6c" x="553.173828"/>
      <use xlink:href="#DejaVuSans-74" x="580.957031"/>
      <use xlink:href="#DejaVuSans-79" x="620.166016"/>
      <use xlink:href="#DejaVuSans-20" x="679.345703"/>
      <use xlink:href="#DejaVuSans-28" x="711.132812"/>
      <use xlink:href="#DejaVuSans-52" x="750.146484"/>
      <use xlink:href="#DejaVuSans-4e" x="819.628906"/>
      <use xlink:href="#DejaVuSans-44" x="894.433594"/>
      <use xlink:href="#DejaVuSans-29" x="971.435547"/>
     </g>
    </g>
    <g id="line2d_17">
     <path d="M 104.88 120.189141 
L 121.38 120.189141 
L 137.88 120.189141 
" style="fill: none; stroke: #c44e52; stroke-width: 2.25; stroke-linecap: round"/>
    </g>
    <g id="text_12">
     <!-- Vanilla -->
     <g style="fill: #262626" transform="translate(151.08 125.964141) scale(0.165 -0.165)">
      <defs>
       <path id="DejaVuSans-56" d="M 1831 0 
L 50 4666 
L 709 4666 
L 2188 738 
L 3669 4666 
L 4325 4666 
L 2547 0 
L 1831 0 
z
" transform="scale(0.015625)"/>
      </defs>
      <use xlink:href="#DejaVuSans-56"/>
      <use xlink:href="#DejaVuSans-61" x="60.658203"/>
      <use xlink:href="#DejaVuSans-6e" x="121.9375"/>
      <use xlink:href="#DejaVuSans-69" x="185.316406"/>
      <use xlink:href="#DejaVuSans-6c" x="213.099609"/>
      <use xlink:href="#DejaVuSans-6c" x="240.882812"/>
      <use xlink:href="#DejaVuSans-61" x="268.666016"/>
     </g>
    </g>
   </g>
  </g>
 </g>
 <defs>
  <clipPath id="pa25c36e6e3">
   <rect x="90.03" y="25.92" width="159.692675" height="63.121711"/>
  </clipPath>
 </defs>
</svg>
