<?xml version="1.0" encoding="utf-8" standalone="no"?>
<!DOCTYPE svg PUBLIC "-//W3C//DTD SVG 1.1//EN"
  "http://www.w3.org/Graphics/SVG/1.1/DTD/svg11.dtd">
<svg xmlns:xlink="http://www.w3.org/1999/xlink" width="288pt" height="216pt" viewBox="0 0 288 216" xmlns="http://www.w3.org/2000/svg" version="1.1">
 <metadata>
  <rdf:RDF xmlns:dc="http://purl.org/dc/elements/1.1/" xmlns:cc="http://creativecommons.org/ns#" xmlns:rdf="http://www.w3.org/1999/02/22-rdf-syntax-ns#">
   <cc:Work>
    <dc:type rdf:resource="http://purl.org/dc/dcmitype/StillImage"/>
    <dc:date>1980-01-01T00:00:00+00:00</dc:date>
    <dc:format>image/svg+xml</dc:format>
    <dc:creator>
     <cc:Agent>
      <dc:title>Matplotlib v3.9.2, https://matplotlib.org/</dc:title>
     </cc:Agent>
    </dc:creator>
   </cc:Work>
  </rdf:RDF>
 </metadata>
 <defs>
  <style type="text/css">*{stroke-linejoin: round; stroke-linecap: butt}</style>
 </defs>
 <g id="figure_1">
  <g id="patch_1">
   <path d="M 0 216 
L 288 216 
L 288 0 
L 0 0 
z
" style="fill: #ffffff"/>
  </g>
  <g id="axes_1">
   <g id="patch_2">
    <path d="M 79.5 125.041711 
L 249.722675 125.041711 
L 249.722675 25.92 
L 79.5 25.92 
z
" style="fill: #eaeaf2"/>
   </g>
   <g id="matplotlib.axis_1">
    <g id="xtick_1">
     <g id="line2d_1">
      <path d="M 79.5 125.041711 
L 79.5 25.92 
" clip-path="url(#p2323430fe3)" style="fill: none; stroke: #ffffff; stroke-width: 1.5; stroke-linecap: round"/>
     </g>
     <g id="text_1">
      <!-- 0.0 -->
      <g style="fill: #262626" transform="translate(73.442139 164.9616) rotate(-45) scale(0.165 -0.165)">
       <defs>
        <path id="DejaVuSans-30" d="M 2034 4250 
Q 1547 4250 1301 3770 
Q 1056 3291 1056 2328 
Q 1056 1369 1301 889 
Q 1547 409 2034 409 
Q 2525 409 2770 889 
Q 3016 1369 3016 2328 
Q 3016 3291 2770 3770 
Q 2525 4250 2034 4250 
z
M 2034 4750 
Q 2819 4750 3233 4129 
Q 3647 3509 3647 2328 
Q 3647 1150 3233 529 
Q 2819 -91 2034 -91 
Q 1250 -91 836 529 
Q 422 1150 422 2328 
Q 422 3509 836 4129 
Q 1250 4750 2034 4750 
z
" transform="scale(0.015625)"/>
        <path id="DejaVuSans-2e" d="M 684 794 
L 1344 794 
L 1344 0 
L 684 0 
L 684 794 
z
" transform="scale(0.015625)"/>
       </defs>
       <use xlink:href="#DejaVuSans-30"/>
       <use xlink:href="#DejaVuSans-2e" x="63.623047"/>
       <use xlink:href="#DejaVuSans-30" x="95.410156"/>
      </g>
     </g>
    </g>
    <g id="xtick_2">
     <g id="line2d_2">
      <path d="M 164.611338 125.041711 
L 164.611338 25.92 
" clip-path="url(#p2323430fe3)" style="fill: none; stroke: #ffffff; stroke-width: 1.5; stroke-linecap: round"/>
     </g>
     <g id="text_2">
      <!-- 0.5 -->
      <g style="fill: #262626" transform="translate(158.553477 164.9616) rotate(-45) scale(0.165 -0.165)">
       <defs>
        <path id="DejaVuSans-35" d="M 691 4666 
L 3169 4666 
L 3169 4134 
L 1269 4134 
L 1269 2991 
Q 1406 3038 1543 3061 
Q 1681 3084 1819 3084 
Q 2600 3084 3056 2656 
Q 3513 2228 3513 1497 
Q 3513 744 3044 326 
Q 2575 -91 1722 -91 
Q 1428 -91 1123 -41 
Q 819 9 494 109 
L 494 744 
Q 775 591 1075 516 
Q 1375 441 1709 441 
Q 2250 441 2565 725 
Q 2881 1009 2881 1497 
Q 2881 1984 2565 2268 
Q 2250 2553 1709 2553 
Q 1456 2553 1204 2497 
Q 953 2441 691 2322 
L 691 4666 
z
" transform="scale(0.015625)"/>
       </defs>
       <use xlink:href="#DejaVuSans-30"/>
       <use xlink:href="#DejaVuSans-2e" x="63.623047"/>
       <use xlink:href="#DejaVuSans-35" x="95.410156"/>
      </g>
     </g>
    </g>
    <g id="xtick_3">
     <g id="line2d_3">
      <path d="M 249.722675 125.041711 
L 249.722675 25.92 
" clip-path="url(#p2323430fe3)" style="fill: none; stroke: #ffffff; stroke-width: 1.5; stroke-linecap: round"/>
     </g>
     <g id="text_3">
      <!-- 1.0 -->
      <g style="fill: #262626" transform="translate(243.664814 164.9616) rotate(-45) scale(0.165 -0.165)">
       <defs>
        <path id="DejaVuSans-31" d="M 794 531 
L 1825 531 
L 1825 4091 
L 703 3866 
L 703 4441 
L 1819 4666 
L 2450 4666 
L 2450 531 
L 3481 531 
L 3481 0 
L 794 0 
L 794 531 
z
" transform="scale(0.015625)"/>
       </defs>
       <use xlink:href="#DejaVuSans-31"/>
       <use xlink:href="#DejaVuSans-2e" x="63.623047"/>
       <use xlink:href="#DejaVuSans-30" x="95.410156"/>
      </g>
     </g>
    </g>
    <g id="text_4">
     <!-- Timestep -->
     <g style="fill: #262626" transform="translate(123.122744 185.065213) scale(0.18 -0.18)">
      <defs>
       <path id="DejaVuSans-54" d="M -19 4666 
L 3928 4666 
L 3928 4134 
L 2272 4134 
L 2272 0 
L 1638 0 
L 1638 4134 
L -19 4134 
L -19 4666 
z
" transform="scale(0.015625)"/>
       <path id="DejaVuSans-69" d="M 603 3500 
L 1178 3500 
L 1178 0 
L 603 0 
L 603 3500 
z
M 603 4863 
L 1178 4863 
L 1178 4134 
L 603 4134 
L 603 4863 
z
" transform="scale(0.015625)"/>
       <path id="DejaVuSans-6d" d="M 3328 2828 
Q 3544 3216 3844 3400 
Q 4144 3584 4550 3584 
Q 5097 3584 5394 3201 
Q 5691 2819 5691 2113 
L 5691 0 
L 5113 0 
L 5113 2094 
Q 5113 2597 4934 2840 
Q 4756 3084 4391 3084 
Q 3944 3084 3684 2787 
Q 3425 2491 3425 1978 
L 3425 0 
L 2847 0 
L 2847 2094 
Q 2847 2600 2669 2842 
Q 2491 3084 2119 3084 
Q 1678 3084 1418 2786 
Q 1159 2488 1159 1978 
L 1159 0 
L 581 0 
L 581 3500 
L 1159 3500 
L 1159 2956 
Q 1356 3278 1631 3431 
Q 1906 3584 2284 3584 
Q 2666 3584 2933 3390 
Q 3200 3197 3328 2828 
z
" transform="scale(0.015625)"/>
       <path id="DejaVuSans-65" d="M 3597 1894 
L 3597 1613 
L 953 1613 
Q 991 1019 1311 708 
Q 1631 397 2203 397 
Q 2534 397 2845 478 
Q 3156 559 3463 722 
L 3463 178 
Q 3153 47 2828 -22 
Q 2503 -91 2169 -91 
Q 1331 -91 842 396 
Q 353 884 353 1716 
Q 353 2575 817 3079 
Q 1281 3584 2069 3584 
Q 2775 3584 3186 3129 
Q 3597 2675 3597 1894 
z
M 3022 2063 
Q 3016 2534 2758 2815 
Q 2500 3097 2075 3097 
Q 1594 3097 1305 2825 
Q 1016 2553 972 2059 
L 3022 2063 
z
" transform="scale(0.015625)"/>
       <path id="DejaVuSans-73" d="M 2834 3397 
L 2834 2853 
Q 2591 2978 2328 3040 
Q 2066 3103 1784 3103 
Q 1356 3103 1142 2972 
Q 928 2841 928 2578 
Q 928 2378 1081 2264 
Q 1234 2150 1697 2047 
L 1894 2003 
Q 2506 1872 2764 1633 
Q 3022 1394 3022 966 
Q 3022 478 2636 193 
Q 2250 -91 1575 -91 
Q 1294 -91 989 -36 
Q 684 19 347 128 
L 347 722 
Q 666 556 975 473 
Q 1284 391 1588 391 
Q 1994 391 2212 530 
Q 2431 669 2431 922 
Q 2431 1156 2273 1281 
Q 2116 1406 1581 1522 
L 1381 1569 
Q 847 1681 609 1914 
Q 372 2147 372 2553 
Q 372 3047 722 3315 
Q 1072 3584 1716 3584 
Q 2034 3584 2315 3537 
Q 2597 3491 2834 3397 
z
" transform="scale(0.015625)"/>
       <path id="DejaVuSans-74" d="M 1172 4494 
L 1172 3500 
L 2356 3500 
L 2356 3053 
L 1172 3053 
L 1172 1153 
Q 1172 725 1289 603 
Q 1406 481 1766 481 
L 2356 481 
L 2356 0 
L 1766 0 
Q 1100 0 847 248 
Q 594 497 594 1153 
L 594 3053 
L 172 3053 
L 172 3500 
L 594 3500 
L 594 4494 
L 1172 4494 
z
" transform="scale(0.015625)"/>
       <path id="DejaVuSans-70" d="M 1159 525 
L 1159 -1331 
L 581 -1331 
L 581 3500 
L 1159 3500 
L 1159 2969 
Q 1341 3281 1617 3432 
Q 1894 3584 2278 3584 
Q 2916 3584 3314 3078 
Q 3713 2572 3713 1747 
Q 3713 922 3314 415 
Q 2916 -91 2278 -91 
Q 1894 -91 1617 61 
Q 1341 213 1159 525 
z
M 3116 1747 
Q 3116 2381 2855 2742 
Q 2594 3103 2138 3103 
Q 1681 3103 1420 2742 
Q 1159 2381 1159 1747 
Q 1159 1113 1420 752 
Q 1681 391 2138 391 
Q 2594 391 2855 752 
Q 3116 1113 3116 1747 
z
" transform="scale(0.015625)"/>
      </defs>
      <use xlink:href="#DejaVuSans-54"/>
      <use xlink:href="#DejaVuSans-69" x="57.958984"/>
      <use xlink:href="#DejaVuSans-6d" x="85.742188"/>
      <use xlink:href="#DejaVuSans-65" x="183.154297"/>
      <use xlink:href="#DejaVuSans-73" x="244.677734"/>
      <use xlink:href="#DejaVuSans-74" x="296.777344"/>
      <use xlink:href="#DejaVuSans-65" x="335.986328"/>
      <use xlink:href="#DejaVuSans-70" x="397.509766"/>
     </g>
    </g>
    <g id="text_5">
     <!-- 1e6 -->
     <g style="fill: #262626" transform="translate(218.573769 182.925447) scale(0.165 -0.165)">
      <defs>
       <path id="DejaVuSans-36" d="M 2113 2584 
Q 1688 2584 1439 2293 
Q 1191 2003 1191 1497 
Q 1191 994 1439 701 
Q 1688 409 2113 409 
Q 2538 409 2786 701 
Q 3034 994 3034 1497 
Q 3034 2003 2786 2293 
Q 2538 2584 2113 2584 
z
M 3366 4563 
L 3366 3988 
Q 3128 4100 2886 4159 
Q 2644 4219 2406 4219 
Q 1781 4219 1451 3797 
Q 1122 3375 1075 2522 
Q 1259 2794 1537 2939 
Q 1816 3084 2150 3084 
Q 2853 3084 3261 2657 
Q 3669 2231 3669 1497 
Q 3669 778 3244 343 
Q 2819 -91 2113 -91 
Q 1303 -91 875 529 
Q 447 1150 447 2328 
Q 447 3434 972 4092 
Q 1497 4750 2381 4750 
Q 2619 4750 2861 4703 
Q 3103 4656 3366 4563 
z
" transform="scale(0.015625)"/>
      </defs>
      <use xlink:href="#DejaVuSans-31"/>
      <use xlink:href="#DejaVuSans-65" x="63.623047"/>
      <use xlink:href="#DejaVuSans-36" x="125.146484"/>
     </g>
    </g>
   </g>
   <g id="matplotlib.axis_2">
    <g id="ytick_1">
     <g id="line2d_4">
      <path d="M 79.5 125.041711 
L 249.722675 125.041711 
" clip-path="url(#p2323430fe3)" style="fill: none; stroke: #ffffff; stroke-width: 1.5; stroke-linecap: round"/>
     </g>
     <g id="text_6">
      <!-- 0.0 -->
      <g style="fill: #262626" transform="translate(40.759844 131.310422) scale(0.165 -0.165)">
       <use xlink:href="#DejaVuSans-30"/>
       <use xlink:href="#DejaVuSans-2e" x="63.623047"/>
       <use xlink:href="#DejaVuSans-30" x="95.410156"/>
      </g>
     </g>
    </g>
    <g id="ytick_2">
     <g id="line2d_5">
      <path d="M 79.5 75.480856 
L 249.722675 75.480856 
" clip-path="url(#p2323430fe3)" style="fill: none; stroke: #ffffff; stroke-width: 1.5; stroke-linecap: round"/>
     </g>
     <g id="text_7">
      <!-- 0.5 -->
      <g style="fill: #262626" transform="translate(40.759844 81.749566) scale(0.165 -0.165)">
       <use xlink:href="#DejaVuSans-30"/>
       <use xlink:href="#DejaVuSans-2e" x="63.623047"/>
       <use xlink:href="#DejaVuSans-35" x="95.410156"/>
      </g>
     </g>
    </g>
    <g id="ytick_3">
     <g id="line2d_6">
      <path d="M 79.5 25.92 
L 249.722675 25.92 
" clip-path="url(#p2323430fe3)" style="fill: none; stroke: #ffffff; stroke-width: 1.5; stroke-linecap: round"/>
     </g>
     <g id="text_8">
      <!-- 1.0 -->
      <g style="fill: #262626" transform="translate(40.759844 32.188711) scale(0.165 -0.165)">
       <use xlink:href="#DejaVuSans-31"/>
       <use xlink:href="#DejaVuSans-2e" x="63.623047"/>
       <use xlink:href="#DejaVuSans-30" x="95.410156"/>
      </g>
     </g>
    </g>
    <g id="text_9">
     <!-- Score -->
     <g style="fill: #262626" transform="translate(33.016406 100.685074) rotate(-90) scale(0.18 -0.18)">
      <defs>
       <path id="DejaVuSans-53" d="M 3425 4513 
L 3425 3897 
Q 3066 4069 2747 4153 
Q 2428 4238 2131 4238 
Q 1616 4238 1336 4038 
Q 1056 3838 1056 3469 
Q 1056 3159 1242 3001 
Q 1428 2844 1947 2747 
L 2328 2669 
Q 3034 2534 3370 2195 
Q 3706 1856 3706 1288 
Q 3706 609 3251 259 
Q 2797 -91 1919 -91 
Q 1588 -91 1214 -16 
Q 841 59 441 206 
L 441 856 
Q 825 641 1194 531 
Q 1563 422 1919 422 
Q 2459 422 2753 634 
Q 3047 847 3047 1241 
Q 3047 1584 2836 1778 
Q 2625 1972 2144 2069 
L 1759 2144 
Q 1053 2284 737 2584 
Q 422 2884 422 3419 
Q 422 4038 858 4394 
Q 1294 4750 2059 4750 
Q 2388 4750 2728 4690 
Q 3069 4631 3425 4513 
z
" transform="scale(0.015625)"/>
       <path id="DejaVuSans-63" d="M 3122 3366 
L 3122 2828 
Q 2878 2963 2633 3030 
Q 2388 3097 2138 3097 
Q 1578 3097 1268 2742 
Q 959 2388 959 1747 
Q 959 1106 1268 751 
Q 1578 397 2138 397 
Q 2388 397 2633 464 
Q 2878 531 3122 666 
L 3122 134 
Q 2881 22 2623 -34 
Q 2366 -91 2075 -91 
Q 1284 -91 818 406 
Q 353 903 353 1747 
Q 353 2603 823 3093 
Q 1294 3584 2113 3584 
Q 2378 3584 2631 3529 
Q 2884 3475 3122 3366 
z
" transform="scale(0.015625)"/>
       <path id="DejaVuSans-6f" d="M 1959 3097 
Q 1497 3097 1228 2736 
Q 959 2375 959 1747 
Q 959 1119 1226 758 
Q 1494 397 1959 397 
Q 2419 397 2687 759 
Q 2956 1122 2956 1747 
Q 2956 2369 2687 2733 
Q 2419 3097 1959 3097 
z
M 1959 3584 
Q 2709 3584 3137 3096 
Q 3566 2609 3566 1747 
Q 3566 888 3137 398 
Q 2709 -91 1959 -91 
Q 1206 -91 779 398 
Q 353 888 353 1747 
Q 353 2609 779 3096 
Q 1206 3584 1959 3584 
z
" transform="scale(0.015625)"/>
       <path id="DejaVuSans-72" d="M 2631 2963 
Q 2534 3019 2420 3045 
Q 2306 3072 2169 3072 
Q 1681 3072 1420 2755 
Q 1159 2438 1159 1844 
L 1159 0 
L 581 0 
L 581 3500 
L 1159 3500 
L 1159 2956 
Q 1341 3275 1631 3429 
Q 1922 3584 2338 3584 
Q 2397 3584 2469 3576 
Q 2541 3569 2628 3553 
L 2631 2963 
z
" transform="scale(0.015625)"/>
      </defs>
      <use xlink:href="#DejaVuSans-53"/>
      <use xlink:href="#DejaVuSans-63" x="63.476562"/>
      <use xlink:href="#DejaVuSans-6f" x="118.457031"/>
      <use xlink:href="#DejaVuSans-72" x="179.638672"/>
      <use xlink:href="#DejaVuSans-65" x="218.501953"/>
     </g>
    </g>
   </g>
   <g id="PolyCollection_1">
    <defs>
     <path id="md3f0a4f00d" d="M 81.202227 -90.958289 
L 81.202227 -90.958289 
L 82.904454 -90.958289 
L 84.60668 -90.958289 
L 86.308907 -90.958289 
L 88.011134 -90.958289 
L 89.713361 -90.958289 
L 91.415587 -92.909748 
L 93.117814 -90.958289 
L 94.820041 -96.614422 
L 96.522268 -102.363481 
L 98.224494 -102.542055 
L 99.926721 -102.425432 
L 101.628948 -114.016477 
L 103.331175 -113.793453 
L 105.033401 -115.899789 
L 106.735628 -119.664556 
L 108.437855 -123.501186 
L 110.140082 -136.870226 
L 111.842308 -138.603927 
L 113.544535 -136.932178 
L 115.246762 -144.725622 
L 116.948989 -155.88301 
L 118.651215 -155.92018 
L 120.353442 -150.462291 
L 122.055669 -135.197548 
L 123.757896 -142.829919 
L 125.460122 -137.05608 
L 127.162349 -165.743142 
L 128.864576 -169.43651 
L 130.566803 -175.068481 
L 132.269029 -169.605172 
L 133.971256 -158.156614 
L 135.673483 -169.722259 
L 137.37571 -163.657869 
L 139.077936 -163.862307 
L 140.780163 -163.923639 
L 142.48239 -175.483709 
L 144.184617 -175.484328 
L 145.886843 -163.805777 
L 147.58907 -152.190726 
L 149.291297 -175.273694 
L 150.993524 -181.295338 
L 152.69575 -175.297855 
L 154.397977 -163.868503 
L 156.100204 -175.428572 
L 157.802431 -169.399959 
L 159.504657 -175.29228 
L 161.206884 -152.246482 
L 162.909111 -163.71285 
L 164.611338 -169.642342 
L 166.313564 -169.475074 
L 168.015791 -169.400733 
L 169.718018 -181.134266 
L 171.420245 -169.499855 
L 173.122471 -175.366621 
L 174.824698 -175.27989 
L 176.526925 -181.282948 
L 178.229152 -180.867102 
L 179.931378 -175.409987 
L 181.633605 -175.440962 
L 183.335832 -175.29228 
L 185.038059 -169.722879 
L 186.740285 -169.555611 
L 188.442512 -181.332509 
L 190.144739 -163.774956 
L 191.846966 -175.478133 
L 193.549192 -169.678738 
L 195.251419 -169.605172 
L 196.953646 -175.310865 
L 198.655873 -175.533889 
L 200.358099 -152.263673 
L 202.060326 -175.366621 
L 203.762553 -163.737786 
L 205.46478 -169.647918 
L 207.167007 -163.750795 
L 208.869233 -186.418692 
L 208.869233 -186.982447 
L 208.869233 -186.982447 
L 207.167007 -186.88952 
L 205.46478 -186.945276 
L 203.762553 -186.915075 
L 202.060326 -186.88952 
L 200.358099 -186.9143 
L 198.655873 -186.9143 
L 196.953646 -186.9143 
L 195.251419 -186.9143 
L 193.549192 -186.9143 
L 191.846966 -186.9143 
L 190.144739 -186.945895 
L 188.442512 -186.9143 
L 186.740285 -186.890139 
L 185.038059 -186.9143 
L 183.335832 -186.9143 
L 181.633605 -186.9143 
L 179.931378 -186.890139 
L 178.229152 -186.890139 
L 176.526925 -186.9143 
L 174.824698 -186.9143 
L 173.122471 -186.9143 
L 171.420245 -186.9143 
L 169.718018 -186.9143 
L 168.015791 -186.9143 
L 166.313564 -186.88952 
L 164.611338 -186.9143 
L 162.909111 -186.9143 
L 161.206884 -186.9143 
L 159.504657 -186.9143 
L 157.802431 -186.9143 
L 156.100204 -186.915075 
L 154.397977 -186.9143 
L 152.69575 -186.9143 
L 150.993524 -186.9143 
L 149.291297 -186.9143 
L 147.58907 -186.9143 
L 145.886843 -186.9143 
L 144.184617 -186.9143 
L 142.48239 -186.945276 
L 140.780163 -186.9143 
L 139.077936 -186.9143 
L 137.37571 -186.9143 
L 135.673483 -186.9143 
L 133.971256 -186.9143 
L 132.269029 -186.9143 
L 130.566803 -186.9143 
L 128.864576 -186.9143 
L 127.162349 -186.722252 
L 125.460122 -186.722252 
L 123.757896 -180.644852 
L 122.055669 -175.118817 
L 120.353442 -177.126031 
L 118.651215 -179.275733 
L 116.948989 -179.031801 
L 115.246762 -176.73574 
L 113.544535 -175.27989 
L 111.842308 -154.228916 
L 110.140082 -175.224134 
L 108.437855 -163.459625 
L 106.735628 -157.976956 
L 105.033401 -175.267499 
L 103.331175 -155.852034 
L 101.628948 -155.864424 
L 99.926721 -149.743659 
L 98.224494 -156.229936 
L 96.522268 -153.987307 
L 94.820041 -108.231641 
L 93.117814 -121.475386 
L 91.415587 -104.420256 
L 89.713361 -102.444017 
L 88.011134 -90.958289 
L 86.308907 -90.958289 
L 84.60668 -90.958289 
L 82.904454 -90.958289 
L 81.202227 -90.958289 
z
" style="stroke: #4c72b0; stroke-opacity: 0.2; stroke-width: 1.5"/>
    </defs>
    <g clip-path="url(#p2323430fe3)">
     <use xlink:href="#md3f0a4f00d" x="0" y="216" style="fill: #4c72b0; fill-opacity: 0.2; stroke: #4c72b0; stroke-opacity: 0.2; stroke-width: 1.5"/>
    </g>
   </g>
   <g id="PolyCollection_2">
    <defs>
     <path id="m34f255065d" d="M 81.202227 -90.958289 
L 81.202227 -90.958289 
L 82.904454 -90.958289 
L 84.60668 -90.958289 
L 86.308907 -90.958289 
L 88.011134 -90.958289 
L 89.713361 -90.958289 
L 91.415587 -90.958289 
L 93.117814 -92.829211 
L 94.820041 -94.848816 
L 96.522268 -102.444017 
L 98.224494 -108.248832 
L 99.926721 -112.108384 
L 101.628948 -117.919394 
L 103.331175 -128.872343 
L 105.033401 -132.954919 
L 106.735628 -153.832429 
L 108.437855 -150.301218 
L 110.140082 -150.12156 
L 111.842308 -156.10371 
L 113.544535 -158.113248 
L 115.246762 -167.604152 
L 116.948989 -159.977975 
L 118.651215 -165.835294 
L 120.353442 -178.668613 
L 122.055669 -168.031614 
L 123.757896 -165.764205 
L 125.460122 -163.787966 
L 127.162349 -165.795181 
L 128.864576 -175.552474 
L 130.566803 -169.524635 
L 132.269029 -164.134892 
L 133.971256 -164.066746 
L 135.673483 -164.079136 
L 137.37571 -158.323882 
L 139.077936 -186.778008 
L 139.077936 -187.323177 
L 139.077936 -187.323177 
L 137.37571 -187.292202 
L 135.673483 -187.261226 
L 133.971256 -187.292202 
L 132.269029 -187.292202 
L 130.566803 -187.261226 
L 128.864576 -187.292202 
L 127.162349 -187.131129 
L 125.460122 -187.19308 
L 123.757896 -187.19308 
L 122.055669 -187.19308 
L 120.353442 -187.19308 
L 118.651215 -187.19308 
L 116.948989 -183.476016 
L 115.246762 -185.427475 
L 113.544535 -185.408889 
L 111.842308 -183.414065 
L 110.140082 -185.44606 
L 108.437855 -181.524557 
L 106.735628 -175.849839 
L 105.033401 -165.677474 
L 103.331175 -169.394538 
L 101.628948 -144.707037 
L 99.926721 -142.57592 
L 98.224494 -127.528005 
L 96.522268 -131.331801 
L 94.820041 -135.185157 
L 93.117814 -106.279098 
L 91.415587 -106.37791 
L 89.713361 -96.701153 
L 88.011134 -90.958289 
L 86.308907 -90.958289 
L 84.60668 -90.958289 
L 82.904454 -90.958289 
L 81.202227 -90.958289 
z
" style="stroke: #dd8452; stroke-opacity: 0.2; stroke-width: 1.5"/>
    </defs>
    <g clip-path="url(#p2323430fe3)">
     <use xlink:href="#m34f255065d" x="0" y="216" style="fill: #dd8452; fill-opacity: 0.2; stroke: #dd8452; stroke-opacity: 0.2; stroke-width: 1.5"/>
    </g>
   </g>
   <g id="PolyCollection_3">
    <defs>
     <path id="m7216df587a" d="M 81.202227 -90.958289 
L 81.202227 -90.958289 
L 82.904454 -90.958289 
L 84.60668 -90.958289 
L 86.308907 -90.958289 
L 88.011134 -90.958289 
L 89.713361 -90.958289 
L 91.415587 -90.958289 
L 93.117814 -96.663982 
L 94.820041 -94.78067 
L 96.522268 -102.468798 
L 98.224494 -112.232286 
L 99.926721 -121.661239 
L 101.628948 -116.054667 
L 103.331175 -131.114972 
L 105.033401 -137.012714 
L 106.735628 -131.455703 
L 108.437855 -138.84027 
L 110.140082 -148.411711 
L 111.842308 -146.683276 
L 113.544535 -139.205782 
L 115.246762 -127.416493 
L 116.948989 -148.925905 
L 118.651215 -135.048865 
L 120.353442 -127.608542 
L 122.055669 -127.490835 
L 123.757896 -135.05506 
L 125.460122 -141.014753 
L 127.162349 -139.044709 
L 128.864576 -127.514221 
L 130.566803 -152.556237 
L 132.269029 -152.282414 
L 133.971256 -133.357601 
L 135.673483 -160.163829 
L 137.37571 -119.877048 
L 139.077936 -152.519067 
L 140.780163 -142.915257 
L 142.48239 -140.971387 
L 144.184617 -136.862637 
L 145.886843 -156.161789 
L 147.58907 -156.285692 
L 149.291297 -139.088075 
L 150.993524 -148.492247 
L 152.69575 -146.646105 
L 154.397977 -127.472249 
L 156.100204 -160.393048 
L 157.802431 -139.111461 
L 159.504657 -159.922219 
L 161.206884 -142.935236 
L 162.909111 -144.694647 
L 164.611338 -140.940412 
L 166.313564 -127.563782 
L 168.015791 -142.452018 
L 169.718018 -158.21237 
L 171.420245 -163.936649 
L 173.122471 -169.673008 
L 174.824698 -140.983777 
L 176.526925 -135.203743 
L 178.229152 -169.499855 
L 179.931378 -146.838154 
L 181.633605 -163.955234 
L 183.335832 -169.431709 
L 185.038059 -169.735269 
L 186.740285 -140.915631 
L 188.442512 -152.593098 
L 190.144739 -135.234718 
L 191.846966 -129.398927 
L 193.549192 -129.380032 
L 195.251419 -158.267816 
L 196.953646 -164.060551 
L 198.655873 -180.954607 
L 200.358099 -181.053729 
L 202.060326 -169.574196 
L 203.762553 -158.168694 
L 205.46478 -158.193785 
L 207.167007 -164.085331 
L 208.869233 -135.178653 
L 210.57146 -140.884656 
L 212.273687 -158.243345 
L 213.975914 -129.367952 
L 215.67814 -186.864739 
L 215.67814 -187.131129 
L 215.67814 -187.131129 
L 213.975914 -187.112544 
L 212.273687 -187.118739 
L 210.57146 -187.112544 
L 208.869233 -187.112544 
L 207.167007 -187.131129 
L 205.46478 -187.119049 
L 203.762553 -187.118739 
L 202.060326 -187.112544 
L 200.358099 -187.112699 
L 198.655873 -187.131129 
L 196.953646 -187.119049 
L 195.251419 -187.131129 
L 193.549192 -187.112544 
L 191.846966 -187.112544 
L 190.144739 -187.118739 
L 188.442512 -187.131129 
L 186.740285 -187.131129 
L 185.038059 -187.131129 
L 183.335832 -187.118739 
L 181.633605 -187.112544 
L 179.931378 -187.119049 
L 178.229152 -187.131129 
L 176.526925 -187.118739 
L 174.824698 -187.131129 
L 173.122471 -187.118739 
L 171.420245 -187.131129 
L 169.718018 -187.112544 
L 168.015791 -187.050593 
L 166.313564 -187.062983 
L 164.611338 -187.050593 
L 162.909111 -187.050902 
L 161.206884 -187.038202 
L 159.504657 -187.050593 
L 157.802431 -187.050593 
L 156.100204 -187.050593 
L 154.397977 -187.050593 
L 152.69575 -187.038202 
L 150.993524 -187.050593 
L 149.291297 -187.050593 
L 147.58907 -187.050593 
L 145.886843 -187.050902 
L 144.184617 -187.050593 
L 142.48239 -187.050593 
L 140.780163 -187.093958 
L 139.077936 -187.050593 
L 137.37571 -187.038512 
L 135.673483 -187.038202 
L 133.971256 -187.050593 
L 132.269029 -187.038202 
L 130.566803 -187.050593 
L 128.864576 -187.050593 
L 127.162349 -187.050593 
L 125.460122 -187.038202 
L 123.757896 -187.093958 
L 122.055669 -187.050902 
L 120.353442 -187.050593 
L 118.651215 -187.050593 
L 116.948989 -187.038202 
L 115.246762 -187.062983 
L 113.544535 -187.050593 
L 111.842308 -181.276753 
L 110.140082 -183.067139 
L 108.437855 -173.743503 
L 106.735628 -165.925278 
L 105.033401 -175.409987 
L 103.331175 -171.593801 
L 101.628948 -179.405831 
L 99.926721 -165.751815 
L 98.224494 -161.898459 
L 96.522268 -140.872266 
L 94.820041 -121.7108 
L 93.117814 -127.447469 
L 91.415587 -125.229621 
L 89.713361 -110.051609 
L 88.011134 -96.812665 
L 86.308907 -90.958289 
L 84.60668 -90.958289 
L 82.904454 -90.958289 
L 81.202227 -90.958289 
z
" style="stroke: #55a868; stroke-opacity: 0.2; stroke-width: 1.5"/>
    </defs>
    <g clip-path="url(#p2323430fe3)">
     <use xlink:href="#m7216df587a" x="0" y="216" style="fill: #55a868; fill-opacity: 0.2; stroke: #55a868; stroke-opacity: 0.2; stroke-width: 1.5"/>
    </g>
   </g>
   <g id="PolyCollection_4">
    <defs>
     <path id="me31244ee23" d="M 81.202227 -90.958289 
L 81.202227 -90.958289 
L 82.904454 -90.958289 
L 84.60668 -90.958289 
L 86.308907 -90.958289 
L 88.011134 -90.958289 
L 89.713361 -90.958289 
L 91.415587 -90.958289 
L 93.117814 -90.958289 
L 94.820041 -90.958289 
L 96.522268 -92.903552 
L 98.224494 -90.958289 
L 99.926721 -100.585485 
L 101.628948 -106.37791 
L 103.331175 -123.74899 
L 105.033401 -121.72319 
L 106.735628 -140.996168 
L 108.437855 -136.944568 
L 110.140082 -136.919787 
L 111.842308 -140.940412 
L 113.544535 -137.062275 
L 115.246762 -150.028634 
L 116.948989 -146.584154 
L 118.651215 -142.434362 
L 120.353442 -146.268204 
L 122.055669 -154.43289 
L 123.757896 -131.226484 
L 125.460122 -142.538749 
L 127.162349 -136.938373 
L 128.864576 -144.713232 
L 130.566803 -152.388814 
L 132.269029 -161.91534 
L 133.971256 -152.587213 
L 135.673483 -159.804048 
L 137.37571 -146.451889 
L 139.077936 -146.695666 
L 140.780163 -142.848505 
L 142.48239 -146.720447 
L 144.184617 -139.007538 
L 145.886843 -144.849214 
L 147.58907 -125.731424 
L 149.291297 -156.328283 
L 150.993524 -121.834702 
L 152.69575 -156.210111 
L 154.397977 -142.805139 
L 156.100204 -152.593408 
L 157.802431 -165.931473 
L 159.504657 -150.536632 
L 161.206884 -146.770007 
L 162.909111 -163.831332 
L 164.611338 -159.916024 
L 166.313564 -169.363562 
L 168.015791 -175.149792 
L 169.718018 -169.568001 
L 171.420245 -163.71982 
L 173.122471 -175.217938 
L 174.824698 -169.419318 
L 176.526925 -163.843722 
L 178.229152 -163.800356 
L 179.931378 -140.729778 
L 181.633605 -169.822 
L 183.335832 -175.310865 
L 185.038059 -158.088468 
L 186.740285 -169.419318 
L 188.442512 -169.51844 
L 190.144739 -175.255109 
L 191.846966 -169.592781 
L 193.549192 -175.019695 
L 195.251419 -169.375953 
L 196.953646 -163.664064 
L 198.655873 -158.032712 
L 200.358099 -175.27989 
L 202.060326 -175.428572 
L 203.762553 -181.053729 
L 205.46478 -175.27989 
L 207.167007 -181.152851 
L 208.869233 -163.880893 
L 210.57146 -152.394855 
L 212.273687 -163.849143 
L 213.975914 -163.812747 
L 215.67814 -152.307659 
L 217.380367 -157.952175 
L 219.082594 -163.69504 
L 220.784821 -163.892199 
L 222.487047 -175.341841 
L 224.189274 -169.611367 
L 225.891501 -169.468879 
L 227.593728 -169.475074 
L 229.295954 -163.905673 
L 230.998181 -158.144224 
L 232.700408 -169.791025 
L 234.402635 -163.880893 
L 236.104861 -163.750795 
L 237.807088 -169.667123 
L 239.509315 -169.648537 
L 241.211542 -163.980014 
L 242.913768 -163.905673 
L 244.615995 -152.141165 
L 246.318222 -163.905673 
L 248.020449 -169.852976 
L 249.722675 -163.682649 
L 249.722675 -186.716057 
L 249.722675 -186.716057 
L 248.020449 -186.716831 
L 246.318222 -186.747032 
L 244.615995 -186.716057 
L 242.913768 -186.747032 
L 241.211542 -186.716057 
L 239.509315 -186.747032 
L 237.807088 -186.716057 
L 236.104861 -186.716831 
L 234.402635 -186.716057 
L 232.700408 -186.747032 
L 230.998181 -186.747032 
L 229.295954 -186.759423 
L 227.593728 -186.716057 
L 225.891501 -186.747032 
L 224.189274 -186.747032 
L 222.487047 -186.747032 
L 220.784821 -186.716831 
L 219.082594 -186.747032 
L 217.380367 -186.747032 
L 215.67814 -186.747032 
L 213.975914 -186.716831 
L 212.273687 -186.716057 
L 210.57146 -186.716057 
L 208.869233 -186.716057 
L 207.167007 -186.716057 
L 205.46478 -186.747032 
L 203.762553 -186.716831 
L 202.060326 -186.747032 
L 200.358099 -186.716057 
L 198.655873 -186.716057 
L 196.953646 -186.716057 
L 195.251419 -186.716057 
L 193.549192 -186.747032 
L 191.846966 -186.716057 
L 190.144739 -186.716057 
L 188.442512 -186.716831 
L 186.740285 -186.716831 
L 185.038059 -186.716057 
L 183.335832 -186.747032 
L 181.633605 -186.716057 
L 179.931378 -186.716057 
L 178.229152 -186.716057 
L 176.526925 -186.716057 
L 174.824698 -186.716831 
L 173.122471 -186.716057 
L 171.420245 -186.716057 
L 169.718018 -186.716057 
L 168.015791 -186.716057 
L 166.313564 -186.747032 
L 164.611338 -186.703667 
L 162.909111 -186.703667 
L 161.206884 -186.703667 
L 159.504657 -186.703667 
L 157.802431 -186.703667 
L 156.100204 -186.703667 
L 154.397977 -186.703667 
L 152.69575 -182.83792 
L 150.993524 -173.260285 
L 149.291297 -179.012132 
L 147.58907 -171.476094 
L 145.886843 -173.173553 
L 144.184617 -179.040319 
L 142.48239 -175.149792 
L 140.780163 -175.02016 
L 139.077936 -173.192138 
L 137.37571 -173.142578 
L 135.673483 -171.599996 
L 133.971256 -171.637167 
L 132.269029 -173.309846 
L 130.566803 -167.827176 
L 128.864576 -168.089229 
L 127.162349 -156.471545 
L 125.460122 -165.931473 
L 123.757896 -160.256755 
L 122.055669 -171.717703 
L 120.353442 -167.684688 
L 118.651215 -160.070902 
L 116.948989 -169.574196 
L 115.246762 -167.517421 
L 113.544535 -166.148302 
L 111.842308 -171.669846 
L 110.140082 -156.372423 
L 108.437855 -154.191745 
L 106.735628 -159.947 
L 105.033401 -129.405123 
L 103.331175 -150.895949 
L 101.628948 -133.369991 
L 99.926721 -123.538356 
L 98.224494 -131.418532 
L 96.522268 -112.095994 
L 94.820041 -98.745538 
L 93.117814 -96.756909 
L 91.415587 -90.958289 
L 89.713361 -90.958289 
L 88.011134 -90.958289 
L 86.308907 -90.958289 
L 84.60668 -90.958289 
L 82.904454 -90.958289 
L 81.202227 -90.958289 
z
" style="stroke: #c44e52; stroke-opacity: 0.2; stroke-width: 1.5"/>
    </defs>
    <g clip-path="url(#p2323430fe3)">
     <use xlink:href="#me31244ee23" x="0" y="216" style="fill: #c44e52; fill-opacity: 0.2; stroke: #c44e52; stroke-opacity: 0.2; stroke-width: 1.5"/>
    </g>
   </g>
   <g id="line2d_7">
    <path d="M 81.202227 125.041711 
L 82.904454 125.041711 
L 84.60668 125.041711 
L 86.308907 125.041711 
L 88.011134 125.041711 
L 89.713361 121.213135 
L 91.415587 117.334998 
L 93.117814 113.580763 
L 94.820041 113.586958 
L 96.522268 88.874677 
L 98.224494 86.563902 
L 99.926721 90.863306 
L 101.628948 79.086408 
L 103.331175 75.468465 
L 105.033401 67.439607 
L 106.735628 77.178315 
L 108.437855 67.761752 
L 110.140082 58.060215 
L 111.842308 69.601699 
L 113.544535 59.893966 
L 115.246762 54.367931 
L 116.948989 48.463994 
L 118.651215 48.402043 
L 120.353442 52.205839 
L 122.055669 59.856796 
L 123.757896 54.262614 
L 125.460122 52.224424 
L 127.162349 38.886359 
L 128.864576 35.039197 
L 130.566803 33.180665 
L 132.269029 34.983441 
L 133.971256 38.818213 
L 135.673483 34.952466 
L 137.37571 36.965876 
L 139.077936 36.916315 
L 140.780163 36.903925 
L 142.48239 33.050568 
L 144.184617 33.050568 
L 145.886843 36.9349 
L 147.58907 40.788257 
L 149.291297 33.093934 
L 150.993524 31.105305 
L 152.69575 33.093934 
L 154.397977 36.903925 
L 156.100204 33.069153 
L 157.802431 35.070173 
L 159.504657 33.106324 
L 161.206884 40.769671 
L 162.909111 36.965876 
L 164.611338 34.989637 
L 166.313564 35.026807 
L 168.015791 35.051588 
L 169.718018 31.167256 
L 171.420245 35.026807 
L 173.122471 33.062958 
L 174.824698 33.100129 
L 176.526925 31.117695 
L 178.229152 31.247792 
L 179.931378 33.056763 
L 181.633605 33.056763 
L 183.335832 33.087739 
L 185.038059 34.952466 
L 186.740285 35.008222 
L 188.442512 31.092914 
L 190.144739 36.9349 
L 191.846966 33.044373 
L 193.549192 34.977246 
L 195.251419 35.002027 
L 196.953646 33.100129 
L 198.655873 33.007202 
L 200.358099 40.782062 
L 202.060326 33.081544 
L 203.762553 36.94729 
L 205.46478 34.977246 
L 207.167007 36.9349 
L 208.869233 29.271553 
" clip-path="url(#p2323430fe3)" style="fill: none; stroke: #4c72b0; stroke-width: 2.25; stroke-linecap: round"/>
   </g>
   <g id="line2d_8">
    <path d="M 81.202227 125.041711 
L 82.904454 125.041711 
L 84.60668 125.041711 
L 86.308907 125.041711 
L 88.011134 125.041711 
L 89.713361 123.127423 
L 91.415587 117.365974 
L 93.117814 117.427925 
L 94.820041 105.762538 
L 96.522268 100.069235 
L 98.224494 98.111581 
L 99.926721 90.578331 
L 101.628948 84.767321 
L 103.331175 63.945566 
L 105.033401 67.712191 
L 106.735628 52.119107 
L 108.437855 50.087112 
L 110.140082 46.277121 
L 111.842308 46.239951 
L 113.544535 44.238931 
L 115.246762 38.477482 
L 116.948989 44.245126 
L 118.651215 38.570408 
L 120.353442 33.062958 
L 122.055669 36.637535 
L 123.757896 38.632359 
L 125.460122 40.509477 
L 127.162349 38.564213 
L 128.864576 32.771788 
L 130.566803 34.748027 
L 132.269029 36.544608 
L 133.971256 36.587974 
L 135.673483 36.563194 
L 137.37571 38.502262 
L 139.077936 28.955602 
" clip-path="url(#p2323430fe3)" style="fill: none; stroke: #dd8452; stroke-width: 2.25; stroke-linecap: round"/>
   </g>
   <g id="line2d_9">
    <path d="M 81.202227 125.041711 
L 82.904454 125.041711 
L 84.60668 125.041711 
L 86.308907 125.041711 
L 88.011134 123.090252 
L 89.713361 117.396949 
L 91.415587 113.617934 
L 93.117814 103.965957 
L 94.820041 107.732582 
L 96.522268 92.412083 
L 98.224494 82.846838 
L 99.926721 73.281593 
L 101.628948 65.389026 
L 103.331175 65.58727 
L 105.033401 61.616206 
L 106.735628 67.309509 
L 108.437855 59.664748 
L 110.140082 50.25438 
L 111.842308 52.019986 
L 113.544535 50.006576 
L 115.246762 57.78763 
L 116.948989 44.251321 
L 118.651215 52.01379 
L 120.353442 53.884713 
L 122.055669 53.909493 
L 123.757896 54.0272 
L 125.460122 51.958034 
L 127.162349 50.049942 
L 128.864576 57.793825 
L 130.566803 44.257517 
L 132.269029 44.369028 
L 133.971256 51.98901 
L 135.673483 40.497087 
L 137.37571 61.57284 
L 139.077936 44.294687 
L 140.780163 50.074722 
L 142.48239 51.98901 
L 144.184617 52.100522 
L 145.886843 44.356638 
L 147.58907 44.331858 
L 149.291297 50.018966 
L 150.993524 48.22858 
L 152.69575 46.407219 
L 154.397977 50.142868 
L 156.100204 40.360794 
L 157.802431 46.258536 
L 159.504657 40.676745 
L 161.206884 50.074722 
L 162.909111 48.24097 
L 164.611338 48.284336 
L 166.313564 53.903298 
L 168.015791 50.260575 
L 169.718018 38.564213 
L 171.420245 36.65612 
L 173.122471 34.748027 
L 174.824698 44.307077 
L 176.526925 46.233756 
L 178.229152 34.797588 
L 179.931378 42.355619 
L 181.633605 36.649925 
L 183.335832 34.828564 
L 185.038059 34.723247 
L 186.740285 44.325663 
L 188.442512 40.441331 
L 190.144739 46.227561 
L 191.846966 48.179019 
L 193.549192 48.179019 
L 195.251419 38.545628 
L 196.953646 36.61895 
L 198.655873 30.993793 
L 200.358099 30.950427 
L 202.060326 34.772808 
L 203.762553 38.582799 
L 205.46478 38.570408 
L 207.167007 36.606559 
L 208.869233 46.246146 
L 210.57146 44.344248 
L 212.273687 38.558018 
L 213.975914 48.179019 
L 215.67814 29.011358 
" clip-path="url(#p2323430fe3)" style="fill: none; stroke: #55a868; stroke-width: 2.25; stroke-linecap: round"/>
   </g>
   <g id="line2d_10">
    <path d="M 81.202227 125.041711 
L 82.904454 125.041711 
L 84.60668 125.041711 
L 86.308907 125.041711 
L 88.011134 125.041711 
L 89.713361 125.041711 
L 91.415587 125.041711 
L 93.117814 123.108838 
L 94.820041 121.169769 
L 96.522268 113.500227 
L 98.224494 107.676826 
L 99.926721 103.916396 
L 101.628948 96.135342 
L 103.331175 78.764262 
L 105.033401 90.429649 
L 106.735628 65.531514 
L 108.437855 69.483992 
L 110.140082 69.38487 
L 111.842308 59.695723 
L 113.544535 65.376636 
L 115.246762 58.165532 
L 116.948989 57.998264 
L 118.651215 65.61205 
L 120.353442 59.949722 
L 122.055669 53.866127 
L 123.757896 69.329114 
L 125.460122 61.764889 
L 127.162349 69.223798 
L 128.864576 59.627577 
L 130.566803 55.885732 
L 132.269029 48.315312 
L 133.971256 53.872323 
L 135.673483 50.316331 
L 137.37571 58.035434 
L 139.077936 57.830996 
L 140.780163 56.083976 
L 142.48239 55.972464 
L 144.184617 53.971444 
L 145.886843 57.880557 
L 147.58907 67.396241 
L 149.291297 48.234775 
L 150.993524 65.562489 
L 152.69575 46.500145 
L 154.397977 50.322526 
L 156.100204 44.517711 
L 157.802431 38.805822 
L 159.504657 42.560057 
L 161.206884 46.413414 
L 162.909111 40.72011 
L 164.611338 40.813037 
L 166.313564 35.138319 
L 168.015791 33.205446 
L 169.718018 35.051588 
L 171.420245 37.015437 
L 173.122471 33.18686 
L 174.824698 35.119734 
L 176.526925 36.978266 
L 178.229152 36.978266 
L 179.931378 44.678784 
L 181.633605 34.995832 
L 183.335832 33.155885 
L 185.038059 38.892554 
L 186.740285 35.119734 
L 188.442512 35.082563 
L 190.144739 33.17447 
L 191.846966 35.057783 
L 193.549192 33.248812 
L 195.251419 35.144514 
L 196.953646 37.034022 
L 198.655873 38.911139 
L 200.358099 33.16208 
L 202.060326 33.131104 
L 203.762553 31.241597 
L 205.46478 33.16208 
L 207.167007 31.204426 
L 208.869233 36.965876 
L 210.57146 40.794452 
L 212.273687 36.972071 
L 213.975914 36.984461 
L 215.67814 40.819232 
L 217.380367 38.942115 
L 219.082594 37.027827 
L 220.784821 36.972071 
L 222.487047 33.155885 
L 224.189274 35.070173 
L 225.891501 35.088758 
L 227.593728 35.101148 
L 229.295954 36.953485 
L 230.998181 38.873969 
L 232.700408 34.995832 
L 234.402635 36.965876 
L 236.104861 37.009241 
L 237.807088 35.033002 
L 239.509315 35.039197 
L 241.211542 36.928705 
L 242.913768 36.953485 
L 244.615995 40.874988 
L 246.318222 36.953485 
L 248.020449 34.971051 
L 249.722675 37.027827 
" clip-path="url(#p2323430fe3)" style="fill: none; stroke: #c44e52; stroke-width: 2.25; stroke-linecap: round"/>
   </g>
   <g id="line2d_11"/>
   <g id="line2d_12"/>
   <g id="line2d_13"/>
   <g id="line2d_14"/>
   <g id="patch_3">
    <path d="M 79.5 125.041711 
L 79.5 25.92 
" style="fill: none; stroke: #ffffff; stroke-width: 1.875; stroke-linejoin: miter; stroke-linecap: square"/>
   </g>
   <g id="patch_4">
    <path d="M 249.722675 125.041711 
L 249.722675 25.92 
" style="fill: none; stroke: #ffffff; stroke-width: 1.875; stroke-linejoin: miter; stroke-linecap: square"/>
   </g>
   <g id="patch_5">
    <path d="M 79.5 125.041711 
L 249.722675 125.041711 
" style="fill: none; stroke: #ffffff; stroke-width: 1.875; stroke-linejoin: miter; stroke-linecap: square"/>
   </g>
   <g id="patch_6">
    <path d="M 79.5 25.92 
L 249.722675 25.92 
" style="fill: none; stroke: #ffffff; stroke-width: 1.875; stroke-linejoin: miter; stroke-linecap: square"/>
   </g>
   <g id="legend_1">
    <g id="patch_7">
     <path d="M 91.05 161.66625 
L 310.579922 161.66625 
Q 313.879922 161.66625 313.879922 158.36625 
L 313.879922 37.47 
Q 313.879922 34.17 310.579922 34.17 
L 91.05 34.17 
Q 87.75 34.17 87.75 37.47 
L 87.75 158.36625 
Q 87.75 161.66625 91.05 161.66625 
z
" style="fill: #eaeaf2; opacity: 0.8; stroke: #cccccc; stroke-width: 1.5; stroke-linejoin: miter"/>
    </g>
    <g id="text_10">
     <!-- Approach -->
     <g style="fill: #262626" transform="translate(158.059336 54.447187) scale(0.18 -0.18)">
      <defs>
       <path id="DejaVuSans-41" d="M 2188 4044 
L 1331 1722 
L 3047 1722 
L 2188 4044 
z
M 1831 4666 
L 2547 4666 
L 4325 0 
L 3669 0 
L 3244 1197 
L 1141 1197 
L 716 0 
L 50 0 
L 1831 4666 
z
" transform="scale(0.015625)"/>
       <path id="DejaVuSans-61" d="M 2194 1759 
Q 1497 1759 1228 1600 
Q 959 1441 959 1056 
Q 959 750 1161 570 
Q 1363 391 1709 391 
Q 2188 391 2477 730 
Q 2766 1069 2766 1631 
L 2766 1759 
L 2194 1759 
z
M 3341 1997 
L 3341 0 
L 2766 0 
L 2766 531 
Q 2569 213 2275 61 
Q 1981 -91 1556 -91 
Q 1019 -91 701 211 
Q 384 513 384 1019 
Q 384 1609 779 1909 
Q 1175 2209 1959 2209 
L 2766 2209 
L 2766 2266 
Q 2766 2663 2505 2880 
Q 2244 3097 1772 3097 
Q 1472 3097 1187 3025 
Q 903 2953 641 2809 
L 641 3341 
Q 956 3463 1253 3523 
Q 1550 3584 1831 3584 
Q 2591 3584 2966 3190 
Q 3341 2797 3341 1997 
z
" transform="scale(0.015625)"/>
       <path id="DejaVuSans-68" d="M 3513 2113 
L 3513 0 
L 2938 0 
L 2938 2094 
Q 2938 2591 2744 2837 
Q 2550 3084 2163 3084 
Q 1697 3084 1428 2787 
Q 1159 2491 1159 1978 
L 1159 0 
L 581 0 
L 581 4863 
L 1159 4863 
L 1159 2956 
Q 1366 3272 1645 3428 
Q 1925 3584 2291 3584 
Q 2894 3584 3203 3211 
Q 3513 2838 3513 2113 
z
" transform="scale(0.015625)"/>
      </defs>
      <use xlink:href="#DejaVuSans-41"/>
      <use xlink:href="#DejaVuSans-70" x="68.408203"/>
      <use xlink:href="#DejaVuSans-70" x="131.884766"/>
      <use xlink:href="#DejaVuSans-72" x="195.361328"/>
      <use xlink:href="#DejaVuSans-6f" x="234.224609"/>
      <use xlink:href="#DejaVuSans-61" x="295.40625"/>
      <use xlink:href="#DejaVuSans-63" x="356.685547"/>
      <use xlink:href="#DejaVuSans-68" x="411.666016"/>
     </g>
    </g>
    <g id="line2d_15">
     <path d="M 94.35 73.203047 
L 110.85 73.203047 
L 127.35 73.203047 
" style="fill: none; stroke: #4c72b0; stroke-width: 2.25; stroke-linecap: round"/>
    </g>
    <g id="text_11">
     <!-- Combined -->
     <g style="fill: #262626" transform="translate(140.55 78.978047) scale(0.165 -0.165)">
      <defs>
       <path id="DejaVuSans-43" d="M 4122 4306 
L 4122 3641 
Q 3803 3938 3442 4084 
Q 3081 4231 2675 4231 
Q 1875 4231 1450 3742 
Q 1025 3253 1025 2328 
Q 1025 1406 1450 917 
Q 1875 428 2675 428 
Q 3081 428 3442 575 
Q 3803 722 4122 1019 
L 4122 359 
Q 3791 134 3420 21 
Q 3050 -91 2638 -91 
Q 1578 -91 968 557 
Q 359 1206 359 2328 
Q 359 3453 968 4101 
Q 1578 4750 2638 4750 
Q 3056 4750 3426 4639 
Q 3797 4528 4122 4306 
z
" transform="scale(0.015625)"/>
       <path id="DejaVuSans-62" d="M 3116 1747 
Q 3116 2381 2855 2742 
Q 2594 3103 2138 3103 
Q 1681 3103 1420 2742 
Q 1159 2381 1159 1747 
Q 1159 1113 1420 752 
Q 1681 391 2138 391 
Q 2594 391 2855 752 
Q 3116 1113 3116 1747 
z
M 1159 2969 
Q 1341 3281 1617 3432 
Q 1894 3584 2278 3584 
Q 2916 3584 3314 3078 
Q 3713 2572 3713 1747 
Q 3713 922 3314 415 
Q 2916 -91 2278 -91 
Q 1894 -91 1617 61 
Q 1341 213 1159 525 
L 1159 0 
L 581 0 
L 581 4863 
L 1159 4863 
L 1159 2969 
z
" transform="scale(0.015625)"/>
       <path id="DejaVuSans-6e" d="M 3513 2113 
L 3513 0 
L 2938 0 
L 2938 2094 
Q 2938 2591 2744 2837 
Q 2550 3084 2163 3084 
Q 1697 3084 1428 2787 
Q 1159 2491 1159 1978 
L 1159 0 
L 581 0 
L 581 3500 
L 1159 3500 
L 1159 2956 
Q 1366 3272 1645 3428 
Q 1925 3584 2291 3584 
Q 2894 3584 3203 3211 
Q 3513 2838 3513 2113 
z
" transform="scale(0.015625)"/>
       <path id="DejaVuSans-64" d="M 2906 2969 
L 2906 4863 
L 3481 4863 
L 3481 0 
L 2906 0 
L 2906 525 
Q 2725 213 2448 61 
Q 2172 -91 1784 -91 
Q 1150 -91 751 415 
Q 353 922 353 1747 
Q 353 2572 751 3078 
Q 1150 3584 1784 3584 
Q 2172 3584 2448 3432 
Q 2725 3281 2906 2969 
z
M 947 1747 
Q 947 1113 1208 752 
Q 1469 391 1925 391 
Q 2381 391 2643 752 
Q 2906 1113 2906 1747 
Q 2906 2381 2643 2742 
Q 2381 3103 1925 3103 
Q 1469 3103 1208 2742 
Q 947 2381 947 1747 
z
" transform="scale(0.015625)"/>
      </defs>
      <use xlink:href="#DejaVuSans-43"/>
      <use xlink:href="#DejaVuSans-6f" x="69.824219"/>
      <use xlink:href="#DejaVuSans-6d" x="131.005859"/>
      <use xlink:href="#DejaVuSans-62" x="228.417969"/>
      <use xlink:href="#DejaVuSans-69" x="291.894531"/>
      <use xlink:href="#DejaVuSans-6e" x="319.677734"/>
      <use xlink:href="#DejaVuSans-65" x="383.056641"/>
      <use xlink:href="#DejaVuSans-64" x="444.580078"/>
     </g>
    </g>
    <g id="line2d_16">
     <path d="M 94.35 97.421953 
L 110.85 97.421953 
L 127.35 97.421953 
" style="fill: none; stroke: #dd8452; stroke-width: 2.25; stroke-linecap: round"/>
    </g>
    <g id="text_12">
     <!-- Proximal Curriculum -->
     <g style="fill: #262626" transform="translate(140.55 103.196953) scale(0.165 -0.165)">
      <defs>
       <path id="DejaVuSans-50" d="M 1259 4147 
L 1259 2394 
L 2053 2394 
Q 2494 2394 2734 2622 
Q 2975 2850 2975 3272 
Q 2975 3691 2734 3919 
Q 2494 4147 2053 4147 
L 1259 4147 
z
M 628 4666 
L 2053 4666 
Q 2838 4666 3239 4311 
Q 3641 3956 3641 3272 
Q 3641 2581 3239 2228 
Q 2838 1875 2053 1875 
L 1259 1875 
L 1259 0 
L 628 0 
L 628 4666 
z
" transform="scale(0.015625)"/>
       <path id="DejaVuSans-78" d="M 3513 3500 
L 2247 1797 
L 3578 0 
L 2900 0 
L 1881 1375 
L 863 0 
L 184 0 
L 1544 1831 
L 300 3500 
L 978 3500 
L 1906 2253 
L 2834 3500 
L 3513 3500 
z
" transform="scale(0.015625)"/>
       <path id="DejaVuSans-6c" d="M 603 4863 
L 1178 4863 
L 1178 0 
L 603 0 
L 603 4863 
z
" transform="scale(0.015625)"/>
       <path id="DejaVuSans-20" transform="scale(0.015625)"/>
       <path id="DejaVuSans-75" d="M 544 1381 
L 544 3500 
L 1119 3500 
L 1119 1403 
Q 1119 906 1312 657 
Q 1506 409 1894 409 
Q 2359 409 2629 706 
Q 2900 1003 2900 1516 
L 2900 3500 
L 3475 3500 
L 3475 0 
L 2900 0 
L 2900 538 
Q 2691 219 2414 64 
Q 2138 -91 1772 -91 
Q 1169 -91 856 284 
Q 544 659 544 1381 
z
M 1991 3584 
L 1991 3584 
z
" transform="scale(0.015625)"/>
      </defs>
      <use xlink:href="#DejaVuSans-50"/>
      <use xlink:href="#DejaVuSans-72" x="58.552734"/>
      <use xlink:href="#DejaVuSans-6f" x="97.416016"/>
      <use xlink:href="#DejaVuSans-78" x="155.472656"/>
      <use xlink:href="#DejaVuSans-69" x="214.652344"/>
      <use xlink:href="#DejaVuSans-6d" x="242.435547"/>
      <use xlink:href="#DejaVuSans-61" x="339.847656"/>
      <use xlink:href="#DejaVuSans-6c" x="401.126953"/>
      <use xlink:href="#DejaVuSans-20" x="428.910156"/>
      <use xlink:href="#DejaVuSans-43" x="460.697266"/>
      <use xlink:href="#DejaVuSans-75" x="530.521484"/>
      <use xlink:href="#DejaVuSans-72" x="593.900391"/>
      <use xlink:href="#DejaVuSans-72" x="633.263672"/>
      <use xlink:href="#DejaVuSans-69" x="674.376953"/>
      <use xlink:href="#DejaVuSans-63" x="702.160156"/>
      <use xlink:href="#DejaVuSans-75" x="757.140625"/>
      <use xlink:href="#DejaVuSans-6c" x="820.519531"/>
      <use xlink:href="#DejaVuSans-75" x="848.302734"/>
      <use xlink:href="#DejaVuSans-6d" x="911.681641"/>
     </g>
    </g>
    <g id="line2d_17">
     <path d="M 94.35 121.640859 
L 110.85 121.640859 
L 127.35 121.640859 
" style="fill: none; stroke: #55a868; stroke-width: 2.25; stroke-linecap: round"/>
    </g>
    <g id="text_13">
     <!-- State Novelty (RND) -->
     <g style="fill: #262626" transform="translate(140.55 127.415859) scale(0.165 -0.165)">
      <defs>
       <path id="DejaVuSans-4e" d="M 628 4666 
L 1478 4666 
L 3547 763 
L 3547 4666 
L 4159 4666 
L 4159 0 
L 3309 0 
L 1241 3903 
L 1241 0 
L 628 0 
L 628 4666 
z
" transform="scale(0.015625)"/>
       <path id="DejaVuSans-76" d="M 191 3500 
L 800 3500 
L 1894 563 
L 2988 3500 
L 3597 3500 
L 2284 0 
L 1503 0 
L 191 3500 
z
" transform="scale(0.015625)"/>
       <path id="DejaVuSans-79" d="M 2059 -325 
Q 1816 -950 1584 -1140 
Q 1353 -1331 966 -1331 
L 506 -1331 
L 506 -850 
L 844 -850 
Q 1081 -850 1212 -737 
Q 1344 -625 1503 -206 
L 1606 56 
L 191 3500 
L 800 3500 
L 1894 763 
L 2988 3500 
L 3597 3500 
L 2059 -325 
z
" transform="scale(0.015625)"/>
       <path id="DejaVuSans-28" d="M 1984 4856 
Q 1566 4138 1362 3434 
Q 1159 2731 1159 2009 
Q 1159 1288 1364 580 
Q 1569 -128 1984 -844 
L 1484 -844 
Q 1016 -109 783 600 
Q 550 1309 550 2009 
Q 550 2706 781 3412 
Q 1013 4119 1484 4856 
L 1984 4856 
z
" transform="scale(0.015625)"/>
       <path id="DejaVuSans-52" d="M 2841 2188 
Q 3044 2119 3236 1894 
Q 3428 1669 3622 1275 
L 4263 0 
L 3584 0 
L 2988 1197 
Q 2756 1666 2539 1819 
Q 2322 1972 1947 1972 
L 1259 1972 
L 1259 0 
L 628 0 
L 628 4666 
L 2053 4666 
Q 2853 4666 3247 4331 
Q 3641 3997 3641 3322 
Q 3641 2881 3436 2590 
Q 3231 2300 2841 2188 
z
M 1259 4147 
L 1259 2491 
L 2053 2491 
Q 2509 2491 2742 2702 
Q 2975 2913 2975 3322 
Q 2975 3731 2742 3939 
Q 2509 4147 2053 4147 
L 1259 4147 
z
" transform="scale(0.015625)"/>
       <path id="DejaVuSans-44" d="M 1259 4147 
L 1259 519 
L 2022 519 
Q 2988 519 3436 956 
Q 3884 1394 3884 2338 
Q 3884 3275 3436 3711 
Q 2988 4147 2022 4147 
L 1259 4147 
z
M 628 4666 
L 1925 4666 
Q 3281 4666 3915 4102 
Q 4550 3538 4550 2338 
Q 4550 1131 3912 565 
Q 3275 0 1925 0 
L 628 0 
L 628 4666 
z
" transform="scale(0.015625)"/>
       <path id="DejaVuSans-29" d="M 513 4856 
L 1013 4856 
Q 1481 4119 1714 3412 
Q 1947 2706 1947 2009 
Q 1947 1309 1714 600 
Q 1481 -109 1013 -844 
L 513 -844 
Q 928 -128 1133 580 
Q 1338 1288 1338 2009 
Q 1338 2731 1133 3434 
Q 928 4138 513 4856 
z
" transform="scale(0.015625)"/>
      </defs>
      <use xlink:href="#DejaVuSans-53"/>
      <use xlink:href="#DejaVuSans-74" x="63.476562"/>
      <use xlink:href="#DejaVuSans-61" x="102.685547"/>
      <use xlink:href="#DejaVuSans-74" x="163.964844"/>
      <use xlink:href="#DejaVuSans-65" x="203.173828"/>
      <use xlink:href="#DejaVuSans-20" x="264.697266"/>
      <use xlink:href="#DejaVuSans-4e" x="296.484375"/>
      <use xlink:href="#DejaVuSans-6f" x="371.289062"/>
      <use xlink:href="#DejaVuSans-76" x="432.470703"/>
      <use xlink:href="#DejaVuSans-65" x="491.650391"/>
      <use xlink:href="#DejaVuSans-6c" x="553.173828"/>
      <use xlink:href="#DejaVuSans-74" x="580.957031"/>
      <use xlink:href="#DejaVuSans-79" x="620.166016"/>
      <use xlink:href="#DejaVuSans-20" x="679.345703"/>
      <use xlink:href="#DejaVuSans-28" x="711.132812"/>
      <use xlink:href="#DejaVuSans-52" x="750.146484"/>
      <use xlink:href="#DejaVuSans-4e" x="819.628906"/>
      <use xlink:href="#DejaVuSans-44" x="894.433594"/>
      <use xlink:href="#DejaVuSans-29" x="971.435547"/>
     </g>
    </g>
    <g id="line2d_18">
     <path d="M 94.35 145.859766 
L 110.85 145.859766 
L 127.35 145.859766 
" style="fill: none; stroke: #c44e52; stroke-width: 2.25; stroke-linecap: round"/>
    </g>
    <g id="text_14">
     <!-- Vanilla -->
     <g style="fill: #262626" transform="translate(140.55 151.634766) scale(0.165 -0.165)">
      <defs>
       <path id="DejaVuSans-56" d="M 1831 0 
L 50 4666 
L 709 4666 
L 2188 738 
L 3669 4666 
L 4325 4666 
L 2547 0 
L 1831 0 
z
" transform="scale(0.015625)"/>
      </defs>
      <use xlink:href="#DejaVuSans-56"/>
      <use xlink:href="#DejaVuSans-61" x="60.658203"/>
      <use xlink:href="#DejaVuSans-6e" x="121.9375"/>
      <use xlink:href="#DejaVuSans-69" x="185.316406"/>
      <use xlink:href="#DejaVuSans-6c" x="213.099609"/>
      <use xlink:href="#DejaVuSans-6c" x="240.882812"/>
      <use xlink:href="#DejaVuSans-61" x="268.666016"/>
     </g>
    </g>
   </g>
  </g>
 </g>
 <defs>
  <clipPath id="p2323430fe3">
   <rect x="79.5" y="25.92" width="170.222675" height="99.121711"/>
  </clipPath>
 </defs>
</svg>
