<?xml version="1.0" encoding="utf-8" standalone="no"?>
<!DOCTYPE svg PUBLIC "-//W3C//DTD SVG 1.1//EN"
  "http://www.w3.org/Graphics/SVG/1.1/DTD/svg11.dtd">
<svg xmlns:xlink="http://www.w3.org/1999/xlink" width="288pt" height="180pt" viewBox="0 0 288 180" xmlns="http://www.w3.org/2000/svg" version="1.1">
 <metadata>
  <rdf:RDF xmlns:dc="http://purl.org/dc/elements/1.1/" xmlns:cc="http://creativecommons.org/ns#" xmlns:rdf="http://www.w3.org/1999/02/22-rdf-syntax-ns#">
   <cc:Work>
    <dc:type rdf:resource="http://purl.org/dc/dcmitype/StillImage"/>
    <dc:date>1980-01-01T00:00:00+00:00</dc:date>
    <dc:format>image/svg+xml</dc:format>
    <dc:creator>
     <cc:Agent>
      <dc:title>Matplotlib v3.9.2, https://matplotlib.org/</dc:title>
     </cc:Agent>
    </dc:creator>
   </cc:Work>
  </rdf:RDF>
 </metadata>
 <defs>
  <style type="text/css">*{stroke-linejoin: round; stroke-linecap: butt}</style>
 </defs>
 <g id="figure_1">
  <g id="patch_1">
   <path d="M 0 180 
L 288 180 
L 288 0 
L 0 0 
z
" style="fill: #ffffff"/>
  </g>
  <g id="axes_1">
   <g id="patch_2">
    <path d="M 46.068 138.612 
L 270.657 138.612 
L 270.657 13.968 
L 46.068 13.968 
z
" style="fill: #eaeaf2"/>
   </g>
   <g id="matplotlib.axis_1">
    <g id="xtick_1">
     <g id="line2d_1">
      <path d="M 46.068 138.612 
L 46.068 13.968 
" clip-path="url(#pedf21549bc)" style="fill: none; stroke: #ffffff; stroke-width: 0.8; stroke-linecap: round"/>
     </g>
     <g id="text_1">
      <!-- 0.0 -->
      <g style="fill: #262626" transform="translate(39.070625 153.598625) scale(0.088 -0.088)">
       <defs>
        <path id="DejaVuSans-30" d="M 2034 4250 
Q 1547 4250 1301 3770 
Q 1056 3291 1056 2328 
Q 1056 1369 1301 889 
Q 1547 409 2034 409 
Q 2525 409 2770 889 
Q 3016 1369 3016 2328 
Q 3016 3291 2770 3770 
Q 2525 4250 2034 4250 
z
M 2034 4750 
Q 2819 4750 3233 4129 
Q 3647 3509 3647 2328 
Q 3647 1150 3233 529 
Q 2819 -91 2034 -91 
Q 1250 -91 836 529 
Q 422 1150 422 2328 
Q 422 3509 836 4129 
Q 1250 4750 2034 4750 
z
" transform="scale(0.015625)"/>
        <path id="DejaVuSans-2e" d="M 684 794 
L 1344 794 
L 1344 0 
L 684 0 
L 684 794 
z
" transform="scale(0.015625)"/>
       </defs>
       <use xlink:href="#DejaVuSans-30"/>
       <use xlink:href="#DejaVuSans-2e" x="63.623047"/>
       <use xlink:href="#DejaVuSans-30" x="95.410156"/>
      </g>
     </g>
    </g>
    <g id="xtick_2">
     <g id="line2d_2">
      <path d="M 90.9858 138.612 
L 90.9858 13.968 
" clip-path="url(#pedf21549bc)" style="fill: none; stroke: #ffffff; stroke-width: 0.8; stroke-linecap: round"/>
     </g>
     <g id="text_2">
      <!-- 0.2 -->
      <g style="fill: #262626" transform="translate(83.988425 153.598625) scale(0.088 -0.088)">
       <defs>
        <path id="DejaVuSans-32" d="M 1228 531 
L 3431 531 
L 3431 0 
L 469 0 
L 469 531 
Q 828 903 1448 1529 
Q 2069 2156 2228 2338 
Q 2531 2678 2651 2914 
Q 2772 3150 2772 3378 
Q 2772 3750 2511 3984 
Q 2250 4219 1831 4219 
Q 1534 4219 1204 4116 
Q 875 4013 500 3803 
L 500 4441 
Q 881 4594 1212 4672 
Q 1544 4750 1819 4750 
Q 2544 4750 2975 4387 
Q 3406 4025 3406 3419 
Q 3406 3131 3298 2873 
Q 3191 2616 2906 2266 
Q 2828 2175 2409 1742 
Q 1991 1309 1228 531 
z
" transform="scale(0.015625)"/>
       </defs>
       <use xlink:href="#DejaVuSans-30"/>
       <use xlink:href="#DejaVuSans-2e" x="63.623047"/>
       <use xlink:href="#DejaVuSans-32" x="95.410156"/>
      </g>
     </g>
    </g>
    <g id="xtick_3">
     <g id="line2d_3">
      <path d="M 135.9036 138.612 
L 135.9036 13.968 
" clip-path="url(#pedf21549bc)" style="fill: none; stroke: #ffffff; stroke-width: 0.8; stroke-linecap: round"/>
     </g>
     <g id="text_3">
      <!-- 0.4 -->
      <g style="fill: #262626" transform="translate(128.906225 153.598625) scale(0.088 -0.088)">
       <defs>
        <path id="DejaVuSans-34" d="M 2419 4116 
L 825 1625 
L 2419 1625 
L 2419 4116 
z
M 2253 4666 
L 3047 4666 
L 3047 1625 
L 3713 1625 
L 3713 1100 
L 3047 1100 
L 3047 0 
L 2419 0 
L 2419 1100 
L 313 1100 
L 313 1709 
L 2253 4666 
z
" transform="scale(0.015625)"/>
       </defs>
       <use xlink:href="#DejaVuSans-30"/>
       <use xlink:href="#DejaVuSans-2e" x="63.623047"/>
       <use xlink:href="#DejaVuSans-34" x="95.410156"/>
      </g>
     </g>
    </g>
    <g id="xtick_4">
     <g id="line2d_4">
      <path d="M 180.8214 138.612 
L 180.8214 13.968 
" clip-path="url(#pedf21549bc)" style="fill: none; stroke: #ffffff; stroke-width: 0.8; stroke-linecap: round"/>
     </g>
     <g id="text_4">
      <!-- 0.6 -->
      <g style="fill: #262626" transform="translate(173.824025 153.598625) scale(0.088 -0.088)">
       <defs>
        <path id="DejaVuSans-36" d="M 2113 2584 
Q 1688 2584 1439 2293 
Q 1191 2003 1191 1497 
Q 1191 994 1439 701 
Q 1688 409 2113 409 
Q 2538 409 2786 701 
Q 3034 994 3034 1497 
Q 3034 2003 2786 2293 
Q 2538 2584 2113 2584 
z
M 3366 4563 
L 3366 3988 
Q 3128 4100 2886 4159 
Q 2644 4219 2406 4219 
Q 1781 4219 1451 3797 
Q 1122 3375 1075 2522 
Q 1259 2794 1537 2939 
Q 1816 3084 2150 3084 
Q 2853 3084 3261 2657 
Q 3669 2231 3669 1497 
Q 3669 778 3244 343 
Q 2819 -91 2113 -91 
Q 1303 -91 875 529 
Q 447 1150 447 2328 
Q 447 3434 972 4092 
Q 1497 4750 2381 4750 
Q 2619 4750 2861 4703 
Q 3103 4656 3366 4563 
z
" transform="scale(0.015625)"/>
       </defs>
       <use xlink:href="#DejaVuSans-30"/>
       <use xlink:href="#DejaVuSans-2e" x="63.623047"/>
       <use xlink:href="#DejaVuSans-36" x="95.410156"/>
      </g>
     </g>
    </g>
    <g id="xtick_5">
     <g id="line2d_5">
      <path d="M 225.7392 138.612 
L 225.7392 13.968 
" clip-path="url(#pedf21549bc)" style="fill: none; stroke: #ffffff; stroke-width: 0.8; stroke-linecap: round"/>
     </g>
     <g id="text_5">
      <!-- 0.8 -->
      <g style="fill: #262626" transform="translate(218.741825 153.598625) scale(0.088 -0.088)">
       <defs>
        <path id="DejaVuSans-38" d="M 2034 2216 
Q 1584 2216 1326 1975 
Q 1069 1734 1069 1313 
Q 1069 891 1326 650 
Q 1584 409 2034 409 
Q 2484 409 2743 651 
Q 3003 894 3003 1313 
Q 3003 1734 2745 1975 
Q 2488 2216 2034 2216 
z
M 1403 2484 
Q 997 2584 770 2862 
Q 544 3141 544 3541 
Q 544 4100 942 4425 
Q 1341 4750 2034 4750 
Q 2731 4750 3128 4425 
Q 3525 4100 3525 3541 
Q 3525 3141 3298 2862 
Q 3072 2584 2669 2484 
Q 3125 2378 3379 2068 
Q 3634 1759 3634 1313 
Q 3634 634 3220 271 
Q 2806 -91 2034 -91 
Q 1263 -91 848 271 
Q 434 634 434 1313 
Q 434 1759 690 2068 
Q 947 2378 1403 2484 
z
M 1172 3481 
Q 1172 3119 1398 2916 
Q 1625 2713 2034 2713 
Q 2441 2713 2670 2916 
Q 2900 3119 2900 3481 
Q 2900 3844 2670 4047 
Q 2441 4250 2034 4250 
Q 1625 4250 1398 4047 
Q 1172 3844 1172 3481 
z
" transform="scale(0.015625)"/>
       </defs>
       <use xlink:href="#DejaVuSans-30"/>
       <use xlink:href="#DejaVuSans-2e" x="63.623047"/>
       <use xlink:href="#DejaVuSans-38" x="95.410156"/>
      </g>
     </g>
    </g>
    <g id="xtick_6">
     <g id="line2d_6">
      <path d="M 270.657 138.612 
L 270.657 13.968 
" clip-path="url(#pedf21549bc)" style="fill: none; stroke: #ffffff; stroke-width: 0.8; stroke-linecap: round"/>
     </g>
     <g id="text_6">
      <!-- 1.0 -->
      <g style="fill: #262626" transform="translate(263.659625 153.598625) scale(0.088 -0.088)">
       <defs>
        <path id="DejaVuSans-31" d="M 794 531 
L 1825 531 
L 1825 4091 
L 703 3866 
L 703 4441 
L 1819 4666 
L 2450 4666 
L 2450 531 
L 3481 531 
L 3481 0 
L 794 0 
L 794 531 
z
" transform="scale(0.015625)"/>
       </defs>
       <use xlink:href="#DejaVuSans-31"/>
       <use xlink:href="#DejaVuSans-2e" x="63.623047"/>
       <use xlink:href="#DejaVuSans-30" x="95.410156"/>
      </g>
     </g>
    </g>
    <g id="text_7">
     <!-- Timestep -->
     <g style="fill: #262626" transform="translate(136.23525 166.72325) scale(0.096 -0.096)">
      <defs>
       <path id="DejaVuSans-54" d="M -19 4666 
L 3928 4666 
L 3928 4134 
L 2272 4134 
L 2272 0 
L 1638 0 
L 1638 4134 
L -19 4134 
L -19 4666 
z
" transform="scale(0.015625)"/>
       <path id="DejaVuSans-69" d="M 603 3500 
L 1178 3500 
L 1178 0 
L 603 0 
L 603 3500 
z
M 603 4863 
L 1178 4863 
L 1178 4134 
L 603 4134 
L 603 4863 
z
" transform="scale(0.015625)"/>
       <path id="DejaVuSans-6d" d="M 3328 2828 
Q 3544 3216 3844 3400 
Q 4144 3584 4550 3584 
Q 5097 3584 5394 3201 
Q 5691 2819 5691 2113 
L 5691 0 
L 5113 0 
L 5113 2094 
Q 5113 2597 4934 2840 
Q 4756 3084 4391 3084 
Q 3944 3084 3684 2787 
Q 3425 2491 3425 1978 
L 3425 0 
L 2847 0 
L 2847 2094 
Q 2847 2600 2669 2842 
Q 2491 3084 2119 3084 
Q 1678 3084 1418 2786 
Q 1159 2488 1159 1978 
L 1159 0 
L 581 0 
L 581 3500 
L 1159 3500 
L 1159 2956 
Q 1356 3278 1631 3431 
Q 1906 3584 2284 3584 
Q 2666 3584 2933 3390 
Q 3200 3197 3328 2828 
z
" transform="scale(0.015625)"/>
       <path id="DejaVuSans-65" d="M 3597 1894 
L 3597 1613 
L 953 1613 
Q 991 1019 1311 708 
Q 1631 397 2203 397 
Q 2534 397 2845 478 
Q 3156 559 3463 722 
L 3463 178 
Q 3153 47 2828 -22 
Q 2503 -91 2169 -91 
Q 1331 -91 842 396 
Q 353 884 353 1716 
Q 353 2575 817 3079 
Q 1281 3584 2069 3584 
Q 2775 3584 3186 3129 
Q 3597 2675 3597 1894 
z
M 3022 2063 
Q 3016 2534 2758 2815 
Q 2500 3097 2075 3097 
Q 1594 3097 1305 2825 
Q 1016 2553 972 2059 
L 3022 2063 
z
" transform="scale(0.015625)"/>
       <path id="DejaVuSans-73" d="M 2834 3397 
L 2834 2853 
Q 2591 2978 2328 3040 
Q 2066 3103 1784 3103 
Q 1356 3103 1142 2972 
Q 928 2841 928 2578 
Q 928 2378 1081 2264 
Q 1234 2150 1697 2047 
L 1894 2003 
Q 2506 1872 2764 1633 
Q 3022 1394 3022 966 
Q 3022 478 2636 193 
Q 2250 -91 1575 -91 
Q 1294 -91 989 -36 
Q 684 19 347 128 
L 347 722 
Q 666 556 975 473 
Q 1284 391 1588 391 
Q 1994 391 2212 530 
Q 2431 669 2431 922 
Q 2431 1156 2273 1281 
Q 2116 1406 1581 1522 
L 1381 1569 
Q 847 1681 609 1914 
Q 372 2147 372 2553 
Q 372 3047 722 3315 
Q 1072 3584 1716 3584 
Q 2034 3584 2315 3537 
Q 2597 3491 2834 3397 
z
" transform="scale(0.015625)"/>
       <path id="DejaVuSans-74" d="M 1172 4494 
L 1172 3500 
L 2356 3500 
L 2356 3053 
L 1172 3053 
L 1172 1153 
Q 1172 725 1289 603 
Q 1406 481 1766 481 
L 2356 481 
L 2356 0 
L 1766 0 
Q 1100 0 847 248 
Q 594 497 594 1153 
L 594 3053 
L 172 3053 
L 172 3500 
L 594 3500 
L 594 4494 
L 1172 4494 
z
" transform="scale(0.015625)"/>
       <path id="DejaVuSans-70" d="M 1159 525 
L 1159 -1331 
L 581 -1331 
L 581 3500 
L 1159 3500 
L 1159 2969 
Q 1341 3281 1617 3432 
Q 1894 3584 2278 3584 
Q 2916 3584 3314 3078 
Q 3713 2572 3713 1747 
Q 3713 922 3314 415 
Q 2916 -91 2278 -91 
Q 1894 -91 1617 61 
Q 1341 213 1159 525 
z
M 3116 1747 
Q 3116 2381 2855 2742 
Q 2594 3103 2138 3103 
Q 1681 3103 1420 2742 
Q 1159 2381 1159 1747 
Q 1159 1113 1420 752 
Q 1681 391 2138 391 
Q 2594 391 2855 752 
Q 3116 1113 3116 1747 
z
" transform="scale(0.015625)"/>
      </defs>
      <use xlink:href="#DejaVuSans-54"/>
      <use xlink:href="#DejaVuSans-69" x="57.958984"/>
      <use xlink:href="#DejaVuSans-6d" x="85.742188"/>
      <use xlink:href="#DejaVuSans-65" x="183.154297"/>
      <use xlink:href="#DejaVuSans-73" x="244.677734"/>
      <use xlink:href="#DejaVuSans-74" x="296.777344"/>
      <use xlink:href="#DejaVuSans-65" x="335.986328"/>
      <use xlink:href="#DejaVuSans-70" x="397.509766"/>
     </g>
    </g>
    <g id="text_8">
     <!-- 1e6 -->
     <g style="fill: #262626" transform="translate(254.04425 165.115375) scale(0.088 -0.088)">
      <use xlink:href="#DejaVuSans-31"/>
      <use xlink:href="#DejaVuSans-65" x="63.623047"/>
      <use xlink:href="#DejaVuSans-36" x="125.146484"/>
     </g>
    </g>
   </g>
   <g id="matplotlib.axis_2">
    <g id="ytick_1">
     <g id="line2d_7">
      <path d="M 46.068 138.612 
L 270.657 138.612 
" clip-path="url(#pedf21549bc)" style="fill: none; stroke: #ffffff; stroke-width: 0.8; stroke-linecap: round"/>
     </g>
     <g id="text_9">
      <!-- 0.0 -->
      <g style="fill: #262626" transform="translate(23.77325 141.955312) scale(0.088 -0.088)">
       <use xlink:href="#DejaVuSans-30"/>
       <use xlink:href="#DejaVuSans-2e" x="63.623047"/>
       <use xlink:href="#DejaVuSans-30" x="95.410156"/>
      </g>
     </g>
    </g>
    <g id="ytick_2">
     <g id="line2d_8">
      <path d="M 46.068 113.6832 
L 270.657 113.6832 
" clip-path="url(#pedf21549bc)" style="fill: none; stroke: #ffffff; stroke-width: 0.8; stroke-linecap: round"/>
     </g>
     <g id="text_10">
      <!-- 0.2 -->
      <g style="fill: #262626" transform="translate(23.77325 117.026512) scale(0.088 -0.088)">
       <use xlink:href="#DejaVuSans-30"/>
       <use xlink:href="#DejaVuSans-2e" x="63.623047"/>
       <use xlink:href="#DejaVuSans-32" x="95.410156"/>
      </g>
     </g>
    </g>
    <g id="ytick_3">
     <g id="line2d_9">
      <path d="M 46.068 88.7544 
L 270.657 88.7544 
" clip-path="url(#pedf21549bc)" style="fill: none; stroke: #ffffff; stroke-width: 0.8; stroke-linecap: round"/>
     </g>
     <g id="text_11">
      <!-- 0.4 -->
      <g style="fill: #262626" transform="translate(23.77325 92.097713) scale(0.088 -0.088)">
       <use xlink:href="#DejaVuSans-30"/>
       <use xlink:href="#DejaVuSans-2e" x="63.623047"/>
       <use xlink:href="#DejaVuSans-34" x="95.410156"/>
      </g>
     </g>
    </g>
    <g id="ytick_4">
     <g id="line2d_10">
      <path d="M 46.068 63.8256 
L 270.657 63.8256 
" clip-path="url(#pedf21549bc)" style="fill: none; stroke: #ffffff; stroke-width: 0.8; stroke-linecap: round"/>
     </g>
     <g id="text_12">
      <!-- 0.6 -->
      <g style="fill: #262626" transform="translate(23.77325 67.168912) scale(0.088 -0.088)">
       <use xlink:href="#DejaVuSans-30"/>
       <use xlink:href="#DejaVuSans-2e" x="63.623047"/>
       <use xlink:href="#DejaVuSans-36" x="95.410156"/>
      </g>
     </g>
    </g>
    <g id="ytick_5">
     <g id="line2d_11">
      <path d="M 46.068 38.8968 
L 270.657 38.8968 
" clip-path="url(#pedf21549bc)" style="fill: none; stroke: #ffffff; stroke-width: 0.8; stroke-linecap: round"/>
     </g>
     <g id="text_13">
      <!-- 0.8 -->
      <g style="fill: #262626" transform="translate(23.77325 42.240112) scale(0.088 -0.088)">
       <use xlink:href="#DejaVuSans-30"/>
       <use xlink:href="#DejaVuSans-2e" x="63.623047"/>
       <use xlink:href="#DejaVuSans-38" x="95.410156"/>
      </g>
     </g>
    </g>
    <g id="ytick_6">
     <g id="line2d_12">
      <path d="M 46.068 13.968 
L 270.657 13.968 
" clip-path="url(#pedf21549bc)" style="fill: none; stroke: #ffffff; stroke-width: 0.8; stroke-linecap: round"/>
     </g>
     <g id="text_14">
      <!-- 1.0 -->
      <g style="fill: #262626" transform="translate(23.77325 17.311312) scale(0.088 -0.088)">
       <use xlink:href="#DejaVuSans-31"/>
       <use xlink:href="#DejaVuSans-2e" x="63.623047"/>
       <use xlink:href="#DejaVuSans-30" x="95.410156"/>
      </g>
     </g>
    </g>
    <g id="text_15">
     <!-- Score -->
     <g style="fill: #262626" transform="translate(17.77675 89.73225) rotate(-90) scale(0.096 -0.096)">
      <defs>
       <path id="DejaVuSans-53" d="M 3425 4513 
L 3425 3897 
Q 3066 4069 2747 4153 
Q 2428 4238 2131 4238 
Q 1616 4238 1336 4038 
Q 1056 3838 1056 3469 
Q 1056 3159 1242 3001 
Q 1428 2844 1947 2747 
L 2328 2669 
Q 3034 2534 3370 2195 
Q 3706 1856 3706 1288 
Q 3706 609 3251 259 
Q 2797 -91 1919 -91 
Q 1588 -91 1214 -16 
Q 841 59 441 206 
L 441 856 
Q 825 641 1194 531 
Q 1563 422 1919 422 
Q 2459 422 2753 634 
Q 3047 847 3047 1241 
Q 3047 1584 2836 1778 
Q 2625 1972 2144 2069 
L 1759 2144 
Q 1053 2284 737 2584 
Q 422 2884 422 3419 
Q 422 4038 858 4394 
Q 1294 4750 2059 4750 
Q 2388 4750 2728 4690 
Q 3069 4631 3425 4513 
z
" transform="scale(0.015625)"/>
       <path id="DejaVuSans-63" d="M 3122 3366 
L 3122 2828 
Q 2878 2963 2633 3030 
Q 2388 3097 2138 3097 
Q 1578 3097 1268 2742 
Q 959 2388 959 1747 
Q 959 1106 1268 751 
Q 1578 397 2138 397 
Q 2388 397 2633 464 
Q 2878 531 3122 666 
L 3122 134 
Q 2881 22 2623 -34 
Q 2366 -91 2075 -91 
Q 1284 -91 818 406 
Q 353 903 353 1747 
Q 353 2603 823 3093 
Q 1294 3584 2113 3584 
Q 2378 3584 2631 3529 
Q 2884 3475 3122 3366 
z
" transform="scale(0.015625)"/>
       <path id="DejaVuSans-6f" d="M 1959 3097 
Q 1497 3097 1228 2736 
Q 959 2375 959 1747 
Q 959 1119 1226 758 
Q 1494 397 1959 397 
Q 2419 397 2687 759 
Q 2956 1122 2956 1747 
Q 2956 2369 2687 2733 
Q 2419 3097 1959 3097 
z
M 1959 3584 
Q 2709 3584 3137 3096 
Q 3566 2609 3566 1747 
Q 3566 888 3137 398 
Q 2709 -91 1959 -91 
Q 1206 -91 779 398 
Q 353 888 353 1747 
Q 353 2609 779 3096 
Q 1206 3584 1959 3584 
z
" transform="scale(0.015625)"/>
       <path id="DejaVuSans-72" d="M 2631 2963 
Q 2534 3019 2420 3045 
Q 2306 3072 2169 3072 
Q 1681 3072 1420 2755 
Q 1159 2438 1159 1844 
L 1159 0 
L 581 0 
L 581 3500 
L 1159 3500 
L 1159 2956 
Q 1341 3275 1631 3429 
Q 1922 3584 2338 3584 
Q 2397 3584 2469 3576 
Q 2541 3569 2628 3553 
L 2631 2963 
z
" transform="scale(0.015625)"/>
      </defs>
      <use xlink:href="#DejaVuSans-53"/>
      <use xlink:href="#DejaVuSans-63" x="63.476562"/>
      <use xlink:href="#DejaVuSans-6f" x="118.457031"/>
      <use xlink:href="#DejaVuSans-72" x="179.638672"/>
      <use xlink:href="#DejaVuSans-65" x="218.501953"/>
     </g>
    </g>
   </g>
   <g id="PolyCollection_1">
    <defs>
     <path id="m07de164847" d="M 48.31389 -41.388 
L 48.31389 -41.388 
L 50.55978 -41.388 
L 52.80567 -41.388 
L 55.05156 -41.388 
L 57.29745 -41.388 
L 59.54334 -41.388 
L 61.78923 -43.841929 
L 64.03512 -41.388 
L 66.28101 -48.445966 
L 68.5269 -55.72985 
L 70.77279 -55.901236 
L 73.01868 -53.377195 
L 75.26457 -67.913801 
L 77.51046 -72.665854 
L 79.75635 -72.751547 
L 82.00224 -72.743756 
L 84.24813 -82.310183 
L 86.49402 -99.167116 
L 88.73991 -101.302813 
L 90.9858 -99.199445 
L 93.23169 -108.719131 
L 95.47758 -123.03761 
L 97.72347 -123.201205 
L 99.96936 -116.213351 
L 102.21525 -99.433153 
L 104.46114 -106.592393 
L 106.70703 -99.35525 
L 108.95292 -135.428782 
L 111.19881 -140.074887 
L 113.4447 -147.156224 
L 115.69059 -140.386497 
L 117.93648 -125.81873 
L 120.18237 -140.331965 
L 122.42826 -132.837745 
L 124.67415 -133.094823 
L 126.92004 -133.040291 
L 129.16593 -147.678171 
L 131.41182 -147.608059 
L 133.65771 -132.992576 
L 135.9036 -118.456943 
L 138.14949 -147.483415 
L 140.39538 -154.915313 
L 142.64127 -147.482441 
L 144.88716 -133.040291 
L 147.13305 -147.505033 
L 149.37894 -139.989194 
L 151.62483 -147.467834 
L 153.87072 -118.526082 
L 156.11661 -132.876696 
L 158.3625 -140.293014 
L 160.60839 -140.121629 
L 162.85428 -140.059307 
L 165.10017 -154.712767 
L 167.34606 -140.121629 
L 169.59195 -147.600268 
L 171.83784 -147.460044 
L 174.08373 -154.898954 
L 176.32962 -154.377786 
L 178.57551 -147.6548 
L 180.8214 -147.553527 
L 183.06729 -147.506786 
L 185.31318 -140.47219 
L 187.55907 -140.191741 
L 189.80496 -155.032167 
L 192.05085 -132.954599 
L 194.29674 -147.600268 
L 196.54263 -140.308595 
L 198.78852 -140.28425 
L 201.03441 -147.389932 
L 203.2803 -147.810605 
L 205.52619 -118.511475 
L 207.77208 -147.530156 
L 210.01797 -133.046329 
L 212.26386 -140.308594 
L 214.50975 -132.923438 
L 216.75564 -161.427962 
L 216.75564 -162.191407 
L 216.75564 -162.191407 
L 214.50975 -162.051182 
L 212.26386 -162.051182 
L 210.01797 -162.051182 
L 207.77208 -162.051182 
L 205.52619 -162.051182 
L 203.2803 -162.090134 
L 201.03441 -162.090913 
L 198.78852 -162.051182 
L 196.54263 -162.0208 
L 194.29674 -162.051182 
L 192.05085 -162.020021 
L 189.80496 -162.051182 
L 187.55907 -162.0208 
L 185.31318 -162.051182 
L 183.06729 -162.0208 
L 180.8214 -162.051182 
L 178.57551 -162.051182 
L 176.32962 -161.982044 
L 174.08373 -162.051182 
L 171.83784 -162.051182 
L 169.59195 -162.051182 
L 167.34606 -162.051182 
L 165.10017 -162.051182 
L 162.85428 -162.051182 
L 160.60839 -162.051182 
L 158.3625 -162.051182 
L 156.11661 -162.051182 
L 153.87072 -161.98107 
L 151.62483 -162.051182 
L 149.37894 -162.051182 
L 147.13305 -162.051182 
L 144.88716 -162.051182 
L 142.64127 -162.051182 
L 140.39538 -162.051182 
L 138.14949 -162.051182 
L 135.9036 -162.051182 
L 133.65771 -162.051182 
L 131.41182 -162.051182 
L 129.16593 -162.051182 
L 126.92004 -162.051182 
L 124.67415 -162.051182 
L 122.42826 -162.051182 
L 120.18237 -162.051182 
L 117.93648 -162.051182 
L 115.69059 -162.051182 
L 113.4447 -162.020021 
L 111.19881 -162.051182 
L 108.95292 -161.809685 
L 106.70703 -161.710943 
L 104.46114 -154.167449 
L 102.21525 -144.843494 
L 99.96936 -149.742587 
L 97.72347 -152.531497 
L 95.47758 -152.095243 
L 93.23169 -147.748283 
L 90.9858 -147.421093 
L 88.73991 -120.949823 
L 86.49402 -146.899146 
L 84.24813 -132.627798 
L 82.00224 -125.662925 
L 79.75635 -147.545737 
L 77.51046 -123.208996 
L 75.26457 -123.006449 
L 73.01868 -115.356424 
L 70.77279 -123.64525 
L 68.5269 -120.201959 
L 66.28101 -63.06924 
L 64.03512 -79.762771 
L 61.78923 -58.316213 
L 59.54334 -55.831123 
L 57.29745 -41.388 
L 55.05156 -41.388 
L 52.80567 -41.388 
L 50.55978 -41.388 
L 48.31389 -41.388 
z
" style="stroke: #4c72b0; stroke-opacity: 0.2; stroke-width: 0.8"/>
    </defs>
    <g clip-path="url(#pedf21549bc)">
     <use xlink:href="#m07de164847" x="0" y="180" style="fill: #4c72b0; fill-opacity: 0.2; stroke: #4c72b0; stroke-opacity: 0.2; stroke-width: 0.8"/>
    </g>
   </g>
   <g id="PolyCollection_2">
    <defs>
     <path id="med8ada148b" d="M 48.31389 -41.388 
L 48.31389 -41.388 
L 50.55978 -41.388 
L 52.80567 -41.388 
L 55.05156 -41.388 
L 57.29745 -41.388 
L 59.54334 -41.388 
L 61.78923 -41.388 
L 64.03512 -43.740655 
L 66.28101 -46.280277 
L 68.5269 -53.462888 
L 70.77279 -63.130588 
L 73.01868 -67.983913 
L 75.26457 -75.286299 
L 77.51046 -91.55721 
L 79.75635 -94.198105 
L 82.00224 -120.451247 
L 84.24813 -116.08676 
L 86.49402 -120.661584 
L 88.73991 -123.310269 
L 90.9858 -123.723152 
L 93.23169 -137.768973 
L 95.47758 -128.218127 
L 97.72347 -135.385156 
L 99.96936 -151.69794 
L 102.21525 -140.4644 
L 104.46114 -135.31446 
L 106.70703 -132.970179 
L 108.95292 -135.650025 
L 111.19881 -147.63922 
L 113.4447 -140.261853 
L 115.69059 -133.491931 
L 117.93648 -133.242838 
L 120.18237 -133.414223 
L 122.42826 -126.106774 
L 124.67415 -161.848441 
L 124.67415 -162.573129 
L 124.67415 -162.573129 
L 122.42826 -162.526388 
L 120.18237 -162.526387 
L 117.93648 -162.526388 
L 115.69059 -162.526387 
L 113.4447 -162.526388 
L 111.19881 -162.526387 
L 108.95292 -162.323841 
L 106.70703 -162.401938 
L 104.46114 -162.323841 
L 102.21525 -162.479646 
L 99.96936 -162.401744 
L 97.72347 -162.401938 
L 95.47758 -157.727594 
L 93.23169 -160.173732 
L 90.9858 -160.158152 
L 88.73991 -157.571789 
L 86.49402 -160.204893 
L 84.24813 -155.19771 
L 82.00224 -150.428129 
L 79.75635 -132.744651 
L 77.51046 -140.074887 
L 75.26457 -108.968419 
L 73.01868 -106.296363 
L 70.77279 -87.475119 
L 68.5269 -89.788823 
L 66.28101 -97.010385 
L 64.03512 -58.316213 
L 61.78923 -60.777932 
L 59.54334 -48.609562 
L 57.29745 -41.388 
L 55.05156 -41.388 
L 52.80567 -41.388 
L 50.55978 -41.388 
L 48.31389 -41.388 
z
" style="stroke: #dd8452; stroke-opacity: 0.2; stroke-width: 0.8"/>
    </defs>
    <g clip-path="url(#pedf21549bc)">
     <use xlink:href="#med8ada148b" x="0" y="180" style="fill: #dd8452; fill-opacity: 0.2; stroke: #dd8452; stroke-opacity: 0.2; stroke-width: 0.8"/>
    </g>
   </g>
   <g id="PolyCollection_3">
    <defs>
     <path id="mdd93a2e1b8" d="M 48.31389 -41.388 
L 48.31389 -41.388 
L 50.55978 -41.388 
L 52.80567 -41.388 
L 55.05156 -41.388 
L 57.29745 -41.388 
L 59.54334 -41.388 
L 61.78923 -41.388 
L 64.03512 -48.56282 
L 66.28101 -46.194584 
L 68.5269 -60.676659 
L 70.77279 -68.077396 
L 73.01868 -79.990636 
L 75.26457 -72.946303 
L 77.51046 -89.516165 
L 79.75635 -99.370831 
L 82.00224 -92.312864 
L 84.24813 -101.598842 
L 86.49402 -113.634778 
L 88.73991 -114.094403 
L 90.9858 -101.988355 
L 93.23169 -87.249202 
L 95.47758 -118.823475 
L 97.72347 -89.664179 
L 99.96936 -87.405007 
L 102.21525 -87.397217 
L 104.46114 -96.909112 
L 106.70703 -104.317639 
L 108.95292 -101.871501 
L 111.19881 -87.272572 
L 113.4447 -118.916568 
L 115.69059 -113.813954 
L 117.93648 -94.67331 
L 120.18237 -128.342771 
L 122.42826 -77.752887 
L 124.67415 -118.799714 
L 126.92004 -106.654715 
L 129.16593 -104.278688 
L 131.41182 -99.02806 
L 133.65771 -123.380381 
L 135.9036 -123.536186 
L 138.14949 -101.980565 
L 140.39538 -113.736052 
L 142.64127 -106.5067 
L 144.88716 -87.303733 
L 147.13305 -128.817976 
L 149.37894 -101.93986 
L 151.62483 -128.038951 
L 153.87072 -106.748198 
L 156.11661 -108.976209 
L 158.3625 -104.169625 
L 160.60839 -89.890096 
L 162.85428 -106.124977 
L 165.10017 -125.974535 
L 167.34606 -133.157145 
L 169.59195 -140.355336 
L 171.83784 -104.294269 
L 174.08373 -97.041156 
L 176.32962 -140.207321 
L 178.57551 -111.671636 
L 180.8214 -133.196096 
L 183.06729 -140.051516 
L 185.31318 -140.46401 
L 187.55907 -104.208186 
L 189.80496 -118.892808 
L 192.05085 -97.049336 
L 194.29674 -89.703131 
L 196.54263 -89.68755 
L 198.78852 -126.044647 
L 201.03441 -133.31295 
L 203.2803 -154.518011 
L 205.52619 -154.696797 
L 207.77208 -140.261853 
L 210.01797 -125.904033 
L 212.26386 -125.935583 
L 214.50975 -133.383062 
L 216.75564 -96.994805 
L 219.00153 -104.154044 
L 221.24742 -125.982325 
L 223.49331 -89.68755 
L 225.7392 -161.988665 
L 225.7392 -162.323841 
L 225.7392 -162.323841 
L 223.49331 -162.323841 
L 221.24742 -162.323841 
L 219.00153 -162.301055 
L 216.75564 -162.308261 
L 214.50975 -162.308261 
L 212.26386 -162.323841 
L 210.01797 -162.30047 
L 207.77208 -162.30047 
L 205.52619 -162.30865 
L 203.2803 -162.308261 
L 201.03441 -162.308261 
L 198.78852 -162.30047 
L 196.54263 -162.30865 
L 194.29674 -162.30865 
L 192.05085 -162.323841 
L 189.80496 -162.30047 
L 187.55907 -162.30047 
L 185.31318 -162.30865 
L 183.06729 -162.308261 
L 180.8214 -162.308261 
L 178.57551 -162.30047 
L 176.32962 -162.323841 
L 174.08373 -162.323841 
L 171.83784 -162.300665 
L 169.59195 -162.300665 
L 167.34606 -162.324036 
L 165.10017 -162.30047 
L 162.85428 -162.206987 
L 160.60839 -162.238148 
L 158.3625 -162.222568 
L 156.11661 -162.206987 
L 153.87072 -162.206987 
L 151.62483 -162.222568 
L 149.37894 -162.222568 
L 147.13305 -162.222568 
L 144.88716 -162.239122 
L 142.64127 -162.222568 
L 140.39538 -162.222568 
L 138.14949 -162.222568 
L 135.9036 -162.222568 
L 133.65771 -162.222568 
L 131.41182 -162.238148 
L 129.16593 -162.222568 
L 126.92004 -162.222568 
L 124.67415 -162.222568 
L 122.42826 -162.222568 
L 120.18237 -162.206987 
L 117.93648 -162.222568 
L 115.69059 -162.222568 
L 113.4447 -162.222568 
L 111.19881 -162.222568 
L 108.95292 -162.222568 
L 106.70703 -162.222568 
L 104.46114 -162.222568 
L 102.21525 -162.207377 
L 99.96936 -162.222568 
L 97.72347 -162.222568 
L 95.47758 -162.222568 
L 93.23169 -162.222568 
L 90.9858 -162.222568 
L 88.73991 -154.946474 
L 86.49402 -157.229017 
L 84.24813 -145.489111 
L 82.00224 -140.441029 
L 79.75635 -142.996231 
L 77.51046 -142.785894 
L 75.26457 -152.442298 
L 73.01868 -135.439688 
L 70.77279 -130.656475 
L 68.5269 -104.154044 
L 66.28101 -77.737306 
L 64.03512 -87.335284 
L 61.78923 -84.483663 
L 59.54334 -65.39755 
L 57.29745 -48.749786 
L 55.05156 -41.388 
L 52.80567 -41.388 
L 50.55978 -41.388 
L 48.31389 -41.388 
z
" style="stroke: #55a868; stroke-opacity: 0.2; stroke-width: 0.8"/>
    </defs>
    <g clip-path="url(#pedf21549bc)">
     <use xlink:href="#mdd93a2e1b8" x="0" y="180" style="fill: #55a868; fill-opacity: 0.2; stroke: #55a868; stroke-opacity: 0.2; stroke-width: 0.8"/>
    </g>
   </g>
   <g id="PolyCollection_4">
    <defs>
     <path id="m45318a7d4b" d="M 48.31389 -41.388 
L 48.31389 -41.388 
L 50.55978 -41.388 
L 52.80567 -41.388 
L 55.05156 -41.388 
L 57.29745 -41.388 
L 59.54334 -41.388 
L 61.78923 -41.388 
L 64.03512 -41.388 
L 66.28101 -41.388 
L 68.5269 -43.834138 
L 70.77279 -41.388 
L 73.01868 -55.846704 
L 75.26457 -60.809093 
L 77.51046 -82.652954 
L 79.75635 -80.074187 
L 82.00224 -104.301864 
L 84.24813 -99.230606 
L 86.49402 -96.745517 
L 88.73991 -104.239737 
L 90.9858 -99.401992 
L 93.23169 -115.683614 
L 95.47758 -111.336655 
L 97.72347 -103.943707 
L 99.96936 -110.939352 
L 102.21525 -121.183531 
L 104.46114 -94.3617 
L 106.70703 -106.249622 
L 108.95292 -97.002595 
L 111.19881 -109.030741 
L 113.4447 -118.597168 
L 115.69059 -130.88025 
L 117.93648 -118.924358 
L 120.18237 -127.937678 
L 122.42826 -111.173059 
L 124.67415 -111.475321 
L 126.92004 -106.748198 
L 129.16593 -111.50804 
L 131.41182 -101.870527 
L 133.65771 -109.139804 
L 135.9036 -85.114673 
L 138.14949 -123.551767 
L 140.39538 -82.611861 
L 142.64127 -123.503467 
L 144.88716 -106.584602 
L 147.13305 -118.838665 
L 149.37894 -135.665605 
L 151.62483 -116.306834 
L 153.87072 -118.296075 
L 156.11661 -132.954599 
L 158.3625 -128.099909 
L 160.60839 -140.020355 
L 162.85428 -147.273078 
L 165.10017 -140.293014 
L 167.34606 -132.939018 
L 169.59195 -147.34319 
L 171.83784 -140.035936 
L 174.08373 -133.040291 
L 176.32962 -133.039902 
L 178.57551 -103.974868 
L 180.8214 -140.503351 
L 183.06729 -147.460044 
L 185.31318 -125.803149 
L 187.55907 -140.051516 
L 189.80496 -140.191741 
L 192.05085 -147.389932 
L 194.29674 -140.285224 
L 196.54263 -147.054951 
L 198.78852 -139.958033 
L 201.03441 -132.814374 
L 203.2803 -125.748617 
L 205.52619 -147.382141 
L 207.77208 -147.537947 
L 210.01797 -154.627074 
L 212.26386 -147.475624 
L 214.50975 -154.821441 
L 216.75564 -133.087033 
L 219.00153 -118.643909 
L 221.24742 -133.048081 
L 223.49331 -133.054898 
L 225.7392 -118.550426 
L 227.98509 -125.616183 
L 230.23098 -132.853325 
L 232.47687 -133.063662 
L 234.72276 -147.444463 
L 236.96865 -140.293014 
L 239.21454 -140.16798 
L 241.46043 -140.121239 
L 243.70632 -133.11722 
L 245.95221 -125.888842 
L 248.1981 -140.573463 
L 250.44399 -133.087033 
L 252.68988 -132.907857 
L 254.93577 -140.363126 
L 257.18166 -140.339756 
L 259.42755 -133.211677 
L 261.67344 -133.133774 
L 263.91933 -118.269977 
L 266.16522 -133.11722 
L 268.41111 -140.612414 
L 270.657 -132.836771 
L 270.657 -161.802868 
L 270.657 -161.802868 
L 268.41111 -161.856426 
L 266.16522 -161.840846 
L 263.91933 -161.801894 
L 261.67344 -161.840846 
L 259.42755 -161.840846 
L 257.18166 -161.840846 
L 254.93577 -161.841235 
L 252.68988 -161.802868 
L 250.44399 -161.801894 
L 248.1981 -161.801894 
L 245.95221 -161.841235 
L 243.70632 -161.840846 
L 241.46043 -161.801894 
L 239.21454 -161.840846 
L 236.96865 -161.801894 
L 234.72276 -161.801894 
L 232.47687 -161.802868 
L 230.23098 -161.801894 
L 227.98509 -161.801894 
L 225.7392 -161.840846 
L 223.49331 -161.801894 
L 221.24742 -161.801894 
L 219.00153 -161.802868 
L 216.75564 -161.840846 
L 214.50975 -161.856426 
L 212.26386 -161.840846 
L 210.01797 -161.840846 
L 207.77208 -161.801894 
L 205.52619 -161.840846 
L 203.2803 -161.801894 
L 201.03441 -161.801894 
L 198.78852 -161.801894 
L 196.54263 -161.801894 
L 194.29674 -161.801894 
L 192.05085 -161.801894 
L 189.80496 -161.801894 
L 187.55907 -161.840846 
L 185.31318 -161.801894 
L 183.06729 -161.801894 
L 180.8214 -161.840846 
L 178.57551 -161.801894 
L 176.32962 -161.802868 
L 174.08373 -161.801894 
L 171.83784 -161.801894 
L 169.59195 -161.801894 
L 167.34606 -161.801894 
L 165.10017 -161.840846 
L 162.85428 -161.801894 
L 160.60839 -161.802868 
L 158.3625 -161.786314 
L 156.11661 -161.771123 
L 153.87072 -161.747947 
L 151.62483 -161.786314 
L 149.37894 -161.786314 
L 147.13305 -161.731782 
L 144.88716 -161.786314 
L 142.64127 -156.800554 
L 140.39538 -142.539917 
L 138.14949 -152.352321 
L 135.9036 -142.637879 
L 133.65771 -144.772408 
L 131.41182 -152.110823 
L 129.16593 -147.257497 
L 126.92004 -147.202966 
L 124.67415 -144.795779 
L 122.42826 -144.733457 
L 120.18237 -142.748111 
L 117.93648 -142.840426 
L 115.69059 -144.860243 
L 113.4447 -137.996254 
L 111.19881 -138.37895 
L 108.95292 -123.769894 
L 106.70703 -135.712347 
L 104.46114 -128.724493 
L 102.21525 -140.6761 
L 99.96936 -137.870246 
L 97.72347 -128.32719 
L 95.47758 -140.101958 
L 93.23169 -137.67549 
L 90.9858 -136.000586 
L 88.73991 -142.879377 
L 86.49402 -125.742775 
L 84.24813 -120.926452 
L 82.00224 -128.186966 
L 79.75635 -89.734486 
L 77.51046 -116.524961 
L 75.26457 -94.712261 
L 73.01868 -80.006217 
L 70.77279 -97.142819 
L 68.5269 -68.015074 
L 66.28101 -51.180344 
L 64.03512 -48.679674 
L 61.78923 -41.388 
L 59.54334 -41.388 
L 57.29745 -41.388 
L 55.05156 -41.388 
L 52.80567 -41.388 
L 50.55978 -41.388 
L 48.31389 -41.388 
z
" style="stroke: #c44e52; stroke-opacity: 0.2; stroke-width: 0.8"/>
    </defs>
    <g clip-path="url(#pedf21549bc)">
     <use xlink:href="#m45318a7d4b" x="0" y="180" style="fill: #c44e52; fill-opacity: 0.2; stroke: #c44e52; stroke-opacity: 0.2; stroke-width: 0.8"/>
    </g>
   </g>
   <g id="line2d_13">
    <path d="M 48.31389 138.612 
L 50.55978 138.612 
L 52.80567 138.612 
L 55.05156 138.612 
L 57.29745 138.612 
L 59.54334 133.797625 
L 61.78923 128.920929 
L 64.03512 124.200037 
L 66.28101 124.207828 
L 68.5269 93.13252 
L 70.77279 90.226757 
L 73.01868 95.633191 
L 75.26457 80.823925 
L 77.51046 76.274419 
L 79.75635 66.178255 
L 82.00224 78.424528 
L 84.24813 66.583348 
L 86.49402 54.383817 
L 88.73991 68.897053 
L 90.9858 56.689731 
L 93.23169 49.740828 
L 95.47758 42.31672 
L 97.72347 42.238817 
L 99.96936 47.022031 
L 102.21525 56.642989 
L 104.46114 49.608394 
L 106.70703 47.045401 
L 108.95292 30.272993 
L 111.19881 25.435248 
L 113.4447 23.098173 
L 115.69059 25.365136 
L 117.93648 30.1873 
L 120.18237 25.326184 
L 122.42826 27.858016 
L 124.67415 27.795694 
L 126.92004 27.780113 
L 129.16593 22.934578 
L 131.41182 22.934578 
L 133.65771 27.819064 
L 135.9036 32.6646 
L 138.14949 22.989109 
L 140.39538 20.488439 
L 142.64127 22.989109 
L 144.88716 27.780113 
L 147.13305 22.957948 
L 149.37894 25.474199 
L 151.62483 23.00469 
L 153.87072 32.641229 
L 156.11661 27.858016 
L 158.3625 25.372926 
L 160.60839 25.419667 
L 162.85428 25.450828 
L 165.10017 20.566342 
L 167.34606 25.419667 
L 169.59195 22.950158 
L 171.83784 22.9969 
L 174.08373 20.50402 
L 176.32962 20.667615 
L 178.57551 22.942368 
L 180.8214 22.942368 
L 183.06729 22.981319 
L 185.31318 25.326184 
L 187.55907 25.396297 
L 189.80496 20.472859 
L 192.05085 27.819064 
L 194.29674 22.926787 
L 196.54263 25.357345 
L 198.78852 25.388506 
L 201.03441 22.9969 
L 203.2803 22.880046 
L 205.52619 32.65681 
L 207.77208 22.973529 
L 210.01797 27.834645 
L 212.26386 25.357345 
L 214.50975 27.819064 
L 216.75564 18.182525 
" clip-path="url(#pedf21549bc)" style="fill: none; stroke: #4c72b0; stroke-width: 1.2; stroke-linecap: round"/>
   </g>
   <g id="line2d_14">
    <path d="M 48.31389 138.612 
L 50.55978 138.612 
L 52.80567 138.612 
L 55.05156 138.612 
L 57.29745 138.612 
L 59.54334 136.204813 
L 61.78923 128.95988 
L 64.03512 129.037783 
L 66.28101 114.368742 
L 68.5269 107.209502 
L 70.77279 104.747783 
L 73.01868 95.274839 
L 75.26457 87.967585 
L 77.51046 61.784554 
L 79.75635 66.521026 
L 82.00224 46.912967 
L 84.24813 44.357765 
L 86.49402 39.566761 
L 88.73991 39.52002 
L 90.9858 37.003769 
L 93.23169 29.758837 
L 95.47758 37.011559 
L 97.72347 29.87569 
L 99.96936 22.950158 
L 102.21525 27.445132 
L 104.46114 29.953593 
L 106.70703 32.314039 
L 108.95292 29.8679 
L 111.19881 22.584016 
L 113.4447 25.069106 
L 115.69059 27.328279 
L 117.93648 27.38281 
L 120.18237 27.351649 
L 122.42826 29.789998 
L 124.67415 17.785222 
" clip-path="url(#pedf21549bc)" style="fill: none; stroke: #dd8452; stroke-width: 1.2; stroke-linecap: round"/>
   </g>
   <g id="line2d_15">
    <path d="M 48.31389 138.612 
L 50.55978 138.612 
L 52.80567 138.612 
L 55.05156 138.612 
L 57.29745 136.158071 
L 59.54334 128.998831 
L 61.78923 124.246779 
L 64.03512 112.109569 
L 66.28101 116.846041 
L 68.5269 97.580753 
L 70.77279 85.552607 
L 73.01868 73.524461 
L 75.26457 63.599683 
L 77.51046 63.848971 
L 79.75635 58.85542 
L 82.00224 66.01466 
L 84.24813 56.401492 
L 86.49402 44.568102 
L 88.73991 46.788323 
L 90.9858 44.256492 
L 93.23169 54.041046 
L 95.47758 37.01935 
L 97.72347 46.780533 
L 99.96936 49.133188 
L 102.21525 49.164349 
L 104.46114 49.312364 
L 106.70703 46.710421 
L 108.95292 44.311024 
L 111.19881 54.048836 
L 113.4447 37.02714 
L 115.69059 37.167364 
L 117.93648 46.749372 
L 120.18237 32.298458 
L 122.42826 58.800889 
L 124.67415 37.073881 
L 126.92004 44.342185 
L 129.16593 46.749372 
L 131.41182 46.889596 
L 133.65771 37.151784 
L 135.9036 37.120623 
L 138.14949 44.272072 
L 140.39538 42.02069 
L 142.64127 39.730357 
L 144.88716 44.427877 
L 147.13305 32.127073 
L 149.37894 39.543391 
L 151.62483 32.524375 
L 153.87072 44.342185 
L 156.11661 42.036271 
L 158.3625 42.090802 
L 160.60839 49.156559 
L 162.85428 44.575892 
L 165.10017 29.8679 
L 167.34606 27.468503 
L 169.59195 25.069106 
L 171.83784 37.089462 
L 174.08373 39.51223 
L 176.32962 25.131428 
L 178.57551 34.635533 
L 180.8214 27.460713 
L 183.06729 25.170379 
L 185.31318 25.037945 
L 187.55907 37.112833 
L 189.80496 32.228346 
L 192.05085 39.50444 
L 194.29674 41.958368 
L 196.54263 41.958368 
L 198.78852 29.844529 
L 201.03441 27.421762 
L 203.2803 20.348215 
L 205.52619 20.293683 
L 207.77208 25.100267 
L 210.01797 29.891271 
L 212.26386 29.87569 
L 214.50975 27.406181 
L 216.75564 39.52781 
L 219.00153 37.136203 
L 221.24742 29.86011 
L 223.49331 41.958368 
L 225.7392 17.855335 
" clip-path="url(#pedf21549bc)" style="fill: none; stroke: #55a868; stroke-width: 1.2; stroke-linecap: round"/>
   </g>
   <g id="line2d_16">
    <path d="M 48.31389 138.612 
L 50.55978 138.612 
L 52.80567 138.612 
L 55.05156 138.612 
L 57.29745 138.612 
L 59.54334 138.612 
L 61.78923 138.612 
L 64.03512 136.181442 
L 66.28101 133.743094 
L 68.5269 124.098764 
L 70.77279 116.775929 
L 73.01868 112.047247 
L 75.26457 102.262693 
L 77.51046 80.418832 
L 79.75635 95.087873 
L 82.00224 63.778858 
L 84.24813 68.749038 
L 86.49402 68.624394 
L 88.73991 56.440443 
L 90.9858 63.584102 
L 93.23169 54.516251 
L 95.47758 54.305915 
L 97.72347 63.880132 
L 99.96936 56.759843 
L 102.21525 49.109818 
L 104.46114 68.554282 
L 106.70703 59.042387 
L 108.95292 68.421847 
L 111.19881 56.35475 
L 113.4447 51.649439 
L 115.69059 42.129754 
L 117.93648 49.117608 
L 120.18237 44.646004 
L 122.42826 54.352656 
L 124.67415 54.095578 
L 126.92004 51.898727 
L 129.16593 51.758503 
L 131.41182 49.242252 
L 133.65771 54.1579 
L 135.9036 66.123724 
L 138.14949 42.02848 
L 140.39538 63.81781 
L 142.64127 39.84721 
L 144.88716 44.653795 
L 147.13305 37.35433 
L 149.37894 30.17172 
L 151.62483 34.892612 
L 153.87072 39.738147 
L 156.11661 32.578907 
L 158.3625 32.695761 
L 160.60839 25.559892 
L 162.85428 23.129334 
L 165.10017 25.450828 
L 167.34606 27.920338 
L 169.59195 23.105963 
L 171.83784 25.536521 
L 174.08373 27.873596 
L 176.32962 27.873596 
L 178.57551 37.556877 
L 180.8214 25.380716 
L 183.06729 23.067012 
L 185.31318 30.280783 
L 187.55907 25.536521 
L 189.80496 25.48978 
L 192.05085 23.090383 
L 194.29674 25.458619 
L 196.54263 23.183866 
L 198.78852 25.567682 
L 201.03441 27.943708 
L 203.2803 30.304154 
L 205.52619 23.074802 
L 207.77208 23.035851 
L 210.01797 20.659825 
L 212.26386 23.074802 
L 214.50975 20.613083 
L 216.75564 27.858016 
L 219.00153 32.67239 
L 221.24742 27.865806 
L 223.49331 27.881387 
L 225.7392 32.703551 
L 227.98509 30.343105 
L 230.23098 27.935918 
L 232.47687 27.865806 
L 234.72276 23.067012 
L 236.96865 25.474199 
L 239.21454 25.49757 
L 241.46043 25.513151 
L 243.70632 27.842435 
L 245.95221 30.257413 
L 248.1981 25.380716 
L 250.44399 27.858016 
L 252.68988 27.912548 
L 254.93577 25.427458 
L 257.18166 25.435248 
L 259.42755 27.811274 
L 261.67344 27.842435 
L 263.91933 32.773663 
L 266.16522 27.842435 
L 268.41111 25.349555 
L 270.657 27.935918 
" clip-path="url(#pedf21549bc)" style="fill: none; stroke: #c44e52; stroke-width: 1.2; stroke-linecap: round"/>
   </g>
   <g id="line2d_17"/>
   <g id="line2d_18"/>
   <g id="line2d_19"/>
   <g id="line2d_20"/>
   <g id="patch_3">
    <path d="M 46.068 138.612 
L 46.068 13.968 
" style="fill: none; stroke: #ffffff; stroke-linejoin: miter; stroke-linecap: square"/>
   </g>
   <g id="patch_4">
    <path d="M 270.657 138.612 
L 270.657 13.968 
" style="fill: none; stroke: #ffffff; stroke-linejoin: miter; stroke-linecap: square"/>
   </g>
   <g id="patch_5">
    <path d="M 46.068 138.612 
L 270.657 138.612 
" style="fill: none; stroke: #ffffff; stroke-linejoin: miter; stroke-linecap: square"/>
   </g>
   <g id="patch_6">
    <path d="M 46.068 13.968 
L 270.657 13.968 
" style="fill: none; stroke: #ffffff; stroke-linejoin: miter; stroke-linecap: square"/>
   </g>
   <g id="legend_1">
    <g id="patch_7">
     <path d="M 147.414375 134.212 
L 264.497 134.212 
Q 266.257 134.212 266.257 132.452 
L 266.257 81.665 
Q 266.257 79.905 264.497 79.905 
L 147.414375 79.905 
Q 145.654375 79.905 145.654375 81.665 
L 145.654375 132.452 
Q 145.654375 134.212 147.414375 134.212 
z
" style="fill: #eaeaf2; opacity: 0.8; stroke: #cccccc; stroke-width: 0.8; stroke-linejoin: miter"/>
    </g>
    <g id="line2d_21">
     <path d="M 149.174375 87.031625 
L 157.974375 87.031625 
L 166.774375 87.031625 
" style="fill: none; stroke: #4c72b0; stroke-width: 1.2; stroke-linecap: round"/>
    </g>
    <g id="text_16">
     <!-- Combined -->
     <g style="fill: #262626" transform="translate(173.814375 90.111625) scale(0.088 -0.088)">
      <defs>
       <path id="DejaVuSans-43" d="M 4122 4306 
L 4122 3641 
Q 3803 3938 3442 4084 
Q 3081 4231 2675 4231 
Q 1875 4231 1450 3742 
Q 1025 3253 1025 2328 
Q 1025 1406 1450 917 
Q 1875 428 2675 428 
Q 3081 428 3442 575 
Q 3803 722 4122 1019 
L 4122 359 
Q 3791 134 3420 21 
Q 3050 -91 2638 -91 
Q 1578 -91 968 557 
Q 359 1206 359 2328 
Q 359 3453 968 4101 
Q 1578 4750 2638 4750 
Q 3056 4750 3426 4639 
Q 3797 4528 4122 4306 
z
" transform="scale(0.015625)"/>
       <path id="DejaVuSans-62" d="M 3116 1747 
Q 3116 2381 2855 2742 
Q 2594 3103 2138 3103 
Q 1681 3103 1420 2742 
Q 1159 2381 1159 1747 
Q 1159 1113 1420 752 
Q 1681 391 2138 391 
Q 2594 391 2855 752 
Q 3116 1113 3116 1747 
z
M 1159 2969 
Q 1341 3281 1617 3432 
Q 1894 3584 2278 3584 
Q 2916 3584 3314 3078 
Q 3713 2572 3713 1747 
Q 3713 922 3314 415 
Q 2916 -91 2278 -91 
Q 1894 -91 1617 61 
Q 1341 213 1159 525 
L 1159 0 
L 581 0 
L 581 4863 
L 1159 4863 
L 1159 2969 
z
" transform="scale(0.015625)"/>
       <path id="DejaVuSans-6e" d="M 3513 2113 
L 3513 0 
L 2938 0 
L 2938 2094 
Q 2938 2591 2744 2837 
Q 2550 3084 2163 3084 
Q 1697 3084 1428 2787 
Q 1159 2491 1159 1978 
L 1159 0 
L 581 0 
L 581 3500 
L 1159 3500 
L 1159 2956 
Q 1366 3272 1645 3428 
Q 1925 3584 2291 3584 
Q 2894 3584 3203 3211 
Q 3513 2838 3513 2113 
z
" transform="scale(0.015625)"/>
       <path id="DejaVuSans-64" d="M 2906 2969 
L 2906 4863 
L 3481 4863 
L 3481 0 
L 2906 0 
L 2906 525 
Q 2725 213 2448 61 
Q 2172 -91 1784 -91 
Q 1150 -91 751 415 
Q 353 922 353 1747 
Q 353 2572 751 3078 
Q 1150 3584 1784 3584 
Q 2172 3584 2448 3432 
Q 2725 3281 2906 2969 
z
M 947 1747 
Q 947 1113 1208 752 
Q 1469 391 1925 391 
Q 2381 391 2643 752 
Q 2906 1113 2906 1747 
Q 2906 2381 2643 2742 
Q 2381 3103 1925 3103 
Q 1469 3103 1208 2742 
Q 947 2381 947 1747 
z
" transform="scale(0.015625)"/>
      </defs>
      <use xlink:href="#DejaVuSans-43"/>
      <use xlink:href="#DejaVuSans-6f" x="69.824219"/>
      <use xlink:href="#DejaVuSans-6d" x="131.005859"/>
      <use xlink:href="#DejaVuSans-62" x="228.417969"/>
      <use xlink:href="#DejaVuSans-69" x="291.894531"/>
      <use xlink:href="#DejaVuSans-6e" x="319.677734"/>
      <use xlink:href="#DejaVuSans-65" x="383.056641"/>
      <use xlink:href="#DejaVuSans-64" x="444.580078"/>
     </g>
    </g>
    <g id="line2d_22">
     <path d="M 149.174375 99.948375 
L 157.974375 99.948375 
L 166.774375 99.948375 
" style="fill: none; stroke: #dd8452; stroke-width: 1.2; stroke-linecap: round"/>
    </g>
    <g id="text_17">
     <!-- Proximal Curriculum -->
     <g style="fill: #262626" transform="translate(173.814375 103.028375) scale(0.088 -0.088)">
      <defs>
       <path id="DejaVuSans-50" d="M 1259 4147 
L 1259 2394 
L 2053 2394 
Q 2494 2394 2734 2622 
Q 2975 2850 2975 3272 
Q 2975 3691 2734 3919 
Q 2494 4147 2053 4147 
L 1259 4147 
z
M 628 4666 
L 2053 4666 
Q 2838 4666 3239 4311 
Q 3641 3956 3641 3272 
Q 3641 2581 3239 2228 
Q 2838 1875 2053 1875 
L 1259 1875 
L 1259 0 
L 628 0 
L 628 4666 
z
" transform="scale(0.015625)"/>
       <path id="DejaVuSans-78" d="M 3513 3500 
L 2247 1797 
L 3578 0 
L 2900 0 
L 1881 1375 
L 863 0 
L 184 0 
L 1544 1831 
L 300 3500 
L 978 3500 
L 1906 2253 
L 2834 3500 
L 3513 3500 
z
" transform="scale(0.015625)"/>
       <path id="DejaVuSans-61" d="M 2194 1759 
Q 1497 1759 1228 1600 
Q 959 1441 959 1056 
Q 959 750 1161 570 
Q 1363 391 1709 391 
Q 2188 391 2477 730 
Q 2766 1069 2766 1631 
L 2766 1759 
L 2194 1759 
z
M 3341 1997 
L 3341 0 
L 2766 0 
L 2766 531 
Q 2569 213 2275 61 
Q 1981 -91 1556 -91 
Q 1019 -91 701 211 
Q 384 513 384 1019 
Q 384 1609 779 1909 
Q 1175 2209 1959 2209 
L 2766 2209 
L 2766 2266 
Q 2766 2663 2505 2880 
Q 2244 3097 1772 3097 
Q 1472 3097 1187 3025 
Q 903 2953 641 2809 
L 641 3341 
Q 956 3463 1253 3523 
Q 1550 3584 1831 3584 
Q 2591 3584 2966 3190 
Q 3341 2797 3341 1997 
z
" transform="scale(0.015625)"/>
       <path id="DejaVuSans-6c" d="M 603 4863 
L 1178 4863 
L 1178 0 
L 603 0 
L 603 4863 
z
" transform="scale(0.015625)"/>
       <path id="DejaVuSans-20" transform="scale(0.015625)"/>
       <path id="DejaVuSans-75" d="M 544 1381 
L 544 3500 
L 1119 3500 
L 1119 1403 
Q 1119 906 1312 657 
Q 1506 409 1894 409 
Q 2359 409 2629 706 
Q 2900 1003 2900 1516 
L 2900 3500 
L 3475 3500 
L 3475 0 
L 2900 0 
L 2900 538 
Q 2691 219 2414 64 
Q 2138 -91 1772 -91 
Q 1169 -91 856 284 
Q 544 659 544 1381 
z
M 1991 3584 
L 1991 3584 
z
" transform="scale(0.015625)"/>
      </defs>
      <use xlink:href="#DejaVuSans-50"/>
      <use xlink:href="#DejaVuSans-72" x="58.552734"/>
      <use xlink:href="#DejaVuSans-6f" x="97.416016"/>
      <use xlink:href="#DejaVuSans-78" x="155.472656"/>
      <use xlink:href="#DejaVuSans-69" x="214.652344"/>
      <use xlink:href="#DejaVuSans-6d" x="242.435547"/>
      <use xlink:href="#DejaVuSans-61" x="339.847656"/>
      <use xlink:href="#DejaVuSans-6c" x="401.126953"/>
      <use xlink:href="#DejaVuSans-20" x="428.910156"/>
      <use xlink:href="#DejaVuSans-43" x="460.697266"/>
      <use xlink:href="#DejaVuSans-75" x="530.521484"/>
      <use xlink:href="#DejaVuSans-72" x="593.900391"/>
      <use xlink:href="#DejaVuSans-72" x="633.263672"/>
      <use xlink:href="#DejaVuSans-69" x="674.376953"/>
      <use xlink:href="#DejaVuSans-63" x="702.160156"/>
      <use xlink:href="#DejaVuSans-75" x="757.140625"/>
      <use xlink:href="#DejaVuSans-6c" x="820.519531"/>
      <use xlink:href="#DejaVuSans-75" x="848.302734"/>
      <use xlink:href="#DejaVuSans-6d" x="911.681641"/>
     </g>
    </g>
    <g id="line2d_23">
     <path d="M 149.174375 112.865125 
L 157.974375 112.865125 
L 166.774375 112.865125 
" style="fill: none; stroke: #55a868; stroke-width: 1.2; stroke-linecap: round"/>
    </g>
    <g id="text_18">
     <!-- State Novelty (RND) -->
     <g style="fill: #262626" transform="translate(173.814375 115.945125) scale(0.088 -0.088)">
      <defs>
       <path id="DejaVuSans-4e" d="M 628 4666 
L 1478 4666 
L 3547 763 
L 3547 4666 
L 4159 4666 
L 4159 0 
L 3309 0 
L 1241 3903 
L 1241 0 
L 628 0 
L 628 4666 
z
" transform="scale(0.015625)"/>
       <path id="DejaVuSans-76" d="M 191 3500 
L 800 3500 
L 1894 563 
L 2988 3500 
L 3597 3500 
L 2284 0 
L 1503 0 
L 191 3500 
z
" transform="scale(0.015625)"/>
       <path id="DejaVuSans-79" d="M 2059 -325 
Q 1816 -950 1584 -1140 
Q 1353 -1331 966 -1331 
L 506 -1331 
L 506 -850 
L 844 -850 
Q 1081 -850 1212 -737 
Q 1344 -625 1503 -206 
L 1606 56 
L 191 3500 
L 800 3500 
L 1894 763 
L 2988 3500 
L 3597 3500 
L 2059 -325 
z
" transform="scale(0.015625)"/>
       <path id="DejaVuSans-28" d="M 1984 4856 
Q 1566 4138 1362 3434 
Q 1159 2731 1159 2009 
Q 1159 1288 1364 580 
Q 1569 -128 1984 -844 
L 1484 -844 
Q 1016 -109 783 600 
Q 550 1309 550 2009 
Q 550 2706 781 3412 
Q 1013 4119 1484 4856 
L 1984 4856 
z
" transform="scale(0.015625)"/>
       <path id="DejaVuSans-52" d="M 2841 2188 
Q 3044 2119 3236 1894 
Q 3428 1669 3622 1275 
L 4263 0 
L 3584 0 
L 2988 1197 
Q 2756 1666 2539 1819 
Q 2322 1972 1947 1972 
L 1259 1972 
L 1259 0 
L 628 0 
L 628 4666 
L 2053 4666 
Q 2853 4666 3247 4331 
Q 3641 3997 3641 3322 
Q 3641 2881 3436 2590 
Q 3231 2300 2841 2188 
z
M 1259 4147 
L 1259 2491 
L 2053 2491 
Q 2509 2491 2742 2702 
Q 2975 2913 2975 3322 
Q 2975 3731 2742 3939 
Q 2509 4147 2053 4147 
L 1259 4147 
z
" transform="scale(0.015625)"/>
       <path id="DejaVuSans-44" d="M 1259 4147 
L 1259 519 
L 2022 519 
Q 2988 519 3436 956 
Q 3884 1394 3884 2338 
Q 3884 3275 3436 3711 
Q 2988 4147 2022 4147 
L 1259 4147 
z
M 628 4666 
L 1925 4666 
Q 3281 4666 3915 4102 
Q 4550 3538 4550 2338 
Q 4550 1131 3912 565 
Q 3275 0 1925 0 
L 628 0 
L 628 4666 
z
" transform="scale(0.015625)"/>
       <path id="DejaVuSans-29" d="M 513 4856 
L 1013 4856 
Q 1481 4119 1714 3412 
Q 1947 2706 1947 2009 
Q 1947 1309 1714 600 
Q 1481 -109 1013 -844 
L 513 -844 
Q 928 -128 1133 580 
Q 1338 1288 1338 2009 
Q 1338 2731 1133 3434 
Q 928 4138 513 4856 
z
" transform="scale(0.015625)"/>
      </defs>
      <use xlink:href="#DejaVuSans-53"/>
      <use xlink:href="#DejaVuSans-74" x="63.476562"/>
      <use xlink:href="#DejaVuSans-61" x="102.685547"/>
      <use xlink:href="#DejaVuSans-74" x="163.964844"/>
      <use xlink:href="#DejaVuSans-65" x="203.173828"/>
      <use xlink:href="#DejaVuSans-20" x="264.697266"/>
      <use xlink:href="#DejaVuSans-4e" x="296.484375"/>
      <use xlink:href="#DejaVuSans-6f" x="371.289062"/>
      <use xlink:href="#DejaVuSans-76" x="432.470703"/>
      <use xlink:href="#DejaVuSans-65" x="491.650391"/>
      <use xlink:href="#DejaVuSans-6c" x="553.173828"/>
      <use xlink:href="#DejaVuSans-74" x="580.957031"/>
      <use xlink:href="#DejaVuSans-79" x="620.166016"/>
      <use xlink:href="#DejaVuSans-20" x="679.345703"/>
      <use xlink:href="#DejaVuSans-28" x="711.132812"/>
      <use xlink:href="#DejaVuSans-52" x="750.146484"/>
      <use xlink:href="#DejaVuSans-4e" x="819.628906"/>
      <use xlink:href="#DejaVuSans-44" x="894.433594"/>
      <use xlink:href="#DejaVuSans-29" x="971.435547"/>
     </g>
    </g>
    <g id="line2d_24">
     <path d="M 149.174375 125.781875 
L 157.974375 125.781875 
L 166.774375 125.781875 
" style="fill: none; stroke: #c44e52; stroke-width: 1.2; stroke-linecap: round"/>
    </g>
    <g id="text_19">
     <!-- Vanilla -->
     <g style="fill: #262626" transform="translate(173.814375 128.861875) scale(0.088 -0.088)">
      <defs>
       <path id="DejaVuSans-56" d="M 1831 0 
L 50 4666 
L 709 4666 
L 2188 738 
L 3669 4666 
L 4325 4666 
L 2547 0 
L 1831 0 
z
" transform="scale(0.015625)"/>
      </defs>
      <use xlink:href="#DejaVuSans-56"/>
      <use xlink:href="#DejaVuSans-61" x="60.658203"/>
      <use xlink:href="#DejaVuSans-6e" x="121.9375"/>
      <use xlink:href="#DejaVuSans-69" x="185.316406"/>
      <use xlink:href="#DejaVuSans-6c" x="213.099609"/>
      <use xlink:href="#DejaVuSans-6c" x="240.882812"/>
      <use xlink:href="#DejaVuSans-61" x="268.666016"/>
     </g>
    </g>
   </g>
  </g>
 </g>
 <defs>
  <clipPath id="pedf21549bc">
   <rect x="46.068" y="13.968" width="224.589" height="124.644"/>
  </clipPath>
 </defs>
</svg>
