<?xml version="1.0" encoding="utf-8" standalone="no"?>
<!DOCTYPE svg PUBLIC "-//W3C//DTD SVG 1.1//EN"
  "http://www.w3.org/Graphics/SVG/1.1/DTD/svg11.dtd">
<svg xmlns:xlink="http://www.w3.org/1999/xlink" width="936pt" height="504pt" viewBox="0 0 936 504" xmlns="http://www.w3.org/2000/svg" version="1.1">
 <metadata>
  <rdf:RDF xmlns:dc="http://purl.org/dc/elements/1.1/" xmlns:cc="http://creativecommons.org/ns#" xmlns:rdf="http://www.w3.org/1999/02/22-rdf-syntax-ns#">
   <cc:Work>
    <dc:type rdf:resource="http://purl.org/dc/dcmitype/StillImage"/>
    <dc:date>1980-01-01T00:00:00+00:00</dc:date>
    <dc:format>image/svg+xml</dc:format>
    <dc:creator>
     <cc:Agent>
      <dc:title>Matplotlib v3.9.2, https://matplotlib.org/</dc:title>
     </cc:Agent>
    </dc:creator>
   </cc:Work>
  </rdf:RDF>
 </metadata>
 <defs>
  <style type="text/css">*{stroke-linejoin: round; stroke-linecap: butt}</style>
 </defs>
 <g id="figure_1">
  <g id="patch_1">
   <path d="M 0 504 
L 936 504 
L 936 0 
L 0 0 
z
" style="fill: #ffffff"/>
  </g>
  <g id="axes_1">
   <g id="patch_2">
    <path d="M 46.068 462.612 
L 918.657 462.612 
L 918.657 13.968 
L 46.068 13.968 
z
" style="fill: #eaeaf2"/>
   </g>
   <g id="matplotlib.axis_1">
    <g id="xtick_1">
     <g id="line2d_1">
      <path d="M 46.068 462.612 
L 46.068 13.968 
" clip-path="url(#pbb4a1449e0)" style="fill: none; stroke: #ffffff; stroke-width: 0.8; stroke-linecap: round"/>
     </g>
     <g id="text_1">
      <!-- 0.0 -->
      <g style="fill: #262626" transform="translate(39.070625 477.598625) scale(0.088 -0.088)">
       <defs>
        <path id="DejaVuSans-30" d="M 2034 4250 
Q 1547 4250 1301 3770 
Q 1056 3291 1056 2328 
Q 1056 1369 1301 889 
Q 1547 409 2034 409 
Q 2525 409 2770 889 
Q 3016 1369 3016 2328 
Q 3016 3291 2770 3770 
Q 2525 4250 2034 4250 
z
M 2034 4750 
Q 2819 4750 3233 4129 
Q 3647 3509 3647 2328 
Q 3647 1150 3233 529 
Q 2819 -91 2034 -91 
Q 1250 -91 836 529 
Q 422 1150 422 2328 
Q 422 3509 836 4129 
Q 1250 4750 2034 4750 
z
" transform="scale(0.015625)"/>
        <path id="DejaVuSans-2e" d="M 684 794 
L 1344 794 
L 1344 0 
L 684 0 
L 684 794 
z
" transform="scale(0.015625)"/>
       </defs>
       <use xlink:href="#DejaVuSans-30"/>
       <use xlink:href="#DejaVuSans-2e" x="63.623047"/>
       <use xlink:href="#DejaVuSans-30" x="95.410156"/>
      </g>
     </g>
    </g>
    <g id="xtick_2">
     <g id="line2d_2">
      <path d="M 220.5858 462.612 
L 220.5858 13.968 
" clip-path="url(#pbb4a1449e0)" style="fill: none; stroke: #ffffff; stroke-width: 0.8; stroke-linecap: round"/>
     </g>
     <g id="text_2">
      <!-- 0.2 -->
      <g style="fill: #262626" transform="translate(213.588425 477.598625) scale(0.088 -0.088)">
       <defs>
        <path id="DejaVuSans-32" d="M 1228 531 
L 3431 531 
L 3431 0 
L 469 0 
L 469 531 
Q 828 903 1448 1529 
Q 2069 2156 2228 2338 
Q 2531 2678 2651 2914 
Q 2772 3150 2772 3378 
Q 2772 3750 2511 3984 
Q 2250 4219 1831 4219 
Q 1534 4219 1204 4116 
Q 875 4013 500 3803 
L 500 4441 
Q 881 4594 1212 4672 
Q 1544 4750 1819 4750 
Q 2544 4750 2975 4387 
Q 3406 4025 3406 3419 
Q 3406 3131 3298 2873 
Q 3191 2616 2906 2266 
Q 2828 2175 2409 1742 
Q 1991 1309 1228 531 
z
" transform="scale(0.015625)"/>
       </defs>
       <use xlink:href="#DejaVuSans-30"/>
       <use xlink:href="#DejaVuSans-2e" x="63.623047"/>
       <use xlink:href="#DejaVuSans-32" x="95.410156"/>
      </g>
     </g>
    </g>
    <g id="xtick_3">
     <g id="line2d_3">
      <path d="M 395.1036 462.612 
L 395.1036 13.968 
" clip-path="url(#pbb4a1449e0)" style="fill: none; stroke: #ffffff; stroke-width: 0.8; stroke-linecap: round"/>
     </g>
     <g id="text_3">
      <!-- 0.4 -->
      <g style="fill: #262626" transform="translate(388.106225 477.598625) scale(0.088 -0.088)">
       <defs>
        <path id="DejaVuSans-34" d="M 2419 4116 
L 825 1625 
L 2419 1625 
L 2419 4116 
z
M 2253 4666 
L 3047 4666 
L 3047 1625 
L 3713 1625 
L 3713 1100 
L 3047 1100 
L 3047 0 
L 2419 0 
L 2419 1100 
L 313 1100 
L 313 1709 
L 2253 4666 
z
" transform="scale(0.015625)"/>
       </defs>
       <use xlink:href="#DejaVuSans-30"/>
       <use xlink:href="#DejaVuSans-2e" x="63.623047"/>
       <use xlink:href="#DejaVuSans-34" x="95.410156"/>
      </g>
     </g>
    </g>
    <g id="xtick_4">
     <g id="line2d_4">
      <path d="M 569.6214 462.612 
L 569.6214 13.968 
" clip-path="url(#pbb4a1449e0)" style="fill: none; stroke: #ffffff; stroke-width: 0.8; stroke-linecap: round"/>
     </g>
     <g id="text_4">
      <!-- 0.6 -->
      <g style="fill: #262626" transform="translate(562.624025 477.598625) scale(0.088 -0.088)">
       <defs>
        <path id="DejaVuSans-36" d="M 2113 2584 
Q 1688 2584 1439 2293 
Q 1191 2003 1191 1497 
Q 1191 994 1439 701 
Q 1688 409 2113 409 
Q 2538 409 2786 701 
Q 3034 994 3034 1497 
Q 3034 2003 2786 2293 
Q 2538 2584 2113 2584 
z
M 3366 4563 
L 3366 3988 
Q 3128 4100 2886 4159 
Q 2644 4219 2406 4219 
Q 1781 4219 1451 3797 
Q 1122 3375 1075 2522 
Q 1259 2794 1537 2939 
Q 1816 3084 2150 3084 
Q 2853 3084 3261 2657 
Q 3669 2231 3669 1497 
Q 3669 778 3244 343 
Q 2819 -91 2113 -91 
Q 1303 -91 875 529 
Q 447 1150 447 2328 
Q 447 3434 972 4092 
Q 1497 4750 2381 4750 
Q 2619 4750 2861 4703 
Q 3103 4656 3366 4563 
z
" transform="scale(0.015625)"/>
       </defs>
       <use xlink:href="#DejaVuSans-30"/>
       <use xlink:href="#DejaVuSans-2e" x="63.623047"/>
       <use xlink:href="#DejaVuSans-36" x="95.410156"/>
      </g>
     </g>
    </g>
    <g id="xtick_5">
     <g id="line2d_5">
      <path d="M 744.1392 462.612 
L 744.1392 13.968 
" clip-path="url(#pbb4a1449e0)" style="fill: none; stroke: #ffffff; stroke-width: 0.8; stroke-linecap: round"/>
     </g>
     <g id="text_5">
      <!-- 0.8 -->
      <g style="fill: #262626" transform="translate(737.141825 477.598625) scale(0.088 -0.088)">
       <defs>
        <path id="DejaVuSans-38" d="M 2034 2216 
Q 1584 2216 1326 1975 
Q 1069 1734 1069 1313 
Q 1069 891 1326 650 
Q 1584 409 2034 409 
Q 2484 409 2743 651 
Q 3003 894 3003 1313 
Q 3003 1734 2745 1975 
Q 2488 2216 2034 2216 
z
M 1403 2484 
Q 997 2584 770 2862 
Q 544 3141 544 3541 
Q 544 4100 942 4425 
Q 1341 4750 2034 4750 
Q 2731 4750 3128 4425 
Q 3525 4100 3525 3541 
Q 3525 3141 3298 2862 
Q 3072 2584 2669 2484 
Q 3125 2378 3379 2068 
Q 3634 1759 3634 1313 
Q 3634 634 3220 271 
Q 2806 -91 2034 -91 
Q 1263 -91 848 271 
Q 434 634 434 1313 
Q 434 1759 690 2068 
Q 947 2378 1403 2484 
z
M 1172 3481 
Q 1172 3119 1398 2916 
Q 1625 2713 2034 2713 
Q 2441 2713 2670 2916 
Q 2900 3119 2900 3481 
Q 2900 3844 2670 4047 
Q 2441 4250 2034 4250 
Q 1625 4250 1398 4047 
Q 1172 3844 1172 3481 
z
" transform="scale(0.015625)"/>
       </defs>
       <use xlink:href="#DejaVuSans-30"/>
       <use xlink:href="#DejaVuSans-2e" x="63.623047"/>
       <use xlink:href="#DejaVuSans-38" x="95.410156"/>
      </g>
     </g>
    </g>
    <g id="xtick_6">
     <g id="line2d_6">
      <path d="M 918.657 462.612 
L 918.657 13.968 
" clip-path="url(#pbb4a1449e0)" style="fill: none; stroke: #ffffff; stroke-width: 0.8; stroke-linecap: round"/>
     </g>
     <g id="text_6">
      <!-- 1.0 -->
      <g style="fill: #262626" transform="translate(911.659625 477.598625) scale(0.088 -0.088)">
       <defs>
        <path id="DejaVuSans-31" d="M 794 531 
L 1825 531 
L 1825 4091 
L 703 3866 
L 703 4441 
L 1819 4666 
L 2450 4666 
L 2450 531 
L 3481 531 
L 3481 0 
L 794 0 
L 794 531 
z
" transform="scale(0.015625)"/>
       </defs>
       <use xlink:href="#DejaVuSans-31"/>
       <use xlink:href="#DejaVuSans-2e" x="63.623047"/>
       <use xlink:href="#DejaVuSans-30" x="95.410156"/>
      </g>
     </g>
    </g>
    <g id="text_7">
     <!-- Timestep -->
     <g style="fill: #262626" transform="translate(460.23525 490.72325) scale(0.096 -0.096)">
      <defs>
       <path id="DejaVuSans-54" d="M -19 4666 
L 3928 4666 
L 3928 4134 
L 2272 4134 
L 2272 0 
L 1638 0 
L 1638 4134 
L -19 4134 
L -19 4666 
z
" transform="scale(0.015625)"/>
       <path id="DejaVuSans-69" d="M 603 3500 
L 1178 3500 
L 1178 0 
L 603 0 
L 603 3500 
z
M 603 4863 
L 1178 4863 
L 1178 4134 
L 603 4134 
L 603 4863 
z
" transform="scale(0.015625)"/>
       <path id="DejaVuSans-6d" d="M 3328 2828 
Q 3544 3216 3844 3400 
Q 4144 3584 4550 3584 
Q 5097 3584 5394 3201 
Q 5691 2819 5691 2113 
L 5691 0 
L 5113 0 
L 5113 2094 
Q 5113 2597 4934 2840 
Q 4756 3084 4391 3084 
Q 3944 3084 3684 2787 
Q 3425 2491 3425 1978 
L 3425 0 
L 2847 0 
L 2847 2094 
Q 2847 2600 2669 2842 
Q 2491 3084 2119 3084 
Q 1678 3084 1418 2786 
Q 1159 2488 1159 1978 
L 1159 0 
L 581 0 
L 581 3500 
L 1159 3500 
L 1159 2956 
Q 1356 3278 1631 3431 
Q 1906 3584 2284 3584 
Q 2666 3584 2933 3390 
Q 3200 3197 3328 2828 
z
" transform="scale(0.015625)"/>
       <path id="DejaVuSans-65" d="M 3597 1894 
L 3597 1613 
L 953 1613 
Q 991 1019 1311 708 
Q 1631 397 2203 397 
Q 2534 397 2845 478 
Q 3156 559 3463 722 
L 3463 178 
Q 3153 47 2828 -22 
Q 2503 -91 2169 -91 
Q 1331 -91 842 396 
Q 353 884 353 1716 
Q 353 2575 817 3079 
Q 1281 3584 2069 3584 
Q 2775 3584 3186 3129 
Q 3597 2675 3597 1894 
z
M 3022 2063 
Q 3016 2534 2758 2815 
Q 2500 3097 2075 3097 
Q 1594 3097 1305 2825 
Q 1016 2553 972 2059 
L 3022 2063 
z
" transform="scale(0.015625)"/>
       <path id="DejaVuSans-73" d="M 2834 3397 
L 2834 2853 
Q 2591 2978 2328 3040 
Q 2066 3103 1784 3103 
Q 1356 3103 1142 2972 
Q 928 2841 928 2578 
Q 928 2378 1081 2264 
Q 1234 2150 1697 2047 
L 1894 2003 
Q 2506 1872 2764 1633 
Q 3022 1394 3022 966 
Q 3022 478 2636 193 
Q 2250 -91 1575 -91 
Q 1294 -91 989 -36 
Q 684 19 347 128 
L 347 722 
Q 666 556 975 473 
Q 1284 391 1588 391 
Q 1994 391 2212 530 
Q 2431 669 2431 922 
Q 2431 1156 2273 1281 
Q 2116 1406 1581 1522 
L 1381 1569 
Q 847 1681 609 1914 
Q 372 2147 372 2553 
Q 372 3047 722 3315 
Q 1072 3584 1716 3584 
Q 2034 3584 2315 3537 
Q 2597 3491 2834 3397 
z
" transform="scale(0.015625)"/>
       <path id="DejaVuSans-74" d="M 1172 4494 
L 1172 3500 
L 2356 3500 
L 2356 3053 
L 1172 3053 
L 1172 1153 
Q 1172 725 1289 603 
Q 1406 481 1766 481 
L 2356 481 
L 2356 0 
L 1766 0 
Q 1100 0 847 248 
Q 594 497 594 1153 
L 594 3053 
L 172 3053 
L 172 3500 
L 594 3500 
L 594 4494 
L 1172 4494 
z
" transform="scale(0.015625)"/>
       <path id="DejaVuSans-70" d="M 1159 525 
L 1159 -1331 
L 581 -1331 
L 581 3500 
L 1159 3500 
L 1159 2969 
Q 1341 3281 1617 3432 
Q 1894 3584 2278 3584 
Q 2916 3584 3314 3078 
Q 3713 2572 3713 1747 
Q 3713 922 3314 415 
Q 2916 -91 2278 -91 
Q 1894 -91 1617 61 
Q 1341 213 1159 525 
z
M 3116 1747 
Q 3116 2381 2855 2742 
Q 2594 3103 2138 3103 
Q 1681 3103 1420 2742 
Q 1159 2381 1159 1747 
Q 1159 1113 1420 752 
Q 1681 391 2138 391 
Q 2594 391 2855 752 
Q 3116 1113 3116 1747 
z
" transform="scale(0.015625)"/>
      </defs>
      <use xlink:href="#DejaVuSans-54"/>
      <use xlink:href="#DejaVuSans-69" x="57.958984"/>
      <use xlink:href="#DejaVuSans-6d" x="85.742188"/>
      <use xlink:href="#DejaVuSans-65" x="183.154297"/>
      <use xlink:href="#DejaVuSans-73" x="244.677734"/>
      <use xlink:href="#DejaVuSans-74" x="296.777344"/>
      <use xlink:href="#DejaVuSans-65" x="335.986328"/>
      <use xlink:href="#DejaVuSans-70" x="397.509766"/>
     </g>
    </g>
    <g id="text_8">
     <!-- 1e6 -->
     <g style="fill: #262626" transform="translate(902.04425 489.115375) scale(0.088 -0.088)">
      <use xlink:href="#DejaVuSans-31"/>
      <use xlink:href="#DejaVuSans-65" x="63.623047"/>
      <use xlink:href="#DejaVuSans-36" x="125.146484"/>
     </g>
    </g>
   </g>
   <g id="matplotlib.axis_2">
    <g id="ytick_1">
     <g id="line2d_7">
      <path d="M 46.068 462.612 
L 918.657 462.612 
" clip-path="url(#pbb4a1449e0)" style="fill: none; stroke: #ffffff; stroke-width: 0.8; stroke-linecap: round"/>
     </g>
     <g id="text_9">
      <!-- 0.0 -->
      <g style="fill: #262626" transform="translate(23.77325 465.955312) scale(0.088 -0.088)">
       <use xlink:href="#DejaVuSans-30"/>
       <use xlink:href="#DejaVuSans-2e" x="63.623047"/>
       <use xlink:href="#DejaVuSans-30" x="95.410156"/>
      </g>
     </g>
    </g>
    <g id="ytick_2">
     <g id="line2d_8">
      <path d="M 46.068 372.8832 
L 918.657 372.8832 
" clip-path="url(#pbb4a1449e0)" style="fill: none; stroke: #ffffff; stroke-width: 0.8; stroke-linecap: round"/>
     </g>
     <g id="text_10">
      <!-- 0.2 -->
      <g style="fill: #262626" transform="translate(23.77325 376.226513) scale(0.088 -0.088)">
       <use xlink:href="#DejaVuSans-30"/>
       <use xlink:href="#DejaVuSans-2e" x="63.623047"/>
       <use xlink:href="#DejaVuSans-32" x="95.410156"/>
      </g>
     </g>
    </g>
    <g id="ytick_3">
     <g id="line2d_9">
      <path d="M 46.068 283.1544 
L 918.657 283.1544 
" clip-path="url(#pbb4a1449e0)" style="fill: none; stroke: #ffffff; stroke-width: 0.8; stroke-linecap: round"/>
     </g>
     <g id="text_11">
      <!-- 0.4 -->
      <g style="fill: #262626" transform="translate(23.77325 286.497712) scale(0.088 -0.088)">
       <use xlink:href="#DejaVuSans-30"/>
       <use xlink:href="#DejaVuSans-2e" x="63.623047"/>
       <use xlink:href="#DejaVuSans-34" x="95.410156"/>
      </g>
     </g>
    </g>
    <g id="ytick_4">
     <g id="line2d_10">
      <path d="M 46.068 193.4256 
L 918.657 193.4256 
" clip-path="url(#pbb4a1449e0)" style="fill: none; stroke: #ffffff; stroke-width: 0.8; stroke-linecap: round"/>
     </g>
     <g id="text_12">
      <!-- 0.6 -->
      <g style="fill: #262626" transform="translate(23.77325 196.768912) scale(0.088 -0.088)">
       <use xlink:href="#DejaVuSans-30"/>
       <use xlink:href="#DejaVuSans-2e" x="63.623047"/>
       <use xlink:href="#DejaVuSans-36" x="95.410156"/>
      </g>
     </g>
    </g>
    <g id="ytick_5">
     <g id="line2d_11">
      <path d="M 46.068 103.6968 
L 918.657 103.6968 
" clip-path="url(#pbb4a1449e0)" style="fill: none; stroke: #ffffff; stroke-width: 0.8; stroke-linecap: round"/>
     </g>
     <g id="text_13">
      <!-- 0.8 -->
      <g style="fill: #262626" transform="translate(23.77325 107.040112) scale(0.088 -0.088)">
       <use xlink:href="#DejaVuSans-30"/>
       <use xlink:href="#DejaVuSans-2e" x="63.623047"/>
       <use xlink:href="#DejaVuSans-38" x="95.410156"/>
      </g>
     </g>
    </g>
    <g id="ytick_6">
     <g id="line2d_12">
      <path d="M 46.068 13.968 
L 918.657 13.968 
" clip-path="url(#pbb4a1449e0)" style="fill: none; stroke: #ffffff; stroke-width: 0.8; stroke-linecap: round"/>
     </g>
     <g id="text_14">
      <!-- 1.0 -->
      <g style="fill: #262626" transform="translate(23.77325 17.311312) scale(0.088 -0.088)">
       <use xlink:href="#DejaVuSans-31"/>
       <use xlink:href="#DejaVuSans-2e" x="63.623047"/>
       <use xlink:href="#DejaVuSans-30" x="95.410156"/>
      </g>
     </g>
    </g>
    <g id="text_15">
     <!-- Score -->
     <g style="fill: #262626" transform="translate(17.77675 251.73225) rotate(-90) scale(0.096 -0.096)">
      <defs>
       <path id="DejaVuSans-53" d="M 3425 4513 
L 3425 3897 
Q 3066 4069 2747 4153 
Q 2428 4238 2131 4238 
Q 1616 4238 1336 4038 
Q 1056 3838 1056 3469 
Q 1056 3159 1242 3001 
Q 1428 2844 1947 2747 
L 2328 2669 
Q 3034 2534 3370 2195 
Q 3706 1856 3706 1288 
Q 3706 609 3251 259 
Q 2797 -91 1919 -91 
Q 1588 -91 1214 -16 
Q 841 59 441 206 
L 441 856 
Q 825 641 1194 531 
Q 1563 422 1919 422 
Q 2459 422 2753 634 
Q 3047 847 3047 1241 
Q 3047 1584 2836 1778 
Q 2625 1972 2144 2069 
L 1759 2144 
Q 1053 2284 737 2584 
Q 422 2884 422 3419 
Q 422 4038 858 4394 
Q 1294 4750 2059 4750 
Q 2388 4750 2728 4690 
Q 3069 4631 3425 4513 
z
" transform="scale(0.015625)"/>
       <path id="DejaVuSans-63" d="M 3122 3366 
L 3122 2828 
Q 2878 2963 2633 3030 
Q 2388 3097 2138 3097 
Q 1578 3097 1268 2742 
Q 959 2388 959 1747 
Q 959 1106 1268 751 
Q 1578 397 2138 397 
Q 2388 397 2633 464 
Q 2878 531 3122 666 
L 3122 134 
Q 2881 22 2623 -34 
Q 2366 -91 2075 -91 
Q 1284 -91 818 406 
Q 353 903 353 1747 
Q 353 2603 823 3093 
Q 1294 3584 2113 3584 
Q 2378 3584 2631 3529 
Q 2884 3475 3122 3366 
z
" transform="scale(0.015625)"/>
       <path id="DejaVuSans-6f" d="M 1959 3097 
Q 1497 3097 1228 2736 
Q 959 2375 959 1747 
Q 959 1119 1226 758 
Q 1494 397 1959 397 
Q 2419 397 2687 759 
Q 2956 1122 2956 1747 
Q 2956 2369 2687 2733 
Q 2419 3097 1959 3097 
z
M 1959 3584 
Q 2709 3584 3137 3096 
Q 3566 2609 3566 1747 
Q 3566 888 3137 398 
Q 2709 -91 1959 -91 
Q 1206 -91 779 398 
Q 353 888 353 1747 
Q 353 2609 779 3096 
Q 1206 3584 1959 3584 
z
" transform="scale(0.015625)"/>
       <path id="DejaVuSans-72" d="M 2631 2963 
Q 2534 3019 2420 3045 
Q 2306 3072 2169 3072 
Q 1681 3072 1420 2755 
Q 1159 2438 1159 1844 
L 1159 0 
L 581 0 
L 581 3500 
L 1159 3500 
L 1159 2956 
Q 1341 3275 1631 3429 
Q 1922 3584 2338 3584 
Q 2397 3584 2469 3576 
Q 2541 3569 2628 3553 
L 2631 2963 
z
" transform="scale(0.015625)"/>
      </defs>
      <use xlink:href="#DejaVuSans-53"/>
      <use xlink:href="#DejaVuSans-63" x="63.476562"/>
      <use xlink:href="#DejaVuSans-6f" x="118.457031"/>
      <use xlink:href="#DejaVuSans-72" x="179.638672"/>
      <use xlink:href="#DejaVuSans-65" x="218.501953"/>
     </g>
    </g>
   </g>
   <g id="PolyCollection_1">
    <defs>
     <path id="m1102b9f3aa" d="M 54.79389 -41.388 
L 54.79389 -41.388 
L 63.51978 -41.388 
L 72.24567 -41.388 
L 80.97156 -41.388 
L 89.69745 -50.164598 
L 98.42334 -41.388 
L 107.14923 -67.773875 
L 115.87512 -93.762981 
L 124.60101 -93.570905 
L 133.3269 -128.761419 
L 142.05279 -207.35824 
L 150.77868 -146.286575 
L 159.50457 -225.500281 
L 168.23046 -242.510198 
L 176.95635 -198.946165 
L 185.68224 -207.320385 
L 194.40813 -215.461872 
L 203.13402 -206.124469 
L 211.85991 -259.148582 
L 220.5858 -188.963836 
L 229.31169 -285.589836 
L 238.03758 -276.477456 
L 246.76347 -198.273199 
L 255.48936 -249.699017 
L 264.21525 -267.672818 
L 272.94114 -198.301239 
L 281.66703 -294.311055 
L 290.39292 -251.15711 
L 299.11881 -198.329279 
L 307.8447 -301.797802 
L 316.57059 -241.584169 
L 325.29648 -293.077284 
L 334.02237 -223.930027 
L 342.74826 -285.87094 
L 351.47415 -259.681346 
L 360.20004 -259.092501 
L 368.92593 -242.660915 
L 377.65182 -267.95322 
L 386.37771 -345.989236 
L 395.1036 -276.95414 
L 403.82949 -224.713752 
L 412.55538 -311.63993 
L 421.28127 -258.9523 
L 430.00716 -232.958988 
L 438.73305 -216.275039 
L 447.45894 -311.780131 
L 456.18483 -268.990709 
L 464.91072 -312.312896 
L 473.63661 -294.955981 
L 482.3625 -312.026184 
L 491.08839 -345.895301 
L 499.81428 -294.002612 
L 508.54017 -311.415608 
L 517.26606 -311.387567 
L 525.99195 -338.951133 
L 534.71784 -302.302526 
L 543.44373 -320.276327 
L 552.16962 -250.147661 
L 560.89551 -267.89714 
L 569.6214 -389.788106 
L 578.34729 -319.571815 
L 587.07318 -319.070596 
L 595.79907 -241.735586 
L 604.52496 -320.61281 
L 613.25085 -215.545993 
L 621.97674 -285.478376 
L 630.70263 -363.822835 
L 639.42852 -372.066668 
L 648.15441 -337.801483 
L 656.8803 -380.163991 
L 665.60619 -329.080965 
L 674.33208 -371.953105 
L 683.05797 -259.310514 
L 691.78386 -320.69693 
L 700.50975 -294.423216 
L 709.23564 -354.255501 
L 717.96153 -344.783505 
L 726.68742 -354.821915 
L 735.41331 -294.142813 
L 744.1392 -372.851795 
L 752.86509 -397.443095 
L 761.59098 -372.178829 
L 770.31687 -426.016109 
L 779.04276 -425.031896 
L 787.76865 -345.624713 
L 796.49454 -372.624669 
L 805.22043 -449.345597 
L 813.94632 -451.196254 
L 822.67221 -424.361735 
L 831.3981 -372.599433 
L 840.12399 -476.376398 
L 840.12399 -478.170974 
L 840.12399 -478.170974 
L 831.3981 -478.030773 
L 822.67221 -478.114894 
L 813.94632 -478.114894 
L 805.22043 -478.032876 
L 796.49454 -478.255095 
L 787.76865 -478.114894 
L 779.04276 -478.255095 
L 770.31687 -478.030773 
L 761.59098 -478.003434 
L 752.86509 -478.114894 
L 744.1392 -478.030773 
L 735.41331 -476.937203 
L 726.68742 -476.937203 
L 717.96153 -476.937203 
L 709.23564 -476.937203 
L 700.50975 -476.937203 
L 691.78386 -476.827846 
L 683.05797 -476.937203 
L 674.33208 -476.937203 
L 665.60619 -476.797002 
L 656.8803 -476.800507 
L 648.15441 -476.937203 
L 639.42852 -476.937203 
L 630.70263 -458.711041 
L 621.97674 -442.279454 
L 613.25085 -441.77473 
L 604.52496 -458.991443 
L 595.79907 -450.242885 
L 587.07318 -458.65496 
L 578.34729 -458.57084 
L 569.6214 -459.047524 
L 560.89551 -458.963403 
L 552.16962 -441.410207 
L 543.44373 -467.375478 
L 534.71784 -458.795162 
L 525.99195 -459.019484 
L 517.26606 -467.403518 
L 508.54017 -467.992364 
L 499.81428 -467.655881 
L 491.08839 -450.467207 
L 482.3625 -450.663489 
L 473.63661 -450.074644 
L 464.91072 -467.880203 
L 456.18483 -450.298966 
L 447.45894 -450.411127 
L 438.73305 -441.606488 
L 430.00716 -441.213925 
L 421.28127 -432.942051 
L 412.55538 -441.77473 
L 403.82949 -381.17975 
L 395.1036 -416.300163 
L 386.37771 -441.690609 
L 377.65182 -407.03286 
L 368.92593 -408.23789 
L 360.20004 -424.305654 
L 351.47415 -424.249574 
L 342.74826 -407.313263 
L 334.02237 -389.367503 
L 325.29648 -415.276694 
L 316.57059 -398.732946 
L 307.8447 -424.026654 
L 299.11881 -389.732026 
L 290.39292 -415.641217 
L 281.66703 -433.727178 
L 272.94114 -389.928308 
L 264.21525 -398.901188 
L 255.48936 -372.711594 
L 246.76347 -276.000772 
L 238.03758 -337.324799 
L 229.31169 -364.075197 
L 220.5858 -337.100477 
L 211.85991 -346.802403 
L 203.13402 -336.71282 
L 194.40813 -346.017276 
L 185.68224 -379.787551 
L 176.95635 -303.270616 
L 168.23046 -320.420734 
L 159.50457 -347.194967 
L 150.77868 -294.142813 
L 142.05279 -329.473529 
L 133.3269 -207.554522 
L 124.60101 -181.461667 
L 115.87512 -233.69154 
L 107.14923 -128.761419 
L 98.42334 -94.299952 
L 89.69745 -85.439233 
L 80.97156 -41.388 
L 72.24567 -41.388 
L 63.51978 -41.388 
L 54.79389 -41.388 
z
" style="stroke: #4c72b0; stroke-opacity: 0.2; stroke-width: 0.8"/>
    </defs>
    <g clip-path="url(#pbb4a1449e0)">
     <use xlink:href="#m1102b9f3aa" x="0" y="504" style="fill: #4c72b0; fill-opacity: 0.2; stroke: #4c72b0; stroke-opacity: 0.2; stroke-width: 0.8"/>
    </g>
   </g>
   <g id="PolyCollection_2">
    <defs>
     <path id="m04924221d9" d="M 54.79389 -41.388 
L 54.79389 -41.388 
L 63.51978 -41.388 
L 72.24567 -41.388 
L 80.97156 -41.388 
L 89.69745 -41.388 
L 98.42334 -41.388 
L 107.14923 -41.388 
L 115.87512 -41.388 
L 124.60101 -49.884196 
L 133.3269 -67.492071 
L 142.05279 -50.192639 
L 150.77868 -93.655026 
L 159.50457 -76.15791 
L 168.23046 -93.486784 
L 176.95635 -145.333207 
L 185.68224 -153.969604 
L 194.40813 -120.068941 
L 203.13402 -197.964756 
L 211.85991 -153.605081 
L 220.5858 -128.284735 
L 229.31169 -224.014148 
L 238.03758 -223.313142 
L 246.76347 -284.74933 
L 255.48936 -240.361614 
L 264.21525 -303.031573 
L 272.94114 -224.574953 
L 281.66703 -119.227734 
L 290.39292 -258.195213 
L 299.11881 -268.261663 
L 307.8447 -285.478376 
L 316.57059 -250.259822 
L 325.29648 -284.889531 
L 334.02237 -320.276327 
L 342.74826 -327.855606 
L 351.47415 -354.26111 
L 360.20004 -276.028812 
L 368.92593 -318.790193 
L 377.65182 -301.459216 
L 386.37771 -215.574033 
L 395.1036 -302.835291 
L 403.82949 -354.765834 
L 412.55538 -329.165086 
L 421.28127 -344.531143 
L 430.00716 -310.995004 
L 438.73305 -294.647538 
L 447.45894 -232.594465 
L 456.18483 -320.437558 
L 464.91072 -198.4134 
L 473.63661 -415.472975 
L 482.3625 -439.195027 
L 491.08839 -354.120908 
L 499.81428 -390.292831 
L 508.54017 -319.855723 
L 517.26606 -398.564704 
L 525.99195 -345.820994 
L 534.71784 -346.325719 
L 543.44373 -397.751537 
L 552.16962 -475.983835 
L 552.16962 -477.161525 
L 552.16962 -477.161525 
L 543.44373 -476.768962 
L 534.71784 -476.768962 
L 525.99195 -476.768962 
L 517.26606 -476.768962 
L 508.54017 -476.460519 
L 499.81428 -476.460519 
L 491.08839 -476.460519 
L 482.3625 -476.460519 
L 473.63661 -476.460519 
L 464.91072 -441.157844 
L 456.18483 -458.851242 
L 447.45894 -441.550408 
L 438.73305 -449.934442 
L 430.00716 -449.856631 
L 421.28127 -467.65588 
L 412.55538 -467.095076 
L 403.82949 -458.77343 
L 395.1036 -459.025793 
L 386.37771 -458.963403 
L 377.65182 -467.073344 
L 368.92593 -458.318477 
L 360.20004 -458.823202 
L 351.47415 -467.263317 
L 342.74826 -450.327006 
L 334.02237 -442.285062 
L 325.29648 -423.637595 
L 316.57059 -407.509544 
L 307.8447 -433.088561 
L 299.11881 -416.622626 
L 290.39292 -336.259269 
L 281.66703 -302.779211 
L 272.94114 -380.759146 
L 264.21525 -337.128517 
L 255.48936 -370.692696 
L 246.76347 -354.653673 
L 238.03758 -355.46684 
L 229.31169 -328.183677 
L 220.5858 -284.609128 
L 211.85991 -337.997765 
L 203.13402 -302.470768 
L 194.40813 -250.0355 
L 185.68224 -284.581088 
L 176.95635 -266.971811 
L 168.23046 -214.985188 
L 159.50457 -233.696447 
L 150.77868 -214.200061 
L 142.05279 -224.799275 
L 133.3269 -146.679139 
L 124.60101 -128.200614 
L 115.87512 -145.445368 
L 107.14923 -41.388 
L 98.42334 -67.801916 
L 89.69745 -41.388 
L 80.97156 -41.388 
L 72.24567 -41.388 
L 63.51978 -41.388 
L 54.79389 -41.388 
z
" style="stroke: #dd8452; stroke-opacity: 0.2; stroke-width: 0.8"/>
    </defs>
    <g clip-path="url(#pbb4a1449e0)">
     <use xlink:href="#m04924221d9" x="0" y="504" style="fill: #dd8452; fill-opacity: 0.2; stroke: #dd8452; stroke-opacity: 0.2; stroke-width: 0.8"/>
    </g>
   </g>
   <g id="PolyCollection_3">
    <defs>
     <path id="m69b5e80ecf" d="M 54.79389 -41.388 
L 54.79389 -41.388 
L 63.51978 -41.388 
L 72.24567 -41.388 
L 80.97156 -41.388 
L 89.69745 -41.388 
L 98.42334 -41.388 
L 107.14923 -41.388 
L 115.87512 -41.388 
L 124.60101 -49.800075 
L 133.3269 -41.388 
L 142.05279 -67.605634 
L 150.77868 -119.956781 
L 159.50457 -93.318543 
L 168.23046 -93.318543 
L 176.95635 -137.650178 
L 185.68224 -224.21043 
L 194.40813 -180.579801 
L 203.13402 -268.037341 
L 211.85991 -250.084571 
L 220.5858 -250.988869 
L 229.31169 -285.590537 
L 238.03758 -310.878637 
L 246.76347 -224.715154 
L 255.48936 -275.383886 
L 264.21525 -232.369442 
L 272.94114 -285.478376 
L 281.66703 -292.993163 
L 290.39292 -251.213191 
L 299.11881 -275.972732 
L 307.8447 -380.478743 
L 316.57059 -311.636424 
L 325.29648 -259.176622 
L 334.02237 -320.080045 
L 342.74826 -354.457391 
L 351.47415 -241.903828 
L 360.20004 -276.982181 
L 368.92593 -363.878915 
L 377.65182 -311.527769 
L 386.37771 -355.326639 
L 395.1036 -276.533537 
L 403.82949 -268.065381 
L 412.55538 -276.561577 
L 421.28127 -354.28915 
L 430.00716 -302.46516 
L 438.73305 -320.023964 
L 447.45894 -354.31719 
L 456.18483 -328.912724 
L 464.91072 -354.401311 
L 473.63661 -354.76303 
L 482.3625 -407.958188 
L 491.08839 -354.901128 
L 499.81428 -390.23675 
L 508.54017 -424.893097 
L 517.26606 -423.212084 
L 525.99195 -475.619311 
L 525.99195 -477.834491 
L 525.99195 -477.834491 
L 517.26606 -477.835192 
L 508.54017 -477.834491 
L 499.81428 -477.301727 
L 491.08839 -477.301727 
L 482.3625 -468.805531 
L 473.63661 -467.824122 
L 464.91072 -469.226135 
L 456.18483 -434.484265 
L 447.45894 -442.756139 
L 438.73305 -425.317907 
L 430.00716 -433.733487 
L 421.28127 -434.175822 
L 412.55538 -433.92346 
L 403.82949 -433.839339 
L 395.1036 -416.762827 
L 386.37771 -442.91036 
L 377.65182 -416.678706 
L 368.92593 -442.503776 
L 360.20004 -416.877091 
L 351.47415 -399.377872 
L 342.74826 -442.391615 
L 334.02237 -443.064581 
L 325.29648 -399.586772 
L 316.57059 -442.223374 
L 307.8447 -451.028012 
L 299.11881 -398.873147 
L 290.39292 -425.623546 
L 281.66703 -398.172141 
L 272.94114 -363.037708 
L 264.21525 -336.792034 
L 255.48936 -380.843267 
L 246.76347 -336.707913 
L 238.03758 -364.159318 
L 229.31169 -362.420822 
L 220.5858 -354.625633 
L 211.85991 -354.653673 
L 203.13402 -321.650299 
L 194.40813 -329.109005 
L 185.68224 -277.711227 
L 176.95635 -233.603914 
L 168.23046 -180.870018 
L 159.50457 -224.269315 
L 150.77868 -223.930027 
L 142.05279 -120.040901 
L 133.3269 -75.933588 
L 124.60101 -84.00918 
L 115.87512 -119.031452 
L 107.14923 -41.388 
L 98.42334 -41.388 
L 89.69745 -41.388 
L 80.97156 -41.388 
L 72.24567 -41.388 
L 63.51978 -41.388 
L 54.79389 -41.388 
z
" style="stroke: #55a868; stroke-opacity: 0.2; stroke-width: 0.8"/>
    </defs>
    <g clip-path="url(#pbb4a1449e0)">
     <use xlink:href="#m69b5e80ecf" x="0" y="504" style="fill: #55a868; fill-opacity: 0.2; stroke: #55a868; stroke-opacity: 0.2; stroke-width: 0.8"/>
    </g>
   </g>
   <g id="PolyCollection_4">
    <defs>
     <path id="m8c874fa7e3" d="M 54.79389 -41.388 
L 54.79389 -41.388 
L 63.51978 -41.388 
L 72.24567 -41.388 
L 80.97156 -41.388 
L 89.69745 -41.388 
L 98.42334 -41.388 
L 107.14923 -41.388 
L 115.87512 -41.388 
L 124.60101 -41.388 
L 133.3269 -50.192639 
L 142.05279 -41.388 
L 150.77868 -84.962549 
L 159.50457 -111.180182 
L 168.23046 -189.859722 
L 176.95635 -180.635882 
L 185.68224 -267.841059 
L 194.40813 -249.586856 
L 203.13402 -249.306454 
L 211.85991 -266.981625 
L 220.5858 -250.063541 
L 229.31169 -308.9719 
L 238.03758 -292.57256 
L 246.76347 -266.879278 
L 255.48936 -285.113853 
L 264.21525 -328.688402 
L 272.94114 -223.649625 
L 281.66703 -274.851122 
L 290.39292 -249.502736 
L 299.11881 -284.693249 
L 307.8447 -319.294918 
L 316.57059 -362.561024 
L 325.29648 -320.332407 
L 334.02237 -352.997195 
L 342.74826 -292.57256 
L 351.47415 -285.197974 
L 360.20004 -276.253134 
L 368.92593 -293.77829 
L 377.65182 -258.9523 
L 386.37771 -285.197974 
L 395.1036 -198.777923 
L 403.82949 -336.623792 
L 412.55538 -181.140606 
L 421.28127 -336.511631 
L 430.00716 -276.056852 
L 438.73305 -320.164166 
L 447.45894 -380.731106 
L 456.18483 -311.303447 
L 464.91072 -294.002612 
L 473.63661 -371.221255 
L 482.3625 -353.307741 
L 491.08839 -396.209324 
L 499.81428 -422.454998 
L 508.54017 -397.443094 
L 517.26606 -370.720736 
L 525.99195 -422.76344 
L 534.71784 -396.461686 
L 543.44373 -371.225461 
L 552.16962 -371.281541 
L 560.89551 -266.663369 
L 569.6214 -398.144101 
L 578.34729 -423.184044 
L 587.07318 -345.091948 
L 595.79907 -396.517766 
L 604.52496 -397.022491 
L 613.25085 -422.7354 
L 621.97674 -397.302893 
L 630.70263 -422.062434 
L 639.42852 -396.121698 
L 648.15441 -370.524455 
L 656.8803 -344.839585 
L 665.60619 -423.099923 
L 674.33208 -423.464447 
L 683.05797 -449.177356 
L 691.78386 -423.043843 
L 700.50975 -449.622495 
L 709.23564 -371.252099 
L 717.96153 -319.599855 
L 726.68742 -371.16938 
L 735.41331 -371.196018 
L 744.1392 -319.126676 
L 752.86509 -344.75196 
L 761.59098 -370.552495 
L 770.31687 -371.309582 
L 779.04276 -423.182642 
L 787.76865 -396.994451 
L 796.49454 -396.88229 
L 805.22043 -396.770129 
L 813.94632 -371.618024 
L 822.67221 -345.540592 
L 831.3981 -398.002497 
L 840.12399 -371.393702 
L 848.84988 -370.804857 
L 857.57577 -397.694055 
L 866.30166 -397.555256 
L 875.02755 -372.094709 
L 883.75344 -371.561944 
L 892.47933 -318.564469 
L 901.20522 -371.561944 
L 909.93111 -398.536664 
L 918.657 -370.608575 
L 918.657 -474.806144 
L 918.657 -474.806144 
L 909.93111 -474.946346 
L 901.20522 -474.806144 
L 892.47933 -474.946346 
L 883.75344 -474.806144 
L 875.02755 -474.946346 
L 866.30166 -474.946346 
L 857.57577 -474.806144 
L 848.84988 -474.946346 
L 840.12399 -474.806144 
L 831.3981 -474.946346 
L 822.67221 -474.806144 
L 813.94632 -474.946346 
L 805.22043 -474.809649 
L 796.49454 -474.806144 
L 787.76865 -474.806144 
L 779.04276 -474.946346 
L 770.31687 -474.806144 
L 761.59098 -474.806144 
L 752.86509 -474.806144 
L 744.1392 -474.806144 
L 735.41331 -474.946346 
L 726.68742 -474.946346 
L 717.96153 -474.809649 
L 709.23564 -474.947748 
L 700.50975 -474.806144 
L 691.78386 -474.946346 
L 683.05797 -474.806144 
L 674.33208 -474.946346 
L 665.60619 -474.806144 
L 656.8803 -474.806144 
L 648.15441 -474.946346 
L 639.42852 -474.809649 
L 630.70263 -474.806144 
L 621.97674 -474.946346 
L 613.25085 -474.946346 
L 604.52496 -474.946346 
L 595.79907 -474.809649 
L 587.07318 -474.946346 
L 578.34729 -475.002426 
L 569.6214 -474.806144 
L 560.89551 -474.806144 
L 552.16962 -474.806144 
L 543.44373 -474.806144 
L 534.71784 -474.806144 
L 525.99195 -474.946346 
L 517.26606 -474.806144 
L 508.54017 -474.946346 
L 499.81428 -474.946346 
L 491.08839 -474.806144 
L 482.3625 -474.750064 
L 473.63661 -474.750064 
L 464.91072 -474.750064 
L 456.18483 -474.750064 
L 447.45894 -474.750064 
L 438.73305 -474.750064 
L 430.00716 -474.553782 
L 421.28127 -457.252948 
L 412.55538 -413.594278 
L 403.82949 -439.945804 
L 395.1036 -405.827129 
L 386.37771 -413.730975 
L 377.65182 -439.699751 
L 368.92593 -422.454998 
L 360.20004 -422.258716 
L 351.47415 -413.594278 
L 342.74826 -413.369957 
L 334.02237 -406.219693 
L 325.29648 -406.556176 
L 316.57059 -414.127043 
L 307.8447 -389.311422 
L 299.11881 -390.238152 
L 290.39292 -337.913644 
L 281.66703 -380.735312 
L 272.94114 -355.052546 
L 264.21525 -398.564705 
L 255.48936 -395.312036 
L 246.76347 -354.31719 
L 238.03758 -396.686008 
L 229.31169 -387.96549 
L 220.5858 -381.630497 
L 211.85991 -407.00482 
L 203.13402 -345.28823 
L 194.40813 -327.594832 
L 185.68224 -353.644224 
L 176.95635 -215.433832 
L 168.23046 -311.836211 
L 159.50457 -233.267431 
L 150.77868 -188.851675 
L 142.05279 -242.072069 
L 133.3269 -137.065539 
L 124.60101 -76.634594 
L 115.87512 -67.633674 
L 107.14923 -41.388 
L 98.42334 -41.388 
L 89.69745 -41.388 
L 80.97156 -41.388 
L 72.24567 -41.388 
L 63.51978 -41.388 
L 54.79389 -41.388 
z
" style="stroke: #c44e52; stroke-opacity: 0.2; stroke-width: 0.8"/>
    </defs>
    <g clip-path="url(#pbb4a1449e0)">
     <use xlink:href="#m8c874fa7e3" x="0" y="504" style="fill: #c44e52; fill-opacity: 0.2; stroke: #c44e52; stroke-opacity: 0.2; stroke-width: 0.8"/>
    </g>
   </g>
   <g id="line2d_13">
    <path d="M 54.79389 462.612 
L 63.51978 462.612 
L 72.24567 462.612 
L 80.97156 462.612 
L 89.69745 436.198084 
L 98.42334 436.254165 
L 107.14923 401.372094 
L 115.87512 340.272389 
L 124.60101 366.714345 
L 133.3269 331.551871 
L 142.05279 235.542055 
L 150.77868 279.677409 
L 159.50457 217.708456 
L 168.23046 218.689865 
L 176.95635 252.983091 
L 185.68224 219.054388 
L 194.40813 219.054388 
L 203.13402 219.587153 
L 211.85991 192.556352 
L 220.5858 236.299142 
L 229.31169 174.919035 
L 238.03758 192.948916 
L 246.76347 270.78865 
L 255.48936 192.920875 
L 264.21525 166.310678 
L 272.94114 201.080588 
L 281.66703 139.980883 
L 290.39292 174.834914 
L 299.11881 227.242141 
L 307.8447 141.102493 
L 316.57059 192.528312 
L 325.29648 158.65569 
L 334.02237 210.389951 
L 342.74826 157.730362 
L 351.47415 174.862954 
L 360.20004 166.47892 
L 368.92593 174.750793 
L 377.65182 183.835834 
L 386.37771 114.604457 
L 395.1036 157.477999 
L 403.82949 218.269261 
L 412.55538 123.044572 
L 421.28127 158.122925 
L 430.00716 166.843443 
L 438.73305 175.059236 
L 447.45894 122.904371 
L 456.18483 140.093044 
L 464.91072 113.81933 
L 473.63661 131.344486 
L 482.3625 122.848291 
L 491.08839 105.771778 
L 499.81428 114.296014 
L 508.54017 114.296014 
L 517.26606 114.604457 
L 525.99195 105.014692 
L 534.71784 123.521257 
L 543.44373 105.96806 
L 552.16962 158.150965 
L 560.89551 140.569729 
L 569.6214 79.582185 
L 578.34729 114.828779 
L 587.07318 115.137222 
L 595.79907 149.290246 
L 604.52496 114.127773 
L 613.25085 175.339639 
L 621.97674 131.652929 
L 630.70263 96.91106 
L 639.42852 79.498064 
L 648.15441 96.602617 
L 656.8803 71.14207 
L 665.60619 88.0223 
L 674.33208 79.554145 
L 683.05797 105.855899 
L 691.78386 96.742818 
L 700.50975 105.210973 
L 709.23564 79.834547 
L 717.96153 88.639186 
L 726.68742 79.498064 
L 735.41331 105.547456 
L 744.1392 61.412103 
L 752.86509 53.25239 
L 761.59098 61.636425 
L 770.31687 43.774786 
L 779.04276 44.055188 
L 787.76865 70.525184 
L 796.49454 61.524264 
L 805.22043 35.951556 
L 813.94632 35.33467 
L 822.67221 44.27951 
L 831.3981 61.496224 
L 840.12399 26.754354 
" clip-path="url(#pbb4a1449e0)" style="fill: none; stroke: #4c72b0; stroke-width: 1.2; stroke-linecap: round"/>
   </g>
   <g id="line2d_14">
    <path d="M 54.79389 462.612 
L 63.51978 462.612 
L 72.24567 462.612 
L 80.97156 462.612 
L 89.69745 462.612 
L 98.42334 453.807361 
L 107.14923 462.612 
L 115.87512 419.401975 
L 124.60101 419.401975 
L 133.3269 401.316013 
L 142.05279 375.266621 
L 150.77868 349.806074 
L 159.50457 349.245269 
L 168.23046 349.693913 
L 176.95635 289.435416 
L 185.68224 289.155013 
L 194.40813 314.5034 
L 203.13402 262.292454 
L 211.85991 254.04862 
L 220.5858 297.567088 
L 229.31169 236.411303 
L 238.03758 218.942227 
L 246.76347 184.48076 
L 255.48936 211.090957 
L 264.21525 184.032116 
L 272.94114 201.417071 
L 281.66703 288.73441 
L 290.39292 202.174158 
L 299.11881 157.197597 
L 307.8447 148.953763 
L 316.57059 175.115317 
L 325.29648 158.319207 
L 334.02237 114.239934 
L 342.74826 114.9129 
L 351.47415 88.947629 
L 360.20004 123.493216 
L 368.92593 115.445665 
L 377.65182 106.641026 
L 386.37771 149.346327 
L 395.1036 123.072613 
L 403.82949 97.107341 
L 412.55538 97.079301 
L 421.28127 97.836388 
L 430.00716 123.381056 
L 438.73305 131.70901 
L 447.45894 166.927564 
L 456.18483 114.492296 
L 464.91072 184.088197 
L 473.63661 53.953396 
L 482.3625 45.877804 
L 491.08839 80.19907 
L 499.81428 61.972908 
L 508.54017 97.191462 
L 517.26606 53.560833 
L 525.99195 71.057949 
L 534.71784 70.973828 
L 543.44373 53.757115 
L 552.16962 27.371239 
" clip-path="url(#pbb4a1449e0)" style="fill: none; stroke: #dd8452; stroke-width: 1.2; stroke-linecap: round"/>
   </g>
   <g id="line2d_15">
    <path d="M 54.79389 462.612 
L 63.51978 462.612 
L 72.24567 462.612 
L 80.97156 462.612 
L 89.69745 462.612 
L 98.42334 462.612 
L 107.14923 462.612 
L 115.87512 436.730849 
L 124.60101 437.095372 
L 133.3269 445.451367 
L 142.05279 410.092612 
L 150.77868 332.084636 
L 159.50457 349.497631 
L 168.23046 367.162989 
L 176.95635 314.082796 
L 185.68224 253.067212 
L 194.40813 253.431735 
L 203.13402 209.324422 
L 211.85991 210.193669 
L 220.5858 201.136669 
L 229.31169 175.928484 
L 238.03758 166.955604 
L 246.76347 227.662745 
L 255.48936 166.871483 
L 264.21525 210.361911 
L 272.94114 183.891915 
L 281.66703 158.263126 
L 290.39292 156.748953 
L 299.11881 158.038805 
L 307.8447 88.442904 
L 316.57059 122.79221 
L 325.29648 175.003156 
L 334.02237 122.73613 
L 342.74826 105.94002 
L 351.47415 192.247909 
L 360.20004 157.421919 
L 368.92593 105.491376 
L 377.65182 148.813562 
L 386.37771 105.070772 
L 395.1036 157.758402 
L 403.82949 148.925723 
L 412.55538 140.177165 
L 421.28127 114.183853 
L 430.00716 140.429527 
L 438.73305 131.596849 
L 447.45894 105.575497 
L 456.18483 122.427687 
L 464.91072 87.741898 
L 473.63661 88.639186 
L 482.3625 61.356022 
L 491.08839 79.273742 
L 499.81428 61.468183 
L 508.54017 44.111269 
L 517.26606 44.672074 
L 525.99195 27.202998 
" clip-path="url(#pbb4a1449e0)" style="fill: none; stroke: #55a868; stroke-width: 1.2; stroke-linecap: round"/>
   </g>
   <g id="line2d_16">
    <path d="M 54.79389 462.612 
L 63.51978 462.612 
L 72.24567 462.612 
L 80.97156 462.612 
L 89.69745 462.612 
L 98.42334 462.612 
L 107.14923 462.612 
L 115.87512 453.863442 
L 124.60101 445.086844 
L 133.3269 410.373014 
L 142.05279 384.015179 
L 150.77868 366.994747 
L 159.50457 331.776193 
L 168.23046 253.151332 
L 176.95635 305.951123 
L 185.68224 193.257358 
L 194.40813 211.147038 
L 203.13402 210.698394 
L 211.85991 166.843443 
L 220.5858 192.556352 
L 229.31169 159.917501 
L 238.03758 159.160415 
L 246.76347 193.621882 
L 255.48936 167.993093 
L 264.21525 140.457568 
L 272.94114 210.446032 
L 281.66703 176.208887 
L 290.39292 209.969347 
L 299.11881 166.535 
L 307.8447 149.598689 
L 316.57059 115.333504 
L 325.29648 140.485608 
L 334.02237 124.390504 
L 342.74826 159.328656 
L 351.47415 158.403328 
L 360.20004 150.495977 
L 368.92593 149.991253 
L 377.65182 140.934252 
L 386.37771 158.62765 
L 395.1036 201.697474 
L 403.82949 114.96898 
L 412.55538 193.39756 
L 421.28127 107.11771 
L 430.00716 124.418545 
L 438.73305 98.14483 
L 447.45894 72.29172 
L 456.18483 89.284111 
L 464.91072 106.725147 
L 473.63661 80.956157 
L 482.3625 81.376761 
L 491.08839 55.691892 
L 499.81428 46.943334 
L 508.54017 55.299328 
L 517.26606 64.188088 
L 525.99195 46.859213 
L 534.71784 55.607771 
L 543.44373 64.019846 
L 552.16962 64.019846 
L 560.89551 98.873877 
L 569.6214 55.046966 
L 578.34729 46.719012 
L 587.07318 72.684283 
L 595.79907 55.607771 
L 604.52496 55.43953 
L 613.25085 46.803133 
L 621.97674 55.327369 
L 630.70263 47.139616 
L 639.42852 55.719932 
L 648.15441 64.272208 
L 656.8803 72.768404 
L 665.60619 46.747052 
L 674.33208 46.606851 
L 683.05797 38.054575 
L 691.78386 46.747052 
L 700.50975 37.886333 
L 709.23564 63.963766 
L 717.96153 81.29264 
L 726.68742 63.991806 
L 735.41331 64.047887 
L 744.1392 81.404801 
L 752.86509 72.908605 
L 761.59098 64.244168 
L 770.31687 63.991806 
L 779.04276 46.719012 
L 787.76865 55.383449 
L 796.49454 55.46757 
L 805.22043 55.523651 
L 813.94632 63.907685 
L 822.67221 72.600163 
L 831.3981 55.046966 
L 840.12399 63.963766 
L 848.84988 64.160047 
L 857.57577 55.215208 
L 866.30166 55.243248 
L 875.02755 63.795524 
L 883.75344 63.907685 
L 892.47933 81.657164 
L 901.20522 63.907685 
L 909.93111 54.934805 
L 918.657 64.244168 
" clip-path="url(#pbb4a1449e0)" style="fill: none; stroke: #c44e52; stroke-width: 1.2; stroke-linecap: round"/>
   </g>
   <g id="line2d_17"/>
   <g id="line2d_18"/>
   <g id="line2d_19"/>
   <g id="line2d_20"/>
   <g id="patch_3">
    <path d="M 46.068 462.612 
L 46.068 13.968 
" style="fill: none; stroke: #ffffff; stroke-linejoin: miter; stroke-linecap: square"/>
   </g>
   <g id="patch_4">
    <path d="M 918.657 462.612 
L 918.657 13.968 
" style="fill: none; stroke: #ffffff; stroke-linejoin: miter; stroke-linecap: square"/>
   </g>
   <g id="patch_5">
    <path d="M 46.068 462.612 
L 918.657 462.612 
" style="fill: none; stroke: #ffffff; stroke-linejoin: miter; stroke-linecap: square"/>
   </g>
   <g id="patch_6">
    <path d="M 46.068 13.968 
L 918.657 13.968 
" style="fill: none; stroke: #ffffff; stroke-linejoin: miter; stroke-linecap: square"/>
   </g>
   <g id="legend_1">
    <g id="patch_7">
     <path d="M 52.228 86.366 
L 169.310625 86.366 
Q 171.070625 86.366 171.070625 84.606 
L 171.070625 20.128 
Q 171.070625 18.368 169.310625 18.368 
L 52.228 18.368 
Q 50.468 18.368 50.468 20.128 
L 50.468 84.606 
Q 50.468 86.366 52.228 86.366 
z
" style="fill: #eaeaf2; opacity: 0.8; stroke: #cccccc; stroke-width: 0.8; stroke-linejoin: miter"/>
    </g>
    <g id="text_16">
     <!-- Approach -->
     <g style="fill: #262626" transform="translate(87.966313 29.1825) scale(0.096 -0.096)">
      <defs>
       <path id="DejaVuSans-41" d="M 2188 4044 
L 1331 1722 
L 3047 1722 
L 2188 4044 
z
M 1831 4666 
L 2547 4666 
L 4325 0 
L 3669 0 
L 3244 1197 
L 1141 1197 
L 716 0 
L 50 0 
L 1831 4666 
z
" transform="scale(0.015625)"/>
       <path id="DejaVuSans-61" d="M 2194 1759 
Q 1497 1759 1228 1600 
Q 959 1441 959 1056 
Q 959 750 1161 570 
Q 1363 391 1709 391 
Q 2188 391 2477 730 
Q 2766 1069 2766 1631 
L 2766 1759 
L 2194 1759 
z
M 3341 1997 
L 3341 0 
L 2766 0 
L 2766 531 
Q 2569 213 2275 61 
Q 1981 -91 1556 -91 
Q 1019 -91 701 211 
Q 384 513 384 1019 
Q 384 1609 779 1909 
Q 1175 2209 1959 2209 
L 2766 2209 
L 2766 2266 
Q 2766 2663 2505 2880 
Q 2244 3097 1772 3097 
Q 1472 3097 1187 3025 
Q 903 2953 641 2809 
L 641 3341 
Q 956 3463 1253 3523 
Q 1550 3584 1831 3584 
Q 2591 3584 2966 3190 
Q 3341 2797 3341 1997 
z
" transform="scale(0.015625)"/>
       <path id="DejaVuSans-68" d="M 3513 2113 
L 3513 0 
L 2938 0 
L 2938 2094 
Q 2938 2591 2744 2837 
Q 2550 3084 2163 3084 
Q 1697 3084 1428 2787 
Q 1159 2491 1159 1978 
L 1159 0 
L 581 0 
L 581 4863 
L 1159 4863 
L 1159 2956 
Q 1366 3272 1645 3428 
Q 1925 3584 2291 3584 
Q 2894 3584 3203 3211 
Q 3513 2838 3513 2113 
z
" transform="scale(0.015625)"/>
      </defs>
      <use xlink:href="#DejaVuSans-41"/>
      <use xlink:href="#DejaVuSans-70" x="68.408203"/>
      <use xlink:href="#DejaVuSans-70" x="131.884766"/>
      <use xlink:href="#DejaVuSans-72" x="195.361328"/>
      <use xlink:href="#DejaVuSans-6f" x="234.224609"/>
      <use xlink:href="#DejaVuSans-61" x="295.40625"/>
      <use xlink:href="#DejaVuSans-63" x="356.685547"/>
      <use xlink:href="#DejaVuSans-68" x="411.666016"/>
     </g>
    </g>
    <g id="line2d_21">
     <path d="M 53.988 39.185625 
L 62.788 39.185625 
L 71.588 39.185625 
" style="fill: none; stroke: #4c72b0; stroke-width: 1.2; stroke-linecap: round"/>
    </g>
    <g id="text_17">
     <!-- Combined -->
     <g style="fill: #262626" transform="translate(78.628 42.265625) scale(0.088 -0.088)">
      <defs>
       <path id="DejaVuSans-43" d="M 4122 4306 
L 4122 3641 
Q 3803 3938 3442 4084 
Q 3081 4231 2675 4231 
Q 1875 4231 1450 3742 
Q 1025 3253 1025 2328 
Q 1025 1406 1450 917 
Q 1875 428 2675 428 
Q 3081 428 3442 575 
Q 3803 722 4122 1019 
L 4122 359 
Q 3791 134 3420 21 
Q 3050 -91 2638 -91 
Q 1578 -91 968 557 
Q 359 1206 359 2328 
Q 359 3453 968 4101 
Q 1578 4750 2638 4750 
Q 3056 4750 3426 4639 
Q 3797 4528 4122 4306 
z
" transform="scale(0.015625)"/>
       <path id="DejaVuSans-62" d="M 3116 1747 
Q 3116 2381 2855 2742 
Q 2594 3103 2138 3103 
Q 1681 3103 1420 2742 
Q 1159 2381 1159 1747 
Q 1159 1113 1420 752 
Q 1681 391 2138 391 
Q 2594 391 2855 752 
Q 3116 1113 3116 1747 
z
M 1159 2969 
Q 1341 3281 1617 3432 
Q 1894 3584 2278 3584 
Q 2916 3584 3314 3078 
Q 3713 2572 3713 1747 
Q 3713 922 3314 415 
Q 2916 -91 2278 -91 
Q 1894 -91 1617 61 
Q 1341 213 1159 525 
L 1159 0 
L 581 0 
L 581 4863 
L 1159 4863 
L 1159 2969 
z
" transform="scale(0.015625)"/>
       <path id="DejaVuSans-6e" d="M 3513 2113 
L 3513 0 
L 2938 0 
L 2938 2094 
Q 2938 2591 2744 2837 
Q 2550 3084 2163 3084 
Q 1697 3084 1428 2787 
Q 1159 2491 1159 1978 
L 1159 0 
L 581 0 
L 581 3500 
L 1159 3500 
L 1159 2956 
Q 1366 3272 1645 3428 
Q 1925 3584 2291 3584 
Q 2894 3584 3203 3211 
Q 3513 2838 3513 2113 
z
" transform="scale(0.015625)"/>
       <path id="DejaVuSans-64" d="M 2906 2969 
L 2906 4863 
L 3481 4863 
L 3481 0 
L 2906 0 
L 2906 525 
Q 2725 213 2448 61 
Q 2172 -91 1784 -91 
Q 1150 -91 751 415 
Q 353 922 353 1747 
Q 353 2572 751 3078 
Q 1150 3584 1784 3584 
Q 2172 3584 2448 3432 
Q 2725 3281 2906 2969 
z
M 947 1747 
Q 947 1113 1208 752 
Q 1469 391 1925 391 
Q 2381 391 2643 752 
Q 2906 1113 2906 1747 
Q 2906 2381 2643 2742 
Q 2381 3103 1925 3103 
Q 1469 3103 1208 2742 
Q 947 2381 947 1747 
z
" transform="scale(0.015625)"/>
      </defs>
      <use xlink:href="#DejaVuSans-43"/>
      <use xlink:href="#DejaVuSans-6f" x="69.824219"/>
      <use xlink:href="#DejaVuSans-6d" x="131.005859"/>
      <use xlink:href="#DejaVuSans-62" x="228.417969"/>
      <use xlink:href="#DejaVuSans-69" x="291.894531"/>
      <use xlink:href="#DejaVuSans-6e" x="319.677734"/>
      <use xlink:href="#DejaVuSans-65" x="383.056641"/>
      <use xlink:href="#DejaVuSans-64" x="444.580078"/>
     </g>
    </g>
    <g id="line2d_22">
     <path d="M 53.988 52.102375 
L 62.788 52.102375 
L 71.588 52.102375 
" style="fill: none; stroke: #dd8452; stroke-width: 1.2; stroke-linecap: round"/>
    </g>
    <g id="text_18">
     <!-- Proximal Curriculum -->
     <g style="fill: #262626" transform="translate(78.628 55.182375) scale(0.088 -0.088)">
      <defs>
       <path id="DejaVuSans-50" d="M 1259 4147 
L 1259 2394 
L 2053 2394 
Q 2494 2394 2734 2622 
Q 2975 2850 2975 3272 
Q 2975 3691 2734 3919 
Q 2494 4147 2053 4147 
L 1259 4147 
z
M 628 4666 
L 2053 4666 
Q 2838 4666 3239 4311 
Q 3641 3956 3641 3272 
Q 3641 2581 3239 2228 
Q 2838 1875 2053 1875 
L 1259 1875 
L 1259 0 
L 628 0 
L 628 4666 
z
" transform="scale(0.015625)"/>
       <path id="DejaVuSans-78" d="M 3513 3500 
L 2247 1797 
L 3578 0 
L 2900 0 
L 1881 1375 
L 863 0 
L 184 0 
L 1544 1831 
L 300 3500 
L 978 3500 
L 1906 2253 
L 2834 3500 
L 3513 3500 
z
" transform="scale(0.015625)"/>
       <path id="DejaVuSans-6c" d="M 603 4863 
L 1178 4863 
L 1178 0 
L 603 0 
L 603 4863 
z
" transform="scale(0.015625)"/>
       <path id="DejaVuSans-20" transform="scale(0.015625)"/>
       <path id="DejaVuSans-75" d="M 544 1381 
L 544 3500 
L 1119 3500 
L 1119 1403 
Q 1119 906 1312 657 
Q 1506 409 1894 409 
Q 2359 409 2629 706 
Q 2900 1003 2900 1516 
L 2900 3500 
L 3475 3500 
L 3475 0 
L 2900 0 
L 2900 538 
Q 2691 219 2414 64 
Q 2138 -91 1772 -91 
Q 1169 -91 856 284 
Q 544 659 544 1381 
z
M 1991 3584 
L 1991 3584 
z
" transform="scale(0.015625)"/>
      </defs>
      <use xlink:href="#DejaVuSans-50"/>
      <use xlink:href="#DejaVuSans-72" x="58.552734"/>
      <use xlink:href="#DejaVuSans-6f" x="97.416016"/>
      <use xlink:href="#DejaVuSans-78" x="155.472656"/>
      <use xlink:href="#DejaVuSans-69" x="214.652344"/>
      <use xlink:href="#DejaVuSans-6d" x="242.435547"/>
      <use xlink:href="#DejaVuSans-61" x="339.847656"/>
      <use xlink:href="#DejaVuSans-6c" x="401.126953"/>
      <use xlink:href="#DejaVuSans-20" x="428.910156"/>
      <use xlink:href="#DejaVuSans-43" x="460.697266"/>
      <use xlink:href="#DejaVuSans-75" x="530.521484"/>
      <use xlink:href="#DejaVuSans-72" x="593.900391"/>
      <use xlink:href="#DejaVuSans-72" x="633.263672"/>
      <use xlink:href="#DejaVuSans-69" x="674.376953"/>
      <use xlink:href="#DejaVuSans-63" x="702.160156"/>
      <use xlink:href="#DejaVuSans-75" x="757.140625"/>
      <use xlink:href="#DejaVuSans-6c" x="820.519531"/>
      <use xlink:href="#DejaVuSans-75" x="848.302734"/>
      <use xlink:href="#DejaVuSans-6d" x="911.681641"/>
     </g>
    </g>
    <g id="line2d_23">
     <path d="M 53.988 65.019125 
L 62.788 65.019125 
L 71.588 65.019125 
" style="fill: none; stroke: #55a868; stroke-width: 1.2; stroke-linecap: round"/>
    </g>
    <g id="text_19">
     <!-- State Novelty (RND) -->
     <g style="fill: #262626" transform="translate(78.628 68.099125) scale(0.088 -0.088)">
      <defs>
       <path id="DejaVuSans-4e" d="M 628 4666 
L 1478 4666 
L 3547 763 
L 3547 4666 
L 4159 4666 
L 4159 0 
L 3309 0 
L 1241 3903 
L 1241 0 
L 628 0 
L 628 4666 
z
" transform="scale(0.015625)"/>
       <path id="DejaVuSans-76" d="M 191 3500 
L 800 3500 
L 1894 563 
L 2988 3500 
L 3597 3500 
L 2284 0 
L 1503 0 
L 191 3500 
z
" transform="scale(0.015625)"/>
       <path id="DejaVuSans-79" d="M 2059 -325 
Q 1816 -950 1584 -1140 
Q 1353 -1331 966 -1331 
L 506 -1331 
L 506 -850 
L 844 -850 
Q 1081 -850 1212 -737 
Q 1344 -625 1503 -206 
L 1606 56 
L 191 3500 
L 800 3500 
L 1894 763 
L 2988 3500 
L 3597 3500 
L 2059 -325 
z
" transform="scale(0.015625)"/>
       <path id="DejaVuSans-28" d="M 1984 4856 
Q 1566 4138 1362 3434 
Q 1159 2731 1159 2009 
Q 1159 1288 1364 580 
Q 1569 -128 1984 -844 
L 1484 -844 
Q 1016 -109 783 600 
Q 550 1309 550 2009 
Q 550 2706 781 3412 
Q 1013 4119 1484 4856 
L 1984 4856 
z
" transform="scale(0.015625)"/>
       <path id="DejaVuSans-52" d="M 2841 2188 
Q 3044 2119 3236 1894 
Q 3428 1669 3622 1275 
L 4263 0 
L 3584 0 
L 2988 1197 
Q 2756 1666 2539 1819 
Q 2322 1972 1947 1972 
L 1259 1972 
L 1259 0 
L 628 0 
L 628 4666 
L 2053 4666 
Q 2853 4666 3247 4331 
Q 3641 3997 3641 3322 
Q 3641 2881 3436 2590 
Q 3231 2300 2841 2188 
z
M 1259 4147 
L 1259 2491 
L 2053 2491 
Q 2509 2491 2742 2702 
Q 2975 2913 2975 3322 
Q 2975 3731 2742 3939 
Q 2509 4147 2053 4147 
L 1259 4147 
z
" transform="scale(0.015625)"/>
       <path id="DejaVuSans-44" d="M 1259 4147 
L 1259 519 
L 2022 519 
Q 2988 519 3436 956 
Q 3884 1394 3884 2338 
Q 3884 3275 3436 3711 
Q 2988 4147 2022 4147 
L 1259 4147 
z
M 628 4666 
L 1925 4666 
Q 3281 4666 3915 4102 
Q 4550 3538 4550 2338 
Q 4550 1131 3912 565 
Q 3275 0 1925 0 
L 628 0 
L 628 4666 
z
" transform="scale(0.015625)"/>
       <path id="DejaVuSans-29" d="M 513 4856 
L 1013 4856 
Q 1481 4119 1714 3412 
Q 1947 2706 1947 2009 
Q 1947 1309 1714 600 
Q 1481 -109 1013 -844 
L 513 -844 
Q 928 -128 1133 580 
Q 1338 1288 1338 2009 
Q 1338 2731 1133 3434 
Q 928 4138 513 4856 
z
" transform="scale(0.015625)"/>
      </defs>
      <use xlink:href="#DejaVuSans-53"/>
      <use xlink:href="#DejaVuSans-74" x="63.476562"/>
      <use xlink:href="#DejaVuSans-61" x="102.685547"/>
      <use xlink:href="#DejaVuSans-74" x="163.964844"/>
      <use xlink:href="#DejaVuSans-65" x="203.173828"/>
      <use xlink:href="#DejaVuSans-20" x="264.697266"/>
      <use xlink:href="#DejaVuSans-4e" x="296.484375"/>
      <use xlink:href="#DejaVuSans-6f" x="371.289062"/>
      <use xlink:href="#DejaVuSans-76" x="432.470703"/>
      <use xlink:href="#DejaVuSans-65" x="491.650391"/>
      <use xlink:href="#DejaVuSans-6c" x="553.173828"/>
      <use xlink:href="#DejaVuSans-74" x="580.957031"/>
      <use xlink:href="#DejaVuSans-79" x="620.166016"/>
      <use xlink:href="#DejaVuSans-20" x="679.345703"/>
      <use xlink:href="#DejaVuSans-28" x="711.132812"/>
      <use xlink:href="#DejaVuSans-52" x="750.146484"/>
      <use xlink:href="#DejaVuSans-4e" x="819.628906"/>
      <use xlink:href="#DejaVuSans-44" x="894.433594"/>
      <use xlink:href="#DejaVuSans-29" x="971.435547"/>
     </g>
    </g>
    <g id="line2d_24">
     <path d="M 53.988 77.935875 
L 62.788 77.935875 
L 71.588 77.935875 
" style="fill: none; stroke: #c44e52; stroke-width: 1.2; stroke-linecap: round"/>
    </g>
    <g id="text_20">
     <!-- Vanilla -->
     <g style="fill: #262626" transform="translate(78.628 81.015875) scale(0.088 -0.088)">
      <defs>
       <path id="DejaVuSans-56" d="M 1831 0 
L 50 4666 
L 709 4666 
L 2188 738 
L 3669 4666 
L 4325 4666 
L 2547 0 
L 1831 0 
z
" transform="scale(0.015625)"/>
      </defs>
      <use xlink:href="#DejaVuSans-56"/>
      <use xlink:href="#DejaVuSans-61" x="60.658203"/>
      <use xlink:href="#DejaVuSans-6e" x="121.9375"/>
      <use xlink:href="#DejaVuSans-69" x="185.316406"/>
      <use xlink:href="#DejaVuSans-6c" x="213.099609"/>
      <use xlink:href="#DejaVuSans-6c" x="240.882812"/>
      <use xlink:href="#DejaVuSans-61" x="268.666016"/>
     </g>
    </g>
   </g>
  </g>
 </g>
 <defs>
  <clipPath id="pbb4a1449e0">
   <rect x="46.068" y="13.968" width="872.589" height="448.644"/>
  </clipPath>
 </defs>
</svg>
