<?xml version="1.0" encoding="utf-8" standalone="no"?>
<!DOCTYPE svg PUBLIC "-//W3C//DTD SVG 1.1//EN"
  "http://www.w3.org/Graphics/SVG/1.1/DTD/svg11.dtd">
<svg xmlns:xlink="http://www.w3.org/1999/xlink" width="936pt" height="504pt" viewBox="0 0 936 504" xmlns="http://www.w3.org/2000/svg" version="1.1">
 <metadata>
  <rdf:RDF xmlns:dc="http://purl.org/dc/elements/1.1/" xmlns:cc="http://creativecommons.org/ns#" xmlns:rdf="http://www.w3.org/1999/02/22-rdf-syntax-ns#">
   <cc:Work>
    <dc:type rdf:resource="http://purl.org/dc/dcmitype/StillImage"/>
    <dc:date>1980-01-01T00:00:00+00:00</dc:date>
    <dc:format>image/svg+xml</dc:format>
    <dc:creator>
     <cc:Agent>
      <dc:title>Matplotlib v3.9.2, https://matplotlib.org/</dc:title>
     </cc:Agent>
    </dc:creator>
   </cc:Work>
  </rdf:RDF>
 </metadata>
 <defs>
  <style type="text/css">*{stroke-linejoin: round; stroke-linecap: butt}</style>
 </defs>
 <g id="figure_1">
  <g id="patch_1">
   <path d="M 0 504 
L 936 504 
L 936 0 
L 0 0 
z
" style="fill: #ffffff"/>
  </g>
  <g id="axes_1">
   <g id="patch_2">
    <path d="M 46.068 462.612 
L 918.657 462.612 
L 918.657 13.968 
L 46.068 13.968 
z
" style="fill: #eaeaf2"/>
   </g>
   <g id="matplotlib.axis_1">
    <g id="xtick_1">
     <g id="line2d_1">
      <path d="M 46.068 462.612 
L 46.068 13.968 
" clip-path="url(#p626e0f69b7)" style="fill: none; stroke: #ffffff; stroke-width: 0.8; stroke-linecap: round"/>
     </g>
     <g id="text_1">
      <!-- 0.0 -->
      <g style="fill: #262626" transform="translate(39.070625 477.598625) scale(0.088 -0.088)">
       <defs>
        <path id="DejaVuSans-30" d="M 2034 4250 
Q 1547 4250 1301 3770 
Q 1056 3291 1056 2328 
Q 1056 1369 1301 889 
Q 1547 409 2034 409 
Q 2525 409 2770 889 
Q 3016 1369 3016 2328 
Q 3016 3291 2770 3770 
Q 2525 4250 2034 4250 
z
M 2034 4750 
Q 2819 4750 3233 4129 
Q 3647 3509 3647 2328 
Q 3647 1150 3233 529 
Q 2819 -91 2034 -91 
Q 1250 -91 836 529 
Q 422 1150 422 2328 
Q 422 3509 836 4129 
Q 1250 4750 2034 4750 
z
" transform="scale(0.015625)"/>
        <path id="DejaVuSans-2e" d="M 684 794 
L 1344 794 
L 1344 0 
L 684 0 
L 684 794 
z
" transform="scale(0.015625)"/>
       </defs>
       <use xlink:href="#DejaVuSans-30"/>
       <use xlink:href="#DejaVuSans-2e" x="63.623047"/>
       <use xlink:href="#DejaVuSans-30" x="95.410156"/>
      </g>
     </g>
    </g>
    <g id="xtick_2">
     <g id="line2d_2">
      <path d="M 220.5858 462.612 
L 220.5858 13.968 
" clip-path="url(#p626e0f69b7)" style="fill: none; stroke: #ffffff; stroke-width: 0.8; stroke-linecap: round"/>
     </g>
     <g id="text_2">
      <!-- 0.2 -->
      <g style="fill: #262626" transform="translate(213.588425 477.598625) scale(0.088 -0.088)">
       <defs>
        <path id="DejaVuSans-32" d="M 1228 531 
L 3431 531 
L 3431 0 
L 469 0 
L 469 531 
Q 828 903 1448 1529 
Q 2069 2156 2228 2338 
Q 2531 2678 2651 2914 
Q 2772 3150 2772 3378 
Q 2772 3750 2511 3984 
Q 2250 4219 1831 4219 
Q 1534 4219 1204 4116 
Q 875 4013 500 3803 
L 500 4441 
Q 881 4594 1212 4672 
Q 1544 4750 1819 4750 
Q 2544 4750 2975 4387 
Q 3406 4025 3406 3419 
Q 3406 3131 3298 2873 
Q 3191 2616 2906 2266 
Q 2828 2175 2409 1742 
Q 1991 1309 1228 531 
z
" transform="scale(0.015625)"/>
       </defs>
       <use xlink:href="#DejaVuSans-30"/>
       <use xlink:href="#DejaVuSans-2e" x="63.623047"/>
       <use xlink:href="#DejaVuSans-32" x="95.410156"/>
      </g>
     </g>
    </g>
    <g id="xtick_3">
     <g id="line2d_3">
      <path d="M 395.1036 462.612 
L 395.1036 13.968 
" clip-path="url(#p626e0f69b7)" style="fill: none; stroke: #ffffff; stroke-width: 0.8; stroke-linecap: round"/>
     </g>
     <g id="text_3">
      <!-- 0.4 -->
      <g style="fill: #262626" transform="translate(388.106225 477.598625) scale(0.088 -0.088)">
       <defs>
        <path id="DejaVuSans-34" d="M 2419 4116 
L 825 1625 
L 2419 1625 
L 2419 4116 
z
M 2253 4666 
L 3047 4666 
L 3047 1625 
L 3713 1625 
L 3713 1100 
L 3047 1100 
L 3047 0 
L 2419 0 
L 2419 1100 
L 313 1100 
L 313 1709 
L 2253 4666 
z
" transform="scale(0.015625)"/>
       </defs>
       <use xlink:href="#DejaVuSans-30"/>
       <use xlink:href="#DejaVuSans-2e" x="63.623047"/>
       <use xlink:href="#DejaVuSans-34" x="95.410156"/>
      </g>
     </g>
    </g>
    <g id="xtick_4">
     <g id="line2d_4">
      <path d="M 569.6214 462.612 
L 569.6214 13.968 
" clip-path="url(#p626e0f69b7)" style="fill: none; stroke: #ffffff; stroke-width: 0.8; stroke-linecap: round"/>
     </g>
     <g id="text_4">
      <!-- 0.6 -->
      <g style="fill: #262626" transform="translate(562.624025 477.598625) scale(0.088 -0.088)">
       <defs>
        <path id="DejaVuSans-36" d="M 2113 2584 
Q 1688 2584 1439 2293 
Q 1191 2003 1191 1497 
Q 1191 994 1439 701 
Q 1688 409 2113 409 
Q 2538 409 2786 701 
Q 3034 994 3034 1497 
Q 3034 2003 2786 2293 
Q 2538 2584 2113 2584 
z
M 3366 4563 
L 3366 3988 
Q 3128 4100 2886 4159 
Q 2644 4219 2406 4219 
Q 1781 4219 1451 3797 
Q 1122 3375 1075 2522 
Q 1259 2794 1537 2939 
Q 1816 3084 2150 3084 
Q 2853 3084 3261 2657 
Q 3669 2231 3669 1497 
Q 3669 778 3244 343 
Q 2819 -91 2113 -91 
Q 1303 -91 875 529 
Q 447 1150 447 2328 
Q 447 3434 972 4092 
Q 1497 4750 2381 4750 
Q 2619 4750 2861 4703 
Q 3103 4656 3366 4563 
z
" transform="scale(0.015625)"/>
       </defs>
       <use xlink:href="#DejaVuSans-30"/>
       <use xlink:href="#DejaVuSans-2e" x="63.623047"/>
       <use xlink:href="#DejaVuSans-36" x="95.410156"/>
      </g>
     </g>
    </g>
    <g id="xtick_5">
     <g id="line2d_5">
      <path d="M 744.1392 462.612 
L 744.1392 13.968 
" clip-path="url(#p626e0f69b7)" style="fill: none; stroke: #ffffff; stroke-width: 0.8; stroke-linecap: round"/>
     </g>
     <g id="text_5">
      <!-- 0.8 -->
      <g style="fill: #262626" transform="translate(737.141825 477.598625) scale(0.088 -0.088)">
       <defs>
        <path id="DejaVuSans-38" d="M 2034 2216 
Q 1584 2216 1326 1975 
Q 1069 1734 1069 1313 
Q 1069 891 1326 650 
Q 1584 409 2034 409 
Q 2484 409 2743 651 
Q 3003 894 3003 1313 
Q 3003 1734 2745 1975 
Q 2488 2216 2034 2216 
z
M 1403 2484 
Q 997 2584 770 2862 
Q 544 3141 544 3541 
Q 544 4100 942 4425 
Q 1341 4750 2034 4750 
Q 2731 4750 3128 4425 
Q 3525 4100 3525 3541 
Q 3525 3141 3298 2862 
Q 3072 2584 2669 2484 
Q 3125 2378 3379 2068 
Q 3634 1759 3634 1313 
Q 3634 634 3220 271 
Q 2806 -91 2034 -91 
Q 1263 -91 848 271 
Q 434 634 434 1313 
Q 434 1759 690 2068 
Q 947 2378 1403 2484 
z
M 1172 3481 
Q 1172 3119 1398 2916 
Q 1625 2713 2034 2713 
Q 2441 2713 2670 2916 
Q 2900 3119 2900 3481 
Q 2900 3844 2670 4047 
Q 2441 4250 2034 4250 
Q 1625 4250 1398 4047 
Q 1172 3844 1172 3481 
z
" transform="scale(0.015625)"/>
       </defs>
       <use xlink:href="#DejaVuSans-30"/>
       <use xlink:href="#DejaVuSans-2e" x="63.623047"/>
       <use xlink:href="#DejaVuSans-38" x="95.410156"/>
      </g>
     </g>
    </g>
    <g id="xtick_6">
     <g id="line2d_6">
      <path d="M 918.657 462.612 
L 918.657 13.968 
" clip-path="url(#p626e0f69b7)" style="fill: none; stroke: #ffffff; stroke-width: 0.8; stroke-linecap: round"/>
     </g>
     <g id="text_6">
      <!-- 1.0 -->
      <g style="fill: #262626" transform="translate(911.659625 477.598625) scale(0.088 -0.088)">
       <defs>
        <path id="DejaVuSans-31" d="M 794 531 
L 1825 531 
L 1825 4091 
L 703 3866 
L 703 4441 
L 1819 4666 
L 2450 4666 
L 2450 531 
L 3481 531 
L 3481 0 
L 794 0 
L 794 531 
z
" transform="scale(0.015625)"/>
       </defs>
       <use xlink:href="#DejaVuSans-31"/>
       <use xlink:href="#DejaVuSans-2e" x="63.623047"/>
       <use xlink:href="#DejaVuSans-30" x="95.410156"/>
      </g>
     </g>
    </g>
    <g id="text_7">
     <!-- Timestep -->
     <g style="fill: #262626" transform="translate(460.23525 490.72325) scale(0.096 -0.096)">
      <defs>
       <path id="DejaVuSans-54" d="M -19 4666 
L 3928 4666 
L 3928 4134 
L 2272 4134 
L 2272 0 
L 1638 0 
L 1638 4134 
L -19 4134 
L -19 4666 
z
" transform="scale(0.015625)"/>
       <path id="DejaVuSans-69" d="M 603 3500 
L 1178 3500 
L 1178 0 
L 603 0 
L 603 3500 
z
M 603 4863 
L 1178 4863 
L 1178 4134 
L 603 4134 
L 603 4863 
z
" transform="scale(0.015625)"/>
       <path id="DejaVuSans-6d" d="M 3328 2828 
Q 3544 3216 3844 3400 
Q 4144 3584 4550 3584 
Q 5097 3584 5394 3201 
Q 5691 2819 5691 2113 
L 5691 0 
L 5113 0 
L 5113 2094 
Q 5113 2597 4934 2840 
Q 4756 3084 4391 3084 
Q 3944 3084 3684 2787 
Q 3425 2491 3425 1978 
L 3425 0 
L 2847 0 
L 2847 2094 
Q 2847 2600 2669 2842 
Q 2491 3084 2119 3084 
Q 1678 3084 1418 2786 
Q 1159 2488 1159 1978 
L 1159 0 
L 581 0 
L 581 3500 
L 1159 3500 
L 1159 2956 
Q 1356 3278 1631 3431 
Q 1906 3584 2284 3584 
Q 2666 3584 2933 3390 
Q 3200 3197 3328 2828 
z
" transform="scale(0.015625)"/>
       <path id="DejaVuSans-65" d="M 3597 1894 
L 3597 1613 
L 953 1613 
Q 991 1019 1311 708 
Q 1631 397 2203 397 
Q 2534 397 2845 478 
Q 3156 559 3463 722 
L 3463 178 
Q 3153 47 2828 -22 
Q 2503 -91 2169 -91 
Q 1331 -91 842 396 
Q 353 884 353 1716 
Q 353 2575 817 3079 
Q 1281 3584 2069 3584 
Q 2775 3584 3186 3129 
Q 3597 2675 3597 1894 
z
M 3022 2063 
Q 3016 2534 2758 2815 
Q 2500 3097 2075 3097 
Q 1594 3097 1305 2825 
Q 1016 2553 972 2059 
L 3022 2063 
z
" transform="scale(0.015625)"/>
       <path id="DejaVuSans-73" d="M 2834 3397 
L 2834 2853 
Q 2591 2978 2328 3040 
Q 2066 3103 1784 3103 
Q 1356 3103 1142 2972 
Q 928 2841 928 2578 
Q 928 2378 1081 2264 
Q 1234 2150 1697 2047 
L 1894 2003 
Q 2506 1872 2764 1633 
Q 3022 1394 3022 966 
Q 3022 478 2636 193 
Q 2250 -91 1575 -91 
Q 1294 -91 989 -36 
Q 684 19 347 128 
L 347 722 
Q 666 556 975 473 
Q 1284 391 1588 391 
Q 1994 391 2212 530 
Q 2431 669 2431 922 
Q 2431 1156 2273 1281 
Q 2116 1406 1581 1522 
L 1381 1569 
Q 847 1681 609 1914 
Q 372 2147 372 2553 
Q 372 3047 722 3315 
Q 1072 3584 1716 3584 
Q 2034 3584 2315 3537 
Q 2597 3491 2834 3397 
z
" transform="scale(0.015625)"/>
       <path id="DejaVuSans-74" d="M 1172 4494 
L 1172 3500 
L 2356 3500 
L 2356 3053 
L 1172 3053 
L 1172 1153 
Q 1172 725 1289 603 
Q 1406 481 1766 481 
L 2356 481 
L 2356 0 
L 1766 0 
Q 1100 0 847 248 
Q 594 497 594 1153 
L 594 3053 
L 172 3053 
L 172 3500 
L 594 3500 
L 594 4494 
L 1172 4494 
z
" transform="scale(0.015625)"/>
       <path id="DejaVuSans-70" d="M 1159 525 
L 1159 -1331 
L 581 -1331 
L 581 3500 
L 1159 3500 
L 1159 2969 
Q 1341 3281 1617 3432 
Q 1894 3584 2278 3584 
Q 2916 3584 3314 3078 
Q 3713 2572 3713 1747 
Q 3713 922 3314 415 
Q 2916 -91 2278 -91 
Q 1894 -91 1617 61 
Q 1341 213 1159 525 
z
M 3116 1747 
Q 3116 2381 2855 2742 
Q 2594 3103 2138 3103 
Q 1681 3103 1420 2742 
Q 1159 2381 1159 1747 
Q 1159 1113 1420 752 
Q 1681 391 2138 391 
Q 2594 391 2855 752 
Q 3116 1113 3116 1747 
z
" transform="scale(0.015625)"/>
      </defs>
      <use xlink:href="#DejaVuSans-54"/>
      <use xlink:href="#DejaVuSans-69" x="57.958984"/>
      <use xlink:href="#DejaVuSans-6d" x="85.742188"/>
      <use xlink:href="#DejaVuSans-65" x="183.154297"/>
      <use xlink:href="#DejaVuSans-73" x="244.677734"/>
      <use xlink:href="#DejaVuSans-74" x="296.777344"/>
      <use xlink:href="#DejaVuSans-65" x="335.986328"/>
      <use xlink:href="#DejaVuSans-70" x="397.509766"/>
     </g>
    </g>
    <g id="text_8">
     <!-- 1e6 -->
     <g style="fill: #262626" transform="translate(902.04425 489.115375) scale(0.088 -0.088)">
      <use xlink:href="#DejaVuSans-31"/>
      <use xlink:href="#DejaVuSans-65" x="63.623047"/>
      <use xlink:href="#DejaVuSans-36" x="125.146484"/>
     </g>
    </g>
   </g>
   <g id="matplotlib.axis_2">
    <g id="ytick_1">
     <g id="line2d_7">
      <path d="M 46.068 462.612 
L 918.657 462.612 
" clip-path="url(#p626e0f69b7)" style="fill: none; stroke: #ffffff; stroke-width: 0.8; stroke-linecap: round"/>
     </g>
     <g id="text_9">
      <!-- 0.0 -->
      <g style="fill: #262626" transform="translate(23.77325 465.955312) scale(0.088 -0.088)">
       <use xlink:href="#DejaVuSans-30"/>
       <use xlink:href="#DejaVuSans-2e" x="63.623047"/>
       <use xlink:href="#DejaVuSans-30" x="95.410156"/>
      </g>
     </g>
    </g>
    <g id="ytick_2">
     <g id="line2d_8">
      <path d="M 46.068 372.8832 
L 918.657 372.8832 
" clip-path="url(#p626e0f69b7)" style="fill: none; stroke: #ffffff; stroke-width: 0.8; stroke-linecap: round"/>
     </g>
     <g id="text_10">
      <!-- 0.2 -->
      <g style="fill: #262626" transform="translate(23.77325 376.226513) scale(0.088 -0.088)">
       <use xlink:href="#DejaVuSans-30"/>
       <use xlink:href="#DejaVuSans-2e" x="63.623047"/>
       <use xlink:href="#DejaVuSans-32" x="95.410156"/>
      </g>
     </g>
    </g>
    <g id="ytick_3">
     <g id="line2d_9">
      <path d="M 46.068 283.1544 
L 918.657 283.1544 
" clip-path="url(#p626e0f69b7)" style="fill: none; stroke: #ffffff; stroke-width: 0.8; stroke-linecap: round"/>
     </g>
     <g id="text_11">
      <!-- 0.4 -->
      <g style="fill: #262626" transform="translate(23.77325 286.497712) scale(0.088 -0.088)">
       <use xlink:href="#DejaVuSans-30"/>
       <use xlink:href="#DejaVuSans-2e" x="63.623047"/>
       <use xlink:href="#DejaVuSans-34" x="95.410156"/>
      </g>
     </g>
    </g>
    <g id="ytick_4">
     <g id="line2d_10">
      <path d="M 46.068 193.4256 
L 918.657 193.4256 
" clip-path="url(#p626e0f69b7)" style="fill: none; stroke: #ffffff; stroke-width: 0.8; stroke-linecap: round"/>
     </g>
     <g id="text_12">
      <!-- 0.6 -->
      <g style="fill: #262626" transform="translate(23.77325 196.768912) scale(0.088 -0.088)">
       <use xlink:href="#DejaVuSans-30"/>
       <use xlink:href="#DejaVuSans-2e" x="63.623047"/>
       <use xlink:href="#DejaVuSans-36" x="95.410156"/>
      </g>
     </g>
    </g>
    <g id="ytick_5">
     <g id="line2d_11">
      <path d="M 46.068 103.6968 
L 918.657 103.6968 
" clip-path="url(#p626e0f69b7)" style="fill: none; stroke: #ffffff; stroke-width: 0.8; stroke-linecap: round"/>
     </g>
     <g id="text_13">
      <!-- 0.8 -->
      <g style="fill: #262626" transform="translate(23.77325 107.040112) scale(0.088 -0.088)">
       <use xlink:href="#DejaVuSans-30"/>
       <use xlink:href="#DejaVuSans-2e" x="63.623047"/>
       <use xlink:href="#DejaVuSans-38" x="95.410156"/>
      </g>
     </g>
    </g>
    <g id="ytick_6">
     <g id="line2d_12">
      <path d="M 46.068 13.968 
L 918.657 13.968 
" clip-path="url(#p626e0f69b7)" style="fill: none; stroke: #ffffff; stroke-width: 0.8; stroke-linecap: round"/>
     </g>
     <g id="text_14">
      <!-- 1.0 -->
      <g style="fill: #262626" transform="translate(23.77325 17.311312) scale(0.088 -0.088)">
       <use xlink:href="#DejaVuSans-31"/>
       <use xlink:href="#DejaVuSans-2e" x="63.623047"/>
       <use xlink:href="#DejaVuSans-30" x="95.410156"/>
      </g>
     </g>
    </g>
    <g id="text_15">
     <!-- Score -->
     <g style="fill: #262626" transform="translate(17.77675 251.73225) rotate(-90) scale(0.096 -0.096)">
      <defs>
       <path id="DejaVuSans-53" d="M 3425 4513 
L 3425 3897 
Q 3066 4069 2747 4153 
Q 2428 4238 2131 4238 
Q 1616 4238 1336 4038 
Q 1056 3838 1056 3469 
Q 1056 3159 1242 3001 
Q 1428 2844 1947 2747 
L 2328 2669 
Q 3034 2534 3370 2195 
Q 3706 1856 3706 1288 
Q 3706 609 3251 259 
Q 2797 -91 1919 -91 
Q 1588 -91 1214 -16 
Q 841 59 441 206 
L 441 856 
Q 825 641 1194 531 
Q 1563 422 1919 422 
Q 2459 422 2753 634 
Q 3047 847 3047 1241 
Q 3047 1584 2836 1778 
Q 2625 1972 2144 2069 
L 1759 2144 
Q 1053 2284 737 2584 
Q 422 2884 422 3419 
Q 422 4038 858 4394 
Q 1294 4750 2059 4750 
Q 2388 4750 2728 4690 
Q 3069 4631 3425 4513 
z
" transform="scale(0.015625)"/>
       <path id="DejaVuSans-63" d="M 3122 3366 
L 3122 2828 
Q 2878 2963 2633 3030 
Q 2388 3097 2138 3097 
Q 1578 3097 1268 2742 
Q 959 2388 959 1747 
Q 959 1106 1268 751 
Q 1578 397 2138 397 
Q 2388 397 2633 464 
Q 2878 531 3122 666 
L 3122 134 
Q 2881 22 2623 -34 
Q 2366 -91 2075 -91 
Q 1284 -91 818 406 
Q 353 903 353 1747 
Q 353 2603 823 3093 
Q 1294 3584 2113 3584 
Q 2378 3584 2631 3529 
Q 2884 3475 3122 3366 
z
" transform="scale(0.015625)"/>
       <path id="DejaVuSans-6f" d="M 1959 3097 
Q 1497 3097 1228 2736 
Q 959 2375 959 1747 
Q 959 1119 1226 758 
Q 1494 397 1959 397 
Q 2419 397 2687 759 
Q 2956 1122 2956 1747 
Q 2956 2369 2687 2733 
Q 2419 3097 1959 3097 
z
M 1959 3584 
Q 2709 3584 3137 3096 
Q 3566 2609 3566 1747 
Q 3566 888 3137 398 
Q 2709 -91 1959 -91 
Q 1206 -91 779 398 
Q 353 888 353 1747 
Q 353 2609 779 3096 
Q 1206 3584 1959 3584 
z
" transform="scale(0.015625)"/>
       <path id="DejaVuSans-72" d="M 2631 2963 
Q 2534 3019 2420 3045 
Q 2306 3072 2169 3072 
Q 1681 3072 1420 2755 
Q 1159 2438 1159 1844 
L 1159 0 
L 581 0 
L 581 3500 
L 1159 3500 
L 1159 2956 
Q 1341 3275 1631 3429 
Q 1922 3584 2338 3584 
Q 2397 3584 2469 3576 
Q 2541 3569 2628 3553 
L 2631 2963 
z
" transform="scale(0.015625)"/>
      </defs>
      <use xlink:href="#DejaVuSans-53"/>
      <use xlink:href="#DejaVuSans-63" x="63.476562"/>
      <use xlink:href="#DejaVuSans-6f" x="118.457031"/>
      <use xlink:href="#DejaVuSans-72" x="179.638672"/>
      <use xlink:href="#DejaVuSans-65" x="218.501953"/>
     </g>
    </g>
   </g>
   <g id="PolyCollection_1">
    <defs>
     <path id="m9e472bdc62" d="M 54.79389 -41.388 
L 54.79389 -41.388 
L 63.51978 -41.388 
L 72.24567 -41.388 
L 80.97156 -41.388 
L 89.69745 -41.388 
L 98.42334 -41.388 
L 107.14923 -50.220679 
L 115.87512 -41.388 
L 124.60101 -66.983841 
L 133.3269 -93.150302 
L 142.05279 -93.626986 
L 150.77868 -84.541945 
L 159.50457 -136.640729 
L 168.23046 -153.184477 
L 176.95635 -145.781851 
L 185.68224 -170.990036 
L 194.40813 -188.795594 
L 203.13402 -249.362534 
L 211.85991 -256.877321 
L 220.5858 -249.474695 
L 229.31169 -275.524088 
L 238.03758 -326.613423 
L 246.76347 -335.418062 
L 255.48936 -310.714601 
L 264.21525 -241.903828 
L 272.94114 -276.337255 
L 281.66703 -250.0355 
L 290.39292 -379.432141 
L 299.11881 -396.601887 
L 307.8447 -421.950273 
L 316.57059 -397.611336 
L 325.29648 -345.400391 
L 334.02237 -398.03194 
L 342.74826 -371.05091 
L 351.47415 -371.365662 
L 360.20004 -371.646065 
L 368.92593 -423.85701 
L 377.65182 -423.966367 
L 386.37771 -370.854628 
L 395.1036 -318.649992 
L 403.82949 -423.015803 
L 412.55538 -450.130724 
L 421.28127 -423.015803 
L 430.00716 -371.281541 
L 438.73305 -423.716809 
L 447.45894 -396.29064 
L 456.18483 -423.212084 
L 464.91072 -318.89955 
L 473.63661 -370.440334 
L 482.3625 -397.636572 
L 491.08839 -396.770129 
L 499.81428 -396.686008 
L 508.54017 -449.429718 
L 517.26606 -396.88229 
L 525.99195 -423.688769 
L 534.71784 -422.931682 
L 543.44373 -450.102684 
L 552.16962 -448.083786 
L 560.89551 -423.772889 
L 569.6214 -423.632688 
L 578.34729 -423.212084 
L 587.07318 -397.891738 
L 595.79907 -397.274853 
L 604.52496 -450.439167 
L 613.25085 -371.1133 
L 621.97674 -423.80093 
L 630.70263 -397.695457 
L 639.42852 -397.358974 
L 648.15441 -423.184044 
L 656.8803 -424.445855 
L 665.60619 -318.986475 
L 674.33208 -423.436406 
L 683.05797 -370.945058 
L 691.78386 -397.691952 
L 700.50975 -371.1133 
L 709.23564 -473.600414 
L 709.23564 -476.011875 
L 709.23564 -476.011875 
L 700.50975 -475.703432 
L 691.78386 -475.703432 
L 683.05797 -475.703432 
L 674.33208 -475.703432 
L 665.60619 -475.703432 
L 656.8803 -475.703432 
L 648.15441 -475.703432 
L 639.42852 -475.703432 
L 630.70263 -475.703432 
L 621.97674 -475.703432 
L 613.25085 -475.703432 
L 604.52496 -475.703432 
L 595.79907 -475.703432 
L 587.07318 -475.703432 
L 578.34729 -475.703432 
L 569.6214 -475.703432 
L 560.89551 -475.594075 
L 552.16962 -475.703432 
L 543.44373 -475.594075 
L 534.71784 -475.703432 
L 525.99195 -475.703432 
L 517.26606 -475.703432 
L 508.54017 -475.703432 
L 499.81428 -475.703432 
L 491.08839 -475.703432 
L 482.3625 -475.703432 
L 473.63661 -475.591271 
L 464.91072 -475.703432 
L 456.18483 -475.703432 
L 447.45894 -475.591271 
L 438.73305 -475.703432 
L 430.00716 -475.703432 
L 421.28127 -475.591271 
L 412.55538 -475.703432 
L 403.82949 -475.703432 
L 395.1036 -475.703432 
L 386.37771 -475.703432 
L 377.65182 -475.45107 
L 368.92593 -475.703432 
L 360.20004 -475.706937 
L 351.47415 -475.703432 
L 342.74826 -475.703432 
L 334.02237 -475.703432 
L 325.29648 -475.706937 
L 316.57059 -475.703432 
L 307.8447 -475.703432 
L 299.11881 -475.703432 
L 290.39292 -474.834184 
L 281.66703 -474.834184 
L 272.94114 -431.177618 
L 264.21525 -422.314796 
L 255.48936 -431.399837 
L 246.76347 -441.129804 
L 238.03758 -441.715845 
L 229.31169 -430.848145 
L 220.5858 -423.043843 
L 211.85991 -327.763073 
L 203.13402 -421.185475 
L 194.40813 -369.795408 
L 185.68224 -344.25074 
L 176.95635 -423.492487 
L 168.23046 -335.109619 
L 159.50457 -335.390021 
L 150.77868 -307.461932 
L 142.05279 -353.868546 
L 133.3269 -342.235347 
L 124.60101 -119.816579 
L 115.87512 -170.765714 
L 107.14923 -102.319463 
L 98.42334 -93.374624 
L 89.69745 -41.388 
L 80.97156 -41.388 
L 72.24567 -41.388 
L 63.51978 -41.388 
L 54.79389 -41.388 
z
" style="stroke: #4c72b0; stroke-opacity: 0.2; stroke-width: 0.8"/>
    </defs>
    <g clip-path="url(#p626e0f69b7)">
     <use xlink:href="#m9e472bdc62" x="0" y="504" style="fill: #4c72b0; fill-opacity: 0.2; stroke: #4c72b0; stroke-opacity: 0.2; stroke-width: 0.8"/>
    </g>
   </g>
   <g id="PolyCollection_2">
    <defs>
     <path id="m546179a17b" d="M 54.79389 -41.388 
L 54.79389 -41.388 
L 63.51978 -41.388 
L 72.24567 -41.388 
L 80.97156 -41.388 
L 89.69745 -41.388 
L 98.42334 -41.388 
L 107.14923 -41.388 
L 115.87512 -49.856156 
L 124.60101 -58.997277 
L 133.3269 -93.374624 
L 142.05279 -119.648338 
L 150.77868 -137.229575 
L 159.50457 -162.718162 
L 168.23046 -222.303693 
L 176.95635 -231.472855 
L 185.68224 -325.772216 
L 194.40813 -310.265957 
L 203.13402 -317.668583 
L 211.85991 -344.515721 
L 220.5858 -345.34431 
L 229.31169 -388.093073 
L 238.03758 -353.784425 
L 246.76347 -380.310502 
L 255.48936 -438.43794 
L 264.21525 -389.956348 
L 272.94114 -379.467191 
L 281.66703 -371.029179 
L 290.39292 -380.675025 
L 299.11881 -424.109372 
L 307.8447 -397.274853 
L 316.57059 -372.879836 
L 325.29648 -372.29099 
L 334.02237 -372.347071 
L 342.74826 -346.297679 
L 351.47415 -475.058507 
L 351.47415 -477.582129 
L 351.47415 -477.582129 
L 342.74826 -477.413888 
L 334.02237 -477.413888 
L 325.29648 -477.413888 
L 316.57059 -477.554089 
L 307.8447 -477.413888 
L 299.11881 -477.554089 
L 290.39292 -477.245646 
L 281.66703 -476.965244 
L 272.94114 -476.691851 
L 264.21525 -476.965244 
L 255.48936 -476.377099 
L 246.76347 -476.965244 
L 238.03758 -460.141094 
L 229.31169 -468.945732 
L 220.5858 -468.328846 
L 211.85991 -459.580289 
L 203.13402 -469.057893 
L 194.40813 -451.028012 
L 185.68224 -425.427264 
L 176.95635 -370.272092 
L 168.23046 -396.742088 
L 159.50457 -284.637169 
L 150.77868 -275.131524 
L 142.05279 -206.189662 
L 133.3269 -215.602073 
L 124.60101 -241.595385 
L 115.87512 -102.319463 
L 107.14923 -111.180182 
L 98.42334 -67.381312 
L 89.69745 -41.388 
L 80.97156 -41.388 
L 72.24567 -41.388 
L 63.51978 -41.388 
L 54.79389 -41.388 
z
" style="stroke: #dd8452; stroke-opacity: 0.2; stroke-width: 0.8"/>
    </defs>
    <g clip-path="url(#p626e0f69b7)">
     <use xlink:href="#m546179a17b" x="0" y="504" style="fill: #dd8452; fill-opacity: 0.2; stroke: #dd8452; stroke-opacity: 0.2; stroke-width: 0.8"/>
    </g>
   </g>
   <g id="PolyCollection_3">
    <defs>
     <path id="m51ae6c30f0" d="M 54.79389 -41.388 
L 54.79389 -41.388 
L 63.51978 -41.388 
L 72.24567 -41.388 
L 80.97156 -41.388 
L 89.69745 -41.388 
L 98.42334 -41.388 
L 107.14923 -41.388 
L 115.87512 -41.388 
L 124.60101 -41.388 
L 133.3269 -50.192639 
L 142.05279 -41.388 
L 150.77868 -84.962549 
L 159.50457 -111.180182 
L 168.23046 -189.861124 
L 176.95635 -180.607841 
L 185.68224 -267.841059 
L 194.40813 -249.530776 
L 203.13402 -240.810258 
L 211.85991 -267.606222 
L 220.5858 -250.203742 
L 229.31169 -308.976106 
L 238.03758 -292.039795 
L 246.76347 -266.551208 
L 255.48936 -291.565915 
L 264.21525 -328.688402 
L 272.94114 -232.0617 
L 281.66703 -274.851122 
L 290.39292 -241.567345 
L 299.11881 -284.693249 
L 307.8447 -319.404275 
L 316.57059 -362.889094 
L 325.29648 -320.332407 
L 334.02237 -352.915178 
L 342.74826 -284.132444 
L 351.47415 -293.441807 
L 360.20004 -276.645698 
L 368.92593 -293.862411 
L 377.65182 -258.9523 
L 386.37771 -285.197974 
L 395.1036 -198.777923 
L 403.82949 -336.623792 
L 412.55538 -189.160117 
L 421.28127 -336.511631 
L 430.00716 -276.056852 
L 438.73305 -320.157856 
L 447.45894 -380.724796 
L 456.18483 -318.902354 
L 464.91072 -294.535377 
L 473.63661 -371.337622 
L 482.3625 -369.634177 
L 491.08839 -396.209324 
L 499.81428 -422.511078 
L 508.54017 -397.443095 
L 517.26606 -370.776817 
L 525.99195 -422.565756 
L 534.71784 -396.458181 
L 543.44373 -371.225461 
L 552.16962 -371.281541 
L 560.89551 -266.719449 
L 569.6214 -398.200181 
L 578.34729 -423.127964 
L 587.07318 -345.288229 
L 595.79907 -396.461686 
L 604.52496 -396.96641 
L 613.25085 -422.931682 
L 621.97674 -397.302893 
L 630.70263 -421.922233 
L 639.42852 -396.181283 
L 648.15441 -370.464869 
L 656.8803 -344.979787 
L 665.60619 -423.099923 
L 674.33208 -423.464447 
L 683.05797 -449.177356 
L 691.78386 -423.043843 
L 700.50975 -449.68208 
L 709.23564 -371.393702 
L 717.96153 -319.463159 
L 726.68742 -371.309582 
L 735.41331 -371.14134 
L 744.1392 -319.126676 
L 752.86509 -344.559183 
L 761.59098 -370.748777 
L 770.31687 -371.365662 
L 779.04276 -423.127964 
L 787.76865 -397.190732 
L 796.49454 -396.93837 
L 805.22043 -396.714048 
L 813.94632 -371.618024 
L 822.67221 -345.540592 
L 831.3981 -398.144101 
L 840.12399 -371.197421 
L 848.84988 -370.859535 
L 857.57577 -397.835658 
L 866.30166 -397.555256 
L 875.02755 -372.094709 
L 883.75344 -371.561944 
L 892.47933 -318.313509 
L 901.20522 -371.561944 
L 909.93111 -398.676866 
L 918.657 -370.552495 
L 918.657 -474.946346 
L 918.657 -474.946346 
L 909.93111 -474.806144 
L 901.20522 -474.946346 
L 892.47933 -474.806144 
L 883.75344 -474.806144 
L 875.02755 -474.806144 
L 866.30166 -474.806144 
L 857.57577 -474.809649 
L 848.84988 -474.806144 
L 840.12399 -474.806144 
L 831.3981 -474.946346 
L 822.67221 -475.002426 
L 813.94632 -474.806144 
L 805.22043 -474.947748 
L 796.49454 -474.946346 
L 787.76865 -475.002426 
L 779.04276 -474.946346 
L 770.31687 -474.809649 
L 761.59098 -474.946346 
L 752.86509 -474.806144 
L 744.1392 -474.809649 
L 735.41331 -474.806144 
L 726.68742 -474.946346 
L 717.96153 -474.809649 
L 709.23564 -474.806144 
L 700.50975 -474.806144 
L 691.78386 -474.946346 
L 683.05797 -474.946346 
L 674.33208 -474.946346 
L 665.60619 -474.806144 
L 656.8803 -474.806144 
L 648.15441 -474.806144 
L 639.42852 -475.002426 
L 630.70263 -474.947748 
L 621.97674 -474.946346 
L 613.25085 -474.947748 
L 604.52496 -474.806144 
L 595.79907 -474.806144 
L 587.07318 -474.946346 
L 578.34729 -474.806144 
L 569.6214 -474.946346 
L 560.89551 -474.806144 
L 552.16962 -474.806144 
L 543.44373 -474.809649 
L 534.71784 -474.806144 
L 525.99195 -474.806144 
L 517.26606 -474.809649 
L 508.54017 -474.806144 
L 499.81428 -474.946346 
L 491.08839 -474.806144 
L 482.3625 -474.750064 
L 473.63661 -474.750064 
L 464.91072 -474.611966 
L 456.18483 -474.750064 
L 447.45894 -474.750064 
L 438.73305 -474.750064 
L 430.00716 -474.750064 
L 421.28127 -457.252948 
L 412.55538 -413.594278 
L 403.82949 -440.793321 
L 395.1036 -405.827129 
L 386.37771 -413.730975 
L 377.65182 -439.924073 
L 368.92593 -421.978313 
L 360.20004 -430.446469 
L 351.47415 -414.039417 
L 342.74826 -413.089554 
L 334.02237 -406.219693 
L 325.29648 -406.556176 
L 316.57059 -414.127043 
L 307.8447 -389.507704 
L 299.11881 -398.648825 
L 290.39292 -337.49304 
L 281.66703 -397.471135 
L 272.94114 -355.046237 
L 264.21525 -407.00482 
L 255.48936 -396.405605 
L 246.76347 -354.207132 
L 238.03758 -396.517766 
L 229.31169 -387.96549 
L 220.5858 -381.936836 
L 211.85991 -406.704088 
L 203.13402 -345.007827 
L 194.40813 -327.538751 
L 185.68224 -353.644224 
L 176.95635 -215.433832 
L 168.23046 -303.78866 
L 159.50457 -233.267431 
L 150.77868 -188.851675 
L 142.05279 -224.518873 
L 133.3269 -145.69773 
L 124.60101 -76.634594 
L 115.87512 -67.633674 
L 107.14923 -41.388 
L 98.42334 -41.388 
L 89.69745 -41.388 
L 80.97156 -41.388 
L 72.24567 -41.388 
L 63.51978 -41.388 
L 54.79389 -41.388 
z
" style="stroke: #55a868; stroke-opacity: 0.2; stroke-width: 0.8"/>
    </defs>
    <g clip-path="url(#p626e0f69b7)">
     <use xlink:href="#m51ae6c30f0" x="0" y="504" style="fill: #55a868; fill-opacity: 0.2; stroke: #55a868; stroke-opacity: 0.2; stroke-width: 0.8"/>
    </g>
   </g>
   <g id="PolyCollection_4">
    <defs>
     <path id="ma1dd2ce70b" d="M 54.79389 -41.388 
L 54.79389 -41.388 
L 63.51978 -41.388 
L 72.24567 -41.388 
L 80.97156 -41.388 
L 89.69745 -41.388 
L 98.42334 -41.388 
L 107.14923 -41.388 
L 115.87512 -41.388 
L 124.60101 -41.388 
L 133.3269 -50.192639 
L 142.05279 -41.388 
L 150.77868 -84.962549 
L 159.50457 -111.292343 
L 168.23046 -189.915802 
L 176.95635 -180.46764 
L 185.68224 -267.841059 
L 194.40813 -249.530075 
L 203.13402 -240.810258 
L 211.85991 -267.616737 
L 220.5858 -250.063541 
L 229.31169 -308.807864 
L 238.03758 -293.161405 
L 246.76347 -274.871451 
L 255.48936 -285.113853 
L 264.21525 -328.604281 
L 272.94114 -223.649625 
L 281.66703 -274.851122 
L 290.39292 -241.567345 
L 299.11881 -284.693249 
L 307.8447 -319.294918 
L 316.57059 -362.561024 
L 325.29648 -320.609304 
L 334.02237 -352.999298 
L 342.74826 -292.57256 
L 351.47415 -293.441807 
L 360.20004 -276.635883 
L 368.92593 -293.77829 
L 377.65182 -258.868179 
L 386.37771 -285.197974 
L 395.1036 -198.918125 
L 403.82949 -337.265213 
L 412.55538 -189.160117 
L 421.28127 -336.735953 
L 430.00716 -276.050543 
L 438.73305 -320.360447 
L 447.45894 -380.478743 
L 456.18483 -319.148407 
L 464.91072 -293.806331 
L 473.63661 -371.337622 
L 482.3625 -353.499116 
L 491.08839 -396.209324 
L 499.81428 -422.454997 
L 508.54017 -397.387014 
L 517.26606 -370.720736 
L 525.99195 -422.70736 
L 534.71784 -396.517766 
L 543.44373 -371.225461 
L 552.16962 -371.421743 
L 560.89551 -266.663368 
L 569.6214 -398.396463 
L 578.34729 -423.127964 
L 587.07318 -345.28823 
L 595.79907 -396.461686 
L 604.52496 -397.022491 
L 613.25085 -422.931682 
L 621.97674 -397.302893 
L 630.70263 -421.922233 
L 639.42852 -396.321484 
L 648.15441 -370.523052 
L 656.8803 -344.979787 
L 665.60619 -423.098521 
L 674.33208 -423.520527 
L 683.05797 -449.177356 
L 691.78386 -423.099923 
L 700.50975 -449.485799 
L 709.23564 -371.449783 
L 717.96153 -319.463159 
L 726.68742 -371.505863 
L 735.41331 -370.999737 
L 744.1392 -319.070596 
L 752.86509 -344.615264 
L 761.59098 -370.608575 
L 770.31687 -371.365662 
L 779.04276 -423.124458 
L 787.76865 -397.134652 
L 796.49454 -396.88229 
L 805.22043 -396.714048 
L 813.94632 -371.561944 
L 822.67221 -345.34431 
L 831.3981 -398.200181 
L 840.12399 -371.449783 
L 848.84988 -370.804857 
L 857.57577 -397.639376 
L 866.30166 -397.555256 
L 875.02755 -371.898427 
L 883.75344 -371.421743 
L 892.47933 -318.36959 
L 901.20522 -371.561944 
L 909.93111 -398.535262 
L 918.657 -370.552495 
L 918.657 -474.806144 
L 918.657 -474.806144 
L 909.93111 -474.809649 
L 901.20522 -474.806144 
L 892.47933 -474.946346 
L 883.75344 -474.806144 
L 875.02755 -474.806144 
L 866.30166 -474.809649 
L 857.57577 -474.946346 
L 848.84988 -474.946346 
L 840.12399 -474.946346 
L 831.3981 -474.946346 
L 822.67221 -475.002426 
L 813.94632 -474.946346 
L 805.22043 -474.806144 
L 796.49454 -474.806144 
L 787.76865 -474.809649 
L 779.04276 -474.806144 
L 770.31687 -474.806144 
L 761.59098 -475.002426 
L 752.86509 -474.806144 
L 744.1392 -474.946346 
L 735.41331 -474.806144 
L 726.68742 -474.806144 
L 717.96153 -474.946346 
L 709.23564 -474.946346 
L 700.50975 -474.806144 
L 691.78386 -474.806144 
L 683.05797 -474.809649 
L 674.33208 -474.806144 
L 665.60619 -474.806144 
L 656.8803 -474.806144 
L 648.15441 -474.806144 
L 639.42852 -474.806144 
L 630.70263 -474.806144 
L 621.97674 -474.946346 
L 613.25085 -474.750064 
L 604.52496 -474.946346 
L 595.79907 -474.946346 
L 587.07318 -474.809649 
L 578.34729 -474.806144 
L 569.6214 -474.806144 
L 560.89551 -474.809649 
L 552.16962 -474.806144 
L 543.44373 -474.806144 
L 534.71784 -474.946346 
L 525.99195 -474.806144 
L 517.26606 -474.946346 
L 508.54017 -474.806144 
L 499.81428 -474.806144 
L 491.08839 -474.806144 
L 482.3625 -474.750064 
L 473.63661 -474.750064 
L 464.91072 -474.750064 
L 456.18483 -474.750064 
L 447.45894 -474.750064 
L 438.73305 -474.806144 
L 430.00716 -474.750064 
L 421.28127 -457.252948 
L 412.55538 -413.902721 
L 403.82949 -440.793321 
L 395.1036 -405.827129 
L 386.37771 -422.342836 
L 377.65182 -440.064275 
L 368.92593 -422.454997 
L 360.20004 -422.258716 
L 351.47415 -413.818601 
L 342.74826 -413.089554 
L 334.02237 -413.70644 
L 325.29648 -406.556176 
L 316.57059 -413.818601 
L 307.8447 -389.311422 
L 299.11881 -391.509077 
L 290.39292 -337.503555 
L 281.66703 -380.731106 
L 272.94114 -355.747243 
L 264.21525 -398.765893 
L 255.48936 -388.666496 
L 246.76347 -362.757305 
L 238.03758 -396.517766 
L 229.31169 -387.96549 
L 220.5858 -381.628393 
L 211.85991 -407.00482 
L 203.13402 -345.007827 
L 194.40813 -327.594832 
L 185.68224 -353.644224 
L 176.95635 -215.433832 
L 168.23046 -311.836211 
L 159.50457 -233.267431 
L 150.77868 -188.851675 
L 142.05279 -242.072069 
L 133.3269 -137.061333 
L 124.60101 -76.634594 
L 115.87512 -67.633674 
L 107.14923 -41.388 
L 98.42334 -41.388 
L 89.69745 -41.388 
L 80.97156 -41.388 
L 72.24567 -41.388 
L 63.51978 -41.388 
L 54.79389 -41.388 
z
" style="stroke: #c44e52; stroke-opacity: 0.2; stroke-width: 0.8"/>
    </defs>
    <g clip-path="url(#p626e0f69b7)">
     <use xlink:href="#ma1dd2ce70b" x="0" y="504" style="fill: #c44e52; fill-opacity: 0.2; stroke: #c44e52; stroke-opacity: 0.2; stroke-width: 0.8"/>
    </g>
   </g>
   <g id="line2d_13">
    <path d="M 54.79389 462.612 
L 63.51978 462.612 
L 72.24567 462.612 
L 80.97156 462.612 
L 89.69745 462.612 
L 98.42334 445.283125 
L 107.14923 427.729929 
L 115.87512 410.737537 
L 124.60101 410.765578 
L 133.3269 298.91302 
L 142.05279 288.454007 
L 150.77868 307.913941 
L 159.50457 254.609425 
L 168.23046 238.233919 
L 176.95635 201.893755 
L 185.68224 245.973028 
L 194.40813 203.351849 
L 203.13402 159.440817 
L 211.85991 211.679803 
L 220.5858 167.740731 
L 229.31169 142.728828 
L 238.03758 116.00647 
L 246.76347 115.726067 
L 255.48936 132.942781 
L 264.21525 167.572489 
L 272.94114 142.252144 
L 281.66703 133.026901 
L 290.39292 72.656243 
L 299.11881 55.243248 
L 307.8447 46.831173 
L 316.57059 54.990886 
L 325.29648 72.3478 
L 334.02237 54.850684 
L 342.74826 63.963766 
L 351.47415 63.739444 
L 360.20004 63.683363 
L 368.92593 46.242328 
L 377.65182 46.242328 
L 386.37771 63.823564 
L 395.1036 81.2646 
L 403.82949 46.438609 
L 412.55538 37.437689 
L 421.28127 46.438609 
L 430.00716 63.683363 
L 438.73305 46.326448 
L 447.45894 55.383449 
L 456.18483 46.49469 
L 464.91072 81.180479 
L 473.63661 63.963766 
L 482.3625 55.018926 
L 491.08839 55.187167 
L 499.81428 55.299328 
L 508.54017 37.718092 
L 517.26606 55.187167 
L 525.99195 46.298408 
L 534.71784 46.46665 
L 543.44373 37.49377 
L 552.16962 38.082615 
L 560.89551 46.270368 
L 569.6214 46.270368 
L 578.34729 46.410569 
L 587.07318 54.850684 
L 595.79907 55.103047 
L 604.52496 37.381609 
L 613.25085 63.823564 
L 621.97674 46.214287 
L 630.70263 54.962845 
L 639.42852 55.075006 
L 648.15441 46.46665 
L 656.8803 46.046046 
L 665.60619 81.23656 
L 674.33208 46.382529 
L 683.05797 63.879645 
L 691.78386 54.962845 
L 700.50975 63.823564 
L 709.23564 29.137775 
" clip-path="url(#p626e0f69b7)" style="fill: none; stroke: #4c72b0; stroke-width: 1.2; stroke-linecap: round"/>
   </g>
   <g id="line2d_14">
    <path d="M 54.79389 462.612 
L 63.51978 462.612 
L 72.24567 462.612 
L 80.97156 462.612 
L 89.69745 462.612 
L 98.42334 453.947563 
L 107.14923 427.87013 
L 115.87512 428.150533 
L 124.60101 375.350742 
L 133.3269 349.581752 
L 142.05279 340.721033 
L 150.77868 306.624089 
L 159.50457 280.322335 
L 168.23046 186.079054 
L 176.95635 203.127526 
L 185.68224 132.550217 
L 194.40813 123.353015 
L 203.13402 106.108261 
L 211.85991 105.94002 
L 220.5858 96.883019 
L 229.31169 70.805587 
L 238.03758 96.911059 
L 246.76347 71.22619 
L 255.48936 46.298408 
L 264.21525 62.477632 
L 272.94114 71.506593 
L 281.66703 80.002789 
L 290.39292 71.19815 
L 299.11881 44.980516 
L 307.8447 53.925356 
L 316.57059 62.057029 
L 325.29648 62.25331 
L 334.02237 62.141149 
L 342.74826 70.917748 
L 351.47415 27.707722 
" clip-path="url(#p626e0f69b7)" style="fill: none; stroke: #dd8452; stroke-width: 1.2; stroke-linecap: round"/>
   </g>
   <g id="line2d_15">
    <path d="M 54.79389 462.612 
L 63.51978 462.612 
L 72.24567 462.612 
L 80.97156 462.612 
L 89.69745 462.612 
L 98.42334 462.612 
L 107.14923 462.612 
L 115.87512 453.863442 
L 124.60101 445.086844 
L 133.3269 410.373014 
L 142.05279 384.015179 
L 150.77868 366.994747 
L 159.50457 331.776193 
L 168.23046 253.151332 
L 176.95635 305.951123 
L 185.68224 193.257358 
L 194.40813 211.147038 
L 203.13402 210.698394 
L 211.85991 166.843443 
L 220.5858 192.556352 
L 229.31169 159.917501 
L 238.03758 159.160415 
L 246.76347 193.621882 
L 255.48936 167.993093 
L 264.21525 140.457568 
L 272.94114 210.446032 
L 281.66703 176.208887 
L 290.39292 209.969347 
L 299.11881 166.535 
L 307.8447 149.598689 
L 316.57059 115.333504 
L 325.29648 140.485608 
L 334.02237 124.390504 
L 342.74826 159.328656 
L 351.47415 158.403328 
L 360.20004 150.495977 
L 368.92593 149.991253 
L 377.65182 140.934252 
L 386.37771 158.62765 
L 395.1036 201.697474 
L 403.82949 114.96898 
L 412.55538 193.39756 
L 421.28127 107.11771 
L 430.00716 124.418545 
L 438.73305 98.14483 
L 447.45894 72.29172 
L 456.18483 89.284111 
L 464.91072 106.725147 
L 473.63661 80.956157 
L 482.3625 81.376761 
L 491.08839 55.691892 
L 499.81428 46.943334 
L 508.54017 55.299328 
L 517.26606 64.188088 
L 525.99195 46.859213 
L 534.71784 55.607771 
L 543.44373 64.019846 
L 552.16962 64.019846 
L 560.89551 98.873877 
L 569.6214 55.046966 
L 578.34729 46.719012 
L 587.07318 72.684283 
L 595.79907 55.607771 
L 604.52496 55.43953 
L 613.25085 46.803133 
L 621.97674 55.327369 
L 630.70263 47.139616 
L 639.42852 55.719932 
L 648.15441 64.272208 
L 656.8803 72.768404 
L 665.60619 46.747052 
L 674.33208 46.606851 
L 683.05797 38.054575 
L 691.78386 46.747052 
L 700.50975 37.886333 
L 709.23564 63.963766 
L 717.96153 81.29264 
L 726.68742 63.991806 
L 735.41331 64.047887 
L 744.1392 81.404801 
L 752.86509 72.908605 
L 761.59098 64.244168 
L 770.31687 63.991806 
L 779.04276 46.719012 
L 787.76865 55.383449 
L 796.49454 55.46757 
L 805.22043 55.523651 
L 813.94632 63.907685 
L 822.67221 72.600163 
L 831.3981 55.046966 
L 840.12399 63.963766 
L 848.84988 64.160047 
L 857.57577 55.215208 
L 866.30166 55.243248 
L 875.02755 63.795524 
L 883.75344 63.907685 
L 892.47933 81.657164 
L 901.20522 63.907685 
L 909.93111 54.934805 
L 918.657 64.244168 
" clip-path="url(#p626e0f69b7)" style="fill: none; stroke: #55a868; stroke-width: 1.2; stroke-linecap: round"/>
   </g>
   <g id="line2d_16">
    <path d="M 54.79389 462.612 
L 63.51978 462.612 
L 72.24567 462.612 
L 80.97156 462.612 
L 89.69745 462.612 
L 98.42334 462.612 
L 107.14923 462.612 
L 115.87512 453.863442 
L 124.60101 445.086844 
L 133.3269 410.373014 
L 142.05279 384.015179 
L 150.77868 366.994747 
L 159.50457 331.776193 
L 168.23046 253.151332 
L 176.95635 305.951123 
L 185.68224 193.257358 
L 194.40813 211.147038 
L 203.13402 210.698394 
L 211.85991 166.843443 
L 220.5858 192.556352 
L 229.31169 159.917501 
L 238.03758 159.160415 
L 246.76347 193.621882 
L 255.48936 167.993093 
L 264.21525 140.457568 
L 272.94114 210.446032 
L 281.66703 176.208887 
L 290.39292 209.969347 
L 299.11881 166.535 
L 307.8447 149.598689 
L 316.57059 115.333504 
L 325.29648 140.485608 
L 334.02237 124.390504 
L 342.74826 159.328656 
L 351.47415 158.403328 
L 360.20004 150.495977 
L 368.92593 149.991253 
L 377.65182 140.934252 
L 386.37771 158.62765 
L 395.1036 201.697474 
L 403.82949 114.96898 
L 412.55538 193.39756 
L 421.28127 107.11771 
L 430.00716 124.418545 
L 438.73305 98.14483 
L 447.45894 72.29172 
L 456.18483 89.284111 
L 464.91072 106.725147 
L 473.63661 80.956157 
L 482.3625 81.376761 
L 491.08839 55.691892 
L 499.81428 46.943334 
L 508.54017 55.299328 
L 517.26606 64.188088 
L 525.99195 46.859213 
L 534.71784 55.607771 
L 543.44373 64.019846 
L 552.16962 64.019846 
L 560.89551 98.873877 
L 569.6214 55.046966 
L 578.34729 46.719012 
L 587.07318 72.684283 
L 595.79907 55.607771 
L 604.52496 55.43953 
L 613.25085 46.803133 
L 621.97674 55.327369 
L 630.70263 47.139616 
L 639.42852 55.719932 
L 648.15441 64.272208 
L 656.8803 72.768404 
L 665.60619 46.747052 
L 674.33208 46.606851 
L 683.05797 38.054575 
L 691.78386 46.747052 
L 700.50975 37.886333 
L 709.23564 63.963766 
L 717.96153 81.29264 
L 726.68742 63.991806 
L 735.41331 64.047887 
L 744.1392 81.404801 
L 752.86509 72.908605 
L 761.59098 64.244168 
L 770.31687 63.991806 
L 779.04276 46.719012 
L 787.76865 55.383449 
L 796.49454 55.46757 
L 805.22043 55.523651 
L 813.94632 63.907685 
L 822.67221 72.600163 
L 831.3981 55.046966 
L 840.12399 63.963766 
L 848.84988 64.160047 
L 857.57577 55.215208 
L 866.30166 55.243248 
L 875.02755 63.795524 
L 883.75344 63.907685 
L 892.47933 81.657164 
L 901.20522 63.907685 
L 909.93111 54.934805 
L 918.657 64.244168 
" clip-path="url(#p626e0f69b7)" style="fill: none; stroke: #c44e52; stroke-width: 1.2; stroke-linecap: round"/>
   </g>
   <g id="line2d_17"/>
   <g id="line2d_18"/>
   <g id="line2d_19"/>
   <g id="line2d_20"/>
   <g id="patch_3">
    <path d="M 46.068 462.612 
L 46.068 13.968 
" style="fill: none; stroke: #ffffff; stroke-linejoin: miter; stroke-linecap: square"/>
   </g>
   <g id="patch_4">
    <path d="M 918.657 462.612 
L 918.657 13.968 
" style="fill: none; stroke: #ffffff; stroke-linejoin: miter; stroke-linecap: square"/>
   </g>
   <g id="patch_5">
    <path d="M 46.068 462.612 
L 918.657 462.612 
" style="fill: none; stroke: #ffffff; stroke-linejoin: miter; stroke-linecap: square"/>
   </g>
   <g id="patch_6">
    <path d="M 46.068 13.968 
L 918.657 13.968 
" style="fill: none; stroke: #ffffff; stroke-linejoin: miter; stroke-linecap: square"/>
   </g>
   <g id="legend_1">
    <g id="patch_7">
     <path d="M 52.228 86.366 
L 169.310625 86.366 
Q 171.070625 86.366 171.070625 84.606 
L 171.070625 20.128 
Q 171.070625 18.368 169.310625 18.368 
L 52.228 18.368 
Q 50.468 18.368 50.468 20.128 
L 50.468 84.606 
Q 50.468 86.366 52.228 86.366 
z
" style="fill: #eaeaf2; opacity: 0.8; stroke: #cccccc; stroke-width: 0.8; stroke-linejoin: miter"/>
    </g>
    <g id="text_16">
     <!-- Approach -->
     <g style="fill: #262626" transform="translate(87.966313 29.1825) scale(0.096 -0.096)">
      <defs>
       <path id="DejaVuSans-41" d="M 2188 4044 
L 1331 1722 
L 3047 1722 
L 2188 4044 
z
M 1831 4666 
L 2547 4666 
L 4325 0 
L 3669 0 
L 3244 1197 
L 1141 1197 
L 716 0 
L 50 0 
L 1831 4666 
z
" transform="scale(0.015625)"/>
       <path id="DejaVuSans-61" d="M 2194 1759 
Q 1497 1759 1228 1600 
Q 959 1441 959 1056 
Q 959 750 1161 570 
Q 1363 391 1709 391 
Q 2188 391 2477 730 
Q 2766 1069 2766 1631 
L 2766 1759 
L 2194 1759 
z
M 3341 1997 
L 3341 0 
L 2766 0 
L 2766 531 
Q 2569 213 2275 61 
Q 1981 -91 1556 -91 
Q 1019 -91 701 211 
Q 384 513 384 1019 
Q 384 1609 779 1909 
Q 1175 2209 1959 2209 
L 2766 2209 
L 2766 2266 
Q 2766 2663 2505 2880 
Q 2244 3097 1772 3097 
Q 1472 3097 1187 3025 
Q 903 2953 641 2809 
L 641 3341 
Q 956 3463 1253 3523 
Q 1550 3584 1831 3584 
Q 2591 3584 2966 3190 
Q 3341 2797 3341 1997 
z
" transform="scale(0.015625)"/>
       <path id="DejaVuSans-68" d="M 3513 2113 
L 3513 0 
L 2938 0 
L 2938 2094 
Q 2938 2591 2744 2837 
Q 2550 3084 2163 3084 
Q 1697 3084 1428 2787 
Q 1159 2491 1159 1978 
L 1159 0 
L 581 0 
L 581 4863 
L 1159 4863 
L 1159 2956 
Q 1366 3272 1645 3428 
Q 1925 3584 2291 3584 
Q 2894 3584 3203 3211 
Q 3513 2838 3513 2113 
z
" transform="scale(0.015625)"/>
      </defs>
      <use xlink:href="#DejaVuSans-41"/>
      <use xlink:href="#DejaVuSans-70" x="68.408203"/>
      <use xlink:href="#DejaVuSans-70" x="131.884766"/>
      <use xlink:href="#DejaVuSans-72" x="195.361328"/>
      <use xlink:href="#DejaVuSans-6f" x="234.224609"/>
      <use xlink:href="#DejaVuSans-61" x="295.40625"/>
      <use xlink:href="#DejaVuSans-63" x="356.685547"/>
      <use xlink:href="#DejaVuSans-68" x="411.666016"/>
     </g>
    </g>
    <g id="line2d_21">
     <path d="M 53.988 39.185625 
L 62.788 39.185625 
L 71.588 39.185625 
" style="fill: none; stroke: #4c72b0; stroke-width: 1.2; stroke-linecap: round"/>
    </g>
    <g id="text_17">
     <!-- Combined -->
     <g style="fill: #262626" transform="translate(78.628 42.265625) scale(0.088 -0.088)">
      <defs>
       <path id="DejaVuSans-43" d="M 4122 4306 
L 4122 3641 
Q 3803 3938 3442 4084 
Q 3081 4231 2675 4231 
Q 1875 4231 1450 3742 
Q 1025 3253 1025 2328 
Q 1025 1406 1450 917 
Q 1875 428 2675 428 
Q 3081 428 3442 575 
Q 3803 722 4122 1019 
L 4122 359 
Q 3791 134 3420 21 
Q 3050 -91 2638 -91 
Q 1578 -91 968 557 
Q 359 1206 359 2328 
Q 359 3453 968 4101 
Q 1578 4750 2638 4750 
Q 3056 4750 3426 4639 
Q 3797 4528 4122 4306 
z
" transform="scale(0.015625)"/>
       <path id="DejaVuSans-62" d="M 3116 1747 
Q 3116 2381 2855 2742 
Q 2594 3103 2138 3103 
Q 1681 3103 1420 2742 
Q 1159 2381 1159 1747 
Q 1159 1113 1420 752 
Q 1681 391 2138 391 
Q 2594 391 2855 752 
Q 3116 1113 3116 1747 
z
M 1159 2969 
Q 1341 3281 1617 3432 
Q 1894 3584 2278 3584 
Q 2916 3584 3314 3078 
Q 3713 2572 3713 1747 
Q 3713 922 3314 415 
Q 2916 -91 2278 -91 
Q 1894 -91 1617 61 
Q 1341 213 1159 525 
L 1159 0 
L 581 0 
L 581 4863 
L 1159 4863 
L 1159 2969 
z
" transform="scale(0.015625)"/>
       <path id="DejaVuSans-6e" d="M 3513 2113 
L 3513 0 
L 2938 0 
L 2938 2094 
Q 2938 2591 2744 2837 
Q 2550 3084 2163 3084 
Q 1697 3084 1428 2787 
Q 1159 2491 1159 1978 
L 1159 0 
L 581 0 
L 581 3500 
L 1159 3500 
L 1159 2956 
Q 1366 3272 1645 3428 
Q 1925 3584 2291 3584 
Q 2894 3584 3203 3211 
Q 3513 2838 3513 2113 
z
" transform="scale(0.015625)"/>
       <path id="DejaVuSans-64" d="M 2906 2969 
L 2906 4863 
L 3481 4863 
L 3481 0 
L 2906 0 
L 2906 525 
Q 2725 213 2448 61 
Q 2172 -91 1784 -91 
Q 1150 -91 751 415 
Q 353 922 353 1747 
Q 353 2572 751 3078 
Q 1150 3584 1784 3584 
Q 2172 3584 2448 3432 
Q 2725 3281 2906 2969 
z
M 947 1747 
Q 947 1113 1208 752 
Q 1469 391 1925 391 
Q 2381 391 2643 752 
Q 2906 1113 2906 1747 
Q 2906 2381 2643 2742 
Q 2381 3103 1925 3103 
Q 1469 3103 1208 2742 
Q 947 2381 947 1747 
z
" transform="scale(0.015625)"/>
      </defs>
      <use xlink:href="#DejaVuSans-43"/>
      <use xlink:href="#DejaVuSans-6f" x="69.824219"/>
      <use xlink:href="#DejaVuSans-6d" x="131.005859"/>
      <use xlink:href="#DejaVuSans-62" x="228.417969"/>
      <use xlink:href="#DejaVuSans-69" x="291.894531"/>
      <use xlink:href="#DejaVuSans-6e" x="319.677734"/>
      <use xlink:href="#DejaVuSans-65" x="383.056641"/>
      <use xlink:href="#DejaVuSans-64" x="444.580078"/>
     </g>
    </g>
    <g id="line2d_22">
     <path d="M 53.988 52.102375 
L 62.788 52.102375 
L 71.588 52.102375 
" style="fill: none; stroke: #dd8452; stroke-width: 1.2; stroke-linecap: round"/>
    </g>
    <g id="text_18">
     <!-- Proximal Curriculum -->
     <g style="fill: #262626" transform="translate(78.628 55.182375) scale(0.088 -0.088)">
      <defs>
       <path id="DejaVuSans-50" d="M 1259 4147 
L 1259 2394 
L 2053 2394 
Q 2494 2394 2734 2622 
Q 2975 2850 2975 3272 
Q 2975 3691 2734 3919 
Q 2494 4147 2053 4147 
L 1259 4147 
z
M 628 4666 
L 2053 4666 
Q 2838 4666 3239 4311 
Q 3641 3956 3641 3272 
Q 3641 2581 3239 2228 
Q 2838 1875 2053 1875 
L 1259 1875 
L 1259 0 
L 628 0 
L 628 4666 
z
" transform="scale(0.015625)"/>
       <path id="DejaVuSans-78" d="M 3513 3500 
L 2247 1797 
L 3578 0 
L 2900 0 
L 1881 1375 
L 863 0 
L 184 0 
L 1544 1831 
L 300 3500 
L 978 3500 
L 1906 2253 
L 2834 3500 
L 3513 3500 
z
" transform="scale(0.015625)"/>
       <path id="DejaVuSans-6c" d="M 603 4863 
L 1178 4863 
L 1178 0 
L 603 0 
L 603 4863 
z
" transform="scale(0.015625)"/>
       <path id="DejaVuSans-20" transform="scale(0.015625)"/>
       <path id="DejaVuSans-75" d="M 544 1381 
L 544 3500 
L 1119 3500 
L 1119 1403 
Q 1119 906 1312 657 
Q 1506 409 1894 409 
Q 2359 409 2629 706 
Q 2900 1003 2900 1516 
L 2900 3500 
L 3475 3500 
L 3475 0 
L 2900 0 
L 2900 538 
Q 2691 219 2414 64 
Q 2138 -91 1772 -91 
Q 1169 -91 856 284 
Q 544 659 544 1381 
z
M 1991 3584 
L 1991 3584 
z
" transform="scale(0.015625)"/>
      </defs>
      <use xlink:href="#DejaVuSans-50"/>
      <use xlink:href="#DejaVuSans-72" x="58.552734"/>
      <use xlink:href="#DejaVuSans-6f" x="97.416016"/>
      <use xlink:href="#DejaVuSans-78" x="155.472656"/>
      <use xlink:href="#DejaVuSans-69" x="214.652344"/>
      <use xlink:href="#DejaVuSans-6d" x="242.435547"/>
      <use xlink:href="#DejaVuSans-61" x="339.847656"/>
      <use xlink:href="#DejaVuSans-6c" x="401.126953"/>
      <use xlink:href="#DejaVuSans-20" x="428.910156"/>
      <use xlink:href="#DejaVuSans-43" x="460.697266"/>
      <use xlink:href="#DejaVuSans-75" x="530.521484"/>
      <use xlink:href="#DejaVuSans-72" x="593.900391"/>
      <use xlink:href="#DejaVuSans-72" x="633.263672"/>
      <use xlink:href="#DejaVuSans-69" x="674.376953"/>
      <use xlink:href="#DejaVuSans-63" x="702.160156"/>
      <use xlink:href="#DejaVuSans-75" x="757.140625"/>
      <use xlink:href="#DejaVuSans-6c" x="820.519531"/>
      <use xlink:href="#DejaVuSans-75" x="848.302734"/>
      <use xlink:href="#DejaVuSans-6d" x="911.681641"/>
     </g>
    </g>
    <g id="line2d_23">
     <path d="M 53.988 65.019125 
L 62.788 65.019125 
L 71.588 65.019125 
" style="fill: none; stroke: #55a868; stroke-width: 1.2; stroke-linecap: round"/>
    </g>
    <g id="text_19">
     <!-- State Novelty (RND) -->
     <g style="fill: #262626" transform="translate(78.628 68.099125) scale(0.088 -0.088)">
      <defs>
       <path id="DejaVuSans-4e" d="M 628 4666 
L 1478 4666 
L 3547 763 
L 3547 4666 
L 4159 4666 
L 4159 0 
L 3309 0 
L 1241 3903 
L 1241 0 
L 628 0 
L 628 4666 
z
" transform="scale(0.015625)"/>
       <path id="DejaVuSans-76" d="M 191 3500 
L 800 3500 
L 1894 563 
L 2988 3500 
L 3597 3500 
L 2284 0 
L 1503 0 
L 191 3500 
z
" transform="scale(0.015625)"/>
       <path id="DejaVuSans-79" d="M 2059 -325 
Q 1816 -950 1584 -1140 
Q 1353 -1331 966 -1331 
L 506 -1331 
L 506 -850 
L 844 -850 
Q 1081 -850 1212 -737 
Q 1344 -625 1503 -206 
L 1606 56 
L 191 3500 
L 800 3500 
L 1894 763 
L 2988 3500 
L 3597 3500 
L 2059 -325 
z
" transform="scale(0.015625)"/>
       <path id="DejaVuSans-28" d="M 1984 4856 
Q 1566 4138 1362 3434 
Q 1159 2731 1159 2009 
Q 1159 1288 1364 580 
Q 1569 -128 1984 -844 
L 1484 -844 
Q 1016 -109 783 600 
Q 550 1309 550 2009 
Q 550 2706 781 3412 
Q 1013 4119 1484 4856 
L 1984 4856 
z
" transform="scale(0.015625)"/>
       <path id="DejaVuSans-52" d="M 2841 2188 
Q 3044 2119 3236 1894 
Q 3428 1669 3622 1275 
L 4263 0 
L 3584 0 
L 2988 1197 
Q 2756 1666 2539 1819 
Q 2322 1972 1947 1972 
L 1259 1972 
L 1259 0 
L 628 0 
L 628 4666 
L 2053 4666 
Q 2853 4666 3247 4331 
Q 3641 3997 3641 3322 
Q 3641 2881 3436 2590 
Q 3231 2300 2841 2188 
z
M 1259 4147 
L 1259 2491 
L 2053 2491 
Q 2509 2491 2742 2702 
Q 2975 2913 2975 3322 
Q 2975 3731 2742 3939 
Q 2509 4147 2053 4147 
L 1259 4147 
z
" transform="scale(0.015625)"/>
       <path id="DejaVuSans-44" d="M 1259 4147 
L 1259 519 
L 2022 519 
Q 2988 519 3436 956 
Q 3884 1394 3884 2338 
Q 3884 3275 3436 3711 
Q 2988 4147 2022 4147 
L 1259 4147 
z
M 628 4666 
L 1925 4666 
Q 3281 4666 3915 4102 
Q 4550 3538 4550 2338 
Q 4550 1131 3912 565 
Q 3275 0 1925 0 
L 628 0 
L 628 4666 
z
" transform="scale(0.015625)"/>
       <path id="DejaVuSans-29" d="M 513 4856 
L 1013 4856 
Q 1481 4119 1714 3412 
Q 1947 2706 1947 2009 
Q 1947 1309 1714 600 
Q 1481 -109 1013 -844 
L 513 -844 
Q 928 -128 1133 580 
Q 1338 1288 1338 2009 
Q 1338 2731 1133 3434 
Q 928 4138 513 4856 
z
" transform="scale(0.015625)"/>
      </defs>
      <use xlink:href="#DejaVuSans-53"/>
      <use xlink:href="#DejaVuSans-74" x="63.476562"/>
      <use xlink:href="#DejaVuSans-61" x="102.685547"/>
      <use xlink:href="#DejaVuSans-74" x="163.964844"/>
      <use xlink:href="#DejaVuSans-65" x="203.173828"/>
      <use xlink:href="#DejaVuSans-20" x="264.697266"/>
      <use xlink:href="#DejaVuSans-4e" x="296.484375"/>
      <use xlink:href="#DejaVuSans-6f" x="371.289062"/>
      <use xlink:href="#DejaVuSans-76" x="432.470703"/>
      <use xlink:href="#DejaVuSans-65" x="491.650391"/>
      <use xlink:href="#DejaVuSans-6c" x="553.173828"/>
      <use xlink:href="#DejaVuSans-74" x="580.957031"/>
      <use xlink:href="#DejaVuSans-79" x="620.166016"/>
      <use xlink:href="#DejaVuSans-20" x="679.345703"/>
      <use xlink:href="#DejaVuSans-28" x="711.132812"/>
      <use xlink:href="#DejaVuSans-52" x="750.146484"/>
      <use xlink:href="#DejaVuSans-4e" x="819.628906"/>
      <use xlink:href="#DejaVuSans-44" x="894.433594"/>
      <use xlink:href="#DejaVuSans-29" x="971.435547"/>
     </g>
    </g>
    <g id="line2d_24">
     <path d="M 53.988 77.935875 
L 62.788 77.935875 
L 71.588 77.935875 
" style="fill: none; stroke: #c44e52; stroke-width: 1.2; stroke-linecap: round"/>
    </g>
    <g id="text_20">
     <!-- Vanilla -->
     <g style="fill: #262626" transform="translate(78.628 81.015875) scale(0.088 -0.088)">
      <defs>
       <path id="DejaVuSans-56" d="M 1831 0 
L 50 4666 
L 709 4666 
L 2188 738 
L 3669 4666 
L 4325 4666 
L 2547 0 
L 1831 0 
z
" transform="scale(0.015625)"/>
      </defs>
      <use xlink:href="#DejaVuSans-56"/>
      <use xlink:href="#DejaVuSans-61" x="60.658203"/>
      <use xlink:href="#DejaVuSans-6e" x="121.9375"/>
      <use xlink:href="#DejaVuSans-69" x="185.316406"/>
      <use xlink:href="#DejaVuSans-6c" x="213.099609"/>
      <use xlink:href="#DejaVuSans-6c" x="240.882812"/>
      <use xlink:href="#DejaVuSans-61" x="268.666016"/>
     </g>
    </g>
   </g>
  </g>
 </g>
 <defs>
  <clipPath id="p626e0f69b7">
   <rect x="46.068" y="13.968" width="872.589" height="448.644"/>
  </clipPath>
 </defs>
</svg>
