<?xml version="1.0" encoding="utf-8" standalone="no"?>
<!DOCTYPE svg PUBLIC "-//W3C//DTD SVG 1.1//EN"
  "http://www.w3.org/Graphics/SVG/1.1/DTD/svg11.dtd">
<svg xmlns:xlink="http://www.w3.org/1999/xlink" width="936pt" height="504pt" viewBox="0 0 936 504" xmlns="http://www.w3.org/2000/svg" version="1.1">
 <metadata>
  <rdf:RDF xmlns:dc="http://purl.org/dc/elements/1.1/" xmlns:cc="http://creativecommons.org/ns#" xmlns:rdf="http://www.w3.org/1999/02/22-rdf-syntax-ns#">
   <cc:Work>
    <dc:type rdf:resource="http://purl.org/dc/dcmitype/StillImage"/>
    <dc:date>1980-01-01T00:00:00+00:00</dc:date>
    <dc:format>image/svg+xml</dc:format>
    <dc:creator>
     <cc:Agent>
      <dc:title>Matplotlib v3.9.2, https://matplotlib.org/</dc:title>
     </cc:Agent>
    </dc:creator>
   </cc:Work>
  </rdf:RDF>
 </metadata>
 <defs>
  <style type="text/css">*{stroke-linejoin: round; stroke-linecap: butt}</style>
 </defs>
 <g id="figure_1">
  <g id="patch_1">
   <path d="M 0 504 
L 936 504 
L 936 0 
L 0 0 
z
" style="fill: #ffffff"/>
  </g>
  <g id="axes_1">
   <g id="patch_2">
    <path d="M 79.5 420.487545 
L 901.413773 420.487545 
L 901.413773 25.92 
L 79.5 25.92 
z
" style="fill: #eaeaf2"/>
   </g>
   <g id="matplotlib.axis_1">
    <g id="xtick_1">
     <g id="line2d_1">
      <path d="M 79.5 420.487545 
L 79.5 25.92 
" clip-path="url(#pef20a5afea)" style="fill: none; stroke: #ffffff; stroke-width: 1.5; stroke-linecap: round"/>
     </g>
     <g id="text_1">
      <!-- 0.0 -->
      <g style="fill: #262626" transform="translate(73.442139 460.407434) rotate(-45) scale(0.165 -0.165)">
       <defs>
        <path id="DejaVuSans-30" d="M 2034 4250 
Q 1547 4250 1301 3770 
Q 1056 3291 1056 2328 
Q 1056 1369 1301 889 
Q 1547 409 2034 409 
Q 2525 409 2770 889 
Q 3016 1369 3016 2328 
Q 3016 3291 2770 3770 
Q 2525 4250 2034 4250 
z
M 2034 4750 
Q 2819 4750 3233 4129 
Q 3647 3509 3647 2328 
Q 3647 1150 3233 529 
Q 2819 -91 2034 -91 
Q 1250 -91 836 529 
Q 422 1150 422 2328 
Q 422 3509 836 4129 
Q 1250 4750 2034 4750 
z
" transform="scale(0.015625)"/>
        <path id="DejaVuSans-2e" d="M 684 794 
L 1344 794 
L 1344 0 
L 684 0 
L 684 794 
z
" transform="scale(0.015625)"/>
       </defs>
       <use xlink:href="#DejaVuSans-30"/>
       <use xlink:href="#DejaVuSans-2e" x="63.623047"/>
       <use xlink:href="#DejaVuSans-30" x="95.410156"/>
      </g>
     </g>
    </g>
    <g id="xtick_2">
     <g id="line2d_2">
      <path d="M 243.882755 420.487545 
L 243.882755 25.92 
" clip-path="url(#pef20a5afea)" style="fill: none; stroke: #ffffff; stroke-width: 1.5; stroke-linecap: round"/>
     </g>
     <g id="text_2">
      <!-- 0.2 -->
      <g style="fill: #262626" transform="translate(237.824893 460.407434) rotate(-45) scale(0.165 -0.165)">
       <defs>
        <path id="DejaVuSans-32" d="M 1228 531 
L 3431 531 
L 3431 0 
L 469 0 
L 469 531 
Q 828 903 1448 1529 
Q 2069 2156 2228 2338 
Q 2531 2678 2651 2914 
Q 2772 3150 2772 3378 
Q 2772 3750 2511 3984 
Q 2250 4219 1831 4219 
Q 1534 4219 1204 4116 
Q 875 4013 500 3803 
L 500 4441 
Q 881 4594 1212 4672 
Q 1544 4750 1819 4750 
Q 2544 4750 2975 4387 
Q 3406 4025 3406 3419 
Q 3406 3131 3298 2873 
Q 3191 2616 2906 2266 
Q 2828 2175 2409 1742 
Q 1991 1309 1228 531 
z
" transform="scale(0.015625)"/>
       </defs>
       <use xlink:href="#DejaVuSans-30"/>
       <use xlink:href="#DejaVuSans-2e" x="63.623047"/>
       <use xlink:href="#DejaVuSans-32" x="95.410156"/>
      </g>
     </g>
    </g>
    <g id="xtick_3">
     <g id="line2d_3">
      <path d="M 408.265509 420.487545 
L 408.265509 25.92 
" clip-path="url(#pef20a5afea)" style="fill: none; stroke: #ffffff; stroke-width: 1.5; stroke-linecap: round"/>
     </g>
     <g id="text_3">
      <!-- 0.4 -->
      <g style="fill: #262626" transform="translate(402.207648 460.407434) rotate(-45) scale(0.165 -0.165)">
       <defs>
        <path id="DejaVuSans-34" d="M 2419 4116 
L 825 1625 
L 2419 1625 
L 2419 4116 
z
M 2253 4666 
L 3047 4666 
L 3047 1625 
L 3713 1625 
L 3713 1100 
L 3047 1100 
L 3047 0 
L 2419 0 
L 2419 1100 
L 313 1100 
L 313 1709 
L 2253 4666 
z
" transform="scale(0.015625)"/>
       </defs>
       <use xlink:href="#DejaVuSans-30"/>
       <use xlink:href="#DejaVuSans-2e" x="63.623047"/>
       <use xlink:href="#DejaVuSans-34" x="95.410156"/>
      </g>
     </g>
    </g>
    <g id="xtick_4">
     <g id="line2d_4">
      <path d="M 572.648264 420.487545 
L 572.648264 25.92 
" clip-path="url(#pef20a5afea)" style="fill: none; stroke: #ffffff; stroke-width: 1.5; stroke-linecap: round"/>
     </g>
     <g id="text_4">
      <!-- 0.6 -->
      <g style="fill: #262626" transform="translate(566.590403 460.407434) rotate(-45) scale(0.165 -0.165)">
       <defs>
        <path id="DejaVuSans-36" d="M 2113 2584 
Q 1688 2584 1439 2293 
Q 1191 2003 1191 1497 
Q 1191 994 1439 701 
Q 1688 409 2113 409 
Q 2538 409 2786 701 
Q 3034 994 3034 1497 
Q 3034 2003 2786 2293 
Q 2538 2584 2113 2584 
z
M 3366 4563 
L 3366 3988 
Q 3128 4100 2886 4159 
Q 2644 4219 2406 4219 
Q 1781 4219 1451 3797 
Q 1122 3375 1075 2522 
Q 1259 2794 1537 2939 
Q 1816 3084 2150 3084 
Q 2853 3084 3261 2657 
Q 3669 2231 3669 1497 
Q 3669 778 3244 343 
Q 2819 -91 2113 -91 
Q 1303 -91 875 529 
Q 447 1150 447 2328 
Q 447 3434 972 4092 
Q 1497 4750 2381 4750 
Q 2619 4750 2861 4703 
Q 3103 4656 3366 4563 
z
" transform="scale(0.015625)"/>
       </defs>
       <use xlink:href="#DejaVuSans-30"/>
       <use xlink:href="#DejaVuSans-2e" x="63.623047"/>
       <use xlink:href="#DejaVuSans-36" x="95.410156"/>
      </g>
     </g>
    </g>
    <g id="xtick_5">
     <g id="line2d_5">
      <path d="M 737.031018 420.487545 
L 737.031018 25.92 
" clip-path="url(#pef20a5afea)" style="fill: none; stroke: #ffffff; stroke-width: 1.5; stroke-linecap: round"/>
     </g>
     <g id="text_5">
      <!-- 0.8 -->
      <g style="fill: #262626" transform="translate(730.973157 460.407434) rotate(-45) scale(0.165 -0.165)">
       <defs>
        <path id="DejaVuSans-38" d="M 2034 2216 
Q 1584 2216 1326 1975 
Q 1069 1734 1069 1313 
Q 1069 891 1326 650 
Q 1584 409 2034 409 
Q 2484 409 2743 651 
Q 3003 894 3003 1313 
Q 3003 1734 2745 1975 
Q 2488 2216 2034 2216 
z
M 1403 2484 
Q 997 2584 770 2862 
Q 544 3141 544 3541 
Q 544 4100 942 4425 
Q 1341 4750 2034 4750 
Q 2731 4750 3128 4425 
Q 3525 4100 3525 3541 
Q 3525 3141 3298 2862 
Q 3072 2584 2669 2484 
Q 3125 2378 3379 2068 
Q 3634 1759 3634 1313 
Q 3634 634 3220 271 
Q 2806 -91 2034 -91 
Q 1263 -91 848 271 
Q 434 634 434 1313 
Q 434 1759 690 2068 
Q 947 2378 1403 2484 
z
M 1172 3481 
Q 1172 3119 1398 2916 
Q 1625 2713 2034 2713 
Q 2441 2713 2670 2916 
Q 2900 3119 2900 3481 
Q 2900 3844 2670 4047 
Q 2441 4250 2034 4250 
Q 1625 4250 1398 4047 
Q 1172 3844 1172 3481 
z
" transform="scale(0.015625)"/>
       </defs>
       <use xlink:href="#DejaVuSans-30"/>
       <use xlink:href="#DejaVuSans-2e" x="63.623047"/>
       <use xlink:href="#DejaVuSans-38" x="95.410156"/>
      </g>
     </g>
    </g>
    <g id="xtick_6">
     <g id="line2d_6">
      <path d="M 901.413773 420.487545 
L 901.413773 25.92 
" clip-path="url(#pef20a5afea)" style="fill: none; stroke: #ffffff; stroke-width: 1.5; stroke-linecap: round"/>
     </g>
     <g id="text_6">
      <!-- 1.0 -->
      <g style="fill: #262626" transform="translate(895.355912 460.407434) rotate(-45) scale(0.165 -0.165)">
       <defs>
        <path id="DejaVuSans-31" d="M 794 531 
L 1825 531 
L 1825 4091 
L 703 3866 
L 703 4441 
L 1819 4666 
L 2450 4666 
L 2450 531 
L 3481 531 
L 3481 0 
L 794 0 
L 794 531 
z
" transform="scale(0.015625)"/>
       </defs>
       <use xlink:href="#DejaVuSans-31"/>
       <use xlink:href="#DejaVuSans-2e" x="63.623047"/>
       <use xlink:href="#DejaVuSans-30" x="95.410156"/>
      </g>
     </g>
    </g>
    <g id="text_7">
     <!-- Timestep -->
     <g style="fill: #262626" transform="translate(448.968293 480.511047) scale(0.18 -0.18)">
      <defs>
       <path id="DejaVuSans-54" d="M -19 4666 
L 3928 4666 
L 3928 4134 
L 2272 4134 
L 2272 0 
L 1638 0 
L 1638 4134 
L -19 4134 
L -19 4666 
z
" transform="scale(0.015625)"/>
       <path id="DejaVuSans-69" d="M 603 3500 
L 1178 3500 
L 1178 0 
L 603 0 
L 603 3500 
z
M 603 4863 
L 1178 4863 
L 1178 4134 
L 603 4134 
L 603 4863 
z
" transform="scale(0.015625)"/>
       <path id="DejaVuSans-6d" d="M 3328 2828 
Q 3544 3216 3844 3400 
Q 4144 3584 4550 3584 
Q 5097 3584 5394 3201 
Q 5691 2819 5691 2113 
L 5691 0 
L 5113 0 
L 5113 2094 
Q 5113 2597 4934 2840 
Q 4756 3084 4391 3084 
Q 3944 3084 3684 2787 
Q 3425 2491 3425 1978 
L 3425 0 
L 2847 0 
L 2847 2094 
Q 2847 2600 2669 2842 
Q 2491 3084 2119 3084 
Q 1678 3084 1418 2786 
Q 1159 2488 1159 1978 
L 1159 0 
L 581 0 
L 581 3500 
L 1159 3500 
L 1159 2956 
Q 1356 3278 1631 3431 
Q 1906 3584 2284 3584 
Q 2666 3584 2933 3390 
Q 3200 3197 3328 2828 
z
" transform="scale(0.015625)"/>
       <path id="DejaVuSans-65" d="M 3597 1894 
L 3597 1613 
L 953 1613 
Q 991 1019 1311 708 
Q 1631 397 2203 397 
Q 2534 397 2845 478 
Q 3156 559 3463 722 
L 3463 178 
Q 3153 47 2828 -22 
Q 2503 -91 2169 -91 
Q 1331 -91 842 396 
Q 353 884 353 1716 
Q 353 2575 817 3079 
Q 1281 3584 2069 3584 
Q 2775 3584 3186 3129 
Q 3597 2675 3597 1894 
z
M 3022 2063 
Q 3016 2534 2758 2815 
Q 2500 3097 2075 3097 
Q 1594 3097 1305 2825 
Q 1016 2553 972 2059 
L 3022 2063 
z
" transform="scale(0.015625)"/>
       <path id="DejaVuSans-73" d="M 2834 3397 
L 2834 2853 
Q 2591 2978 2328 3040 
Q 2066 3103 1784 3103 
Q 1356 3103 1142 2972 
Q 928 2841 928 2578 
Q 928 2378 1081 2264 
Q 1234 2150 1697 2047 
L 1894 2003 
Q 2506 1872 2764 1633 
Q 3022 1394 3022 966 
Q 3022 478 2636 193 
Q 2250 -91 1575 -91 
Q 1294 -91 989 -36 
Q 684 19 347 128 
L 347 722 
Q 666 556 975 473 
Q 1284 391 1588 391 
Q 1994 391 2212 530 
Q 2431 669 2431 922 
Q 2431 1156 2273 1281 
Q 2116 1406 1581 1522 
L 1381 1569 
Q 847 1681 609 1914 
Q 372 2147 372 2553 
Q 372 3047 722 3315 
Q 1072 3584 1716 3584 
Q 2034 3584 2315 3537 
Q 2597 3491 2834 3397 
z
" transform="scale(0.015625)"/>
       <path id="DejaVuSans-74" d="M 1172 4494 
L 1172 3500 
L 2356 3500 
L 2356 3053 
L 1172 3053 
L 1172 1153 
Q 1172 725 1289 603 
Q 1406 481 1766 481 
L 2356 481 
L 2356 0 
L 1766 0 
Q 1100 0 847 248 
Q 594 497 594 1153 
L 594 3053 
L 172 3053 
L 172 3500 
L 594 3500 
L 594 4494 
L 1172 4494 
z
" transform="scale(0.015625)"/>
       <path id="DejaVuSans-70" d="M 1159 525 
L 1159 -1331 
L 581 -1331 
L 581 3500 
L 1159 3500 
L 1159 2969 
Q 1341 3281 1617 3432 
Q 1894 3584 2278 3584 
Q 2916 3584 3314 3078 
Q 3713 2572 3713 1747 
Q 3713 922 3314 415 
Q 2916 -91 2278 -91 
Q 1894 -91 1617 61 
Q 1341 213 1159 525 
z
M 3116 1747 
Q 3116 2381 2855 2742 
Q 2594 3103 2138 3103 
Q 1681 3103 1420 2742 
Q 1159 2381 1159 1747 
Q 1159 1113 1420 752 
Q 1681 391 2138 391 
Q 2594 391 2855 752 
Q 3116 1113 3116 1747 
z
" transform="scale(0.015625)"/>
      </defs>
      <use xlink:href="#DejaVuSans-54"/>
      <use xlink:href="#DejaVuSans-69" x="57.958984"/>
      <use xlink:href="#DejaVuSans-6d" x="85.742188"/>
      <use xlink:href="#DejaVuSans-65" x="183.154297"/>
      <use xlink:href="#DejaVuSans-73" x="244.677734"/>
      <use xlink:href="#DejaVuSans-74" x="296.777344"/>
      <use xlink:href="#DejaVuSans-65" x="335.986328"/>
      <use xlink:href="#DejaVuSans-70" x="397.509766"/>
     </g>
    </g>
    <g id="text_8">
     <!-- 1e6 -->
     <g style="fill: #262626" transform="translate(870.264866 478.371282) scale(0.165 -0.165)">
      <use xlink:href="#DejaVuSans-31"/>
      <use xlink:href="#DejaVuSans-65" x="63.623047"/>
      <use xlink:href="#DejaVuSans-36" x="125.146484"/>
     </g>
    </g>
   </g>
   <g id="matplotlib.axis_2">
    <g id="ytick_1">
     <g id="line2d_7">
      <path d="M 79.5 420.487545 
L 901.413773 420.487545 
" clip-path="url(#pef20a5afea)" style="fill: none; stroke: #ffffff; stroke-width: 1.5; stroke-linecap: round"/>
     </g>
     <g id="text_9">
      <!-- 0.0 -->
      <g style="fill: #262626" transform="translate(40.759844 426.756256) scale(0.165 -0.165)">
       <use xlink:href="#DejaVuSans-30"/>
       <use xlink:href="#DejaVuSans-2e" x="63.623047"/>
       <use xlink:href="#DejaVuSans-30" x="95.410156"/>
      </g>
     </g>
    </g>
    <g id="ytick_2">
     <g id="line2d_8">
      <path d="M 79.5 341.574036 
L 901.413773 341.574036 
" clip-path="url(#pef20a5afea)" style="fill: none; stroke: #ffffff; stroke-width: 1.5; stroke-linecap: round"/>
     </g>
     <g id="text_10">
      <!-- 0.2 -->
      <g style="fill: #262626" transform="translate(40.759844 347.842747) scale(0.165 -0.165)">
       <use xlink:href="#DejaVuSans-30"/>
       <use xlink:href="#DejaVuSans-2e" x="63.623047"/>
       <use xlink:href="#DejaVuSans-32" x="95.410156"/>
      </g>
     </g>
    </g>
    <g id="ytick_3">
     <g id="line2d_9">
      <path d="M 79.5 262.660527 
L 901.413773 262.660527 
" clip-path="url(#pef20a5afea)" style="fill: none; stroke: #ffffff; stroke-width: 1.5; stroke-linecap: round"/>
     </g>
     <g id="text_11">
      <!-- 0.4 -->
      <g style="fill: #262626" transform="translate(40.759844 268.929238) scale(0.165 -0.165)">
       <use xlink:href="#DejaVuSans-30"/>
       <use xlink:href="#DejaVuSans-2e" x="63.623047"/>
       <use xlink:href="#DejaVuSans-34" x="95.410156"/>
      </g>
     </g>
    </g>
    <g id="ytick_4">
     <g id="line2d_10">
      <path d="M 79.5 183.747018 
L 901.413773 183.747018 
" clip-path="url(#pef20a5afea)" style="fill: none; stroke: #ffffff; stroke-width: 1.5; stroke-linecap: round"/>
     </g>
     <g id="text_12">
      <!-- 0.6 -->
      <g style="fill: #262626" transform="translate(40.759844 190.015729) scale(0.165 -0.165)">
       <use xlink:href="#DejaVuSans-30"/>
       <use xlink:href="#DejaVuSans-2e" x="63.623047"/>
       <use xlink:href="#DejaVuSans-36" x="95.410156"/>
      </g>
     </g>
    </g>
    <g id="ytick_5">
     <g id="line2d_11">
      <path d="M 79.5 104.833509 
L 901.413773 104.833509 
" clip-path="url(#pef20a5afea)" style="fill: none; stroke: #ffffff; stroke-width: 1.5; stroke-linecap: round"/>
     </g>
     <g id="text_13">
      <!-- 0.8 -->
      <g style="fill: #262626" transform="translate(40.759844 111.10222) scale(0.165 -0.165)">
       <use xlink:href="#DejaVuSans-30"/>
       <use xlink:href="#DejaVuSans-2e" x="63.623047"/>
       <use xlink:href="#DejaVuSans-38" x="95.410156"/>
      </g>
     </g>
    </g>
    <g id="ytick_6">
     <g id="line2d_12">
      <path d="M 79.5 25.92 
L 901.413773 25.92 
" clip-path="url(#pef20a5afea)" style="fill: none; stroke: #ffffff; stroke-width: 1.5; stroke-linecap: round"/>
     </g>
     <g id="text_14">
      <!-- 1.0 -->
      <g style="fill: #262626" transform="translate(40.759844 32.188711) scale(0.165 -0.165)">
       <use xlink:href="#DejaVuSans-31"/>
       <use xlink:href="#DejaVuSans-2e" x="63.623047"/>
       <use xlink:href="#DejaVuSans-30" x="95.410156"/>
      </g>
     </g>
    </g>
    <g id="text_15">
     <!-- Score -->
     <g style="fill: #262626" transform="translate(33.016406 248.407991) rotate(-90) scale(0.18 -0.18)">
      <defs>
       <path id="DejaVuSans-53" d="M 3425 4513 
L 3425 3897 
Q 3066 4069 2747 4153 
Q 2428 4238 2131 4238 
Q 1616 4238 1336 4038 
Q 1056 3838 1056 3469 
Q 1056 3159 1242 3001 
Q 1428 2844 1947 2747 
L 2328 2669 
Q 3034 2534 3370 2195 
Q 3706 1856 3706 1288 
Q 3706 609 3251 259 
Q 2797 -91 1919 -91 
Q 1588 -91 1214 -16 
Q 841 59 441 206 
L 441 856 
Q 825 641 1194 531 
Q 1563 422 1919 422 
Q 2459 422 2753 634 
Q 3047 847 3047 1241 
Q 3047 1584 2836 1778 
Q 2625 1972 2144 2069 
L 1759 2144 
Q 1053 2284 737 2584 
Q 422 2884 422 3419 
Q 422 4038 858 4394 
Q 1294 4750 2059 4750 
Q 2388 4750 2728 4690 
Q 3069 4631 3425 4513 
z
" transform="scale(0.015625)"/>
       <path id="DejaVuSans-63" d="M 3122 3366 
L 3122 2828 
Q 2878 2963 2633 3030 
Q 2388 3097 2138 3097 
Q 1578 3097 1268 2742 
Q 959 2388 959 1747 
Q 959 1106 1268 751 
Q 1578 397 2138 397 
Q 2388 397 2633 464 
Q 2878 531 3122 666 
L 3122 134 
Q 2881 22 2623 -34 
Q 2366 -91 2075 -91 
Q 1284 -91 818 406 
Q 353 903 353 1747 
Q 353 2603 823 3093 
Q 1294 3584 2113 3584 
Q 2378 3584 2631 3529 
Q 2884 3475 3122 3366 
z
" transform="scale(0.015625)"/>
       <path id="DejaVuSans-6f" d="M 1959 3097 
Q 1497 3097 1228 2736 
Q 959 2375 959 1747 
Q 959 1119 1226 758 
Q 1494 397 1959 397 
Q 2419 397 2687 759 
Q 2956 1122 2956 1747 
Q 2956 2369 2687 2733 
Q 2419 3097 1959 3097 
z
M 1959 3584 
Q 2709 3584 3137 3096 
Q 3566 2609 3566 1747 
Q 3566 888 3137 398 
Q 2709 -91 1959 -91 
Q 1206 -91 779 398 
Q 353 888 353 1747 
Q 353 2609 779 3096 
Q 1206 3584 1959 3584 
z
" transform="scale(0.015625)"/>
       <path id="DejaVuSans-72" d="M 2631 2963 
Q 2534 3019 2420 3045 
Q 2306 3072 2169 3072 
Q 1681 3072 1420 2755 
Q 1159 2438 1159 1844 
L 1159 0 
L 581 0 
L 581 3500 
L 1159 3500 
L 1159 2956 
Q 1341 3275 1631 3429 
Q 1922 3584 2338 3584 
Q 2397 3584 2469 3576 
Q 2541 3569 2628 3553 
L 2631 2963 
z
" transform="scale(0.015625)"/>
      </defs>
      <use xlink:href="#DejaVuSans-53"/>
      <use xlink:href="#DejaVuSans-63" x="63.476562"/>
      <use xlink:href="#DejaVuSans-6f" x="118.457031"/>
      <use xlink:href="#DejaVuSans-72" x="179.638672"/>
      <use xlink:href="#DejaVuSans-65" x="218.501953"/>
     </g>
    </g>
   </g>
   <g id="PolyCollection_1">
    <defs>
     <path id="m7eee61599c" d="M 87.719138 -83.512455 
L 87.719138 -83.512455 
L 95.938275 -83.512455 
L 104.157413 -83.512455 
L 112.376551 -83.512455 
L 120.595689 -91.231182 
L 128.814826 -83.512455 
L 137.033964 -106.717958 
L 145.253102 -129.722479 
L 153.47224 -129.430253 
L 161.691377 -160.525874 
L 169.910515 -229.477786 
L 178.129653 -175.594655 
L 186.34879 -245.334469 
L 194.567928 -260.03211 
L 202.787066 -221.931682 
L 211.006204 -229.107879 
L 219.225341 -236.604662 
L 227.444479 -228.220102 
L 235.663617 -282.751186 
L 243.882755 -221.512454 
L 252.101892 -298.280502 
L 260.32103 -297.663373 
L 268.540168 -221.900856 
L 276.759305 -266.986363 
L 284.978443 -282.52246 
L 293.197581 -221.709737 
L 301.416719 -305.949908 
L 309.635856 -267.997442 
L 317.854994 -221.537114 
L 326.074132 -304.938829 
L 334.29327 -259.588222 
L 342.512407 -304.864231 
L 350.731545 -244.126106 
L 358.950683 -298.527106 
L 367.16982 -268.342689 
L 375.388958 -260.098693 
L 383.608096 -260.52532 
L 391.827234 -282.670423 
L 400.046371 -351.399157 
L 408.265509 -291.030323 
L 416.484647 -244.742618 
L 424.703785 -321.19008 
L 432.922922 -274.853054 
L 441.14206 -252.264062 
L 449.361198 -237.319816 
L 457.580335 -321.584647 
L 465.799473 -291.178286 
L 474.018611 -321.658629 
L 482.237749 -306.517099 
L 490.456886 -321.751722 
L 498.676024 -351.399157 
L 506.895162 -305.678643 
L 515.1143 -321.21474 
L 523.333437 -313.708709 
L 531.552575 -345.23404 
L 539.771713 -320.031038 
L 547.99085 -328.662203 
L 556.209988 -267.109666 
L 564.429126 -282.711113 
L 572.648264 -389.918814 
L 580.867401 -320.795512 
L 589.086539 -327.725105 
L 597.305677 -259.711524 
L 605.524815 -329.081431 
L 613.743952 -229.009237 
L 621.96309 -298.18186 
L 630.182228 -359.734397 
L 638.401365 -374.333396 
L 646.620503 -344.247621 
L 654.839641 -381.115026 
L 663.058779 -336.528893 
L 671.277916 -374.185433 
L 679.497054 -275.17364 
L 687.716192 -343.810514 
L 695.93533 -306.264946 
L 704.154467 -358.476713 
L 712.373605 -350.684004 
L 720.592743 -359.167206 
L 728.81188 -305.727964 
L 737.031018 -375.122531 
L 745.250156 -396.848407 
L 753.469294 -374.53068 
L 761.688431 -421.434897 
L 769.907569 -421.040329 
L 778.126707 -351.078571 
L 786.345845 -374.826605 
L 794.564982 -442.494939 
L 802.78412 -444.048549 
L 811.003258 -420.322709 
L 819.222395 -375.023889 
L 827.441533 -466.07035 
L 827.441533 -467.648621 
L 827.441533 -467.648621 
L 819.222395 -467.5993 
L 811.003258 -467.525935 
L 802.78412 -467.525318 
L 794.564982 -467.549979 
L 786.345845 -467.551212 
L 778.126707 -467.525318 
L 769.907569 -467.5993 
L 761.688431 -467.500658 
L 753.469294 -467.525318 
L 745.250156 -467.525318 
L 737.031018 -467.5993 
L 728.81188 -466.467384 
L 720.592743 -466.56356 
L 712.373605 -466.56356 
L 704.154467 -466.440257 
L 695.93533 -466.56356 
L 687.716192 -466.56356 
L 679.497054 -466.56356 
L 671.277916 -466.56356 
L 663.058779 -466.56356 
L 654.839641 -466.56356 
L 646.620503 -466.662202 
L 638.401365 -466.56356 
L 630.182228 -450.534253 
L 621.96309 -450.978142 
L 613.743952 -435.639328 
L 605.524815 -450.90416 
L 597.305677 -443.086791 
L 589.086539 -450.36163 
L 580.867401 -450.534253 
L 572.648264 -450.953481 
L 564.429126 -450.756197 
L 556.209988 -428.20173 
L 547.99085 -458.154339 
L 539.771713 -450.364712 
L 531.552575 -450.805518 
L 523.333437 -458.178999 
L 515.1143 -458.573567 
L 506.895162 -458.524246 
L 498.676024 -443.407377 
L 490.456886 -443.210093 
L 482.237749 -443.185433 
L 474.018611 -458.598227 
L 465.799473 -443.136112 
L 457.580335 -443.111451 
L 449.361198 -435.368063 
L 441.14206 -435.269421 
L 432.922922 -435.19544 
L 424.703785 -443.111451 
L 416.484647 -382.348049 
L 408.265509 -420.448478 
L 400.046371 -435.294082 
L 391.827234 -405.085004 
L 383.608096 -420.54712 
L 375.388958 -420.275855 
L 367.16982 -404.986362 
L 358.950683 -412.856135 
L 350.731545 -389.474926 
L 342.512407 -412.335799 
L 334.29327 -404.88772 
L 326.074132 -420.02925 
L 317.854994 -382.200086 
L 309.635856 -412.655769 
L 301.416719 -428.561773 
L 293.197581 -390.042116 
L 284.978443 -382.930653 
L 276.759305 -374.900587 
L 268.540168 -283.114312 
L 260.32103 -343.803732 
L 252.101892 -367.329822 
L 243.882755 -343.581788 
L 235.663617 -352.114311 
L 227.444479 -343.236541 
L 219.225341 -351.423818 
L 211.006204 -373.716884 
L 202.787066 -321.70795 
L 194.567928 -329.60115 
L 186.34879 -360.08026 
L 178.129653 -305.629322 
L 169.910515 -336.948121 
L 161.691377 -229.650409 
L 153.47224 -206.296943 
L 145.253102 -252.940375 
L 137.033964 -160.379144 
L 128.814826 -137.716171 
L 120.595689 -122.254055 
L 112.376551 -83.512455 
L 104.157413 -83.512455 
L 95.938275 -83.512455 
L 87.719138 -83.512455 
z
" style="stroke: #4c72b0; stroke-opacity: 0.2; stroke-width: 1.5"/>
    </defs>
    <g clip-path="url(#pef20a5afea)">
     <use xlink:href="#m7eee61599c" x="0" y="504" style="fill: #4c72b0; fill-opacity: 0.2; stroke: #4c72b0; stroke-opacity: 0.2; stroke-width: 1.5"/>
    </g>
   </g>
   <g id="PolyCollection_2">
    <defs>
     <path id="m626b9d0bfd" d="M 87.719138 -83.512455 
L 87.719138 -83.512455 
L 95.938275 -83.512455 
L 104.157413 -83.512455 
L 112.376551 -83.512455 
L 120.595689 -83.512455 
L 128.814826 -83.512455 
L 137.033964 -83.512455 
L 145.253102 -83.512455 
L 153.47224 -90.984577 
L 161.691377 -106.471354 
L 169.910515 -91.255843 
L 178.129653 -129.479574 
L 186.34879 -121.563562 
L 194.567928 -129.327912 
L 202.787066 -174.953483 
L 211.006204 -182.524248 
L 219.225341 -160.13254 
L 227.444479 -221.216528 
L 235.663617 -182.203662 
L 243.882755 -159.935256 
L 252.101892 -244.126106 
L 260.32103 -228.195441 
L 268.540168 -297.540687 
L 276.759305 -258.959996 
L 284.978443 -313.619315 
L 293.197581 -244.619315 
L 301.416719 -151.969924 
L 309.635856 -273.891295 
L 317.854994 -283.04033 
L 326.074132 -298.18186 
L 334.29327 -267.207691 
L 342.512407 -297.66399 
L 350.731545 -328.785505 
L 358.950683 -328.045691 
L 367.16982 -358.673997 
L 375.388958 -289.871281 
L 383.608096 -327.50316 
L 391.827234 -312.016384 
L 400.046371 -236.697755 
L 408.265509 -313.446692 
L 416.484647 -359.117885 
L 424.703785 -336.38093 
L 432.922922 -350.338757 
L 441.14206 -320.622889 
L 449.361198 -306.245834 
L 457.580335 -259.686864 
L 465.799473 -328.686863 
L 474.018611 -221.611095 
L 482.237749 -412.507806 
L 490.456886 -433.370565 
L 498.676024 -358.550694 
L 506.895162 -397.167143 
L 515.1143 -328.415598 
L 523.333437 -397.439641 
L 531.552575 -351.275239 
L 539.771713 -351.473139 
L 547.99085 -397.11474 
L 556.209988 -465.725104 
L 556.209988 -466.736183 
L 556.209988 -466.736183 
L 547.99085 -466.415597 
L 539.771713 -466.415597 
L 531.552575 -466.415597 
L 523.333437 -466.415597 
L 515.1143 -466.144332 
L 506.895162 -466.144332 
L 498.676024 -466.144332 
L 490.456886 -466.144332 
L 482.237749 -466.144332 
L 474.018611 -435.324291 
L 465.799473 -450.435611 
L 457.580335 -435.663989 
L 449.361198 -442.593581 
L 441.14206 -442.741544 
L 432.922922 -458.178999 
L 424.703785 -457.907734 
L 416.484647 -450.583574 
L 408.265509 -450.805518 
L 400.046371 -450.534253 
L 391.827234 -458.105018 
L 383.608096 -450.189007 
L 375.388958 -450.632895 
L 367.16982 -458.055697 
L 358.950683 -443.160772 
L 350.731545 -436.280501 
L 342.512407 -412.72975 
L 334.29327 -405.514096 
L 326.074132 -428.216526 
L 317.854994 -420.794958 
L 309.635856 -343.063918 
L 301.416719 -306.029438 
L 293.197581 -381.682217 
L 284.978443 -343.409165 
L 276.759305 -365.766348 
L 268.540168 -358.87128 
L 260.32103 -359.36449 
L 252.101892 -335.739758 
L 243.882755 -297.392725 
L 235.663617 -351.670423 
L 227.444479 -305.875927 
L 219.225341 -267.011024 
L 211.006204 -297.393341 
L 202.787066 -281.930609 
L 194.567928 -236.04117 
L 186.34879 -252.633969 
L 178.129653 -235.134282 
L 169.910515 -244.816599 
L 161.691377 -168.5171 
L 153.47224 -159.959916 
L 145.253102 -175.214884 
L 137.033964 -83.512455 
L 128.814826 -106.742619 
L 120.595689 -83.512455 
L 112.376551 -83.512455 
L 104.157413 -83.512455 
L 95.938275 -83.512455 
L 87.719138 -83.512455 
z
" style="stroke: #dd8452; stroke-opacity: 0.2; stroke-width: 1.5"/>
    </defs>
    <g clip-path="url(#pef20a5afea)">
     <use xlink:href="#m626b9d0bfd" x="0" y="504" style="fill: #dd8452; fill-opacity: 0.2; stroke: #dd8452; stroke-opacity: 0.2; stroke-width: 1.5"/>
    </g>
   </g>
   <g id="PolyCollection_3">
    <defs>
     <path id="mb5feccb951" d="M 87.719138 -83.512455 
L 87.719138 -83.512455 
L 95.938275 -83.512455 
L 104.157413 -83.512455 
L 112.376551 -83.512455 
L 120.595689 -83.512455 
L 128.814826 -83.512455 
L 137.033964 -83.512455 
L 145.253102 -83.512455 
L 153.47224 -90.910596 
L 161.691377 -83.512455 
L 169.910515 -106.545335 
L 178.129653 -152.463133 
L 186.34879 -114.190081 
L 194.567928 -129.183648 
L 202.787066 -168.073212 
L 211.006204 -244.397371 
L 219.225341 -205.927035 
L 227.444479 -282.966349 
L 235.663617 -260.500659 
L 243.882755 -268.096084 
L 252.101892 -305.456699 
L 260.32103 -320.376284 
L 268.540168 -244.838794 
L 276.759305 -289.452053 
L 284.978443 -244.126106 
L 293.197581 -298.18186 
L 301.416719 -297.737971 
L 309.635856 -268.046763 
L 317.854994 -289.82196 
L 326.074132 -374.53068 
L 334.29327 -321.066777 
L 342.512407 -275.050337 
L 350.731545 -328.316956 
L 358.950683 -358.723317 
L 367.16982 -267.183647 
L 375.388958 -283.089651 
L 383.608096 -367.132538 
L 391.827234 -321.091438 
L 400.046371 -358.969922 
L 408.265509 -290.315169 
L 416.484647 -290.241188 
L 424.703785 -290.33983 
L 432.922922 -358.698657 
L 441.14206 -312.928822 
L 449.361198 -328.662203 
L 457.580335 -359.117885 
L 465.799473 -336.38093 
L 474.018611 -359.117885 
L 482.237749 -359.117885 
L 490.456886 -412.877713 
L 498.676024 -359.265848 
L 506.895162 -390.505733 
L 515.1143 -420.817768 
L 523.333437 -419.338757 
L 531.552575 -465.429178 
L 531.552575 -467.352695 
L 531.552575 -467.352695 
L 523.333437 -467.352695 
L 515.1143 -467.328651 
L 506.895162 -466.884146 
L 498.676024 -466.884146 
L 490.456886 -459.412023 
L 482.237749 -458.548906 
L 474.018611 -459.140758 
L 465.799473 -429.227606 
L 457.580335 -436.107877 
L 449.361198 -421.262273 
L 441.14206 -421.212953 
L 432.922922 -428.788033 
L 424.703785 -429.09259 
L 416.484647 -435.639328 
L 408.265509 -413.819743 
L 400.046371 -436.625747 
L 391.827234 -413.568206 
L 383.608096 -436.280501 
L 375.388958 -412.927034 
L 367.16982 -398.106091 
L 358.950683 -436.186791 
L 350.731545 -436.527105 
L 342.512407 -405.8988 
L 334.29327 -436.329822 
L 326.074132 -443.784682 
L 317.854994 -398.33605 
L 309.635856 -421.362765 
L 301.416719 -397.220163 
L 293.197581 -359.093225 
L 284.978443 -343.310523 
L 276.759305 -382.298728 
L 268.540168 -343.137899 
L 260.32103 -367.379143 
L 252.101892 -365.850194 
L 243.882755 -366.146119 
L 235.663617 -351.571781 
L 227.444479 -329.993868 
L 219.225341 -336.553554 
L 211.006204 -291.202946 
L 202.787066 -252.806592 
L 194.567928 -205.902375 
L 186.34879 -244.34805 
L 178.129653 -243.928822 
L 169.910515 -152.709738 
L 161.691377 -113.894156 
L 153.47224 -120.996371 
L 145.253102 -151.7973 
L 137.033964 -83.512455 
L 128.814826 -83.512455 
L 120.595689 -83.512455 
L 112.376551 -83.512455 
L 104.157413 -83.512455 
L 95.938275 -83.512455 
L 87.719138 -83.512455 
z
" style="stroke: #55a868; stroke-opacity: 0.2; stroke-width: 1.5"/>
    </defs>
    <g clip-path="url(#pef20a5afea)">
     <use xlink:href="#mb5feccb951" x="0" y="504" style="fill: #55a868; fill-opacity: 0.2; stroke: #55a868; stroke-opacity: 0.2; stroke-width: 1.5"/>
    </g>
   </g>
   <g id="PolyCollection_4">
    <defs>
     <path id="m2ba251b57b" d="M 87.719138 -83.512455 
L 87.719138 -83.512455 
L 95.938275 -83.512455 
L 104.157413 -83.512455 
L 112.376551 -83.512455 
L 120.595689 -83.512455 
L 128.814826 -83.512455 
L 137.033964 -83.512455 
L 145.253102 -83.512455 
L 153.47224 -83.512455 
L 161.691377 -91.255843 
L 169.910515 -83.512455 
L 178.129653 -121.834827 
L 186.34879 -144.892368 
L 194.567928 -221.981003 
L 202.787066 -205.948613 
L 211.006204 -282.670423 
L 219.225341 -266.542475 
L 227.444479 -258.897728 
L 235.663617 -282.103232 
L 243.882755 -267.035684 
L 252.101892 -318.843636 
L 260.32103 -297.318743 
L 268.540168 -281.536041 
L 276.759305 -303.681145 
L 284.978443 -336.183646 
L 293.197581 -251.203661 
L 301.416719 -288.835541 
L 309.635856 -266.542475 
L 317.854994 -297.491367 
L 326.074132 -328.045691 
L 334.29327 -366.269422 
L 342.512407 -328.958128 
L 350.731545 -357.490294 
L 358.950683 -297.244762 
L 367.16982 -305.185434 
L 375.388958 -290.068565 
L 383.608096 -305.481359 
L 391.827234 -274.779072 
L 400.046371 -298.032664 
L 408.265509 -221.931682 
L 416.484647 -343.606448 
L 424.703785 -206.420245 
L 432.922922 -343.063918 
L 441.14206 -297.244762 
L 449.361198 -335.784147 
L 457.580335 -381.947933 
L 465.799473 -321.066777 
L 474.018611 -305.50602 
L 482.237749 -373.692224 
L 490.456886 -358.003848 
L 498.676024 -395.566062 
L 506.895162 -418.820887 
L 515.1143 -396.601802 
L 523.333437 -373.149693 
L 531.552575 -418.870208 
L 539.771713 -395.837327 
L 547.99085 -373.64167 
L 556.209988 -373.642903 
L 564.429126 -281.634683 
L 572.648264 -397.267635 
L 580.867401 -419.288203 
L 589.086539 -350.781413 
L 597.305677 -395.788006 
L 605.524815 -396.059271 
L 613.743952 -419.018171 
L 621.96309 -396.697361 
L 630.182228 -418.179714 
L 638.401365 -395.492081 
L 646.620503 -372.97707 
L 654.839641 -350.51138 
L 663.058779 -419.338757 
L 671.277916 -419.53604 
L 679.497054 -442.149693 
L 687.716192 -419.163051 
L 695.93533 -442.716884 
L 704.154467 -373.741545 
L 712.373605 -328.02103 
L 720.592743 -373.716884 
L 728.81188 -373.692224 
L 737.031018 -327.774426 
L 745.250156 -350.141473 
L 753.469294 -373.051051 
L 761.688431 -373.716884 
L 769.907569 -419.240115 
L 778.126707 -396.552481 
L 786.345845 -396.157913 
L 794.564982 -396.009951 
L 802.78412 -373.886425 
L 811.003258 -351.00459 
L 819.222395 -397.267635 
L 827.441533 -373.618242 
L 835.660671 -373.272996 
L 843.879809 -396.699211 
L 852.098946 -396.919305 
L 860.318084 -374.358056 
L 868.537222 -373.938828 
L 876.75636 -327.108593 
L 884.975497 -373.716884 
L 893.194635 -397.612881 
L 901.413773 -373.001731 
L 901.413773 -464.812666 
L 901.413773 -464.812666 
L 893.194635 -464.812666 
L 884.975497 -464.812666 
L 876.75636 -464.689364 
L 868.537222 -464.692446 
L 860.318084 -464.689364 
L 852.098946 -464.689364 
L 843.879809 -464.689364 
L 835.660671 -464.812666 
L 827.441533 -464.692446 
L 819.222395 -464.689364 
L 811.003258 -464.689364 
L 802.78412 -464.689364 
L 794.564982 -464.812666 
L 786.345845 -464.689364 
L 778.126707 -464.812666 
L 769.907569 -464.689364 
L 761.688431 -464.689364 
L 753.469294 -464.689364 
L 745.250156 -464.812666 
L 737.031018 -464.689364 
L 728.81188 -464.812666 
L 720.592743 -464.812666 
L 712.373605 -464.812666 
L 704.154467 -464.812666 
L 695.93533 -464.689364 
L 687.716192 -464.812666 
L 679.497054 -464.812666 
L 671.277916 -464.812666 
L 663.058779 -464.689364 
L 654.839641 -464.689364 
L 646.620503 -464.689364 
L 638.401365 -464.692446 
L 630.182228 -464.689364 
L 621.96309 -464.689364 
L 613.743952 -464.689364 
L 605.524815 -464.861987 
L 597.305677 -464.689364 
L 589.086539 -464.689364 
L 580.867401 -464.812666 
L 572.648264 -464.689364 
L 564.429126 -464.689364 
L 556.209988 -464.812666 
L 547.99085 -464.689364 
L 539.771713 -464.689364 
L 531.552575 -464.812666 
L 523.333437 -464.812666 
L 515.1143 -464.812666 
L 506.895162 -464.689364 
L 498.676024 -464.689364 
L 490.456886 -464.640043 
L 482.237749 -464.468653 
L 474.018611 -464.640043 
L 465.799473 -464.46742 
L 457.580335 -464.418099 
L 449.361198 -464.640043 
L 441.14206 -464.640043 
L 432.922922 -449.251909 
L 424.703785 -403.714498 
L 416.484647 -434.776212 
L 408.265509 -404.024604 
L 400.046371 -418.550855 
L 391.827234 -433.814453 
L 383.608096 -411.422745 
L 375.388958 -418.47564 
L 367.16982 -411.052838 
L 358.950683 -410.658271 
L 350.731545 -404.36985 
L 342.512407 -404.665776 
L 334.29327 -411.052838 
L 326.074132 -389.672209 
L 317.854994 -397.711523 
L 309.635856 -344.296942 
L 301.416719 -381.957181 
L 293.197581 -359.586434 
L 284.978443 -397.56356 
L 276.759305 -388.932395 
L 268.540168 -358.699274 
L 260.32103 -395.98529 
L 252.101892 -388.1186 
L 243.882755 -375.319815 
L 235.663617 -404.789078 
L 227.444479 -350.782646 
L 219.225341 -335.271209 
L 211.006204 -358.131466 
L 202.787066 -236.580002 
L 194.567928 -321.194395 
L 186.34879 -252.313999 
L 178.129653 -205.754412 
L 169.910515 -244.569994 
L 161.691377 -167.801946 
L 153.47224 -114.510667 
L 145.253102 -106.594656 
L 137.033964 -83.512455 
L 128.814826 -83.512455 
L 120.595689 -83.512455 
L 112.376551 -83.512455 
L 104.157413 -83.512455 
L 95.938275 -83.512455 
L 87.719138 -83.512455 
z
" style="stroke: #c44e52; stroke-opacity: 0.2; stroke-width: 1.5"/>
    </defs>
    <g clip-path="url(#pef20a5afea)">
     <use xlink:href="#m2ba251b57b" x="0" y="504" style="fill: #c44e52; fill-opacity: 0.2; stroke: #c44e52; stroke-opacity: 0.2; stroke-width: 1.5"/>
    </g>
   </g>
   <g id="line2d_13">
    <path d="M 87.719138 420.487545 
L 95.938275 420.487545 
L 104.157413 420.487545 
L 112.376551 420.487545 
L 120.595689 397.257381 
L 128.814826 397.306702 
L 137.033964 366.629076 
L 145.253102 312.893908 
L 153.47224 336.148733 
L 161.691377 305.224501 
L 169.910515 220.787047 
L 178.129653 259.602629 
L 186.34879 205.102987 
L 194.567928 205.966103 
L 202.787066 236.12586 
L 211.006204 206.286689 
L 219.225341 206.286689 
L 227.444479 206.755238 
L 235.663617 182.982544 
L 243.882755 221.452879 
L 252.101892 167.471107 
L 260.32103 183.32779 
L 268.540168 251.785259 
L 276.759305 183.30313 
L 284.978443 159.900342 
L 293.197581 190.479327 
L 301.416719 136.744159 
L 309.635856 167.397126 
L 317.854994 213.487547 
L 326.074132 137.730578 
L 334.29327 182.957883 
L 342.512407 153.168033 
L 350.731545 198.666604 
L 358.950683 152.354238 
L 367.16982 167.421786 
L 375.388958 160.048305 
L 383.608096 167.323144 
L 391.827234 175.313137 
L 400.046371 114.426433 
L 408.265509 152.132294 
L 416.484647 205.596196 
L 424.703785 121.849234 
L 432.922922 152.699484 
L 441.14206 160.368891 
L 449.361198 167.594409 
L 457.580335 121.725932 
L 465.799473 136.842801 
L 474.018611 113.735939 
L 482.237749 129.148734 
L 490.456886 121.676611 
L 498.676024 106.658384 
L 506.895162 114.155167 
L 515.1143 114.155167 
L 523.333437 114.426433 
L 531.552575 105.992551 
L 539.771713 122.268463 
L 547.99085 106.831007 
L 556.209988 152.724145 
L 564.429126 137.262029 
L 572.648264 83.625504 
L 580.867401 114.623716 
L 589.086539 114.894982 
L 597.305677 144.931436 
L 605.524815 114.007205 
L 613.743952 167.841014 
L 621.96309 129.419999 
L 630.182228 98.865675 
L 638.401365 83.551522 
L 646.620503 98.59441 
L 654.839641 76.202702 
L 663.058779 91.048305 
L 671.277916 83.600843 
L 679.497054 106.732365 
L 687.716192 98.717712 
L 695.93533 106.165175 
L 704.154467 83.847448 
L 712.373605 91.590836 
L 720.592743 83.551522 
L 728.81188 106.4611 
L 737.031018 67.645518 
L 745.250156 60.469321 
L 753.469294 67.842802 
L 761.688431 52.134081 
L 769.907569 52.380686 
L 778.126707 75.660171 
L 786.345845 67.74416 
L 794.564982 45.25381 
L 802.78412 44.711279 
L 811.003258 52.57797 
L 819.222395 67.719499 
L 827.441533 37.165175 
" clip-path="url(#pef20a5afea)" style="fill: none; stroke: #4c72b0; stroke-width: 2.25; stroke-linecap: round"/>
   </g>
   <g id="line2d_14">
    <path d="M 87.719138 420.487545 
L 95.938275 420.487545 
L 104.157413 420.487545 
L 112.376551 420.487545 
L 120.595689 420.487545 
L 128.814826 412.744157 
L 137.033964 420.487545 
L 145.253102 382.485759 
L 153.47224 382.485759 
L 161.691377 366.579755 
L 169.910515 343.670176 
L 178.129653 321.278468 
L 186.34879 320.785259 
L 194.567928 321.179826 
L 202.787066 268.184473 
L 211.006204 267.937868 
L 219.225341 290.230935 
L 227.444479 244.313136 
L 235.663617 237.062958 
L 243.882755 275.33601 
L 252.101892 221.551521 
L 260.32103 206.188047 
L 268.540168 175.880328 
L 276.759305 199.283115 
L 284.978443 175.48576 
L 293.197581 190.775253 
L 301.416719 267.567961 
L 309.635856 191.441085 
L 317.854994 151.885689 
L 326.074132 144.63551 
L 334.29327 167.64373 
L 342.512407 152.872108 
L 350.731545 114.105846 
L 358.950683 114.697698 
L 367.16982 91.862101 
L 375.388958 122.243802 
L 383.608096 115.166247 
L 391.827234 107.422859 
L 400.046371 144.980757 
L 408.265509 121.873895 
L 416.484647 99.038298 
L 424.703785 99.013638 
L 432.922922 99.679471 
L 441.14206 122.14516 
L 449.361198 129.46932 
L 457.580335 160.442873 
L 465.799473 114.327791 
L 474.018611 175.535081 
L 482.237749 61.085832 
L 490.456886 53.983617 
L 498.676024 84.168034 
L 506.895162 68.138727 
L 515.1143 99.11228 
L 523.333437 60.740586 
L 531.552575 76.12872 
L 539.771713 76.054739 
L 547.99085 60.913209 
L 556.209988 37.707705 
" clip-path="url(#pef20a5afea)" style="fill: none; stroke: #dd8452; stroke-width: 2.25; stroke-linecap: round"/>
   </g>
   <g id="line2d_15">
    <path d="M 87.719138 420.487545 
L 95.938275 420.487545 
L 104.157413 420.487545 
L 112.376551 420.487545 
L 120.595689 420.487545 
L 128.814826 420.487545 
L 137.033964 420.487545 
L 145.253102 397.72593 
L 153.47224 398.046516 
L 161.691377 405.395337 
L 169.910515 374.298482 
L 178.129653 305.69305 
L 186.34879 321.007203 
L 194.567928 336.5433 
L 202.787066 289.861027 
L 211.006204 236.199841 
L 219.225341 236.520427 
L 227.444479 197.729506 
L 235.663617 198.49398 
L 243.882755 190.528648 
L 252.101892 168.358884 
L 260.32103 160.467533 
L 268.540168 213.857454 
L 276.759305 160.393552 
L 284.978443 198.641943 
L 293.197581 175.362458 
L 301.416719 152.822787 
L 309.635856 151.491121 
L 317.854994 152.625503 
L 326.074132 91.418213 
L 334.29327 121.62729 
L 342.512407 167.545088 
L 350.731545 121.577969 
L 358.950683 106.806347 
L 367.16982 182.711278 
L 375.388958 152.082973 
L 383.608096 106.411779 
L 391.827234 144.512208 
L 400.046371 106.041872 
L 408.265509 152.378898 
L 416.484647 144.61085 
L 424.703785 136.916783 
L 432.922922 114.056525 
L 441.14206 137.138727 
L 449.361198 129.370678 
L 457.580335 106.485761 
L 465.799473 121.306704 
L 474.018611 90.801701 
L 482.237749 91.590836 
L 490.456886 67.596197 
L 498.676024 83.354238 
L 506.895162 67.694839 
L 515.1143 52.430007 
L 523.333437 52.923216 
L 531.552575 37.559743 
" clip-path="url(#pef20a5afea)" style="fill: none; stroke: #55a868; stroke-width: 2.25; stroke-linecap: round"/>
   </g>
   <g id="line2d_16">
    <path d="M 87.719138 420.487545 
L 95.938275 420.487545 
L 104.157413 420.487545 
L 112.376551 420.487545 
L 120.595689 420.487545 
L 128.814826 420.487545 
L 137.033964 420.487545 
L 145.253102 412.793478 
L 153.47224 405.074751 
L 161.691377 374.545087 
L 169.910515 351.364244 
L 178.129653 336.395337 
L 186.34879 305.421785 
L 194.567928 236.273823 
L 202.787066 282.709491 
L 211.006204 183.599055 
L 219.225341 199.332436 
L 227.444479 198.937869 
L 235.663617 160.368891 
L 243.882755 182.982544 
L 252.101892 154.277755 
L 260.32103 153.611922 
L 268.540168 183.919641 
L 276.759305 161.37997 
L 284.978443 137.163387 
L 293.197581 198.715924 
L 301.416719 168.605489 
L 309.635856 198.296696 
L 317.854994 160.097626 
L 326.074132 145.202701 
L 334.29327 115.067605 
L 342.512407 137.188048 
L 350.731545 123.032937 
L 358.950683 153.759885 
L 367.16982 152.946089 
L 375.388958 145.991836 
L 383.608096 145.547948 
L 391.827234 137.582615 
L 400.046371 153.143373 
L 408.265509 191.021857 
L 416.484647 114.747019 
L 424.703785 183.722358 
L 432.922922 107.842087 
L 441.14206 123.057598 
L 449.361198 99.950736 
L 457.580335 77.213781 
L 465.799473 92.158027 
L 474.018611 107.49684 
L 482.237749 84.833867 
L 490.456886 85.203774 
L 498.676024 62.614782 
L 506.895162 54.920715 
L 515.1143 62.269535 
L 523.333437 70.086905 
L 531.552575 54.846733 
L 539.771713 62.5408 
L 547.99085 69.938942 
L 556.209988 69.938942 
L 564.429126 100.591908 
L 572.648264 62.047591 
L 580.867401 54.723431 
L 589.086539 77.559028 
L 597.305677 62.5408 
L 605.524815 62.392837 
L 613.743952 54.797412 
L 621.96309 62.294196 
L 630.182228 55.093338 
L 638.401365 62.639442 
L 646.620503 70.160886 
L 654.839641 77.633009 
L 663.058779 54.748091 
L 671.277916 54.624789 
L 679.497054 47.103345 
L 687.716192 54.748091 
L 695.93533 46.955382 
L 704.154467 69.889621 
L 712.373605 85.129792 
L 720.592743 69.914281 
L 728.81188 69.963602 
L 737.031018 85.228434 
L 745.250156 77.756311 
L 753.469294 70.136226 
L 761.688431 69.914281 
L 769.907569 54.723431 
L 778.126707 62.343517 
L 786.345845 62.417498 
L 794.564982 62.466819 
L 802.78412 69.8403 
L 811.003258 77.485046 
L 819.222395 62.047591 
L 827.441533 69.889621 
L 835.660671 70.062244 
L 843.879809 62.195554 
L 852.098946 62.220214 
L 860.318084 69.741658 
L 868.537222 69.8403 
L 876.75636 85.450378 
L 884.975497 69.8403 
L 893.194635 61.948949 
L 901.413773 70.136226 
" clip-path="url(#pef20a5afea)" style="fill: none; stroke: #c44e52; stroke-width: 2.25; stroke-linecap: round"/>
   </g>
   <g id="line2d_17"/>
   <g id="line2d_18"/>
   <g id="line2d_19"/>
   <g id="line2d_20"/>
   <g id="patch_3">
    <path d="M 79.5 420.487545 
L 79.5 25.92 
" style="fill: none; stroke: #ffffff; stroke-width: 1.875; stroke-linejoin: miter; stroke-linecap: square"/>
   </g>
   <g id="patch_4">
    <path d="M 901.413773 420.487545 
L 901.413773 25.92 
" style="fill: none; stroke: #ffffff; stroke-width: 1.875; stroke-linejoin: miter; stroke-linecap: square"/>
   </g>
   <g id="patch_5">
    <path d="M 79.5 420.487545 
L 901.413773 420.487545 
" style="fill: none; stroke: #ffffff; stroke-width: 1.875; stroke-linejoin: miter; stroke-linecap: square"/>
   </g>
   <g id="patch_6">
    <path d="M 79.5 25.92 
L 901.413773 25.92 
" style="fill: none; stroke: #ffffff; stroke-width: 1.875; stroke-linejoin: miter; stroke-linecap: square"/>
   </g>
   <g id="legend_1">
    <g id="patch_7">
     <path d="M 670.333851 412.237545 
L 889.863773 412.237545 
Q 893.163773 412.237545 893.163773 408.937545 
L 893.163773 288.041295 
Q 893.163773 284.741295 889.863773 284.741295 
L 670.333851 284.741295 
Q 667.033851 284.741295 667.033851 288.041295 
L 667.033851 408.937545 
Q 667.033851 412.237545 670.333851 412.237545 
z
" style="fill: #eaeaf2; opacity: 0.8; stroke: #cccccc; stroke-width: 1.5; stroke-linejoin: miter"/>
    </g>
    <g id="text_16">
     <!-- Approach -->
     <g style="fill: #262626" transform="translate(737.343187 305.018483) scale(0.18 -0.18)">
      <defs>
       <path id="DejaVuSans-41" d="M 2188 4044 
L 1331 1722 
L 3047 1722 
L 2188 4044 
z
M 1831 4666 
L 2547 4666 
L 4325 0 
L 3669 0 
L 3244 1197 
L 1141 1197 
L 716 0 
L 50 0 
L 1831 4666 
z
" transform="scale(0.015625)"/>
       <path id="DejaVuSans-61" d="M 2194 1759 
Q 1497 1759 1228 1600 
Q 959 1441 959 1056 
Q 959 750 1161 570 
Q 1363 391 1709 391 
Q 2188 391 2477 730 
Q 2766 1069 2766 1631 
L 2766 1759 
L 2194 1759 
z
M 3341 1997 
L 3341 0 
L 2766 0 
L 2766 531 
Q 2569 213 2275 61 
Q 1981 -91 1556 -91 
Q 1019 -91 701 211 
Q 384 513 384 1019 
Q 384 1609 779 1909 
Q 1175 2209 1959 2209 
L 2766 2209 
L 2766 2266 
Q 2766 2663 2505 2880 
Q 2244 3097 1772 3097 
Q 1472 3097 1187 3025 
Q 903 2953 641 2809 
L 641 3341 
Q 956 3463 1253 3523 
Q 1550 3584 1831 3584 
Q 2591 3584 2966 3190 
Q 3341 2797 3341 1997 
z
" transform="scale(0.015625)"/>
       <path id="DejaVuSans-68" d="M 3513 2113 
L 3513 0 
L 2938 0 
L 2938 2094 
Q 2938 2591 2744 2837 
Q 2550 3084 2163 3084 
Q 1697 3084 1428 2787 
Q 1159 2491 1159 1978 
L 1159 0 
L 581 0 
L 581 4863 
L 1159 4863 
L 1159 2956 
Q 1366 3272 1645 3428 
Q 1925 3584 2291 3584 
Q 2894 3584 3203 3211 
Q 3513 2838 3513 2113 
z
" transform="scale(0.015625)"/>
      </defs>
      <use xlink:href="#DejaVuSans-41"/>
      <use xlink:href="#DejaVuSans-70" x="68.408203"/>
      <use xlink:href="#DejaVuSans-70" x="131.884766"/>
      <use xlink:href="#DejaVuSans-72" x="195.361328"/>
      <use xlink:href="#DejaVuSans-6f" x="234.224609"/>
      <use xlink:href="#DejaVuSans-61" x="295.40625"/>
      <use xlink:href="#DejaVuSans-63" x="356.685547"/>
      <use xlink:href="#DejaVuSans-68" x="411.666016"/>
     </g>
    </g>
    <g id="line2d_21">
     <path d="M 673.633851 323.774342 
L 690.133851 323.774342 
L 706.633851 323.774342 
" style="fill: none; stroke: #4c72b0; stroke-width: 2.25; stroke-linecap: round"/>
    </g>
    <g id="text_17">
     <!-- Combined -->
     <g style="fill: #262626" transform="translate(719.833851 329.549342) scale(0.165 -0.165)">
      <defs>
       <path id="DejaVuSans-43" d="M 4122 4306 
L 4122 3641 
Q 3803 3938 3442 4084 
Q 3081 4231 2675 4231 
Q 1875 4231 1450 3742 
Q 1025 3253 1025 2328 
Q 1025 1406 1450 917 
Q 1875 428 2675 428 
Q 3081 428 3442 575 
Q 3803 722 4122 1019 
L 4122 359 
Q 3791 134 3420 21 
Q 3050 -91 2638 -91 
Q 1578 -91 968 557 
Q 359 1206 359 2328 
Q 359 3453 968 4101 
Q 1578 4750 2638 4750 
Q 3056 4750 3426 4639 
Q 3797 4528 4122 4306 
z
" transform="scale(0.015625)"/>
       <path id="DejaVuSans-62" d="M 3116 1747 
Q 3116 2381 2855 2742 
Q 2594 3103 2138 3103 
Q 1681 3103 1420 2742 
Q 1159 2381 1159 1747 
Q 1159 1113 1420 752 
Q 1681 391 2138 391 
Q 2594 391 2855 752 
Q 3116 1113 3116 1747 
z
M 1159 2969 
Q 1341 3281 1617 3432 
Q 1894 3584 2278 3584 
Q 2916 3584 3314 3078 
Q 3713 2572 3713 1747 
Q 3713 922 3314 415 
Q 2916 -91 2278 -91 
Q 1894 -91 1617 61 
Q 1341 213 1159 525 
L 1159 0 
L 581 0 
L 581 4863 
L 1159 4863 
L 1159 2969 
z
" transform="scale(0.015625)"/>
       <path id="DejaVuSans-6e" d="M 3513 2113 
L 3513 0 
L 2938 0 
L 2938 2094 
Q 2938 2591 2744 2837 
Q 2550 3084 2163 3084 
Q 1697 3084 1428 2787 
Q 1159 2491 1159 1978 
L 1159 0 
L 581 0 
L 581 3500 
L 1159 3500 
L 1159 2956 
Q 1366 3272 1645 3428 
Q 1925 3584 2291 3584 
Q 2894 3584 3203 3211 
Q 3513 2838 3513 2113 
z
" transform="scale(0.015625)"/>
       <path id="DejaVuSans-64" d="M 2906 2969 
L 2906 4863 
L 3481 4863 
L 3481 0 
L 2906 0 
L 2906 525 
Q 2725 213 2448 61 
Q 2172 -91 1784 -91 
Q 1150 -91 751 415 
Q 353 922 353 1747 
Q 353 2572 751 3078 
Q 1150 3584 1784 3584 
Q 2172 3584 2448 3432 
Q 2725 3281 2906 2969 
z
M 947 1747 
Q 947 1113 1208 752 
Q 1469 391 1925 391 
Q 2381 391 2643 752 
Q 2906 1113 2906 1747 
Q 2906 2381 2643 2742 
Q 2381 3103 1925 3103 
Q 1469 3103 1208 2742 
Q 947 2381 947 1747 
z
" transform="scale(0.015625)"/>
      </defs>
      <use xlink:href="#DejaVuSans-43"/>
      <use xlink:href="#DejaVuSans-6f" x="69.824219"/>
      <use xlink:href="#DejaVuSans-6d" x="131.005859"/>
      <use xlink:href="#DejaVuSans-62" x="228.417969"/>
      <use xlink:href="#DejaVuSans-69" x="291.894531"/>
      <use xlink:href="#DejaVuSans-6e" x="319.677734"/>
      <use xlink:href="#DejaVuSans-65" x="383.056641"/>
      <use xlink:href="#DejaVuSans-64" x="444.580078"/>
     </g>
    </g>
    <g id="line2d_22">
     <path d="M 673.633851 347.993249 
L 690.133851 347.993249 
L 706.633851 347.993249 
" style="fill: none; stroke: #dd8452; stroke-width: 2.25; stroke-linecap: round"/>
    </g>
    <g id="text_18">
     <!-- Proximal Curriculum -->
     <g style="fill: #262626" transform="translate(719.833851 353.768249) scale(0.165 -0.165)">
      <defs>
       <path id="DejaVuSans-50" d="M 1259 4147 
L 1259 2394 
L 2053 2394 
Q 2494 2394 2734 2622 
Q 2975 2850 2975 3272 
Q 2975 3691 2734 3919 
Q 2494 4147 2053 4147 
L 1259 4147 
z
M 628 4666 
L 2053 4666 
Q 2838 4666 3239 4311 
Q 3641 3956 3641 3272 
Q 3641 2581 3239 2228 
Q 2838 1875 2053 1875 
L 1259 1875 
L 1259 0 
L 628 0 
L 628 4666 
z
" transform="scale(0.015625)"/>
       <path id="DejaVuSans-78" d="M 3513 3500 
L 2247 1797 
L 3578 0 
L 2900 0 
L 1881 1375 
L 863 0 
L 184 0 
L 1544 1831 
L 300 3500 
L 978 3500 
L 1906 2253 
L 2834 3500 
L 3513 3500 
z
" transform="scale(0.015625)"/>
       <path id="DejaVuSans-6c" d="M 603 4863 
L 1178 4863 
L 1178 0 
L 603 0 
L 603 4863 
z
" transform="scale(0.015625)"/>
       <path id="DejaVuSans-20" transform="scale(0.015625)"/>
       <path id="DejaVuSans-75" d="M 544 1381 
L 544 3500 
L 1119 3500 
L 1119 1403 
Q 1119 906 1312 657 
Q 1506 409 1894 409 
Q 2359 409 2629 706 
Q 2900 1003 2900 1516 
L 2900 3500 
L 3475 3500 
L 3475 0 
L 2900 0 
L 2900 538 
Q 2691 219 2414 64 
Q 2138 -91 1772 -91 
Q 1169 -91 856 284 
Q 544 659 544 1381 
z
M 1991 3584 
L 1991 3584 
z
" transform="scale(0.015625)"/>
      </defs>
      <use xlink:href="#DejaVuSans-50"/>
      <use xlink:href="#DejaVuSans-72" x="58.552734"/>
      <use xlink:href="#DejaVuSans-6f" x="97.416016"/>
      <use xlink:href="#DejaVuSans-78" x="155.472656"/>
      <use xlink:href="#DejaVuSans-69" x="214.652344"/>
      <use xlink:href="#DejaVuSans-6d" x="242.435547"/>
      <use xlink:href="#DejaVuSans-61" x="339.847656"/>
      <use xlink:href="#DejaVuSans-6c" x="401.126953"/>
      <use xlink:href="#DejaVuSans-20" x="428.910156"/>
      <use xlink:href="#DejaVuSans-43" x="460.697266"/>
      <use xlink:href="#DejaVuSans-75" x="530.521484"/>
      <use xlink:href="#DejaVuSans-72" x="593.900391"/>
      <use xlink:href="#DejaVuSans-72" x="633.263672"/>
      <use xlink:href="#DejaVuSans-69" x="674.376953"/>
      <use xlink:href="#DejaVuSans-63" x="702.160156"/>
      <use xlink:href="#DejaVuSans-75" x="757.140625"/>
      <use xlink:href="#DejaVuSans-6c" x="820.519531"/>
      <use xlink:href="#DejaVuSans-75" x="848.302734"/>
      <use xlink:href="#DejaVuSans-6d" x="911.681641"/>
     </g>
    </g>
    <g id="line2d_23">
     <path d="M 673.633851 372.212155 
L 690.133851 372.212155 
L 706.633851 372.212155 
" style="fill: none; stroke: #55a868; stroke-width: 2.25; stroke-linecap: round"/>
    </g>
    <g id="text_19">
     <!-- State Novelty (RND) -->
     <g style="fill: #262626" transform="translate(719.833851 377.987155) scale(0.165 -0.165)">
      <defs>
       <path id="DejaVuSans-4e" d="M 628 4666 
L 1478 4666 
L 3547 763 
L 3547 4666 
L 4159 4666 
L 4159 0 
L 3309 0 
L 1241 3903 
L 1241 0 
L 628 0 
L 628 4666 
z
" transform="scale(0.015625)"/>
       <path id="DejaVuSans-76" d="M 191 3500 
L 800 3500 
L 1894 563 
L 2988 3500 
L 3597 3500 
L 2284 0 
L 1503 0 
L 191 3500 
z
" transform="scale(0.015625)"/>
       <path id="DejaVuSans-79" d="M 2059 -325 
Q 1816 -950 1584 -1140 
Q 1353 -1331 966 -1331 
L 506 -1331 
L 506 -850 
L 844 -850 
Q 1081 -850 1212 -737 
Q 1344 -625 1503 -206 
L 1606 56 
L 191 3500 
L 800 3500 
L 1894 763 
L 2988 3500 
L 3597 3500 
L 2059 -325 
z
" transform="scale(0.015625)"/>
       <path id="DejaVuSans-28" d="M 1984 4856 
Q 1566 4138 1362 3434 
Q 1159 2731 1159 2009 
Q 1159 1288 1364 580 
Q 1569 -128 1984 -844 
L 1484 -844 
Q 1016 -109 783 600 
Q 550 1309 550 2009 
Q 550 2706 781 3412 
Q 1013 4119 1484 4856 
L 1984 4856 
z
" transform="scale(0.015625)"/>
       <path id="DejaVuSans-52" d="M 2841 2188 
Q 3044 2119 3236 1894 
Q 3428 1669 3622 1275 
L 4263 0 
L 3584 0 
L 2988 1197 
Q 2756 1666 2539 1819 
Q 2322 1972 1947 1972 
L 1259 1972 
L 1259 0 
L 628 0 
L 628 4666 
L 2053 4666 
Q 2853 4666 3247 4331 
Q 3641 3997 3641 3322 
Q 3641 2881 3436 2590 
Q 3231 2300 2841 2188 
z
M 1259 4147 
L 1259 2491 
L 2053 2491 
Q 2509 2491 2742 2702 
Q 2975 2913 2975 3322 
Q 2975 3731 2742 3939 
Q 2509 4147 2053 4147 
L 1259 4147 
z
" transform="scale(0.015625)"/>
       <path id="DejaVuSans-44" d="M 1259 4147 
L 1259 519 
L 2022 519 
Q 2988 519 3436 956 
Q 3884 1394 3884 2338 
Q 3884 3275 3436 3711 
Q 2988 4147 2022 4147 
L 1259 4147 
z
M 628 4666 
L 1925 4666 
Q 3281 4666 3915 4102 
Q 4550 3538 4550 2338 
Q 4550 1131 3912 565 
Q 3275 0 1925 0 
L 628 0 
L 628 4666 
z
" transform="scale(0.015625)"/>
       <path id="DejaVuSans-29" d="M 513 4856 
L 1013 4856 
Q 1481 4119 1714 3412 
Q 1947 2706 1947 2009 
Q 1947 1309 1714 600 
Q 1481 -109 1013 -844 
L 513 -844 
Q 928 -128 1133 580 
Q 1338 1288 1338 2009 
Q 1338 2731 1133 3434 
Q 928 4138 513 4856 
z
" transform="scale(0.015625)"/>
      </defs>
      <use xlink:href="#DejaVuSans-53"/>
      <use xlink:href="#DejaVuSans-74" x="63.476562"/>
      <use xlink:href="#DejaVuSans-61" x="102.685547"/>
      <use xlink:href="#DejaVuSans-74" x="163.964844"/>
      <use xlink:href="#DejaVuSans-65" x="203.173828"/>
      <use xlink:href="#DejaVuSans-20" x="264.697266"/>
      <use xlink:href="#DejaVuSans-4e" x="296.484375"/>
      <use xlink:href="#DejaVuSans-6f" x="371.289062"/>
      <use xlink:href="#DejaVuSans-76" x="432.470703"/>
      <use xlink:href="#DejaVuSans-65" x="491.650391"/>
      <use xlink:href="#DejaVuSans-6c" x="553.173828"/>
      <use xlink:href="#DejaVuSans-74" x="580.957031"/>
      <use xlink:href="#DejaVuSans-79" x="620.166016"/>
      <use xlink:href="#DejaVuSans-20" x="679.345703"/>
      <use xlink:href="#DejaVuSans-28" x="711.132812"/>
      <use xlink:href="#DejaVuSans-52" x="750.146484"/>
      <use xlink:href="#DejaVuSans-4e" x="819.628906"/>
      <use xlink:href="#DejaVuSans-44" x="894.433594"/>
      <use xlink:href="#DejaVuSans-29" x="971.435547"/>
     </g>
    </g>
    <g id="line2d_24">
     <path d="M 673.633851 396.431061 
L 690.133851 396.431061 
L 706.633851 396.431061 
" style="fill: none; stroke: #c44e52; stroke-width: 2.25; stroke-linecap: round"/>
    </g>
    <g id="text_20">
     <!-- Vanilla -->
     <g style="fill: #262626" transform="translate(719.833851 402.206061) scale(0.165 -0.165)">
      <defs>
       <path id="DejaVuSans-56" d="M 1831 0 
L 50 4666 
L 709 4666 
L 2188 738 
L 3669 4666 
L 4325 4666 
L 2547 0 
L 1831 0 
z
" transform="scale(0.015625)"/>
      </defs>
      <use xlink:href="#DejaVuSans-56"/>
      <use xlink:href="#DejaVuSans-61" x="60.658203"/>
      <use xlink:href="#DejaVuSans-6e" x="121.9375"/>
      <use xlink:href="#DejaVuSans-69" x="185.316406"/>
      <use xlink:href="#DejaVuSans-6c" x="213.099609"/>
      <use xlink:href="#DejaVuSans-6c" x="240.882812"/>
      <use xlink:href="#DejaVuSans-61" x="268.666016"/>
     </g>
    </g>
   </g>
  </g>
 </g>
 <defs>
  <clipPath id="pef20a5afea">
   <rect x="79.5" y="25.92" width="821.913773" height="394.567545"/>
  </clipPath>
 </defs>
</svg>
